<svg xmlns="http://www.w3.org/2000/svg" viewBox="0.0 0.0 512.0 512.0" height="512.0px" width="512.0px"><path fill="#FCAC9F" fill-opacity="1.0"  filling="0" d="M318.78375244140625 92.51504516601562 C318.5472412109375 92.03887939453125 318.0096435546875 91.92987060546875 317.51806640625 92.13873291015625 C316.8406982421875 92.42752075195312 316.1802978515625 92.76235961914062 315.5382080078125 93.12179565429688 C314.0374755859375 93.96197509765625 312.56146240234375 94.84823608398438 311.0484619140625 95.66693115234375 C310.708984375 95.85122680664062 310.196044921875 96.23828125 309.84271240234375 95.32131958007812 C310.3802490234375 94.78067016601562 310.96856689453125 94.17086791992188 311.5753173828125 93.5810546875 C312.8994140625 92.29385375976562 314.277099609375 91.05892944335938 315.5443115234375 89.71646118164062 C316.29541015625 88.91925048828125 316.9036865234375 87.979248046875 317.5135498046875 87.06222534179688 C317.6962890625 86.78579711914062 317.786865234375 86.29421997070312 317.364501953125 86.10223388671875 C317.0758056640625 85.97018432617188 316.59033203125 85.902587890625 316.3660888671875 86.0577392578125 C315.1541748046875 86.893310546875 313.97607421875 87.78109741210938 312.8271484375 88.70269775390625 C311.619873046875 89.67193603515625 310.566162109375 90.85311889648438 309.0623779296875 91.53970336914062 C308.75213623046875 90.29397583007812 309.68603515625 89.87619018554688 310.2021484375 89.28024291992188 C311.5753173828125 87.70123291015625 313.0653076171875 86.22360229492188 314.4168701171875 84.62771606445312 C315.12353515625 83.79367065429688 315.6903076171875 82.82443237304688 316.2186279296875 81.85983276367188 C316.4490966796875 81.44204711914062 316.38763427734375 80.87063598632812 315.974365234375 80.50045776367188 C315.539794921875 80.11029052734375 315.02978515625 80.25778198242188 314.636474609375 80.5511474609375 C311.503173828125 82.89968872070312 308.5601806640625 85.44790649414062 306.3206787109375 88.71035766601562 C306.04876708984375 88.14971923828125 305.78759765625 87.56298828125 306.18701171875 86.98086547851562 C306.7430419921875 86.16986083984375 307.383544921875 85.41567993164062 307.94580078125 84.60772705078125 C308.99945068359375 83.09323120117188 310.071533203125 81.58795166015625 311.039306640625 80.01971435546875 C311.7703857421875 78.83392333984375 311.74737548828125 78.00140380859375 311.1544189453125 77.73260498046875 C310.140625 77.27487182617188 309.5523681640625 78.029052734375 308.93798828125 78.5911865234375 C308.394287109375 79.08734130859375 307.9073486328125 79.65103149414062 307.4281005859375 80.21170043945312 C305.749267578125 82.17779541015625 304.0965576171875 84.163818359375 302.4114990234375 86.12530517578125 C301.7618408203125 86.88253784179688 301.1627197265625 86.73663330078125 300.8939208984375 85.73208618164062 C300.6082763671875 84.66302490234375 300.4146728515625 83.57244873046875 299.6728515625 82.687744140625 C299.299560546875 82.2423095703125 298.328857421875 82.28836059570312 298.0784912109375 82.79373168945312 C297.917236328125 83.11932373046875 297.69757080078125 83.46337890625 297.68218994140625 83.8074951171875 C297.5040283203125 87.71505737304688 295.9388427734375 91.20330810546875 294.4366455078125 94.71307373046875 C290.89459228515625 102.98904418945312 290.3247375488281 111.67205810546875 291.287841796875 120.45950317382812 C292.206298828125 128.83071899414062 292.015869140625 137.16351318359375 291.3707580566406 145.52243041992188 C291.17572021484375 148.05374145507812 290.33709716796875 150.32394409179688 288.89471435546875 152.37911987304688 C287.90557861328125 153.7891845703125 286.9163513183594 155.20687866210938 285.8273620605469 156.54013061523438 C283.56634521484375 159.31106567382812 281.36065673828125 162.12655639648438 279.5189514160156 165.18936157226562 C276.964599609375 169.4364013671875 273.41339111328125 172.4976806640625 269.0941162109375 174.8538818359375 C268.2186279296875 175.33157348632812 267.3262023925781 175.7340087890625 266.423095703125 176.09957885742188 C265.6519775390625 176.3668212890625 264.8732604980469 176.61257934570312 264.0867614746094 176.83224487304688 C262.5078125 177.09027099609375 260.9395446777344 176.88140869140625 259.561767578125 175.75857543945312 C256.906005859375 173.59588623046875 256.87530517578125 169.92791748046875 256.8507080078125 166.78530883789062 C256.84918212890625 166.49649047851562 256.71087646484375 166.30142211914062 256.52508544921875 166.17855834960938 C256.49896240234375 165.26922607421875 256.49127197265625 164.35992431640625 256.45904541015625 163.45062255859375 C256.4252624511719 162.53668212890625 256.45440673828125 161.61972045898438 256.45440673828125 160.7042236328125 C256.4328918457031 160.7042236328125 256.41143798828125 160.7042236328125 256.389892578125 160.7042236328125 C256.30230712890625 157.06393432617188 256.21478271484375 153.42361450195312 256.1287536621094 149.78482055664062 C256.0504455566406 146.47625732421875 255.6756591796875 143.21688842773438 254.53594970703125 140.08499145507812 C253.86932373046875 138.25405883789062 253.079833984375 136.4769287109375 251.81875610351562 134.97012329101562 C250.2213134765625 133.06085205078125 248.23834228515625 131.67843627929688 245.88214111328125 130.83053588867188 C244.70709228515625 130.40664672851562 243.52587890625 130.03646850585938 242.26483154296875 130.0164794921875 C240.7088623046875 129.99191284179688 239.1697998046875 130.182373046875 237.659912109375 130.52642822265625 C232.25164794921875 131.75985717773438 228.94158935546875 135.10833740234375 227.73123168945312 140.51809692382812 C227.341064453125 142.26455688476562 227.08920288085938 144.0340576171875 226.99395751953125 145.823486328125 C226.98468017578125 145.99703979492188 226.98321533203125 146.17984008789062 226.92788696289062 146.34112548828125 C226.439453125 147.78494262695312 226.0523681640625 149.26409912109375 225.33966064453125 150.62655639648438 C224.60238647460938 152.03659057617188 223.89425659179688 153.46197509765625 223.35821533203125 154.96420288085938 C223.21075439453125 155.3758544921875 223.09246826171875 155.79669189453125 223.03411865234375 156.22833251953125 C222.9296875 156.99786376953125 223.28448486328125 157.44949340820312 224.05712890625 157.51242065429688 C224.97564697265625 157.58770751953125 225.88644409179688 157.47711181640625 226.79119873046875 157.33270263671875 C227.1060791015625 157.28204345703125 227.2197265625 157.36346435546875 227.24737548828125 157.68142700195312 C227.40252685546875 159.39556884765625 227.5760498046875 161.1097412109375 227.7388916015625 162.82391357421875 C227.8172607421875 163.647216796875 227.83566284179688 164.47817993164062 227.9862060546875 165.29534912109375 C228.158203125 166.23385620117188 228.658935546875 166.93423461914062 229.48532104492188 167.4073486328125 C230.39312744140625 167.92648315429688 231.39764404296875 168.12005615234375 232.4144287109375 168.27212524414062 C233.95355224609375 168.50405883789062 235.5018310546875 168.474853515625 237.048583984375 168.44107055664062 C237.37576293945312 168.43341064453125 237.7044677734375 168.43798828125 238.02853393554688 168.41189575195312 C238.12994384765625 168.40267944335938 238.17755126953125 168.442626953125 238.24359130859375 168.46566772460938 C238.51547241210938 172.39321899414062 239.1298828125 178.6907958984375 234.465087890625 178.529541015625 C234.44659423828125 178.529541015625 234.434326171875 178.53720092773438 234.4158935546875 178.53720092773438 C229.37933349609375 177.30685424804688 224.5394287109375 173.39468383789062 222.66851806640625 168.706787109375 C221.98507690429688 166.99261474609375 221.35833740234375 165.25543212890625 220.74395751953125 163.51510620117188 C218.69952392578125 157.71368408203125 216.69656372070312 151.89682006835938 214.629150390625 146.10150146484375 C213.512451171875 142.97268676757812 212.34661865234375 139.86074829101562 211.10711669921875 136.77951049804688 C210.58944702148438 135.49234008789062 210.64471435546875 134.4140625 211.55712890625 133.3726806640625 C211.962646484375 132.91030883789062 212.31280517578125 132.39883422851562 212.7137451171875 131.931884765625 C216.56756591796875 127.44985961914062 220.416748046875 122.96316528320312 224.2890625 118.498046875 C225.5838623046875 117.00503540039062 227.06304931640625 115.70248413085938 228.66513061523438 114.54129028320312 C233.71240234375 110.87948608398438 236.05941772460938 105.7891845703125 236.4295654296875 99.69586181640625 C236.57855224609375 97.23822021484375 236.63543701171875 94.77297973632812 236.63543701171875 92.31076049804688 C236.63543701171875 89.8316650390625 236.795166015625 87.39556884765625 237.60769653320312 85.02703857421875 C237.84423828125 84.33740234375 237.9578857421875 83.59088134765625 238.02392578125 82.86129760742188 C238.06695556640625 82.38665771484375 237.93792724609375 81.88284301757812 237.42486572265625 81.63247680664062 C236.921142578125 81.38519287109375 236.38043212890625 81.5126953125 236.04864501953125 81.84597778320312 C235.02413940429688 82.87359619140625 234.07794189453125 83.97952270507812 232.97052001953125 85.19754028320312 C232.59573364257812 84.17459106445312 232.2762451171875 83.37890625 232.0135498046875 82.56634521484375 C231.21795654296875 80.10879516601562 230.48373413085938 77.63119506835938 229.64508056640625 75.18740844726562 C229.3302001953125 74.27041625976562 228.8402099609375 73.40261840820312 228.33795166015625 72.56857299804688 C228.1904296875 72.32278442382812 227.7281494140625 72.1446533203125 227.4117431640625 72.14617919921875 C226.82958984375 72.14923095703125 226.59765625 72.63153076171875 226.571533203125 73.1461181640625 C226.540771484375 73.75588989257812 226.508544921875 74.38568115234375 226.6221923828125 74.97854614257812 C226.99237060546875 76.91082763671875 227.39483642578125 78.83697509765625 227.85104370117188 80.74929809570312 C228.1812744140625 82.1317138671875 228.63894653320312 83.48641967773438 228.76800537109375 85.63528442382812 C228.09368896484375 84.48486328125 227.7342529296875 83.98873901367188 227.49313354492188 83.44192504882812 C226.7005615234375 81.64016723632812 225.98016357421875 79.80618286132812 225.1722412109375 78.0106201171875 C224.56707763671875 76.66506958007812 223.90350341796875 75.3441162109375 223.20156860351562 74.0477294921875 C222.85751342773438 73.41183471679688 222.4259033203125 72.76058959960938 221.52117919921875 72.86349487304688 C220.87603759765625 72.93719482421875 220.5826416015625 73.708251953125 220.78848266601562 75.056884765625 C220.91751098632812 75.9031982421875 221.1171875 76.74954223632812 221.38754272460938 77.56210327148438 C221.96969604492188 79.31314086914062 222.63629150390625 81.03497314453125 223.23223876953125 82.78143310546875 C223.65777587890625 84.02865600585938 224.02484130859375 85.29428100585938 224.5823974609375 87.0806884765625 C222.77450561523438 85.670654296875 222.30294799804688 84.11312866210938 221.55032348632812 82.74301147460938 C220.72244262695312 81.233154296875 219.9129638671875 79.71249389648438 219.0389404296875 78.230224609375 C218.81320190429688 77.84780883789062 218.47833251953125 77.36859130859375 217.87319946289062 77.59588623046875 C217.31094360351562 77.80630493164062 217.18194580078125 78.3270263671875 217.306396484375 78.80316162109375 C217.644287109375 80.10879516601562 217.9837646484375 81.42514038085938 218.47833251953125 82.67544555664062 C219.2908935546875 84.73367309570312 220.23089599609375 86.74276733398438 221.1094970703125 88.77642822265625 C221.34295654296875 89.31710815429688 221.73007202148438 89.85623168945312 221.16021728515625 90.53823852539062 C220.79000854492188 90.21261596679688 220.37991333007812 89.9315185546875 220.07269287109375 89.56591796875 C219.28167724609375 88.62435913085938 218.52752685546875 87.65206909179688 217.77484130859375 86.68133544921875 C217.1727294921875 85.902587890625 216.62594604492188 85.07925415039062 215.99615478515625 84.32662963867188 C215.1375732421875 83.30059814453125 214.27886962890625 82.93502807617188 213.8948974609375 83.37890625 C213.2958984375 84.07009887695312 213.65069580078125 84.76284790039062 213.99169921875 85.42333984375 C214.66754150390625 86.73507690429688 215.1728515625 88.19277954101562 216.08526611328125 89.31405639648438 C218.54132080078125 92.332275390625 219.8438720703125 95.94186401367188 221.459716796875 99.373291015625 C223.4964599609375 103.69561767578125 222.41204833984375 107.09939575195312 218.92840576171875 109.38800048828125 C216.6658935546875 110.87484741210938 214.3818359375 112.33251953125 212.0762939453125 113.75180053710938 C209.55572509765625 115.30313110351562 207.11505126953125 116.95590209960938 204.81719970703125 118.8251953125 C199.2967529296875 123.31491088867188 196.6533203125 129.159423828125 196.49664306640625 136.21273803710938 C196.4136962890625 139.9267578125 196.9052734375 143.59011840820312 197.50885009765625 147.23355102539062 C199.28756713867188 157.97323608398438 202.5316162109375 168.28286743164062 206.75408935546875 178.3006591796875 C208.95208740234375 183.5169219970703 211.19158935546875 188.7193603515625 213.23443603515625 193.99551391601562 C214.52618408203125 197.3301544189453 216.6136474609375 200.01356506347656 219.3046875 202.21617126464844 C224.49639892578125 206.4647674560547 230.35775756835938 209.58131408691406 236.69683837890625 211.72860717773438 C243.49212646484375 214.0310821533203 250.28582763671875 213.2815399169922 257.054931640625 211.41375732421875 C262.956298828125 209.7855987548828 268.025146484375 206.48011779785156 273.2705078125 203.52333068847656 C274.06005859375 203.077880859375 274.51007080078125 202.371337890625 274.8863830566406 201.571044921875 C277.101318359375 196.86782836914062 280.052001953125 192.6192626953125 283.1285705566406 188.4597625732422 C285.1100158691406 185.77944946289062 286.9240417480469 182.99929809570312 288.46002197265625 180.04556274414062 C290.79168701171875 175.5604248046875 293.3782958984375 171.23199462890625 296.31207275390625 167.1124267578125 C297.0263671875 166.10943603515625 297.7191162109375 165.08642578125 298.33807373046875 164.02508544921875 C301.40234375 158.77194213867188 303.9091796875 153.28536987304688 304.379150390625 147.1336669921875 C304.8583984375 140.86068725585938 304.7093505859375 134.56304931640625 304.03509521484375 128.3192138671875 C303.3837890625 122.28579711914062 303.4068603515625 116.27545166015625 303.7432861328125 110.24664306640625 C303.79852294921875 109.2681884765625 304.0120849609375 108.2974853515625 304.1748046875 107.32669067382812 C304.4083251953125 105.93353271484375 305.0872802734375 104.7615966796875 306.160888671875 103.87530517578125 C308.90264892578125 101.6097412109375 311.17596435546875 98.78192138671875 314.4200439453125 97.11077880859375 C315.28173828125 96.6668701171875 316.0174560546875 95.96185302734375 316.763916015625 95.32131958007812 C317.4151611328125 94.76376342773438 318.03875732421875 94.16168212890625 318.591796875 93.50885009765625 C318.8006591796875 93.28155517578125 318.90814208984375 92.76541137695312 318.78375244140625 92.51504516601562 Z"></path>
<path fill="#000000" fill-opacity="1.0"  filling="0" d="M266.72869873046875 179.13470458984375 C267.2724609375 179.1070556640625 267.8177490234375 179.077880859375 268.36151123046875 179.05484008789062 C269.71319580078125 178.99801635742188 270.6485595703125 179.6339111328125 271.41351318359375 180.72140502929688 C272.7666931152344 182.6444549560547 273.728271484375 184.76107788085938 274.68212890625 186.888427734375 C275.467041015625 188.637939453125 276.57293701171875 190.1585693359375 277.89544677734375 191.547119140625 C279.54046630859375 193.27511596679688 281.57415771484375 193.8802947998047 283.8781433105469 193.77740478515625 C284.595458984375 193.74514770507812 285.3096923828125 193.63607788085938 286.0208740234375 193.53623962402344 C286.5400390625 193.46250915527344 287.0361633300781 193.29971313476562 287.5107421875 193.06468200683594 C288.9147033691406 192.36737060546875 290.11737060546875 191.40582275390625 291.1910705566406 190.27532958984375 C291.9160461425781 189.5103759765625 292.33538818359375 188.58572387695312 292.5980224609375 187.57965087890625 C292.7470703125 187.00978088378906 292.8975830078125 186.44146728515625 293.026611328125 185.8669891357422 C293.2293701171875 184.9622802734375 293.69781494140625 184.21885681152344 294.36907958984375 183.59527587890625 C295.05718994140625 182.95626831054688 295.7852783203125 182.37413024902344 296.59619140625 181.88876342773438 C297.8680419921875 181.12997436523438 299.1966552734375 180.4648895263672 300.384033203125 179.56478881835938 C301.57904052734375 178.66009521484375 302.6326904296875 177.64016723632812 303.31005859375 176.2716064453125 C304.6280517578125 173.61126708984375 304.1318359375 170.78347778320312 301.9737548828125 168.74057006835938 C300.5760498046875 167.41656494140625 298.8802490234375 166.65011596679688 297.0677490234375 166.10330200195312 C296.063232421875 165.80068969726562 295.093994140625 165.41824340820312 294.155517578125 164.94973754882812 C292.902099609375 164.3245849609375 291.9590759277344 163.44143676757812 291.3968505859375 162.1158447265625 C290.8039855957031 160.7196044921875 290.4154052734375 159.27883911132812 290.1388854980469 157.79656982421875 C290.002197265625 157.06851196289062 289.8547058105469 156.34197998046875 289.6857604980469 155.62161254882812 C289.054443359375 152.9412841796875 287.40631103515625 151.05508422851562 285.027099609375 149.7786865234375 C283.5141296386719 148.96612548828125 281.88751220703125 148.489990234375 280.17333984375 148.32562255859375 C279.02899169921875 148.216552734375 277.91387939453125 148.41470336914062 276.79718017578125 148.62051391601562 C276.0476379394531 148.75875854492188 275.298095703125 148.90777587890625 274.53314208984375 148.9354248046875 C273.1492004394531 148.98455810546875 271.9081115722656 148.55908203125 270.80218505859375 147.75424194335938 C269.227783203125 146.60992431640625 268.28778076171875 145.08309936523438 268.0081787109375 143.135498046875 C267.7701416015625 141.47503662109375 267.4721374511719 139.8238525390625 267.1557312011719 138.17575073242188 C266.6964416503906 135.7872314453125 265.68267822265625 133.67218017578125 264.189697265625 131.77215576171875 C262.6905517578125 129.86441040039062 260.9472351074219 128.24853515625 258.74615478515625 127.16415405273438 C255.26861572265625 125.45150756835938 251.709716796875 125.35626220703125 248.07855224609375 126.58355712890625 C247.56094360351562 126.75863647460938 247.06793212890625 126.99822998046875 246.6224365234375 127.31619262695312 C246.36138916015625 127.50204467773438 246.14169311523438 127.52047729492188 245.84527587890625 127.37454223632812 C243.44915771484375 126.19491577148438 240.94696044921875 126.08743286132812 238.3848876953125 126.68185424804688 C236.74600219726562 127.06277465820312 235.15008544921875 127.56503295898438 233.6708984375 128.39447021484375 C231.42532348632812 129.65554809570312 229.860107421875 131.46649169921875 229.08139038085938 133.94561767578125 C227.8602294921875 137.83010864257812 230.629638671875 141.07107543945312 233.62332153320312 141.73617553710938 C233.91668701171875 141.80224609375 234.28680419921875 141.76535034179688 234.47882080078125 141.97885131835938 C234.68316650390625 142.20468139648438 234.52801513671875 142.56561279296875 234.51113891601562 142.862060546875 C234.36981201171875 145.33810424804688 234.99032592773438 147.63595581054688 236.2529296875 149.73257446289062 C238.23895263671875 153.03036499023438 241.180419921875 154.86282348632812 245.03424072265625 155.24530029296875 C246.74383544921875 155.41580200195312 248.43032836914062 155.28985595703125 250.11685180664062 155.05023193359375 C250.8818359375 154.941162109375 251.63751220703125 154.96420288085938 252.394775390625 155.09939575195312 C253.43463134765625 155.28524780273438 253.95068359375 155.77828979492188 254.18576049804688 156.82122802734375 C254.35775756835938 157.586181640625 254.25177001953125 158.34185791015625 254.0689697265625 159.08682250976562 C253.82015991210938 160.10211181640625 253.56671142578125 161.117431640625 253.28720092773438 162.12506103515625 C252.6666259765625 164.35992431640625 252.80181884765625 166.59329223632812 253.43927001953125 168.77593994140625 C254.3316650390625 171.8341064453125 255.9752197265625 174.46987915039062 258.3943786621094 176.56036376953125 C260.3604431152344 178.25918579101562 262.69671630859375 179.077880859375 265.28948974609375 179.16387939453125 C265.7686767578125 179.17926025390625 266.2479553222656 179.16543579101562 266.72869873046875 179.16543579101562 C266.72869873046875 179.15774536132812 266.72869873046875 179.14547729492188 266.72869873046875 179.13470458984375 Z"></path>
<path fill="#F29481" fill-opacity="1.0"  filling="0" d="M231.8446044921875 311.8712158203125 C234.34060668945312 312.0232849121094 236.83969116210938 312.1261901855469 239.33111572265625 312.3397216796875 C242.0836181640625 312.57470703125 243.89297485351562 314.1552429199219 245.08956909179688 316.574462890625 C247.19387817382812 320.82763671875 249.01556396484375 325.1990966796875 250.6483154296875 329.6519775390625 C252.1474609375 333.7346496582031 253.48532104492188 337.85113525390625 254.0843505859375 342.1949462890625 C254.98907470703125 348.7475280761719 253.92001342773438 354.78704833984375 249.88958740234375 360.1630554199219 C248.8619384765625 361.5331726074219 247.90655517578125 362.9601135253906 246.82830810546875 364.2872314453125 C242.972900390625 369.033447265625 239.9976806640625 374.281982421875 237.77972412109375 379.9651794433594 C235.33905029296875 386.2213134765625 232.93670654296875 392.4912414550781 230.5052490234375 398.7504577636719 C230.07666015625 399.8517761230469 229.64813232421875 400.9638366699219 229.0982666015625 402.00677490234375 C228.500732421875 403.1403503417969 227.46392822265625 403.7977600097656 226.1767578125 403.66107177734375 C224.08013916015625 403.43988037109375 222.018798828125 402.9959716796875 220.10186767578125 402.0574645996094 C218.92532348632812 401.4814758300781 218.2633056640625 400.5506591796875 218.4061279296875 399.21282958984375 C218.57357788085938 397.64300537109375 218.73794555664062 396.0639953613281 219.0543212890625 394.518798828125 C220.005126953125 389.8677978515625 220.8299560546875 385.20599365234375 221.1724853515625 380.4613037109375 C221.64093017578125 373.9440612792969 223.33056640625 367.7601318359375 226.3687744140625 361.9509582519531 C227.28424072265625 360.20147705078125 228.08447265625 358.39361572265625 228.90469360351562 356.5964660644531 C231.22866821289062 351.5092468261719 231.21026611328125 346.4128112792969 228.98150634765625 341.2917785644531 C227.29962158203125 337.42718505859375 225.67144775390625 333.5395812988281 224.00485229492188 329.66888427734375 C222.85903930664062 327.0069580078125 221.67327880859375 324.363525390625 220.53045654296875 321.7000732421875 C219.7501220703125 319.8814697265625 219.05126953125 318.0336608886719 218.88385009765625 316.0353088378906 C218.650390625 313.2520751953125 219.27398681640625 312.40576171875 221.96969604492188 312.0816650390625 C223.404296875 311.9096374511719 224.86041259765625 311.8666076660156 226.307373046875 311.85125732421875 C228.15206909179688 311.83282470703125 229.99679565429688 311.9019470214844 231.841552734375 311.93267822265625 C231.841552734375 311.9127197265625 231.84310913085938 311.89117431640625 231.8446044921875 311.8712158203125 Z"></path>
<path fill="#F29481" fill-opacity="1.0"  filling="0" d="M292.00360107421875 354.49371337890625 C291.72406005859375 357.0588073730469 291.6549072265625 359.8573913574219 291.08355712890625 362.5500183105469 C289.19580078125 371.44036865234375 287.145263671875 380.2969665527344 285.10845947265625 389.1550598144531 C284.78594970703125 390.5589599609375 284.2898254394531 391.936767578125 283.730712890625 393.2684631347656 C282.9903259277344 395.0348815917969 281.6171875 395.9764404296875 279.65411376953125 395.6600341796875 C277.96917724609375 395.3881530761719 276.2795715332031 395.0610046386719 274.6483154296875 394.57098388671875 C273.34735107421875 394.1793212890625 272.76519775390625 393.1962890625 272.874267578125 391.8200378417969 C272.9986572265625 390.2456359863281 273.2014465332031 388.66815185546875 273.50091552734375 387.1168212890625 C274.03851318359375 384.3289794921875 273.9786376953125 381.5503234863281 272.99560546875 378.92071533203125 C270.65936279296875 372.68145751953125 270.3214416503906 366.34088134765625 271.55633544921875 359.8528137207031 C271.777587890625 358.68853759765625 271.9357604980469 357.5103759765625 272.09393310546875 356.3353271484375 C272.6177673339844 352.44158935546875 272.1661376953125 348.8320007324219 269.9681396484375 345.36065673828125 C267.00518798828125 340.6819763183594 264.0914306640625 335.98333740234375 260.816650390625 331.5105285644531 C257.5465087890625 327.0453796386719 254.18728637695312 322.6355285644531 251.54071044921875 317.75103759765625 C250.85260009765625 316.4792175292969 250.17526245117188 315.1920471191406 249.6253662109375 313.85882568359375 C249.1123046875 312.6131286621094 249.51937866210938 311.5025939941406 250.7052001953125 310.8221435546875 C251.49313354492188 310.3690185546875 252.36712646484375 310.01727294921875 253.24569702148438 309.77459716796875 C259.21771240234375 308.1233825683594 265.2725830078125 306.84698486328125 271.3782043457031 305.78558349609375 C273.79583740234375 305.36627197265625 275.49774169921875 306.17724609375 276.63592529296875 308.28619384765625 C278.38848876953125 311.5317687988281 280.20404052734375 314.7481689453125 281.84759521484375 318.04901123046875 C283.314453125 320.9966125488281 284.56170654296875 324.0501708984375 285.94097900390625 327.04229736328125 C289.0667724609375 333.8268127441406 290.63037109375 341.00762939453125 291.4030456542969 348.3911437988281 C291.60577392578125 350.3526611328125 291.7885437011719 352.32025146484375 292.00360107421875 354.49371337890625 Z"></path>
<path fill="#000000" fill-opacity="1.0"  filling="0" d="M276.4761657714844 409.5946044921875 C275.63446044921875 411.0123291015625 275.7542724609375 412.6451416015625 275.436279296875 414.17803955078125 C275.00933837890625 416.2301330566406 273.0969543457031 417.07342529296875 271.21380615234375 416.0811767578125 C270.70233154296875 415.8123474121094 270.42742919921875 415.3392333984375 270.3505859375 414.82623291015625 C270.23541259765625 414.0505676269531 270.166259765625 413.248779296875 270.2246398925781 412.4684753417969 C270.7484130859375 405.36907958984375 271.3028869628906 398.2712097167969 271.8574523925781 391.1733703613281 C271.89886474609375 390.64959716796875 272.015625 390.13043212890625 272.09857177734375 389.6097412109375 C272.6822509765625 385.89105224609375 272.8880615234375 385.75897216796875 276.6820068359375 386.0431213378906 C279.31622314453125 386.23974609375 281.9397277832031 386.4931945800781 284.47869873046875 387.251953125 C286.12994384765625 387.7465515136719 286.587646484375 388.34100341796875 286.64599609375 390.1058654785156 C286.7213134765625 392.3453369140625 286.6921081542969 394.587890625 286.7197570800781 396.8304443359375 C286.75811767578125 400.0545349121094 287.5430908203125 403.0850524902344 289.0621337890625 405.92974853515625 C290.2740783691406 408.199951171875 291.8438720703125 409.98785400390625 294.3843994140625 410.9462890625 C296.822021484375 411.8648376464844 297.4456787109375 414.5343933105469 295.96337890625 416.7385559082031 C295.577880859375 417.31304931640625 294.94195556640625 417.66168212890625 294.27685546875 417.6355895996094 C289.5045166015625 417.4466552734375 284.805908203125 416.916748046875 280.7139892578125 414.1104736328125 C279.61114501953125 413.354736328125 278.80474853515625 412.3056640625 278.0413818359375 411.2227783203125 C277.60821533203125 410.60992431640625 277.42999267578125 409.7436218261719 276.4761657714844 409.5946044921875 Z"></path>
<path fill="#000000" fill-opacity="1.0"  filling="0" d="M218.79473876953125 416.30230712890625 C217.69650268554688 418.23919677734375 216.78570556640625 419.973388671875 215.751953125 421.6291809082031 C214.69363403320312 423.3264465332031 213.60000610351562 423.6229248046875 211.71533203125 422.9194030761719 C210.53411865234375 422.4801025390625 210.05032348632812 421.72442626953125 210.35443115234375 420.458740234375 C211.06097412109375 417.5173034667969 211.7491455078125 414.566650390625 212.62005615234375 411.6728515625 C214.060791015625 406.88818359375 215.63522338867188 402.1434631347656 217.16656494140625 397.386474609375 C217.32632446289062 396.88885498046875 217.5413818359375 396.400390625 217.78717041015625 395.93804931640625 C218.28790283203125 394.993408203125 218.98370361328125 394.6754150390625 220.09576416015625 394.9703369140625 C223.65313720703125 395.91656494140625 227.21051025390625 396.8673095703125 230.7479248046875 397.88262939453125 C232.50357055664062 398.38641357421875 232.88601684570312 398.9962158203125 232.62799072265625 400.768798828125 C232.41909790039062 402.19879150390625 232.05197143554688 403.6042175292969 231.7755126953125 405.0250244140625 C231.0904541015625 408.537841796875 230.798583984375 412.047607421875 231.53744506835938 415.6065368652344 C232.22244262695312 418.9073791503906 233.569580078125 421.84576416015625 235.8443603515625 424.3448486328125 C236.37582397460938 424.92852783203125 236.9134521484375 425.5075988769531 237.4202880859375 426.11279296875 C238.076171875 426.8976745605469 238.20669555664062 427.7624206542969 237.6783447265625 428.668701171875 C237.34808349609375 429.2354431152344 237.00863647460938 429.80072021484375 236.62158203125 430.3291015625 C236.0179443359375 431.1539306640625 235.16082763671875 431.53485107421875 234.19622802734375 431.1846618652344 C229.56057739257812 429.50579833984375 225.32888793945312 427.14495849609375 222.0234375 423.40631103515625 C220.69631958007812 421.90411376953125 220.02047729492188 420.0240478515625 219.69329833984375 418.03802490234375 C219.61492919921875 417.549560546875 219.68109130859375 417.00732421875 218.79473876953125 416.30230712890625 Z"></path>
<path fill="#00C462" fill-opacity="1.0"  filling="0" d="M218.89459228515625 330.05438232421875 C240.00384521484375 326.04388427734375 259.2898864746094 316.342529296875 279.113525390625 308.3384094238281 C278.861572265625 307.94061279296875 278.6265869140625 307.53204345703125 278.3685302734375 307.13726806640625 C274.9954833984375 301.9886169433594 271.6193542480469 296.8399353027344 268.1633605957031 291.74810791015625 C266.48602294921875 289.27667236328125 265.1143798828125 286.693115234375 264.33868408203125 283.80694580078125 C263.69970703125 281.4307861328125 262.94403076171875 279.0745544433594 262.50164794921875 276.6614990234375 C261.3773193359375 270.5267333984375 261.3619384765625 264.44720458984375 263.45709228515625 258.43377685546875 C265.3186340332031 253.0900421142578 266.98980712890625 247.6787109375 268.6563720703125 242.2704620361328 C271.08331298828125 234.3892364501953 273.45025634765625 226.48345947265625 274.571533203125 218.28274536132812 C275.288818359375 213.03883361816406 275.7603759765625 207.75807189941406 276.56524658203125 202.529541015625 C276.8294677734375 200.81689453125 276.3287048339844 199.7186279296875 275.21514892578125 198.62808227539062 C271.23687744140625 194.73126220703125 268.80078125 189.96197509765625 267.3646240234375 184.6335906982422 C266.8853759765625 182.85183715820312 266.4000244140625 181.0716094970703 265.89776611328125 179.29598999023438 C265.696533203125 178.587890625 265.4906921386719 177.87210083007812 265.1911926269531 177.20394897460938 C265.05908203125 176.91055297851562 264.7242431640625 176.5880126953125 264.4232177734375 176.51119995117188 C263.43707275390625 176.2608642578125 262.4571533203125 176.485107421875 261.5462646484375 176.87680053710938 C260.70452880859375 177.23776245117188 260.86737060546875 178.10098266601562 260.7613830566406 178.79681396484375 C260.0025634765625 183.7934112548828 259.02105712890625 188.73623657226562 257.17327880859375 193.46405029296875 C255.99667358398438 196.4761505126953 254.4222412109375 199.30392456054688 252.12750244140625 201.560302734375 C248.1185302734375 205.50169372558594 245.26773071289062 205.007080078125 241.65655517578125 202.40048217773438 C240.24038696289062 201.37905883789062 239.16668701171875 200.00433349609375 238.38644409179688 198.44683837890625 C237.670654296875 197.01834106445312 236.97332763671875 195.56991577148438 236.426513671875 194.07229614257812 C234.646240234375 189.2093505859375 233.054931640625 184.28953552246094 232.83535766601562 179.05331420898438 C232.790771484375 178.01190185546875 232.2239990234375 177.5311279296875 231.3023681640625 177.2730712890625 C230.38848876953125 177.01809692382812 229.9599609375 177.5526123046875 229.5621337890625 178.22540283203125 C229.18734741210938 178.861328125 228.76031494140625 179.4649658203125 228.37173461914062 180.09317016601562 C224.73910522460938 185.96531677246094 220.25088500976562 190.90814208984375 213.76895141601562 193.7466583251953 C212.55401611328125 194.2781219482422 212.34515380859375 194.75738525390625 212.70452880859375 196.12901306152344 C213.512451171875 199.22250366210938 214.440185546875 202.2853240966797 215.32492065429688 205.35882568359375 C217.264892578125 212.0988006591797 219.26016235351562 218.82188415527344 221.13253784179688 225.5802764892578 C222.50112915039062 230.51698303222656 222.87744140625 235.5612030029297 221.57489013671875 240.5547332763672 C220.1341552734375 246.0751190185547 217.85626220703125 251.236083984375 214.07925415039062 255.63058471679688 C212.55401611328125 257.4046630859375 211.05331420898438 259.2017822265625 209.61871337890625 261.04803466796875 C206.87689208984375 264.57318115234375 204.689697265625 268.4147033691406 203.35641479492188 272.69708251953125 C200.07086181640625 283.24786376953125 200.1768798828125 293.78790283203125 203.50387573242188 304.3125915527344 C206.25637817382812 313.0232238769531 211.34054565429688 320.4190673828125 216.62747192382812 327.7135314941406 C217.306396484375 328.6566467285156 218.06362915039062 329.42156982421875 218.89459228515625 330.05438232421875 Z"></path>
<path fill="#000000" fill-opacity="1.0"  filling="0" d="M226.30581665039062 249.6908721923828 C226.39950561523438 247.39608764648438 228.33331298828125 245.52215576171875 230.61737060546875 245.51141357421875 C233.00888061523438 245.5006561279297 235.09326171875 247.66029357910156 234.98419189453125 250.03492736816406 C234.8797607421875 252.28671264648438 232.87530517578125 254.22055053710938 230.6419677734375 254.2251434326172 C228.2242431640625 254.22821044921875 226.20751953125 252.11927795410156 226.30581665039062 249.6908721923828 Z"></path>
<path fill="#000000" fill-opacity="1.0"  filling="0" d="M250.623779296875 283.098876953125 C250.65444946289062 285.5103759765625 248.5394287109375 287.583984375 246.14016723632812 287.4964294433594 C243.89764404296875 287.4150390625 241.94842529296875 285.42132568359375 241.92230224609375 283.183349609375 C241.89776611328125 280.9454040527344 243.80084228515625 278.9194030761719 246.05413818359375 278.78887939453125 C248.4395751953125 278.64910888671875 250.59307861328125 280.68121337890625 250.623779296875 283.098876953125 Z"></path>
<path fill="#000000" fill-opacity="1.0"  filling="0" d="M261.51708984375 307.3492431640625 C259.19927978515625 307.32159423828125 257.2930908203125 305.470703125 257.21783447265625 303.1774597167969 C257.1409912109375 300.81201171875 259.26837158203125 298.6539306640625 261.6353759765625 298.69696044921875 C263.8917236328125 298.73687744140625 265.8547058105469 300.67529296875 265.9253845214844 302.92864990234375 C266.0006408691406 305.360107421875 263.9869384765625 307.37841796875 261.51708984375 307.3492431640625 Z"></path>
<path fill="#000000" fill-opacity="1.0"  filling="0" d="M255.3807373046875 248.94284057617188 C257.83831787109375 248.99505615234375 259.7429504394531 251.0701904296875 259.59552001953125 253.5400848388672 C259.4603576660156 255.81951904296875 257.44976806640625 257.67962646484375 255.19024658203125 257.6150817871094 C252.96310424804688 257.5521240234375 250.97393798828125 255.56146240234375 250.92633056640625 253.3450164794922 C250.8741455078125 250.93809509277344 252.94464111328125 248.89215087890625 255.3807373046875 248.94284057617188 Z"></path>
<path fill="#000000" fill-opacity="1.0"  filling="0" d="M227.14907836914062 203.8566131591797 C229.617431640625 203.86123657226562 231.6126708984375 205.91639709472656 231.4866943359375 208.31869506835938 C231.36688232421875 210.59967041015625 229.4193115234375 212.43211364746094 227.12448120117188 212.4228973388672 C224.7989501953125 212.41213989257812 222.8974609375 210.5950469970703 222.80831909179688 208.29566955566406 C222.713134765625 205.83961486816406 224.6561279296875 203.85202026367188 227.14907836914062 203.8566131591797 Z"></path>
<path fill="#000000" fill-opacity="1.0"  filling="0" d="M269.7576904296875 207.19589233398438 C269.8160705566406 209.6934356689453 267.87457275390625 211.6902313232422 265.42156982421875 211.65489196777344 C263.12677001953125 211.62110900878906 261.2359619140625 209.75025939941406 261.16680908203125 207.4447021484375 C261.0946350097656 205.0424041748047 263.17437744140625 202.9073944091797 265.54290771484375 202.95191955566406 C267.8284912109375 202.993408203125 269.702392578125 204.8811492919922 269.7576904296875 207.19589233398438 Z"></path>
<path fill="#000000" fill-opacity="1.0"  filling="0" d="M213.64920043945312 274.8490295410156 C213.72137451171875 272.4052429199219 215.851806640625 270.45758056640625 218.25869750976562 270.63421630859375 C220.55807495117188 270.8016662597656 222.2845458984375 272.7354736328125 222.2322998046875 275.08245849609375 C222.181640625 277.3987731933594 220.30926513671875 279.29266357421875 218.02828979492188 279.33721923828125 C215.662841796875 279.3832702636719 213.5784912109375 277.24822998046875 213.64920043945312 274.8490295410156 Z"></path>
<path fill="#000000" fill-opacity="1.0"  filling="0" d="M241.41082763671875 224.6832733154297 C241.49224853515625 222.35006713867188 243.3492431640625 220.55142211914062 245.68243408203125 220.5452880859375 C248.158447265625 220.5391082763672 250.06619262695312 222.5359344482422 249.970947265625 225.03038024902344 C249.8834228515625 227.3282470703125 247.95574951171875 229.22213745117188 245.70086669921875 229.22520446777344 C243.30010986328125 229.2298126220703 241.32479858398438 227.1393280029297 241.41082763671875 224.6832733154297 Z"></path>
<path fill="#000000" fill-opacity="1.0"  filling="0" d="M213.111572265625 304.32489013671875 C213.0623779296875 301.965576171875 214.79193115234375 300.07012939453125 217.11282348632812 299.94110107421875 C219.63189697265625 299.80133056640625 221.61795043945312 301.63226318359375 221.66558837890625 304.1343994140625 C221.71163940429688 306.59814453125 219.7071533203125 308.642578125 217.3048095703125 308.58111572265625 C215.0115966796875 308.5242919921875 213.16070556640625 306.64422607421875 213.111572265625 304.32489013671875 Z"></path></svg>