<svg xmlns="http://www.w3.org/2000/svg" viewBox="0.0 0.0 256.0 256.0" height="256.0px" width="256.0px"><path fill="#FCAC9F" fill-opacity="1.0"  filling="0" d="M159.39187622070312 46.25752258300781 C159.27362060546875 46.019439697265625 159.00482177734375 45.964935302734375 158.759033203125 46.069366455078125 C158.42034912109375 46.21376037597656 158.09014892578125 46.38117980957031 157.76910400390625 46.56089782714844 C157.01873779296875 46.980987548828125 156.28073120117188 47.42411804199219 155.52423095703125 47.833465576171875 C155.3544921875 47.92561340332031 155.0980224609375 48.119140625 154.92135620117188 47.66065979003906 C155.19012451171875 47.39033508300781 155.48428344726562 47.08543395996094 155.78765869140625 46.79052734375 C156.44970703125 46.14692687988281 157.1385498046875 45.52946472167969 157.77215576171875 44.85823059082031 C158.147705078125 44.459625244140625 158.45184326171875 43.9896240234375 158.75677490234375 43.53111267089844 C158.84814453125 43.39289855957031 158.8934326171875 43.14710998535156 158.6822509765625 43.051116943359375 C158.53790283203125 42.98509216308594 158.295166015625 42.9512939453125 158.18304443359375 43.02886962890625 C157.57708740234375 43.4466552734375 156.988037109375 43.89054870605469 156.41357421875 44.351348876953125 C155.8099365234375 44.835968017578125 155.2830810546875 45.42655944824219 154.53118896484375 45.76985168457031 C154.37606811523438 45.14698791503906 154.843017578125 44.93809509277344 155.10107421875 44.64012145996094 C155.78765869140625 43.850616455078125 156.53265380859375 43.11180114746094 157.20843505859375 42.31385803222656 C157.561767578125 41.89683532714844 157.84515380859375 41.41221618652344 158.10931396484375 40.92991638183594 C158.22454833984375 40.72102355957031 158.19381713867188 40.43531799316406 157.9871826171875 40.25022888183594 C157.7698974609375 40.055145263671875 157.514892578125 40.12889099121094 157.3182373046875 40.27557373046875 C156.534912109375 40.862709045410156 155.77537536621094 41.47480392456055 155.0717010498047 42.144020080566406 C154.36802673339844 42.813232421875 153.72021484375 43.53956604003906 153.16033935546875 44.35517883300781 C153.02438354492188 44.074859619140625 152.893798828125 43.781494140625 153.093505859375 43.49043273925781 C153.37152099609375 43.084930419921875 153.6917724609375 42.70783996582031 153.972900390625 42.303863525390625 C154.49972534179688 41.54661560058594 155.0357666015625 40.793975830078125 155.5196533203125 40.009857177734375 C155.88519287109375 39.416961669921875 155.87368774414062 39.000701904296875 155.57720947265625 38.866302490234375 C155.0703125 38.63743591308594 154.77618408203125 39.0145263671875 154.468994140625 39.29559326171875 C154.1971435546875 39.543670654296875 153.95367431640625 39.82551574707031 153.71405029296875 40.10585021972656 C152.8746337890625 41.088897705078125 152.04827880859375 42.0819091796875 151.20574951171875 43.062652587890625 C150.88092041015625 43.44126892089844 150.58135986328125 43.368316650390625 150.44696044921875 42.86604309082031 C150.30413818359375 42.331512451171875 150.20733642578125 41.786224365234375 149.83642578125 41.3438720703125 C149.6497802734375 41.12115478515625 149.1644287109375 41.14418029785156 149.03924560546875 41.39686584472656 C148.9586181640625 41.559661865234375 148.84878540039062 41.731689453125 148.84109497070312 41.90374755859375 C148.7965545654297 42.880638122558594 148.57864379882812 43.80511474609375 148.27796936035156 44.70472717285156 C147.977294921875 45.60434341430664 147.5938720703125 46.479095458984375 147.21832275390625 47.356536865234375 C146.6279754638672 48.73586654663086 146.2027587890625 50.1378059387207 145.916015625 51.556758880615234 C145.6292724609375 52.9757080078125 145.48098754882812 54.41167068481445 145.44451904296875 55.859039306640625 C145.40805053710938 57.30640411376953 145.4833984375 58.765174865722656 145.6439208984375 60.22975158691406 C145.7969970703125 61.62495422363281 145.8884735107422 63.01802062988281 145.93045043945312 64.41014862060547 C145.97244262695312 65.80227661132812 145.96493530273438 67.19346618652344 145.9200439453125 68.58491516113281 C145.87515258789062 69.97636413574219 145.79290771484375 71.36805725097656 145.6853790283203 72.76121520996094 C145.58786010742188 74.02687072753906 145.16854858398438 75.16197204589844 144.44735717773438 76.18955993652344 C143.95278930664062 76.89459228515625 143.4581756591797 77.60343933105469 142.91368103027344 78.27006530761719 C142.34841918945312 78.96279907226562 141.7900848388672 79.66110229492188 141.25796508789062 80.37764739990234 C140.725830078125 81.09419250488281 140.21990966796875 81.8289794921875 139.7594757080078 82.59468078613281 C139.12088012695312 83.65644073486328 138.35769653320312 84.56997680664062 137.48419189453125 85.36534118652344 C136.61068725585938 86.16070556640625 135.6268768310547 86.837890625 134.54705810546875 87.42694091796875 C134.10931396484375 87.66578674316406 133.66310119628906 87.86700439453125 133.2115478515625 88.04978942871094 C132.82598876953125 88.18341064453125 132.43663024902344 88.30628967285156 132.0433807373047 88.41612243652344 C131.25390625 88.54513549804688 130.4697723388672 88.44070434570312 129.7808837890625 87.87928771972656 C128.4530029296875 86.79794311523438 128.43765258789062 84.96395874023438 128.42535400390625 83.39265441894531 C128.42459106445312 83.24824523925781 128.35543823242188 83.15071105957031 128.26254272460938 83.08927917480469 C128.24948120117188 82.63461303710938 128.24563598632812 82.17996215820312 128.22952270507812 81.72531127929688 C128.21263122558594 81.26834106445312 128.22720336914062 80.80986022949219 128.22720336914062 80.35211181640625 C128.18917846679688 79.4420394897461 128.1592254638672 78.53196716308594 128.13340759277344 77.62197875976562 C128.10757446289062 76.71199798583984 128.08587646484375 75.80210876464844 128.0643768310547 74.89241027832031 C128.0252227783203 73.23812866210938 127.83782958984375 71.60844421386719 127.26797485351562 70.04249572753906 C126.93466186523438 69.12702941894531 126.5399169921875 68.23846435546875 125.90937805175781 67.48506164550781 C125.11065673828125 66.53042602539062 124.11917114257812 65.83921813964844 122.94107055664062 65.41526794433594 C122.35354614257812 65.20332336425781 121.762939453125 65.01823425292969 121.13241577148438 65.00823974609375 C120.35443115234375 64.99595642089844 119.58489990234375 65.0911865234375 118.8299560546875 65.26321411132812 C117.47789001464844 65.57157135009766 116.38809967041016 66.1443099975586 115.56067657470703 66.97807312011719 C114.73326110839844 67.81182861328125 114.16820526123047 68.90660858154297 113.86561584472656 70.25904846191406 C113.6705322265625 71.13227844238281 113.54460144042969 72.01702880859375 113.49697875976562 72.9117431640625 C113.49234008789062 72.99851989746094 113.49160766601562 73.08992004394531 113.46394348144531 73.17056274414062 C113.2197265625 73.89247131347656 113.02618408203125 74.63204956054688 112.66983032226562 75.31327819824219 C112.30119323730469 76.01829528808594 111.94712829589844 76.73098754882812 111.67910766601562 77.48210144042969 C111.60537719726562 77.68792724609375 111.54623413085938 77.89834594726562 111.51705932617188 78.11416625976562 C111.46484375 78.49893188476562 111.64224243164062 78.72474670410156 112.028564453125 78.75621032714844 C112.48782348632812 78.79385375976562 112.94322204589844 78.73855590820312 113.39559936523438 78.66635131835938 C113.55303955078125 78.64102172851562 113.60986328125 78.68173217773438 113.62368774414062 78.84071350097656 C113.70126342773438 79.69778442382812 113.78802490234375 80.55487060546875 113.86944580078125 81.41195678710938 C113.90863037109375 81.8236083984375 113.91783142089844 82.23908996582031 113.99310302734375 82.64767456054688 C114.0791015625 83.11692810058594 114.3294677734375 83.46711730957031 114.74266052246094 83.70367431640625 C115.19656372070312 83.96324157714844 115.69882202148438 84.06002807617188 116.20721435546875 84.13606262207031 C116.97677612304688 84.25202941894531 117.75091552734375 84.2374267578125 118.5242919921875 84.22053527832031 C118.68788146972656 84.21670532226562 118.85223388671875 84.218994140625 119.01426696777344 84.20594787597656 C119.06497192382812 84.20133972167969 119.08877563476562 84.2213134765625 119.12179565429688 84.23283386230469 C119.18976593017578 85.2147216796875 119.30055236816406 86.49285888671875 119.10279846191406 87.51545715332031 C118.90504455566406 88.53804016113281 118.39874267578125 89.30508422851562 117.2325439453125 89.2647705078125 C115.96110534667969 88.95909881591797 114.72039794921875 88.31724548339844 113.68061828613281 87.45880889892578 C112.64083862304688 86.60037231445312 111.80198669433594 85.5253677368164 111.33425903320312 84.3533935546875 C110.99253845214844 83.49630737304688 110.67916870117188 82.62771606445312 110.37197875976562 81.75755310058594 C109.86087036132812 80.30719757080078 109.35494995117188 78.85491180419922 108.84758758544922 77.40300750732422 C108.34022521972656 75.95110321044922 107.83142852783203 74.49958038330078 107.3145751953125 73.05075073242188 C106.7562255859375 71.48634338378906 106.17330932617188 69.93037414550781 105.55355834960938 68.38975524902344 C105.29472351074219 67.74617004394531 105.32235717773438 67.20703125 105.778564453125 66.68634033203125 C105.9813232421875 66.45515441894531 106.15640258789062 66.19941711425781 106.35687255859375 65.9659423828125 C107.32032775878906 64.8454360961914 108.283203125 63.72434616088867 109.24723815917969 62.604312896728516 C110.21126556396484 61.48427963256836 111.17645263671875 60.36530303955078 112.14453125 59.2490234375 C112.79193115234375 58.50251770019531 113.53152465820312 57.85124206542969 114.33256530761719 57.27064514160156 C115.5943832397461 56.355194091796875 116.51866912841797 55.26118087768555 117.150634765625 54.01519775390625 C117.78260040283203 52.76921463012695 118.12224578857422 51.37126159667969 118.21478271484375 49.847930908203125 C118.28927612304688 48.619110107421875 118.31771850585938 47.38648986816406 118.31771850585938 46.15538024902344 C118.31771850585938 44.91583251953125 118.3975830078125 43.697784423828125 118.80384826660156 42.513519287109375 C118.922119140625 42.168701171875 118.97894287109375 41.795440673828125 119.011962890625 41.43064880371094 C119.03347778320312 41.193328857421875 118.96896362304688 40.94142150878906 118.71243286132812 40.81623840332031 C118.4605712890625 40.692596435546875 118.19021606445312 40.75634765625 118.02432250976562 40.92298889160156 C117.51206970214844 41.436798095703125 117.03897094726562 41.98976135253906 116.48526000976562 42.59877014160156 C116.29786682128906 42.08729553222656 116.13812255859375 41.689453125 116.00677490234375 41.283172607421875 C115.60897827148438 40.05439758300781 115.24186706542969 38.81559753417969 114.82254028320312 37.59370422363281 C114.66510009765625 37.13520812988281 114.42010498046875 36.70130920410156 114.16897583007812 36.28428649902344 C114.09521484375 36.16139221191406 113.86407470703125 36.07232666015625 113.70587158203125 36.073089599609375 C113.414794921875 36.074615478515625 113.298828125 36.315765380859375 113.2857666015625 36.57305908203125 C113.2703857421875 36.87794494628906 113.2542724609375 37.192840576171875 113.31109619140625 37.48927307128906 C113.49618530273438 38.455413818359375 113.69741821289062 39.418487548828125 113.92552185058594 40.37464904785156 C114.09063720703125 41.06585693359375 114.31947326660156 41.74320983886719 114.38400268554688 42.81764221191406 C114.04684448242188 42.242431640625 113.86712646484375 41.99436950683594 113.74656677246094 41.72096252441406 C113.35028076171875 40.82008361816406 112.99008178710938 39.90309143066406 112.58612060546875 39.00531005859375 C112.28353881835938 38.33253479003906 111.95175170898438 37.67205810546875 111.60078430175781 37.02386474609375 C111.42875671386719 36.70591735839844 111.21295166015625 36.38029479980469 110.76058959960938 36.43174743652344 C110.43801879882812 36.468597412109375 110.29132080078125 36.8541259765625 110.39424133300781 37.5284423828125 C110.45875549316406 37.95159912109375 110.55859375 38.37477111816406 110.69377136230469 38.78105163574219 C110.98484802246094 39.65657043457031 111.31814575195312 40.517486572265625 111.61611938476562 41.390716552734375 C111.82888793945312 42.01432800292969 112.01242065429688 42.64714050292969 112.29119873046875 43.54034423828125 C111.38725280761719 42.8353271484375 111.15147399902344 42.05656433105469 110.77516174316406 41.37150573730469 C110.36122131347656 40.6165771484375 109.95648193359375 39.85624694824219 109.51947021484375 39.1151123046875 C109.40660095214844 38.92390441894531 109.23916625976562 38.684295654296875 108.93659973144531 38.797943115234375 C108.65547180175781 38.90315246582031 108.59097290039062 39.16351318359375 108.6531982421875 39.401580810546875 C108.8221435546875 40.05439758300781 108.99188232421875 40.71257019042969 109.23916625976562 41.33772277832031 C109.64544677734375 42.36683654785156 110.11544799804688 43.37138366699219 110.55474853515625 44.388214111328125 C110.67147827148438 44.65855407714844 110.86503601074219 44.92811584472656 110.58010864257812 45.26911926269531 C110.39500427246094 45.10630798339844 110.18995666503906 44.96575927734375 110.03634643554688 44.782958984375 C109.64083862304688 44.31217956542969 109.26376342773438 43.82603454589844 108.88742065429688 43.340667724609375 C108.58636474609375 42.9512939453125 108.31297302246094 42.53962707519531 107.99807739257812 42.16331481933594 C107.56878662109375 41.650299072265625 107.13943481445312 41.46751403808594 106.94744873046875 41.689453125 C106.64794921875 42.03504943847656 106.82534790039062 42.38142395019531 106.995849609375 42.711669921875 C107.33377075195312 43.36753845214844 107.58642578125 44.09638977050781 108.04263305664062 44.65702819824219 C108.65664672851562 45.411582946777344 109.12647247314453 46.24005889892578 109.54378509521484 47.0943603515625 C109.96109771728516 47.94866180419922 110.32589721679688 48.82878875732422 110.7298583984375 49.6866455078125 C111.23904418945312 50.76722717285156 111.35808563232422 51.73299026489258 111.1321029663086 52.57164764404297 C110.90612030029297 53.410301208496094 110.33511352539062 54.121849060058594 109.46420288085938 54.694000244140625 C108.33294677734375 55.43742370605469 107.19091796875 56.166259765625 106.03814697265625 56.87590026855469 C104.77786254882812 57.65156555175781 103.55752563476562 58.47795104980469 102.40859985351562 59.41259765625 C101.02848815917969 60.53502655029297 100.00800323486328 61.826805114746094 99.32275390625 63.27880859375 C98.63750457763672 64.7308120727539 98.28749084472656 66.3430404663086 98.24832153320312 68.10636901855469 C98.22758483886719 69.03487396240234 98.2786636352539 69.95704650878906 98.37265014648438 70.87480926513672 C98.46663665771484 71.79257202148438 98.60353088378906 72.70591735839844 98.75442504882812 73.61677551269531 C98.97676086425781 74.95923614501953 99.2448959350586 76.28825378417969 99.55501556396484 77.60491943359375 C99.8651351928711 78.92158508300781 100.21723937988281 80.22588348388672 100.60752868652344 81.51891326904297 C100.99781799316406 82.81193542480469 101.42630004882812 84.09367370605469 101.88915252685547 85.36521911621094 C102.35200500488281 86.63676452636719 102.84923553466797 87.89810180664062 103.37704467773438 89.15032958984375 C103.92654418945312 90.45439147949219 104.48123168945312 91.75672912597656 105.0262222290039 93.06281280517578 C105.57121276855469 94.368896484375 106.10650634765625 95.67871856689453 106.61721801757812 96.99775695800781 C106.94015502929688 97.8314208984375 107.36255645751953 98.58367156982422 107.8724136352539 99.26517486572266 C108.38227081298828 99.94668579101562 108.97958374023438 100.55743408203125 109.65234375 101.10808563232422 C110.95027160644531 102.17023468017578 112.3319091796875 103.09088134765625 113.78524780273438 103.88018798828125 C115.23859405517578 104.66950225830078 116.7636489868164 105.32748413085938 118.34841918945312 105.86430358886719 C119.48096466064453 106.248046875 120.6134262084961 106.46224212646484 121.74536895751953 106.54267883300781 C122.8773193359375 106.62312316894531 124.00874328613281 106.56982421875 125.13923645019531 106.41858673095703 C126.26972961425781 106.26734924316406 127.39927673339844 106.01817321777344 128.5274658203125 105.70687866210938 C130.0028076171875 105.29983520507812 131.37408447265625 104.68313598632812 132.70436096191406 103.98339080810547 C134.03463745117188 103.28364562988281 135.32391357421875 102.50086212158203 136.63525390625 101.76166534423828 C137.030029296875 101.5389404296875 137.25503540039062 101.1856689453125 137.4431915283203 100.7855224609375 C137.99691772460938 99.6097183227539 138.6426239013672 98.4907455444336 139.34217834472656 97.40575408935547 C140.04173278808594 96.32076263427734 140.79513549804688 95.26976013183594 141.5642852783203 94.2298812866211 C142.5550079345703 92.88972473144531 143.46202087402344 91.49964904785156 144.23001098632812 90.02278137207031 C144.81292724609375 88.90149688720703 145.42770385742188 87.7998046875 146.0801239013672 86.72095489501953 C146.7325439453125 85.64210510253906 147.42259216308594 84.58610534667969 148.15603637695312 83.55621337890625 C148.51318359375 83.05471801757812 148.85955810546875 82.543212890625 149.16903686523438 82.01254272460938 C149.9351043701172 80.69925689697266 150.63150024414062 79.35679626464844 151.16574096679688 77.95816802978516 C151.69998168945312 76.55953979492188 152.07208251953125 75.1047592163086 152.1895751953125 73.56683349609375 C152.30938720703125 71.99858856201172 152.3506622314453 70.42726135253906 152.31983947753906 68.85775756835938 C152.28903198242188 67.28825378417969 152.1861114501953 65.72056579589844 152.01754760742188 64.15960693359375 C151.85472106933594 62.65125274658203 151.77618408203125 61.145782470703125 151.7593994140625 59.640602111816406 C151.7425994873047 58.13541793823242 151.78753662109375 56.630523681640625 151.87164306640625 55.123321533203125 C151.89926147460938 54.63409423828125 152.00604248046875 54.14874267578125 152.08740234375 53.66334533691406 C152.20416259765625 52.966766357421875 152.54364013671875 52.38079833984375 153.0804443359375 51.937652587890625 C153.76588439941406 51.37126159667969 154.39276123046875 50.734588623046875 155.05105590820312 50.135066986083984 C155.70932006835938 49.535545349121094 156.3990020751953 48.973175048828125 157.21002197265625 48.555389404296875 C157.640869140625 48.33343505859375 158.00872802734375 47.980926513671875 158.3819580078125 47.66065979003906 C158.70758056640625 47.38188171386719 159.01937866210938 47.080841064453125 159.2958984375 46.754425048828125 C159.40032958984375 46.640777587890625 159.45407104492188 46.38270568847656 159.39187622070312 46.25752258300781"></path>
<path fill="#000000" fill-opacity="1.0"  filling="0" d="M133.36434936523438 89.56735229492188 C133.63623046875 89.55352783203125 133.90887451171875 89.5389404296875 134.18075561523438 89.52742004394531 C134.85659790039062 89.49900817871094 135.32427978515625 89.81695556640625 135.70675659179688 90.36070251464844 C136.3833465576172 91.32222747802734 136.8641357421875 92.38053894042969 137.341064453125 93.4442138671875 C137.7335205078125 94.3189697265625 138.28646850585938 95.07928466796875 138.94772338867188 95.7735595703125 C139.77023315429688 96.63755798339844 140.78707885742188 96.94014739990234 141.93907165527344 96.88870239257812 C142.2977294921875 96.87257385253906 142.65484619140625 96.81803894042969 143.01043701171875 96.76811981201172 C143.27001953125 96.73125457763672 143.51808166503906 96.64985656738281 143.75537109375 96.53234100341797 C144.4573516845703 96.18368530273438 145.05868530273438 95.70291137695312 145.5955352783203 95.13766479492188 C145.95802307128906 94.75518798828125 146.16769409179688 94.29286193847656 146.29901123046875 93.78982543945312 C146.37353515625 93.50489044189453 146.44879150390625 93.22073364257812 146.5133056640625 92.9334945678711 C146.61468505859375 92.48114013671875 146.84890747070312 92.10942840576172 147.18453979492188 91.79763793945312 C147.52859497070312 91.47813415527344 147.89263916015625 91.18706512451172 148.298095703125 90.94438171386719 C148.93402099609375 90.56498718261719 149.59832763671875 90.2324447631836 150.1920166015625 89.78239440917969 C150.78952026367188 89.33004760742188 151.31634521484375 88.82008361816406 151.655029296875 88.13580322265625 C152.31402587890625 86.80563354492188 152.06591796875 85.39173889160156 150.98687744140625 84.37028503417969 C150.28802490234375 83.70828247070312 149.44012451171875 83.32505798339844 148.53387451171875 83.05165100097656 C148.0316162109375 82.90034484863281 147.5469970703125 82.70912170410156 147.0777587890625 82.47486877441406 C146.4510498046875 82.16229248046875 145.9795379638672 81.72071838378906 145.69842529296875 81.05792236328125 C145.40199279785156 80.35980224609375 145.20770263671875 79.63941955566406 145.06944274902344 78.89828491210938 C145.0010986328125 78.53425598144531 144.92735290527344 78.17098999023438 144.84288024902344 77.81080627441406 C144.5272216796875 76.47064208984375 143.70315551757812 75.52754211425781 142.5135498046875 74.88934326171875 C141.75706481933594 74.48306274414062 140.94375610351562 74.2449951171875 140.086669921875 74.16281127929688 C139.51449584960938 74.1082763671875 138.95693969726562 74.20735168457031 138.39859008789062 74.31025695800781 C138.02381896972656 74.37937927246094 137.6490478515625 74.45388793945312 137.26657104492188 74.46771240234375 C136.57460021972656 74.49227905273438 135.9540557861328 74.279541015625 135.40109252929688 73.87712097167969 C134.6138916015625 73.30496215820312 134.14389038085938 72.54154968261719 134.00408935546875 71.5677490234375 C133.88507080078125 70.73751831054688 133.73606872558594 69.91192626953125 133.57786560058594 69.08787536621094 C133.3482208251953 67.89361572265625 132.84133911132812 66.83609008789062 132.0948486328125 65.88607788085938 C131.34527587890625 64.93220520019531 130.47361755371094 64.124267578125 129.37307739257812 63.58207702636719 C128.50369262695312 63.15391540527344 127.62413787841797 62.92792892456055 126.7349853515625 62.88568878173828 C125.8458251953125 62.843448638916016 124.94706726074219 62.984954833984375 124.03927612304688 63.291778564453125 C123.78047180175781 63.37931823730469 123.53396606445312 63.499114990234375 123.31121826171875 63.65809631347656 C123.18069458007812 63.75102233886719 123.07084655761719 63.76023864746094 122.92263793945312 63.68727111816406 C121.72457885742188 63.09745788574219 120.47348022460938 63.04371643066406 119.19244384765625 63.34092712402344 C118.37300109863281 63.53138732910156 117.57504272460938 63.78251647949219 116.83544921875 64.19723510742188 C115.71266174316406 64.82777404785156 114.9300537109375 65.73324584960938 114.54069519042969 66.97280883789062 C114.23540496826172 67.94393157958984 114.42893981933594 68.83460998535156 114.88589477539062 69.52408599853516 C115.34284973144531 70.21355438232422 116.06324005126953 70.70181274414062 116.81166076660156 70.86808776855469 C116.95834350585938 70.901123046875 117.14340209960938 70.88267517089844 117.23941040039062 70.98942565917969 C117.34158325195312 71.10234069824219 117.26400756835938 71.28280639648438 117.25556945800781 71.4310302734375 C117.18490600585938 72.66905212402344 117.49516296386719 73.81797790527344 118.12646484375 74.86628723144531 C118.62297058105469 75.69073486328125 119.23890686035156 76.33201599121094 119.9715805053711 76.79109191894531 C120.70425415039062 77.25016784667969 121.55366516113281 77.52703094482422 122.51712036132812 77.62265014648438 C123.37191772460938 77.70790100097656 124.21516418457031 77.64492797851562 125.05842590332031 77.52511596679688 C125.44091796875 77.4705810546875 125.81875610351562 77.48210144042969 126.1973876953125 77.54969787597656 C126.71731567382812 77.64262390136719 126.975341796875 77.88914489746094 127.09288024902344 78.41061401367188 C127.17887878417969 78.7930908203125 127.12588500976562 79.17092895507812 127.03448486328125 79.54341125488281 C126.91007995605469 80.05105590820312 126.78335571289062 80.5587158203125 126.64360046386719 81.06253051757812 C126.33331298828125 82.17996215820312 126.40090942382812 83.29664611816406 126.71963500976562 84.38796997070312 C127.16583251953125 85.91705322265625 127.98760986328125 87.23493957519531 129.1971893310547 88.28018188476562 C130.1802215576172 89.12959289550781 131.34835815429688 89.5389404296875 132.64474487304688 89.58193969726562 C132.88433837890625 89.58963012695312 133.1239776611328 89.58271789550781 133.36434936523438 89.58271789550781"></path>
<path fill="#F29481" fill-opacity="1.0"  filling="0" d="M115.92230224609375 155.93560791015625 C117.17030334472656 156.0116424560547 118.41984558105469 156.06309509277344 119.66555786132812 156.16986083984375 C121.04180908203125 156.287353515625 121.94648742675781 157.07762145996094 122.54478454589844 158.2872314453125 C123.07086181640625 159.35052490234375 123.56161499023438 160.42860412597656 124.02288818359375 161.5191650390625 C124.48416137695312 162.60972595214844 124.91596984863281 163.7127685546875 125.32415771484375 164.82598876953125 C125.69894409179688 165.84664916992188 126.05357360839844 166.87155151367188 126.35193634033203 167.9127655029297 C126.65030670166016 168.9539794921875 126.89241790771484 170.0115203857422 127.04217529296875 171.09747314453125 C127.26835632324219 172.73562622070312 127.24781799316406 174.30963134765625 126.9188232421875 175.8101043701172 C126.58983612060547 177.31057739257812 125.95240020751953 178.73751831054688 124.94479370117188 180.08152770996094 C124.43096923828125 180.76658630371094 123.95327758789062 181.4800567626953 123.41415405273438 182.14361572265625 C122.45030212402344 183.33016967773438 121.59647369384766 184.5795135498047 120.84498596191406 185.88742065429688 C120.09349822998047 187.19532775878906 119.44435119628906 188.56179809570312 118.88986206054688 189.9825897216797 C118.48308563232422 191.02528381347656 118.07843017578125 192.06874084472656 117.67466735839844 193.1125030517578 C117.2708969116211 194.15628051757812 116.86801147460938 195.20034790039062 116.46475219726562 196.24429321289062 C116.06149291992188 197.28822326660156 115.65786743164062 198.33203125 115.25262451171875 199.37522888183594 C115.038330078125 199.92588806152344 114.82406616210938 200.48191833496094 114.54913330078125 201.00338745117188 C114.2503662109375 201.57017517089844 113.73196411132812 201.8988800048828 113.08837890625 201.83053588867188 C112.04006958007812 201.71994018554688 111.0093994140625 201.49798583984375 110.05093383789062 201.0287322998047 C109.46266174316406 200.74073791503906 109.13165283203125 200.27532958984375 109.20306396484375 199.60641479492188 C109.28678894042969 198.82150268554688 109.36897277832031 198.03199768066406 109.52716064453125 197.2593994140625 C109.76486206054688 196.09664916992188 109.98681640625 194.93255615234375 110.1707534790039 193.76258850097656 C110.35469055175781 192.59263610839844 110.5006103515625 191.4168243408203 110.58624267578125 190.23065185546875 C110.70335388183594 188.60134887695312 110.97311401367188 187.01370239257812 111.40348815917969 185.47030639648438 C111.83385467529297 183.92691040039062 112.42483520507812 182.42776489257812 113.18438720703125 180.97547912597656 C113.64212036132812 180.10073852539062 114.042236328125 179.19680786132812 114.45234680175781 178.29823303222656 C115.03334045410156 177.02642822265625 115.321533203125 175.75347900390625 115.32518768310547 174.4783935546875 C115.32884216308594 173.20333862304688 115.04794311523438 171.9261474609375 114.49075317382812 170.64588928222656 C114.07028198242188 169.67974853515625 113.65652465820312 168.71072387695312 113.24372100830078 167.74130249023438 C112.83091735839844 166.77191162109375 112.41907501220703 165.8021240234375 112.00242614746094 164.83444213867188 C111.42951965332031 163.50347900390625 110.83663940429688 162.1817626953125 110.26522827148438 160.85003662109375 C109.87506103515625 159.94073486328125 109.525634765625 159.01683044433594 109.44192504882812 158.0176544189453 C109.3251953125 156.62603759765625 109.63699340820312 156.202880859375 110.98484802246094 156.04083251953125 C111.7021484375 155.95481872558594 112.43020629882812 155.9333038330078 113.1536865234375 155.92562866210938 C114.07603454589844 155.91641235351562 114.99839782714844 155.9509735107422 115.9207763671875 155.96633911132812"></path>
<path fill="#F29481" fill-opacity="1.0"  filling="0" d="M146.00180053710938 177.24685668945312 C145.86203002929688 178.52940368652344 145.82745361328125 179.92869567871094 145.54177856445312 181.27500915527344 C145.22715759277344 182.75672912597656 144.9034881591797 184.23658752441406 144.57403564453125 185.7152099609375 C144.24459838867188 187.19384765625 143.9093780517578 188.67124938964844 143.5716552734375 190.14808654785156 C143.2339324951172 191.62490844726562 142.89370727539062 193.10118103027344 142.55422973632812 194.57752990722656 C142.39297485351562 195.27947998046875 142.14491271972656 195.9683837890625 141.8653564453125 196.6342315673828 C141.4951629638672 197.51744079589844 140.80859375 197.98822021484375 139.82705688476562 197.83001708984375 C138.98458862304688 197.69407653808594 138.13978576660156 197.53050231933594 137.32415771484375 197.28549194335938 C136.67367553710938 197.08966064453125 136.38259887695312 196.59814453125 136.4371337890625 195.91001892089844 C136.49932861328125 195.12281799316406 136.60072326660156 194.33407592773438 136.75045776367188 193.55841064453125 C137.01925659179688 192.16448974609375 136.98931884765625 190.77516174316406 136.497802734375 189.46035766601562 C135.9137420654297 187.90054321289062 135.5794677734375 186.32806396484375 135.46839904785156 184.7400360107422 C135.35733032226562 183.15200805664062 135.46945190429688 181.54843139648438 135.77816772460938 179.92640686035156 C135.8887939453125 179.34426879882812 135.96788024902344 178.75518798828125 136.04696655273438 178.16766357421875 C136.17791748046875 177.19422912597656 136.18695068359375 176.25631713867188 136.02586364746094 175.3448028564453 C135.86477661132812 174.43328857421875 135.5335693359375 173.54815673828125 134.98406982421875 172.68032836914062 C134.2433319091797 171.51065063476562 133.5087432861328 170.3385009765625 132.75466918945312 169.17919921875 C132.00057983398438 168.0198974609375 131.22702026367188 166.87347412109375 130.4083251953125 165.75526428222656 C129.59078979492188 164.63897705078125 128.76211547851562 163.52960205078125 127.97241973876953 162.39401245117188 C127.18272399902344 161.25843811035156 126.43199920654297 160.09664916992188 125.77035522460938 158.87551879882812 C125.42630004882812 158.23960876464844 125.08763122558594 157.5960235595703 124.81268310546875 156.92941284179688 C124.55615234375 156.3065643310547 124.75968933105469 155.7512969970703 125.35260009765625 155.41107177734375 C125.74656677246094 155.18450927734375 126.18356323242188 155.00863647460938 126.62284851074219 154.88729858398438 C128.1158447265625 154.4744873046875 129.6192169189453 154.10855102539062 131.13092041015625 153.77944946289062 C132.64263916015625 153.4503631591797 134.16268920898438 153.15814208984375 135.68910217285156 152.89279174804688 C136.89791870117188 152.68313598632812 137.74887084960938 153.088623046875 138.31796264648438 154.14309692382812 C138.756103515625 154.95449829101562 139.20211791992188 155.76223754882812 139.64132690429688 156.5734405517578 C140.0805206298828 157.3846435546875 140.51290893554688 158.1992950439453 140.92379760742188 159.02450561523438 C141.6572265625 160.49830627441406 142.28085327148438 162.02508544921875 142.97048950195312 163.52114868164062 C143.491455078125 164.6519012451172 143.92562866210938 165.80467224121094 144.2873077392578 166.9758758544922 C144.64898681640625 168.14706420898438 144.93814086914062 169.33670043945312 145.16908264160156 170.5411834716797 C145.4000244140625 171.74566650390625 145.57275390625 172.96499633789062 145.70152282714844 174.19557189941406 C145.80288696289062 175.17633056640625 145.89427185058594 176.16012573242188 146.00180053710938 177.24685668945312"></path>
<path fill="#000000" fill-opacity="1.0"  filling="0" d="M138.2380828857422 204.79730224609375 C137.81723022460938 205.50616455078125 137.87713623046875 206.32257080078125 137.7181396484375 207.08901977539062 C137.50466918945312 208.1150665283203 136.54847717285156 208.53671264648438 135.60690307617188 208.04058837890625 C135.35116577148438 207.9061737060547 135.21371459960938 207.66961669921875 135.17529296875 207.41311645507812 C135.11770629882812 207.02528381347656 135.0831298828125 206.6243896484375 135.11231994628906 206.23423767089844 C135.19961547851562 205.05101013183594 135.2886199951172 203.86785888671875 135.37875366210938 202.6847686767578 C135.46890258789062 201.50167846679688 135.5601806640625 200.3186492919922 135.6520233154297 199.13563537597656 C135.74386596679688 197.95263671875 135.8363037109375 196.7696533203125 135.92872619628906 195.58668518066406 C135.94943237304688 195.32479858398438 136.0078125 195.06521606445312 136.04928588867188 194.80487060546875 C136.34112548828125 192.94552612304688 136.44403076171875 192.87948608398438 138.34100341796875 193.0215606689453 C139.65811157226562 193.119873046875 140.96986389160156 193.24659729003906 142.23934936523438 193.6259765625 C143.06497192382812 193.87327575683594 143.2938232421875 194.17050170898438 143.322998046875 195.0529327392578 C143.36065673828125 196.17266845703125 143.34605407714844 197.2939453125 143.35987854003906 198.41522216796875 C143.37905883789062 200.0272674560547 143.77154541015625 201.5425262451172 144.53106689453125 202.96487426757812 C145.1370391845703 204.0999755859375 145.92193603515625 204.99392700195312 147.19219970703125 205.47314453125 C148.4110107421875 205.9324188232422 148.72283935546875 207.26719665527344 147.981689453125 208.36927795410156 C147.7889404296875 208.65652465820312 147.47097778320312 208.83084106445312 147.138427734375 208.8177947998047 C145.94534301757812 208.77056884765625 144.761474609375 208.6807098388672 143.62013244628906 208.42726135253906 C142.47879028320312 208.173828125 141.37997436523438 207.75680541992188 140.35699462890625 207.05523681640625 C139.80557250976562 206.6773681640625 139.40237426757812 206.15283203125 139.02069091796875 205.61138916015625 C138.80410766601562 205.30496215820312 138.71499633789062 204.87181091308594 138.2380828857422 204.79730224609375"></path>
<path fill="#000000" fill-opacity="1.0"  filling="0" d="M109.39736938476562 208.15115356445312 C108.84825134277344 209.11959838867188 108.39285278320312 209.9866943359375 107.8759765625 210.81459045410156 C107.34681701660156 211.66322326660156 106.80000305175781 211.81146240234375 105.857666015625 211.45970153808594 C105.26705932617188 211.24005126953125 105.02516174316406 210.86221313476562 105.17721557617188 210.2293701171875 C105.53048706054688 208.75865173339844 105.87457275390625 207.2833251953125 106.31002807617188 205.83642578125 C106.67021179199219 204.6402587890625 107.04710388183594 203.44908142089844 107.4296646118164 202.2596435546875 C107.81222534179688 201.0701904296875 108.20044708251953 199.88247680664062 108.58328247070312 198.6932373046875 C108.66316223144531 198.44442749023438 108.77069091796875 198.2001953125 108.89358520507812 197.96902465820312 C109.14395141601562 197.4967041015625 109.49185180664062 197.33770751953125 110.04788208007812 197.48516845703125 C110.93722534179688 197.7217254638672 111.82656860351562 197.95884704589844 112.71466064453125 198.20028686523438 C113.6027603149414 198.4417266845703 114.48960876464844 198.68748474121094 115.37396240234375 198.94131469726562 C116.25178527832031 199.19320678710938 116.44300842285156 199.49810791015625 116.31399536132812 200.3843994140625 C116.20954895019531 201.09939575195312 116.02598571777344 201.80210876464844 115.88775634765625 202.51251220703125 C115.71649169921875 203.39071655273438 115.59437561035156 204.26853942871094 115.5612564086914 205.1492462158203 C115.52813720703125 206.0299530029297 115.5840072631836 206.91354370117188 115.76872253417969 207.8032684326172 C116.11122131347656 209.4536895751953 116.7847900390625 210.92288208007812 117.92218017578125 212.17242431640625 C118.18791198730469 212.46426391601562 118.45672607421875 212.75379943847656 118.71014404296875 213.056396484375 C119.0380859375 213.44883728027344 119.10334777832031 213.88121032714844 118.83917236328125 214.3343505859375 C118.67404174804688 214.6177215576172 118.50431823730469 214.90036010742188 118.310791015625 215.16455078125 C118.00897216796875 215.57696533203125 117.58041381835938 215.76742553710938 117.09811401367188 215.5923309326172 C115.93920135498047 215.172607421875 114.83078002929688 214.6676483154297 113.80550384521484 214.03395080566406 C112.78022766113281 213.40025329589844 111.83808135986328 212.6378173828125 111.01171875 211.70315551757812 C110.34815979003906 210.95205688476562 110.01023864746094 210.01202392578125 109.84664916992188 209.01901245117188 C109.80746459960938 208.7747802734375 109.84054565429688 208.503662109375 109.39736938476562 208.15115356445312"></path>
<path fill="#00C462" fill-opacity="1.0"  filling="0" d="M109.44729614257812 165.02719116210938 C110.9551010131836 164.74072265625 112.44429779052734 164.3961944580078 113.9183349609375 164.00436401367188 C115.39237213134766 163.61253356933594 116.85124969482422 163.17340087890625 118.29840087890625 162.69772338867188 C119.74555206298828 162.22206115722656 121.18098449707031 161.70986938476562 122.60813903808594 161.17190551757812 C124.03529357910156 160.6339569091797 125.45416259765625 160.0702362060547 126.86819458007812 159.4915313720703 C128.2822265625 158.91282653808594 129.69142150878906 158.31912231445312 131.09921264648438 157.72120666503906 C132.50701904296875 157.123291015625 133.9134063720703 156.52114868164062 135.3218536376953 155.92556762695312 C136.7303009033203 155.32997131347656 138.14077758789062 154.74093627929688 139.5567626953125 154.16920471191406 C139.4307861328125 153.97030639648438 139.31329345703125 153.76602172851562 139.18426513671875 153.56863403320312 C138.34100341796875 152.28146362304688 137.4973602294922 150.9943084716797 136.64852905273438 149.710693359375 C135.79969787597656 148.4270782470703 134.9456787109375 147.14700317382812 134.08168029785156 145.87405395507812 C133.24301147460938 144.63833618164062 132.55718994140625 143.3465576171875 132.16934204101562 141.90347290039062 C131.849853515625 140.71539306640625 131.47201538085938 139.5372772216797 131.25082397460938 138.33074951171875 C130.96974182128906 136.79705810546875 130.8272705078125 135.270263671875 130.8860321044922 133.75106811523438 C130.94479370117188 132.23187255859375 131.2047576904297 130.72024536132812 131.72854614257812 129.21688842773438 C132.19393920898438 127.88095092773438 132.63552856445312 126.53657531738281 133.06492614746094 125.18815612792969 C133.49432373046875 123.83973693847656 133.9115447998047 122.48728942871094 134.32818603515625 121.1352310180664 C134.73268127441406 119.82169342041016 135.1338348388672 118.50679016113281 135.50970458984375 117.18551635742188 C135.88555908203125 115.86424255371094 136.23614501953125 114.53660583496094 136.5394744873047 113.19758605957031 C136.84280395507812 111.85855865478516 137.098876953125 110.50816345214844 137.2857666015625 109.14137268066406 C137.465087890625 107.83039855957031 137.6136932373047 106.51480865478516 137.7677764892578 105.20018768310547 C137.92184448242188 103.88556671142578 138.08140563964844 102.5718994140625 138.28262329101562 101.2647705078125 C138.41473388671875 100.408447265625 138.1643524169922 99.85931396484375 137.60757446289062 99.31404113769531 C136.61300659179688 98.33983612060547 135.81121826171875 97.25657653808594 135.16830444335938 96.0838394165039 C134.525390625 94.91110229492188 134.04135131835938 93.64889526367188 133.68231201171875 92.3167953491211 C133.44268798828125 91.42591857910156 133.20001220703125 90.53580474853516 132.94888305664062 89.64799499511719 C132.8482666015625 89.2939453125 132.74534606933594 88.93605041503906 132.59559631347656 88.60197448730469 C132.529541015625 88.45527648925781 132.36212158203125 88.29400634765625 132.21160888671875 88.25559997558594 C131.71853637695312 88.13043212890625 131.22857666015625 88.2425537109375 130.77313232421875 88.43840026855469 C130.35226440429688 88.61888122558594 130.43368530273438 89.05049133300781 130.3806915283203 89.39840698242188 C130.19097900390625 90.64755249023438 129.97344970703125 91.88998413085938 129.68785095214844 93.11561584472656 C129.40225219726562 94.34123992919922 129.048583984375 95.5500717163086 128.58663940429688 96.73202514648438 C127.99833679199219 98.23807525634766 127.21112060546875 99.65196228027344 126.06375122070312 100.7801513671875 C125.06150817871094 101.7655029296875 124.20404052734375 102.19635009765625 123.37142944335938 102.21794128417969 C122.538818359375 102.23954010009766 121.73107147216797 101.85189056396484 120.82827758789062 101.20024108886719 C120.12019348144531 100.68952941894531 119.58334350585938 100.00216674804688 119.19322204589844 99.22341918945312 C118.8353271484375 98.50917053222656 118.48666381835938 97.78495788574219 118.2132568359375 97.03614807128906 C117.7681884765625 95.8204116821289 117.34674072265625 94.59756469726562 117.02283477783203 93.35139465332031 C116.69892883300781 92.10521697998047 116.47257232666016 90.83570861816406 116.41767883300781 89.52665710449219 C116.3953857421875 89.00595092773438 116.11199951171875 88.76556396484375 115.65118408203125 88.63653564453125 C115.19424438476562 88.50904846191406 114.97998046875 88.77630615234375 114.78106689453125 89.11270141601562 C114.59367370605469 89.4306640625 114.38015747070312 89.73248291015625 114.18586730957031 90.04658508300781 C113.58042907714844 91.02527618408203 112.92745971679688 91.95233917236328 112.20587921142578 92.80601501464844 C111.48429870605469 93.65968322753906 110.69410705566406 94.43997192382812 109.8142318725586 95.12510681152344 C108.93435668945312 95.81024932861328 107.96479797363281 96.40023803710938 106.88447570800781 96.87332916259766 C106.27700805664062 97.1390609741211 106.17257690429688 97.37869262695312 106.35226440429688 98.06450653076172 C106.7562255859375 99.61125183105469 107.2200927734375 101.14266204833984 107.66246032714844 102.67941284179688 C107.98578643798828 103.80274200439453 108.31218719482422 104.92513275146484 108.63835906982422 106.04755401611328 C108.96453857421875 107.16996765136719 109.29048156738281 108.29241943359375 109.61289978027344 109.41586303710938 C109.93531799316406 110.53929901123047 110.25421142578125 111.66374206542969 110.56626892089844 112.7901382446289 C110.90841674804688 114.0243148803711 111.12652587890625 115.27192687988281 111.17769622802734 116.52310180664062 C111.22886657714844 117.77426147460938 111.11308288574219 119.02898406982422 110.78744506835938 120.2773666381836 C110.42726135253906 121.65746307373047 109.96243286132812 122.99263000488281 109.3515853881836 124.25743103027344 C108.74073791503906 125.52223205566406 107.98387908935547 126.71666717529297 107.03962707519531 127.81529235839844 C106.27700805664062 128.70233154296875 105.52665710449219 129.60089111328125 104.80935668945312 130.52401733398438 C104.1239013671875 131.40530395507812 103.50777435302734 132.32614135742188 102.97968292236328 133.29429626464844 C102.45158386230469 134.262451171875 102.01152801513672 135.2779541015625 101.67820739746094 136.34854125976562 C101.26751708984375 137.66738891601562 100.96280670166016 138.98590087890625 100.76274871826172 140.30404663085938 C100.56269836425781 141.6221923828125 100.46730041503906 142.93995666503906 100.4752197265625 144.25730895996094 C100.48313903808594 145.57467651367188 100.5943832397461 146.89161682128906 100.8076171875 148.2081298828125 C101.02084350585938 149.52464294433594 101.3360595703125 150.8406982421875 101.75193786621094 152.1562957763672 C102.21068572998047 153.60806274414062 102.7989730834961 154.98680114746094 103.47737884521484 156.31495666503906 C104.15577697753906 157.6431121826172 104.92428588867188 158.92068481445312 105.74349212646484 160.170166015625 C106.56269073486328 161.41964721679688 107.43258666992188 162.64102172851562 108.31373596191406 163.8567657470703 C108.6531982421875 164.3283233642578 109.03181457519531 164.71078491210938 109.44729614257812 165.02719116210938"></path>
<path fill="#000000" fill-opacity="1.0"  filling="0" d="M113.15290832519531 124.8454360961914 C113.19975280761719 123.69804382324219 114.16665649414062 122.76107788085938 115.30868530273438 122.75570678710938 C116.50444030761719 122.75032806396484 117.546630859375 123.83014678955078 117.49209594726562 125.01746368408203 C117.43988037109375 126.14335632324219 116.43765258789062 127.11027526855469 115.32098388671875 127.1125717163086 C114.11212158203125 127.11410522460938 113.103759765625 126.05963897705078 113.15290832519531 124.8454360961914"></path>
<path fill="#000000" fill-opacity="1.0"  filling="0" d="M125.3118896484375 141.5494384765625 C125.32722473144531 142.75518798828125 124.26971435546875 143.7919921875 123.07008361816406 143.7482147216797 C121.94882202148438 143.70751953125 120.97421264648438 142.71066284179688 120.96115112304688 141.5916748046875 C120.94888305664062 140.4727020263672 121.90042114257812 139.45970153808594 123.02706909179688 139.39443969726562 C124.21978759765625 139.32455444335938 125.29653930664062 140.34060668945312 125.3118896484375 141.5494384765625"></path>
<path fill="#000000" fill-opacity="1.0"  filling="0" d="M130.758544921875 153.67462158203125 C129.59963989257812 153.66079711914062 128.64654541015625 152.7353515625 128.60891723632812 151.58872985839844 C128.57049560546875 150.406005859375 129.63418579101562 149.32696533203125 130.81768798828125 149.34848022460938 C131.94586181640625 149.36843872070312 132.92735290527344 150.337646484375 132.9626922607422 151.46432495117188 C133.0003204345703 152.6800537109375 131.99346923828125 153.689208984375 130.758544921875 153.67462158203125"></path>
<path fill="#000000" fill-opacity="1.0"  filling="0" d="M127.69036865234375 124.47142028808594 C128.91915893554688 124.49752807617188 129.87147521972656 125.53509521484375 129.79776000976562 126.7700424194336 C129.7301788330078 127.90975952148438 128.72488403320312 128.83981323242188 127.59512329101562 128.8075408935547 C126.48155212402344 128.77606201171875 125.48696899414062 127.78073120117188 125.46316528320312 126.6725082397461 C125.43707275390625 125.46904754638672 126.47232055664062 124.44607543945312 127.69036865234375 124.47142028808594"></path>
<path fill="#000000" fill-opacity="1.0"  filling="0" d="M113.57453918457031 101.92830657958984 C114.8087158203125 101.93061828613281 115.80633544921875 102.95819854736328 115.74334716796875 104.15934753417969 C115.68344116210938 105.29983520507812 114.70965576171875 106.21605682373047 113.56224060058594 106.2114486694336 C112.39947509765625 106.20606994628906 111.44873046875 105.29752349853516 111.40415954589844 104.14783477783203 C111.3565673828125 102.91980743408203 112.32806396484375 101.92601013183594 113.57453918457031 101.92830657958984"></path>
<path fill="#000000" fill-opacity="1.0"  filling="0" d="M134.87884521484375 103.59794616699219 C134.9080352783203 104.84671783447266 133.93728637695312 105.8451156616211 132.71078491210938 105.82744598388672 C131.56338500976562 105.81055450439453 130.61798095703125 104.87512969970703 130.58340454101562 103.72235107421875 C130.5473175048828 102.52120208740234 131.58718872070312 101.45369720458984 132.77145385742188 101.47595977783203 C133.91424560546875 101.4967041015625 134.8511962890625 102.4405746459961 134.87884521484375 103.59794616699219"></path>
<path fill="#000000" fill-opacity="1.0"  filling="0" d="M106.82460021972656 137.4245147705078 C106.86068725585938 136.20262145996094 107.9259033203125 135.22879028320312 109.12934875488281 135.31710815429688 C110.27903747558594 135.4008331298828 111.14227294921875 136.36773681640625 111.11614990234375 137.54122924804688 C111.0908203125 138.6993865966797 110.15463256835938 139.64633178710938 109.01414489746094 139.66860961914062 C107.8314208984375 139.69163513183594 106.78924560546875 138.62411499023438 106.82460021972656 137.4245147705078"></path>
<path fill="#000000" fill-opacity="1.0"  filling="0" d="M120.70541381835938 112.34163665771484 C120.74612426757812 111.17503356933594 121.67462158203125 110.27571105957031 122.84121704101562 110.27264404296875 C124.0792236328125 110.2695541381836 125.03309631347656 111.2679672241211 124.9854736328125 112.51519012451172 C124.94171142578125 113.66412353515625 123.97787475585938 114.61106872558594 122.85043334960938 114.61260223388672 C121.65005493164062 114.61490631103516 120.66239929199219 113.56966400146484 120.70541381835938 112.34163665771484"></path>
<path fill="#000000" fill-opacity="1.0"  filling="0" d="M106.5557861328125 152.16244506835938 C106.53118896484375 150.9827880859375 107.39596557617188 150.03506469726562 108.55641174316406 149.97055053710938 C109.81594848632812 149.90066528320312 110.80897521972656 150.81613159179688 110.83279418945312 152.06719970703125 C110.85581970214844 153.299072265625 109.85357666015625 154.3212890625 108.65240478515625 154.29055786132812 C107.50579833984375 154.26214599609375 106.58035278320312 153.32211303710938 106.5557861328125 152.16244506835938"></path></svg>