<svg xmlns="http://www.w3.org/2000/svg" viewBox="0.0 0.0 512.0 512.0" height="512.0px" width="512.0px"><path fill="#000000" fill-opacity="1.0"  filling="0" d="M315.35565185546875 384.39776611328125 C315.5154113769531 387.11956787109375 314.630615234375 389.3221740722656 312.6123352050781 391.263671875 C310.2423095703125 393.54156494140625 308.0596618652344 395.99761962890625 305.3501281738281 397.92071533203125 C303.2535095214844 399.4090881347656 301.60076904296875 401.39666748046875 299.958740234375 403.3658447265625 C297.7423095703125 406.0215759277344 295.1357421875 408.1796569824219 291.98846435546875 409.66339111328125 C290.7612609863281 410.24249267578125 289.5108642578125 410.6449279785156 288.13775634765625 410.6971435546875 C283.88763427734375 410.8553466796875 281.0567626953125 407.4608154296875 281.93536376953125 403.25677490234375 C282.2425537109375 401.7898864746094 282.9245300292969 400.5088806152344 283.7508850097656 399.29541015625 C285.876708984375 396.17120361328125 288.00408935546875 393.050048828125 290.17291259765625 389.95501708984375 C291.7181396484375 387.7508544921875 293.1911926269531 385.52825927734375 293.9084777832031 382.88482666015625 C294.0974426269531 382.1905212402344 294.43682861328125 381.5162353515625 294.8162536621094 380.89874267578125 C295.44757080078125 379.86810302734375 296.3506774902344 379.3827209472656 297.6040954589844 379.748291015625 C301.6315002441406 380.9233093261719 304.7157897949219 379.3535461425781 307.3438720703125 376.407470703125 C309.25927734375 374.25860595703125 310.8475036621094 374.20330810546875 312.7889709472656 376.22930908203125 C314.3802795410156 377.8897399902344 314.9870300292969 379.9863586425781 315.22967529296875 382.2104797363281 C315.304931640625 382.9339599609375 315.3141784667969 383.6666259765625 315.35565185546875 384.39776611328125 Z"></path>
<path fill="#000000" fill-opacity="1.0"  filling="0" d="M260.231689453125 361.3869323730469 C260.1625671386719 363.4405822753906 259.4851989746094 365.03955078125 257.91693115234375 366.2514343261719 C255.594482421875 368.0455322265625 253.1199951171875 369.6091613769531 250.4043426513672 370.68280029296875 C246.53823852539062 372.2126770019531 242.96241760253906 374.246337890625 239.46188354492188 376.4458923339844 C237.91819763183594 377.41510009765625 236.36378479003906 378.3674011230469 234.8001251220703 379.3028564453125 C234.1749725341797 379.67608642578125 233.5298614501953 380.02935791015625 232.8601531982422 380.307373046875 C229.96788024902344 381.508544921875 227.49337768554688 381.1598815917969 225.776123046875 379.34893798828125 C223.44293212890625 376.88824462890625 222.93142700195312 373.8515930175781 224.4121551513672 370.9654541015625 C225.48428344726562 368.8780212402344 227.02027893066406 367.1607666015625 228.85580444335938 365.7153625488281 C230.86183166503906 364.1363830566406 232.8724365234375 362.56353759765625 234.91531372070312 361.0336608886719 C237.46202087402344 359.1274719238281 239.85508728027344 357.0692443847656 241.51553344726562 354.31060791015625 C242.41099548339844 352.82220458984375 243.64903259277344 352.34454345703125 245.22189331054688 352.89288330078125 C248.2232208251953 353.9403991699219 250.89894104003906 353.4458312988281 253.50555419921875 351.65179443359375 C254.94937133789062 350.6579895019531 256.2534484863281 350.95135498046875 256.89703369140625 352.33526611328125 C258.0736083984375 354.8604736328125 259.0627746582031 357.4747314453125 260.084228515625 360.0690612792969 C260.2547302246094 360.5052795410156 260.19635009765625 361.03057861328125 260.231689453125 361.3869323730469 Z"></path>
<path fill="#292D86" fill-opacity="1.0"  filling="0" d="M324.11395263671875 258.51025390625 C322.439697265625 264.5467529296875 319.9360046386719 270.19921875 316.7564697265625 275.5751953125 C311.4880065917969 284.4840087890625 306.21954345703125 293.408203125 300.9049377441406 302.3016357421875 C299.5379333496094 304.60565185546875 298.355224609375 306.9864196777344 297.3414306640625 309.4747314453125 C296.11260986328125 312.45458984375 296.0819396972656 315.3422546386719 297.080322265625 318.3681640625 C299.3228759765625 325.1880187988281 301.25823974609375 332.1153564453125 303.900146484375 338.8123474121094 C305.543701171875 343.0056457519531 307.1872253417969 347.19891357421875 308.7385559082031 351.4382629394531 C310.07489013671875 355.09393310546875 311.3190612792969 358.78033447265625 312.5171203613281 362.4974670410156 C313.4386901855469 365.4005126953125 314.2835388183594 368.31890869140625 315.5123291015625 371.1144104003906 C315.8041687011719 371.77490234375 316.0653076171875 372.4814453125 316.2496337890625 373.17266845703125 C316.8486328125 375.3537902832031 316.26495361328125 376.7361755371094 314.12994384765625 377.5502624511719 C313.4079895019531 377.8267517089844 312.7014465332031 378.087890625 311.9795227050781 378.3336181640625 C311.3497619628906 378.56402587890625 310.7353820800781 378.779052734375 310.1056213378906 378.978759765625 C308.400634765625 379.56243896484375 306.6956787109375 380.0693054199219 304.9599914550781 380.53009033203125 C304.2380676269531 380.72979736328125 303.51617431640625 380.91412353515625 302.79425048828125 381.0677185058594 C302.50238037109375 381.14453125 302.2105712890625 381.2213134765625 301.918701171875 381.2827453613281 C300.6592102050781 381.5592041015625 299.3996887207031 381.8357238769531 298.1401672363281 382.06610107421875 C297.3260498046875 382.23504638671875 296.5119934082031 382.388671875 295.69793701171875 382.52691650390625 C294.89923095703125 382.6651611328125 294.1158447265625 382.8033752441406 293.317138671875 382.910888671875 C291.0284729003906 383.23345947265625 290.6291198730469 382.8648376464844 289.83038330078125 380.65301513671875 C289.4156799316406 379.516357421875 289.0931396484375 378.3336181640625 288.7398376464844 377.166259765625 C284.89984130859375 364.44818115234375 280.32257080078125 351.9912109375 275.5916748046875 339.595703125 C273.76385498046875 334.8033752441406 271.39837646484375 330.2721862792969 269.1712341308594 325.6641845703125 C267.5276794433594 322.22357177734375 266.46783447265625 318.6446838378906 265.9148864746094 314.8660888671875 C265.39263916015625 311.3025817871094 265.6844787597656 307.8312072753906 266.45245361328125 304.3445129394531 C268.0345764160156 297.20208740234375 270.0159912109375 290.1825866699219 272.5196838378906 283.3013000488281 C272.76544189453125 282.6408386230469 272.9497375488281 281.94964599609375 273.3183898925781 280.7822570800781 C272.56573486328125 281.1969909667969 272.289306640625 281.2738037109375 272.15106201171875 281.4427490234375 C268.2803039550781 286.0353698730469 263.8566589355469 290.02899169921875 259.325439453125 293.930419921875 C257.29791259765625 295.69683837890625 255.5161590576172 297.6782531738281 254.01087951660156 299.9361877441406 C251.93728637695312 303.0081787109375 251.12318420410156 306.34130859375 251.7529754638672 310.0123291015625 C252.04481506347656 311.68658447265625 252.2751922607422 313.3761901855469 252.61312866210938 315.0504150390625 C254.77886962890625 325.6641845703125 256.975341796875 336.2779541015625 259.1564636230469 346.8917236328125 C259.4176025390625 348.2126770019531 259.663330078125 349.53363037109375 259.81695556640625 350.8545837402344 C259.9859313964844 352.22161865234375 259.5711975097656 352.9588928222656 258.3731384277344 353.49652099609375 C258.01983642578125 353.6501159667969 257.6358337402344 353.8037109375 257.2671813964844 353.92657470703125 C256.94464111328125 354.03411865234375 256.6220703125 354.1262512207031 256.2995300292969 354.20306396484375 C255.8694305419922 354.31060791015625 255.4547119140625 354.4027404785156 255.024658203125 354.51025390625 C253.44256591796875 354.87890625 251.84512329101562 355.232177734375 250.2476806640625 355.5700988769531 C249.51039123535156 355.7237243652344 248.77313232421875 355.8773193359375 248.0358428955078 356.01556396484375 C246.37696838378906 356.3381042480469 244.7027130126953 356.62994384765625 243.01312255859375 356.875732421875 C242.90560913085938 356.89105224609375 242.79808044433594 356.90643310546875 242.69056701660156 356.9217834472656 C242.3372802734375 356.9678649902344 241.96865844726562 357.0139465332031 241.60000610351562 357.029296875 C241.27743530273438 357.044677734375 241.00096130371094 357.0600280761719 240.72447204589844 357.0600280761719 C238.22080993652344 357.0600280761719 237.48353576660156 356.307373046875 236.82302856445312 353.4197082519531 C235.79391479492188 348.90386962890625 234.3040008544922 344.5262451171875 232.9830322265625 340.10260009765625 C229.6038360595703 328.7822570800781 225.67169189453125 317.6308898925781 223.33697509765625 306.01873779296875 C222.50753784179688 301.825439453125 222.18496704101562 297.6014404296875 222.75328063964844 293.3006591796875 C223.22943115234375 289.7218017578125 224.3199920654297 286.43475341796875 226.239990234375 283.3934631347656 C229.40415954589844 278.43218994140625 233.1980743408203 274.008544921875 237.52960205078125 270.0302734375 C240.75518798828125 267.0657958984375 243.88865661621094 263.9937744140625 247.0681610107422 260.9678649902344 C249.4643096923828 258.694580078125 251.59934997558594 256.175537109375 253.580810546875 253.5643310546875 C256.40704345703125 249.86257934570312 257.8508605957031 245.66929626464844 257.89697265625 240.99986267089844 C257.92767333984375 238.4347381591797 257.712646484375 235.88499450683594 257.31329345703125 233.35057067871094 C257.1136169433594 231.98355102539062 257.57440185546875 230.9851531982422 258.8646545410156 230.40147399902344 C260.8614501953125 229.49520874023438 262.8121643066406 228.48147583007812 264.8396911621094 227.6520233154297 C275.10015869140625 223.458740234375 285.3913879394531 219.37298583984375 295.89764404296875 215.8555450439453 C298.2016296386719 215.07217407226562 300.45953369140625 214.15057373046875 302.7481689453125 213.32115173339844 C304.3763122558594 212.7374725341797 305.68194580078125 213.02931213378906 307.0643310546875 214.2581024169922 C310.9964599609375 217.7601776123047 314.6060791015625 221.50802612304688 317.601318359375 225.87025451660156 C322.1939392089844 232.5672149658203 324.57470703125 240.01683044433594 325.31201171875 248.0500946044922 C325.6499328613281 251.61363220214844 325.0662536621094 255.08499145507812 324.11395263671875 258.51025390625 Z"></path>
<path fill="#000000" fill-opacity="1.0"  filling="0" d="M296.206298828125 297.17138671875 C291.9669494628906 305.2507629394531 290.78424072265625 313.7294616699219 292.76568603515625 322.684326171875 C294.3477783203125 329.84210205078125 296.237060546875 336.87701416015625 298.771484375 343.742919921875 C301.275146484375 350.4859619140625 303.7019958496094 357.25970458984375 306.25177001953125 363.9720458984375 C307.77239990234375 367.95025634765625 309.5234680175781 371.8363342285156 311.1362609863281 375.78387451171875 C311.47418212890625 376.6133117675781 311.7506408691406 377.47344970703125 311.9810791015625 378.3336181640625 C311.351318359375 378.56402587890625 310.73687744140625 378.779052734375 310.1071472167969 378.978759765625 C309.86138916015625 378.4872131347656 309.6309509277344 377.9957275390625 309.41595458984375 377.48883056640625 C305.8063049316406 369.3633728027344 302.6421813964844 361.05364990234375 299.6469421386719 352.68243408203125 C297.28155517578125 346.03155517578125 294.6396179199219 339.47283935546875 292.8424987792969 332.62225341796875 C291.70587158203125 328.260009765625 290.64599609375 323.8977966308594 289.9548034667969 319.42803955078125 C288.848876953125 312.1934814453125 290.1083984375 305.3582763671875 292.96539306640625 298.73809814453125 C294.5167236328125 295.14385986328125 296.574951171875 291.8414611816406 298.57177734375 288.49298095703125 C300.9986267089844 284.4072265625 303.4869384765625 280.3521728515625 305.8063049316406 276.2049865722656 C309.538818359375 269.5694580078125 312.1653747558594 262.53460693359375 313.2405700683594 254.94674682617188 C313.63995361328125 252.0129852294922 313.7781982421875 249.1099395751953 313.5016784667969 246.20689392089844 C313.28662109375 243.90289306640625 312.8873291015625 241.61427307128906 312.54937744140625 239.32562255859375 C311.67388916015625 233.44273376464844 309.49273681640625 228.06674194335938 306.42071533203125 223.01332092285156 C305.9753112792969 222.29139709472656 305.5298767089844 221.55409240722656 305.1612548828125 220.78610229492188 C304.9461975097656 220.3406524658203 304.99224853515625 219.8337860107422 305.4684143066406 219.49586486816406 C305.92926025390625 219.15794372558594 306.4053649902344 219.1886444091797 306.7586364746094 219.6033935546875 C307.23480224609375 220.1409912109375 307.6495666503906 220.74002075195312 308.04888916015625 221.3544158935547 C311.7353210449219 227.20657348632812 314.1160888671875 233.55026245117188 315.0223083496094 240.4161834716797 C315.40631103515625 243.4420928955078 316.0514831542969 246.4373016357422 315.89788818359375 249.50930786132812 C315.8056945800781 254.65489196777344 314.9148254394531 259.6776123046875 313.34808349609375 264.57745361328125 C311.8735656738281 269.2315673828125 309.907470703125 273.7012939453125 307.44989013671875 277.92529296875 C305.3148193359375 281.6116943359375 303.1029357910156 285.2673645019531 300.95257568359375 288.93841552734375 C299.3536376953125 291.67254638671875 297.67938232421875 294.3758544921875 296.206298828125 297.17138671875 Z"></path>
<path fill="#000000" fill-opacity="1.0"  filling="0" d="M304.9615478515625 380.53009033203125 C304.2396240234375 380.72979736328125 303.5177001953125 380.91412353515625 302.7957763671875 381.0677185058594 C297.5580139160156 366.3681945800781 292.3816833496094 351.6533203125 287.1285705566406 336.95379638671875 C284.4405517578125 329.4427490234375 282.9045715332031 321.7012939453125 282.42840576171875 313.7448425292969 C282.09051513671875 307.8927001953125 283.27325439453125 302.3630676269531 285.9151611328125 297.12530517578125 C288.1730651855469 292.6708984375 290.36956787109375 288.185791015625 292.642822265625 283.74676513671875 C298.9403991699219 271.48944091796875 300.937255859375 258.356689453125 300.76824951171875 244.77841186523438 C300.67608642578125 237.92787170410156 299.69305419921875 231.18482971191406 297.78839111328125 224.59539794921875 C297.6501770019531 224.1345672607422 297.63482666015625 223.62771606445312 297.63482666015625 223.15155029296875 C297.63482666015625 222.73683166503906 297.9573669433594 222.4603271484375 298.3106384277344 222.42962646484375 C298.63323974609375 222.39889526367188 299.1401062011719 222.49105834960938 299.262939453125 222.69073486328125 C299.67767333984375 223.4280242919922 300.06170654296875 224.19601440429688 300.2767333984375 225.01010131835938 C301.3519287109375 229.14193725585938 302.21209716796875 233.3198699951172 302.6114807128906 237.5745849609375 C302.9033203125 240.8462677001953 302.9801025390625 244.13330078125 303.1029357910156 246.4373016357422 C302.9033203125 256.49810791015625 301.79736328125 265.4068908691406 299.093994140625 274.0853271484375 C297.98809814453125 277.60272216796875 296.52886962890625 280.93585205078125 294.9161071777344 284.222900390625 C292.8271484375 288.4776306152344 290.76885986328125 292.7630615234375 288.51092529296875 296.95635986328125 C285.3621826171875 302.8392333984375 284.2562561035156 309.029296875 284.8399353027344 315.66485595703125 C285.4543151855469 322.63824462890625 286.83673095703125 329.39666748046875 289.18682861328125 335.97076416015625 C293.67193603515625 348.5966796875 298.218505859375 361.20721435546875 302.71893310546875 373.8331604003906 C303.5023193359375 376.04498291015625 304.2380676269531 378.2875671386719 304.9615478515625 380.53009033203125 Z"></path>
<path fill="#000000" fill-opacity="1.0"  filling="0" d="M298.1416931152344 382.06610107421875 C297.32763671875 382.23504638671875 296.5135498046875 382.388671875 295.699462890625 382.52691650390625 C295.0389404296875 380.37652587890625 294.40924072265625 378.19537353515625 293.6258850097656 376.091064453125 C288.4802551269531 362.4053039550781 283.27325439453125 348.750244140625 278.09686279296875 335.0798645019531 C275.85430908203125 329.1509094238281 273.734619140625 323.19122314453125 272.3215637207031 316.98577880859375 C270.75482177734375 310.16595458984375 270.9698791503906 303.4843444824219 273.04345703125 296.787353515625 C274.4873046875 292.1179504394531 276.33050537109375 287.6328430175781 278.3580017089844 283.19378662109375 C281.7679443359375 275.7595520019531 284.8245544433594 268.18707275390625 286.66778564453125 260.1998596191406 C289.1560974121094 249.40179443359375 289.6936950683594 238.49618530273438 287.8044128417969 227.52914428710938 C287.7276306152344 227.05299377441406 287.5893859863281 226.5614776611328 287.65081787109375 226.10064697265625 C287.6968688964844 225.8241729736328 288.0348205566406 225.51698303222656 288.3113098144531 225.3634033203125 C288.6492614746094 225.17904663085938 289.03326416015625 225.30194091796875 289.2943115234375 225.59378051757812 C289.87799072265625 226.26963806152344 290.0162353515625 227.11441040039062 290.18524169921875 227.95921325683594 C291.0146179199219 232.0449981689453 291.06072998046875 236.1921844482422 291.1068115234375 240.3240203857422 C291.2911682128906 251.95155334472656 288.9871520996094 263.1029052734375 284.7170715332031 273.8702392578125 C283.104248046875 277.940673828125 281.322509765625 281.94964599609375 279.55609130859375 285.97393798828125 C277.8818664550781 289.76788330078125 276.3765563964844 293.60784912109375 275.16314697265625 297.57073974609375 C273.2585144042969 303.77618408203125 273.0281066894531 309.99700927734375 274.4873046875 316.3406982421875 C275.8082580566406 322.0545959472656 277.68218994140625 327.58416748046875 279.75579833984375 333.0523376464844 C285.054931640625 347.0606689453125 290.36956787109375 361.0690002441406 295.65338134765625 375.0926818847656 C296.5135498046875 377.41204833984375 297.3260498046875 379.73138427734375 298.1416931152344 382.06610107421875 Z"></path>
<path fill="#000000" fill-opacity="1.0"  filling="0" d="M267.6059875488281 231.8145751953125 C267.3141784667969 241.36849975585938 265.34808349609375 249.95474243164062 260.34075927734375 257.7268981933594 C257.944580078125 261.44403076171875 255.19512939453125 264.8232116699219 251.83128356933594 267.695556640625 C247.74554443359375 271.1669006347656 243.6751251220703 274.66900634765625 239.60475158691406 278.14031982421875 C237.37754821777344 280.0603332519531 235.31927490234375 282.10321044921875 233.62969970703125 284.53009033203125 C230.41943359375 289.13812255859375 229.22137451171875 294.16082763671875 229.78970336914062 299.7518615722656 C230.55770874023438 307.29364013671875 231.97080993652344 314.7125244140625 233.99832153320312 321.9931640625 C237.1164093017578 333.14453125 239.75833129882812 344.40338134765625 242.661376953125 355.600830078125 C242.76890563964844 356.0308837890625 242.89178466796875 356.4456481933594 243.0146484375 356.875732421875 C242.90711975097656 356.89105224609375 242.79962158203125 356.90643310546875 242.6920928955078 356.9217834472656 C242.33880615234375 356.9678649902344 241.9701690673828 357.0139465332031 241.60154724121094 357.029296875 C241.27896118164062 357.044677734375 241.0024871826172 357.0600280761719 240.72601318359375 357.0600280761719 C239.28216552734375 351.3921813964844 237.8843994140625 345.6936340332031 236.4252166748047 340.0257873535156 C234.58201599121094 332.82196044921875 232.66201782226562 325.6488342285156 230.80343627929688 318.4603271484375 C229.34425354003906 312.79254150390625 228.48410034179688 307.01715087890625 227.67001342773438 301.2110595703125 C226.34906005859375 291.79534912109375 229.60537719726562 284.23828125 236.4405975341797 277.98675537109375 C239.40505981445312 275.28338623046875 242.52313232421875 272.733642578125 245.5644073486328 270.1070556640625 C247.13111877441406 268.75537109375 248.7132110595703 267.4190673828125 250.26458740234375 266.03668212890625 C258.4207458496094 258.7867431640625 263.3205871582031 249.8318634033203 264.7490539550781 238.9569854736328 C265.02557373046875 236.92945861816406 265.2252502441406 234.90194702148438 265.3173828125 232.88978576660156 C265.36346435546875 232.87440490722656 265.4095764160156 232.87440490722656 265.45562744140625 232.8437042236328 C266.1606140136719 232.459716796875 266.882568359375 232.13714599609375 267.6059875488281 231.8145751953125 Z"></path>
<path fill="#000000" fill-opacity="1.0"  filling="0" d="M277.0985107421875 235.28594970703125 C276.88348388671875 241.96754455566406 275.2706298828125 248.280517578125 272.2139892578125 254.24017333984375 C268.77337646484375 260.9371337890625 264.1499938964844 266.6971435546875 258.3900146484375 271.5509033203125 C254.18138122558594 275.0683288574219 249.97274780273438 278.5857849121094 246.07127380371094 282.45654296875 C245.4722442626953 283.0555419921875 244.9039306640625 283.70068359375 244.24343872070312 284.2536315917969 C238.26840209960938 289.3685302734375 236.80921936035156 296.0040283203125 237.8690643310547 303.4382629394531 C238.22232055664062 305.84979248046875 238.66778564453125 308.26129150390625 239.23609924316406 310.6113586425781 C242.87640380859375 325.61810302734375 246.5935516357422 340.5787353515625 250.2492218017578 355.5700988769531 C249.51193237304688 355.7237243652344 248.774658203125 355.8773193359375 248.03736877441406 356.01556396484375 C247.97593688964844 355.78515625 247.91448974609375 355.55474853515625 247.85305786132812 355.3243408203125 C244.38169860839844 341.1317138671875 240.94105529785156 326.9237060546875 237.45433044433594 312.7310485839844 C236.37911987304688 308.35345458984375 235.31927490234375 303.9758605957031 235.38075256347656 298.81488037109375 C235.11962890625 293.2085266113281 237.23928833007812 288.016845703125 241.67832946777344 283.63922119140625 C246.4552764892578 278.9237060546875 251.3858642578125 274.39251708984375 256.5621643066406 270.1377868652344 C261.6156311035156 265.9906005859375 265.7474670410156 261.07537841796875 269.0191650390625 255.4228973388672 C272.55194091796875 249.29425048828125 274.50262451171875 242.704833984375 274.8713073730469 235.6392059326172 C274.9173889160156 234.79443359375 274.97882080078125 233.9496307373047 275.16314697265625 233.13555908203125 C275.22454833984375 232.87440490722656 275.7314758300781 232.5825653076172 276.0233154296875 232.5825653076172 C276.33050537109375 232.5825653076172 276.806640625 232.88978576660156 276.88348388671875 233.13555908203125 C277.0523986816406 233.8267364501953 277.1292419433594 234.56402587890625 277.0985107421875 235.28594970703125 Z"></path>
<path fill="#000000" fill-opacity="1.0"  filling="0" d="M283.90142822265625 247.40499877929688 C282.0736389160156 254.96209716796875 278.8326416015625 261.87408447265625 274.25537109375 268.1409912109375 C270.52288818359375 273.2865905761719 266.2681579589844 277.98675537109375 261.6294250488281 282.3182373046875 C259.4022216796875 284.4072265625 257.2364807128906 286.5576171875 255.0399932861328 288.66192626953125 C249.8790283203125 293.6385803222656 248.0204620361328 299.9361877441406 247.89761352539062 306.87890625 C247.80543518066406 311.5329895019531 248.7577667236328 316.09490966796875 249.617919921875 320.6414794921875 C251.41502380371094 330.2261047363281 253.93408203125 339.64178466796875 256.1766662597656 349.118896484375 C256.5606689453125 350.7163391113281 257.03680419921875 352.29840087890625 257.2671813964844 353.92657470703125 C256.94464111328125 354.03411865234375 256.6220703125 354.1262512207031 256.2995300292969 354.20306396484375 C255.8694305419922 354.31060791015625 255.4547119140625 354.4027404785156 255.024658203125 354.51025390625 C252.78207397460938 344.9102783203125 250.53953552246094 335.32562255859375 248.3276824951172 325.71026611328125 C247.26783752441406 321.0869140625 246.49984741210938 316.3867492675781 245.88543701171875 311.67120361328125 C245.2403106689453 306.6331481933594 245.77792358398438 301.70257568359375 247.25247192382812 296.86419677734375 C248.0358428955078 294.2683410644531 249.3568115234375 291.948974609375 251.04638671875 289.82928466796875 C253.1814422607422 287.14129638671875 255.6390380859375 284.77587890625 258.1580810546875 282.47186279296875 C262.9350280761719 278.109619140625 267.3894348144531 273.440185546875 271.3523254394531 268.3099365234375 C276.0832214355469 262.13519287109375 279.4931335449219 255.3307342529297 281.48992919921875 247.80433654785156 C281.7356872558594 246.86737060546875 282.0428771972656 245.94578552246094 282.4115295410156 245.05490112304688 C282.5190734863281 244.79379272460938 282.9798583984375 244.70162963867188 283.3177490234375 244.50193786621094 C283.62493896484375 244.77841186523438 283.9936218261719 244.9781036376953 284.10113525390625 245.2699432373047 C284.4098815917969 245.9918670654297 284.07037353515625 246.6984100341797 283.90142822265625 247.40499877929688 Z"></path>
<path fill="#F29481" fill-opacity="1.0"  filling="0" d="M264.55706787109375 135.91748046875 C261.9719543457031 135.06655883789062 259.5819396972656 133.82391357421875 257.39776611328125 132.21572875976562 C255.8540802001953 127.6461181640625 253.9263916015625 123.21939086914062 252.800537109375 119.94155883789062 C250.76837158203125 114.49642944335938 249.2200927734375 110.32162475585938 247.65184020996094 106.15289306640625 C246.44456481933594 102.94573974609375 245.05906677246094 99.8306884765625 243.03616333007812 97.029052734375 C241.6322479248047 95.08444213867188 240.08551025390625 93.276611328125 238.20697021484375 91.78204345703125 C235.41143798828125 89.55792236328125 232.1704864501953 88.52883911132812 228.63462829589844 88.38290405273438 C227.41964721679688 88.333740234375 226.2016143798828 88.33834838867188 224.9912109375 88.56719970703125 C223.32467651367188 88.88363647460938 221.83322143554688 89.63009643554688 220.34176635742188 90.3812255859375 C218.36492919921875 91.37811279296875 216.532470703125 92.57464599609375 215.04103088378906 94.2412109375 C211.98284912109375 97.65878295898438 210.7494354248047 101.66622924804688 211.1948699951172 106.20510864257812 C211.37152099609375 107.9991455078125 211.66641235351562 109.78240966796875 212.11187744140625 111.52890014648438 C212.474365234375 112.94967651367188 212.46514892578125 114.3597412109375 212.24859619140625 115.78515625 C212.01971435546875 117.28732299804688 211.56353759765625 118.72503662109375 210.9660186767578 120.11972045898438 C210.8001251220703 120.50833129882812 210.6419219970703 120.90463256835938 210.51596069335938 121.30859375 C210.33010864257812 121.90765380859375 210.23947143554688 122.50973510742188 210.75404357910156 123.01663208007812 C211.26705932617188 123.52197265625 211.863037109375 123.43133544921875 212.463623046875 123.23321533203125 C213.27001953125 122.96749877929688 214.0702667236328 122.68948364257812 214.8736114501953 122.41604614257812 C215.9226837158203 122.05816650390625 215.94265747070312 122.04742431640625 216.40652465820312 123.042724609375 C217.25746154785156 124.86752319335938 218.06846618652344 126.710693359375 218.92095947265625 128.533935546875 C219.4370574951172 129.63681030273438 219.9992218017578 130.71966552734375 220.54452514648438 131.8087158203125 C220.8670654296875 132.45379638671875 221.32481384277344 133.00216674804688 221.77792358398438 133.55667114257812 C222.3523712158203 134.25860595703125 223.07737731933594 134.50592041015625 223.96058654785156 134.43215942382812 C225.16172790527344 134.330810546875 226.30296325683594 134.00210571289062 227.42579650878906 133.58892822265625 C228.59776306152344 133.15884399414062 229.80198669433594 132.84548950195312 231.024658203125 132.602783203125 C233.01527404785156 132.20648193359375 234.36236572265625 132.8685302734375 235.546630859375 134.75167846679688 C235.841552734375 135.22015380859375 236.06271362304688 135.73471069335938 236.25164794921875 136.26153564453125 C236.780029296875 137.73611450195312 237.36216735839844 139.18917846679688 237.9949951171875 140.62222290039062 C236.65869140625 142.0230712890625 235.11346435546875 143.22885131835938 233.54214477539062 144.3839111328125 C233.1842498779297 144.64654541015625 233.1566162109375 145.05975341796875 233.29637145996094 145.38385009765625 C233.2994384765625 145.40231323242188 233.31019592285156 145.41766357421875 233.31634521484375 145.43453979492188 C233.3286590576172 145.45761108398438 233.33786010742188 145.482177734375 233.3516845703125 145.50521850585938 C233.41159057617188 145.63265991210938 233.5083465576172 145.74789428710938 233.68344116210938 145.82467651367188 C237.89364624023438 147.64947509765625 244.4200897216797 152.08694458007812 249.1049041748047 150.1593017578125 C255.3226318359375 147.60186767578125 257.9584045410156 140.0201416015625 263.8612365722656 137.40740966796875 C263.9073181152344 137.387451171875 263.9303894042969 137.35516357421875 263.9687805175781 137.33059692382812 C264.0286865234375 137.35055541992188 264.08551025390625 137.37515258789062 264.1454162597656 137.39511108398438 C265.0900573730469 137.70846557617188 265.4924621582031 136.22470092773438 264.55706787109375 135.91748046875 Z"></path>
<path fill="#000000" fill-opacity="1.0"  filling="0" d="M251.20155334472656 112.47967529296875 C250.28146362304688 109.32931518554688 249.2431182861328 106.21124267578125 248.70706176757812 102.95492553710938 C248.0343017578125 98.87222290039062 246.01905822753906 95.52069091796875 242.92709350585938 92.8004150390625 C240.80128479003906 90.92959594726562 238.4404296875 89.40896606445312 235.8353729248047 88.30917358398438 C233.06289672851562 87.1402587890625 230.18443298339844 86.52127075195312 227.14930725097656 86.96670532226562 C224.50277709960938 87.35528564453125 222.12506103515625 88.41207885742188 219.88096618652344 89.8251953125 C217.76739501953125 91.15692138671875 215.75987243652344 92.62686157226562 213.9949951171875 94.39633178710938 C212.6863250732422 95.7095947265625 211.2194366455078 96.7633056640625 209.5298614501953 97.51443481445312 C208.8739776611328 97.80624389648438 208.28570556640625 98.21792602539062 207.668212890625 98.578857421875 C205.32427978515625 99.948974609375 204.23524475097656 103.10549926757812 205.7835693359375 106.03765869140625 C206.37799072265625 107.16357421875 207.1767120361328 108.09591674804688 208.34561157226562 108.66729736328125 C209.46075439453125 109.21258544921875 210.60659790039062 109.35543823242188 211.8215789794922 109.0574951171875 C213.45587158203125 108.65655517578125 214.84902954101562 107.81024169921875 216.13772583007812 106.77035522460938 C216.6783905029297 106.33258056640625 217.0900421142578 105.77194213867188 217.3926544189453 105.14678955078125 C217.54470825195312 104.83349609375 217.74436950683594 104.71054077148438 218.0792236328125 104.76434326171875 C218.4709014892578 104.82730102539062 218.8733367919922 104.84115600585938 219.2558135986328 104.93637084960938 C221.98988342285156 105.61373901367188 224.28775024414062 107.00076293945312 226.0802459716797 109.19107055664062 C226.28146362304688 109.43685913085938 226.4888458251953 109.68109130859375 226.5917510986328 109.98980712890625 C227.21690368652344 111.8621826171875 228.21376037597656 113.55331420898438 229.15225219726562 115.27517700195312 C229.9509735107422 116.74050903320312 230.78346252441406 118.1859130859375 231.70509338378906 119.57904052734375 C232.3348388671875 120.53140258789062 232.84017944335938 121.55587768554688 233.21035766601562 122.63876342773438 C233.6312255859375 123.87063598632812 233.24569702148438 124.95355224609375 232.1490020751953 125.66622924804688 C231.23814392089844 126.25912475585938 230.2382049560547 126.57708740234375 229.15225219726562 126.5970458984375 C228.1753387451172 126.615478515625 227.35511779785156 126.20535278320312 226.61785888671875 125.60324096679688 C226.04031372070312 125.13323974609375 225.56570434570312 124.560302734375 225.05575561523438 124.02117919921875 C224.4182891845703 123.34686279296875 223.77011108398438 122.68637084960938 222.9959716796875 122.16107177734375 C221.21267700195312 120.95071411132812 219.3295440673828 120.93994140625 217.38189697265625 121.6695556640625 C217.08543395996094 121.7801513671875 216.80128479003906 121.92913818359375 216.5201873779297 122.07968139648438 C215.29293823242188 122.73245239257812 214.9503936767578 123.48049926757812 215.28831481933594 124.833740234375 C215.4956817626953 125.65853881835938 215.82437133789062 126.44192504882812 216.2176055908203 127.19607543945312 C217.28204345703125 129.23895263671875 218.303466796875 131.30642700195312 219.7734375 133.10968017578125 C220.2941436767578 133.74710083007812 220.837890625 134.363037109375 221.42617797851562 134.93292236328125 C222.74560546875 136.21084594726562 224.2677764892578 136.69317626953125 226.08331298828125 136.09719848632812 C228.1016387939453 135.4351806640625 230.01547241210938 134.51205444335938 232.0 133.76864624023438 C233.78790283203125 133.09893798828125 235.5373992919922 132.34014892578125 237.2147216796875 131.42160034179688 C237.5879669189453 131.21731567382812 237.93508911132812 130.97772216796875 238.26380920410156 130.7073974609375 C239.2330322265625 129.9071044921875 239.68768310546875 128.90567016601562 239.5525360107422 127.62771606445312 C239.45420837402344 126.69842529296875 239.23455810546875 125.79830932617188 238.97653198242188 124.91049194335938 C238.2284698486328 122.3438720703125 236.97816467285156 120.08438110351562 234.94760131835938 118.2811279296875 C233.31634521484375 116.83270263671875 231.9201202392578 115.17227172851562 230.729736328125 113.33984375 C230.07078552246094 112.32452392578125 229.5930938720703 111.2431640625 229.49630737304688 110.02362060546875 C229.46868896484375 109.6826171875 229.46099853515625 109.33392333984375 229.49325561523438 108.99295043945312 C229.5977020263672 107.8885498046875 230.4225311279297 107.31256103515625 231.50387573242188 107.57366943359375 C232.05836486816406 107.70730590820312 232.53453063964844 107.99761962890625 232.9461669921875 108.38162231445312 C233.95379638671875 109.32009887695312 234.8953399658203 110.31234741210938 235.76780700683594 111.3875732421875 C238.32525634765625 114.53482055664062 241.00865173339844 117.57305908203125 244.11134338378906 120.207275390625 C244.5183868408203 120.55288696289062 244.96690368652344 120.83242797851562 245.45382690429688 121.050537109375 C246.08358764648438 121.33316040039062 246.69798278808594 121.33929443359375 247.3815155029297 121.14730834960938 C249.00811767578125 120.69268798828125 250.4565887451172 119.86013793945312 251.96031188964844 119.14129638671875 C252.12620544433594 119.06143188476562 252.28594970703125 118.96160888671875 252.4349365234375 118.85250854492188 C253.04318237304688 118.40707397460938 253.1814422607422 117.99081420898438 252.92494201660156 117.265869140625 C252.60696411132812 116.36572265625 252.25830078125 115.47793579101562 251.9326934814453 114.5809326171875 C251.67921447753906 113.88510131835938 251.4442138671875 113.18008422851562 251.20155334472656 112.47967529296875 Z"></path>
<path fill="#F29481" fill-opacity="1.0"  filling="0" d="M200.67941284179688 196.49734497070312 C200.42291259765625 195.94590759277344 200.13414001464844 195.40829467773438 199.83921813964844 194.87686157226562 C197.8792724609375 191.33790588378906 196.34942626953125 187.6591796875 195.7427215576172 183.61029052734375 C195.43399047851562 181.556640625 194.54002380371094 179.6504669189453 193.523193359375 177.83799743652344 C193.1714324951172 177.21133422851562 192.6876220703125 176.63992309570312 192.18226623535156 176.12689208984375 C191.84127807617188 175.77976989746094 191.30520629882812 175.62615966796875 190.8536376953125 175.92877197265625 C190.58021545410156 176.11155700683594 190.28530883789062 176.4633026123047 190.25611877441406 176.76588439941406 C190.18392944335938 177.48165893554688 190.2269287109375 178.2174072265625 190.29452514648438 178.9377899169922 C190.36517333984375 179.69041442871094 190.79986572265625 180.4399871826172 190.42970275878906 181.2279510498047 C189.59718322753906 181.00677490234375 189.31915283203125 180.4322967529297 188.96434020996094 179.95155334472656 C186.77093505859375 176.97940063476562 183.889404296875 174.70455932617188 181.18296813964844 172.25311279296875 C180.64691162109375 171.76773071289062 180.05093383789062 171.34686279296875 179.28756713867188 171.21630859375 C178.693115234375 171.11492919921875 178.07870483398438 171.66943359375 178.15399169921875 172.2730712890625 C178.29067993164062 173.36669921875 178.90200805664062 174.22686767578125 179.46572875976562 175.10699462890625 C179.87277221679688 175.5877685546875 180.29977416992188 176.04701232910156 180.75289916992188 176.50477600097656 C181.31045532226562 177.06845092773438 181.81118774414062 177.68902587890625 182.25665283203125 178.3448944091797 C182.26124572753906 178.35255432128906 182.26585388183594 178.36024475097656 182.27200317382812 178.367919921875 C182.27354431152344 178.367919921875 182.27354431152344 178.367919921875 182.27505493164062 178.367919921875 C182.27354431152344 178.367919921875 182.27354431152344 178.367919921875 182.27200317382812 178.367919921875 C182.61911010742188 178.87632751464844 182.93402099609375 179.29566955566406 182.79884338378906 179.92388916015625 C182.79115295410156 179.9607696533203 182.74200439453125 179.99302673339844 182.7051544189453 179.9776611328125 C182.7005615234375 179.9761199951172 182.6974639892578 179.9715118408203 182.69287109375 179.9684295654297 C182.69131469726562 179.9715118408203 182.69131469726562 179.9745635986328 182.69131469726562 179.9776611328125 C182.67752075195312 180.01605224609375 182.63909912109375 180.043701171875 182.59609985351562 180.03143310546875 C181.67909240722656 179.7426300048828 181.1399688720703 178.894775390625 180.62387084960938 178.10679626464844 C180.59776306152344 178.0868377685547 180.57931518554688 178.0653533935547 180.5516815185547 178.04537963867188 C180.210693359375 177.8118896484375 179.92498779296875 177.55230712890625 179.63775634765625 177.2512664794922 C179.10784912109375 176.69369506835938 178.63473510742188 176.0869598388672 178.17703247070312 175.46795654296875 C177.55645751953125 174.90731811523438 176.9681854248047 174.32363891601562 176.4613037109375 173.64935302734375 C176.14334106445312 173.43582153320312 175.82693481445312 173.223876953125 175.49978637695312 173.0211181640625 C175.33233642578125 172.91665649414062 174.9345245361328 172.928955078125 174.81930541992188 173.05181884765625 C174.59506225585938 173.29144287109375 174.30477905273438 173.70462036132812 174.37696838378906 173.94268798828125 C174.58584594726562 174.62777709960938 174.87001037597656 175.32972717285156 175.28933715820312 175.9041748046875 C175.52281188964844 176.2236785888672 175.76858520507812 176.533935546875 176.0081787109375 176.850341796875 C176.03890991210938 176.83961486816406 176.07577514648438 176.83499145507812 176.09881591796875 176.8703155517578 C176.6947784423828 177.7888641357422 177.45816040039062 178.56607055664062 178.14630126953125 179.4123992919922 C178.70233154296875 180.09747314453125 179.2491455078125 180.70880126953125 179.88967895507812 181.31398010253906 C180.44415283203125 181.83929443359375 180.92645263671875 182.45828247070312 181.39956665039062 183.05734252929688 C181.74057006835938 183.48895263671875 182.07693481445312 183.9420623779297 182.15065002441406 184.49964904785156 C182.1583251953125 184.55340576171875 182.09689331054688 184.5810546875 182.05389404296875 184.57337951660156 C181.67140197753906 184.5057830810547 181.39492797851562 184.23545837402344 181.10308837890625 183.99737548828125 C180.58546447753906 183.5718994140625 180.0202178955078 183.21092224121094 179.50106811523438 182.79006958007812 C178.67315673828125 182.11883544921875 177.9773406982422 181.07896423339844 177.40902709960938 180.1850128173828 C177.39825439453125 180.16810607910156 177.41822814941406 180.1588897705078 177.41976928710938 180.1435546875 C176.954345703125 179.5706024169922 176.49508666992188 178.99459838867188 175.94827270507812 178.50157165527344 C175.32467651367188 177.93939208984375 174.72409057617188 177.3480224609375 174.07589721679688 176.8150177001953 C173.9207763671875 176.6875457763672 173.48455810546875 176.6337890625 173.41233825683594 176.7274932861328 C173.2095947265625 176.99166870117188 172.9776611328125 177.38026428222656 173.03448486328125 177.6628875732422 C173.15277099609375 178.2404327392578 173.43385314941406 178.78880310058594 173.68267822265625 179.33251953125 C174.09432983398438 180.23724365234375 174.69644165039062 181.03750610351562 175.2232666015625 181.88076782226562 C175.86534118652344 182.6717987060547 176.47360229492188 183.4874267578125 176.99429321289062 184.34910583496094 C177.35525512695312 184.94659423828125 177.72853088378906 185.5441131591797 178.06796264648438 186.15391540527344 C178.26458740234375 186.50717163085938 178.46270751953125 186.88351440429688 178.39205932617188 187.2982177734375 C178.38284301757812 187.35044860839844 178.3198699951172 187.36427307128906 178.27993774414062 187.34429931640625 C177.8068389892578 187.11082458496094 177.42591857910156 186.7590789794922 177.08493041992188 186.3643341064453 C177.069580078125 186.36587524414062 177.06033325195312 186.3597412109375 177.04342651367188 186.3612823486328 C177.04342651367188 186.35818481445312 177.04342651367188 186.3566436767578 177.04342651367188 186.3535919189453 C177.05575561523438 186.35511779785156 177.0664825439453 186.3566436767578 177.07723999023438 186.35818481445312 C176.73165893554688 185.9557647705078 176.42906188964844 185.51031494140625 176.11416625976562 185.09713745117188 C175.70098876953125 184.55340576171875 175.31698608398438 183.9743194580078 174.8853759765625 183.44749450683594 C174.7640380859375 183.29847717285156 174.63499450683594 183.1663818359375 174.51675415039062 183.02508544921875 C174.15731811523438 182.72708129882812 173.7947998046875 182.43679809570312 173.3217315673828 182.39993286132812 C173.11126708984375 182.38302612304688 172.83175659179688 182.46905517578125 172.68582153320312 182.6118927001953 C172.53683471679688 182.7578125 172.40780639648438 183.05734252929688 172.45388793945312 183.2447052001953 C172.56756591796875 183.70553588867188 172.71961975097656 184.1847686767578 172.97457885742188 184.5795135498047 C174.55975341796875 187.03558349609375 176.152587890625 189.48855590820312 177.7945556640625 191.90777587890625 C179.10476684570312 193.8369903564453 180.759033203125 195.4405517578125 182.5868682861328 196.8966827392578 C185.06443786621094 198.8704376220703 187.46212768554688 200.9409942626953 189.90744018554688 202.9546661376953 C190.84747314453125 203.727294921875 191.8120880126953 204.4722442626953 192.7874298095703 205.1987762451172 C193.31890869140625 205.5950469970703 193.91795349121094 205.6380615234375 194.48318481445312 205.2479248046875 C197.02989196777344 203.49073791503906 199.04359436035156 201.22975158691406 200.6563720703125 198.60934448242188 C201.06033325195312 197.95191955566406 201.00352478027344 197.19775390625 200.67941284179688 196.49734497070312 Z"></path>
<path fill="#F29481" fill-opacity="1.0"  filling="0" d="M363.483154296875 254.37689208984375 C362.650634765625 253.32933044433594 361.7843017578125 252.30943298339844 360.921142578125 251.28799438476562 C356.0534973144531 245.53262329101562 350.27044677734375 240.54981994628906 346.324462890625 234.0156707763672 C346.2615051269531 233.9112091064453 346.1831970214844 233.8159942626953 346.10174560546875 233.72689819335938 C345.56414794921875 233.1309356689453 344.99273681640625 232.86520385742188 344.1863708496094 233.31063842773438 C341.8439636230469 234.60702514648438 339.46319580078125 235.83583068847656 337.12384033203125 237.1368408203125 C335.8397521972656 237.85105895996094 335.6231994628906 238.35333251953125 336.2774963378906 239.8371124267578 C337.6783142089844 243.0089569091797 338.2005615234375 246.357421875 338.5569152832031 249.7581329345703 C338.9255676269531 253.28939819335938 339.9071044921875 256.6839599609375 340.9792175292969 260.0508728027344 C341.2326354980469 260.8480529785156 341.6780700683594 261.6007080078125 342.1342468261719 262.310302734375 C342.29095458984375 262.55303955078125 342.75018310546875 262.7081298828125 343.07275390625 262.7127685546875 C343.6195983886719 262.7204284667969 343.8945007324219 262.27655029296875 344.05426025390625 261.798828125 C344.2954406738281 261.0769348144531 344.13568115234375 260.359619140625 344.0127868652344 259.63616943359375 C343.7885437011719 258.3167419433594 343.57965087890625 256.9942321777344 343.41839599609375 255.6656036376953 C343.3661193847656 255.23858642578125 343.18951416015625 254.64569091796875 344.0081787109375 254.54124450683594 C345.27386474609375 255.67788696289062 346.0065002441406 257.1969909667969 346.7591857910156 258.7130126953125 C347.78826904296875 260.78509521484375 348.80975341796875 262.86175537109375 349.9325256347656 264.88311767578125 C350.4578857421875 265.8277587890625 351.1966552734375 266.6572265625 351.87713623046875 267.50970458984375 C352.115234375 267.80767822265625 352.54986572265625 267.912109375 352.85247802734375 267.68017578125 C353.10595703125 267.485107421875 353.343994140625 267.11492919921875 353.3670654296875 266.80621337890625 C353.44842529296875 265.6910400390625 353.0936279296875 264.6527404785156 352.66046142578125 263.63433837890625 C352.1443786621094 262.42401123046875 351.6421203613281 261.20745849609375 351.14752197265625 259.9879150390625 L350.60992431640625 258.0648193359375 C350.59149169921875 257.998779296875 350.31964111328125 257.13092041015625 350.1890563964844 256.64404296875 C350.2013854980469 256.63787841796875 350.2152099609375 256.63482666015625 350.22747802734375 256.628662109375 C350.4747619628906 257.0479736328125 351.03387451171875 257.74224853515625 351.1121826171875 257.8451843261719 C351.7342529296875 258.66845703125 352.4101257324219 259.442626953125 353.09979248046875 260.20294189453125 C353.16583251953125 260.3258056640625 353.2411193847656 260.444091796875 353.3071594238281 260.56695556640625 C354.1396484375 261.7112731933594 354.9905700683594 262.85101318359375 355.9398498535156 263.89703369140625 C356.8721923828125 264.92462158203125 357.72314453125 265.1534423828125 358.0871887207031 264.65582275390625 C358.6278381347656 263.9154357910156 358.3897705078125 263.1750793457031 358.04876708984375 262.48236083984375 C357.37908935546875 261.5223388671875 356.7001647949219 260.5731201171875 356.0289001464844 259.6069641113281 C355.55126953125 258.70379638671875 355.0581970214844 257.80828857421875 354.56976318359375 256.9097595214844 C354.32086181640625 256.22161865234375 354.1181335449219 255.5104522705078 353.9491882324219 254.78546142578125 C355.32080078125 256.4735412597656 356.6940002441406 258.1600341796875 358.0672302246094 259.8481140136719 C358.6846618652344 260.72210693359375 359.30523681640625 261.5899658203125 359.90582275390625 262.4761962890625 C360.44342041015625 262.8341064453125 361.0224609375 262.878662109375 361.34039306640625 262.56072998046875 C361.8211975097656 262.0799255371094 361.8473205566406 261.4901123046875 361.65374755859375 260.87725830078125 C361.2098693847656 259.47027587890625 360.4572448730469 258.2276611328125 359.5755615234375 257.0587463378906 C359.3021240234375 256.6977844238281 359.0272216796875 256.3383483886719 358.75225830078125 255.98045349121094 C358.08868408203125 254.64569091796875 357.36676025390625 253.34622192382812 356.5880432128906 252.07595825195312 C357.4051818847656 252.8562469482422 358.2223205566406 253.63807678222656 359.0379333496094 254.41989135742188 C360.0010681152344 255.3399658203125 361.01171875 256.68548583984375 362.1683349609375 257.35211181640625 C362.7274475097656 257.6746826171875 363.3602600097656 257.67620849609375 363.79345703125 257.177001953125 C363.84564208984375 257.11712646484375 363.87945556640625 257.05718994140625 363.9178161621094 256.99578857421875 C363.9669494628906 256.92816162109375 363.99462890625 256.8575439453125 364.0268859863281 256.7822570800781 C364.05450439453125 256.7100830078125 364.0791320800781 256.639404296875 364.0914001464844 256.56719970703125 C364.1005859375 256.51654052734375 364.1343688964844 256.4735412597656 364.13592529296875 256.42132568359375 C364.1482238769531 255.6625213623047 363.9500732421875 254.96365356445312 363.483154296875 254.37689208984375 Z"></path>
<path fill="#FFCC33" fill-opacity="1.0"  filling="0" d="M298.3721008300781 188.80812072753906 C298.3321533203125 189.28427124023438 298.1893310546875 189.7803955078125 298.2722473144531 190.23504638671875 C298.840576171875 193.35006713867188 299.4749450683594 196.4528045654297 300.0478820800781 199.56625366210938 C300.4073181152344 201.5231170654297 301.15838623046875 203.2465057373047 302.4163818359375 204.8301239013672 C303.5453796386719 206.25245666503906 304.4761657714844 207.84683227539062 305.3685607910156 209.43658447265625 C305.8370666503906 210.2706298828125 306.14117431640625 211.2337188720703 306.3346862792969 212.1768341064453 C306.7079772949219 213.98931884765625 306.2410583496094 214.99693298339844 304.5160827636719 215.6758270263672 C302.139892578125 216.61126708984375 299.7038269042969 217.40383911132812 297.2646179199219 218.1687774658203 C292.5014953613281 219.6602020263672 287.66925048828125 220.94430541992188 282.95831298828125 222.58477783203125 C278.1337585449219 224.26515197753906 273.4259338378906 226.27883911132812 268.65972900390625 228.12973022460938 C265.82269287109375 229.23255920410156 262.9780578613281 230.31698608398438 260.1272277832031 231.38758850097656 C259.21636962890625 231.7301025390625 258.27020263671875 231.97586059570312 257.3562927246094 232.30917358398438 C256.1889343261719 232.73617553710938 255.2120361328125 232.41514587402344 254.32269287109375 231.63487243652344 C248.7946319580078 226.78111267089844 243.95315551757812 221.32830810546875 239.9718475341797 215.132080078125 C239.1116943359375 213.79421997070312 238.4680938720703 212.34423828125 238.20852661132812 210.7498779296875 C238.1317138671875 210.27679443359375 238.04261779785156 209.7960205078125 237.44053649902344 209.57945251464844 C236.66021728515625 209.82058715820312 236.9628143310547 210.55328369140625 236.91366577148438 211.06320190429688 C236.4620819091797 215.80178833007812 235.6879425048828 220.48504638671875 234.651123046875 225.1268310546875 C234.19647216796875 227.1666259765625 233.45306396484375 229.0989227294922 232.34405517578125 230.8668670654297 C230.27354431152344 234.16773986816406 227.41502380371094 235.31051635742188 223.58580017089844 234.53944396972656 C221.49221801757812 234.11705017089844 219.71200561523438 233.1017608642578 218.0377655029297 231.86219787597656 C214.21005249023438 229.0313720703125 210.63577270507812 225.90098571777344 207.130615234375 222.6830596923828 C201.9143524169922 217.89381408691406 197.1711883544922 212.6483612060547 192.38809204101562 207.44287109375 C190.98419189453125 205.91453552246094 190.96575927734375 205.2386932373047 192.3819580078125 203.68582153320312 C194.76275634765625 201.07308959960938 197.19271850585938 198.50489807128906 199.65953063964844 195.97357177734375 C201.18478393554688 194.4083709716797 202.01112365722656 194.31007385253906 203.81439208984375 195.54501342773438 C207.23199462890625 197.88587951660156 210.58815002441406 200.31582641601562 213.97042846679688 202.7073974609375 C214.75071716308594 203.25880432128906 215.531005859375 203.811767578125 216.18995666503906 204.2771759033203 C217.1192169189453 204.0529327392578 216.911865234375 203.46771240234375 216.86119079589844 203.05760192871094 C216.08242797851562 196.76766967773438 215.23455810546875 190.48695373535156 214.4865264892578 184.1939697265625 C213.78150939941406 178.26348876953125 213.07186889648438 172.33145141601562 213.34068298339844 166.33181762695312 C213.47430419921875 163.35812377929688 214.21005249023438 160.5733642578125 215.446533203125 157.88076782226562 C216.8504180908203 154.82254028320312 218.8502960205078 152.28204345703125 221.559814453125 150.27142333984375 C225.00352478027344 147.71551513671875 228.6791534423828 145.603515625 232.658935546875 143.9830322265625 C234.26869201660156 143.3271484375 235.63417053222656 143.39779663085938 237.1624755859375 144.24566650390625 C240.3558349609375 146.01824951171875 243.652099609375 147.60641479492188 246.87461853027344 149.33139038085938 C247.9974365234375 149.93194580078125 248.84837341308594 149.8935546875 249.776123046875 148.9473876953125 C253.02015686035156 145.64035034179688 256.3240966796875 142.3917236328125 259.5988464355469 139.11392211914062 C260.116455078125 138.59625244140625 260.6033630371094 138.04949951171875 261.0979919433594 137.51187133789062 C261.8997802734375 136.63784790039062 262.867431640625 136.38442993164062 264.0563049316406 136.44741821289062 C267.98388671875 136.65475463867188 271.7762451171875 137.51492309570312 275.50872802734375 138.67306518554688 C277.3688049316406 139.2506103515625 279.1859436035156 139.96023559570312 281.0321960449219 140.58230590820312 C289.7427978515625 143.511474609375 296.822265625 148.66781616210938 302.1291809082031 156.17422485351562 C304.37939453125 159.35687255859375 306.48675537109375 162.64083862304688 308.6080017089844 165.9140625 C311.3251953125 170.10733032226562 313.9425048828125 174.36663818359375 316.69195556640625 178.5384063720703 C319.309326171875 182.51205444335938 322.1002197265625 186.36895751953125 325.4072570800781 189.80804443359375 C332.9751281738281 197.67698669433594 338.22052001953125 206.94212341308594 342.00830078125 217.10585021972656 C343.667236328125 221.5571746826172 345.38446044921875 225.988525390625 347.0633239746094 230.4321746826172 C347.2783203125 231.00048828125 347.44268798828125 231.59031677246094 347.60858154296875 232.1770782470703 C347.87274169921875 233.10330200195312 347.5456237792969 233.8574676513672 346.8498229980469 234.45956420898438 C346.4842224121094 234.77598571777344 346.0756530761719 235.05247497558594 345.66400146484375 235.31051635742188 C342.98211669921875 236.99705505371094 340.30950927734375 238.69586181640625 337.6046142578125 240.343994140625 C335.72149658203125 241.4913787841797 334.9212646484375 241.3285675048828 333.6494445800781 239.50534057617188 C331.5588684082031 236.50552368164062 329.6036071777344 233.40896606445312 327.44549560546875 230.45828247070312 C325.5039978027344 227.80563354492188 323.48114013671875 225.1944122314453 321.2938232421875 222.7429656982422 C316.78106689453125 217.68185424804688 313.228271484375 212.0262908935547 310.62939453125 205.7993621826172 C308.0949401855469 199.7290802001953 304.33795166015625 194.55276489257812 299.7606201171875 189.90943908691406 C299.34130859375 189.48550415039062 298.97882080078125 188.96327209472656 298.30145263671875 188.9064178466797 C298.2998962402344 188.9095001220703 298.11407470703125 188.81271362304688 298.11407470703125 188.81271362304688 L298.3721008300781 188.80812072753906 Z"></path>
<path fill="#000000" fill-opacity="1.0"  filling="0" d="M272.56732177734375 210.3443603515625 C272.52581787109375 211.5593719482422 271.44293212890625 212.64376831054688 270.223388671875 212.69139099121094 C268.864013671875 212.74362182617188 267.62445068359375 211.5363006591797 267.6659240722656 210.19692993164062 C267.7073974609375 208.82679748535156 268.95770263671875 207.76234436035156 270.3723449707031 207.8975372314453 C271.6272888183594 208.01734924316406 272.6087646484375 209.1109619140625 272.56732177734375 210.3443603515625 Z"></path>
<path fill="#000000" fill-opacity="1.0"  filling="0" d="M253.41029357910156 162.64541625976562 C253.31968688964844 164.03399658203125 252.0939483642578 165.02313232421875 250.66238403320312 164.86343383789062 C249.385986328125 164.72055053710938 248.4858856201172 163.66537475585938 248.55499267578125 162.39199829101562 C248.63026428222656 160.99267578125 249.83758544921875 160.00967407226562 251.2768096923828 160.17398071289062 C252.51327514648438 160.31533813476562 253.48866271972656 161.44427490234375 253.41029357910156 162.64541625976562 Z"></path>
<path fill="#000000" fill-opacity="1.0"  filling="0" d="M254.54232788085938 175.07167053222656 C255.94009399414062 175.16383361816406 256.90777587890625 176.3849639892578 256.7280578613281 177.82879638671875 C256.5775451660156 179.04376220703125 255.40557861328125 180.03602600097656 254.22900390625 179.94540405273438 C252.84812927246094 179.8394317626953 251.85740661621094 178.57989501953125 252.04019165039062 177.16061401367188 C252.2030029296875 175.88575744628906 253.2781982421875 174.98870849609375 254.54232788085938 175.07167053222656 Z"></path>
<path fill="#000000" fill-opacity="1.0"  filling="0" d="M264.7091369628906 195.5511474609375 C264.6184997558594 196.97964477539062 263.4496154785156 197.92120361328125 261.9996337890625 197.7338104248047 C260.76007080078125 197.57406616210938 259.8952941894531 196.4958038330078 259.97515869140625 195.2086181640625 C260.05352783203125 193.9475860595703 261.074951171875 192.98448181152344 262.33599853515625 192.9814453125 C263.7537536621094 192.97988891601562 264.80126953125 194.1134796142578 264.7091369628906 195.5511474609375 Z"></path>
<path fill="#000000" fill-opacity="1.0"  filling="0" d="M231.98309326171875 144.60818481445312 C232.00921630859375 144.36856079101562 231.97695922851562 144.1043701171875 232.06912231445312 143.8939208984375 C232.60519409179688 142.66973876953125 233.12896728515625 141.4378662109375 233.7402801513672 140.25054931640625 C234.0950927734375 139.56088256835938 235.16262817382812 139.6668701171875 235.52359008789062 140.370361328125 C235.57887268066406 140.47787475585938 235.6879425048828 140.5792236328125 235.69561767578125 140.68829345703125 C235.8384552001953 142.96926879882812 237.45433044433594 144.03372192382812 239.23147583007812 144.93380737304688 C241.51397705078125 146.08889770507812 243.83334350585938 147.1717529296875 246.11122131347656 148.33761596679688 C247.22483825683594 148.90744018554688 248.12954711914062 148.87368774414062 249.0664825439453 147.94744873046875 C252.4487762451172 144.60357666015625 255.86483764648438 141.29653930664062 259.2947082519531 138.00186157226562 C260.1272277832031 137.20159912109375 260.5127868652344 136.24005126953125 260.8199768066406 135.15716552734375 C261.1194763183594 134.10040283203125 261.7200622558594 133.87307739257812 262.79376220703125 134.3184814453125 C267.145263671875 136.12484741210938 268.09600830078125 136.03424072265625 264.6138610839844 140.43792724609375 C261.89208984375 143.88168334960938 259.30548095703125 147.42825317382812 257.00299072265625 151.174560546875 C256.4945983886719 152.00247192382812 255.9093780517578 152.7919921875 255.2842254638672 153.53695678710938 C254.656005859375 154.28497314453125 253.88800048828125 154.38021850585938 253.00018310546875 153.85336303710938 C251.8497314453125 153.16986083984375 250.7468719482422 152.40798950195312 249.60256958007812 151.71527099609375 C248.995849609375 151.34814453125 248.38604736328125 151.51559448242188 247.9698028564453 152.033203125 C247.1326904296875 153.07919311523438 246.38157653808594 154.19284057617188 245.5521240234375 155.2449951171875 C245.01760864257812 155.92388916015625 244.3171844482422 155.9515380859375 243.60140991210938 155.51992797851562 C243.18515014648438 155.26956176757812 242.75662231445312 155.02069091796875 242.39566040039062 154.70123291015625 C239.20384216308594 151.870361328125 236.02430725097656 149.02572631835938 232.84786987304688 146.17642211914062 C232.3824462890625 145.76174926757812 232.0783233642578 145.23638916015625 231.98309326171875 144.60818481445312 Z"></path></svg>