<svg xmlns="http://www.w3.org/2000/svg" viewBox="0.0 0.0 256.0 256.0" height="256.0px" width="256.0px"><path fill="#000000" fill-opacity="1.0"  filling="0" d="M157.67782592773438 192.19888305664062 C157.75770568847656 193.55978393554688 157.3153076171875 194.6610870361328 156.30616760253906 195.6318359375 C155.12115478515625 196.77078247070312 154.0298309326172 197.99880981445312 152.67506408691406 198.96035766601562 C151.6267547607422 199.7045440673828 150.80038452148438 200.69833374023438 149.9793701171875 201.68292236328125 C149.42526245117188 202.34686279296875 148.8223876953125 202.94857788085938 148.1613311767578 203.47705078125 C147.50027465820312 204.0055389404297 146.7810516357422 204.46075439453125 145.99423217773438 204.83169555664062 C145.38063049316406 205.12124633789062 144.75543212890625 205.3224639892578 144.06887817382812 205.34857177734375 C143.00634765625 205.38812255859375 142.1212158203125 204.98358154296875 141.556640625 204.306396484375 C140.9920654296875 203.62921142578125 140.74803161621094 202.6793975830078 140.96768188476562 201.62838745117188 C141.12127685546875 200.8949432373047 141.46226501464844 200.2544403076172 141.8754425048828 199.647705078125 C142.40689086914062 198.8666534423828 142.9385528564453 198.0859832763672 143.47288513183594 197.30712890625 C144.00723266601562 196.52828979492188 144.54425048828125 195.7512664794922 145.08645629882812 194.97750854492188 C145.85906982421875 193.87542724609375 146.59559631347656 192.76412963867188 146.95423889160156 191.44241333007812 C147.04872131347656 191.0952606201172 147.21841430664062 190.75811767578125 147.4081268310547 190.44937133789062 C147.72378540039062 189.93405151367188 148.1753387451172 189.6913604736328 148.8020477294922 189.8741455078125 C149.80889892578125 190.16790771484375 150.69786071777344 190.11856079101562 151.49935913085938 189.8116455078125 C152.30087280273438 189.50473022460938 153.01492309570312 188.94024658203125 153.67193603515625 188.2037353515625 C154.629638671875 187.12930297851562 155.4237518310547 187.10165405273438 156.3944854736328 188.11465454101562 C157.1901397705078 188.9448699951172 157.49351501464844 189.99317932128906 157.61483764648438 191.10523986816406 C157.6524658203125 191.46697998046875 157.65708923339844 191.83331298828125 157.67782592773438 192.19888305664062"></path>
<path fill="#000000" fill-opacity="1.0"  filling="0" d="M130.1158447265625 180.69346618652344 C130.08128356933594 181.7202911376953 129.7425994873047 182.519775390625 128.95846557617188 183.12571716308594 C127.7972412109375 184.02276611328125 126.55999755859375 184.80458068847656 125.2021713256836 185.34140014648438 C124.23564147949219 185.723876953125 123.30540466308594 186.1693115234375 122.39801025390625 186.6566162109375 C121.49061584472656 187.14390563964844 120.6060791015625 187.67306518554688 119.73094177246094 188.2229461669922 C118.95909881591797 188.70755004882812 118.18189239501953 189.18370056152344 117.40006256103516 189.65142822265625 C117.08748626708984 189.83804321289062 116.76493072509766 190.01467895507812 116.4300765991211 190.1536865234375 C114.98394012451172 190.7542724609375 113.74668884277344 190.57994079589844 112.8880615234375 189.67446899414062 C111.72146606445312 188.44412231445312 111.46571350097656 186.92579650878906 112.2060775756836 185.48272705078125 C112.74214172363281 184.4390106201172 113.51013946533203 183.58038330078125 114.42790222167969 182.85768127441406 C115.43091583251953 182.0681915283203 116.43621826171875 181.28176879882812 117.45765686035156 180.51683044433594 C118.73101043701172 179.56373596191406 119.92754364013672 178.5346221923828 120.75776672363281 177.15530395507812 C121.20549774169922 176.41110229492188 121.82451629638672 176.17227172851562 122.61094665527344 176.44644165039062 C124.11161041259766 176.97019958496094 125.44947052001953 176.72291564941406 126.75277709960938 175.82589721679688 C127.47468566894531 175.32899475097656 128.12672424316406 175.47567749023438 128.44851684570312 176.16763305664062 C129.03680419921875 177.43023681640625 129.53138732910156 178.73736572265625 130.0421142578125 180.03453063964844 C130.1273651123047 180.2526397705078 130.09817504882812 180.51528930664062 130.1158447265625 180.69346618652344"></path>
<path fill="#292D86" fill-opacity="1.0"  filling="0" d="M162.05697631835938 129.255126953125 C161.63841247558594 130.76425170898438 161.1161651611328 132.22537231445312 160.49984741210938 133.64520263671875 C159.88351440429688 135.06504821777344 159.17312622070312 136.443603515625 158.37823486328125 137.78759765625 C157.7196807861328 138.9011993408203 157.06112670898438 140.01528930664062 156.40220642089844 141.12948608398438 C155.7432861328125 142.24368286132812 155.08399963378906 143.35801696777344 154.42401123046875 144.4720916748047 C153.76400756835938 145.586181640625 153.10328674316406 146.70001220703125 152.4414825439453 147.81326293945312 C151.77967834472656 148.92649841308594 151.11679077148438 150.0391387939453 150.4524688720703 151.15081787109375 C149.7689666748047 152.30282592773438 149.1776123046875 153.4932098388672 148.67071533203125 154.73736572265625 C148.05630493164062 156.227294921875 148.0409698486328 157.67112731933594 148.5401611328125 159.18408203125 C148.91392517089844 160.3207244873047 149.27061462402344 161.4633331298828 149.62901306152344 162.6056671142578 C149.98741149902344 163.74798583984375 150.34751892089844 164.89004516601562 150.7281036376953 166.02554321289062 C151.1086883544922 167.16104125976562 151.509765625 168.29000854492188 151.9500732421875 169.4061737060547 C152.3609619140625 170.45449829101562 152.7718505859375 171.50282287597656 153.17697143554688 172.55401611328125 C153.58209228515625 173.605224609375 153.9814453125 174.6593017578125 154.36927795410156 175.71913146972656 C154.703369140625 176.633056640625 155.0259246826172 177.55081176757812 155.33984375 178.472412109375 C155.6537628173828 179.39401245117188 155.95904541015625 180.3194580078125 156.25856018066406 181.2487335205078 C156.71934509277344 182.70025634765625 157.1417694091797 184.15945434570312 157.75616455078125 185.5572052001953 C157.90208435058594 185.887451171875 158.03265380859375 186.24072265625 158.12481689453125 186.58633422851562 C158.42431640625 187.67689514160156 158.13247680664062 188.3680877685547 157.06497192382812 188.77513122558594 C156.70399475097656 188.9133758544922 156.35072326660156 189.0439453125 155.98976135253906 189.16680908203125 C155.6748809814453 189.28201293945312 155.36769104003906 189.3895263671875 155.0528106689453 189.4893798828125 C154.2003173828125 189.78121948242188 153.34783935546875 190.03465270996094 152.47999572753906 190.26504516601562 C152.11903381347656 190.36489868164062 151.75808715820312 190.45706176757812 151.39712524414062 190.5338592529297 C151.25119018554688 190.572265625 151.10528564453125 190.61065673828125 150.9593505859375 190.64137268066406 C150.32960510253906 190.77960205078125 149.69984436035156 190.91786193847656 149.07008361816406 191.03305053710938 C148.66302490234375 191.11752319335938 148.25599670410156 191.1943359375 147.84896850585938 191.26345825195312 C147.44961547851562 191.33258056640625 147.05792236328125 191.4016876220703 146.6585693359375 191.4554443359375 C145.5142364501953 191.61672973632812 145.31455993652344 191.4324188232422 144.91519165039062 190.32650756835938 C144.7078399658203 189.7581787109375 144.54656982421875 189.16680908203125 144.3699188232422 188.5831298828125 C143.88992309570312 186.99337768554688 143.3868865966797 185.41177368164062 142.8653564453125 183.83677673339844 C142.34384155273438 182.26177978515625 141.8038330078125 180.69337463378906 141.2499237060547 179.1300048828125 C140.6959991455078 177.566650390625 140.12815856933594 176.00833129882812 139.55096435546875 174.4534912109375 C138.9737548828125 172.89865112304688 138.38720703125 171.3472900390625 137.79583740234375 169.7978515625 C137.33888244628906 168.59976196289062 136.81472778320312 167.434326171875 136.26559448242188 166.28041076660156 C135.7164764404297 165.12649536132812 135.14239501953125 163.98410034179688 134.5856170654297 162.83209228515625 C134.1747283935547 161.97193908691406 133.83680725097656 161.09449768066406 133.56704711914062 160.19593811035156 C133.29727172851562 159.29737854003906 133.09567260742188 158.377685546875 132.9574432373047 157.43304443359375 C132.82687377929688 156.54217529296875 132.79808044433594 155.66281127929688 132.84991455078125 154.7882537841797 C132.90176391601562 153.9136962890625 133.03424072265625 153.04393005371094 133.22622680664062 152.17225646972656 C133.4899139404297 150.9818572998047 133.77578735351562 149.79827880859375 134.08612060546875 148.62181091308594 C134.39645385742188 147.44534301757812 134.73123168945312 146.2760009765625 135.09275817871094 145.11404418945312 C135.45428466796875 143.95208740234375 135.84255981445312 142.7975311279297 136.2598419189453 141.65065002441406 C136.38272094726562 141.32041931152344 136.47486877441406 140.97482299804688 136.65919494628906 140.39112854003906 C136.28286743164062 140.59849548339844 136.1446533203125 140.63690185546875 136.07553100585938 140.72137451171875 C135.10784912109375 141.86953735351562 134.071044921875 142.94281005859375 132.9929656982422 143.97288513183594 C131.91488647460938 145.0029754638672 130.7955322265625 145.98985290527344 129.6627197265625 146.9652099609375 C128.64895629882812 147.84841918945312 127.7580795288086 148.83912658691406 127.00543975830078 149.9680938720703 C126.48704528808594 150.736083984375 126.12608337402344 151.53672790527344 125.93408203125 152.37481689453125 C125.74208068847656 153.212890625 125.71903991699219 154.08840942382812 125.8764877319336 155.00616455078125 C126.02240753173828 155.84329223632812 126.1375961303711 156.68809509277344 126.30656433105469 157.52520751953125 C126.57728576660156 158.8519287109375 126.84896087646484 160.17864990234375 127.1212387084961 161.50537109375 C127.39351654052734 162.83209228515625 127.66639709472656 164.1588134765625 127.93951416015625 165.48553466796875 C128.21263122558594 166.812255859375 128.48599243164062 168.13897705078125 128.7592315673828 169.4656982421875 C129.032470703125 170.79241943359375 129.30560302734375 172.119140625 129.57823181152344 173.44586181640625 C129.70880126953125 174.10633850097656 129.8316650390625 174.76681518554688 129.90847778320312 175.4272918701172 C129.9929656982422 176.11080932617188 129.7855987548828 176.4794464111328 129.1865692138672 176.74826049804688 C129.00991821289062 176.82505798339844 128.8179168701172 176.90185546875 128.6335906982422 176.96328735351562 C128.47232055664062 177.01705932617188 128.31103515625 177.06312561035156 128.14976501464844 177.10153198242188 C127.9347152709961 177.15530395507812 127.72735595703125 177.2013702392578 127.5123291015625 177.255126953125 C126.72128295898438 177.439453125 125.92256164550781 177.6160888671875 125.12384033203125 177.78504943847656 C124.75519561767578 177.8618621826172 124.38656616210938 177.93865966796875 124.0179214477539 178.00778198242188 C123.18848419189453 178.16905212402344 122.35135650634766 178.31497192382812 121.50656127929688 178.4378662109375 C121.45280456542969 178.44552612304688 121.39904022216797 178.45321655273438 121.34528350830078 178.4608917236328 C121.16864013671875 178.4839324951172 120.98432922363281 178.50697326660156 120.80000305175781 178.5146484375 C120.63871765136719 178.5223388671875 120.50048065185547 178.53001403808594 120.36223602294922 178.53001403808594 C119.11040496826172 178.53001403808594 118.74176788330078 178.1536865234375 118.41151428222656 176.70985412597656 C118.15423583984375 175.58090209960938 117.83935546875 174.46920776367188 117.50624084472656 173.36329650878906 C117.1731185913086 172.2573699951172 116.82176208496094 171.15721130371094 116.49151611328125 170.05130004882812 C116.0691146850586 168.63626098632812 115.62944030761719 167.22650146484375 115.18927764892578 165.8170928955078 C114.7491226196289 164.40768432617188 114.30847930908203 162.99864196777344 113.88416290283203 161.58505249023438 C113.4598388671875 160.17144775390625 113.05184173583984 158.75328063964844 112.67696380615234 157.3256378173828 C112.30208587646484 155.89801025390625 111.9603271484375 154.46087646484375 111.66848754882812 153.00936889648438 C111.46112823486328 151.96104431152344 111.31712341308594 150.90887451171875 111.26048278808594 149.85000610351562 C111.20384216308594 148.79112243652344 111.23455810546875 147.72552490234375 111.37664031982422 146.65032958984375 C111.49568176269531 145.755615234375 111.69151306152344 144.89736938476562 111.97760009765625 144.07273864746094 C112.263671875 143.2480926513672 112.63999938964844 142.45706176757812 113.1199951171875 141.6967315673828 C113.91104125976562 140.4564208984375 114.78079986572266 139.28329467773438 115.72351837158203 138.17161560058594 C116.6662368774414 137.0599365234375 117.68191528320312 136.00970458984375 118.76480102539062 135.01513671875 C119.57119750976562 134.27401733398438 120.36608123779297 133.5194549560547 121.1580810546875 132.76104736328125 C121.95008087158203 132.00265502929688 122.73920440673828 131.24041748046875 123.5340805053711 130.4839324951172 C124.7321548461914 129.3472900390625 125.79967498779297 128.0877685546875 126.7904052734375 126.78216552734375 C127.49696350097656 125.85672760009766 128.0307159423828 124.8698501586914 128.39071655273438 123.8224868774414 C128.75071716308594 122.77513122558594 128.93695068359375 121.66728973388672 128.948486328125 120.49993133544922 C128.96383666992188 119.21736907958984 128.8563232421875 117.94249725341797 128.65664672851562 116.67528533935547 C128.5568084716797 115.99177551269531 128.78720092773438 115.4925765991211 129.4323272705078 115.20073699951172 C130.43072509765625 114.74760437011719 131.4060821533203 114.24073791503906 132.4198455810547 113.82601165771484 C133.70240783691406 113.30184936523438 134.98593139648438 112.78105163574219 136.2718505859375 112.2672119140625 C137.55776977539062 111.75337219238281 138.84608459472656 111.24649047851562 140.13824462890625 110.75017547607422 C141.43040466308594 110.25385284423828 142.72640991210938 109.7680892944336 144.02769470214844 109.29649353027344 C145.3289794921875 108.82489013671875 146.63552856445312 108.36744689941406 147.94882202148438 107.92777252197266 C149.10081481933594 107.53608703613281 150.22976684570312 107.07528686523438 151.37408447265625 106.66057586669922 C152.1881561279297 106.36873626708984 152.84097290039062 106.51465606689453 153.53216552734375 107.1290512084961 C154.51519775390625 108.00457000732422 155.45791625976562 108.91081237792969 156.34207153320312 109.87081146240234 C157.2262420654297 110.830810546875 158.05184936523438 111.84457397460938 158.8006591796875 112.93512725830078 C159.56610107421875 114.05128479003906 160.20864868164062 115.20925903320312 160.7388458251953 116.40592193603516 C161.26904296875 117.60258483886719 161.6868896484375 118.83792114257812 162.00291442871094 120.10881805419922 C162.31893920898438 121.37971496582031 162.53311157226562 122.68617248535156 162.656005859375 124.0250473022461 C162.740478515625 124.91593170166016 162.7097625732422 125.79529571533203 162.59840393066406 126.666015625 C162.48704528808594 127.53673553466797 162.2950439453125 128.3988037109375 162.05697631835938 129.255126953125"></path>
<path fill="#000000" fill-opacity="1.0"  filling="0" d="M148.1031494140625 148.585693359375 C147.39659118652344 149.9322509765625 146.85984802246094 151.30101013183594 146.49490356445312 152.693359375 C146.12997436523438 154.08572387695312 145.93682861328125 155.50167846679688 145.91749572753906 156.9426727294922 C145.8981475830078 158.3836669921875 146.0526123046875 159.8496856689453 146.38284301757812 161.3421630859375 C146.6465301513672 162.53512573242188 146.92727661132812 163.7212677001953 147.23133850097656 164.89971923828125 C147.53541564941406 166.07818603515625 147.86282348632812 167.24896240234375 148.2198028564453 168.41119384765625 C148.5767822265625 169.5734405517578 148.96334838867188 170.72714233398438 149.3857421875 171.8714599609375 C149.8030242919922 172.99530029296875 150.21603393554688 174.120849609375 150.6284637451172 175.24639892578125 C151.04090881347656 176.3719482421875 151.45278930664062 177.4974822998047 151.86778259277344 178.62132263183594 C152.2827911376953 179.7451629638672 152.700927734375 180.8673095703125 153.12588500976562 181.98602294921875 C153.50604248046875 182.98057556152344 153.91500854492188 183.96360778808594 154.32972717285156 184.94473266601562 C154.74444580078125 185.92584228515625 155.16493225097656 186.90505981445312 155.56813049316406 187.89193725585938 C155.73709106445312 188.30665588378906 155.8753204345703 188.73672485351562 155.99053955078125 189.16680908203125 C155.6756591796875 189.28201293945312 155.36843872070312 189.3895263671875 155.05357360839844 189.4893798828125 C154.93069458007812 189.2436065673828 154.8154754638672 188.99786376953125 154.70797729492188 188.74441528320312 C154.1063690185547 187.39016723632812 153.52951049804688 186.02569580078125 152.9722900390625 184.6532440185547 C152.41506958007812 183.28079223632812 151.87745666503906 181.900390625 151.3543701171875 180.51429748535156 C150.83126831054688 179.12820434570312 150.3226776123047 177.73641967773438 149.82347106933594 176.34121704101562 C149.4292449951172 175.2327423095703 149.01963806152344 174.12937927246094 148.61544799804688 173.02403259277344 C148.2112579345703 171.91867065429688 147.81246948242188 170.81134033203125 147.43984985351562 169.69488525390625 C147.06723022460938 168.57843017578125 146.72076416015625 167.452880859375 146.42124938964844 166.31112670898438 C146.1370849609375 165.22056579589844 145.86253356933594 164.1300048828125 145.61581420898438 163.03273010253906 C145.36907958984375 161.93545532226562 145.15020751953125 160.83145141601562 144.97740173339844 159.71401977539062 C144.79307556152344 158.5082550048828 144.74017333984375 157.32469177246094 144.80445861816406 156.15988159179688 C144.86874389648438 154.99508666992188 145.0502166748047 153.84906005859375 145.3346710205078 152.7183837890625 C145.61911010742188 151.5877227783203 146.00653076171875 150.472412109375 146.48269653320312 149.36904907226562 C146.8705291748047 148.47048950195312 147.32171630859375 147.60841369628906 147.80076599121094 146.76168823242188 C148.27980041503906 145.91497802734375 148.78668212890625 145.0836181640625 149.285888671875 144.24649047851562 C149.89260864257812 143.2250518798828 150.50698852539062 142.20745849609375 151.1146697998047 141.18600463867188 C151.72235107421875 140.16456604003906 152.32330322265625 139.1392822265625 152.9031524658203 138.1024932861328 C153.52523803710938 136.99656677246094 154.08587646484375 135.86846923828125 154.5768280029297 134.71533203125 C155.06777954101562 133.56219482421875 155.48904418945312 132.384033203125 155.83238220214844 131.177978515625 C156.1757049560547 129.97193908691406 156.4410858154297 128.73800659179688 156.6202850341797 127.47337341308594 C156.81997680664062 126.0064926147461 156.88909912109375 124.55496978759766 156.75083923339844 123.10344696044922 C156.643310546875 121.95144653320312 156.44366455078125 120.80713653564453 156.27468872070312 119.66281127929688 C156.05581665039062 118.19209289550781 155.67373657226562 116.78472900390625 155.1543731689453 115.42921447753906 C154.635009765625 114.07369232177734 153.97836303710938 112.77001953125 153.21035766601562 111.50666046142578 C152.98765563964844 111.14569854736328 152.7649383544922 110.77704620361328 152.58062744140625 110.39305114746094 C152.4730987548828 110.17032623291016 152.49612426757812 109.9168930053711 152.7342071533203 109.74793243408203 C152.96463012695312 109.57897186279297 153.2026824951172 109.59432220458984 153.3793182373047 109.80169677734375 C153.61740112304688 110.07049560546875 153.8247833251953 110.37001037597656 154.02444458007812 110.67720794677734 C154.63885498046875 111.6525650024414 155.18072509765625 112.65523529052734 155.6469268798828 113.68577575683594 C156.11312866210938 114.71632385253906 156.503662109375 115.77473449707031 156.81541442871094 116.86160278320312 C157.12716674804688 117.9484634399414 157.360107421875 119.06376647949219 157.5111541748047 120.20809173583984 C157.70315551757812 121.7210464477539 158.02574157714844 123.2186508178711 157.94894409179688 124.75465393066406 C157.9259033203125 126.04104614257812 157.80300903320312 127.31208801269531 157.5879669189453 128.56776428222656 C157.3729248046875 129.8234405517578 157.06573486328125 131.0637664794922 156.67404174804688 132.28872680664062 C156.305419921875 133.45225524902344 155.87533569335938 134.59274291992188 155.38381958007812 135.70632934570312 C154.89230346679688 136.81993103027344 154.33934020996094 137.90664672851562 153.72494506835938 138.962646484375 C153.19117736816406 139.88424682617188 152.64781188964844 140.802001953125 152.10348510742188 141.71881103515625 C151.5591583251953 142.63560485839844 151.01388549804688 143.55145263671875 150.47628784179688 144.46920776367188 C149.67681884765625 145.83627319335938 148.83969116210938 147.18792724609375 148.1031494140625 148.585693359375"></path>
<path fill="#000000" fill-opacity="1.0"  filling="0" d="M152.48077392578125 190.26504516601562 C152.11981201171875 190.36489868164062 151.75885009765625 190.45706176757812 151.39788818359375 190.5338592529297 C150.87411499023438 189.06390380859375 150.3515625 187.59364318847656 149.82969665527344 186.12319946289062 C149.30783081054688 184.6527557373047 148.78662109375 183.18212890625 148.2655487060547 181.71144104003906 C147.74447631835938 180.24075317382812 147.22352600097656 178.77000427246094 146.7021484375 177.29931640625 C146.18075561523438 175.82862854003906 145.65895080566406 174.35800170898438 145.1361541748047 172.88755798339844 C144.61337280273438 171.4171142578125 144.089599609375 169.94683837890625 143.5642852783203 168.47689819335938 C143.1162872314453 167.2250518798828 142.73228454589844 165.96041870117188 142.4105682373047 164.68325805664062 C142.0888671875 163.40609741210938 141.82945251464844 162.11642456054688 141.63063049316406 160.8145294189453 C141.4318084716797 159.51263427734375 141.29356384277344 158.198486328125 141.21420288085938 156.87242126464844 C141.12973022460938 155.40939331054688 141.23533630371094 153.98666381835938 141.5271759033203 152.6023406982422 C141.81903076171875 151.218017578125 142.29710388183594 149.87210083007812 142.95758056640625 148.56265258789062 C143.52206420898438 147.4490509033203 144.078857421875 146.33160400390625 144.63661193847656 145.2151336669922 C145.1943817138672 144.09866333007812 145.7530975341797 142.98313903808594 146.3214111328125 141.87338256835938 C146.951171875 140.64764404296875 147.4949188232422 139.40440368652344 147.961181640625 138.1453857421875 C148.4274444580078 136.8863525390625 148.8162384033203 135.6115264892578 149.13609313964844 134.32264709472656 C149.45594787597656 133.03375244140625 149.70687866210938 131.73080444335938 149.89739990234375 130.41549682617188 C150.08792114257812 129.10018920898438 150.2180633544922 127.77252960205078 150.29632568359375 126.43424224853516 C150.37460327148438 125.09595489501953 150.40103149414062 123.74703979492188 150.38412475585938 122.38920593261719 C150.36875915527344 121.24745178222656 150.3039093017578 120.11166381835938 150.18899536132812 118.98270416259766 C150.07408142089844 117.85374450683594 149.9091033935547 116.73161315917969 149.69349670410156 115.6171646118164 C149.47787475585938 114.50271606445312 149.21163940429688 113.39593505859375 148.89419555664062 112.29769897460938 C148.82508850097656 112.0672836303711 148.81741333007812 111.81385803222656 148.81741333007812 111.57577514648438 C148.81741333007812 111.36841583251953 148.9786834716797 111.23016357421875 149.1553192138672 111.21481323242188 C149.31661987304688 111.19944763183594 149.57005310058594 111.24552917480469 149.6314697265625 111.34536743164062 C149.83883666992188 111.7140121459961 150.03085327148438 112.09800720214844 150.13836669921875 112.50505065917969 C150.40716552734375 113.53800964355469 150.64907836914062 114.57672882080078 150.84877014160156 115.62313079833984 C151.04844665527344 116.6695327758789 151.20590209960938 117.72361755371094 151.3057403564453 118.78729248046875 C151.45166015625 120.42313385009766 151.49005126953125 122.066650390625 151.5514678955078 123.2186508178711 C151.51820373535156 124.89545440673828 151.4345703125 126.50825500488281 151.28781127929688 128.07411193847656 C151.1410369873047 129.63998413085938 150.93112182617188 131.15892028808594 150.64524841308594 132.6479949951172 C150.359375 134.13705444335938 149.99755859375 135.59625244140625 149.5469970703125 137.04266357421875 C149.27052307128906 137.92201232910156 148.94989013671875 138.7783203125 148.59756469726562 139.6202392578125 C148.2452392578125 140.462158203125 147.86123657226562 141.28968811035156 147.4580535888672 142.1114501953125 C146.93582153320312 143.17514038085938 146.4174041748047 144.24264526367188 145.88844299316406 145.30633544921875 C145.35946655273438 146.37001037597656 144.8199462890625 147.4298553466797 144.25546264648438 148.47817993164062 C143.46827697753906 149.9488983154297 142.9364471435547 151.4580078125 142.63787841796875 153.01417541503906 C142.33932495117188 154.57034301757812 142.2740478515625 156.1735382080078 142.4199676513672 157.83242797851562 C142.52236938476562 158.99465942382812 142.6674346923828 160.1449432373047 142.85885620117188 161.2838592529297 C143.05029296875 162.4227752685547 143.2880859375 163.55032348632812 143.57594299316406 164.66705322265625 C143.86380004882812 165.78378295898438 144.20172119140625 166.88970947265625 144.59341430664062 167.98538208007812 C145.04193115234375 169.2479705810547 145.49166870117188 170.51025390625 145.94219970703125 171.77235412597656 C146.39273071289062 173.03445434570312 146.8440704345703 174.29637145996094 147.2957763671875 175.5582275390625 C147.7474822998047 176.82008361816406 148.19956970214844 178.0818634033203 148.65158081054688 179.34371948242188 C149.1035919189453 180.60557556152344 149.5555419921875 181.86749267578125 150.0070037841797 183.1295928955078 C150.45846557617188 184.39169311523438 150.909423828125 185.65399169921875 151.35946655273438 186.9165802001953 C151.75115966796875 188.02249145507812 152.11903381347656 189.14378356933594 152.48077392578125 190.26504516601562"></path>
<path fill="#000000" fill-opacity="1.0"  filling="0" d="M149.0708465576172 191.03305053710938 C148.663818359375 191.11752319335938 148.25677490234375 191.1943359375 147.8497314453125 191.26345825195312 C147.51947021484375 190.18826293945312 147.20462036132812 189.09768676757812 146.8129425048828 188.0455322265625 C146.2983856201172 186.6769561767578 145.7825927734375 185.30899047851562 145.2659454345703 183.94146728515625 C144.74929809570312 182.5739288330078 144.23178100585938 181.2068328857422 143.71377563476562 179.8399658203125 C143.19577026367188 178.47311401367188 142.67727661132812 177.10650634765625 142.15866088867188 175.73995971679688 C141.64004516601562 174.3734130859375 141.12130737304688 173.00692749023438 140.60281372070312 171.64031982421875 C140.08432006835938 170.27371215820312 139.56607055664062 168.906982421875 139.04843139648438 167.53993225097656 C138.48779296875 166.0576934814453 137.9425048828125 164.5716094970703 137.44908142089844 163.06825256347656 C136.9556427001953 161.5648956298828 136.5140380859375 160.04425048828125 136.16078186035156 158.49288940429688 C135.899658203125 157.3562469482422 135.73751831054688 156.227294921875 135.67579650878906 155.10316467285156 C135.61407470703125 153.97903442382812 135.6527557373047 152.85975646972656 135.79327392578125 151.74244689941406 C135.9337921142578 150.62515258789062 136.17613220214844 149.5098419189453 136.521728515625 148.3936767578125 C136.8826904296875 147.226318359375 137.2935791015625 146.08201599121094 137.74093627929688 144.95208740234375 C138.18829345703125 143.82217407226562 138.672119140625 142.7066650390625 139.1790008544922 141.59689331054688 C139.74732971191406 140.35784912109375 140.2960205078125 139.1111297607422 140.8091583251953 137.8516082763672 C141.32229614257812 136.59210205078125 141.7998809814453 135.3197784423828 142.22598266601562 134.029541015625 C142.65206909179688 132.73928833007812 143.0266876220703 131.43112182617188 143.33389282226562 130.0999298095703 C143.64492797851562 128.7501678466797 143.89500427246094 127.39704895019531 144.08041381835938 126.04093170166016 C144.26580810546875 124.684814453125 144.38653564453125 123.32569122314453 144.43885803222656 121.96393585205078 C144.49118041992188 120.6021728515625 144.47509765625 119.2377700805664 144.3868865966797 117.87109375 C144.29869079589844 116.50440979003906 144.13836669921875 115.13545227050781 143.90220642089844 113.76457214355469 C143.8638153076172 113.52649688720703 143.79469299316406 113.2807388305664 143.82540893554688 113.05032348632812 C143.8484344482422 112.9120864868164 144.0174102783203 112.75849151611328 144.15565490722656 112.68170166015625 C144.3246307373047 112.58952331542969 144.51663208007812 112.65097045898438 144.64715576171875 112.79689025878906 C144.93899536132812 113.13481903076172 145.00811767578125 113.55720520019531 145.09262084960938 113.97960662841797 C145.29995727539062 115.00105285644531 145.40939331054688 116.0301742553711 145.46987915039062 117.06217193603516 C145.53036499023438 118.09417724609375 145.54188537597656 119.1290512084961 145.55340576171875 120.1620101928711 C145.57644653320312 121.61544799804688 145.521728515625 123.05401611328125 145.39334106445312 124.4784164428711 C145.2649383544922 125.90281677246094 145.0628662109375 127.31305694580078 144.7911834716797 128.70985412597656 C144.51950073242188 130.10665893554688 144.17822265625 131.49000549316406 143.77142333984375 132.8606414794922 C143.3646240234375 134.23129272460938 142.89230346679688 135.58920288085938 142.35853576660156 136.93511962890625 C141.955322265625 137.95272827148438 141.531005859375 138.962646484375 141.0970916748047 139.96969604492188 C140.66317749023438 140.97674560546875 140.2196502685547 141.98089599609375 139.77804565429688 142.98696899414062 C139.3594970703125 143.93545532226562 138.96205139160156 144.8896942138672 138.59341430664062 145.8544921875 C138.22476196289062 146.8192901611328 137.88491821289062 147.79464721679688 137.58157348632812 148.78536987304688 C137.10540771484375 150.33673095703125 136.83853149414062 151.8900146484375 136.78189086914062 153.45193481445312 C136.72525024414062 155.01385498046875 136.87884521484375 156.5844268798828 137.24365234375 158.17034912109375 C137.57388305664062 159.59881591796875 137.97325134277344 161.00425720214844 138.41964721679688 162.3943328857422 C138.86605834960938 163.78440856933594 139.3594970703125 165.15911865234375 139.87789916992188 166.5261688232422 C140.40780639648438 167.927001953125 140.9380340576172 169.3278350830078 141.4683837890625 170.72872924804688 C141.9987335205078 172.12962341308594 142.52920532226562 173.53057861328125 143.0596160888672 174.93165588378906 C143.59002685546875 176.33273315429688 144.12039184570312 177.73394775390625 144.65049743652344 179.1353302001953 C145.18060302734375 180.53671264648438 145.71046447753906 181.9382781982422 146.23988342285156 183.34010314941406 C146.76931762695312 184.74191284179688 147.29830932617188 186.14398193359375 147.82669067382812 187.5463409423828 C148.25677490234375 188.70602416992188 148.66302490234375 189.86569213867188 149.0708465576172 191.03305053710938"></path>
<path fill="#000000" fill-opacity="1.0"  filling="0" d="M133.80299377441406 115.90728759765625 C133.75436401367188 117.4996109008789 133.61270141601562 119.03816986083984 133.35272216796875 120.52581024169922 C133.09274291992188 122.01345825195312 132.7144317626953 123.45018768310547 132.19248962402344 124.8388442993164 C131.6705322265625 126.22750091552734 131.00494384765625 127.56808471679688 130.17037963867188 128.8634490966797 C129.5713348388672 129.792724609375 128.92813110351562 130.67977905273438 128.2244415283203 131.51400756835938 C127.52076721191406 132.34825134277344 126.75660705566406 133.12969970703125 125.91564178466797 133.8477783203125 C124.89421081542969 134.71560668945312 123.87468719482422 135.58729553222656 122.85612487792969 136.45896911621094 C121.83757019042969 137.33065795898438 120.8199691772461 138.20233154296875 119.80237579345703 139.07015991210938 C118.68877410888672 140.03016662597656 117.65963745117188 141.05160522460938 116.81484985351562 142.26504516601562 C116.01228332519531 143.41705322265625 115.46124267578125 144.6208953857422 115.1463623046875 145.88616943359375 C114.83148193359375 147.15145874023438 114.75276947021484 148.47817993164062 114.89485168457031 149.8759307861328 C115.0228500366211 151.1328887939453 115.18669128417969 152.38302612304688 115.38580322265625 153.6260528564453 C115.58491516113281 154.86907958984375 115.81929016113281 156.10499572753906 116.08837890625 157.33351135253906 C116.35746002197266 158.56202697753906 116.66123962402344 159.78314208984375 116.99916076660156 160.99658203125 C117.38892364501953 162.3905029296875 117.76380157470703 163.78778076171875 118.12956237792969 165.18710327148438 C118.49532318115234 166.58642578125 118.85196685791016 167.98777770996094 119.20524597167969 169.38986206054688 C119.55852508544922 170.79193115234375 119.908447265625 172.19473266601562 120.2607650756836 173.59693908691406 C120.61308288574219 174.99913024902344 120.96780395507812 176.40072631835938 121.3306884765625 177.8004150390625 C121.38445281982422 178.01544189453125 121.44589233398438 178.2228240966797 121.50732421875 178.4378662109375 C121.45355987548828 178.44552612304688 121.39981079101562 178.45321655273438 121.3460464477539 178.4608917236328 C121.16940307617188 178.4839324951172 120.9850845336914 178.50697326660156 120.80077362060547 178.5146484375 C120.63948059082031 178.5223388671875 120.5012435913086 178.53001403808594 120.36300659179688 178.53001403808594 C120.00204467773438 177.11305236816406 119.64684295654297 175.6922607421875 119.29067993164062 174.27145385742188 C118.93452453613281 172.85064697265625 118.57740783691406 171.4298553466797 118.21260833740234 170.0128936767578 C117.90541076660156 168.812255859375 117.59394073486328 167.6133270263672 117.28076934814453 166.4152374267578 C116.96759033203125 165.2171630859375 116.6527099609375 164.01992797851562 116.33868408203125 162.8227081298828 C116.024658203125 161.62547302246094 115.71148681640625 160.42825317382812 115.40171813964844 159.23016357421875 C115.03692626953125 157.81321716308594 114.74700927734375 156.3828125 114.49740600585938 154.94378662109375 C114.24781036376953 153.50473022460938 114.03852844238281 152.0570526123047 113.83500671386719 150.60552978515625 C113.6148452758789 149.03623962402344 113.64897918701172 147.57022094726562 113.9189224243164 146.19720458984375 C114.18885803222656 144.82418823242188 114.6946029663086 143.54420471191406 115.41766357421875 142.34698486328125 C116.14071655273438 141.14974975585938 117.08110046386719 140.03530883789062 118.22029876708984 138.99337768554688 C118.96141052246094 138.31753540039062 119.72173309326172 137.660888671875 120.48684692382812 137.00906372070312 C121.25196838378906 136.35720825195312 122.02188110351562 135.71017456054688 122.7822036743164 135.05352783203125 C123.56555938720703 134.377685546875 124.35660552978516 133.70953369140625 125.13229370117188 133.01834106445312 C126.15180969238281 132.11209106445312 127.06957244873047 131.15257263183594 127.88389587402344 130.13809204101562 C128.69821166992188 129.1236114501953 129.4091033935547 128.05416870117188 130.01486206054688 126.92809295654297 C130.62062072753906 125.80201721191406 131.1212615966797 124.61929321289062 131.5150909423828 123.37825012207031 C131.908935546875 122.13721466064453 132.1959686279297 120.83785247802734 132.37452697753906 119.4784927368164 C132.51278686523438 118.46472930908203 132.6126251220703 117.45097351074219 132.65869140625 116.44489288330078 C133.08030700683594 116.2298583984375 133.4412841796875 116.06857299804688 133.80299377441406 115.90728759765625"></path>
<path fill="#000000" fill-opacity="1.0"  filling="0" d="M138.54925537109375 117.64297485351562 C138.49549865722656 119.31336975097656 138.2670135498047 120.93769836425781 137.86093139648438 122.51689147949219 C137.454833984375 124.0960922241211 136.87115478515625 125.63017272949219 136.10699462890625 127.12008666992188 C135.53355407714844 128.2362518310547 134.8944091796875 129.30035400390625 134.19041442871094 130.31297302246094 C133.48641967773438 131.32559204101562 132.71755981445312 132.2867431640625 131.88470458984375 133.19696044921875 C131.05184936523438 134.107177734375 130.15499877929688 134.96649169921875 129.19500732421875 135.77545166015625 C128.14285278320312 136.65481567382812 127.09069061279297 137.53416442871094 126.05773162841797 138.43560791015625 C125.02476501464844 139.33705139160156 124.01100158691406 140.26058959960938 123.03563690185547 141.228271484375 C122.73612213134766 141.52777099609375 122.45196533203125 141.850341796875 122.12171936035156 142.12681579589844 C121.1258773803711 142.9792938232422 120.38092041015625 143.916259765625 119.84986877441406 144.92433166503906 C119.31880950927734 145.93240356445312 119.00165557861328 147.01158142089844 118.8614273071289 148.1485137939453 C118.72119903564453 149.28543090820312 118.75788879394531 150.4801025390625 118.93453216552734 151.71913146972656 C119.11116027832031 152.92489624023438 119.33389282226562 154.13064575195312 119.61804962158203 155.30567932128906 C119.9820785522461 156.8063507080078 120.34764862060547 158.3061065673828 120.71419525146484 159.80523681640625 C121.08074951171875 161.30438232421875 121.44828033447266 162.8029022216797 121.81624603271484 164.30111694335938 C122.18421173095703 165.79933166503906 122.55260467529297 167.2972412109375 122.92088317871094 168.79515075683594 C123.28915405273438 170.29306030273438 123.65730285644531 171.79095458984375 124.02477264404297 173.28916931152344 C124.39225006103516 174.78738403320312 124.75904846191406 176.28591918945312 125.1246109008789 177.78504943847656 C124.75596618652344 177.8618621826172 124.3873291015625 177.93865966796875 124.01868438720703 178.00778198242188 C123.98796844482422 177.892578125 123.95724487304688 177.77737426757812 123.92652893066406 177.66217041015625 C123.57939147949219 176.24290466308594 123.23287200927734 174.82333374023438 122.88665771484375 173.40357971191406 C122.54044342041016 171.98382568359375 122.19453430175781 170.5638885498047 121.84862518310547 169.14389038085938 C121.50271606445312 167.72389221191406 121.15681457519531 166.30381774902344 120.81060028076172 164.88381958007812 C120.46438598632812 163.46380615234375 120.11786651611328 162.0438690185547 119.7707290649414 160.62411499023438 C119.42359161376953 159.20436096191406 119.07583618164062 157.7847900390625 118.72716522216797 156.3655242919922 C118.45835876464844 155.2711181640625 118.19148254394531 154.17672729492188 117.99564361572266 153.0333709716797 C117.7998046875 151.8900146484375 117.67500305175781 150.69769287109375 117.69037628173828 149.40744018554688 C117.62509155273438 148.005859375 117.85741424560547 146.65609741210938 118.38349151611328 145.3831329345703 C118.9095687866211 144.1101837158203 119.72940063476562 142.9140167236328 120.83916473388672 141.81961059570312 C121.63532257080078 141.03369140625 122.44001770019531 140.2580108642578 123.25495147705078 139.49427795410156 C124.06988525390625 138.7305450439453 124.89505767822266 137.978759765625 125.732177734375 137.24063110351562 C126.56929779052734 136.50250244140625 127.41836547851562 135.77801513671875 128.2810821533203 135.0688934326172 C129.54444885253906 134.0321044921875 130.69261169433594 132.8992919921875 131.7294158935547 131.6724090576172 C132.76622009277344 130.44552612304688 133.691650390625 129.12457275390625 134.50958251953125 127.7114486694336 C135.09837341308594 126.69001007080078 135.59927368164062 125.6429672241211 136.0122833251953 124.5700454711914 C136.42529296875 123.49711608886719 136.7504119873047 122.3983154296875 136.98764038085938 121.27333068847656 C137.22486877441406 120.14835357666016 137.37420654296875 118.99720764160156 137.43565368652344 117.8196029663086 C137.4586944580078 117.397216796875 137.48941040039062 116.97481536865234 137.58157348632812 116.56777954101562 C137.61227416992188 116.43720245361328 137.86573791503906 116.2912826538086 138.01165771484375 116.2912826538086 C138.16525268554688 116.2912826538086 138.4033203125 116.44489288330078 138.44174194335938 116.56777954101562 C138.5261993408203 116.91336822509766 138.5646209716797 117.28201293945312 138.54925537109375 117.64297485351562"></path>
<path fill="#000000" fill-opacity="1.0"  filling="0" d="M141.95071411132812 123.70249938964844 C141.64608764648438 124.9620132446289 141.262939453125 126.1856918334961 140.80270385742188 127.37352752685547 C140.34246826171875 128.56137084960938 139.80516052246094 129.71336364746094 139.1921844482422 130.82952880859375 C138.57920837402344 131.9456787109375 137.89056396484375 133.0260009765625 137.127685546875 134.07049560546875 C136.19456481933594 135.35690307617188 135.1961669921875 136.58761596679688 134.14111328125 137.7674560546875 C133.08607482910156 138.94729614257812 131.97439575195312 140.0762481689453 130.81471252441406 141.15911865234375 C129.70111083984375 142.20361328125 128.6182403564453 143.27880859375 127.5199966430664 144.33096313476562 C126.65983581542969 145.160400390625 125.98313903808594 146.063232421875 125.46089935302734 147.0269317626953 C124.93865966796875 147.99063110351562 124.57087707519531 149.01519775390625 124.32852935791016 150.088134765625 C124.086181640625 151.1610565185547 123.96928405761719 152.28233337402344 123.94880676269531 153.439453125 C123.92576599121094 154.60296630859375 124.03327941894531 155.75497436523438 124.2003173828125 156.90025329589844 C124.36736297607422 158.0455322265625 124.59391784667969 159.18409729003906 124.8089599609375 160.32073974609375 C125.10847473144531 161.91818237304688 125.44810485839844 163.5062255859375 125.8093490600586 165.0891571044922 C126.17059326171875 166.67208862304688 126.55345916748047 168.24990844726562 126.939453125 169.8268585205078 C127.32544708251953 171.40382385253906 127.71456909179688 172.97991943359375 128.0883331298828 174.5594482421875 C128.28033447265625 175.35816955566406 128.51840209960938 176.14920043945312 128.6335906982422 176.96328735351562 C128.47232055664062 177.01705932617188 128.31103515625 177.06312561035156 128.14976501464844 177.10153198242188 C127.9347152709961 177.15530395507812 127.72735595703125 177.2013702392578 127.5123291015625 177.255126953125 C127.13856506347656 175.65513610839844 126.76480102539062 174.0559844970703 126.39160919189453 172.4568328857422 C126.01841735839844 170.85769653320312 125.64579772949219 169.258544921875 125.2743148803711 167.65853881835938 C124.90283203125 166.0585479736328 124.53248596191406 164.45770263671875 124.1638412475586 162.85513305664062 C123.89888000488281 161.6992950439453 123.67040252685547 160.5338592529297 123.46975708007812 159.36265563964844 C123.26911926269531 158.1914520263672 123.09632110595703 157.01449584960938 122.94271850585938 155.83560180664062 C122.78143310546875 154.57608032226562 122.76799774169922 153.33001708984375 122.88703918457031 152.09640502929688 C123.0060806274414 150.86280822753906 123.25759887695312 149.64169311523438 123.62623596191406 148.43209838867188 C124.0179214477539 147.13417053222656 124.67840576171875 145.9744873046875 125.523193359375 144.91464233398438 C126.05696105957031 144.24264526367188 126.63104248046875 143.6109619140625 127.22911834716797 143.0032958984375 C127.82720184326172 142.39561462402344 128.44927978515625 141.8119354248047 129.07904052734375 141.23593139648438 C130.27328491210938 140.14537048339844 131.4272003173828 139.01641845703125 132.53024291992188 137.83944702148438 C133.63327026367188 136.66249084472656 134.68544006347656 135.43753051757812 135.67616271972656 134.15496826171875 C136.4646453857422 133.12583923339844 137.1797332763672 132.06173706054688 137.8197479248047 130.9609375 C138.45974731445312 129.86013793945312 139.024658203125 128.72264099121094 139.51275634765625 127.5467529296875 C140.0008544921875 126.37085723876953 140.41217041015625 125.15657043457031 140.74496459960938 123.90216827392578 C140.8678436279297 123.43368530273438 141.0214385986328 122.97289276123047 141.2057647705078 122.52745056152344 C141.25953674316406 122.39689636230469 141.48992919921875 122.35081481933594 141.65887451171875 122.25096893310547 C141.81246948242188 122.38920593261719 141.99681091308594 122.48905181884766 142.05056762695312 122.63497161865234 C142.20494079589844 122.99593353271484 142.03518676757812 123.34920501708984 141.95071411132812 123.70249938964844"></path>
<path fill="#F29481" fill-opacity="1.0"  filling="0" d="M132.27853393554688 67.958740234375 C130.98597717285156 67.53327941894531 129.7909698486328 66.91195678710938 128.69888305664062 66.10786437988281 C128.31295776367188 64.96546173095703 127.87904357910156 63.840919494628906 127.47122955322266 62.79711151123047 C127.06342315673828 61.7533073425293 126.68173217773438 60.79023742675781 126.4002685546875 59.97077941894531 C125.89222717285156 58.6094970703125 125.44467163085938 57.407005310058594 125.02610778808594 56.28428649902344 C124.60755157470703 55.16157150268555 124.21798706054688 54.118629455566406 123.82592010498047 53.076446533203125 C123.52410125732422 52.274658203125 123.20000457763672 51.48438262939453 122.8249282836914 50.719451904296875 C122.44985961914062 49.95452117919922 122.0238037109375 49.214935302734375 121.51808166503906 48.5145263671875 C120.81612396240234 47.54222106933594 120.04275512695312 46.6383056640625 119.10348510742188 45.891021728515625 C118.40460205078125 45.334991455078125 117.65003967285156 44.928340911865234 116.84921264648438 44.65157699584961 C116.04837799072266 44.374813079833984 115.20127868652344 44.227935791015625 114.31731414794922 44.19145202636719 C113.70982360839844 44.1668701171875 113.1008071899414 44.16917419433594 112.49560546875 44.283599853515625 C111.66233825683594 44.44181823730469 110.91661071777344 44.81504821777344 110.17088317871094 45.19061279296875 C109.18246459960938 45.689056396484375 108.2662353515625 46.287322998046875 107.52051544189453 47.12060546875 C106.75596618652344 47.974998474121094 106.21952056884766 48.90312576293945 105.90204620361328 49.901336669921875 C105.5845718383789 50.89954376220703 105.48607635498047 51.96783447265625 105.5974349975586 53.10255432128906 C105.68576049804688 53.99957275390625 105.83320617675781 54.891204833984375 106.05593872070312 55.76445007324219 C106.2371826171875 56.47483825683594 106.23257446289062 57.17987060546875 106.12429809570312 57.892578125 C106.00985717773438 58.64366149902344 105.78176879882812 59.362518310546875 105.4830093383789 60.05986022949219 C105.40006256103516 60.25416564941406 105.32096099853516 60.45231628417969 105.25798034667969 60.654296875 C105.16505432128906 60.953826904296875 105.11973571777344 61.25486755371094 105.37702178955078 61.50831604003906 C105.63352966308594 61.760986328125 105.9315185546875 61.715667724609375 106.2318115234375 61.616607666015625 C106.635009765625 61.48374938964844 107.0351333618164 61.34474182128906 107.43680572509766 61.20802307128906 C107.96134185791016 61.029083251953125 107.97132873535156 61.023712158203125 108.20326232910156 61.5213623046875 C108.62873077392578 62.43376159667969 109.03423309326172 63.3553466796875 109.46047973632812 64.2669677734375 C109.7185287475586 64.81840515136719 109.9996109008789 65.35983276367188 110.27226257324219 65.90435791015625 C110.43353271484375 66.22689819335938 110.66240692138672 66.50108337402344 110.88896179199219 66.77833557128906 C111.17618560791016 67.12930297851562 111.53868865966797 67.25296020507812 111.98029327392578 67.21607971191406 C112.58086395263672 67.1654052734375 113.15148162841797 67.00105285644531 113.71289825439453 66.79446411132812 C114.29888153076172 66.57942199707031 114.90099334716797 66.42274475097656 115.5123291015625 66.3013916015625 C116.50763702392578 66.10324096679688 117.18118286132812 66.43426513671875 117.7733154296875 67.37583923339844 C117.9207763671875 67.61007690429688 118.03135681152344 67.86735534667969 118.12582397460938 68.13076782226562 C118.3900146484375 68.86805725097656 118.68108367919922 69.59458923339844 118.99749755859375 70.31111145019531 C118.329345703125 71.01153564453125 117.55673217773438 71.61442565917969 116.77107238769531 72.19195556640625 C116.59212493896484 72.32327270507812 116.57830810546875 72.52987670898438 116.64818572998047 72.69192504882812 C116.70579528808594 72.81632995605469 116.7541732788086 72.87394714355469 116.84172058105469 72.91233825683594 C117.89427185058594 73.36853790283203 119.2363510131836 74.15132141113281 120.60809326171875 74.69957733154297 C121.97984313964844 75.24783325195312 123.3812484741211 75.56156158447266 124.55245208740234 75.07965087890625 C126.10688781738281 74.44029235839844 127.21356964111328 73.17289733886719 128.3005828857422 71.90204620361328 C129.38758850097656 70.63119506835938 130.4549102783203 69.35688781738281 131.9306182861328 68.70370483398438 C132.01434326171875 68.67527770996094 132.04275512695312 68.68757629394531 132.0727081298828 68.69755554199219 C132.54502868652344 68.85423278808594 132.74623107910156 68.11235046386719 132.27853393554688 67.958740234375"></path>
<path fill="#000000" fill-opacity="1.0"  filling="0" d="M125.60077667236328 56.239837646484375 C125.14073181152344 54.66465759277344 124.6215591430664 53.105621337890625 124.35353088378906 51.47746276855469 C124.18534088134766 50.456787109375 123.8493423461914 49.52750778198242 123.36213684082031 48.683380126953125 C122.87493896484375 47.83925247192383 122.23654174804688 47.08027648925781 121.46354675292969 46.40020751953125 C120.40064239501953 45.46479797363281 119.22021484375 44.70448303222656 117.91768646240234 44.15458679199219 C116.53144836425781 43.57012939453125 115.09221649169922 43.26063537597656 113.57465362548828 43.48335266113281 C112.25138854980469 43.677642822265625 111.06253051757812 44.20603942871094 109.94048309326172 44.91259765625 C108.88369750976562 45.578460693359375 107.87993621826172 46.31343078613281 106.99749755859375 47.19816589355469 C106.3431625366211 47.85479736328125 105.6097183227539 48.38165283203125 104.76493072509766 48.75721740722656 C104.4369888305664 48.90312194824219 104.14285278320312 49.10896301269531 103.8341064453125 49.2894287109375 C102.66213989257812 49.9744873046875 102.11762237548828 51.55274963378906 102.89178466796875 53.018829345703125 C103.18899536132812 53.581787109375 103.5883560180664 54.04795837402344 104.17280578613281 54.333648681640625 C104.73037719726562 54.606292724609375 105.30329895019531 54.67771911621094 105.9107894897461 54.52874755859375 C106.72793579101562 54.328277587890625 107.42451477050781 53.905120849609375 108.06886291503906 53.38517761230469 C108.33919525146484 53.166290283203125 108.5450210571289 52.88597106933594 108.69632720947266 52.573394775390625 C108.77235412597656 52.416748046875 108.87218475341797 52.35527038574219 109.03961181640625 52.382171630859375 C109.2354507446289 52.41365051269531 109.4366683959961 52.42057800292969 109.6279067993164 52.46818542480469 C110.99494171142578 52.80686950683594 112.14387512207031 53.50038146972656 113.04012298583984 54.59553527832031 C113.14073181152344 54.71842956542969 113.24442291259766 54.840545654296875 113.2958755493164 54.994903564453125 C113.60845184326172 55.93109130859375 114.10688018798828 56.77665710449219 114.57612609863281 57.63758850097656 C114.9754867553711 58.37025451660156 115.39173126220703 59.09295654296875 115.85254669189453 59.789520263671875 C116.16741943359375 60.26570129394531 116.42008972167969 60.77793884277344 116.60517883300781 61.31938171386719 C116.81561279296875 61.93531799316406 116.62284851074219 62.476776123046875 116.07450103759766 62.83311462402344 C115.61907196044922 63.12956237792969 115.11910247802734 63.288543701171875 114.57612609863281 63.29852294921875 C114.0876693725586 63.3077392578125 113.67755889892578 63.10267639160156 113.30892944335938 62.80162048339844 C113.02015686035156 62.566619873046875 112.78285217285156 62.2801513671875 112.52787780761719 62.010589599609375 C112.20914459228516 61.673431396484375 111.88505554199219 61.34318542480469 111.49798583984375 61.080535888671875 C110.60633850097656 60.47535705566406 109.6647720336914 60.469970703125 108.69094848632812 60.83477783203125 C108.54271697998047 60.89007568359375 108.40064239501953 60.964569091796875 108.26009368896484 61.03984069824219 C107.64646911621094 61.36622619628906 107.4751968383789 61.74024963378906 107.64415740966797 62.4168701171875 C107.74784088134766 62.82926940917969 107.91218566894531 63.22096252441406 108.10880279541016 63.59803771972656 C108.64102172851562 64.61947631835938 109.1517333984375 65.65321350097656 109.88671875 66.55484008789062 C110.1470718383789 66.87355041503906 110.4189453125 67.1815185546875 110.71308898925781 67.46646118164062 C111.372802734375 68.10542297363281 112.1338882446289 68.34658813476562 113.04165649414062 68.04859924316406 C114.05081939697266 67.71759033203125 115.00773620605469 67.25602722167969 116.0 66.88432312011719 C116.89395141601562 66.54946899414062 117.7686996459961 66.17007446289062 118.60736083984375 65.71080017089844 C118.79398345947266 65.60865783691406 118.96754455566406 65.48886108398438 119.13190460205078 65.35369873046875 C119.61651611328125 64.95355224609375 119.84384155273438 64.45283508300781 119.7762680053711 63.81385803222656 C119.72710418701172 63.349212646484375 119.61727905273438 62.89915466308594 119.48826599121094 62.45524597167969 C119.1142349243164 61.17193603515625 118.48908233642578 60.04219055175781 117.47380065917969 59.14056396484375 C116.65817260742188 58.416351318359375 115.9600601196289 57.58613586425781 115.3648681640625 56.669921875 C115.03539276123047 56.162261962890625 114.79654693603516 55.62158203125 114.74815368652344 55.011810302734375 C114.73434448242188 54.84130859375 114.73049926757812 54.666961669921875 114.74662780761719 54.49647521972656 C114.7988510131836 53.94427490234375 115.21126556396484 53.656280517578125 115.75193786621094 53.786834716796875 C116.02918243408203 53.85365295410156 116.26726531982422 53.998809814453125 116.47308349609375 54.19081115722656 C116.97689819335938 54.66004943847656 117.44766998291016 55.15617370605469 117.88390350341797 55.69378662109375 C118.52326965332031 56.48059844970703 119.17837524414062 57.2537841796875 119.8675537109375 57.994903564453125 C120.5567398071289 58.736026763916016 121.27999877929688 59.44508361816406 122.05567169189453 60.1036376953125 C122.25919342041016 60.27644348144531 122.48345184326172 60.41621398925781 122.72691345214844 60.5252685546875 C123.04179382324219 60.66658020019531 123.34899139404297 60.669647216796875 123.69075775146484 60.57365417480469 C124.50405883789062 60.346343994140625 125.2282943725586 59.93006896972656 125.98015594482422 59.570648193359375 C126.06310272216797 59.53071594238281 126.14297485351562 59.480804443359375 126.21746826171875 59.42625427246094 C126.52159118652344 59.20353698730469 126.5907211303711 58.99540710449219 126.46247100830078 58.6329345703125 C126.30348205566406 58.182861328125 126.129150390625 57.73896789550781 125.96634674072266 57.29046630859375 C125.83960723876953 56.94255065917969 125.72210693359375 56.59004211425781 125.60077667236328 56.239837646484375"></path>
<path fill="#F29481" fill-opacity="1.0"  filling="0" d="M100.33970642089844 98.24867248535156 C100.21145629882812 97.97295379638672 100.06707000732422 97.70414733886719 99.91960906982422 97.43843078613281 C99.42962646484375 96.55369567871094 98.99340057373047 95.65148162841797 98.64175415039062 94.71739959716797 C98.29010772705078 93.78331756591797 98.02304077148438 92.81736755371094 97.8713607788086 91.80514526367188 C97.71699523925781 90.7783203125 97.27001190185547 89.82523345947266 96.7615966796875 88.91899871826172 C96.5857162475586 88.60566711425781 96.34381103515625 88.31996154785156 96.09113311767578 88.06344604492188 C95.92063903808594 87.88988494873047 95.65260314941406 87.81307983398438 95.42681884765625 87.96438598632812 C95.29010772705078 88.05577850341797 95.14265441894531 88.23165130615234 95.12805938720703 88.38294219970703 C95.09196472167969 88.74082946777344 95.11346435546875 89.10870361328125 95.14726257324219 89.4688949584961 C95.18258666992188 89.84520721435547 95.39993286132812 90.2199935913086 95.21485137939453 90.61397552490234 C94.79859161376953 90.50338745117188 94.65957641601562 90.21614837646484 94.48217010498047 89.97577667236328 C93.93382263183594 89.23274230957031 93.29945373535156 88.57686614990234 92.63301849365234 87.95353698730469 C91.96659088134766 87.3302001953125 91.26809692382812 86.73941802978516 90.59148406982422 86.12655639648438 C90.32345581054688 85.88386535644531 90.02546691894531 85.67343139648438 89.64378356933594 85.608154296875 C89.3465576171875 85.55746459960938 89.03935241699219 85.834716796875 89.07699584960938 86.13653564453125 C89.14533996582031 86.683349609375 89.45100402832031 87.11343383789062 89.73286437988281 87.55349731445312 C89.93638610839844 87.79388427734375 90.14988708496094 88.02350616455078 90.37644958496094 88.25238800048828 C90.65522766113281 88.53422546386719 90.90559387207031 88.84451293945312 91.12832641601562 89.17244720458984 C91.30955505371094 89.43816375732422 91.46701049804688 89.64783477783203 91.39942169189453 89.96194458007812 C91.33876037597656 90.00802612304688 91.31954956054688 90.0218505859375 91.29804992675781 90.01571655273438 C90.83954620361328 89.8713150024414 90.56998443603516 89.4473876953125 90.31193542480469 89.05339813232422 C90.1053466796875 88.90594482421875 89.96249389648438 88.77615356445312 89.81887817382812 88.6256332397461 C89.55392456054688 88.34684753417969 89.31736755371094 88.0434799194336 89.08851623535156 87.73397827148438 C88.77822875976562 87.45365905761719 88.48409271240234 87.16181945800781 88.23065185546875 86.82467651367188 C88.07167053222656 86.71791076660156 87.91346740722656 86.6119384765625 87.74989318847656 86.51055908203125 C87.66616821289062 86.45832824707031 87.4672622680664 86.4644775390625 87.40965270996094 86.52590942382812 C87.29753112792969 86.64572143554688 87.15238952636719 86.85231018066406 87.18848419189453 86.97134399414062 C87.29292297363281 87.31388854980469 87.43500518798828 87.66486358642578 87.64466857910156 87.95208740234375 C87.76140594482422 88.1118392944336 87.88429260253906 88.2669677734375 88.00408935546875 88.4251708984375 C88.3473892211914 88.8944320678711 88.72908020019531 89.28303527832031 89.07315063476562 89.7061996459961 C89.35116577148438 90.04873657226562 89.62457275390625 90.35440063476562 89.94483947753906 90.65699005126953 C90.22207641601562 90.91964721679688 90.46322631835938 91.22914123535156 90.69978332519531 91.52867126464844 C90.87028503417969 91.74447631835938 91.03846740722656 91.97103118896484 91.07532501220703 92.24982452392578 C90.83570098876953 92.25289154052734 90.69746398925781 92.11772918701172 90.55154418945312 91.99868774414062 C90.29273223876953 91.78594970703125 90.0101089477539 91.60546112060547 89.75053405761719 91.39503479003906 C89.33657836914062 91.05941772460938 88.9886703491211 90.53948211669922 88.70451354980469 90.0925064086914 C88.4771728515625 89.7853012084961 88.24754333496094 89.49729919433594 87.97413635253906 89.25078582763672 C87.66233825683594 88.96969604492188 87.36204528808594 88.67401123046875 87.03794860839844 88.40750885009766 C86.96038818359375 88.3437728881836 86.74227905273438 88.31689453125 86.70616912841797 88.3637466430664 C86.60479736328125 88.49583435058594 86.48883056640625 88.69013214111328 86.51724243164062 88.8314437866211 C86.57638549804688 89.1202163696289 86.71692657470703 89.39440155029297 86.84133911132812 89.666259765625 C87.04716491699219 90.11862182617188 87.34822082519531 90.51875305175781 87.61163330078125 90.94038391113281 C87.93267059326172 91.33589935302734 88.23680114746094 91.74371337890625 88.49714660644531 92.17455291748047 C88.67762756347656 92.47329711914062 88.86426544189453 92.77205657958984 89.03398132324219 93.07695770263672 C89.13229370117188 93.25358581542969 89.23135375976562 93.44175720214844 89.19602966308594 93.64910888671875 C88.9034194946289 93.55541229248047 88.71295928955078 93.3795394897461 88.54246520996094 93.18216705322266 C88.36582946777344 92.9778823852539 88.21453094482422 92.75515747070312 88.05708312988281 92.54856872558594 C87.85049438476562 92.27670288085938 87.65849304199219 91.9871597290039 87.44268798828125 91.72374725341797 C87.38201904296875 91.64923858642578 87.31749725341797 91.58319091796875 87.25837707519531 91.51254272460938 C87.07865905761719 91.36354064941406 86.89739990234375 91.21839904785156 86.6608657836914 91.19996643066406 C86.55563354492188 91.19151306152344 86.41587829589844 91.23452758789062 86.34291076660156 91.30594635009766 C86.26841735839844 91.37890625 86.20390319824219 91.52867126464844 86.22694396972656 91.62235260009766 C86.28378295898438 91.85276794433594 86.35980987548828 92.0923843383789 86.48728942871094 92.28975677490234 C87.27987670898438 93.51779174804688 88.0762939453125 94.74427795410156 88.89727783203125 95.95388793945312 C89.55238342285156 96.91849517822266 90.3795166015625 97.72027587890625 91.2934341430664 98.4483413696289 C92.53221893310547 99.43521881103516 93.73106384277344 100.47049713134766 94.95372009277344 101.47733306884766 C95.42373657226562 101.8636474609375 95.90604400634766 102.23612213134766 96.39371490478516 102.5993881225586 C96.65945434570312 102.79752349853516 96.95897674560547 102.81903076171875 97.24159240722656 102.62396240234375 C98.51494598388672 101.74536895751953 99.52179718017578 100.61487579345703 100.32818603515625 99.30467224121094 C100.53016662597656 98.97595977783203 100.50176239013672 98.598876953125 100.33970642089844 98.24867248535156"></path>
<path fill="#F29481" fill-opacity="1.0"  filling="0" d="M181.7415771484375 127.18844604492188 C181.3253173828125 126.66466522216797 180.89215087890625 126.15471649169922 180.4605712890625 125.64399719238281 C179.6492919921875 124.68476867675781 178.78717041015625 123.76846313476562 177.92515563964844 122.85203552246094 C177.06314086914062 121.93560791015625 176.20123291015625 121.01907348632812 175.3904266357422 120.05938720703125 C174.57962036132812 119.09970092773438 173.81988525390625 118.09686279296875 173.1622314453125 117.0078353881836 C173.13075256347656 116.95560455322266 173.0915985107422 116.90799713134766 173.05087280273438 116.86344909667969 C172.78207397460938 116.56546783447266 172.49636840820312 116.43260192871094 172.0931854248047 116.65531921386719 C170.92198181152344 117.30351257324219 169.73159790039062 117.91791534423828 168.56192016601562 118.56842041015625 C167.9198760986328 118.92552947998047 167.8115997314453 119.17666625976562 168.1387481689453 119.9185562133789 C168.48895263671875 120.71151733398438 168.72933959960938 121.52655792236328 168.90443420410156 122.35589599609375 C169.0795440673828 123.18524169921875 169.18936157226562 124.02888488769531 169.27845764160156 124.87906646728516 C169.37062072753906 125.76188659667969 169.53939819335938 126.62760925292969 169.75213623046875 127.48307037353516 C169.96487426757812 128.33853149414062 170.22158813476562 129.1837158203125 170.48960876464844 130.0254364013672 C170.61631774902344 130.4240264892578 170.8390350341797 130.80035400390625 171.06712341308594 131.1551513671875 C171.14547729492188 131.27651977539062 171.37509155273438 131.35406494140625 171.536376953125 131.35638427734375 C171.80979919433594 131.36021423339844 171.94725036621094 131.13827514648438 172.02713012695312 130.8994140625 C172.14772033691406 130.53846740722656 172.06784057617188 130.1798095703125 172.0063934326172 129.81808471679688 C171.89427185058594 129.1583709716797 171.78982543945312 128.4971160888672 171.70919799804688 127.83280181884766 C171.6830596923828 127.61929321289062 171.59475708007812 127.32284545898438 172.00408935546875 127.27062225341797 C172.63693237304688 127.83894348144531 173.0032501220703 128.59849548339844 173.3795928955078 129.35650634765625 C173.89413452148438 130.39254760742188 174.40487670898438 131.43087768554688 174.9662628173828 132.44155883789062 C175.22894287109375 132.91387939453125 175.59832763671875 133.32861328125 175.93856811523438 133.75485229492188 C176.0576171875 133.90383911132812 176.27493286132812 133.9560546875 176.42623901367188 133.840087890625 C176.552978515625 133.7425537109375 176.6719970703125 133.55746459960938 176.68353271484375 133.40310668945312 C176.72421264648438 132.84552001953125 176.54681396484375 132.3263702392578 176.33023071289062 131.81716918945312 C176.0721893310547 131.21200561523438 175.82106018066406 130.60372924804688 175.57376098632812 129.99395751953125 L175.30496215820312 129.03240966796875 C175.29574584960938 128.9993896484375 175.15982055664062 128.56546020507812 175.0945281982422 128.322021484375 C175.2373809814453 128.52398681640625 175.51693725585938 128.87112426757812 175.55609130859375 128.92259216308594 C175.86712646484375 129.334228515625 176.20506286621094 129.7213134765625 176.54989624023438 130.10147094726562 C176.58291625976562 130.16290283203125 176.6205596923828 130.2220458984375 176.65357971191406 130.28347778320312 C177.06982421875 130.8556365966797 177.4952850341797 131.42550659179688 177.9699249267578 131.94851684570312 C178.43609619140625 132.46231079101562 178.861572265625 132.57672119140625 179.04359436035156 132.32791137695312 C179.3139190673828 131.9577178955078 179.19488525390625 131.58753967285156 179.02438354492188 131.24118041992188 C178.68954467773438 130.76116943359375 178.35008239746094 130.28656005859375 178.0144500732422 129.80348205566406 C177.775634765625 129.35189819335938 177.5290985107422 128.90414428710938 177.28488159179688 128.4548797607422 C177.16043090820312 128.11080932617188 177.05906677246094 127.7552261352539 176.97459411621094 127.39273071289062 C177.660400390625 128.2367706298828 178.3470001220703 129.08001708984375 179.0336151123047 129.92405700683594 C179.3423309326172 130.36105346679688 179.65261840820312 130.79498291015625 179.95291137695312 131.23809814453125 C180.22171020507812 131.41705322265625 180.51123046875 131.4393310546875 180.67019653320312 131.28036499023438 C180.9105987548828 131.0399627685547 180.9236602783203 130.74505615234375 180.82687377929688 130.43862915039062 C180.6049346923828 129.73513793945312 180.22862243652344 129.11383056640625 179.78778076171875 128.5293731689453 C179.65106201171875 128.34889221191406 179.51361083984375 128.16917419433594 179.37612915039062 127.99022674560547 C179.04434204101562 127.32284545898438 178.68338012695312 126.67311096191406 178.2940216064453 126.03797912597656 C178.7025909423828 126.4281234741211 179.1111602783203 126.81903839111328 179.5189666748047 127.20994567871094 C180.0005340576172 127.66998291015625 180.505859375 128.34274291992188 181.08416748046875 128.67605590820312 C181.3637237548828 128.83734130859375 181.6801300048828 128.83810424804688 181.896728515625 128.5885009765625 C181.92282104492188 128.55856323242188 181.93972778320312 128.52859497070312 181.9589080810547 128.49789428710938 C181.9834747314453 128.46408081054688 181.997314453125 128.42877197265625 182.01344299316406 128.39112854003906 C182.02725219726562 128.35504150390625 182.03956604003906 128.3197021484375 182.0457000732422 128.28359985351562 C182.07411193847656 127.83126068115234 181.97503662109375 127.48182678222656 181.7415771484375 127.18844604492188"></path>
<path fill="#FFCC33" fill-opacity="1.0"  filling="0" d="M149.18605041503906 94.40406036376953 C149.16607666015625 94.64213562011719 149.09466552734375 94.89019775390625 149.13612365722656 95.11752319335938 C149.4202880859375 96.67503356933594 149.7374725341797 98.22640228271484 150.02394104003906 99.78312683105469 C150.2036590576172 100.76155853271484 150.57919311523438 101.62325286865234 151.20819091796875 102.4150619506836 C151.77268981933594 103.12622833251953 152.2380828857422 103.92341613769531 152.6842803955078 104.71829223632812 C152.9185333251953 105.13531494140625 153.07058715820312 105.61685943603516 153.16734313964844 106.08841705322266 C153.35398864746094 106.99465942382812 153.1205291748047 107.49846649169922 152.25804138183594 107.8379135131836 C151.0699462890625 108.30563354492188 149.85191345214844 108.70191955566406 148.63230895996094 109.08438873291016 C147.4415283203125 109.45724487304688 146.2421112060547 109.80418395996094 145.0459442138672 110.16044616699219 C143.84979248046875 110.5167007446289 142.65689086914062 110.88227081298828 141.47915649414062 111.29238891601562 C140.27301025390625 111.71247863769531 139.0814666748047 112.17424011230469 137.89356994628906 112.64665222167969 C136.70567321777344 113.11907196044922 135.52142333984375 113.60214233398438 134.32986450195312 114.06486511230469 C132.91134643554688 114.61627960205078 131.48902893066406 115.15849304199219 130.06361389160156 115.69379425048828 C129.60818481445312 115.86505126953125 129.13510131835938 115.98793029785156 128.6781463623047 116.15458679199219 C128.09446716308594 116.36808776855469 127.60601806640625 116.20757293701172 127.16134643554688 115.81743621826172 C126.24000549316406 115.00847625732422 125.35680389404297 114.1662368774414 124.51496124267578 113.28804016113281 C123.6731185913086 112.40985107421875 122.87263488769531 111.49569702148438 122.1167221069336 110.54292297363281 C121.36080932617188 109.59014892578125 120.64947509765625 108.59873962402344 119.98592376708984 107.5660400390625 C119.55584716796875 106.89710998535156 119.23404693603516 106.172119140625 119.10426330566406 105.37493896484375 C119.06585693359375 105.13839721679688 119.02130889892578 104.89801025390625 118.72026824951172 104.78972625732422 C118.33010864257812 104.91029357910156 118.48140716552734 105.27664184570312 118.45683288574219 105.53160095214844 C118.34393310546875 106.71624755859375 118.19071960449219 107.89398193359375 118.00093078613281 109.06565856933594 C117.8111343383789 110.23733520507812 117.58476257324219 111.40296936035156 117.3255615234375 112.56341552734375 C117.09823608398438 113.58331298828125 116.72653198242188 114.5494613647461 116.17202758789062 115.43343353271484 C115.65440368652344 116.25865173339844 115.03826904296875 116.8141098022461 114.31222534179688 117.11506652832031 C113.58617401123047 117.41603088378906 112.75020599365234 117.46249389648438 111.79290008544922 117.26972198486328 C110.74610900878906 117.05852508544922 109.85600280761719 116.5508804321289 109.01888275146484 115.93109893798828 C108.06195068359375 115.223388671875 107.13670349121094 114.47824096679688 106.23161315917969 113.70889282226562 C105.32652282714844 112.9395523071289 104.44159698486328 112.14601135253906 103.5653076171875 111.3415298461914 C102.69593048095703 110.54331970214844 101.85283660888672 109.71977233886719 101.02652740478516 108.88005828857422 C100.20021057128906 108.04035186767578 99.39068603515625 107.18448638916016 98.58843994140625 106.3216552734375 C97.78619384765625 105.45881652832031 96.99122619628906 104.58901977539062 96.19404602050781 103.721435546875 C95.49209594726562 102.95726776123047 95.48287963867188 102.61934661865234 96.19097900390625 101.84291076660156 C96.78617858886719 101.18972778320312 97.38752746582031 100.5421142578125 97.99424743652344 99.89958190917969 C98.60096740722656 99.2570571899414 99.21305847167969 98.61961364746094 99.82976531982422 97.98678588867188 C100.59239196777344 97.20418548583984 101.00556182861328 97.15503692626953 101.90719604492188 97.77250671386719 C102.7615966796875 98.35772705078125 103.60831451416016 98.95407104492188 104.45282745361328 99.55359649658203 C105.2973403930664 100.15311431884766 106.1396484375 100.75580596923828 106.98521423339844 101.35369873046875 C107.37535858154297 101.62940216064453 107.7655029296875 101.9058837890625 108.09497833251953 102.13858795166016 C108.55960845947266 102.0264663696289 108.4559326171875 101.73385620117188 108.43059539794922 101.52880096435547 C108.23590087890625 99.95631408691406 108.03257751464844 98.3849868774414 107.83116912841797 96.81346130371094 C107.6297607421875 95.241943359375 107.43026733398438 93.67022705078125 107.2432632446289 92.09698486328125 C107.06700897216797 90.61436462402344 106.89017486572266 89.13154602050781 106.77420806884766 87.6444091796875 C106.65824127197266 86.15727233886719 106.60313415527344 84.66581726074219 106.67034149169922 83.16590881347656 C106.73715209960938 81.67906188964844 107.10502624511719 80.28668212890625 107.7232666015625 78.94038391113281 C108.42520904541016 77.41127014160156 109.4251480102539 76.14102172851562 110.7799072265625 75.13571166992188 C111.64083862304688 74.49673461914062 112.53075408935547 73.91324615478516 113.45417785644531 73.38822174072266 C114.37759399414062 72.86319732666016 115.33451843261719 72.39663696289062 116.3294677734375 71.99151611328125 C117.13434600830078 71.66357421875 117.81708526611328 71.69889831542969 118.58123779296875 72.12283325195312 C119.37957763671875 72.56597900390625 120.19078063964844 72.98606872558594 121.0038070678711 73.40319061279297 C121.81683349609375 73.8203125 122.63168334960938 74.23445129394531 123.43730926513672 74.66569519042969 C123.99871826171875 74.96597290039062 124.42418670654297 74.94677734375 124.8880615234375 74.47369384765625 C125.69906616210938 73.64693450927734 126.51756286621094 72.82747650146484 127.33798217773438 72.00984191894531 C128.1584014892578 71.19221496582031 128.98074340820312 70.37641143798828 129.79942321777344 69.55696105957031 C130.0582275390625 69.29812622070312 130.3016815185547 69.02474975585938 130.5489959716797 68.75593566894531 C130.94989013671875 68.31892395019531 131.4337158203125 68.19221496582031 132.0281524658203 68.22370910644531 C133.01004028320312 68.27554321289062 133.97503662109375 68.40898132324219 134.92784118652344 68.60184478759766 C135.88064575195312 68.79470825195312 136.8212432861328 69.0469970703125 137.75436401367188 69.33653259277344 C138.6844024658203 69.62530517578125 139.5929718017578 69.98011779785156 140.51609802246094 70.29115295410156 C141.96786499023438 70.77935028076172 143.32901000976562 71.39127349853516 144.596923828125 72.12921142578125 C145.86483764648438 72.86714172363281 147.03952026367188 73.73108673095703 148.1183319091797 74.72331237792969 C149.1971435546875 75.71553802490234 150.18011474609375 76.83604431152344 151.06459045410156 78.08711242675781 C151.62713623046875 78.88277435302734 152.17184448242188 79.69110107421875 152.70848083496094 80.50508880615234 C153.2451171875 81.31907653808594 153.773681640625 82.13872528076172 154.3040008544922 82.95703125 C154.98330688476562 84.0053482055664 155.65011596679688 85.06192016601562 156.31893920898438 86.11714935302734 C156.98776245117188 87.17237854003906 157.6586151123047 88.22625732421875 158.34597778320312 89.26920318603516 C159.0003204345703 90.26261901855469 159.67636108398438 91.2414321899414 160.39549255371094 92.18684387207031 C161.1146240234375 93.13224792480469 161.87686157226562 94.04425048828125 162.70362854003906 94.90402221679688 C163.6496124267578 95.88764190673828 164.5230255126953 96.91488647460938 165.33059692382812 97.98188018798828 C166.13818359375 99.04887390136719 166.87994384765625 100.15560913085938 167.56265258789062 101.29820251464844 C168.245361328125 102.4407958984375 168.86898803710938 103.61924743652344 169.44032287597656 104.82965850830078 C170.01165771484375 106.04007720947266 170.53067016601562 107.28245544433594 171.004150390625 108.55292510986328 C171.41888427734375 109.66575622558594 171.84091186523438 110.77609252929688 172.26417541503906 111.88594818115234 C172.68743896484375 112.99580383300781 173.1119384765625 114.10517883300781 173.5316619873047 115.2160873413086 C173.63916015625 115.500244140625 173.72134399414062 115.79515838623047 173.80429077148438 116.08853912353516 C173.93637084960938 116.55165100097656 173.77281188964844 116.9287338256836 173.42491149902344 117.22978210449219 C173.2421112060547 117.38799285888672 173.03782653808594 117.52623748779297 172.83200073242188 117.65525817871094 C171.49105834960938 118.49852752685547 170.15475463867188 119.34793090820312 168.80230712890625 120.1719970703125 C167.86074829101562 120.74568939208984 167.46063232421875 120.6642837524414 166.82472229003906 119.75267028808594 C166.3020782470703 119.00271606445312 165.79635620117188 118.24066925048828 165.28639221191406 117.481689453125 C164.7764434814453 116.72271728515625 164.26226806640625 115.96681213378906 163.72274780273438 115.22914123535156 C162.7519989013672 113.90281677246094 161.74057006835938 112.59720611572266 160.64691162109375 111.3714828491211 C159.89479064941406 110.52796173095703 159.19598388671875 109.65142059326172 158.5504150390625 108.74227905273438 C157.90484619140625 107.83313751220703 157.31248474121094 106.89140319824219 156.77322387695312 105.91748809814453 C156.23397827148438 104.9435806274414 155.74783325195312 103.9375 155.314697265625 102.8996810913086 C154.68109130859375 101.38211059570312 153.8946533203125 99.97628784179688 152.9805450439453 98.6596450805664 C152.06643676757812 97.34300231933594 151.02464294433594 96.11555480957031 149.88031005859375 94.95471954345703 C149.670654296875 94.74275207519531 149.48941040039062 94.48163604736328 149.15072631835938 94.45320892333984 C149.1499481201172 94.45475006103516 149.05703735351562 94.40635681152344 149.05703735351562 94.40635681152344 L149.18605041503906 94.40406036376953"></path>
<path fill="#000000" fill-opacity="1.0"  filling="0" d="M136.28366088867188 105.17218017578125 C136.26290893554688 105.7796859741211 135.72146606445312 106.32188415527344 135.1116943359375 106.34569549560547 C134.4320068359375 106.37181091308594 133.81222534179688 105.76815032958984 133.8329620361328 105.09846496582031 C133.85369873046875 104.41339874267578 134.47885131835938 103.88117218017578 135.18617248535156 103.94876861572266 C135.8136444091797 104.00867462158203 136.30438232421875 104.55548095703125 136.28366088867188 105.17218017578125"></path>
<path fill="#000000" fill-opacity="1.0"  filling="0" d="M126.70514678955078 81.32270812988281 C126.65984344482422 82.01699829101562 126.0469741821289 82.51156616210938 125.33119201660156 82.43171691894531 C124.6929931640625 82.36027526855469 124.2429428100586 81.83268737792969 124.27749633789062 81.19599914550781 C124.31513214111328 80.496337890625 124.91879272460938 80.00483703613281 125.6384048461914 80.08699035644531 C126.25663757324219 80.15766906738281 126.74433135986328 80.72213745117188 126.70514678955078 81.32270812988281"></path>
<path fill="#000000" fill-opacity="1.0"  filling="0" d="M127.27116394042969 87.53583526611328 C127.97004699707031 87.58191680908203 128.45388793945312 88.1924819946289 128.36402893066406 88.91439819335938 C128.2887725830078 89.52188110351562 127.70278930664062 90.01801300048828 127.114501953125 89.97270202636719 C126.42406463623047 89.91971588134766 125.92870330810547 89.28994750976562 126.02009582519531 88.58030700683594 C126.10150146484375 87.94287872314453 126.63909912109375 87.49435424804688 127.27116394042969 87.53583526611328"></path>
<path fill="#000000" fill-opacity="1.0"  filling="0" d="M132.3545684814453 97.77557373046875 C132.3092498779297 98.48982238769531 131.7248077392578 98.96060180664062 130.99981689453125 98.86690521240234 C130.38003540039062 98.78703308105469 129.94764709472656 98.2479019165039 129.98757934570312 97.60430908203125 C130.02676391601562 96.97379302978516 130.5374755859375 96.49224090576172 131.16799926757812 96.49072265625 C131.8768768310547 96.48994445800781 132.400634765625 97.0567398071289 132.3545684814453 97.77557373046875"></path>
<path fill="#000000" fill-opacity="1.0"  filling="0" d="M115.99154663085938 72.30409240722656 C116.00460815429688 72.18428039550781 115.98847961425781 72.05218505859375 116.03456115722656 71.94696044921875 C116.30259704589844 71.33486938476562 116.56448364257812 70.71893310546875 116.8701400756836 70.12527465820312 C117.04754638671875 69.78044128417969 117.58131408691406 69.83343505859375 117.76179504394531 70.1851806640625 C117.78943634033203 70.23893737792969 117.8439712524414 70.28961181640625 117.84780883789062 70.34414672851562 C117.91922760009766 71.48463439941406 118.72716522216797 72.01686096191406 119.61573791503906 72.46690368652344 C120.75698852539062 73.04444885253906 121.91667175292969 73.58587646484375 123.05561065673828 74.16880798339844 C123.61241912841797 74.45372009277344 124.06477355957031 74.43684387207031 124.53324127197266 73.97372436523438 C125.37881469726562 73.13775634765625 126.22860717773438 72.306396484375 127.08137512207031 71.47810363769531 C127.93414306640625 70.64981079101562 128.78988647460938 69.82460021972656 129.64735412597656 69.00093078613281 C130.06361389160156 68.60079956054688 130.2563934326172 68.12002563476562 130.4099884033203 67.57858276367188 C130.5597381591797 67.05020141601562 130.8600311279297 66.93653869628906 131.39688110351562 67.15924072265625 C133.5726318359375 68.06242370605469 134.04800415039062 68.01712036132812 132.3069305419922 70.21896362304688 C131.62649536132812 71.07990264892578 130.9629364013672 71.95368957519531 130.32559204101562 72.84638977050781 C129.68826293945312 73.73908996582031 129.07711791992188 74.65070343017578 128.50149536132812 75.5872802734375 C128.24729919433594 76.00123596191406 127.9546890258789 76.39599609375 127.6421127319336 76.76847839355469 C127.3280029296875 77.14248657226562 126.94400024414062 77.19010925292969 126.50009155273438 76.92668151855469 C125.92486572265625 76.58493041992188 125.3734359741211 76.20399475097656 124.80128479003906 75.85763549804688 C124.4979248046875 75.674072265625 124.19302368164062 75.75779724121094 123.98490142822266 76.0166015625 C123.56634521484375 76.53959655761719 123.19078826904297 77.09642028808594 122.77606201171875 77.62249755859375 C122.50880432128906 77.96194458007812 122.1585922241211 77.97576904296875 121.80070495605469 77.75996398925781 C121.59257507324219 77.63478088378906 121.37831115722656 77.51034545898438 121.19783020019531 77.35061645507812 C120.39987182617188 76.64289855957031 119.60345458984375 75.93345642089844 118.80799865722656 75.22286987304688 C118.01254272460938 74.51228332519531 117.21804809570312 73.800537109375 116.42393493652344 73.08821105957031 C116.19122314453125 72.88087463378906 116.0391616821289 72.61819458007812 115.99154663085938 72.30409240722656"></path></svg>