<svg xmlns="http://www.w3.org/2000/svg" viewBox="0.0 0.0 256.0 256.0" height="256.0px" width="256.0px"><path fill="#e5c0ae" fill-opacity="1.0"  filling="0" d="M148.4499969482422 115.30000305175781 C148.5833282470703 113.97500610351562 148.5958251953125 112.56111145019531 148.52407836914062 111.09791564941406 C148.4523162841797 109.63471984863281 148.29629516601562 108.12222290039062 148.09259033203125 106.5999984741211 C147.88888549804688 105.07777404785156 147.6374969482422 103.54582977294922 147.375 102.04374694824219 C147.1125030517578 100.54166412353516 146.83889770507812 99.06944274902344 146.5907440185547 97.66666412353516 C146.34259033203125 96.26388549804688 146.11990356445312 94.93054962158203 145.95925903320312 93.70624542236328 C145.79861450195312 92.48194122314453 145.6999969482422 91.36666870117188 145.6999969482422 90.4000015258789 C145.6999969482422 90.19999694824219 145.6999969482422 90.0 145.6999969482422 89.5999984741211 C146.3000030517578 89.0 147.10000610351562 87.6500015258789 147.10000610351562 86.6500015258789 C147.10000610351562 85.25 147.64999389648438 82.05000305175781 147.5 82.05000305175781 C147.3000030517578 81.8499984741211 146.3000030517578 83.25 145.89999389648438 84.44999694824219 C145.89999389648438 84.25 145.6999969482422 84.05000305175781 145.6999969482422 83.8499984741211 C145.39999389648438 83.14999389648438 145.10000610351562 81.79999542236328 144.77499389648438 80.67499542236328 C144.4499969482422 79.54999542236328 144.10000610351562 78.64999389648438 143.6999969482422 78.8499984741211 C143.5 79.05000305175781 143.6999969482422 81.44999694824219 144.10000610351562 82.6500015258789 C143.5 80.25 142.6999969482422 78.44999694824219 142.3000030517578 78.6500015258789 C142.10000610351562 78.8499984741211 142.5 82.6500015258789 142.5 83.44999694824219 C141.89999389648438 81.05000305175781 141.89999389648438 79.05000305175781 141.10000610351562 79.25 C140.89999389648438 79.44999694824219 141.10000610351562 83.25 141.10000610351562 83.6500015258789 C140.89999389648438 83.25 140.5 80.05000305175781 140.3000030517578 80.25 C139.5 81.05000305175781 139.89999389648438 84.05000305175781 139.89999389648438 84.6500015258789 C140.0 84.94999694824219 139.8000030517578 85.1500015258789 139.72500610351562 85.9937515258789 C139.65000915527344 86.83749389648438 139.70001220703125 88.32499694824219 140.3000030517578 91.19999694824219 C140.26666259765625 91.83332824707031 140.23333740234375 92.90833282470703 140.1999969482422 94.2750015258789 C140.1666717529297 95.64167022705078 140.13333129882812 97.30000305175781 140.10000610351562 99.0999984741211 C140.06668090820312 100.89999389648438 140.03334045410156 102.84166717529297 140.0 104.77499389648438 C139.9666748046875 106.70832824707031 139.93333435058594 108.63333129882812 139.89999389648438 110.39999389648438 C139.86666870117188 112.16665649414062 139.8333282470703 113.77499389648438 139.79998779296875 115.07499694824219 C139.76666259765625 116.375 139.73333740234375 117.36666870117188 139.6999969482422 117.9000015258789 C139.66000366210938 118.58000183105469 139.71600341796875 119.85600280761719 139.84559631347656 121.46880340576172 C139.97518920898438 123.08160400390625 140.1783905029297 125.03120422363281 140.43280029296875 127.05840301513672 C140.68719482421875 129.08560180664062 140.9927978515625 131.19039916992188 141.3271942138672 133.1136016845703 C141.66159057617188 135.03680419921875 142.02479553222656 136.77841186523438 142.39439392089844 138.07920837402344 C142.76400756835938 139.3800048828125 143.13999938964844 140.239990234375 143.5 140.39999389648438 C145.0833282470703 141.13333129882812 146.80555725097656 141.22222900390625 148.3981475830078 141.0148162841797 C149.99073791503906 140.80740356445312 151.45370483398438 140.3037109375 152.51852416992188 139.8518524169922 C153.5833282470703 139.39999389648438 154.25 139.0 154.25 139.0 C153.85000610351562 138.27999877929688 153.3780059814453 136.89999389648438 152.87879943847656 135.15280151367188 C152.37960815429688 133.40560913085938 151.8531951904297 131.29119873046875 151.3444061279297 129.10240173339844 C150.83560180664062 126.91360473632812 150.3444061279297 124.65040588378906 149.9156036376953 122.60560607910156 C149.48680114746094 120.56080627441406 149.12039184570312 118.73440551757812 148.8612060546875 117.41920471191406 C148.60198974609375 116.10400390625 148.4499969482422 115.30000305175781 148.4499969482422 115.30000305175781"></path>
<path fill="#9f8a91" fill-opacity="1.0"  filling="0" d="M155.85000610351562 140.60000610351562 C155.75 140.0 155.0 138.1125030517578 154.22500610351562 136.1750030517578 C153.4499969482422 134.2375030517578 152.64999389648438 132.25 152.4499969482422 131.4499969482422 C151.38333129882812 132.96665954589844 149.56666564941406 134.0 147.61851501464844 134.70370483398438 C145.67037963867188 135.40740966796875 143.5907440185547 135.78147888183594 141.99815368652344 135.97962951660156 C140.4055633544922 136.1777801513672 139.3000030517578 136.1999969482422 139.3000030517578 136.1999969482422 L139.60000610351562 139.1999969482422 L139.89999389648438 142.1999969482422 C139.89999389648438 142.1999969482422 140.5 142.68333435058594 141.45370483398438 143.32777404785156 C142.40740966796875 143.97222900390625 143.71481323242188 144.77777099609375 145.129638671875 145.42222595214844 C146.54444885253906 146.06666564941406 148.06666564941406 146.5500030517578 149.4499969482422 146.5500030517578 C151.64999389648438 146.5500030517578 153.25 145.0625 154.3000030517578 143.57501220703125 C155.35000610351562 142.08750915527344 155.85000610351562 140.60000610351562 155.85000610351562 140.60000610351562"></path>
<path fill="#d3a994" fill-opacity="1.0"  filling="0" d="M105.44999694824219 137.60000610351562 C105.54999542236328 138.36666870117188 105.85416412353516 139.4250030517578 106.33148193359375 140.67222595214844 C106.80879974365234 141.91944885253906 107.45925903320312 143.35556030273438 108.2518539428711 144.87777709960938 C109.04444885253906 146.39999389648438 109.97917175292969 148.00833129882812 111.0250015258789 149.59999084472656 C112.07083892822266 151.19166564941406 113.227783203125 152.76666259765625 114.4648208618164 154.2222137451172 C115.70185852050781 155.67776489257812 117.01898956298828 157.01388549804688 118.38519287109375 158.12777709960938 C119.75138854980469 159.24166870117188 121.16667175292969 160.13333129882812 122.5999984741211 160.6999969482422 C124.73749542236328 161.5 126.46562194824219 161.11561584472656 127.85546112060547 160.08905029296875 C129.24530029296875 159.06248474121094 130.296875 157.39373779296875 131.08123779296875 155.62498474121094 C131.86561584472656 153.85623168945312 132.3828125 151.98748779296875 132.7039031982422 150.56092834472656 C133.02499389648438 149.13436889648438 133.14999389648438 148.14999389648438 133.14999389648438 148.14999389648438 C133.14999389648438 148.14999389648438 132.90554809570312 147.022216796875 132.54998779296875 145.44444274902344 C132.19442749023438 143.86666870117188 131.72776794433594 141.83888244628906 131.2833251953125 140.03887939453125 C130.83888244628906 138.2388916015625 130.41665649414062 136.66665649414062 130.14999389648438 136.0 C130.04998779296875 135.63333129882812 129.29722595214844 135.43333435058594 128.11203002929688 135.35462951660156 C126.92684936523438 135.2759246826172 125.30925750732422 135.3185272216797 123.47962951660156 135.43704223632812 C121.6500015258789 135.55555725097656 119.60832977294922 135.75 117.57499694824219 135.97500610351562 C115.54166412353516 136.20001220703125 113.51666259765625 136.45556640625 111.72036743164062 136.69630432128906 C109.924072265625 136.93704223632812 108.35647583007812 137.1629638671875 107.23796081542969 137.32870483398438 C106.11944580078125 137.49444580078125 105.44999694824219 137.60000610351562 105.44999694824219 137.60000610351562"></path>
<path fill="#9f8a91" fill-opacity="1.0"  filling="0" d="M134.75 56.349998474121094 C134.35000610351562 55.19999694824219 132.9499969482422 53.0 134.35000610351562 51.80000305175781 C135.4250030517578 50.900001525878906 137.1125030517578 50.75 138.8562469482422 50.650001525878906 C140.60000610351562 50.54999923706055 142.39999389648438 50.5 143.6999969482422 49.80000305175781 C145.10000610351562 49.10000228881836 147.03750610351562 48.35000228881836 148.8000030517578 47.95000076293945 C150.5625 47.55000305175781 152.14999389648438 47.5 152.85000610351562 48.19999694824219 C153.64999389648438 49.0 153.64999389648438 50.599998474121094 152.85000610351562 51.19999694824219 C152.65000915527344 51.29999542236328 151.41876220703125 51.671871185302734 149.6843719482422 52.17343521118164 C147.9499969482422 52.67499923706055 145.71249389648438 53.30624771118164 143.5 53.92499923706055 C141.28750610351562 54.54374694824219 139.10000610351562 55.14999771118164 137.4656219482422 55.6015625 C135.8312530517578 56.053123474121094 134.75 56.349998474121094 134.75 56.349998474121094"></path>
<path fill="#bfb0b5" fill-opacity="1.0"  filling="0" d="M137.89999389648438 60.94999694824219 C137.02499389648438 59.94999694824219 135.9375 58.64999771118164 135.1437530517578 57.33124923706055 C134.35000610351562 56.01249694824219 133.85000610351562 54.67499923706055 134.14999389648438 53.599998474121094 C134.73748779296875 53.0 135.4406280517578 52.724998474121094 136.31092834472656 52.578125 C137.18124389648438 52.43124771118164 138.21875 52.412498474121094 139.47500610351562 52.32499694824219 C140.73126220703125 52.23749542236328 142.2062530517578 52.08124923706055 143.95156860351562 51.65937423706055 C145.69686889648438 51.23749923706055 147.71249389648438 50.55000305175781 150.0500030517578 49.400001525878906 C152.35000610351562 48.900001525878906 153.25 49.650001525878906 153.3249969482422 50.60000228881836 C153.39999389648438 51.55000305175781 152.64999389648438 52.70000076293945 151.64999389648438 53.0 C150.35000610351562 53.5 148.91250610351562 54.4375 147.72500610351562 55.599998474121094 C146.53750610351562 56.76250076293945 145.60000610351562 58.150001525878906 145.3000030517578 59.55000305175781 C145.10000610351562 61.05000305175781 143.25 61.400001525878906 141.4499969482422 61.375 C139.64999389648438 61.349998474121094 137.89999389648438 60.94999694824219 137.89999389648438 60.94999694824219"></path>
<path fill="#16167c" fill-opacity="1.0"  filling="0" d="M133.14999389648438 56.150001525878906 C132.83888244628906 57.150001525878906 132.41233825683594 58.3358039855957 131.8984832763672 59.66118240356445 C131.38462829589844 60.9865608215332 130.78346252441406 62.45151138305664 130.12310791015625 64.00981140136719 C129.46275329589844 65.56810760498047 128.7432098388672 67.21975708007812 127.99259185791016 68.91851806640625 C127.24197387695312 70.61727905273438 126.46028900146484 72.36316680908203 125.67565155029297 74.10993957519531 C124.8910140991211 75.8567123413086 124.10342407226562 77.60438537597656 123.34101104736328 79.30671691894531 C122.57859802246094 81.00904846191406 121.84135437011719 82.66604614257812 121.15740203857422 84.23147583007812 C120.47344970703125 85.79690551757812 119.8427963256836 87.2707748413086 119.29354858398438 88.60684967041016 C118.74430084228516 89.94293212890625 118.2764663696289 91.1412124633789 117.91816711425781 92.15547943115234 C117.55987548828125 93.16974639892578 117.31111145019531 94.0 117.19999694824219 94.5999984741211 C117.07499694824219 95.2750015258789 116.79452514648438 96.09843444824219 116.39511108398438 97.04950714111328 C115.99569702148438 98.00057983398438 115.47734069824219 99.07929229736328 114.87655639648438 100.26483917236328 C114.27577209472656 101.45038604736328 113.59257507324219 102.7427749633789 112.86347198486328 104.1211929321289 C112.13436889648438 105.4996109008789 111.35936737060547 106.96406555175781 110.57499694824219 108.4937515258789 C109.79061889648438 110.0234375 108.99687194824219 111.61836242675781 108.23027038574219 113.2577133178711 C107.46366882324219 114.8970718383789 106.72421264648438 116.58085632324219 106.0484390258789 118.28828430175781 C105.3726577758789 119.9957046508789 104.76054382324219 121.72676086425781 104.2486343383789 123.46064758300781 C103.7367172241211 125.19453430175781 103.32499694824219 126.93124389648438 103.05000305175781 128.64999389648438 C102.76250457763672 130.6374969482422 102.71875 132.55313110351562 102.85234832763672 134.3273468017578 C102.9859390258789 136.1015625 103.296875 137.734375 103.71875 139.15625 C104.140625 140.578125 104.6734390258789 141.7890625 105.25077819824219 142.7195281982422 C105.828125 143.64999389648438 106.44999694824219 144.3000030517578 107.05000305175781 144.60000610351562 L111.31001281738281 143.0800018310547 L115.57000732421875 141.5600128173828 L119.83001708984375 140.04000854492188 L124.09001159667969 138.52000427246094 L128.35000610351562 137.0 C128.35000610351562 137.0 127.89600372314453 136.8419952392578 127.2256088256836 136.45199584960938 C126.55520629882812 136.06199645996094 125.66841125488281 135.44000244140625 124.80280303955078 134.51199340820312 C123.93720245361328 133.58399963378906 123.09280395507812 132.34999084472656 122.5072021484375 130.73599243164062 C121.92160034179688 129.1219940185547 121.59480285644531 127.12799072265625 121.764404296875 124.67999267578125 C121.93400573730469 122.23199462890625 122.60000610351562 119.33000183105469 124.0 115.9000015258789 C124.48750305175781 114.7125015258789 124.9906234741211 113.40937805175781 125.49609375 112.02031707763672 C126.0015640258789 110.63125610351562 126.50936889648438 109.15625 127.0062484741211 107.625 C127.50312042236328 106.09375 127.98905944824219 104.5062484741211 128.45077514648438 102.8921890258789 C128.91249084472656 101.27812194824219 129.35000610351562 99.63749694824219 129.75 98.0 C129.9499969482422 97.17500305175781 130.36172485351562 96.02734375 130.92832946777344 94.64863586425781 C131.49493408203125 93.26992797851562 132.21641540527344 91.66015625 133.03594970703125 89.91094207763672 C133.85548400878906 88.1617202758789 134.77305603027344 86.2730484008789 135.73184204101562 84.3365249633789 C136.6906280517578 82.4000015258789 137.6906280517578 80.4156265258789 138.6750030517578 78.4749984741211 C139.6593780517578 76.53437805175781 140.6281280517578 74.63749694824219 141.5244140625 72.8759765625 C142.4207000732422 71.11445617675781 143.24452209472656 69.48828125 143.93905639648438 68.08906555175781 C144.6335906982422 66.68984985351562 145.19882202148438 65.517578125 145.5779266357422 64.66387176513672 C145.95703125 63.810157775878906 146.14999389648438 63.275001525878906 146.10000610351562 63.150001525878906 C145.70001220703125 61.80000305175781 144.6906280517578 60.6875 143.4015655517578 59.77812576293945 C142.1125030517578 58.868751525878906 140.5437469482422 58.162498474121094 139.02499389648438 57.625 C137.50625610351562 57.087501525878906 136.03750610351562 56.71875 134.9484405517578 56.484375 C133.859375 56.25 133.14999389648438 56.150001525878906 133.14999389648438 56.150001525878906"></path>
<path fill="#9f8a91" fill-opacity="1.0"  filling="0" d="M140.6999969482422 139.8000030517578 C141.36666870117188 139.8000030517578 142.4499969482422 139.84445190429688 143.84259033203125 139.8000030517578 C145.2351837158203 139.75555419921875 146.93704223632812 139.62222290039062 148.8407440185547 139.26666259765625 C150.74444580078125 138.91110229492188 152.85000610351562 138.3333282470703 155.0500030517578 137.39999389648438 C155.5500030517578 138.39999389648438 156.1999969482422 140.14999389648438 156.64999389648438 141.7937469482422 C157.10000610351562 143.4375 157.35000610351562 144.97500610351562 157.0500030517578 145.5500030517578 C156.9166717529297 145.88333129882812 156.02777099609375 146.50555419921875 154.82962036132812 147.19444274902344 C153.6314697265625 147.88333129882812 152.1240692138672 148.63888549804688 150.7537078857422 149.2388916015625 C149.38333129882812 149.83888244628906 148.14999389648438 150.2833251953125 147.5 150.35000610351562 C146.8333282470703 150.35000610351562 145.85556030273438 149.1777801513672 144.84814453125 147.6148223876953 C143.84072875976562 146.05184936523438 142.80369567871094 144.09814453125 142.0185089111328 142.53518676757812 C141.23333740234375 140.97222900390625 140.6999969482422 139.8000030517578 140.6999969482422 139.8000030517578"></path>
<path fill="#d3a994" fill-opacity="1.0"  filling="0" d="M146.10000610351562 147.75 C147.4166717529297 148.48333740234375 149.11666870117188 148.2888946533203 150.79815673828125 147.70370483398438 C152.47964477539062 147.1185302734375 154.14259338378906 146.14259338378906 155.38519287109375 145.31297302246094 C156.62777709960938 144.48333740234375 157.4499969482422 143.8000030517578 157.4499969482422 143.8000030517578 L158.36666870117188 147.78334045410156 L159.28334045410156 151.76666259765625 L160.1999969482422 155.75 C160.1999969482422 155.75 159.91561889648438 155.8093719482422 159.38905334472656 156.0421905517578 C158.86248779296875 156.27500915527344 158.09375 156.68125915527344 157.125 157.375 C156.15625 158.06875610351562 154.9875030517578 159.0500030517578 153.6609344482422 160.4328155517578 C152.33438110351562 161.8156280517578 150.85000610351562 163.60000610351562 149.25 165.89999389648438 C149.0500030517578 166.1999969482422 148.7531280517578 165.2156219482422 148.42031860351562 163.5703125 C148.08750915527344 161.9250030517578 147.71875 159.61875915527344 147.375 157.27500915527344 C147.03125 154.93125915527344 146.71249389648438 152.5500030517578 146.4796905517578 150.75469970703125 C146.24688720703125 148.95938110351562 146.10000610351562 147.75 146.10000610351562 147.75"></path>
<path fill="#d3a994" fill-opacity="1.0"  filling="0" d="M152.25 165.6999969482422 C152.0833282470703 168.0500030517578 151.834716796875 170.2083282470703 151.53334045410156 172.19189453125 C151.23194885253906 174.1754608154297 150.87777709960938 175.9842529296875 150.5 177.6351776123047 C150.12222290039062 179.28610229492188 149.7208251953125 180.77915954589844 149.3249969482422 182.13124084472656 C148.9291534423828 183.4833221435547 148.53887939453125 184.69444274902344 148.18331909179688 185.78147888183594 C147.8277587890625 186.86851501464844 147.50692749023438 187.83148193359375 147.25 188.68727111816406 C146.9930419921875 189.54306030273438 146.79998779296875 190.29165649414062 146.6999969482422 190.9499969482422 C146.45999145507812 192.8300018310547 146.21200561523438 194.6439971923828 145.97520446777344 196.39080810546875 C145.7384033203125 198.13760375976562 145.51280212402344 199.81719970703125 145.31759643554688 201.42840576171875 C145.12240600585938 203.03961181640625 144.95761108398438 204.58241271972656 144.8424072265625 206.05560302734375 C144.72720336914062 207.52880859375 144.66160583496094 208.93240356445312 144.66481018066406 210.2652130126953 C144.66799926757812 211.59800720214844 144.739990234375 212.86001586914062 144.89999389648438 214.0500030517578 C145.29998779296875 216.35000610351562 144.0 216.6999969482422 142.59999084472656 216.47499084472656 C141.1999969482422 216.25 139.6999969482422 215.4499969482422 139.6999969482422 215.4499969482422 C139.6999969482422 215.4499969482422 139.5513916015625 215.01943969726562 139.3192138671875 214.24745178222656 C139.0870361328125 213.4754638671875 138.77130126953125 212.36203002929688 138.43704223632812 210.9962921142578 C138.102783203125 209.63055419921875 137.75 208.0124969482422 137.44375610351562 206.2312469482422 C137.1374969482422 204.4499969482422 136.87777709960938 202.50555419921875 136.72962951660156 200.48703002929688 C136.58148193359375 198.468505859375 136.54490661621094 196.37591552734375 136.68495178222656 194.29837036132812 C136.82501220703125 192.2208251953125 137.14166259765625 190.1583251953125 137.6999969482422 188.1999969482422 C137.8333282470703 187.73333740234375 137.94444274902344 186.6972198486328 138.0564727783203 185.29443359375 C138.16851806640625 183.89166259765625 138.28147888183594 182.12220764160156 138.41851806640625 180.1888885498047 C138.55555725097656 178.25555419921875 138.71665954589844 176.1583251953125 138.9250030517578 174.10000610351562 C139.13333129882812 172.0416717529297 139.38888549804688 170.02223205566406 139.71481323242188 168.24444580078125 C140.04074096679688 166.4666748046875 140.43702697753906 164.93055725097656 140.92684936523438 163.83889770507812 C141.41665649414062 162.74722290039062 142.0 162.10000610351562 142.6999969482422 162.10000610351562 C144.09999084472656 162.03334045410156 145.62777709960938 162.41111755371094 147.04258728027344 162.94444274902344 C148.4573974609375 163.477783203125 149.75926208496094 164.16665649414062 150.70741271972656 164.7222137451172 C151.65554809570312 165.27777099609375 152.25 165.6999969482422 152.25 165.6999969482422"></path>
<path fill="#9f8a91" fill-opacity="1.0"  filling="0" d="M113.8499984741211 94.0 C113.14999389648438 93.80000305175781 112.14999389648438 93.5999984741211 111.27499389648438 93.19999694824219 C110.39999389648438 92.79999542236328 109.64999389648438 92.19999694824219 109.44999694824219 91.19999694824219 C109.38333129882812 91.0 109.80555725097656 90.22777557373047 110.41851806640625 89.16851806640625 C111.03147888183594 88.1092529296875 111.8351821899414 86.7629623413086 112.53147888183594 85.41481018066406 C113.22777557373047 84.06666564941406 113.81666564941406 82.71666717529297 114.0 81.6500015258789 C114.19999694824219 80.51667022705078 114.64444732666016 79.0999984741211 115.19258880615234 77.71481323242188 C115.74073791503906 76.32962799072266 116.39259338378906 74.97592163085938 117.00740814208984 73.96852111816406 C117.62222290039062 72.96111297607422 118.19999694824219 72.30000305175781 118.5999984741211 72.30000305175781 C119.5999984741211 72.30000305175781 121.0 73.0999984741211 121.0 74.0999984741211 C120.95999908447266 74.33999633789062 120.6500015258789 75.27999877929688 120.17960357666016 76.63040161132812 C119.7092056274414 77.98080444335938 119.07839965820312 79.7416000366211 118.39680480957031 81.62319946289062 C117.71520233154297 83.50479888916016 116.98280334472656 85.5072021484375 116.3092041015625 87.34080505371094 C115.63560485839844 89.17440795898438 115.02079772949219 90.83920288085938 114.57440185546875 92.04560089111328 C114.12799835205078 93.25199890136719 113.8499984741211 94.0 113.8499984741211 94.0"></path>
<path fill="#bfb0b5" fill-opacity="1.0"  filling="0" d="M120.0 94.19999694824219 C118.4000015258789 94.30000305175781 116.51249694824219 94.4000015258789 114.82499694824219 94.2249984741211 C113.13749694824219 94.05000305175781 111.64999389648438 93.5999984741211 110.8499984741211 92.5999984741211 C111.0999984741211 91.80000305175781 111.55937194824219 91.015625 112.1328125 90.12109375 C112.70625305175781 89.2265625 113.39375305175781 88.22187805175781 114.0999984741211 86.98124694824219 C114.80624389648438 85.7406234741211 115.53125 84.2640609741211 116.1796875 82.42578125 C116.828125 80.58749389648438 117.4000015258789 78.38749694824219 117.80000305175781 75.69999694824219 C119.0 73.39999389648438 120.05000305175781 72.8499984741211 120.6500015258789 73.2249984741211 C121.25 73.5999984741211 121.4000015258789 74.9000015258789 120.80000305175781 76.30000305175781 C120.53333282470703 76.95000457763672 120.51111602783203 78.00555419921875 120.68148040771484 79.20555877685547 C120.85185241699219 80.40555572509766 121.21481323242188 81.75 121.71852111816406 82.97777557373047 C122.22222137451172 84.20555877685547 122.86666870117188 85.31666564941406 123.5999984741211 86.05000305175781 C124.67500305175781 87.25 123.7750015258789 89.2874984741211 122.60624694824219 91.02499389648438 C121.4375 92.76249694824219 120.0 94.19999694824219 120.0 94.19999694824219"></path>
<path fill="#16167c" fill-opacity="1.0"  filling="0" d="M117.19999694824219 138.1999969482422 C116.8499984741211 136.8125 116.75 135.19686889648438 116.85624694824219 133.5078125 C116.9625015258789 131.81874084472656 117.2750015258789 130.05624389648438 117.75 128.375 C118.2249984741211 126.69374084472656 118.86249542236328 125.09374237060547 119.61874389648438 123.72968292236328 C120.375 122.3656234741211 121.25 121.23750305175781 122.19999694824219 120.5 C123.08749389648438 119.75 124.2406234741211 118.94999694824219 125.5023422241211 118.13203430175781 C126.7640609741211 117.3140640258789 128.13438415527344 116.4781265258789 129.4562530517578 115.65625 C130.77813720703125 114.8343734741211 132.05157470703125 114.02656555175781 133.11953735351562 113.26484680175781 C134.1875 112.50312805175781 135.0500030517578 111.78750610351562 135.5500030517578 111.1500015258789 C136.35000610351562 110.3499984741211 137.10000610351562 111.5 137.10000610351562 111.5 L136.35000610351562 109.94999694824219 L137.5 109.1500015258789 C137.5 109.1500015258789 136.96388244628906 109.01111602783203 136.0537109375 108.73912048339844 C135.14352416992188 108.46713256835938 133.85926818847656 108.0620346069336 132.3629608154297 107.52963256835938 C130.86666870117188 106.99722290039062 129.1583251953125 106.3375015258789 127.4000015258789 105.5562515258789 C125.64167022705078 104.7750015258789 123.83333587646484 103.87222290039062 122.13703918457031 102.85370635986328 C120.44074249267578 101.83518981933594 118.85648345947266 100.700927734375 117.54629516601562 99.45671081542969 C116.23611450195312 98.2125015258789 115.19999694824219 96.85833740234375 114.5999984741211 95.4000015258789 C114.5999984741211 95.4000015258789 115.13333129882812 94.56111145019531 116.00740814208984 93.35370635986328 C116.88148498535156 92.14630126953125 118.09629821777344 90.57037353515625 119.45925903320312 89.09629821777344 C120.82221984863281 87.62222290039062 122.33333587646484 86.25 123.80000305175781 85.44999694824219 C124.79286193847656 87.18571472167969 126.05816650390625 88.78265380859375 127.500732421875 90.25145721435547 C128.94329833984375 91.72026062011719 130.56312561035156 93.0609359741211 132.2650146484375 94.28411102294922 C133.96690368652344 95.50728607177734 135.75086975097656 96.61297607421875 137.52171325683594 97.61180877685547 C139.2925567626953 98.61064147949219 141.05029296875 99.50262451171875 142.69970703125 100.29839324951172 C144.34912109375 101.09416961669922 145.89022827148438 101.79373168945312 147.22784423828125 102.40772247314453 C148.56546020507812 103.02171325683594 149.69955444335938 103.55014038085938 150.5349884033203 104.0036392211914 C151.3704071044922 104.45713806152344 151.90713500976562 104.83570861816406 152.0500030517578 105.1500015258789 C152.85000610351562 106.75 153.4499969482422 107.3499984741211 152.85000610351562 109.3499984741211 C152.30714416503906 111.22856903076172 151.62245178222656 112.88265228271484 150.8307647705078 114.35670471191406 C150.03907775878906 115.83075714111328 149.140380859375 117.1247787475586 148.16954040527344 118.28323364257812 C147.19869995117188 119.44168853759766 146.1556854248047 120.4645767211914 145.0753631591797 121.39635467529297 C143.9950408935547 122.32813262939453 142.87741088867188 123.1688003540039 141.75729370117188 123.96282958984375 C140.63717651367188 124.75685119628906 139.51458740234375 125.50422668457031 138.42434692382812 126.2494125366211 C137.3341064453125 126.99459838867188 136.2762451171875 127.73760986328125 135.28558349609375 128.52288818359375 C134.29490661621094 129.30816650390625 133.37142944335938 130.13571166992188 132.5500030517578 131.0500030517578 C132.25 132.25 132.14999389648438 133.9375 132.125 135.3249969482422 C132.09999084472656 136.71249389648438 132.14999389648438 137.8000030517578 132.14999389648438 137.8000030517578 L127.16666412353516 137.93333435058594 L122.18333435058594 138.06666564941406 L117.19999694824219 138.1999969482422"></path>
<path fill="#9f8a91" fill-opacity="1.0"  filling="0" d="M143.25 170.89999389648438 C141.8800048828125 170.94000244140625 140.4340057373047 170.91799926757812 138.9355926513672 170.82359313964844 C137.43719482421875 170.72918701171875 135.8863983154297 170.56239318847656 134.30679321289062 170.3127899169922 C132.72718811035156 170.0631866455078 131.11878967285156 169.7307891845703 129.50518798828125 169.30519104003906 C127.89159393310547 168.8795928955078 126.27279663085938 168.3607940673828 124.67239379882812 167.7384033203125 C123.0719985961914 167.11599731445312 121.48999786376953 166.3900146484375 119.94999694824219 165.5500030517578 C117.54000091552734 164.1999969482422 115.48799896240234 162.94000244140625 113.72599792480469 161.75640869140625 C111.96399688720703 160.57281494140625 110.49199676513672 159.46560668945312 109.24199676513672 158.42120361328125 C107.99199676513672 157.37680053710938 106.96400451660156 156.39520263671875 106.09000396728516 155.46279907226562 C105.21600341796875 154.5303955078125 104.49600219726562 153.64720153808594 103.86200714111328 152.7996063232422 C103.2280044555664 151.95201110839844 102.68000793457031 151.1400146484375 102.1500015258789 150.35000610351562 C102.9749984741211 150.1750030517578 104.05937194824219 149.75 105.27030944824219 149.1484375 C106.48124694824219 148.546875 107.8187484741211 147.7687530517578 109.1500015258789 146.8874969482422 C110.48124694824219 146.00625610351562 111.8062515258789 145.02188110351562 112.9921875 144.0078125 C114.17813110351562 142.99374389648438 115.22500610351562 141.9499969482422 116.0 140.9499969482422 C117.2699966430664 139.16000366210938 118.3219985961914 137.58599853515625 119.25399780273438 136.20399475097656 C120.18599700927734 134.82199096679688 120.99800109863281 133.63198852539062 121.78800201416016 132.61000061035156 C122.5780029296875 131.58799743652344 123.34600067138672 130.73399353027344 124.19000244140625 130.0240020751953 C125.03400421142578 129.31399536132812 125.9540023803711 128.7480010986328 127.04800415039062 128.302001953125 C128.14199829101562 127.85600280761719 129.41000366210938 127.52999877929688 130.9499969482422 127.30000305175781 C132.375 128.8625030517578 133.28125 130.0906219482422 134.04452514648438 131.09609985351562 C134.80780029296875 132.1015625 135.42811584472656 132.88438415527344 136.28125 133.55625915527344 C137.13436889648438 134.22811889648438 138.22030639648438 134.7890625 139.9148406982422 135.3507843017578 C141.609375 135.91250610351562 143.91250610351562 136.47500610351562 147.1999969482422 137.14999389648438 C148.29998779296875 137.35000610351562 149.72499084472656 138.1875 150.74374389648438 139.46875 C151.7624969482422 140.75 152.375 142.47500610351562 151.85000610351562 144.4499969482422 C151.72500610351562 145.02499389648438 150.6125030517578 145.58749389648438 149.75 146.65625 C148.8874969482422 147.72500610351562 148.27499389648438 149.29998779296875 149.14999389648438 151.89999389648438 C149.8249969482422 153.22500610351562 150.53750610351562 154.33749389648438 151.3562469482422 155.33750915527344 C152.1750030517578 156.33750915527344 153.10000610351562 157.22500610351562 154.1999969482422 158.10000610351562 C154.3249969482422 159.125 153.77499389648438 160.71249389648438 153.30624389648438 162.2937469482422 C152.83749389648438 163.875 152.4499969482422 165.4499969482422 152.89999389648438 166.4499969482422 C152.46665954589844 168.4499969482422 151.66111755371094 169.61111450195312 150.64259338378906 170.27037048339844 C149.62408447265625 170.92962646484375 148.39259338378906 171.0870361328125 147.10740661621094 171.07962036132812 C145.8222198486328 171.0722198486328 144.48333740234375 170.89999389648438 143.25 170.89999389648438"></path>
<path fill="#9f8a91" fill-opacity="1.0"  filling="0" d="M150.0500030517578 160.3000030517578 C151.18333435058594 159.8333282470703 152.09445190429688 160.1888885498047 152.78334045410156 160.99444580078125 C153.47222900390625 161.79998779296875 153.93890380859375 163.0555419921875 154.18333435058594 164.38888549804688 C154.4277801513672 165.7222137451172 154.45001220703125 167.13333129882812 154.25 168.25 C153.9166717529297 169.71665954589844 153.5611114501953 171.46665954589844 153.18333435058594 173.20741271972656 C152.80555725097656 174.94815063476562 152.40554809570312 176.67962646484375 151.98333740234375 178.1092529296875 C151.5611114501953 179.53887939453125 151.11666870117188 180.66665649414062 150.64999389648438 181.1999969482422 C149.46665954589844 181.46665954589844 147.63333129882812 181.20555114746094 145.6703643798828 180.77407836914062 C143.7073974609375 180.34259033203125 141.61480712890625 179.74075317382812 139.9129638671875 179.325927734375 C138.21112060546875 178.91111755371094 136.89999389648438 178.68333435058594 136.5 179.0 C136.5500030517578 177.71249389648438 136.58749389648438 176.0500030517578 136.66249084472656 174.2804718017578 C136.73748779296875 172.5109405517578 136.84999084472656 170.63438415527344 137.04998779296875 168.9187469482422 C137.25 167.203125 137.53749084472656 165.6484375 137.96249389648438 164.5226593017578 C138.3874969482422 163.39688110351562 138.9499969482422 162.6999969482422 139.6999969482422 162.6999969482422 C140.6999969482422 162.6999969482422 142.18333435058594 162.43333435058594 143.71665954589844 162.07777404785156 C145.25 161.72222900390625 146.83334350585938 161.27777099609375 148.03334045410156 160.92222595214844 C149.23333740234375 160.56666564941406 150.0500030517578 160.3000030517578 150.0500030517578 160.3000030517578"></path>
<path fill="#e5c0ae" fill-opacity="1.0"  filling="0" d="M164.60000610351562 138.0 C165.85000610351562 137.85000610351562 167.27188110351562 138.27186584472656 168.61407470703125 139.06405639648438 C169.9562530517578 139.8562469482422 171.21875 141.01873779296875 172.15000915527344 142.34999084472656 C173.08126831054688 143.68124389648438 173.68125915527344 145.18124389648438 173.6984405517578 146.6484375 C173.71563720703125 148.11561584472656 173.14999389648438 149.54998779296875 171.75 150.75 C169.16250610351562 152.9875030517578 166.77499389648438 154.2937469482422 164.6492156982422 154.99453735351562 C162.5234375 155.6953125 160.65936279296875 155.79063415527344 159.11874389648438 155.6062469482422 C157.578125 155.421875 156.36093139648438 154.9578094482422 155.52890014648438 154.5398406982422 C154.69686889648438 154.1218719482422 154.25 153.75 154.25 153.75 C153.4499969482422 153.0500030517578 152.6999969482422 152.39999389648438 152.10000610351562 151.64999389648438 C151.5 150.89999389648438 151.0500030517578 150.04998779296875 150.85000610351562 148.9499969482422 C150.75 148.4499969482422 151.1999969482422 147.75 151.84999084472656 146.9812469482422 C152.5 146.21249389648438 153.35000610351562 145.375 154.0500030517578 144.60000610351562 C153.64999389648438 143.8000030517578 153.4499969482422 142.8000030517578 154.0500030517578 142.60000610351562 C155.0500030517578 142.39999389648438 156.4499969482422 142.1999969482422 157.25 142.0 C158.3249969482422 141.0 159.61248779296875 140.10000610351562 160.90625 139.39999389648438 C162.1999969482422 138.6999969482422 163.5 138.1999969482422 164.60000610351562 138.0"></path>
<path fill="#300901" fill-opacity="1.0"  filling="0" d="M174.5500030517578 147.9499969482422 C174.75 147.14999389648438 174.6999969482422 146.2624969482422 174.3249969482422 145.22500610351562 C173.9499969482422 144.1875 173.25 143.0 172.14999389648438 141.60000610351562 C171.14999389648438 140.20001220703125 170.5124969482422 139.64999389648438 169.72500610351562 139.35000610351562 C168.9375 139.0500030517578 168.0 139.0 166.39999389648438 138.60000610351562 C163.60000610351562 137.8000030517578 165.1999969482422 137.8000030517578 165.1999969482422 137.8000030517578 C165.1999969482422 137.8000030517578 160.60000610351562 138.0 163.8000030517578 140.1999969482422 C164.60000610351562 140.60000610351562 166.0 141.39999389648438 165.60000610351562 143.1999969482422 C165.3000030517578 143.89999389648438 164.39999389648438 144.9375 163.5749969482422 145.8000030517578 C162.75 146.66250610351562 162.0 147.35000610351562 162.0 147.35000610351562 C162.0 147.35000610351562 162.0 147.9499969482422 162.60000610351562 147.9499969482422 C163.0 148.14999389648438 164.39999389648438 147.14999389648438 165.0 148.35000610351562 C166.0 149.9499969482422 163.39999389648438 150.5500030517578 163.0 150.9499969482422 C162.60000610351562 151.35000610351562 161.75 152.7375030517578 161.0 154.02499389648438 C160.25 155.3125 159.60000610351562 156.5 159.60000610351562 156.5 C159.60000610351562 156.5 160.0 161.3000030517578 161.1999969482422 160.5 C161.39999389648438 160.39999389648438 160.85000610351562 159.75 160.85000610351562 159.0500030517578 C160.85000610351562 158.35000610351562 161.39999389648438 157.60000610351562 163.8000030517578 157.3000030517578 C164.70001220703125 157.3000030517578 166.0500030517578 157.0124969482422 167.25 156.5500030517578 C168.4499969482422 156.08749389648438 169.5 155.4499969482422 169.8000030517578 154.75 C170.97500610351562 152.64999389648438 172.1125030517578 151.0 172.9812469482422 149.85000610351562 C173.85000610351562 148.6999969482422 174.45001220703125 148.04998779296875 174.5500030517578 147.9499969482422"></path>
<path fill="#d3a994" fill-opacity="1.0"  filling="0" d="M155.4499969482422 216.64999389648438 C155.4499969482422 216.4499969482422 154.85000610351562 216.25 154.0500030517578 216.0500030517578 C154.64999389648438 216.25 155.25 216.25 155.0500030517578 215.85000610351562 C155.0500030517578 215.64999389648438 151.85000610351562 215.0500030517578 152.64999389648438 215.0500030517578 C153.4499969482422 215.0500030517578 154.85000610351562 215.64999389648438 154.64999389648438 215.25 C154.64999389648438 214.85000610351562 150.85000610351562 214.4499969482422 150.0500030517578 214.0500030517578 C149.75 213.95001220703125 148.8125 213.85000610351562 147.64999389648438 213.75 C146.4875030517578 213.64999389648438 145.10000610351562 213.54998779296875 143.89999389648438 213.4499969482422 C143.3000030517578 213.4499969482422 142.6999969482422 213.25 142.3000030517578 213.25 C142.3000030517578 213.25 139.6999969482422 215.0500030517578 139.6999969482422 215.4499969482422 C139.6999969482422 215.85000610351562 140.3000030517578 217.85000610351562 141.3000030517578 218.0500030517578 C142.10000610351562 218.4499969482422 143.10000610351562 218.64999389648438 143.6999969482422 218.64999389648438 C144.6999969482422 218.85000610351562 147.3000030517578 218.25 148.4499969482422 218.64999389648438 C150.0500030517578 219.0500030517578 150.4499969482422 218.0500030517578 149.64999389648438 217.85000610351562 C149.4499969482422 217.64999389648438 148.4499969482422 217.4499969482422 147.64999389648438 217.25 C148.0500030517578 217.0500030517578 148.4499969482422 216.85000610351562 148.4499969482422 216.85000610351562 C148.4499969482422 216.85000610351562 151.25 216.85000610351562 151.64999389648438 217.0500030517578 C153.64999389648438 218.25 155.0500030517578 218.25 155.0500030517578 217.85000610351562 C155.0500030517578 217.64999389648438 154.64999389648438 217.25 154.0500030517578 216.85000610351562 C155.25 217.0500030517578 155.85000610351562 217.0500030517578 155.4499969482422 216.64999389648438"></path></svg>