<svg xmlns="http://www.w3.org/2000/svg" viewBox="0 0 512 512" height="512px" width="512px">
<path fill="#e5c0ae" fill-opacity="1.0"  filling="0" d="M 296.9 230.6 C 298.5 214.7 291.4 192.4 291.4 180.8 C 291.4 180.4 291.4 180 291.4 179.2 C 292.6 178 294.2 175.3 294.2 173.3 C 294.2 170.5 295.3 164.1 295 164.1 C 294.6 163.7 292.6 166.5 291.8 168.9 C 291.8 168.5 291.4 168.1 291.4 167.7 C 290.2 164.9 289 156.9 287.4 157.7 C 287 158.1 287.4 162.9 288.2 165.3 C 287 160.5 285.4 156.9 284.6 157.3 C 284.2 157.7 285 165.3 285 166.9 C 283.8 162.1 283.8 158.1 282.2 158.5 C 281.8 158.9 282.2 166.5 282.2 167.3 C 281.8 166.5 281 160.1 280.6 160.5 C 279 162.1 279.8 168.1 279.8 169.3 C 280.2 170.5 278.2 170.9 280.6 182.4 C 280.2 190 279.8 229.4 279.4 235.8 C 279 242.6 283.4 279.2 287 280.8 C 296.5 285.2 308.5 278 308.5 278 C 304.5 270.8 296.9 230.6 296.9 230.6 Z"></path>
<path fill="#9f8a91" fill-opacity="1.0"  filling="0" d="M 311.7 281.2 C 311.3 278.8 305.7 266.1 304.9 262.9 C 298.5 272 278.6 272.4 278.6 272.4 L 279.8 284.4 C 279.8 284.4 290.6 293.1 298.9 293.1 C 307.7 293.1 311.7 281.2 311.7 281.2 Z"></path>
<path fill="#d3a994" fill-opacity="1.0"  filling="0" d="M 210.9 275.2 C 212.1 284.4 228 314.6 245.2 321.4 C 262.3 327.8 266.3 296.3 266.3 296.3 C 266.3 296.3 261.9 276 260.3 272 C 259.1 267.6 210.9 275.2 210.9 275.2 Z"></path>
<path fill="#9f8a91" fill-opacity="1.0"  filling="0" d="M 269.5 112.7 C 268.7 110.4 265.9 106 268.7 103.6 C 273 100 282.2 102.4 287.4 99.6 C 293 96.8 302.9 93.6 305.7 96.4 C 307.3 98 307.3 101.2 305.7 102.4 C 304.1 103.2 269.5 112.7 269.5 112.7 Z"></path>
<path fill="#bfb0b5" fill-opacity="1.0"  filling="0" d="M 275.8 121.9 C 272.3 117.9 267.1 111.5 268.3 107.2 C 273 102.4 281.4 108 300.1 98.8 C 309.3 96.8 307.3 104.8 303.3 106 C 298.1 108 291.8 113.5 290.6 119.1 C 289.8 125.1 275.8 121.9 275.8 121.9 Z"></path>
<path fill="#16167c" fill-opacity="1.0"  filling="0" d="M 266.3 112.3 C 260.7 130.3 236.4 178.4 234.4 189.2 C 232.4 200 210.5 229.8 206.1 257.3 C 203.8 273.2 209.3 286.8 214.1 289.2 L 256.7 274 C 256.7 274 234 266.1 248 231.8 C 251.9 222.3 256.3 209.1 259.5 196 C 262.7 182.8 293 128.3 292.2 126.3 C 289 115.5 266.3 112.3 266.3 112.3 Z"></path>
<path fill="#9f8a91" fill-opacity="1.0"  filling="0" d="M 281.4 279.6 C 285.4 279.6 296.9 280.4 310.1 274.8 C 312.1 278.8 315.3 288.8 314.1 291.1 C 313.3 293.1 298.9 300.3 295 300.7 C 291 300.7 281.4 279.6 281.4 279.6 Z"></path>
<path fill="#d3a994" fill-opacity="1.0"  filling="0" d="M 292.2 295.5 C 300.1 299.9 314.9 287.6 314.9 287.6 L 320.4 311.5 C 320.4 311.5 311.3 313.4 298.5 331.8 C 296.9 334.2 292.2 295.5 292.2 295.5 Z"></path>
<path fill="#d3a994" fill-opacity="1.0"  filling="0" d="M 304.5 331.4 C 302.5 359.6 294.6 374 293.4 381.9 C 291 400.7 288.2 416.2 289.8 428.1 C 291.4 437.3 279.4 430.9 279.4 430.9 C 279.4 430.9 268.7 399.9 275.4 376.4 C 277 370.8 277 324.2 285.4 324.2 C 293.8 323.8 304.5 331.4 304.5 331.4 Z"></path>
<path fill="#9f8a91" fill-opacity="1.0"  filling="0" d="M 227.7 188 C 224.9 187.2 219.7 186.4 218.9 182.4 C 218.5 181.2 226.9 169.7 228 163.3 C 229.2 156.5 234.8 144.6 237.2 144.6 C 239.2 144.6 242 146.2 242 148.2 C 241.6 150.6 227.7 188 227.7 188 Z"></path>
<path fill="#bfb0b5" fill-opacity="1.0"  filling="0" d="M 240 188.4 C 233.6 188.8 224.9 189.2 221.7 185.2 C 223.7 178.8 232.4 172.9 235.6 151.4 C 240.4 142.2 244 147 241.6 152.6 C 240 156.5 242.8 167.7 247.2 172.1 C 251.5 176.9 240 188.4 240 188.4 Z"></path>
<path fill="#16167c" fill-opacity="1.0"  filling="0" d="M 234.4 276.4 C 231.6 265.3 236.8 246.9 244.4 241 C 251.5 235 267.1 227.4 271.1 222.3 C 272.7 220.7 274.2 223 274.2 223 L 272.7 219.9 L 275 218.3 C 275 218.3 236.4 208.3 229.2 190.8 C 229.2 190.8 238.8 175.7 247.6 170.9 C 261.5 195.2 302.1 205.9 304.1 210.3 C 305.7 213.5 306.9 214.7 305.7 218.7 C 298.1 245 276.6 249.3 265.1 262.1 C 263.9 266.9 264.3 275.6 264.3 275.6 L 234.4 276.4 Z"></path>
<path fill="#9f8a91" fill-opacity="1.0"  filling="0" d="M 286.5 341.8 C 272.8 342.2 255.3 339.5 239.9 331.1 C 215.8 317.6 209.6 308.6 204.3 300.7 C 210.9 299.3 225.8 289.9 232 281.9 C 244.7 264 246.5 256.9 261.9 254.6 C 273.3 267.1 268.1 268.9 294.4 274.3 C 298.8 275.1 305.8 281 303.7 288.9 C 303.2 291.2 294.8 293.4 298.3 303.8 C 301 309.1 304 312.7 308.4 316.2 C 308.9 320.3 304 328.9 305.8 332.9 C 303.2 344.9 293.9 341.8 286.5 341.8 Z"></path>
<path fill="#9f8a91" fill-opacity="1.0"  filling="0" d="M 300.1 320.6 C 306.9 317.8 309.7 329.8 308.5 336.5 C 306.5 345.3 304.1 359.2 301.3 362.4 C 294.2 364 275.4 356.1 273 358 C 273.4 347.7 273.4 325.4 279.4 325.4 C 285.4 325.4 300.1 320.6 300.1 320.6 Z"></path>
<path fill="#e5c0ae" fill-opacity="1.0"  filling="0" d="M 329.2 276 C 339.2 274.8 354.7 291.9 343.5 301.5 C 322.8 319.4 308.5 307.5 308.5 307.5 C 305.3 304.7 302.5 302.3 301.7 297.9 C 301.3 295.9 305.3 292.3 308.1 289.2 C 307.3 287.6 306.9 285.6 308.1 285.2 C 310.1 284.8 312.9 284.4 314.5 284 C 318.8 280 324.8 276.8 329.2 276 Z"></path>
<path fill="#300901" fill-opacity="1.0"  filling="0" d="M 349.1 295.9 C 349.9 292.7 348.7 288.8 344.3 283.2 C 340.3 277.6 339.2 278.8 332.8 277.2 C 327.2 275.6 330.4 275.6 330.4 275.6 C 330.4 275.6 321.2 276 327.6 280.4 C 329.2 281.2 332 282.8 331.2 286.4 C 330 289.2 324 294.7 324 294.7 C 324 294.7 324 295.9 325.2 295.9 C 326 296.3 328.8 294.3 330 296.7 C 332 299.9 326.8 301.1 326 301.9 C 324.4 303.5 319.2 313 319.2 313 C 319.2 313 320 322.6 322.4 321 C 323.2 320.6 318 315.8 327.6 314.6 C 331.2 314.6 338.4 312.3 339.6 309.5 C 344.3 301.1 348.7 296.3 349.1 295.9 Z"></path>
<path fill="#d3a994" fill-opacity="1.0"  filling="0" d="M 310.9 433.3 C 310.9 432.9 309.7 432.5 308.1 432.1 C 309.3 432.5 310.5 432.5 310.1 431.7 C 310.1 431.3 303.7 430.1 305.3 430.1 C 306.9 430.1 309.7 431.3 309.3 430.5 C 309.3 429.7 301.7 428.9 300.1 428.1 C 298.9 427.7 292.6 427.3 287.8 426.9 C 286.6 426.9 285.4 426.5 284.6 426.5 C 284.6 426.5 279.4 430.1 279.4 430.9 C 279.4 431.7 280.6 435.7 282.6 436.1 C 284.2 436.9 286.2 437.3 287.4 437.3 C 289.4 437.7 294.6 436.5 296.9 437.3 C 300.1 438.1 300.9 436.1 299.3 435.7 C 298.9 435.3 296.9 434.9 295.3 434.5 C 296.1 434.1 296.9 433.7 296.9 433.7 C 296.9 433.7 302.5 433.7 303.3 434.1 C 307.3 436.5 310.1 436.5 310.1 435.7 C 310.1 435.3 309.3 434.5 308.1 433.7 C 310.5 434.1 311.7 434.1 310.9 433.3 Z"></path>
</svg>