<svg xmlns="http://www.w3.org/2000/svg" viewBox="0.0 0.0 256.0 256.0" height="256.0px" width="256.0px"><path fill="#878089" fill-opacity="1.0"  filling="0" d="M54.526702880859375 115.13472747802734 C54.526702880859375 115.13472747802734 54.575660705566406 114.75209045410156 54.86808395385742 114.12825012207031 C55.16050338745117 113.50440979003906 55.69638442993164 112.63936614990234 56.670223236083984 111.674560546875 C57.644065856933594 110.70976257324219 59.05586624145508 109.64520263671875 61.100128173828125 108.62232208251953 C63.14439010620117 107.59944152832031 65.82111358642578 106.61824035644531 69.32479858398438 105.82015991210938 C70.88511657714844 105.4645767211914 72.45262145996094 105.12944793701172 74.02619934082031 104.81311798095703 C75.59978485107422 104.49678802490234 77.17945098876953 104.19926452636719 78.76410675048828 103.91888427734375 C80.34876251220703 103.63850402832031 81.93840789794922 103.37528228759766 83.53193664550781 103.12754821777344 C85.1254653930664 102.87982177734375 86.72289276123047 102.6475830078125 88.32310485839844 102.42919921875 C89.9233169555664 102.21080780029297 91.52632904052734 102.00626373291016 93.13102722167969 101.81391143798828 C94.73573303222656 101.6215591430664 96.34213256835938 101.44139862060547 97.94913482666016 101.27178192138672 C99.55613708496094 101.10216522216797 101.16373443603516 100.94308471679688 102.77082824707031 100.79289245605469 C104.3779296875 100.6427001953125 105.98453521728516 100.50139617919922 107.58953857421875 100.36732482910156 C109.19454956054688 100.23324584960938 110.79796600341797 100.10641479492188 112.39868927001953 99.98515319824219 C113.99940490722656 99.86389923095703 115.59744262695312 99.74822998046875 117.19168090820312 99.63648223876953 C118.55274200439453 99.54090881347656 120.04778289794922 99.58769989013672 121.57647705078125 99.64169311523438 C123.10517120361328 99.69569396972656 124.66752624511719 99.75688934326172 126.1632308959961 99.69013977050781 C127.658935546875 99.6233901977539 129.08798217773438 99.42868041992188 130.35006713867188 98.97087097167969 C131.71795654296875 98.47422790527344 132.91888427734375 97.72528839111328 134.04556274414062 96.86351776123047 C135.1722412109375 96.00173950195312 136.22470092773438 95.02714538574219 137.29562377929688 94.07918548583984 C138.36656188964844 93.1312255859375 139.45599365234375 92.20991516113281 140.65663146972656 91.45472717285156 C141.34046936035156 91.02464294433594 142.42623901367188 90.43247985839844 143.73492431640625 89.82049560546875 C145.04360961914062 89.20851135253906 146.57521057128906 88.57671356201172 148.15072631835938 88.06735229492188 C149.72625732421875 87.55799102783203 151.34568786621094 87.17106628417969 152.83004760742188 87.0488510131836 C154.31439208984375 86.92662811279297 155.66366577148438 87.06910705566406 156.69886779785156 87.6185531616211 C158.7686309814453 88.71743774414062 159.391357421875 89.38944244384766 159.15663146972656 90.03392028808594 C158.9219207763672 90.67840576171875 157.8297576904297 91.29535675048828 156.46975708007812 92.28414916992188 C155.56350708007812 92.94292449951172 154.6747589111328 93.88785552978516 153.95474243164062 95.00904083251953 C153.23471069335938 96.13023376464844 152.68341064453125 97.42768096923828 152.4520721435547 98.79149627685547 C152.22071838378906 100.15531921386719 152.309326171875 101.58550262451172 152.86911010742188 102.97216796875 C153.1088409423828 103.56626892089844 153.59243774414062 104.26660919189453 154.26797485351562 105.04927062988281 C154.94351196289062 105.8319320678711 155.81097412109375 106.69690704345703 156.8184051513672 107.62029266357422 C157.8258514404297 108.54367065429688 158.9732666015625 109.52544403076172 160.20872497558594 110.54170227050781 C161.44418334960938 111.5579605102539 162.7676544189453 112.60869598388672 164.12721252441406 113.66998291015625 C165.4867706298828 114.73127746582031 166.8824005126953 115.8031234741211 168.26217651367188 116.86161041259766 C169.64193725585938 117.92008972167969 171.00582885742188 118.9652099609375 172.30189514160156 119.97305297851562 C173.5979766845703 120.98088836669922 174.82623291015625 121.95144653320312 175.93470764160156 122.86079406738281 C177.04299926757812 123.77032470703125 178.208740234375 124.67105102539062 179.41171264648438 125.5770263671875 C180.61468505859375 126.48300170898438 181.85487365722656 127.39422607421875 183.11209106445312 128.32473754882812 C184.3693084716797 129.25526428222656 185.64352416992188 130.205078125 186.91455078125 131.18824768066406 C188.18557739257812 132.17141723632812 189.45339965820312 133.18792724609375 190.6977996826172 134.2518310546875 C191.94219970703125 135.31573486328125 193.16319274902344 136.4270477294922 194.34054565429688 137.59979248046875 C195.5178985595703 138.77255249023438 196.65162658691406 140.0067596435547 197.72149658203125 141.3164520263672 C198.7913818359375 142.62615966796875 199.79739379882812 144.0113525390625 200.7193603515625 145.48609924316406 C202.3324737548828 148.0665740966797 203.55735778808594 150.24337768554688 204.51882934570312 152.0773162841797 C205.48031616210938 153.9112548828125 206.1783905029297 155.40232849121094 206.7379150390625 156.6113739013672 C207.29742431640625 157.82040405273438 207.7183837890625 158.74740600585938 208.12562561035156 159.45318603515625 C208.53286743164062 160.15896606445312 208.9263916015625 160.64352416992188 209.4310302734375 160.96768188476562 C209.9353485107422 161.29119873046875 210.89407348632812 161.90975952148438 212.1028594970703 162.7188720703125 C213.3116455078125 163.5279998779297 214.77047729492188 164.52767944335938 216.27503967285156 165.61343383789062 C217.77960205078125 166.69920349121094 219.3298797607422 167.8710479736328 220.72154235839844 169.0244903564453 C222.1132049560547 170.1779327392578 223.34625244140625 171.31297302246094 224.21632385253906 172.32513427734375 C225.95648193359375 174.3488006591797 226.8483123779297 176.23167419433594 226.89102172851562 177.18191528320312 C226.93374633789062 178.13217163085938 226.12734985351562 178.1497802734375 224.4710235595703 176.44290161132812 C222.81597900390625 174.73794555664062 221.5155029296875 174.076171875 220.38255310058594 173.77490234375 C219.24960327148438 173.47361755371094 218.28414916992188 173.53282165527344 217.2991943359375 173.269775390625 C216.3135986328125 173.00865173339844 215.1129608154297 172.92160034179688 214.1297607421875 172.69168090820312 C213.1465606689453 172.46176147460938 212.38079833984375 172.08895874023438 212.26495361328125 171.25633239746094 C212.031982421875 169.5897674560547 212.75390625 172.90753173828125 210.71102905273438 173.29153442382812 C209.68894958496094 173.4835205078125 208.55743408203125 173.7619171142578 207.54847717285156 174.117919921875 C206.53952026367188 174.4739227294922 205.65310668945312 174.90753173828125 205.12127685546875 175.40992736816406 C204.0563201904297 176.416015625 205.36959838867188 180.01153564453125 203.18975830078125 177.59742736816406 C202.46315002441406 176.7931671142578 201.7083740234375 175.36924743652344 201.03627014160156 173.70301818847656 C200.36416625976562 172.03680419921875 199.77474975585938 170.12826538085938 199.3788604736328 168.35479736328125 C198.9829559326172 166.58132934570312 198.78057861328125 164.94293212890625 198.88255310058594 163.81695556640625 C199.03744506835938 162.1273651123047 198.53919982910156 161.383056640625 197.58511352539062 160.8448028564453 C196.63104248046875 160.3065643310547 195.2211151123047 159.97439575195312 193.55262756347656 159.10910034179688 C192.26718139648438 158.4427032470703 190.99900817871094 157.72537231445312 189.7410125732422 156.9761199951172 C188.48301696777344 156.22686767578125 187.23521423339844 155.44569396972656 185.99050903320312 154.65164184570312 C184.7458038330078 153.8575897216797 183.50421142578125 153.05064392089844 182.2586669921875 152.24981689453125 C181.0131072998047 151.44900512695312 179.7635955810547 150.65432739257812 178.50302124023438 149.8848114013672 C177.24246215820312 149.11529541015625 175.97085571289062 148.3709259033203 174.68115234375 147.67076110839844 C173.3914337158203 146.9705810546875 172.08360290527344 146.31459045410156 170.75057983398438 145.72181701660156 C169.4175567626953 145.1290283203125 168.05934143066406 144.59945678710938 166.6688690185547 144.15213012695312 C165.2783966064453 143.70480346679688 163.85565185546875 143.33969116210938 162.39358520507812 143.07586669921875 C160.89541625976562 142.80535888671875 159.39268493652344 142.5517120361328 157.88621520996094 142.31234741210938 C156.3797607421875 142.07298278808594 154.86956787109375 141.847900390625 153.3564910888672 141.63453674316406 C151.84341430664062 141.42117309570312 150.3274688720703 141.21951293945312 148.80946350097656 141.02699279785156 C147.2914581298828 140.83447265625 145.77142333984375 140.6510772705078 144.2501678466797 140.4742431640625 C142.7289276123047 140.2974090576172 141.2064666748047 140.12713623046875 139.68365478515625 139.96084594726562 C138.1608428955078 139.7945556640625 136.63768005371094 139.6322479248047 135.114990234375 139.47134399414062 C133.59230041503906 139.31044006347656 132.07008361816406 139.1509552001953 130.54917907714844 138.99029541015625 C129.02828979492188 138.82962036132812 127.50872039794922 138.66778564453125 125.9913101196289 138.50221252441406 C124.47389221191406 138.33663940429688 122.95864868164062 138.16732788085938 121.44639587402344 137.99168395996094 C118.0625 137.59872436523438 115.44404602050781 137.04348754882812 113.46023559570312 136.5349884033203 C111.47642517089844 136.0264892578125 110.12725067138672 135.5647430419922 109.28192901611328 135.3587646484375 C108.43660736083984 135.15277099609375 108.09513854980469 135.20254516601562 108.126708984375 135.71710205078125 C108.17406463623047 136.48895263671875 108.96542358398438 137.7964630126953 110.14302062988281 139.0801544189453 C111.32062530517578 140.36383056640625 112.88446807861328 141.62367248535156 114.47679138183594 142.30015563964844 C116.06910705566406 142.9779052734375 117.18878173828125 143.84542846679688 117.29486083984375 144.51727294921875 C117.40093994140625 145.18911743164062 116.4934310913086 145.665283203125 114.0313720703125 145.56031799316406 C112.80064392089844 145.5072021484375 111.46392059326172 145.4363250732422 110.0481185913086 145.2612762451172 C108.63231658935547 145.08624267578125 107.1374282836914 144.8070526123047 105.59039306640625 144.33729553222656 C104.04335021972656 143.86753845214844 102.44415283203125 143.20721435546875 100.81970977783203 142.26992797851562 C99.19526672363281 141.3326416015625 97.54558563232422 140.118408203125 95.8975830078125 138.54078674316406 C93.70025634765625 136.4385986328125 92.26679992675781 134.84828186035156 91.21649169921875 133.650146484375 C90.16618347167969 132.4520263671875 89.49900817871094 131.64608764648438 88.83426666259766 131.1127166748047 C88.16951751708984 130.579345703125 87.50718688964844 130.31851196289062 86.466552734375 130.21055603027344 C85.00479125976562 130.0588836669922 83.55604553222656 129.88223266601562 82.11756896972656 129.6814422607422 C80.6791000366211 129.48065185546875 79.25090026855469 129.25570678710938 77.83024597167969 129.0074005126953 C76.40959167480469 128.7591094970703 74.99647521972656 128.48745727539062 73.58815002441406 128.1932830810547 C72.1798324584961 127.89909362792969 70.77631378173828 127.58235931396484 69.3748550415039 127.243896484375 C67.97340393066406 126.90542602539062 66.57400512695312 126.54522705078125 65.17393493652344 126.16409301757812 C63.773868560791016 125.782958984375 62.37312316894531 125.38089752197266 60.968963623046875 124.95870971679688 C59.59550476074219 124.54591369628906 58.20094299316406 124.21727752685547 56.800785064697266 123.91024017333984 C55.40062713623047 123.60320281982422 53.994873046875 123.31776428222656 52.599029541015625 122.99136352539062 C51.738861083984375 122.7904052734375 50.48158264160156 122.61984252929688 49.287025451660156 122.31200408935547 C48.09246826171875 122.00416564941406 46.96063232421875 121.55905151367188 46.351348876953125 120.80896759033203 C45.651824951171875 119.94816589355469 45.6524658203125 118.91455841064453 46.147823333740234 118.04399108886719 C46.64318084716797 117.17343139648438 47.63325500488281 116.46591186523438 48.91259765625 116.25727844238281 C50.19068908691406 116.04928588867188 51.594215393066406 115.76864624023438 52.678218841552734 115.54000854492188 C53.76222229003906 115.31137084960938 54.526702880859375 115.13472747802734 54.526702880859375 115.13472747802734"></path>
<path fill="#685F6B" fill-opacity="1.0"  filling="0" d="M55.22430419921875 121.17504119873047 C53.7420654296875 121.17504119873047 52.27423095703125 121.03872680664062 50.83439254760742 120.69392395019531 C49.394554138183594 120.34912109375 47.98271179199219 119.79583740234375 46.612457275390625 118.9619140625 C46.297576904296875 118.7699203491211 46.197723388671875 118.36031341552734 46.389739990234375 118.04545593261719 C46.580474853515625 117.73056030273438 46.99005126953125 117.63198852539062 47.306243896484375 117.82271575927734 C48.54528045654297 118.57695770263672 49.835914611816406 119.07936096191406 51.1622314453125 119.39346313476562 C52.488548278808594 119.70756530761719 53.85054397583008 119.83336639404297 55.2322998046875 119.83440399169922 C56.61405563354492 119.83544921875 58.01557159423828 119.71172332763672 59.420928955078125 119.52677917480469 C60.82628631591797 119.34184265136719 62.23548126220703 119.09567260742188 63.632598876953125 118.85183715820312 L65.13534545898438 118.59199523925781 C65.49630737304688 118.52671813964844 65.84317016601562 118.77503967285156 65.90463256835938 119.13855743408203 C65.966064453125 119.50206756591797 65.72158813476562 119.84640502929688 65.35809326171875 119.90782928466797 L63.863037109375 120.1664047241211 C62.43006896972656 120.41600799560547 60.985260009765625 120.66816711425781 59.541255950927734 120.85792541503906 C58.097251892089844 121.04768371582031 56.654052734375 121.17504119873047 55.22430419921875 121.17504119873047"></path>
<path fill="#2E2E2E" fill-opacity="1.0"  filling="0" d="M73.87646484375 118.84671783447266 C73.27615356445312 119.52384185791016 72.24063110351562 119.58912658691406 71.55966186523438 118.98881530761719 C70.88125610351562 118.38847351074219 70.8172607421875 117.35167694091797 71.41632080078125 116.67327880859375 C72.01663208007812 115.99488067626953 73.05342102050781 115.92961120605469 73.73310852050781 116.52992248535156 C74.41278076171875 117.12896728515625 74.47679138183594 118.16576385498047 73.87646484375 118.84671783447266"></path></svg>