<svg xmlns="http://www.w3.org/2000/svg" viewBox="0.0 0.0 512.0 512.0" height="512.0px" width="512.0px"><path fill="#878089" fill-opacity="1.0"  filling="0" d="M109.05340576171875 230.2694549560547 C109.05340576171875 230.2694549560547 110.6201171875 218.02496337890625 138.64959716796875 211.64031982421875 C169.85598754882812 204.52862548828125 202.49853515625 201.50784301757812 234.38336181640625 199.27296447753906 C242.54974365234375 198.69952392578125 253.12762451171875 200.68862915039062 260.70013427734375 197.94174194335938 C268.907470703125 194.96189880371094 274.1094055175781 187.44061279296875 281.3132629394531 182.90945434570312 C286.78399658203125 179.46878051757812 305.1161804199219 170.84158325195312 313.3977355957031 175.2371063232422 C321.6767883300781 179.63265991210938 318.3795166015625 180.61312866210938 312.93951416015625 184.56829833984375 C307.5020446777344 188.52096557617188 302.3795166015625 197.6243438720703 305.73822021484375 205.9443359375 C309.0943603515625 214.26174926757812 336.3507080078125 232.99070739746094 351.8694152832031 245.72158813476562 C367.3855895996094 258.45501708984375 388.5312194824219 270.32574462890625 401.438720703125 290.9721984863281 C414.3436584472656 311.6159973144531 414.824951171875 319.3421325683594 418.862060546875 321.93536376953125 C422.8966369628906 324.52349853515625 441.47198486328125 336.552978515625 448.4326477050781 344.6502685546875 C455.39324951171875 352.74493408203125 455.56732177734375 359.7132873535156 448.9420471191406 352.88580322265625 C442.3218994140625 346.0659484863281 438.5382385253906 347.59173583984375 434.598388671875 346.53955078125 C430.656005859375 345.49505615234375 424.9932861328125 345.84320068359375 424.5299072265625 342.5126647949219 C424.06396484375 339.1795349121094 425.5078125 345.8150634765625 421.42205810546875 346.58306884765625 C417.333740234375 347.35101318359375 412.3699035644531 348.81024169921875 410.2425537109375 350.8198547363281 C408.1126403808594 352.83203125 410.73919677734375 360.0230712890625 406.3795166015625 355.1948547363281 C402.01983642578125 350.36932373046875 397.15325927734375 334.3897705078125 397.7651062011719 327.6339111328125 C398.3846435546875 320.87554931640625 393.7792053222656 321.67938232421875 387.1052551269531 318.21820068359375 C366.5382385253906 307.5558776855469 348.1804504394531 290.3731384277344 324.78717041015625 286.1517333984375 C297.82012939453125 281.2825622558594 270.1132507324219 279.1449279785156 242.89279174804688 275.9833679199219 C222.58941650390625 273.6256103515625 216.06396484375 268.34686279296875 216.25341796875 271.4342041015625 C216.44284057617188 274.5215759277344 222.58428955078125 281.8943786621094 228.95358276367188 284.6003112792969 C235.32284545898438 287.3113098144531 237.91098022460938 291.54046630859375 228.062744140625 291.1206359863281 C218.2169189453125 290.6956787109375 204.97918701171875 289.70245361328125 191.795166015625 277.0815734863281 C178.6112060546875 264.4684753417969 179.17691040039062 261.06878662109375 172.93310546875 260.4211120605469 C155.3919677734375 258.6009826660156 138.787841796875 254.98367309570312 121.93792724609375 249.91741943359375 C116.444091796875 248.26625061035156 110.78143310546875 247.28831481933594 105.19805908203125 245.98272705078125 C101.75738525390625 245.1788787841797 95.13983154296875 244.61825561523438 92.70269775390625 241.61793518066406 C89.90460205078125 238.17471313476562 92.70782470703125 233.34909057617188 97.8251953125 232.51455688476562 C102.93756103515625 231.6825714111328 109.05340576171875 230.2694549560547 109.05340576171875 230.2694549560547 Z"></path>
<path fill="#685F6B" fill-opacity="1.0"  filling="0" d="M110.4486083984375 242.35008239746094 C104.5196533203125 242.35008239746094 98.7059326171875 241.25953674316406 93.22491455078125 237.923828125 C92.59515380859375 237.5398406982422 92.39544677734375 236.7206268310547 92.77947998046875 236.09091186523438 C93.16094970703125 235.46112060546875 93.9801025390625 235.26397705078125 94.61248779296875 235.6454315185547 C104.5247802734375 241.67938232421875 116.0882568359375 239.65440368652344 127.26519775390625 237.70367431640625 L130.27069091796875 237.18399047851562 C130.99261474609375 237.05343627929688 131.68634033203125 237.55007934570312 131.80926513671875 238.27711486816406 C131.93212890625 239.00413513183594 131.44317626953125 239.69281005859375 130.7161865234375 239.81565856933594 L127.72607421875 240.3328094482422 C121.99420166015625 241.3312225341797 116.1676025390625 242.35008239746094 110.4486083984375 242.35008239746094 Z"></path>
<path fill="#2E2E2E" fill-opacity="1.0"  filling="0" d="M147.7529296875 237.6934356689453 C146.55230712890625 239.0476837158203 144.48126220703125 239.17825317382812 143.11932373046875 237.97763061523438 C141.76251220703125 236.77694702148438 141.634521484375 234.70335388183594 142.8326416015625 233.3465576171875 C144.03326416015625 231.98976135253906 146.10684204101562 231.85922241210938 147.46621704101562 233.05984497070312 C148.8255615234375 234.2579345703125 148.95358276367188 236.33152770996094 147.7529296875 237.6934356689453 Z"></path></svg>