<svg xmlns="http://www.w3.org/2000/svg" viewBox="0.0 0.0 512.0 512.0" height="512.0px" width="512.0px"><path fill="#F6BA99" fill-opacity="1.0"  filling="0" d="M333.30804443359375 249.95547485351562 C333.30804443359375 249.95547485351562 331.96759033203125 252.9739990234375 325.59454345703125 256.998779296875 C319.22320556640625 261.02349853515625 315.198486328125 260.35150146484375 316.8748779296875 262.6998291015625 C318.55126953125 265.0482177734375 324.2524108886719 263.37005615234375 326.6007385253906 262.3638916015625 C328.94732666015625 261.3576965332031 334.314208984375 260.01556396484375 334.314208984375 260.01556396484375 C334.314208984375 260.01556396484375 333.9782409667969 265.0465087890625 333.9782409667969 272.4239501953125 C333.9782409667969 279.8014831542969 336.9967956542969 288.1851806640625 338.33721923828125 286.8447570800781 C339.6776123046875 285.50433349609375 339.67938232421875 273.095947265625 342.3619384765625 266.38861083984375 C345.04449462890625 259.68133544921875 348.06304931640625 257.3330078125 347.056884765625 251.29763793945312 C346.0506896972656 245.260498046875 345.7147216796875 242.57794189453125 345.7147216796875 242.57794189453125 L333.30804443359375 249.95547485351562 Z"></path>
<path fill="#E69D35" fill-opacity="1.0"  filling="0" d="M325.59454345703125 241.57177734375 L332.6360778808594 251.29763793945312 L347.056884765625 243.58413696289062 L342.6979064941406 232.85211181640625 L325.59454345703125 241.57177734375 Z"></path>
<path fill="#393762" fill-opacity="1.0"  filling="0" d="M224.65077209472656 438.0941162109375 C224.65077209472656 438.0941162109375 204.86483764648438 448.490234375 203.5226593017578 453.1851806640625 C202.18052673339844 457.880126953125 212.2423553466797 456.8739013671875 219.9558563232422 454.52734375 C227.66932678222656 452.17901611328125 246.11483764648438 447.82000732421875 246.44906616210938 445.13739013671875 C246.7850341796875 442.453125 231.35806274414062 435.409912109375 224.65077209472656 438.0941162109375 Z"></path>
<path fill="#DECBB6" fill-opacity="1.0"  filling="0" d="M246.44906616210938 445.1357421875 C246.5395965576172 444.4097900390625 245.45159912109375 443.36181640625 243.71951293945312 442.27740478515625 L217.9434814453125 451.843017578125 C217.9434814453125 451.843017578125 216.93728637695312 448.82452392578125 214.5889434814453 446.4779052734375 C213.95530700683594 445.84423828125 213.25027465820312 445.442138671875 212.55569458007812 445.17578125 C208.1549530029297 448.0428466796875 204.10411071777344 451.150146484375 203.5226593017578 453.1851806640625 C202.18052673339844 457.880126953125 212.2423553466797 456.8739013671875 219.9558563232422 454.52734375 C227.66932678222656 452.17901611328125 246.1131134033203 447.8182373046875 246.44906616210938 445.1357421875 Z"></path>
<path fill="#393762" fill-opacity="1.0"  filling="0" d="M291.0518493652344 445.4716796875 C291.0518493652344 445.4716796875 316.2046813964844 453.8553466796875 325.25860595703125 456.2037353515625 C334.3124694824219 458.5521240234375 340.685546875 453.1851806640625 338.00299072265625 448.8262939453125 C335.3204040527344 444.46551513671875 326.93670654296875 442.7891845703125 326.93670654296875 442.7891845703125 L318.5530090332031 437.0880126953125 C318.5530090332031 437.0880126953125 308.8271484375 438.764404296875 302.119873046875 440.7767333984375 C295.41082763671875 442.7891845703125 291.0518493652344 445.4716796875 291.0518493652344 445.4716796875 Z"></path>
<path fill="#DECBB6" fill-opacity="1.0"  filling="0" d="M328.8846435546875 443.29571533203125 C328.41290283203125 443.509765625 327.8819885253906 443.7796630859375 327.27093505859375 444.1295166015625 C322.5760192871094 446.8121337890625 321.23388671875 450.8369140625 321.23388671875 450.8369140625 L296.6572265625 442.735107421875 C293.1634521484375 444.188720703125 291.0518493652344 445.4716796875 291.0518493652344 445.4716796875 C291.0518493652344 445.4716796875 316.2046813964844 453.8553466796875 325.25860595703125 456.2037353515625 C334.3124694824219 458.5521240234375 340.685546875 453.1851806640625 338.00299072265625 448.8262939453125 C336.1298828125 445.77978515625 331.52197265625 444.06689453125 328.8846435546875 443.29571533203125 Z"></path>
<path fill="#B57053" fill-opacity="1.0"  filling="0" d="M225.65695190429688 277.45489501953125 C225.65695190429688 277.45489501953125 201.17608642578125 326.75262451171875 194.8030242919922 341.8436279296875 C188.43167114257812 356.9345703125 217.27151489257812 431.04913330078125 217.27151489257812 432.055419921875 C217.27151489257812 433.0615234375 212.91256713867188 431.7193603515625 217.27151489257812 435.0738525390625 C221.63047790527344 438.4266357421875 224.98500061035156 440.104736328125 224.98500061035156 440.104736328125 C224.98500061035156 440.104736328125 248.12545776367188 447.4822998046875 249.46588134765625 446.141845703125 C250.80630493164062 444.801513671875 247.1175537109375 433.39752197265625 247.1175537109375 433.39752197265625 C247.1175537109375 433.39752197265625 250.47207641601562 434.7396240234375 249.80010986328125 429.03851318359375 C249.12989807128906 423.33740234375 247.1175537109375 422.331298828125 244.4349822998047 416.630126953125 C241.7523956298828 410.92901611328125 232.0265350341797 377.39251708984375 228.67376708984375 369.34478759765625 C225.32098388671875 361.2952880859375 224.98500061035156 355.93011474609375 224.98500061035156 355.93011474609375 C224.98500061035156 355.93011474609375 246.1131134033203 314.68017578125 250.13783264160156 311.99755859375 C254.1625518798828 309.31500244140625 267.911376953125 303.27789306640625 274.28448486328125 305.626220703125 C280.6557922363281 307.9745788574219 308.4911804199219 367.66839599609375 310.5035400390625 373.03350830078125 C312.51593017578125 378.398681640625 292.05804443359375 417.9722900390625 292.39404296875 422.331298828125 C292.72998046875 426.690185546875 297.7591552734375 432.3912353515625 297.4249267578125 433.39752197265625 C297.08892822265625 434.40362548828125 289.3754577636719 445.1357421875 291.0535888671875 445.469970703125 C292.72998046875 445.805908203125 320.9013671875 438.76263427734375 321.235595703125 437.7564697265625 C321.5715637207031 436.750244140625 320.8996276855469 433.0615234375 319.5592041015625 431.3851318359375 C318.217041015625 429.708740234375 318.217041015625 425.68402099609375 319.22320556640625 424.00762939453125 C320.2294006347656 422.331298828125 341.02154541015625 373.03173828125 342.6979064941406 361.6312561035156 C344.3742980957031 350.22900390625 344.04010009765625 348.55267333984375 340.685546875 341.8453369140625 C337.3310241699219 335.13800048828125 318.8872375488281 301.6015625 309.83160400390625 289.86505126953125 C300.77593994140625 278.1268310546875 297.4231872558594 269.7431640625 297.4231872558594 269.7431640625 C297.4231872558594 269.7431640625 287.69732666015625 268.7369689941406 262.21026611328125 272.09149169921875 C236.72320556640625 275.4425048828125 225.65695190429688 277.45489501953125 225.65695190429688 277.45489501953125 Z"></path>
<path fill="#E69D35" fill-opacity="1.0"  filling="0" d="M296.082763671875 258.339111328125 L299.101318359375 272.0897521972656 C299.101318359375 272.0897521972656 299.101318359375 271.7537841796875 286.69287109375 276.11444091796875 C274.28448486328125 280.47344970703125 255.8389434814453 281.47955322265625 255.8389434814453 281.47955322265625 C255.8389434814453 281.47955322265625 263.55242919921875 273.43011474609375 271.9361572265625 268.06500244140625 C280.31982421875 262.6998291015625 296.082763671875 258.339111328125 296.082763671875 258.339111328125 Z"></path>
<path fill="#DECBB6" fill-opacity="1.0"  filling="0" d="M229.34571838378906 155.04876708984375 C229.34571838378906 155.04876708984375 215.26089477539062 147.6712646484375 204.19290161132812 148.0054931640625 C193.1266326904297 148.34146118164062 191.78448486328125 151.0240478515625 189.4378662109375 158.40155029296875 C187.08953857421875 165.779052734375 158.58392333984375 219.4375 158.58392333984375 219.4375 C158.58392333984375 219.4375 155.56539916992188 231.17575073242188 165.29122924804688 229.83352661132812 C175.01705932617188 228.49139404296875 201.17433166503906 183.5526123046875 201.17433166503906 183.5526123046875 C201.17433166503906 183.5526123046875 200.1681671142578 215.74700927734375 207.545654296875 234.19253540039062 C214.9231719970703 252.63800048828125 221.9664764404297 271.7537841796875 220.9602813720703 273.43011474609375 C219.9541015625 275.1065673828125 215.9293670654297 275.4425048828125 218.2777099609375 279.4672546386719 C220.6260528564453 283.491943359375 220.6260528564453 283.82623291015625 229.34396362304688 285.838623046875 C238.06362915039062 287.8509521484375 256.17315673828125 284.49639892578125 268.58160400390625 276.78466796875 C280.9900207519531 269.0711975097656 294.06866455078125 263.37005615234375 296.4169921875 262.3638916015625 C298.76361083984375 261.3576965332031 300.4417419433594 259.0093994140625 299.435546875 254.314453125 C298.42938232421875 249.6195068359375 294.7406005859375 249.6195068359375 293.3984680175781 246.2650146484375 C292.0563049316406 242.91046142578125 276.29510498046875 206.35711669921875 276.29510498046875 200.656005859375 C276.29510498046875 194.95489501953125 275.6248779296875 178.52175903320312 275.6248779296875 178.52175903320312 C275.6248779296875 178.52175903320312 301.4479064941406 208.3695068359375 307.4832763671875 218.76556396484375 C313.5203857421875 229.16159057617188 318.2153015136719 236.20489501953125 320.2276916503906 239.5576171875 C322.2400207519531 242.91046142578125 323.58221435546875 243.9166259765625 326.9349670410156 243.5823974609375 C330.2877502441406 243.2464599609375 341.6917419433594 235.868896484375 342.6979064941406 232.850341796875 C343.7041015625 229.83181762695312 341.6917419433594 224.13067626953125 338.6731872558594 220.44195556640625 C335.6546630859375 216.753173828125 312.5141906738281 187.91156005859375 304.80242919921875 176.84530639648438 C297.08892822265625 165.779052734375 287.02886962890625 149.34591674804688 280.99176025390625 147.6695556640625 C274.9546813964844 145.99313354492188 260.869873046875 152.700439453125 255.8389434814453 155.38302612304688 C250.80804443359375 158.06561279296875 237.72940063476562 156.38922119140625 237.72940063476562 156.38922119140625 L229.34571838378906 155.04876708984375 Z"></path>
<path fill="#DECBB6" fill-opacity="1.0"  filling="0" d="M249.46762084960938 159.07177734375 C249.46762084960938 159.07177734375 273.6142578125 146.99932861328125 276.29681396484375 142.30441284179688 C278.9794006347656 137.60943603515625 278.9794006347656 122.51846313476562 268.9193420410156 108.43362426757812 C258.8592529296875 94.34884643554688 251.81594848632812 90.99430847167969 243.09629821777344 95.01902770996094 C234.3766326904297 99.04376220703125 209.5597686767578 130.23196411132812 213.9204864501953 141.97012329101562 C218.28118896484375 153.7083740234375 238.73731994628906 160.41567993164062 244.7744140625 161.08590698242188 C250.80804443359375 161.75607299804688 249.46762084960938 159.07177734375 249.46762084960938 159.07177734375 Z"></path>
<path fill="#F2957E" fill-opacity="1.0"  filling="0" d="M247.78948974609375 98.70779418945312 C247.78948974609375 98.70779418945312 237.39344787597656 105.07911682128906 232.698486328125 114.80496215820312 C228.00357055664062 124.53082275390625 228.67376708984375 137.27346801757812 232.698486328125 145.658935546875 C236.72320556640625 154.04434204101562 245.44288635253906 160.0797119140625 249.46588134765625 159.07354736328125 C253.4906005859375 158.06735229492188 257.51531982421875 152.3662109375 261.874267578125 142.976318359375 C266.2332763671875 133.58642578125 270.5939636230469 122.52020263671875 268.2456359863281 114.134765625 C265.8990478515625 105.74932861328125 256.1749267578125 95.353271484375 247.78948974609375 98.70779418945312 Z"></path>
<path fill="#DA5955" fill-opacity="1.0"  filling="0" d="M268.1307373046875 113.77963256835938 C265.61529541015625 105.46035766601562 256.05828857421875 95.4002685546875 247.78948974609375 98.70779418945312 C247.78948974609375 98.70779418945312 237.39344787597656 105.07911682128906 232.698486328125 114.80496215820312 C230.6321563720703 119.08383178710938 229.6590576171875 123.94418334960938 229.49891662597656 128.76443481445312 C236.00601196289062 125.94259643554688 258.4153137207031 116.35775756835938 268.1307373046875 113.77963256835938 Z"></path>
<path fill="#B24954" fill-opacity="1.0"  filling="0" d="M268.1307373046875 113.77963256835938 C268.1307373046875 113.77963256835938 289.709716796875 103.73870849609375 289.3754577636719 111.45217895507812 C289.03948974609375 119.1656494140625 268.24737548828125 127.21340942382812 268.24737548828125 127.21340942382812 C268.24737548828125 127.21340942382812 270.25970458984375 123.86062622070312 265.22882080078125 121.51226806640625 C260.1978759765625 119.1639404296875 252.82041931152344 118.15774536132812 252.82041931152344 118.15774536132812 L268.1307373046875 113.77963256835938 Z"></path>
<path fill="#393762" fill-opacity="1.0"  filling="0" d="M246.1131134033203 122.51846313476562 C246.1131134033203 122.51846313476562 248.12545776367188 125.5369873046875 254.49679565429688 127.54937744140625 C260.8681335449219 129.56173706054688 276.29510498046875 137.27520751953125 276.29510498046875 137.27520751953125 C276.29510498046875 137.27520751953125 274.95294189453125 129.89767456054688 268.2456359863281 123.52462768554688 C261.538330078125 117.1533203125 252.81866455078125 118.15948486328125 252.81866455078125 118.15948486328125 L246.1131134033203 122.51846313476562 Z"></path>
<path fill="#393762" fill-opacity="1.0"  filling="0" d="M243.25120544433594 159.39556884765625 L254.6221160888672 195.77481079101562 L259.63909912109375 194.76687622070312 L254.75965881347656 157.05419921875 L243.25120544433594 159.39556884765625 Z"></path>
<path fill="#393762" fill-opacity="1.0"  filling="0" d="M255.9312286376953 151.1563720703125 C255.02772521972656 146.6546630859375 250.64613342285156 143.737060546875 246.14442443847656 144.64053344726562 C241.64273071289062 145.54403686523438 238.7251434326172 149.92562866210938 239.6286163330078 154.42730712890625 C240.53208923339844 158.92904663085938 244.91368103027344 161.84658813476562 249.41537475585938 160.94314575195312 C253.91709899902344 160.0396728515625 256.834716796875 155.6580810546875 255.9312286376953 151.1563720703125 Z"></path>
<path fill="#F6BA99" fill-opacity="1.0"  filling="0" d="M224.31480407714844 170.80999755859375 C224.31480407714844 170.80999755859375 233.3704376220703 161.42013549804688 233.70468139648438 159.74368286132812 C234.0406494140625 158.06735229492188 238.73558044433594 146.99932861328125 240.74795532226562 146.66506958007812 C242.76031494140625 146.3291015625 254.1625518798828 147.00106811523438 255.5047149658203 150.01788330078125 C256.84686279296875 153.03469848632812 260.869873046875 162.42633056640625 257.851318359375 162.42633056640625 C254.832763671875 162.42633056640625 247.11927795410156 161.42013549804688 247.11927795410156 161.42013549804688 C247.11927795410156 161.42013549804688 246.78330993652344 165.78082275390625 244.10073852539062 168.46337890625 C241.4181671142578 171.14596557617188 234.7108612060547 172.82232666015625 234.7108612060547 172.82232666015625 L228.00357055664062 179.52969360351562 L224.31480407714844 170.80999755859375 Z"></path>
<path fill="#E69D35" fill-opacity="1.0"  filling="0" d="M212.5765838623047 175.16897583007812 L223.30860900878906 167.1212158203125 L230.35191345214844 180.87005615234375 L220.96200561523438 188.91952514648438 L212.5765838623047 175.16897583007812 Z"></path>
<path fill="#E5D6C5" fill-opacity="1.0"  filling="0" d="M209.89401245117188 171.81619262695312 C209.89401245117188 171.81619262695312 188.43167114257812 186.23696899414062 178.03387451171875 192.2740478515625 C167.6378173828125 198.31118774414062 159.254150390625 209.04141235351562 156.57159423828125 216.75491333007812 C153.88897705078125 224.4683837890625 153.55300903320312 231.51168823242188 162.94290161132812 232.51611328125 C172.332763671875 233.52230834960938 213.582763671875 201.9981689453125 217.94174194335938 197.30325317382812 C222.3007049560547 192.60830688476562 222.63665771484375 190.25997924804688 220.9602813720703 186.23696899414062 C219.2838897705078 182.21221923828125 213.9187469482422 170.80999755859375 209.89401245117188 171.81619262695312 Z"></path></svg>