<svg xmlns="http://www.w3.org/2000/svg" viewBox="0.0 0.0 256.0 256.0" height="256.0px" width="256.0px"><path fill="#F6BA99" fill-opacity="1.0"  filling="0" d="M166.65402221679688 124.97773742675781 C166.65402221679688 124.97773742675781 166.48646545410156 125.35505676269531 165.92059326171875 125.98391723632812 C165.35472106933594 126.61277770996094 164.39053344726562 127.49319458007812 162.79727172851562 128.4993896484375 C161.20443725585938 129.5055694580078 159.90493774414062 129.92465209960938 159.1083984375 130.23898315429688 C158.3118896484375 130.55328369140625 158.01834106445312 130.76283264160156 158.43743896484375 131.34991455078125 C158.85653686523438 131.93701171875 159.7787322998047 132.02078247070312 160.742919921875 131.89491271972656 C161.7071075439453 131.76902770996094 162.71328735351562 131.43348693847656 163.3003692626953 131.18194580078125 C164.47366333007812 130.67884826660156 167.1571044921875 130.00778198242188 167.1571044921875 130.00778198242188 C167.1571044921875 130.00778198242188 167.1151123046875 130.63665771484375 167.0731201171875 131.7266082763672 C167.03111267089844 132.81655883789062 166.98912048339844 134.36761474609375 166.98912048339844 136.21197509765625 C166.98912048339844 138.05636596679688 167.36643981933594 140.02651977539062 167.82752990722656 141.45179748535156 C168.28863525390625 142.8770751953125 168.83349609375 143.75747680664062 169.16860961914062 143.42237854003906 C169.3920135498047 143.198974609375 169.54104614257812 142.36068725585938 169.6901397705078 141.21804809570312 C169.8392333984375 140.07540893554688 169.9884033203125 138.62841796875 170.21205139160156 137.1876220703125 C170.4357147216797 135.74681091308594 170.73388671875 134.31219482421875 171.18096923828125 133.19430541992188 C171.8516082763672 131.51748657226562 172.56423950195312 130.38552856445312 173.0463409423828 129.2955780029297 C173.5284423828125 128.20562744140625 173.7799835205078 127.15766143798828 173.5284423828125 125.64881896972656 C173.0253448486328 122.6302490234375 172.85736083984375 121.28897094726562 172.85736083984375 121.28897094726562 L169.7556915283203 123.13335418701172 L166.65402221679688 124.97773742675781"></path>
<path fill="#E69D35" fill-opacity="1.0"  filling="0" d="M162.79727172851562 120.785888671875 L164.55764770507812 123.21735382080078 L166.3180389404297 125.64881896972656 L169.92324829101562 123.72044372558594 L173.5284423828125 121.79206848144531 L172.43869018554688 119.10906219482422 L171.3489532470703 116.42605590820312 L167.0731201171875 118.60597229003906 L162.79727172851562 120.785888671875"></path>
<path fill="#393762" fill-opacity="1.0"  filling="0" d="M112.32538604736328 219.04705810546875 C112.32538604736328 219.04705810546875 111.22616577148438 219.62461853027344 109.73568725585938 220.4816436767578 C108.24520874023438 221.3386688232422 106.36346435546875 222.47515869140625 104.79842376708984 223.593017578125 C103.2333755493164 224.71087646484375 101.98503112792969 225.81008911132812 101.7613296508789 226.59259033203125 C101.42579650878906 227.76632690429688 102.51576232910156 228.2274169921875 104.17169952392578 228.2484130859375 C105.82763671875 228.2694091796875 108.04955291748047 227.85031127929688 109.9779281616211 227.263671875 C111.26350402832031 226.87228393554688 113.14530944824219 226.3691864013672 115.08920288085938 225.8226776123047 C117.03309631347656 225.27615356445312 119.03907012939453 224.68621826171875 120.57300567626953 224.12112426757812 C122.10694122314453 223.5560302734375 123.1688232421875 223.01580810546875 123.22453308105469 222.56869506835938 C123.28052520751953 222.12132263183594 122.46080017089844 221.43177795410156 121.21874237060547 220.76092529296875 C119.9766845703125 220.090087890625 118.31228637695312 219.43792724609375 116.6789321899414 219.06533813476562 C115.04557800292969 218.69273376464844 113.44326782226562 218.59970092773438 112.32538604736328 219.04705810546875"></path>
<path fill="#DECBB6" fill-opacity="1.0"  filling="0" d="M123.22453308105469 222.56787109375 C123.2697982788086 222.20489501953125 122.72579956054688 221.680908203125 121.85975646972656 221.13870239257812 L117.56375122070312 222.7329864501953 L113.26774597167969 224.32725524902344 L108.97174072265625 225.9215087890625 C108.97174072265625 225.9215087890625 108.46864318847656 224.41226196289062 107.29447174072266 223.23895263671875 C106.97765350341797 222.922119140625 106.62513732910156 222.7210693359375 106.27784729003906 222.587890625 C105.17765808105469 223.30465698242188 104.1212158203125 224.05145263671875 103.30347442626953 224.74624633789062 C102.48573303222656 225.4410400390625 101.90669250488281 226.08383178710938 101.7613296508789 226.59259033203125 C101.42579650878906 227.76632690429688 102.51576232910156 228.2274169921875 104.17169952392578 228.2484130859375 C105.82763671875 228.2694091796875 108.04955291748047 227.85031127929688 109.9779281616211 227.263671875 C111.26350402832031 226.87228393554688 113.14521026611328 226.3690948486328 115.0890121459961 225.82244873046875 C117.03280639648438 225.2758026123047 119.03868865966797 224.68569946289062 120.57262420654297 224.1204833984375 C122.10655975341797 223.55526733398438 123.16854095458984 223.01495361328125 123.22453308105469 222.56787109375"></path>
<path fill="#393762" fill-opacity="1.0"  filling="0" d="M145.5259246826172 222.73583984375 C145.5259246826172 222.73583984375 146.31195068359375 222.99783325195312 147.5617218017578 223.40916442871094 C148.81149291992188 223.82049560546875 150.52500915527344 224.38116455078125 152.3800048828125 224.97853088378906 C154.2349853515625 225.57589721679688 156.2314453125 226.2099609375 158.04708862304688 226.76806640625 C159.86273193359375 227.326171875 161.49755859375 227.80831909179688 162.62930297851562 228.10186767578125 C164.89276123046875 228.68896484375 166.82113647460938 228.3116455078125 168.01597595214844 227.51512145996094 C169.2108154296875 226.71859741210938 169.67213439941406 225.50286865234375 169.00149536132812 224.41314697265625 C168.33084106445312 223.3229522705078 166.94757080078125 222.5683135986328 165.73193359375 222.0862274169922 C164.5163116455078 221.6041259765625 163.46835327148438 221.39459228515625 163.46835327148438 221.39459228515625 L161.3724365234375 219.96929931640625 L159.27650451660156 218.54400634765625 C159.27650451660156 218.54400634765625 158.06077575683594 218.75355529785156 156.42584228515625 219.0888671875 C154.7908935546875 219.4241943359375 152.73675537109375 219.88528442382812 151.0599365234375 220.38836669921875 C149.38267517089844 220.8914794921875 147.99917602539062 221.4783477783203 147.0349884033203 221.93943786621094 C146.07080078125 222.40052795410156 145.5259246826172 222.73583984375 145.5259246826172 222.73583984375"></path>
<path fill="#DECBB6" fill-opacity="1.0"  filling="0" d="M164.44232177734375 221.64785766601562 C164.20645141601562 221.7548828125 163.9409942626953 221.88983154296875 163.63546752929688 222.06475830078125 C161.2880096435547 223.40606689453125 160.616943359375 225.41845703125 160.616943359375 225.41845703125 L156.52084350585938 224.0681610107422 L152.4247283935547 222.71786499023438 L148.32861328125 221.3675537109375 C146.58172607421875 222.0943603515625 145.5259246826172 222.73583984375 145.5259246826172 222.73583984375 C145.5259246826172 222.73583984375 146.31195068359375 222.99783325195312 147.5617218017578 223.40916442871094 C148.81149291992188 223.82049560546875 150.52500915527344 224.38116455078125 152.3800048828125 224.97853088378906 C154.2349853515625 225.57589721679688 156.2314453125 226.2099609375 158.04708862304688 226.76806640625 C159.86273193359375 227.326171875 161.49755859375 227.80831909179688 162.62930297851562 228.10186767578125 C164.89276123046875 228.68896484375 166.82113647460938 228.3116455078125 168.01597595214844 227.51512145996094 C169.2108154296875 226.71859741210938 169.67213439941406 225.50286865234375 169.00149536132812 224.41314697265625 C168.53321838378906 223.65151977539062 167.72308349609375 223.0565948486328 166.86520385742188 222.6038818359375 C166.00730895996094 222.15115356445312 165.10165405273438 221.8406524658203 164.44232177734375 221.64785766601562"></path>
<path fill="#B57053" fill-opacity="1.0"  filling="0" d="M112.82847595214844 138.72744750976562 C112.82847595214844 138.72744750976562 112.63722229003906 139.11257934570312 112.29629516601562 139.8013153076172 C111.95537567138672 140.49005126953125 111.46478271484375 141.48236083984375 110.86611938476562 142.6967315673828 C110.2674560546875 143.91110229492188 109.56071472167969 145.34750366210938 108.78749084472656 146.92440795898438 C108.01426696777344 148.50131225585938 107.17455291748047 150.21871948242188 106.30994415283203 151.9950714111328 C105.4453353881836 153.77142333984375 104.55583953857422 155.60671997070312 103.68302917480469 157.41943359375 C102.81022644042969 159.2321319580078 101.95411682128906 161.02224731445312 101.15629577636719 162.70819091796875 C100.35847473144531 164.39414978027344 99.61893463134766 165.97596740722656 98.97927856445312 167.37208557128906 C98.33961486816406 168.76820373535156 97.79983520507812 169.9786376953125 97.4015121459961 170.92181396484375 C97.08294677734375 171.67636108398438 96.9404296875 172.7260284423828 96.94194793701172 174.00474548339844 C96.94346618652344 175.28346252441406 97.08901977539062 176.79122924804688 97.34657287597656 178.4619903564453 C97.6041259765625 180.13275146484375 97.97368621826172 181.96649169921875 98.42322540283203 183.89715576171875 C98.87276458740234 185.82781982421875 99.40228271484375 187.8553924560547 99.97975158691406 189.91383361816406 C100.55722045898438 191.97225952148438 101.18264770507812 194.06155395507812 101.82400512695312 196.11563110351562 C102.46536254882812 198.16970825195312 103.12264251708984 200.18856811523438 103.76382446289062 202.10617065429688 C104.40501403808594 204.0237579345703 105.03009796142578 205.84007263183594 105.60706329345703 207.48904418945312 C106.18402862548828 209.1380157470703 106.71287536621094 210.61962890625 107.16156768798828 211.86785888671875 C107.61026000976562 213.11607360839844 107.97881317138672 214.13087463378906 108.23518371582031 214.84620666503906 C108.49156188964844 215.56153869628906 108.63575744628906 215.97738647460938 108.63575744628906 216.0277099609375 C108.63575744628906 216.53076171875 106.45628356933594 215.85968017578125 108.63575744628906 217.53692626953125 C110.81523895263672 219.21331787109375 112.49250030517578 220.0523681640625 112.49250030517578 220.0523681640625 C112.49250030517578 220.0523681640625 113.77808380126953 220.4622344970703 115.51701354980469 220.98390197753906 C117.25594329833984 221.50555419921875 119.44822692871094 222.13902282714844 121.2616195678711 222.58621215820312 C123.07501983642578 223.03341674804688 124.50953674316406 223.29434204101562 124.73294067382812 223.0709228515625 C125.06804656982422 222.73583984375 124.77450561523438 221.14279174804688 124.39718627929688 219.63352966308594 C124.01986694335938 218.124267578125 123.55877685546875 216.69876098632812 123.55877685546875 216.69876098632812 C123.55877685546875 216.69876098632812 125.23603820800781 217.36981201171875 124.90005493164062 214.51925659179688 C124.73249816894531 213.09397888183594 124.39718627929688 212.25558471679688 123.93608856201172 211.41717529296875 C123.4749984741211 210.57876586914062 122.88813781738281 209.7403564453125 122.21749114990234 208.3150634765625 C121.94923400878906 207.7449493408203 121.54010772705078 206.61813354492188 121.04378509521484 205.1479034423828 C120.5474624633789 203.67767333984375 119.96393585205078 201.86402893066406 119.34687805175781 199.92027282714844 C118.72982025146484 197.9765167236328 118.0792236328125 195.90264892578125 117.44876098632812 193.91195678710938 C116.81829833984375 191.9212646484375 116.20796966552734 190.01376342773438 115.67143249511719 188.40274047851562 C115.13490295410156 186.79171752929688 114.67216491699219 185.4771728515625 114.33688354492188 184.67239379882812 C113.49868774414062 182.66001892089844 113.03759002685547 180.98318481445312 112.78604125976562 179.8094482421875 C112.53450012207031 178.63571166992188 112.49250030517578 177.96505737304688 112.49250030517578 177.96505737304688 C112.49250030517578 177.96505737304688 112.78594970703125 177.3921356201172 113.28433990478516 176.4310760498047 C113.78273010253906 175.47000122070312 114.48607635498047 174.12078857421875 115.30586242675781 172.56817626953125 C116.12564849853516 171.01556396484375 117.0618896484375 169.25955200195312 118.02607727050781 167.4849090576172 C118.99026489257812 165.71026611328125 119.9823989868164 163.91700744628906 120.91398620605469 162.2898712158203 C121.84557342529297 160.66275024414062 122.71661376953125 159.20175170898438 123.4385986328125 158.09164428710938 C124.16058349609375 156.98153686523438 124.7335205078125 156.22232055664062 125.06891632080078 155.998779296875 C125.73970031738281 155.5516815185547 126.95071411132812 154.91822814941406 128.3852996826172 154.31581115722656 C129.81988525390625 153.71340942382812 131.47802734375 153.14202880859375 133.04306030273438 152.81910705566406 C134.6081085205078 152.49618530273438 136.08004760742188 152.42172241210938 137.14224243164062 152.8131103515625 C137.5404510498047 152.9598846435547 138.10633850097656 153.55467224121094 138.7937469482422 154.4884033203125 C139.4811553955078 155.42213439941406 140.29006958007812 156.69483947753906 141.17430114746094 158.19741821289062 C142.0585479736328 159.70001220703125 143.01812744140625 161.4324951171875 144.00685119628906 163.28582763671875 C144.99557495117188 165.13916015625 146.01345825195312 167.1133270263672 147.01431274414062 169.0992889404297 C148.01516723632812 171.08523559570312 148.99899291992188 173.08297729492188 149.9196014404297 174.9834442138672 C150.84022521972656 176.8839111328125 151.6976318359375 178.68710327148438 152.44566345214844 180.28396606445312 C153.19369506835938 181.88082885742188 153.83233642578125 183.27137756347656 154.31539916992188 184.34652709960938 C154.79849243164062 185.4216766357422 155.12600708007812 186.18142700195312 155.25177001953125 186.51675415039062 C155.41946411132812 186.96385192871094 155.27508544921875 187.8860626220703 154.91876220703125 189.12269592285156 C154.56243896484375 190.3593292236328 153.99417114257812 191.91036987304688 153.31410217285156 193.61512756347656 C152.63404846191406 195.31988525390625 151.8422088623047 197.17835998535156 151.03871154785156 199.02984619140625 C150.2352294921875 200.88133239746094 149.42010498046875 202.72584533691406 148.6934814453125 204.40264892578125 C147.96685791015625 206.0794677734375 147.3287353515625 207.58859252929688 146.87928771972656 208.76931762695312 C146.42982482910156 209.95005798339844 146.1690216064453 210.80239868164062 146.197021484375 211.1656494140625 C146.281005859375 212.25537109375 146.95164489746094 213.5128631591797 147.5803985595703 214.56082153320312 C148.2091522216797 215.6087646484375 148.7960205078125 216.4471893310547 148.71246337890625 216.69876098632812 C148.6284637451172 216.95028686523438 147.62228393554688 218.41757202148438 146.74197387695312 219.8428497314453 C145.86167907714844 221.26812744140625 145.10726928710938 222.65142822265625 145.52679443359375 222.7349853515625 C145.73634338378906 222.7769775390625 146.77386474609375 222.58836364746094 148.21487426757812 222.2739715576172 C149.65589904785156 221.95957946777344 151.5004119873047 221.5194091796875 153.32395935058594 221.05825805664062 C155.14749145507812 220.59710693359375 156.9500732421875 220.114990234375 158.3072052001953 219.71670532226562 C159.66433715820312 219.3184356689453 160.57601928710938 219.00399780273438 160.6177978515625 218.87823486328125 C160.78578186035156 218.3751220703125 160.44981384277344 216.53076171875 159.77960205078125 215.69256591796875 C159.1085205078125 214.8543701171875 159.1085205078125 212.84201049804688 159.61160278320312 212.00381469726562 C159.6834716796875 211.8840789794922 159.95724487304688 211.27838134765625 160.37620544433594 210.31141662597656 C160.795166015625 209.34445190429688 161.35931396484375 208.0161895751953 162.01193237304688 206.45132446289062 C162.66456604003906 204.88645935058594 163.40567016601562 203.0849609375 164.17855834960938 201.17153930664062 C164.95144653320312 199.2581024169922 165.756103515625 197.23272705078125 166.5358123779297 195.22006225585938 C167.31553649902344 193.2073974609375 168.07032775878906 191.20745849609375 168.74346923828125 189.34490966796875 C169.41661071777344 187.48236083984375 170.00811767578125 185.7572021484375 170.4612579345703 184.29409790039062 C170.91441345214844 182.83099365234375 171.22921752929688 181.62994384765625 171.3489532470703 180.8156280517578 C171.62835693359375 178.91525268554688 171.79605102539062 177.55520629882812 171.83335876464844 176.46221923828125 C171.87066650390625 175.36923217773438 171.77755737304688 174.54327392578125 171.5353546142578 173.71112060546875 C171.29315185546875 172.8789520263672 170.90185546875 172.04055786132812 170.3427734375 170.92266845703125 C170.10316467285156 170.44357299804688 169.70957946777344 169.69070434570312 169.1977081298828 168.73497009277344 C168.6858367919922 167.77923583984375 168.05567932128906 166.62060546875 167.34291076660156 165.3300018310547 C166.63014221191406 164.03939819335938 165.8347625732422 162.61679077148438 164.99244689941406 161.13308715820312 C164.150146484375 159.64938354492188 163.26089477539062 158.10458374023438 162.36041259765625 156.56956481933594 C161.45993041992188 155.0345458984375 160.54820251464844 153.50930786132812 159.66090393066406 152.0647430419922 C158.77362060546875 150.62017822265625 157.91075134277344 149.25628662109375 157.10800170898438 148.04396057128906 C156.30526733398438 146.8316192626953 155.5626220703125 145.77084350585938 154.91580200195312 144.93252563476562 C153.40652465820312 142.9761505126953 152.21408081054688 141.20614624023438 151.29493713378906 139.71563720703125 C150.37579345703125 138.22512817382812 149.72994995117188 137.0141143798828 149.31390380859375 136.17572021484375 C148.89785766601562 135.33734130859375 148.7115936279297 134.87158203125 148.7115936279297 134.87158203125 C148.7115936279297 134.87158203125 148.40765380859375 134.8401336669922 147.7526397705078 134.81918334960938 C147.09762573242188 134.7982177734375 146.09152221679688 134.78775024414062 144.68719482421875 134.82969665527344 C143.28285217285156 134.87164306640625 141.48028564453125 134.9659881591797 139.23231506347656 135.15469360351562 C136.98435974121094 135.3433837890625 134.291015625 135.62643432617188 131.10513305664062 136.04574584960938 C127.91925048828125 136.46463012695312 125.18402099609375 136.8416748046875 122.87322998046875 137.17161560058594 C120.56243896484375 137.50157165527344 118.67609405517578 137.784423828125 117.18798065185547 138.01490783691406 C115.69986724853516 138.2454071044922 114.60999298095703 138.4235382080078 113.89214324951172 138.54405212402344 C113.1742935180664 138.66456604003906 112.82847595214844 138.72744750976562 112.82847595214844 138.72744750976562"></path>
<path fill="#E69D35" fill-opacity="1.0"  filling="0" d="M148.0413818359375 129.1695556640625 L148.7960205078125 132.60720825195312 L149.5506591796875 136.0448760986328 C149.5506591796875 136.0448760986328 149.5506591796875 136.0028839111328 148.77513122558594 136.23342895507812 C147.99960327148438 136.46397399902344 146.44854736328125 136.96705627441406 143.346435546875 138.05722045898438 C141.79537963867188 138.6020965576172 140.05567932128906 139.0421905517578 138.31857299804688 139.39584350585938 C136.58148193359375 139.74949645996094 134.84698486328125 140.01670837402344 133.30638122558594 140.2158203125 C131.76577758789062 140.4149169921875 130.41903686523438 140.5458984375 129.4574737548828 140.6271209716797 C128.4958953857422 140.70834350585938 127.91947174072266 140.73977661132812 127.91947174072266 140.73977661132812 C127.91947174072266 140.73977661132812 128.34799194335938 140.29258728027344 129.07461547851562 139.5969696044922 C129.80123901367188 138.9013671875 130.82595825195312 137.95733642578125 132.0183563232422 136.9636688232422 C133.2107391357422 135.97000122070312 134.57080078125 134.92669677734375 135.96807861328125 134.03250122070312 C137.3653564453125 133.1383056640625 139.17259216308594 132.29991149902344 140.9612274169922 131.57948303222656 C142.7498779296875 130.85903930664062 144.51991271972656 130.25656127929688 145.84278869628906 129.83419799804688 C147.16566467285156 129.4118194580078 148.0413818359375 129.1695556640625 148.0413818359375 129.1695556640625"></path>
<path fill="#DECBB6" fill-opacity="1.0"  filling="0" d="M114.67285919189453 77.52438354492188 C114.67285919189453 77.52438354492188 113.89036560058594 77.1145248413086 112.64208221435547 76.57422637939453 C111.393798828125 76.033935546875 109.67972564697266 75.36321258544922 107.81655883789062 74.84149169921875 C105.95338439941406 74.31976318359375 103.94111633300781 73.94703674316406 102.09645080566406 74.00274658203125 C100.2520751953125 74.0587387084961 98.94792175292969 74.24510192871094 97.9853286743164 74.6053237915039 C97.0227279663086 74.96553802490234 96.40167999267578 75.4996109008789 95.92350769042969 76.25102233886719 C95.4453353881836 77.00243377685547 95.11003112792969 77.97119140625 94.71893310546875 79.20077514648438 C94.55119323730469 79.72773742675781 94.11654663085938 80.72695922851562 93.49466705322266 82.05274963378906 C92.87278747558594 83.3785400390625 92.06369018554688 85.03089904785156 91.14704132080078 86.86414337158203 C90.23039245605469 88.6973876953125 89.2061996459961 90.71151733398438 88.1541519165039 92.76085662841797 C87.10209655761719 94.81018829345703 86.02218627929688 96.89472198486328 84.99409484863281 98.8687744140625 C83.96600341796875 100.84282684326172 82.98973846435547 102.7063980102539 82.14497375488281 104.31380462646484 C81.30021667480469 105.92120361328125 80.58695983886719 107.27244567871094 80.08489990234375 108.22183227539062 C79.58283233642578 109.17121887207031 79.29196166992188 109.71875 79.29196166992188 109.71875 C79.29196166992188 109.71875 78.91464233398438 111.18603515625 79.14519500732422 112.56942749023438 C79.37574768066406 113.95281982421875 80.21415710449219 115.2523193359375 82.64561462402344 114.91676330566406 C83.45610046386719 114.80491638183594 84.49480438232422 114.08756256103516 85.66313171386719 112.96964263916016 C86.83145904541016 111.85172271728516 88.1294174194336 110.33323669433594 89.45841979980469 108.61913299560547 C90.78742218017578 106.905029296875 92.14747619628906 104.99529266357422 93.43997955322266 103.09488677978516 C94.73249053955078 101.19447326660156 95.95745849609375 99.30338287353516 97.01629638671875 97.62655639648438 C98.07513427734375 95.9497299194336 98.96785736083984 94.48716735839844 99.59586334228516 93.44380950927734 C100.22386932373047 92.40045166015625 100.58716583251953 91.77630615234375 100.58716583251953 91.77630615234375 C100.58716583251953 91.77630615234375 100.57318878173828 92.22344970703125 100.56697845458984 93.01139068603516 C100.5607681274414 93.79933166503906 100.56230926513672 94.92806243896484 100.5933609008789 96.2912368774414 C100.62440490722656 97.65441131591797 100.68494415283203 99.25203704833984 100.79672241210938 100.97774505615234 C100.90849304199219 102.70346069335938 101.07150268554688 104.55726623535156 101.30747985839844 106.43282318115234 C101.54345703125 108.30838012695312 101.8523941040039 110.20567321777344 102.25604248046875 112.01836395263672 C102.6596908569336 113.8310546875 103.15803527832031 115.55914306640625 103.7728271484375 117.09626770019531 C104.51058197021484 118.94081115722656 105.24164581298828 120.79876708984375 105.93516540527344 122.59768676757812 C106.62869262695312 124.3966064453125 107.28466796875 126.13648986816406 107.87223815917969 127.74491119384766 C108.45980834960938 129.35333251953125 108.97897338867188 130.8302764892578 109.39886474609375 132.10330200195312 C109.81875610351562 133.3763427734375 110.13938903808594 134.44546508789062 110.32988739013672 135.2382354736328 C110.5203857421875 136.031005859375 110.58076477050781 136.54742431640625 110.48014068603516 136.71505737304688 C109.97705078125 137.55328369140625 107.96468353271484 137.72125244140625 109.13885498046875 139.73362731933594 C109.72593688964844 140.73980712890625 110.01948547363281 141.28466796875 110.71112060546875 141.7037811279297 C111.40276336669922 142.1228790283203 112.49250793457031 142.4162139892578 114.67198181152344 142.9193115234375 C115.5439453125 143.12054443359375 116.60371398925781 143.21444702148438 117.79090881347656 143.2050323486328 C118.97810363769531 143.1956329345703 120.29273986816406 143.0829315185547 121.6744384765625 142.8709716796875 C123.05613708496094 142.6590118408203 124.5049057006836 142.3477783203125 125.96038055419922 141.9413299560547 C127.41586303710938 141.53488159179688 128.87803649902344 141.03323364257812 130.28656005859375 140.4403839111328 C131.69509887695312 139.8475341796875 133.04995727539062 139.16351318359375 134.29080200195312 138.392333984375 C135.84185791015625 137.4281463623047 137.41384887695312 136.52685546875 138.917724609375 135.7093963623047 C140.42160034179688 134.89193725585938 141.85736083984375 134.1583251953125 143.13592529296875 133.52952575683594 C144.41448974609375 132.90072631835938 145.53585815429688 132.376708984375 146.41098022460938 131.97845458984375 C147.28610229492188 131.5802001953125 147.91494750976562 131.30770874023438 148.20849609375 131.18194580078125 C149.38180541992188 130.67884826660156 150.2208709716797 129.50469970703125 149.7177734375 127.1572265625 C149.4662322998047 125.98348999023438 148.87936401367188 125.39662170410156 148.27149963378906 124.8935317993164 C147.66363525390625 124.39044189453125 147.03475952148438 123.97113037109375 146.69923400878906 123.13250732421875 C146.5650177001953 122.79705047607422 146.14242553710938 121.79762268066406 145.5521697998047 120.39041900634766 C144.9619140625 118.98321533203125 144.20399475097656 117.16824340820312 143.39913940429688 115.20169830322266 C142.5942840576172 113.23515319824219 141.7424774169922 111.1170425415039 140.96446228027344 109.10356903076172 C140.18646240234375 107.09009552001953 139.4822235107422 105.18125915527344 138.97250366210938 103.63326263427734 C138.4627685546875 102.08526611328125 138.14755249023438 100.89811706542969 138.14755249023438 100.3280029296875 C138.14755249023438 99.37781524658203 138.11032104492188 97.83140563964844 138.0606689453125 96.19183349609375 C138.01101684570312 94.55226135253906 137.948974609375 92.81951904296875 137.89932250976562 91.49667358398438 C137.84967041015625 90.173828125 137.81243896484375 89.26087951660156 137.81243896484375 89.26087951660156 C137.81243896484375 89.26087951660156 138.1710968017578 89.67543029785156 138.78282165527344 90.39041900634766 C139.39454650878906 91.10540008544922 140.25933837890625 92.12081909179688 141.27163696289062 93.32255554199219 C142.283935546875 94.52428436279297 143.44371032714844 95.9123306274414 144.64540100097656 97.37257385253906 C145.8470916748047 98.83281707763672 147.0906982421875 100.36524963378906 148.27064514160156 101.85575866699219 C149.45059204101562 103.34626770019531 150.56686401367188 104.79486083984375 151.51388549804688 106.08740234375 C152.46090698242188 107.37994384765625 153.23867797851562 108.51644897460938 153.74163818359375 109.38278198242188 C154.74781799316406 111.1154556274414 155.679443359375 112.661865234375 156.5116729736328 114.01575469970703 C157.34390258789062 115.36964416503906 158.07675170898438 116.53101348876953 158.6853790283203 117.49360656738281 C159.2940216064453 118.4561996459961 159.7784423828125 119.22001647949219 160.1138458251953 119.77880859375 C161.12001037597656 121.45523071289062 161.79110717773438 121.95831298828125 163.4674835205078 121.79119873046875 C164.30567932128906 121.70721435546875 166.1502685546875 120.74302673339844 167.84820556640625 119.61117553710938 C169.546142578125 118.47932434082031 171.097412109375 117.1798095703125 171.3489532470703 116.4251708984375 C171.60049438476562 115.67053985595703 171.4747314453125 114.58058166503906 171.097412109375 113.44873809814453 C170.7200927734375 112.31689453125 170.0912322998047 111.14315795898438 169.3365936279297 110.22097778320312 C169.08505249023438 109.91358184814453 168.5540313720703 109.2568359375 167.82583618164062 108.3501205444336 C167.09764099121094 107.44340515136719 166.17227172851562 106.28671264648438 165.13201904296875 104.97941589355469 C164.09176635742188 103.672119140625 162.93661499023438 102.21422576904297 161.74888610839844 100.70509338378906 C160.5611572265625 99.19596099853516 159.3408203125 97.6355972290039 158.17019653320312 96.12337493896484 C156.99957275390625 94.61114501953125 155.87864685058594 93.14706420898438 154.8897247314453 91.83048248291016 C153.90078735351562 90.51390838623047 153.04385375976562 89.34484100341797 152.40121459960938 88.42265319824219 C151.43702697753906 87.03936767578125 150.39950561523438 85.48837280273438 149.3384246826172 83.9268798828125 C148.27734375 82.36538696289062 147.19268798828125 80.79338836669922 146.1342315673828 79.36811065673828 C145.07577514648438 77.94283294677734 144.0435028076172 76.66427612304688 143.08718872070312 75.68964385986328 C142.13087463378906 74.71501922607422 141.25051879882812 74.04432678222656 140.49588012695312 73.83477783203125 C139.4897003173828 73.55537414550781 138.0364227294922 73.74172973632812 136.45274353027344 74.16407012939453 C134.86907958984375 74.58641052246094 133.15499877929688 75.24472045898438 131.62722778320312 75.90921783447266 C130.0994415283203 76.57372283935547 128.75796508789062 77.24441528320312 127.91947174072266 77.69151306152344 C126.6617431640625 78.3621597290039 124.39805603027344 78.48793029785156 122.44879150390625 78.446044921875 C120.49952697753906 78.40415954589844 118.86470031738281 78.19461059570312 118.86470031738281 78.19461059570312 L114.67285919189453 77.52438354492188"></path>
<path fill="#DECBB6" fill-opacity="1.0"  filling="0" d="M124.73381042480469 79.535888671875 C124.73381042480469 79.535888671875 125.48839569091797 79.15862274169922 126.64122009277344 78.5560531616211 C127.79405212402344 77.95347595214844 129.3451385498047 77.1255874633789 130.93812561035156 76.2243423461914 C132.5311279296875 75.3230972290039 134.16603088378906 74.34849548339844 135.4865264892578 73.4524917602539 C136.8070068359375 72.55648040771484 137.81307983398438 71.73907470703125 138.14840698242188 71.15220642089844 C138.48373413085938 70.56533813476562 138.7352294921875 69.6535873413086 138.84524536132812 68.50604248046875 C138.9552764892578 67.3584976196289 138.923828125 65.97515869140625 138.6932830810547 64.44510650634766 C138.46273803710938 62.91505432128906 138.0330810546875 61.23828125 137.34669494628906 59.50387191772461 C136.66030883789062 57.76946258544922 135.71717834472656 55.9774169921875 134.4596710205078 54.21681213378906 C133.20216369628906 52.456214904785156 132.03892517089844 51.03093719482422 130.93328857421875 49.91480255126953 C129.82766723632812 48.79866409301758 128.77964782714844 47.991668701171875 127.75257873535156 47.46763229370117 C126.72550964355469 46.94359588623047 125.71937561035156 46.70252227783203 124.69752502441406 46.718231201171875 C123.67567443847656 46.73393630981445 122.63810729980469 47.00642395019531 121.54814910888672 47.50951385498047 C120.8215103149414 47.84490966796875 119.87129974365234 48.55757522583008 118.80232238769531 49.539608001708984 C117.73334503173828 50.52164077758789 116.54559326171875 51.77304458618164 115.3438720703125 53.1859130859375 C114.14215850830078 54.59878158569336 112.92647552490234 56.173118591308594 111.80162811279297 57.801021575927734 C110.6767807006836 59.428924560546875 109.64276885986328 61.110389709472656 108.80439758300781 62.73752212524414 C107.96602630615234 64.36465454101562 107.32328796386719 65.93744659423828 106.98099517822266 67.34800720214844 C106.63870239257812 68.75856018066406 106.59684753417969 70.00688171386719 106.96024322509766 70.98506164550781 C107.50533294677734 72.45234680175781 108.55339813232422 73.76240539550781 109.86605834960938 74.90739440917969 C111.17871856689453 76.05238342285156 112.7559585571289 77.03228759765625 114.3593978881836 77.83926391601562 C115.96284484863281 78.64623260498047 117.59247589111328 79.28026580810547 119.0099105834961 79.73350524902344 C120.42733764648438 80.18673706054688 121.632568359375 80.45917510986328 122.38720703125 80.54295349121094 C125.40402221679688 80.87803649902344 124.73381042480469 79.535888671875 124.73381042480469 79.535888671875"></path>
<path fill="#F2957E" fill-opacity="1.0"  filling="0" d="M123.89474487304688 49.35389709472656 C123.89474487304688 49.35389709472656 123.31718444824219 49.70785903930664 122.46016693115234 50.35991668701172 C121.6031494140625 51.0119743347168 120.46665954589844 51.962127685546875 119.34880828857422 53.154510498046875 C118.23095703125 54.346893310546875 117.1317367553711 55.78150939941406 116.3492431640625 57.40248107910156 C115.76237487792969 58.61821365356445 115.34317016601562 59.92822265625 115.07592010498047 61.27489471435547 C114.80867004394531 62.62156677246094 114.69336700439453 64.0049057006836 114.71430969238281 65.36730194091797 C114.7352523803711 66.72969055175781 114.89244079589844 68.0711441040039 115.170166015625 69.33404541015625 C115.44789123535156 70.59693908691406 115.84615325927734 71.78128051757812 116.3492431640625 72.8294677734375 C117.02002716064453 74.22703552246094 117.95164489746094 75.49404907226562 118.97017669677734 76.54361724853516 C119.98870849609375 77.59318542480469 121.09414672851562 78.42532348632812 122.11257934570312 78.9531478881836 C123.13101196289062 79.48096466064453 124.06243896484375 79.7044677734375 124.73294067382812 79.53677368164062 C125.40372467041016 79.36907196044922 126.07451629638672 78.94054412841797 126.7514877319336 78.26982116699219 C127.428466796875 77.59909057617188 128.11163330078125 76.68617248535156 128.8071746826172 75.5496826171875 C129.50271606445312 74.41319274902344 130.21063232421875 73.05314636230469 130.9371337890625 71.4881591796875 C131.4820098876953 70.31442260742188 132.0269317626953 69.08830261230469 132.5194854736328 67.84383392333984 C133.0120391845703 66.599365234375 133.4522247314453 65.33655548095703 133.78759765625 64.08943176269531 C134.12298583984375 62.842315673828125 134.35354614257812 61.61089324951172 134.42689514160156 60.42920684814453 C134.500244140625 59.24751663208008 134.41635131835938 58.115562438964844 134.12281799316406 57.0673828125 C133.73171997070312 55.6698112487793 132.93075561523438 54.16053771972656 131.88134765625 52.83143615722656 C130.83193969726562 51.50233459472656 129.53407287597656 50.3534049987793 128.149169921875 49.6765251159668 C126.7642593383789 48.99964141845703 125.29231262207031 48.79480743408203 123.89474487304688 49.35389709472656"></path>
<path fill="#DA5955" fill-opacity="1.0"  filling="0" d="M134.06536865234375 56.88981628417969 C133.64613342285156 55.50326919555664 132.835693359375 54.02001190185547 131.78831481933594 52.71982955932617 C130.74093627929688 51.419647216796875 129.45660400390625 50.30253601074219 128.08958435058594 49.648284912109375 C126.72257995605469 48.99403381347656 125.27287292480469 48.802642822265625 123.89474487304688 49.35389709472656 C123.89474487304688 49.35389709472656 123.31718444824219 49.70785903930664 122.46016693115234 50.35991668701172 C121.6031494140625 51.0119743347168 120.46665954589844 51.962127685546875 119.34880828857422 53.154510498046875 C118.23095703125 54.346893310546875 117.1317367553711 55.78150939941406 116.3492431640625 57.40248107910156 C115.83265686035156 58.472198486328125 115.45272827148438 59.614601135253906 115.19194030761719 60.79084014892578 C114.93115234375 61.967079162597656 114.78948974609375 63.177154541015625 114.74945831298828 64.38221740722656 C115.4001693725586 64.10003662109375 116.3689193725586 63.68259048461914 117.54133605957031 63.18496322631836 C118.7137451171875 62.687339782714844 120.0898208618164 62.10953140258789 121.55516815185547 61.50662612915039 C123.02051544189453 60.903717041015625 124.57514190673828 60.27570724487305 126.10466003417969 59.67767333984375 C127.6341781616211 59.07963562011719 129.13858032226562 58.51158142089844 130.5034942626953 58.0285758972168 C131.868408203125 57.54557418823242 133.0938262939453 57.14762878417969 134.06536865234375 56.88981628417969"></path>
<path fill="#B24954" fill-opacity="1.0"  filling="0" d="M134.06536865234375 56.88981628417969 C134.06536865234375 56.88981628417969 135.2642059326172 56.33198547363281 136.85646057128906 55.731056213378906 C138.44869995117188 55.130126953125 140.43438720703125 54.4860954284668 142.008056640625 54.31369400024414 C143.5817413330078 54.14128875732422 144.74343872070312 54.440513610839844 144.68772888183594 55.72608947753906 C144.63172912597656 57.01166915893555 143.4392852783203 58.315818786621094 141.87423706054688 59.48331832885742 C140.3092041015625 60.65081787109375 138.37155151367188 61.681663513183594 136.82518005371094 62.42063522338867 C135.27880859375 63.15960693359375 134.12368774414062 63.60670471191406 134.12368774414062 63.60670471191406 C134.12368774414062 63.60670471191406 135.12985229492188 61.93031311035156 132.61441040039062 60.756134033203125 C131.35667419433594 60.16905212402344 129.8056182861328 59.74973678588867 128.56900024414062 59.47719192504883 C127.33238983154297 59.204647064208984 126.41020965576172 59.07887268066406 126.41020965576172 59.07887268066406 L130.23779296875 57.984344482421875 L134.06536865234375 56.88981628417969"></path>
<path fill="#393762" fill-opacity="1.0"  filling="0" d="M123.05655670166016 61.25923156738281 C123.05655670166016 61.25923156738281 124.06272888183594 62.76849365234375 127.24839782714844 63.774688720703125 C128.31028747558594 64.1100845336914 129.87527465820312 64.76220703125 131.48995971679688 65.48263549804688 C133.10464477539062 66.20306396484375 134.76904296875 66.99180603027344 136.02976989746094 67.6004409790039 C137.29049682617188 68.20907592773438 138.14755249023438 68.63760375976562 138.14755249023438 68.63760375976562 C138.14755249023438 68.63760375976562 137.9797821044922 67.71540832519531 137.39280700683594 66.39490509033203 C136.8058319091797 65.07440185546875 135.79965209960938 63.35557556152344 134.12281799316406 61.76231384277344 C132.44598388671875 60.16948699951172 130.5176239013672 59.498844146728516 129.00845336914062 59.226409912109375 C127.4992904663086 58.95397186279297 126.40933227539062 59.079742431640625 126.40933227539062 59.079742431640625 L123.05655670166016 61.25923156738281"></path>
<path fill="#393762" fill-opacity="1.0"  filling="0" d="M121.62560272216797 79.69778442382812 L123.04696655273438 84.24519348144531 L124.46833038330078 88.79259490966797 L125.88969421386719 93.34000396728516 L127.3110580444336 97.88740539550781 L129.81954956054688 97.38343811035156 L129.20962524414062 92.66935729980469 L128.5996856689453 87.95526885986328 L127.98976135253906 83.24118041992188 L127.37982940673828 78.527099609375 L124.50271606445312 79.11244201660156 L121.62560272216797 79.69778442382812"></path>
<path fill="#393762" fill-opacity="1.0"  filling="0" d="M127.96561431884766 75.57818603515625 C127.73973846435547 74.4527587890625 127.0791015625 73.52534484863281 126.19357299804688 72.93575286865234 C125.30805206298828 72.34616088867188 124.19763946533203 72.09439849853516 123.07221221923828 72.32026672363281 C121.94679260253906 72.546142578125 121.01937866210938 73.20677947998047 120.42979431152344 74.09230041503906 C119.84020233154297 74.97782897949219 119.58843994140625 76.0882339477539 119.8143081665039 77.21365356445312 C120.04017639160156 78.3390884399414 120.7008056640625 79.26649475097656 121.58633422851562 79.85608673095703 C122.47185516357422 80.44567108154297 123.58226013183594 80.69743347167969 124.70768737792969 80.47157287597656 C125.83311462402344 80.2457046508789 126.76053619384766 79.58506774902344 127.35012817382812 78.69954681396484 C127.9397201538086 77.81402587890625 128.1914825439453 76.70361328125 127.96561431884766 75.57818603515625"></path>
<path fill="#F6BA99" fill-opacity="1.0"  filling="0" d="M112.15740203857422 85.40499877929688 C112.15740203857422 85.40499877929688 113.28935241699219 84.23126220703125 114.44219970703125 82.9527587890625 C115.59504699707031 81.67424011230469 116.76878356933594 80.29095458984375 116.85234069824219 79.87184143066406 C116.93633270263672 79.4527587890625 117.56519317626953 77.85971069335938 118.29883575439453 76.35054779052734 C119.032470703125 74.84138488769531 119.87088012695312 73.41609954833984 120.37397766113281 73.33253479003906 C120.87706756591797 73.24854278564453 122.55389404296875 73.29054260253906 124.18882751464844 73.5420913696289 C125.82376861572266 73.79364013671875 127.41681671142578 74.2547378540039 127.75235748291016 75.00894165039062 C128.087890625 75.76314544677734 128.758544921875 77.31420135498047 129.15664672851562 78.67670440673828 C129.55474853515625 80.03921508789062 129.6802978515625 81.21316528320312 128.9256591796875 81.21316528320312 C128.1710205078125 81.21316528320312 126.82951354980469 81.08738708496094 125.67666625976562 80.96161651611328 C124.5238265991211 80.83584594726562 123.55963897705078 80.71006774902344 123.55963897705078 80.71006774902344 C123.55963897705078 80.71006774902344 123.39165496826172 82.89041137695312 122.05036926269531 84.231689453125 C121.37973022460938 84.90233612060547 120.20599365234375 85.44720458984375 119.19992065429688 85.82440948486328 C118.19384765625 86.20161437988281 117.35543060302734 86.41116333007812 117.35543060302734 86.41116333007812 L114.00178527832031 89.76484680175781 L112.15740203857422 85.40499877929688"></path>
<path fill="#E69D35" fill-opacity="1.0"  filling="0" d="M106.28829193115234 87.58448791503906 L108.97129821777344 85.57254791259766 L111.65430450439453 83.56060791015625 L113.41513061523438 86.99781799316406 L115.17595672607422 90.43502807617188 L112.82847595214844 92.44739532470703 L110.48100280761719 94.45976257324219 L108.3846435546875 91.02212524414062 L106.28829193115234 87.58448791503906"></path>
<path fill="#E5D6C5" fill-opacity="1.0"  filling="0" d="M104.94700622558594 85.90809631347656 C104.94700622558594 85.90809631347656 104.27630615234375 86.35874938964844 103.18902587890625 87.0818862915039 C102.10174560546875 87.80502319335938 100.59788513183594 88.80065155029297 98.93155670166016 89.89060974121094 C97.26522827148438 90.9805679321289 95.43643188476562 92.16485595703125 93.69929504394531 93.26531219482422 C91.96215057373047 94.36576843261719 90.31666564941406 95.38238525390625 89.01693725585938 96.13702392578125 C87.7174301147461 96.89166259765625 86.4808120727539 97.79296875 85.33589172363281 98.78069305419922 C84.19097900390625 99.76842498779297 83.13777160644531 100.84257507324219 82.20508575439453 101.94292449951172 C81.27239990234375 103.04327392578125 80.46023559570312 104.16980743408203 79.79741668701172 105.2623062133789 C79.13459777832031 106.35481262207031 78.6211166381836 107.41326904296875 78.28579711914062 108.37745666503906 C77.83869171142578 109.66303253173828 77.52195739746094 110.91138458251953 77.47225189208984 112.02307891845703 C77.42253875732422 113.13477325439453 77.63984680175781 114.10981750488281 78.26082611083984 114.84878540039062 C78.8818130493164 115.58775329589844 79.90646362304688 116.09065246582031 81.47145080566406 116.258056640625 C82.14215850830078 116.32992553710938 83.1379623413086 116.06985473632812 84.35865783691406 115.56437683105469 C85.579345703125 115.05889129638672 87.0249252319336 114.30799865722656 88.59516143798828 113.3982162475586 C90.16539764404297 112.48844146728516 91.86029815673828 111.4197769165039 93.57963562011719 110.27876281738281 C95.29898071289062 109.13774871826172 97.04276275634766 107.92438507080078 98.71076965332031 106.7251968383789 C100.37877655029297 105.52600860595703 101.97100067138672 104.34100341796875 103.3872299194336 103.25670623779297 C104.80345916748047 102.17240905761719 106.04369354248047 101.18881225585938 107.00770568847656 100.3924560546875 C107.97171783447266 99.59609985351562 108.65951538085938 98.98698425292969 108.97087097167969 98.65162658691406 C110.06060791015625 97.47789001464844 110.64747619628906 96.59748077392578 110.85713195800781 95.75906372070312 C111.06678771972656 94.920654296875 110.89923095703125 94.12423706054688 110.48014068603516 93.11848449707031 C110.06104278564453 92.11229705810547 109.18084716796875 90.18392944335938 108.15388488769531 88.56999206542969 C107.12692260742188 86.9560546875 105.95318603515625 85.65654754638672 104.94700622558594 85.90809631347656"></path></svg>