<svg xmlns="http://www.w3.org/2000/svg" viewBox="0.0 0.0 512.0 512.0" height="256.0px" width="256.0px">
 <g>
  <path fill="#F0C3B3" filling="0" d="m264.7504,422.2309c0.71389,8.13586 1.42907,16.27179 2.14303,24.40765c0.02579,0.28998 0.0651,0.60828 0.28137,0.80121c0.18555,0.16589 0.45099,0.19412 0.69916,0.21499c3.87445,0.3281 7.74762,0.65744 11.62201,0.98551c-0.59103,-8.32019 -0.70532,-16.67481 -0.34161,-25.00849c-3.86948,-1.885 -8.40375,-2.37283 -14.40396,-1.40087z" id="svg_1"/>
  <path fill="#cdd3dd" filling="0" d="m281.27899,446.99127c-3.61023,-3.60534 -9.9238,-3.49719 -14.05627,-0.50384c-4.13245,2.99212 -6.21033,8.23419 -6.37622,13.33371c-0.01355,0.43499 0.0086,0.92898 0.33667,1.21527c0.23224,0.20273 0.56033,0.24453 0.86633,0.27646c7.10367,0.73239 14.29462,0.60583 21.36758,-0.37482c0.45713,-0.06384 0.95969,-0.15476 1.24967,-0.51477c0.23352,-0.28882 0.2716,-0.68573 0.29126,-1.05682c0.21136,-4.14844 -0.20398,-8.90516 -3.67902,-12.37519z" id="svg_2"/>
  <path fill="#BBBFC7" filling="0" d="m285.00348,457.71497c-0.00122,0.55789 -0.01843,1.10961 -0.04547,1.65149c-0.01966,0.37109 -0.05774,0.768 -0.29126,1.05682c-0.28998,0.36001 -0.79254,0.45093 -1.24967,0.51477c-7.07296,0.98065 -14.26391,1.10721 -21.36758,0.37482c-0.306,-0.03193 -0.63409,-0.07373 -0.86633,-0.27646c-0.32807,-0.28629 -0.35022,-0.78028 -0.33667,-1.21527c0.01599,-0.51001 0.05282,-1.02115 0.1069,-1.53113l24.05008,-0.57504z" id="svg_3"/>
  <path fill="#cdd3dd" filling="0" d="m235.98787,444.51395c-5.64513,1.76089 -11.1563,3.95181 -16.46962,6.54705c-1.51389,0.73972 -3.04495,1.53602 -4.19266,2.76969c-1.89113,2.03369 -2.47729,4.99512 -1.65396,7.70465c12.15529,-0.19544 24.30689,-0.59479 36.41425,-0.97446c1.35168,-3.51932 0.86386,-7.44287 0.35637,-11.17843c-0.29738,-2.1897 -0.69797,-4.89307 -2.363,-6.34424c-1.21035,-1.05432 -2.89015,-1.09247 -4.49618,-1.11579c-2.41704,-0.03442 -4.34995,1.57898 -7.5952,2.59153z" id="svg_4"/>
  <path fill="#BBBFC7" filling="0" d="m250.80966,457.66339c-0.13272,0.9867 -0.3625,1.95618 -0.72378,2.89749c-12.10736,0.37967 -24.25896,0.77902 -36.41425,0.97446c-0.26666,-0.87866 -0.38586,-1.78302 -0.36005,-2.67392c12.5178,-0.02579 25.0319,-0.16342 37.49808,-1.19803z" id="svg_5"/>
  <path fill="#F0C3B3" filling="0" d="m230.13876,426.06598c1.0273,6.27301 2.44902,12.48096 4.42493,18.9223c4.28604,2.57434 10.19536,2.0853 14.09433,-1.33942c-1.05185,-7.75 -2.10249,-15.50128 -3.15433,-23.25134c-2.76849,-0.29367 -5.61072,-0.58246 -8.30179,0.13025c-2.69104,0.71271 -5.24083,2.65668 -7.06314,5.53821z" id="svg_6"/>
  <path fill="#EEC25C" filling="0" d="m214.88568,245.17188c-3.72081,61.65747 -4.24795,124.45532 10.91666,185.31781c8.01669,-0.59723 15.93753,-2.4527 23.64949,-6.72773c-1.4119,-24.1127 -2.82378,-48.22668 -4.23567,-72.33947c-1.33817,-22.84211 -2.67388,-45.77894 -0.03688,-67.88501c2.02999,38.41107 8.40991,73.65792 11.72032,110.05746c0.9093,9.99997 2.92578,24.56738 4.68417,33.63596c7.56204,1.82354 15.5701,1.7658 22.57181,0.35879c0.12903,-52.95639 0.20276,-106.43497 -11.375,-158.10971c-1.73505,-7.74264 -2.06561,-17.08276 -7.68244,-22.68733c-5.05773,-5.04668 -14.19755,-6.14278 -21.32705,-6.60478c-7.13196,-0.4608 -14.24918,0.7901 -28.88541,4.98401z" id="svg_7"/>
  <path fill="#B7832E" filling="0" d="m227.01886,256.62918c-0.35757,2.72055 -1.65765,5.28507 -3.41855,7.40845c-1.78297,2.10373 -4.0845,3.83017 -6.70186,4.65225c2.14548,-1.68222 4.08699,-3.4259 5.76183,-5.44113c1.69699,-1.99927 3.07693,-4.21481 4.35858,-6.61957z" id="svg_8"/>
  <path fill="#B7832E" filling="0" d="m259.11511,256.55179c1.45984,1.96976 3.03021,3.67654 4.88202,5.08722c1.83704,1.42911 3.88669,2.51291 6.16367,3.4259c-2.47483,0.05161 -4.93119,-0.93881 -6.91324,-2.4527c-1.96732,-1.53231 -3.54877,-3.65567 -4.13245,-6.06042z" id="svg_9"/>
  <path fill="#B7832E" filling="0" d="m239.21837,257.18338c0.49522,1.30746 0.64021,2.72549 0.71763,4.09317c0.08603,1.37253 0.07987,2.72174 0.24329,4.02307c0.14008,1.27918 0.49646,2.54358 1.07275,3.68884c0.58736,1.13663 1.4414,2.15778 2.69845,2.77094c-1.41312,-0.10443 -2.71196,-1.08011 -3.51806,-2.27325c-0.8368,-1.20057 -1.29394,-2.6149 -1.47332,-4.04645c-0.30106,-2.86432 0.26419,-5.50135 0.25926,-8.25632z" id="svg_10"/>
  <path fill="#B7832E" filling="0" d="m243.95294,257.07156c0.40674,4.29099 0.54437,8.5586 0.69182,12.83112c0.11058,4.27377 0.22978,8.54141 0.07742,12.84958c-0.81717,-4.23444 -1.15878,-8.52295 -1.30499,-12.81272c-0.10814,-4.29095 -0.02335,-8.59298 0.53575,-12.86798z" id="svg_11"/>
  <path fill="#F0C3B3" filling="0" d="m292.20914,281.53085c3.69992,6.03708 3.34848,13.59052 3.62744,20.66593c0.02823,0.70779 0.06882,1.43646 0.37475,2.07422c0.30722,0.63775 0.94989,1.16739 1.81498,1.15631c0.26046,0.61807 0.60702,1.23983 1.1784,1.59131c0.57138,0.35141 1.41681,0.333 1.78665,-0.17081c0.02707,0.64145 0.43747,1.25214 1.01993,1.51999c0.58368,0.26788 1.3136,0.18066 1.71909,-0.30228c0.04791,0.54193 0.53332,0.98428 1.06906,1.07889c0.53573,0.09341 1.09363,-0.11551 1.51388,-0.46079c0.78275,-0.64386 1.11206,-1.6773 1.35538,-2.66156c0.7016,-2.83978 0.99655,-5.90072 -0.23962,-8.41116c1.06289,-0.04425 1.86407,-1.09116 2.00787,-2.14545c0.14374,-1.05432 -0.20398,-2.10617 -0.54803,-3.1138c-1.20301,-3.52789 -2.41217,-7.0693 -4.07843,-10.40301c-0.90067,-1.80267 -1.96485,-3.57828 -3.51438,-4.86609c-1.5495,-1.28775 -3.67163,-2.0275 -5.62051,-1.51138c-1.94888,0.51852 -3.52542,2.51657 -3.46646,5.95968z" id="svg_12"/>
  <path fill="#B57364" filling="0" d="m297.69943,305.06976c0.03684,-3.45175 0.00983,-6.90219 -0.07864,-10.35269c0.92773,3.16544 0.65619,6.54337 0.07864,10.35269z" id="svg_13"/>
  <path fill="#B57364" filling="0" d="m300.65714,306.45825c0.15609,-3.5672 -0.03809,-7.14917 -0.57874,-10.67828c0.72498,1.67608 0.91052,3.53528 0.91296,5.36127c0.00248,1.82479 -0.1683,3.64953 -0.33422,5.31701z" id="svg_14"/>
  <path fill="#B57364" filling="0" d="m303.535,307.45355c0.08478,-3.66668 0.1622,-7.39367 -0.80731,-10.93014c1.68097,3.12732 1.47943,6.88745 0.80731,10.93014z" id="svg_15"/>
  <path fill="#B57364" filling="0" d="m307.32092,297.3627c-1.47946,-0.58981 -2.58661,-1.86532 -3.3927,-3.23788c-0.80731,-1.37259 -1.37008,-2.8754 -2.13318,-4.27378c0.50992,2.34946 1.60233,4.57114 3.15308,6.40943c0.2851,0.33917 0.59229,0.66964 0.97687,0.88965c0.38342,0.21994 0.85895,0.31701 1.39593,0.21258z" id="svg_16"/>
  <path fill="#F0C3B3" filling="0" d="m170.82828,109.42877c-2.39739,-7.73285 -4.79477,-15.4669 -7.19217,-23.19975c-0.46941,-1.51387 -0.94126,-3.03758 -1.15262,-4.60922c-0.11426,-0.84665 0.02458,-1.96115 0.85156,-2.16883c0.76064,-0.19046 1.39592,0.57386 1.79038,1.25214c1.57777,2.71809 2.81517,5.63281 3.83139,8.69991c-1.15016,-3.32021 -1.89235,-6.76578 -2.6321,-10.20026c-0.1241,-0.57387 -0.2482,-1.1637 -0.15605,-1.74367c0.09094,-0.58 0.44728,-1.15633 1.00638,-1.33572c0.56402,-0.18065 1.19562,0.08848 1.60483,0.51854c0.40796,0.4301 0.63897,0.99411 0.85278,1.54707c1.14401,2.94913 2.09265,5.97322 3.01056,8.95673c-0.58981,-3.14449 -1.18088,-6.28901 -1.77069,-9.43351c-0.12535,-0.67091 -0.2507,-1.37257 -0.05777,-2.02627c0.19293,-0.65497 0.81222,-1.23743 1.48929,-1.14649c0.83682,0.11307 1.2239,1.08135 1.43158,1.90096c0.88105,3.47383 1.49299,7.01033 2.09018,10.53943c-0.17081,-3.14328 -0.34162,-6.28533 -0.51241,-9.42859c-0.03194,-0.58124 -0.06023,-1.1821 0.14131,-1.72769c0.20151,-0.54558 0.69797,-1.02727 1.28041,-1.02236c0.50012,0.00492 0.94249,0.36496 1.18578,0.80239c0.24332,0.43625 0.32687,0.94249 0.40428,1.43647c0.72868,4.61416 1.41435,9.2455 1.60359,14.09559c0.31336,-1.90343 1.06412,-3.73433 2.1762,-5.31089c0.51365,-0.72744 1.31974,-1.47456 2.175,-1.22757c1.02356,0.29491 1.15997,1.68715 0.97934,2.73775c-0.69428,4.04153 -3.00196,7.71318 -3.38535,11.79527c-0.17325,1.8469 0.05532,3.70484 0.07741,5.5591c0.01967,1.65886 -0.17079,3.43326 -1.21773,4.72104c-1.08627,1.33569 -2.93438,1.88127 -4.64978,1.73631c-1.71539,-0.14502 -3.32147,-0.89457 -5.25558,-1.71788z" id="svg_17"/>
  <path stroke="null" fill="#A16A49" filling="0" d="m236.40401,117.86048c-2.66594,-1.23139 -6.02547,-0.87662 -8.54035,0.59455c-2.51487,1.47116 -4.21604,3.93616 -4.98691,6.56929c-0.48179,1.64258 -0.65787,3.42405 -1.72377,4.82035c-0.82202,1.07626 -2.08543,1.79884 -3.04664,2.7742c-1.27887,1.29431 -1.98907,3.04324 -1.94504,4.78456c0.02141,0.83865 0.20819,1.686 0.02498,2.50837c-0.27006,1.20861 -1.28361,2.14274 -2.18534,3.06278c-1.09209,1.1153 -2.09851,2.34128 -2.61717,3.7593c-0.51869,1.41801 -0.4949,3.06167 0.38068,4.32564c1.39661,2.0169 4.35046,2.47256 6.46799,2.90218c1.079,-0.12258 2.10683,0.46655 2.87414,1.16847c0.76732,0.70198 1.38473,1.54388 2.24247,2.15254c1.29666,0.92001 3.0133,1.21186 4.65619,1.19559c1.64286,-0.01627 3.26791,-0.30812 4.90602,-0.42422c3.96859,-0.2799 7.92767,0.47955 11.40615,1.16413c2.00928,0.14212 3.85319,-1.51239 5.83275,-1.16195c0.68402,0.1204 1.28718,0.47194 1.91765,0.74316c1.69286,0.728 3.67598,0.8788 5.47824,0.41771c1.54892,-0.39599 3.00024,-1.22923 4.60862,-1.22274c1.41685,0.00655 2.71593,0.66725 4.05067,1.10016c1.33477,0.43288 2.96933,0.59887 4.04476,-0.24414c1.15869,-0.90808 1.12896,-2.56695 0.65072,-3.88947c-0.47824,-1.32256 -1.30978,-2.56045 -1.45611,-3.94701c-0.32003,-3.0172 2.65406,-5.72629 2.30431,-8.74023c-0.41043,-3.53256 -5.02858,-5.44639 -6.24436,-8.82161c-0.84227,-2.34022 0.11301,-4.94297 -0.51866,-7.33742c-0.57698,-2.18615 -2.70048,-5.02 -4.6122,-6.44017c-3.3036,-2.45414 -6.19677,-3.51411 -10.24865,-4.71513c-2.50774,-0.74317 -5.80301,-0.94823 -8.38685,-0.47085c-2.58626,0.4752 -5.04522,2.07873 -5.3343,3.37196z" id="svg_18"/>
  <path fill="#7C452B" filling="0" d="m225.38208,136.94406c-0.15237,-2.82379 0.25189,-5.67583 1.18335,-8.34601c0.00735,2.65421 -0.51119,5.27771 -1.18335,8.34601z" id="svg_19"/>
  <path fill="#7C452B" filling="0" d="m258.11731,139.71255c0.2261,-3.29194 0.36374,-6.58882 0.41412,-9.88815c0.74341,3.19121 0.64759,6.57286 -0.41412,9.88815z" id="svg_20"/>
  <path fill="#7C452B" filling="0" d="m257.94897,139.19278c-1.68835,-2.27821 -3.32391,-4.59328 -4.9066,-6.94641c1.08994,2.58906 2.4785,5.15603 4.9066,6.94641z" id="svg_21"/>
  <path fill="#DAA292" filling="0" d="m233.30786,157.57684c-0.22858,3.63234 -0.9855,7.23151 -2.24257,10.64756c-0.62422,1.69819 -1.46965,3.46275 -3.04744,4.34996c-0.51239,0.28877 -1.12805,0.51239 -1.38608,1.04078c-0.21627,0.44361 -0.10812,0.97321 0.03689,1.44385c0.93266,3.02286 3.25384,5.50502 6.02845,7.02382c2.77466,1.5188 5.97324,2.13811 9.13492,2.21306c2.60751,0.06146 5.28139,-0.25311 7.61365,-1.4205c2.33226,-1.16735 4.2836,-3.28824 4.77635,-5.84784c0.09337,-0.48291 0.13025,-1.00025 -0.06882,-1.44998c-0.32194,-0.725 -2.39616,-0.74343 -3.06707,-1.16736c-1.46228,-0.9253 -1.77318,-2.51905 -2.25362,-4.1816c-0.48047,-1.66257 0.07495,-3.72572 -0.17204,-5.28999c-0.1917,-1.48073 -0.41288,-3.03882 -1.32463,-4.22095c-0.46817,-0.60824 -1.09243,-1.07641 -1.72771,-1.5065c-1.16982,-0.79135 -2.4232,-1.48685 -3.7847,-1.86163c-1.36153,-0.37479 -2.8447,-0.41287 -4.16687,0.08355l-4.34871,0.14377z" id="svg_26"/>
  <path fill="#F0C3B3" filling="0" d="m236.78781,127.07803c-1.06537,2.48587 -2.25976,4.98278 -4.15089,6.91814c-1.89113,1.93535 -4.61168,3.24281 -7.3261,2.85944c-1.04326,-0.45958 -2.28804,-0.38218 -3.31039,0.12284c-1.02236,0.50504 -1.8223,1.41066 -2.28311,2.4527c-0.78766,1.77931 -0.55298,3.99237 0.66233,5.50994c1.21529,1.51881 3.38411,2.23152 5.26909,1.45491c-0.0639,5.92527 2.72425,11.68713 6.94025,15.85029c0.98428,0.97321 2.05455,1.87392 3.26861,2.53749c4.24552,2.32119 9.87343,1.2681 13.69745,-1.87394c2.1467,-1.65398 3.7331,-3.9457 4.90413,-6.38854c1.17227,-2.44284 1.95504,-5.05035 2.65666,-7.82867c0.74469,0.59842 1.82111,0.68443 2.71811,0.35266c0.89579,-0.33177 1.61957,-1.0322 2.13077,-1.83953c0.40058,-0.63159 0.68689,-1.34429 0.7569,-2.08894c0.07373,-0.78398 0.21753,-2.20201 -0.05036,-2.94298c-0.37231,-1.03096 -0.64514,-1.70558 -1.53845,-2.34088c-0.89212,-0.63528 -2.755,-0.54558 -3.78595,-0.08354c-7.9872,-0.73975 -15.53695,-5.30597 -20.55905,-12.67139z" id="svg_27"/>
  <path fill="#DAA292" filling="0" d="m224.82422,138.97772c-0.78027,-0.48784 -1.82968,-0.50995 -2.63086,-0.0565c-0.80119,0.45465 -1.31973,1.36641 -1.3013,2.28677c0.43866,-0.188 0.58859,-0.72621 0.9044,-1.0838c0.29735,-0.3367 0.76676,-0.51118 1.21158,-0.45094c0.25313,0.03441 0.4903,0.13762 0.73483,0.21133c0.24453,0.07373 0.51241,0.11429 0.75078,0.02335c0.23963,-0.09215 0.42765,-0.35144 0.33057,-0.93021z" id="svg_28"/>
  <path fill="#DAA292" filling="0" d="m258.52774,141.48203c0.64267,-0.26175 1.39224,-0.24454 2.02261,0.04423c0.63038,0.28876 1.13172,0.84787 1.35169,1.50526c0.03808,0.11184 0.06756,0.23349 0.03686,0.34777c-0.03073,0.11429 -0.14257,0.2138 -0.25927,0.19171c-0.07007,-0.01354 -0.12659,-0.06636 -0.17697,-0.11676c-0.26908,-0.27278 -0.53083,-0.57753 -0.88718,-0.71639c-0.68936,-0.26789 -1.54584,0.15483 -2.17743,-0.231c-0.14011,-0.08603 -0.26297,-0.21628 -0.29614,-0.37848c-0.03321,-0.16218 -0.03321,-0.47677 0.38583,-0.64634z" id="svg_29"/>
  <path fill="#A16A49" filling="0" d="m238.28204,138.61768c-1.43402,-0.72252 -3.12976,-0.90807 -4.68666,-0.51363c-1.55565,0.39444 -2.95894,1.36642 -3.87442,2.68492c-0.17077,0.24699 -0.29489,0.64758 -0.03315,0.79381c0.16835,0.09462 0.37478,-0.00122 0.5419,-0.09706c0.768,-0.44115 1.5397,-0.90685 2.39985,-1.11823c1.31359,-0.32193 2.68738,-0.01596 4.03783,0.07497c0.53946,0.03564 1.11944,0.0258 1.56427,-0.2814c0.44359,-0.30843 0.75571,-1.18949 0.05038,-1.54338z" id="svg_30"/>
  <path fill="#A16A49" filling="0" d="m254.05246,141.97969c-1.41313,-1.87639 -3.70607,-3.05847 -6.05431,-3.12117c-0.54066,-0.01472 -1.09486,0.03073 -1.59253,0.24577c-0.40181,0.17449 -0.78396,0.51365 -0.80731,0.9511c-0.01722,0.33546 0.18923,0.65372 0.46446,0.84665c0.27529,0.19168 0.61196,0.27525 0.94498,0.32318c0.9523,0.13638 1.92059,0.00859 2.884,0.00244c0.96213,-0.00613 1.97712,0.12779 2.74636,0.70657c0.24206,0.18186 0.45465,0.40427 0.72253,0.54558c0.26788,0.14009 0.61807,0.18186 0.69182,-0.50012z" id="svg_31"/>
  <path fill="#2E3E47" filling="0" d="m235.01465,143.53659c-0.29859,-0.12289 -0.7041,-0.07619 -0.97936,0.09952c-0.13147,0.08357 -0.20398,0.22241 -0.25682,0.35757c-0.16833,0.42887 -0.19659,0.89704 -0.08108,1.33081c0.06021,0.22733 0.16466,0.4534 0.35757,0.60825c0.1917,0.15481 0.48537,0.2261 0.72745,0.12656c0.26297,-0.10813 0.39568,-0.37355 0.46939,-0.62177c0.17697,-0.59598 0.52348,-1.58884 -0.23715,-1.90094z" id="svg_32"/>
  <path fill="#2E3E47" filling="0" d="m249.59067,144.53436c-0.20273,-0.28752 -0.65126,-0.31947 -0.94739,-0.12903c-0.29614,0.19048 -0.45221,0.54436 -0.49768,0.89458c-0.04054,0.31827 -0.00122,0.64511 0.11305,0.94495c0.0725,0.19046 0.17943,0.37355 0.34285,0.49519c0.16342,0.12166 0.38953,0.17328 0.57507,0.09094c0.11673,-0.05162 0.20766,-0.14868 0.28508,-0.24945c0.41411,-0.54188 0.62301,-1.34922 0.12902,-2.04718z" id="svg_33"/>
  <path fill="#DAA292" filling="0" d="m241.41055,140.07506c0.44115,2.99948 1.68839,5.15849 2.68862,7.69473c0.26297,0.66724 0.50503,1.35536 0.5505,2.07053c0.04546,0.71516 -0.12535,1.47212 -0.60211,2.00663c-0.75694,0.84789 -2.08281,0.93389 -3.16785,0.5972c-0.12042,-0.03808 -0.26542,-0.07495 -0.36248,0.00617c-0.17574,0.14743 0.04054,0.42022 0.24698,0.52099c1.03341,0.4989 2.33473,0.38706 3.26736,-0.28262c0.93146,-0.66969 1.45491,-1.8678 1.31114,-3.00565c-0.09707,-0.76678 -0.46325,-1.46719 -0.80362,-2.16146c-1.03465,-2.11477 -1.87025,-4.3266 -2.4908,-6.59743c-0.12777,-0.46941 -0.08354,-1.31604 -0.56892,-1.32956c-0.20766,-0.00615 -0.09216,0.3195 -0.06882,0.48047z" id="svg_34"/>
  <path fill="#2E3E47" filling="0" d="m236.48553,155.95361c0.13025,1.18457 0.71024,2.34824 1.6896,3.02776c0.60456,0.42024 1.3271,0.63896 2.05085,0.78154c0.73731,0.14497 1.50037,0.21625 2.23767,0.0688c1.20052,-0.24084 2.21798,-1.04082 3.03635,-1.95257c0.29736,-0.33178 0.58124,-0.69057 0.71762,-1.11452c0.13641,-0.42394 0.10077,-0.92652 -0.19046,-1.26322c-0.26788,-0.31088 -0.70288,-0.43008 -1.11331,-0.42637c-0.41042,0.00364 -0.81098,0.11058 -1.21649,0.1794c-0.77661,0.13024 -1.57901,0.11181 -2.34825,-0.05283c-0.89702,-0.19173 -1.75841,-0.58249 -2.67508,-0.61073c-0.91669,-0.02828 -2.2905,0.43869 -2.1885,1.36274z" id="svg_35"/>
  <path fill="#FFFFFF" filling="0" d="m246.22131,156.7511c-3.26739,0.45712 -6.72398,0.41534 -9.73947,-0.83191c-0.0639,-0.90192 1.28655,-1.3566 2.19219,-1.32832c0.91667,0.02824 1.77806,0.419 2.67508,0.61073c0.76924,0.16464 1.57164,0.18307 2.34825,0.05283c0.40551,-0.06882 0.80607,-0.17576 1.21649,-0.1794c0.41043,-0.00371 0.84543,0.11549 1.11331,0.42637c0.28752,0.33301 0.32564,0.82822 0.19415,1.2497z" id="svg_36"/>
  <path fill="#DAA292" filling="0" d="m256.35767,151.47586c-0.52224,1.75473 -1.12558,3.43572 -1.89849,5.04544c-1.17103,2.44284 -2.75743,4.73456 -4.90413,6.38854c-0.22734,0.18678 -0.46081,0.36619 -0.70044,0.53822c-0.68933,-0.60581 -1.12678,-1.48685 -1.29269,-2.3974c-0.19292,-1.06168 -0.04791,-2.16144 0.23962,-3.20223c0.6009,-2.17869 1.87883,-4.23078 3.78963,-5.43745c1.3996,-0.88351 3.15801,-1.24969 4.7665,-0.93512z" id="svg_37"/>
  <path fill="#DAA292" filling="0" d="m232.33832,161.99562c-3.1875,-3.24034 -5.51976,-7.40228 -6.35413,-11.83949c1.31728,-0.93268 3.30055,-0.88965 4.79601,-0.13027c2.50432,1.27182 3.95306,4.07595 4.26393,6.86779c0.13518,1.21527 0.06637,2.51535 -0.58612,3.54875c-0.48291,0.76556 -1.25461,1.28901 -2.11969,1.55322z" id="svg_38"/>
  <path fill="#55709B" filling="0" d="m167.18611,104.95224c3.50699,34.71606 20.9744,67.82364 48.18739,90.12881c-1.00515,4.65101 -2.014,9.46299 -1.06413,14.12507c0.61931,3.04005 2.05086,5.86259 3.46645,8.5377c-1.1649,12.74512 -2.87908,25.43861 -5.08478,37.59023c19.15329,2.33593 38.62733,2.02383 57.29895,-1.74244c-3.7196,-10.80853 -5.75815,-22.19213 -5.96091,-33.51062c7.30277,22.23392 16.504,43.8436 26.86032,64.95804c4.90662,-2.53253 9.65839,-5.36615 14.2197,-8.4787c0.64633,-0.44113 0.68567,-0.91543 0.93021,-1.69452c-10.70655,-20.83676 -18.01545,-39.94952 -24.26145,-62.52749c-1.54583,-5.58856 -2.97,-15.34772 -5.60208,-20.51483c-4.69159,-9.20493 -14.82916,-15.41159 -25.01593,-18.76131c-1.18088,1.52373 -2.9909,2.47234 -4.86972,2.90245c-1.87884,0.43005 -3.83632,0.37967 -5.75449,0.19412c-4.58343,-0.44482 -9.25531,-1.74487 -12.56939,-4.80703c-3.26859,0.29858 -6.55319,0.43743 -10.21871,0.21008c-15.54802,-15.16458 -23.98985,-36.0284 -31.28157,-56.48668c-1.41679,-3.97517 -2.81637,-8.00565 -3.2391,-12.68491c-5.08354,1.18212 -10.16831,2.36298 -16.04076,2.56203z" id="svg_39"/>
  <path fill="#395471" filling="0" d="m224.27371,171.60852c1.246,-0.0553 2.4699,-0.14502 3.69254,-0.2568c3.31408,3.06216 7.98596,4.36221 12.56939,4.80703c1.91817,0.18555 3.87565,0.23593 5.75449,-0.19412c1.87882,-0.43011 3.68884,-1.37872 4.86972,-2.90245c1.12436,0.36989 2.24747,0.77415 3.36324,1.21284c-0.94986,1.2165 -2.25731,2.08526 -3.56968,2.73652c-4.50111,2.23519 -9.7751,2.87541 -14.6817,1.78424c-4.62887,-1.02973 -8.90144,-3.59549 -11.998,-7.18726z" id="svg_40"/>
  <path fill="#395471" filling="0" d="m215.51727,194.62764c0.05776,-2.59155 0.72376,-5.16835 1.92801,-7.46498c-0.16345,2.40356 -0.75572,4.77881 -1.92801,7.46498z" id="svg_41"/>
  <path fill="#395471" filling="0" d="m263.82507,219.30807c1.22882,-3.29685 1.84076,-6.82229 1.79529,-10.34034c-0.06387,-4.89923 -1.38116,-9.68419 -2.68982,-14.40523c1.55194,3.95059 2.91223,8.02039 3.36075,12.24008c0.44852,4.22092 -0.06638,8.63233 -2.46622,12.50549z" id="svg_42"/>
 </g>

</svg>