<svg xmlns="http://www.w3.org/2000/svg" viewBox="0.0 0.0 256.0 256.0" height="256.0px" width="256.0px"><path fill="#F0C3B3" fill-opacity="1.0"  filling="0" d="M132.3751983642578 211.11544799804688 C132.4941864013672 212.47142028808594 132.6132354736328 213.82740783691406 132.73231506347656 215.1833953857422 C132.8513946533203 216.53936767578125 132.97048950195312 217.89535522460938 133.08958435058594 219.2513427734375 C133.2086639404297 220.60731506347656 133.32772827148438 221.96328735351562 133.44671630859375 223.31927490234375 C133.45960998535156 223.46426391601562 133.47926330566406 223.6234130859375 133.58740234375 223.71987915039062 C133.68017578125 223.80282592773438 133.81289672851562 223.8169403076172 133.93698120117188 223.82737731933594 C134.9055938720703 223.90939331054688 135.87405395507812 223.9915771484375 136.84249877929688 224.07376098632812 C137.81094360351562 224.15594482421875 138.77938842773438 224.2381134033203 139.74798583984375 224.32012939453125 C139.64947509765625 222.9334259033203 139.57745361328125 221.54481506347656 139.53195190429688 220.1553192138672 C139.4864501953125 218.7658233642578 139.46743774414062 217.3754425048828 139.4749755859375 215.98519897460938 C139.4824981689453 214.59494018554688 139.51657104492188 213.204833984375 139.57717895507812 211.81588745117188 C138.60980224609375 211.34463500976562 137.55934143066406 211.04803466796875 136.37570190429688 210.92999267578125 C135.1920623779297 210.81195068359375 133.875244140625 210.87246704101562 132.3751983642578 211.11544799804688"></path>
<path fill="#cdd3dd" fill-opacity="1.0"  filling="0" d="M140.63949584960938 223.49563598632812 C139.7369384765625 222.59429931640625 138.4964599609375 222.1571502685547 137.2233428955078 222.13241577148438 C135.95022583007812 222.10769653320312 134.64447021484375 222.49537658691406 133.61135864257812 223.24371337890625 C132.5782470703125 223.9917449951172 131.8019561767578 225.02102661132812 131.27357482910156 226.1820068359375 C130.7451934814453 227.34298706054688 130.4647216796875 228.63568115234375 130.42324829101562 229.9105682373047 C130.41647338867188 230.12806701660156 130.42755126953125 230.37506103515625 130.59158325195312 230.51820373535156 C130.70770263671875 230.61956787109375 130.8717498779297 230.64047241210938 131.02474975585938 230.65643310546875 C132.2086944580078 230.77850341796875 133.39749145507812 230.85284423828125 134.5873260498047 230.8795623779297 C135.77716064453125 230.90628051757812 136.9680633544922 230.8853759765625 138.15618896484375 230.81690979003906 C139.34432983398438 230.7484588623047 140.52972412109375 230.63247680664062 141.7085418701172 230.46902465820312 C141.93710327148438 230.43710327148438 142.18838500976562 230.3916473388672 142.3333740234375 230.21163940429688 C142.45013427734375 230.06723022460938 142.46917724609375 229.8687744140625 142.47900390625 229.6832275390625 C142.53184509277344 228.6461181640625 142.50634765625 227.53297424316406 142.25045776367188 226.4622344970703 C141.9945526123047 225.3914794921875 141.5082550048828 224.36314392089844 140.63949584960938 223.49563598632812"></path>
<path fill="#BBBFC7" fill-opacity="1.0"  filling="0" d="M142.50173950195312 228.85748291015625 C142.50112915039062 229.1364288330078 142.49252319335938 229.41229248046875 142.47900390625 229.6832275390625 C142.46917724609375 229.8687744140625 142.45013427734375 230.06723022460938 142.3333740234375 230.21163940429688 C142.18838500976562 230.3916473388672 141.93710327148438 230.43710327148438 141.7085418701172 230.46902465820312 C140.5297088623047 230.63246154785156 139.34432983398438 230.7484588623047 138.15618896484375 230.81690979003906 C136.96804809570312 230.88536071777344 135.77716064453125 230.90628051757812 134.5873260498047 230.8795623779297 C133.39749145507812 230.85284423828125 132.2086944580078 230.77850341796875 131.02474975585938 230.65643310546875 C130.8717498779297 230.64047241210938 130.70770263671875 230.61956787109375 130.59158325195312 230.51820373535156 C130.42755126953125 230.37506103515625 130.41647338867188 230.12806701660156 130.42324829101562 229.9105682373047 C130.43124389648438 229.6555633544922 130.4496612548828 229.39999389648438 130.47669982910156 229.14500427246094 L134.48504638671875 229.04916381835938 L138.49339294433594 228.9533233642578 L142.50173950195312 228.85748291015625"></path>
<path fill="#cdd3dd" fill-opacity="1.0"  filling="0" d="M117.99393463134766 222.25697326660156 C116.58265686035156 222.69720458984375 115.18811798095703 223.19117736816406 113.81431579589844 223.7373046875 C112.44052124023438 224.28341674804688 111.08745574951172 224.88168334960938 109.75912475585938 225.53050231933594 C109.00218200683594 225.90036010742188 108.23664855957031 226.2985076904297 107.66279602050781 226.91534423828125 C106.71723175048828 227.93218994140625 106.42414855957031 229.41290283203125 106.8358154296875 230.76766967773438 C108.355224609375 230.7432403564453 109.87451934814453 230.71243286132812 111.39338684082031 230.67701721191406 C112.91224670410156 230.64158630371094 114.43067932128906 230.60153198242188 115.9483642578125 230.55859375 C117.46604919433594 230.51565551757812 118.98297882080078 230.4698486328125 120.49884796142578 230.42291259765625 C122.01471710205078 230.3759765625 123.5295181274414 230.32791137695312 125.04293823242188 230.2804412841797 C125.380859375 229.40060424804688 125.48884582519531 228.47024536132812 125.48062896728516 227.52638244628906 C125.472412109375 226.58250427246094 125.34799194335938 225.6251220703125 125.22112274169922 224.69122314453125 C125.07243347167969 223.59637451171875 124.87213897705078 222.24468994140625 124.03961944580078 221.51910400390625 C123.4344482421875 220.991943359375 122.59454345703125 220.97286987304688 121.7915267944336 220.96121215820312 C120.5830078125 220.94400024414062 119.6165542602539 221.75070190429688 117.99392700195312 222.25697326660156"></path>
<path fill="#BBBFC7" fill-opacity="1.0"  filling="0" d="M125.40483093261719 228.83169555664062 C125.33847045898438 229.32504272460938 125.22357940673828 229.80978393554688 125.04293823242188 230.2804412841797 C123.5295181274414 230.32789611816406 122.01471710205078 230.3759765625 120.49884796142578 230.42291259765625 C118.98297882080078 230.4698486328125 117.4660415649414 230.5156707763672 115.9483642578125 230.55859375 C114.43067932128906 230.60153198242188 112.91224670410156 230.64157104492188 111.39338684082031 230.677001953125 C109.87452697753906 230.71243286132812 108.355224609375 230.7432403564453 106.8358154296875 230.76766967773438 C106.70248413085938 230.32833862304688 106.64288330078125 229.87615966796875 106.65579223632812 229.4307098388672 C108.22052001953125 229.427490234375 109.78512573242188 229.42076110839844 111.34927368164062 229.4044189453125 C112.91342163085938 229.38807678222656 114.47711181640625 229.36209106445312 116.03999328613281 229.3203582763672 C117.60287475585938 229.27862548828125 119.16494750976562 229.2211151123047 120.72586822509766 229.1417236328125 C122.28678894042969 229.06231689453125 123.8465576171875 228.96102905273438 125.40483093261719 228.83169555664062"></path>
<path fill="#F0C3B3" fill-opacity="1.0"  filling="0" d="M115.06938171386719 213.03298950195312 C115.32620239257812 214.6012420654297 115.63233184814453 216.16136169433594 115.99774932861328 217.73199462890625 C116.36316680908203 219.30264282226562 116.78787231445312 220.88380432128906 117.28184509277344 222.494140625 C118.35335540771484 223.13772583007812 119.62777709960938 223.3983917236328 120.87800598144531 223.2841033935547 C122.12823486328125 223.16983032226562 123.35426330566406 222.68060302734375 124.32901000976562 221.82443237304688 C124.15370178222656 220.5327606201172 123.97846221923828 219.24102783203125 123.8032455444336 217.9492645263672 C123.62802124023438 216.65750122070312 123.45282745361328 215.36572265625 123.2776107788086 214.07394409179688 C123.10238647460938 212.7821807861328 122.92715454101562 211.49044799804688 122.75184631347656 210.19876098632812 C121.36759948730469 210.0519256591797 119.94648742675781 209.90753173828125 118.6009521484375 210.26388549804688 C117.25543212890625 210.6202392578125 115.98053741455078 211.59222412109375 115.06938171386719 213.03298950195312"></path>
<path fill="#EEC25C" fill-opacity="1.0"  filling="0" d="M107.44284057617188 122.5859375 C107.34492492675781 124.20850372314453 107.25143432617188 125.83264923095703 107.16327667236328 127.45814514160156 C107.07511901855469 129.08364868164062 106.99229431152344 130.7104949951172 106.91571807861328 132.33848571777344 C106.83914184570312 133.9664764404297 106.76880645751953 135.59559631347656 106.70562744140625 137.22561645507812 C106.64244842529297 138.8556365966797 106.58643341064453 140.486572265625 106.53848266601562 142.11817932128906 C106.49053192138672 143.74978637695312 106.45064544677734 145.38209533691406 106.41973876953125 147.0148468017578 C106.38883209228516 148.64759826660156 106.36690521240234 150.2808074951172 106.35486602783203 151.9142608642578 C106.34282684326172 153.54771423339844 106.34068298339844 155.18138122558594 106.34933471679688 156.81507873535156 C106.35798645019531 158.44876098632812 106.37744140625 160.0824737548828 106.40860748291016 161.71595764160156 C106.43977355957031 163.3494415283203 106.48265075683594 164.9827117919922 106.53815460205078 166.6155548095703 C106.59365844726562 168.24838256835938 106.66178131103516 169.8807830810547 106.74343872070312 171.51251220703125 C106.8250961303711 173.1442413330078 106.92029571533203 174.7753143310547 107.0299301147461 176.40550231933594 C107.13957214355469 178.0356903076172 107.26365661621094 179.66497802734375 107.40309143066406 181.2931671142578 C107.54253387451172 182.92135620117188 107.69732666015625 184.54843139648438 107.86839294433594 186.17416381835938 C108.03945922851562 187.79991149902344 108.2267837524414 189.42430114746094 108.43128967285156 191.04714965820312 C108.63579559326172 192.6699981689453 108.85748291015625 194.29127502441406 109.09725952148438 195.91078186035156 C109.3370361328125 197.53028869628906 109.59490203857422 199.14801025390625 109.87176513671875 200.7637176513672 C110.14863586425781 202.37942504882812 110.44450378417969 203.99313354492188 110.7602767944336 205.60459899902344 C111.0760498046875 207.216064453125 111.4117431640625 208.8253173828125 111.76825714111328 210.43209838867188 C112.12477111816406 212.03887939453125 112.50210571289062 213.6431884765625 112.90116882324219 215.24484252929688 C114.2372817993164 215.1453094482422 115.56807708740234 214.97586059570312 116.89144897460938 214.7150115966797 C118.2148208618164 214.45416259765625 119.53077697753906 214.10189819335938 120.83721160888672 213.63673400878906 C122.1436538696289 213.17156982421875 123.44058227539062 212.59347534179688 124.72591400146484 211.8809814453125 C124.6376724243164 210.37393188476562 124.54943084716797 208.86688232421875 124.461181640625 207.3598175048828 C124.37294006347656 205.85275268554688 124.28469848632812 204.34568786621094 124.19645690917969 202.83860778808594 C124.10821533203125 201.33154296875 124.01997375488281 199.824462890625 123.93172454833984 198.3173828125 C123.8434829711914 196.810302734375 123.75524139404297 195.30320739746094 123.66699981689453 193.79612731933594 C123.5787582397461 192.28904724121094 123.49051666259766 190.78195190429688 123.40227508544922 189.27487182617188 C123.31403350830078 187.76779174804688 123.22578430175781 186.26071166992188 123.13754272460938 184.75363159179688 C123.04930114746094 183.24655151367188 122.9610595703125 181.73948669433594 122.87281036376953 180.232421875 C122.7845687866211 178.72535705566406 122.69631958007812 177.21829223632812 122.60807800292969 175.71124267578125 C122.51249694824219 174.0796661376953 122.41693878173828 172.44711303710938 122.32719421386719 170.81495666503906 C122.2374496459961 169.18280029296875 122.15351867675781 167.55101013183594 122.08118438720703 165.92095947265625 C122.00885009765625 164.29090881347656 121.94811248779297 162.66259765625 121.90476989746094 161.037353515625 C121.86141967773438 159.412109375 121.83546447753906 157.7899627685547 121.83267974853516 156.1722412109375 C121.82989501953125 154.5545196533203 121.85028839111328 152.94122314453125 121.89965057373047 151.3336944580078 C121.94900512695312 149.72616577148438 122.0273208618164 148.1244354248047 122.14038848876953 146.5298309326172 C122.25346374511719 144.93521118164062 122.40127563476562 143.34774780273438 122.58963775634766 141.76873779296875 C122.6742172241211 143.36920166015625 122.77391052246094 144.95867919921875 122.88655090332031 146.5384063720703 C122.99919128417969 148.11814880371094 123.12479400634766 149.68814086914062 123.2612075805664 151.24964904785156 C123.39762115478516 152.8111572265625 123.54483795166016 154.3641815185547 123.70072174072266 155.90997314453125 C123.85660552978516 157.45574951171875 124.02115631103516 158.99429321289062 124.19222259521484 160.52685546875 C124.36328887939453 162.0594024658203 124.5408706665039 163.58596801757812 124.72282409667969 165.1077880859375 C124.90477752685547 166.62960815429688 125.09109497070312 168.1466827392578 125.2796401977539 169.6602783203125 C125.46818542480469 171.17385864257812 125.65895080566406 172.6839599609375 125.84979248046875 174.19180297851562 C126.04063415527344 175.6996612548828 126.23155212402344 177.20526123046875 126.42040252685547 178.7098846435547 C126.6092529296875 180.21449279785156 126.79602813720703 181.71810913085938 126.97859191894531 183.22198486328125 C127.16114807128906 184.72586059570312 127.33949279785156 186.22999572753906 127.511474609375 187.73562622070312 C127.68345642089844 189.2412567138672 127.84906768798828 190.74839782714844 128.00616455078125 192.25828552246094 C128.16326904296875 193.76817321777344 128.31185913085938 195.28082275390625 128.44979858398438 196.79747009277344 C128.56346130371094 198.04747009277344 128.71173095703125 199.44020080566406 128.8839111328125 200.8970184326172 C129.0561065673828 202.3538360595703 129.2522430419922 203.87474060058594 129.46163940429688 205.381103515625 C129.67103576660156 206.887451171875 129.89370727539062 208.37925720214844 130.11895751953125 209.77786254882812 C130.34422302246094 211.1764678955078 130.57208251953125 212.48187255859375 130.79188537597656 213.61544799804688 C132.05223083496094 213.91937255859375 133.33734130859375 214.1187744140625 134.62034606933594 214.22352600097656 C135.90335083007812 214.32827758789062 137.18423461914062 214.33834838867188 138.4361114501953 214.2636260986328 C139.68797302246094 214.1888885498047 140.91082763671875 214.02935791015625 142.07778930664062 213.7948455810547 C142.08181762695312 212.13995361328125 142.0857391357422 210.4840545654297 142.08815002441406 208.82740783691406 C142.09054565429688 207.17076110839844 142.0914306640625 205.5133819580078 142.08937072753906 203.85556030273438 C142.08731079101562 202.19772338867188 142.08230590820312 200.53944396972656 142.0729522705078 198.88099670410156 C142.0635986328125 197.22254943847656 142.0498809814453 195.5639190673828 142.03041076660156 193.90542602539062 C142.01092529296875 192.24691772460938 141.9856719970703 190.58853149414062 141.9532470703125 188.9305419921875 C141.92080688476562 187.27255249023438 141.8811798095703 185.61495971679688 141.8329620361328 183.9580535888672 C141.7847442626953 182.3011474609375 141.72792053222656 180.64492797851562 141.66107177734375 178.9896697998047 C141.59422302246094 177.33441162109375 141.51736450195312 175.6801300048828 141.4290771484375 174.027099609375 C141.34078979492188 172.3740692138672 141.24105834960938 170.7222900390625 141.1284942626953 169.07203674316406 C141.01593017578125 167.42178344726562 140.8905029296875 165.7730712890625 140.75082397460938 164.12619018554688 C140.61114501953125 162.4792938232422 140.4571990966797 160.834228515625 140.28756713867188 159.19125366210938 C140.11793518066406 157.54827880859375 139.93263244628906 155.9074249267578 139.73023986816406 154.26893615722656 C139.52783203125 152.63046264648438 139.308349609375 150.99436950683594 139.07034301757812 149.36094665527344 C138.83233642578125 147.72752380371094 138.57582092285156 146.09678649902344 138.29937744140625 144.468994140625 C138.02293395996094 142.84120178222656 137.7265625 141.21636962890625 137.4088592529297 139.5947723388672 C137.09115600585938 137.97317504882812 136.75210571289062 136.35482788085938 136.39028930664062 134.739990234375 C136.1011199951172 133.44955444335938 135.8899688720703 132.0703582763672 135.63294982910156 130.70118713378906 C135.37591552734375 129.33200073242188 135.07302856445312 127.97283935546875 134.600341796875 126.72244262695312 C134.12765502929688 125.4720458984375 133.48519897460938 124.33041381835938 132.549072265625 123.39632415771484 C131.70611572265625 122.55521392822266 130.63638305664062 121.93357849121094 129.4526824951172 121.47000122070312 C128.26898193359375 121.00642395019531 126.97132110595703 120.7009048461914 125.67252349853516 120.49203491210938 C124.37373352050781 120.28315734863281 123.07379150390625 120.17092895507812 121.88554382324219 120.09393310546875 C120.69688415527344 120.01713562011719 119.50904083251953 120.03543090820312 118.18251037597656 120.17161560058594 C116.85597229003906 120.30780792236328 115.39073944091797 120.56189727783203 113.64730072021484 120.95668029785156 C111.90386199951172 121.35147094726562 109.88221740722656 121.88694763183594 107.44284057617188 122.5859375"></path>
<path fill="#B7832E" fill-opacity="1.0"  filling="0" d="M113.50942993164062 128.31459045410156 C113.33064270019531 129.67486572265625 112.68060302734375 130.95712280273438 111.80015563964844 132.01881408691406 C110.9086685180664 133.0706787109375 109.75790405273438 133.93389892578125 108.44922637939453 134.34494018554688 C109.52196502685547 133.5038299560547 110.49272155761719 132.63198852539062 111.33013916015625 131.62437438964844 C112.17863464355469 130.62474060058594 112.86860656738281 129.5169677734375 113.50942993164062 128.31459045410156"></path>
<path fill="#B7832E" fill-opacity="1.0"  filling="0" d="M129.55755615234375 128.27589416503906 C130.2874755859375 129.26077270507812 131.07266235351562 130.11416625976562 131.99856567382812 130.8195037841797 C132.91708374023438 131.5340576171875 133.94190979003906 132.07595825195312 135.0803985595703 132.53245544433594 C133.84298706054688 132.55825805664062 132.61480712890625 132.06304931640625 131.623779296875 131.3061065673828 C130.64012145996094 130.53994750976562 129.84939575195312 129.478271484375 129.55755615234375 128.27589416503906"></path>
<path fill="#B7832E" fill-opacity="1.0"  filling="0" d="M119.60918426513672 128.59169006347656 C119.85679626464844 129.24542236328125 119.92929077148438 129.95443725585938 119.96800231933594 130.63827514648438 C120.01101684570312 131.3245391845703 120.0079345703125 131.9991455078125 120.08964538574219 132.64981079101562 C120.15968322753906 133.28939819335938 120.33787536621094 133.92160034179688 120.62602233886719 134.49423217773438 C120.9197006225586 135.0625457763672 121.34672546386719 135.5731201171875 121.97525024414062 135.87969970703125 C121.26869201660156 135.82748413085938 120.61927032470703 135.3396453857422 120.21621704101562 134.74307250976562 C119.79781341552734 134.14279174804688 119.56924438476562 133.4356231689453 119.47955322265625 132.7198486328125 C119.32902526855469 131.28768920898438 119.61164855957031 129.96917724609375 119.60918426513672 128.59169006347656"></path>
<path fill="#B7832E" fill-opacity="1.0"  filling="0" d="M121.97647094726562 128.53578186035156 C122.07815551757812 129.6085205078125 122.14620208740234 130.6783447265625 122.19804382324219 131.7470245361328 C122.24988555908203 132.81568908691406 122.2855224609375 133.88320922851562 122.32238006591797 134.9513397216797 C122.35002136230469 136.019775390625 122.37874603271484 137.08746337890625 122.39103698730469 138.15728759765625 C122.40332794189453 139.22711181640625 122.39918518066406 140.29908752441406 122.36109161376953 141.37612915039062 C122.15679931640625 140.31752014160156 122.01194763183594 139.2521514892578 121.90904235839844 138.18331909179688 C121.80612182617188 137.114501953125 121.74514770507812 136.04220581054688 121.7085952758789 134.9697723388672 C121.68156433105469 133.89703369140625 121.67864227294922 132.82290649414062 121.71742248535156 131.74978637695312 C121.75621032714844 130.67666625976562 121.83670043945312 129.60452270507812 121.97647094726562 128.53578186035156"></path>
<path fill="#F0C3B3" fill-opacity="1.0"  filling="0" d="M146.1045684814453 140.7654266357422 C146.72122192382812 141.7716064453125 147.11279296875 142.86203002929688 147.36599731445312 143.999755859375 C147.61920166015625 145.13748168945312 147.73402404785156 146.32252502441406 147.79718017578125 147.5179443359375 C147.86032104492188 148.71336364746094 147.87179565429688 149.91915893554688 147.9182891845703 151.098388671875 C147.93240356445312 151.45228576660156 147.95269775390625 151.81661987304688 148.1056671142578 152.135498046875 C148.25927734375 152.45437622070312 148.5806121826172 152.7191925048828 149.01315307617188 152.71365356445312 C149.1433868408203 153.02268981933594 149.31666564941406 153.3335723876953 149.60235595703125 153.50930786132812 C149.88804626464844 153.6850128173828 150.31076049804688 153.67581176757812 150.4956817626953 153.4239044189453 C150.50921630859375 153.74462890625 150.71441650390625 154.0499725341797 151.00564575195312 154.18389892578125 C151.2974853515625 154.31784057617188 151.66244506835938 154.27423095703125 151.8651885986328 154.0327606201172 C151.88914489746094 154.30372619628906 152.13185119628906 154.52490234375 152.39971923828125 154.57220458984375 C152.66758728027344 154.61891174316406 152.946533203125 154.5144500732422 153.1566619873047 154.34181213378906 C153.54803466796875 154.01988220214844 153.7126922607422 153.50315856933594 153.8343505859375 153.0110321044922 C154.18515014648438 151.5911407470703 154.33262634277344 150.0606689453125 153.71453857421875 148.80545043945312 C154.24598693847656 148.7833251953125 154.64657592773438 148.25987243652344 154.71847534179688 147.73272705078125 C154.79034423828125 147.20556640625 154.61648559570312 146.6796417236328 154.4444580078125 146.1758270263672 C154.14370727539062 145.29385375976562 153.84219360351562 144.41018676757812 153.51171875 143.53866577148438 C153.18124389648438 142.66714477539062 152.82180786132812 141.8077392578125 152.40524291992188 140.9743194580078 C151.9549102783203 140.07298278808594 151.42282104492188 139.1851806640625 150.64805603027344 138.54127502441406 C149.87330627441406 137.89739990234375 148.81224060058594 137.52752685546875 147.83779907226562 137.78558349609375 C146.8633575439453 138.0448455810547 146.07508850097656 139.0438690185547 146.1045684814453 140.7654266357422"></path>
<path fill="#B57364" fill-opacity="1.0"  filling="0" d="M148.84971618652344 152.53488159179688 C148.85891723632812 151.67193603515625 148.8601531982422 150.80917358398438 148.85354614257812 149.94647216796875 C148.84695434570312 149.08377075195312 148.83251953125 148.22116088867188 148.81039428710938 147.35853576660156 C149.04232788085938 148.14990234375 149.12435913085938 148.9678192138672 149.11228942871094 149.8259735107422 C149.10023498535156 150.68414306640625 148.99411010742188 151.58255004882812 148.84971618652344 152.53488159179688"></path>
<path fill="#B57364" fill-opacity="1.0"  filling="0" d="M150.3285675048828 153.2291259765625 C150.36758422851562 152.3373260498047 150.36282348632812 151.4436798095703 150.3145294189453 150.5524139404297 C150.26622009277344 149.66114807128906 150.1743621826172 148.7722625732422 150.03919982910156 147.88998413085938 C150.4016876220703 148.72802734375 150.4944610595703 149.65762329101562 150.4956817626953 150.57061767578125 C150.49691772460938 151.48301696777344 150.41152954101562 152.3953857421875 150.3285675048828 153.2291259765625"></path>
<path fill="#B57364" fill-opacity="1.0"  filling="0" d="M151.7675018310547 153.72677612304688 C151.7886962890625 152.8101043701172 151.80897521972656 151.88589477539062 151.7633514404297 150.96981811523438 C151.71774291992188 150.0537567138672 151.60623168945312 149.14581298828125 151.3638458251953 148.26170349121094 C151.78408813476562 149.0435333251953 151.96902465820312 149.9044647216797 152.0068817138672 150.82260131835938 C152.04473876953125 151.74075317382812 151.93553161621094 152.71609497070312 151.7675018310547 153.72677612304688"></path>
<path fill="#B57364" fill-opacity="1.0"  filling="0" d="M153.66046142578125 148.6813507080078 C152.9207305908203 148.38644409179688 152.36715698242188 147.74868774414062 151.964111328125 147.06240844726562 C151.56045532226562 146.37611389160156 151.27906799316406 145.6247100830078 150.89752197265625 144.92552185058594 C151.15248107910156 146.10025024414062 151.6986846923828 147.21109008789062 152.47406005859375 148.13023376464844 C152.61660766601562 148.29981994628906 152.77020263671875 148.46505737304688 152.96249389648438 148.57505798339844 C153.15420532226562 148.68502807617188 153.3919677734375 148.7335662841797 153.66046142578125 148.6813507080078"></path>
<path fill="#F0C3B3" fill-opacity="1.0"  filling="0" d="M85.41413879394531 54.714385986328125 C85.01457214355469 53.42557907104492 84.6150131225586 52.13670349121094 84.21544647216797 50.84780502319336 C83.81588745117188 49.55890655517578 83.41632080078125 48.269989013671875 83.01675415039062 46.9810905456543 C82.6171875 45.69219207763672 82.21762084960938 44.4033203125 81.81805419921875 43.11450958251953 C81.5833511352539 42.357574462890625 81.34742736816406 41.59571838378906 81.24174499511719 40.809898376464844 C81.18461608886719 40.386573791503906 81.25403594970703 39.829322814941406 81.66752624511719 39.72547912597656 C82.04784393310547 39.6302490234375 82.36548614501953 40.012413024902344 82.56271362304688 40.35155487060547 C83.35160064697266 41.710601806640625 83.97029876708984 43.16796112060547 84.47840881347656 44.701507568359375 C84.19087219238281 43.871456146240234 83.9543228149414 43.025733947753906 83.7434310913086 42.17287063598633 C83.53253936767578 41.32000732421875 83.34729766845703 40.459999084472656 83.16236114501953 39.60137939453125 C83.10031127929688 39.31444549560547 83.03826141357422 39.01953125 83.08433532714844 38.72954559326172 C83.12980651855469 38.439544677734375 83.30797576904297 38.15138244628906 83.5875244140625 38.06169128417969 C83.86953735351562 37.97135925292969 84.18533325195312 38.105926513671875 84.38993835449219 38.320953369140625 C84.59391784667969 38.5360107421875 84.70942687988281 38.81800842285156 84.81632995605469 39.09449768066406 C85.38833618164062 40.569061279296875 85.86265563964844 42.08110046386719 86.32160949707031 43.57286071777344 C86.02670288085938 42.0006103515625 85.73117065429688 40.42835998535156 85.43626403808594 38.856109619140625 C85.37358856201172 38.52064514160156 85.3109130859375 38.169822692871094 85.40737915039062 37.84297180175781 C85.50384521484375 37.51548767089844 85.81349182128906 37.22425842285156 86.15202331542969 37.26972961425781 C86.5704345703125 37.326263427734375 86.76397705078125 37.810401916503906 86.86781311035156 38.22020721435547 C87.08807373046875 39.08866500854492 87.27469635009766 39.96495819091797 87.4435806274414 40.844703674316406 C87.61246490478516 41.724449157714844 87.76361083984375 42.60764694213867 87.91290283203125 43.48992156982422 C87.82749938964844 41.91828155517578 87.74209594726562 40.347259521484375 87.65670013427734 38.77562713623047 C87.64073181152344 38.485008239746094 87.6265869140625 38.18457794189453 87.72735595703125 37.911781311035156 C87.82810974121094 37.63899230957031 88.07633972167969 37.39814758300781 88.36756134033203 37.400604248046875 C88.61762237548828 37.40306091308594 88.83880615234375 37.58308410644531 88.96044921875 37.801795959472656 C89.08210754394531 38.019920349121094 89.12388610839844 38.273040771484375 89.16259002685547 38.52003479003906 C89.34475708007812 39.6735725402832 89.52155303955078 40.82925796508789 89.66463470458984 41.999691009521484 C89.80770874023438 43.17012023925781 89.91707611083984 44.35530090332031 89.96438598632812 45.56782531738281 C90.12106323242188 44.616111755371094 90.49644470214844 43.700660705566406 91.05248260498047 42.912384033203125 C91.30931091308594 42.54866027832031 91.71234893798828 42.17509460449219 92.13998413085938 42.29859924316406 C92.65176391601562 42.446044921875 92.719970703125 43.14216613769531 92.62965393066406 43.66746520996094 C92.45608520507812 44.67784881591797 92.08084106445312 45.641998291015625 91.72502899169922 46.608680725097656 C91.36921691894531 47.57536697387695 91.03282928466797 48.544586181640625 90.93698120117188 49.56510925292969 C90.85035705566406 50.488555908203125 90.96463775634766 51.41752624511719 90.9756851196289 52.34465026855469 C90.98551940917969 53.17408752441406 90.89028930664062 54.061279296875 90.3668212890625 54.705169677734375 C89.82368469238281 55.373016357421875 88.89962768554688 55.64581298828125 88.04193115234375 55.573333740234375 C87.18423461914062 55.500823974609375 86.38119506835938 55.12604522705078 85.41413879394531 54.714385986328125"></path>
<path fill="#A16A49" fill-opacity="1.0"  filling="0" d="M118.2020034790039 58.93023681640625 C116.86903381347656 58.314544677734375 115.18927001953125 58.49192810058594 113.93183135986328 59.227516174316406 C112.67439270019531 59.963096618652344 111.82381439208984 61.195594787597656 111.4383773803711 62.51216125488281 C111.19747924804688 63.33345031738281 111.10944366455078 64.22418975830078 110.57649230957031 64.92233276367188 C110.16548156738281 65.46046447753906 109.53377532958984 65.8217544555664 109.05316925048828 66.30943298339844 C108.41373443603516 66.95658874511719 108.05863189697266 67.8310546875 108.08065032958984 68.70171356201172 C108.09135437011719 69.12104034423828 108.18474578857422 69.54471588134766 108.0931396484375 69.95590209960938 C107.9581069946289 70.5602035522461 107.45133209228516 71.02727508544922 107.00047302246094 71.48728942871094 C106.45442962646484 72.04493713378906 105.95121765136719 72.65792846679688 105.69188690185547 73.36693572998047 C105.43254089355469 74.07594299316406 105.4444351196289 74.89777374267578 105.8822250366211 75.52975463867188 C106.58052825927734 76.5382080078125 108.05745697021484 76.76603698730469 109.11621856689453 76.98084259033203 C109.65571594238281 76.9195556640625 110.16963195800781 77.21411895751953 110.55329132080078 77.56507873535156 C110.93695068359375 77.91606903076172 111.24565887451172 78.33702087402344 111.67453002929688 78.64134979248047 C112.32286071777344 79.10135650634766 113.18118286132812 79.24727630615234 114.00262451171875 79.23914337158203 C114.82405090332031 79.23101043701172 115.63658142089844 79.0850830078125 116.45563507080078 79.02703094482422 C117.44778442382812 78.9570541381836 118.4387435913086 79.01699829101562 119.3990707397461 79.13722229003906 C120.3593978881836 79.2574462890625 121.28909301757812 79.43795013427734 122.15870666503906 79.60909271240234 C123.16334533691406 79.6801528930664 124.0853042602539 78.85289764404297 125.07508087158203 79.02811431884766 C125.4170913696289 79.08831787109375 125.71867370605469 79.26408386230469 126.03390502929688 79.39969635009766 C126.88033294677734 79.7636947631836 127.87189483642578 79.83909606933594 128.7730255126953 79.60855102539062 C129.5474853515625 79.41055297851562 130.2731475830078 78.99393463134766 131.07733154296875 78.99718475341797 C131.78575134277344 79.00045776367188 132.435302734375 79.330810546875 133.1026611328125 79.5472640991211 C133.77005004882812 79.76370239257812 134.5873260498047 79.8467025756836 135.1250457763672 79.4251937866211 C135.7043914794922 78.97115325927734 135.6895294189453 78.14171600341797 135.45040893554688 77.48046112060547 C135.21128845214844 76.81918334960938 134.79551696777344 76.20023345947266 134.72235107421875 75.5069580078125 C134.5623321533203 73.99835968017578 136.04937744140625 72.64381408691406 135.87451171875 71.1368408203125 C135.77191162109375 70.25370025634766 135.14332580566406 69.5728988647461 134.46441650390625 68.90193176269531 C133.7855224609375 68.23097229003906 133.0562744140625 67.56983947753906 132.75233459472656 66.72603607177734 C132.33119201660156 65.55592346191406 132.808837890625 64.25455474853516 132.49301147460938 63.05732727050781 C132.20452880859375 61.96424865722656 131.1427764892578 60.547332763671875 130.18690490722656 59.837242126464844 C129.3610076904297 59.22370529174805 128.58641052246094 58.78443908691406 127.76504516601562 58.42349624633789 C126.94367980957031 58.06255340576172 126.07554626464844 57.779930114746094 125.06257629394531 57.47967529296875 C123.80870819091797 57.10809326171875 122.16107177734375 57.00556182861328 120.86914825439453 57.24424743652344 C119.57601928710938 57.481849670410156 118.3465347290039 58.28361511230469 118.20199584960938 58.93023681640625"></path>
<path fill="#7C452B" fill-opacity="1.0"  filling="0" d="M112.6910400390625 68.47203063964844 C112.61485290527344 67.06013488769531 112.81698608398438 65.63411712646484 113.28271484375 64.29902648925781 C113.28639221191406 65.62612915039062 113.0271224975586 66.93788146972656 112.6910400390625 68.47203063964844"></path>
<path fill="#7C452B" fill-opacity="1.0"  filling="0" d="M129.05865478515625 69.85627746582031 C129.1717071533203 68.2103042602539 129.2405242919922 66.5618667602539 129.26571655273438 64.91220092773438 C129.45156860351562 65.71000671386719 129.5325164794922 66.53160858154297 129.50064086914062 67.36097717285156 C129.46878051757812 68.19033813476562 129.32408142089844 69.02745056152344 129.05865478515625 69.85627746582031"></path>
<path fill="#7C452B" fill-opacity="1.0"  filling="0" d="M128.9744873046875 69.59638977050781 C128.13031005859375 68.45728302001953 127.31253051757812 67.29975128173828 126.52118682861328 66.12318420410156 C127.06615447998047 67.41771697998047 127.76043701171875 68.70120239257812 128.9744873046875 69.59638977050781"></path>
<path fill="#DAA292" fill-opacity="1.0"  filling="0" d="M116.6539306640625 78.78842163085938 C116.59678649902344 79.69650268554688 116.47360229492188 80.60044860839844 116.2861328125 81.4908676147461 C116.09866333007812 82.38128662109375 115.84690856933594 83.25818634033203 115.53264617919922 84.11219787597656 C115.22053527832031 84.96129608154297 114.79782104492188 85.84357452392578 114.00892639160156 86.28717803955078 C113.75273132324219 86.43156433105469 113.44490051269531 86.54337310791016 113.31588745117188 86.80757141113281 C113.20775604248047 87.02937316894531 113.26182556152344 87.29417419433594 113.33433532714844 87.52949523925781 C113.80066680908203 89.04092407226562 114.96125793457031 90.2820053100586 116.34855651855469 91.0414047241211 C117.73588562011719 91.8008041381836 119.33517456054688 92.11045837402344 120.916015625 92.14793395996094 C122.21977233886719 92.17866516113281 123.55670928955078 92.02137756347656 124.72283935546875 91.43768310546875 C125.88896942138672 90.85401153564453 126.86463928222656 89.79356384277344 127.11101531982422 88.51376342773438 C127.15769958496094 88.27230834960938 127.17613983154297 88.01364135742188 127.07660675048828 87.78877258300781 C126.91563415527344 87.42626953125 125.87852478027344 87.41706085205078 125.54307556152344 87.20509338378906 C124.81193542480469 86.74244689941406 124.65648651123047 85.94557189941406 124.41626739501953 85.11429595947266 C124.17603302001953 84.28301239013672 124.45374298095703 83.25143432617188 124.33024597167969 82.46929931640625 C124.2343978881836 81.72893524169922 124.1238021850586 80.94989013671875 123.66793060302734 80.35882568359375 C123.43384552001953 80.05470275878906 123.12171936035156 79.82061767578125 122.8040771484375 79.60557556152344 C122.21916961669922 79.20989990234375 121.59247589111328 78.86215209960938 120.91172790527344 78.67475891113281 C120.23096466064453 78.48736572265625 119.4893798828125 78.46832275390625 118.82829284667969 78.71653747558594 L116.65393829345703 78.78842163085938"></path>
<path fill="#F0C3B3" fill-opacity="1.0"  filling="0" d="M118.39390563964844 63.53901672363281 C117.86122131347656 64.78195190429688 117.26402282714844 66.03040313720703 116.3184585571289 66.99808502197266 C115.37289428710938 67.96575927734375 114.01261901855469 68.61949157714844 112.65541076660156 68.42780303955078 C112.13378143310547 68.19801330566406 111.51139068603516 68.23670959472656 111.00021362304688 68.48921966552734 C110.4890365600586 68.74173736572266 110.08906555175781 69.19454956054688 109.85865783691406 69.71556854248047 C109.46482849121094 70.605224609375 109.58216857910156 71.71175384521484 110.1898193359375 72.47053527832031 C110.7974624633789 73.22994232177734 111.88187408447266 73.58629608154297 112.8243637084961 73.19799041748047 C112.80838775634766 74.67930603027344 113.14891815185547 76.14019775390625 113.75694274902344 77.49095916748047 C114.3649673461914 78.84172058105469 115.24048614501953 80.08235168457031 116.29448699951172 81.12313842773438 C116.78662872314453 81.6097412109375 117.32176208496094 82.06009674072266 117.92879486083984 82.39188385009766 C118.99017333984375 82.97218322753906 120.22434997558594 83.13069152832031 121.43218994140625 82.94775390625 C122.64002227783203 82.76481628417969 123.82151794433594 82.24041748046875 124.77751922607422 81.45491027832031 C125.85086822509766 80.62792205810547 126.6440658569336 79.48206329345703 127.22958374023438 78.2606430053711 C127.81571960449219 77.03922271728516 128.2071075439453 75.73546600341797 128.5579071044922 74.34630584716797 C128.9302520751953 74.64551544189453 129.4684600830078 74.68852233886719 129.91696166992188 74.52263641357422 C130.36485290527344 74.35675048828125 130.72674560546875 74.00653839111328 130.9823455810547 73.60287475585938 C131.18263244628906 73.28707885742188 131.32579040527344 72.93073272705078 131.3607940673828 72.55840301513672 C131.3976593017578 72.16641235351562 131.4695587158203 71.4573974609375 131.3356170654297 71.0869140625 C131.1494598388672 70.5714340209961 131.01304626464844 70.23412322998047 130.56639099121094 69.91647338867188 C130.12033081054688 69.59883117675781 129.1888885498047 69.64368438720703 128.6734161376953 69.87470245361328 C127.34221649169922 69.75141143798828 126.03531646728516 69.41553497314453 124.79143524169922 68.8861083984375 C123.54754638671875 68.35667419433594 122.36666870117188 67.6336898803711 121.28750610351562 66.73616027832031 C120.2083511352539 65.83863830566406 119.23091125488281 64.7665786743164 118.39389038085938 63.53900909423828"></path>
<path fill="#DAA292" fill-opacity="1.0"  filling="0" d="M112.412109375 69.48886108398438 C112.02197265625 69.24494171142578 111.49726867675781 69.23388671875 111.0966796875 69.46060943603516 C110.69608306884766 69.68793487548828 110.43681335449219 70.14381408691406 110.44602966308594 70.60399627685547 C110.66535949707031 70.50999450683594 110.74032592773438 70.24089050292969 110.89823150634766 70.06209564208984 C111.04690551757812 69.89374542236328 111.28160858154297 69.80650329589844 111.50402069091797 69.83662414550781 C111.63058471679688 69.85382843017578 111.7491683959961 69.90543365478516 111.8714370727539 69.94229125976562 C111.99370574951172 69.97915649414062 112.12763977050781 69.99943542480469 112.246826171875 69.95396423339844 C112.36663818359375 69.90789031982422 112.46064758300781 69.77824401855469 112.412109375 69.48886108398438"></path>
<path fill="#DAA292" fill-opacity="1.0"  filling="0" d="M129.2638702392578 70.74101257324219 C129.585205078125 70.61013793945312 129.95999145507812 70.61874389648438 130.27517700195312 70.76313018798828 C130.59036254882812 70.90750885009766 130.84103393554688 71.18706512451172 130.95101928710938 71.51576232910156 C130.97006225585938 71.57168579101562 130.98480224609375 71.63250732421875 130.96945190429688 71.68964385986328 C130.95408630371094 71.74678802490234 130.89816284179688 71.79654693603516 130.83981323242188 71.7854995727539 C130.80477905273438 71.77873229980469 130.77651977539062 71.7523193359375 130.75132751464844 71.72711944580078 C130.61679077148438 71.59072875976562 130.4859161376953 71.4383544921875 130.3077392578125 71.36892700195312 C129.9630584716797 71.2349853515625 129.53482055664062 71.44634246826172 129.21902465820312 71.25342559814453 C129.1489715576172 71.21041107177734 129.08753967285156 71.1452865600586 129.07095336914062 71.0641860961914 C129.05435180664062 70.98309326171875 129.05435180664062 70.82579803466797 129.2638702392578 70.74101257324219"></path>
<path fill="#A16A49" fill-opacity="1.0"  filling="0" d="M119.14102172851562 69.308837890625 C118.42401123046875 68.94757843017578 117.57614135742188 68.85480499267578 116.79769134521484 69.0520248413086 C116.01986694335938 69.2492446899414 115.31822204589844 69.73523712158203 114.86048126220703 70.39448547363281 C114.77509307861328 70.51798248291016 114.7130355834961 70.71827697753906 114.84390258789062 70.79138946533203 C114.9280776977539 70.83869934082031 115.03129577636719 70.79077911376953 115.11485290527344 70.74285888671875 C115.49885559082031 70.52228546142578 115.88470458984375 70.28943634033203 116.31478118896484 70.18374633789062 C116.97157287597656 70.02278137207031 117.6584701538086 70.17576599121094 118.33369445800781 70.22122955322266 C118.60342407226562 70.23905181884766 118.89341735839844 70.234130859375 119.11582946777344 70.08052825927734 C119.3376235961914 69.92631530761719 119.49368286132812 69.48578643798828 119.14102172851562 69.308837890625"></path>
<path fill="#A16A49" fill-opacity="1.0"  filling="0" d="M127.02622985839844 70.9898452758789 C126.31966400146484 70.05165100097656 125.1731948852539 69.46060943603516 123.99907684326172 69.42926025390625 C123.72874450683594 69.4218978881836 123.45164489746094 69.44462585449219 123.20281219482422 69.5521469116211 C123.00190734863281 69.63938903808594 122.81082916259766 69.80897521972656 122.79915618896484 70.02769470214844 C122.79054260253906 70.19542694091797 122.89376831054688 70.35455322265625 123.03138732910156 70.45101928710938 C123.16902923583984 70.54685974121094 123.33736419677734 70.5886459350586 123.50387573242188 70.61260986328125 C123.98002624511719 70.68080139160156 124.46417236328125 70.61690521240234 124.94587707519531 70.61383056640625 C125.42694091796875 70.61076354980469 125.93444061279297 70.67772674560547 126.31905364990234 70.96711730957031 C126.4400863647461 71.05804443359375 126.54637908935547 71.16925048828125 126.6803207397461 71.23990631103516 C126.81426239013672 71.30995178222656 126.9893569946289 71.3308334350586 127.02622985839844 70.9898452758789"></path>
<path fill="#2E3E47" fill-opacity="1.0"  filling="0" d="M117.50732421875 71.76829528808594 C117.3580322265625 71.70684814453125 117.1552734375 71.7302017211914 117.01764678955078 71.81805419921875 C116.95191192626953 71.8598403930664 116.91565704345703 71.92926025390625 116.88923645019531 71.99684143066406 C116.80506896972656 72.21127319335938 116.79093933105469 72.44535827636719 116.84869384765625 72.66224670410156 C116.87879943847656 72.77590942382812 116.93102264404297 72.88894653320312 117.02748107910156 72.96636962890625 C117.12332916259766 73.04377746582031 117.2701644897461 73.07942199707031 117.39120483398438 73.02964782714844 C117.52268981933594 72.9755859375 117.58904266357422 72.8428726196289 117.62590026855469 72.71876525878906 C117.71438598632812 72.4207763671875 117.88764190673828 71.92434692382812 117.50732421875 71.76829528808594"></path>
<path fill="#2E3E47" fill-opacity="1.0"  filling="0" d="M124.79533386230469 72.26718139648438 C124.6939697265625 72.12342071533203 124.4697036743164 72.1074447631836 124.32164001464844 72.20266723632812 C124.17356872558594 72.29790496826172 124.09553527832031 72.47484588623047 124.07279968261719 72.64995574951172 C124.05252838134766 72.80908966064453 124.07218933105469 72.9725112915039 124.12932586669922 73.12242889404297 C124.16557312011719 73.21765899658203 124.21903991699219 73.3092041015625 124.30075073242188 73.37002563476562 C124.38246154785156 73.43085479736328 124.49551391601562 73.4566650390625 124.58828735351562 73.41549682617188 C124.64665222167969 73.38968658447266 124.6921157836914 73.34115600585938 124.73082733154297 73.290771484375 C124.93788146972656 73.01982879638672 125.0423355102539 72.61616516113281 124.79533386230469 72.26718139648438"></path>
<path fill="#DAA292" fill-opacity="1.0"  filling="0" d="M120.70527648925781 70.03752899169922 C120.92584991455078 71.53726959228516 121.54946899414062 72.61677551269531 122.0495834350586 73.88489532470703 C122.18106842041016 74.21851348876953 122.3021011352539 74.56257629394531 122.32483673095703 74.92015838623047 C122.34756469726562 75.27774047851562 122.26216125488281 75.65621948242188 122.0237808227539 75.92347717285156 C121.64530944824219 76.34741973876953 120.98237609863281 76.39041900634766 120.43985748291016 76.22207641601562 C120.37964630126953 76.20303344726562 120.30714416503906 76.18460083007812 120.25862121582031 76.22515869140625 C120.1707534790039 76.29887390136719 120.27889251708984 76.43527221679688 120.38211059570312 76.48565673828125 C120.89881896972656 76.735107421875 121.54947662353516 76.67918395996094 122.01579284667969 76.34434509277344 C122.48152160644531 76.0094985961914 122.74324798583984 75.41044616699219 122.6713638305664 74.84152221679688 C122.6228256225586 74.4581298828125 122.43973541259766 74.10792541503906 122.2695541381836 73.76079559326172 C121.75222778320312 72.70340728759766 121.33442687988281 71.59749603271484 121.02415466308594 70.46208190917969 C120.96026611328125 70.22737884521484 120.98238372802734 69.80406188964844 120.73969268798828 69.79730224609375 C120.6358642578125 69.79422760009766 120.69361114501953 69.9570541381836 120.70528411865234 70.03753662109375"></path>
<path fill="#2E3E47" fill-opacity="1.0"  filling="0" d="M118.24276733398438 77.976806640625 C118.30789184570312 78.569091796875 118.59788513183594 79.15092468261719 119.08757019042969 79.49068450927734 C119.38984680175781 79.7008056640625 119.7511215209961 79.81016540527344 120.11299133300781 79.88145446777344 C120.48164367675781 79.95394134521484 120.86317443847656 79.98957824707031 121.23182678222656 79.91585540771484 C121.83208465576172 79.7954330444336 122.3408203125 79.39544677734375 122.75 78.93956756591797 C122.898681640625 78.77367401123047 123.04061889648438 78.59428405761719 123.10881042480469 78.38230895996094 C123.17701721191406 78.17034149169922 123.15919494628906 77.91905212402344 123.01358032226562 77.75070190429688 C122.879638671875 77.59526062011719 122.66213989257812 77.53565979003906 122.45692443847656 77.53751373291016 C122.25171661376953 77.53933715820312 122.05143737792969 77.59280395507812 121.84867858886719 77.62721252441406 C121.46037292480469 77.69232940673828 121.05917358398438 77.68312072753906 120.67455291748047 77.60079956054688 C120.22604370117188 77.50493621826172 119.79534912109375 77.30955505371094 119.3370132446289 77.2954330444336 C118.87866973876953 77.28129577636719 118.19176483154297 77.51477813720703 118.24275970458984 77.976806640625"></path>
<path fill="#FFFFFF" fill-opacity="1.0"  filling="0" d="M123.11065673828125 78.37554931640625 C121.47695922851562 78.60411071777344 119.74866485595703 78.58322143554688 118.24092102050781 77.9595947265625 C118.20896911621094 77.50863647460938 118.88419342041016 77.28129577636719 119.3370132446289 77.2954330444336 C119.79534912109375 77.30955505371094 120.22604370117188 77.50493621826172 120.67455291748047 77.60079956054688 C121.05917358398438 77.68312072753906 121.46037292480469 77.69233703613281 121.84867858886719 77.62721252441406 C122.05143737792969 77.59280395507812 122.25171661376953 77.5393295288086 122.45692443847656 77.53751373291016 C122.66213989257812 77.53565979003906 122.879638671875 77.59526062011719 123.01358032226562 77.75070190429688 C123.15734100341797 77.91720581054688 123.17639923095703 78.16481018066406 123.11065673828125 78.37554931640625"></path>
<path fill="#DAA292" fill-opacity="1.0"  filling="0" d="M128.1788330078125 75.73793029785156 C127.91770935058594 76.61529541015625 127.61604309082031 77.4557876586914 127.2295913696289 78.26065063476562 C126.64407348632812 79.48207092285156 125.85087585449219 80.6279296875 124.77752685546875 81.45491790771484 C124.66385650634766 81.54830932617188 124.547119140625 81.63801574707031 124.42730712890625 81.72402954101562 C124.0826416015625 81.42112731933594 123.8639144897461 80.98060607910156 123.78096008300781 80.52532958984375 C123.68450164794922 79.99449157714844 123.75700378417969 79.44461059570312 123.90077209472656 78.9242172241211 C124.20122528076172 77.83486938476562 124.8401870727539 76.80883026123047 125.79558563232422 76.20549011230469 C126.4953842163086 75.76373291015625 127.37458801269531 75.58064270019531 128.1788330078125 75.73793029785156"></path>
<path fill="#DAA292" fill-opacity="1.0"  filling="0" d="M116.16915893554688 80.99781036376953 C115.37228393554688 80.18772888183594 114.68231201171875 79.26243591308594 114.13941192626953 78.2623519897461 C113.59651184082031 77.26226043701172 113.20068359375 76.18736267089844 112.99209594726562 75.07806396484375 C113.6507339477539 74.61172485351562 114.64237213134766 74.63323974609375 115.39009857177734 75.01293182373047 C116.64225769042969 75.64884185791016 117.36663055419922 77.0509033203125 117.52206420898438 78.44682312011719 C117.58965301513672 79.05445861816406 117.55525207519531 79.70449829101562 117.22900390625 80.22119903564453 C116.987548828125 80.6039810180664 116.60169982910156 80.86570739746094 116.16915893554688 80.99781036376953"></path>
<path fill="#55709B" fill-opacity="1.0"  filling="0" d="M83.59305572509766 52.47611999511719 C83.7524642944336 54.05412292480469 83.96955871582031 55.62548065185547 84.24275970458984 57.18673324584961 C84.51596069335938 58.747989654541016 84.84526824951172 60.29914474487305 85.22909545898438 61.83674621582031 C85.61292266845703 63.37434768676758 86.05126953125 64.89839172363281 86.54254913330078 66.40543365478516 C87.0338363647461 67.9124755859375 87.57805633544922 69.40250396728516 88.17362976074219 70.8720703125 C88.76920318603516 72.34163665771484 89.4161376953125 73.7907485961914 90.11283874511719 75.2159423828125 C90.80953979492188 76.6411361694336 91.55601501464844 78.04241180419922 92.35067749023438 79.41632080078125 C93.14533996582031 80.79022979736328 93.98818969726562 82.13676452636719 94.87763977050781 83.45248413085938 C95.76708984375 84.76819610595703 96.7031478881836 86.05308532714844 97.6842269897461 87.30370330810547 C98.6653060913086 88.5543212890625 99.69139862060547 89.77066040039062 100.76094055175781 90.94926452636719 C101.83047485351562 92.12786865234375 102.94345092773438 93.26875305175781 104.09828186035156 94.36844635009766 C105.25311279296875 95.4681396484375 106.44979858398438 96.52665710449219 107.68675231933594 97.54052734375 C107.43546295166016 98.70327758789062 107.1837158203125 99.88615417480469 107.05415344238281 101.06971740722656 C106.92459106445312 102.25328063964844 106.91722106933594 103.43754577636719 107.1546859741211 104.60306549072266 C107.46434020996094 106.12309265136719 108.18011474609375 107.53436279296875 108.88790893554688 108.87191772460938 C108.74229431152344 110.46505737304688 108.57952117919922 112.05658721923828 108.4000244140625 113.64266967773438 C108.22053527832031 115.22875213623047 108.02433013916016 116.80939483642578 107.8118667602539 118.3807601928711 C107.59939575195312 119.9521255493164 107.37066650390625 121.51422119140625 107.12612915039062 123.06320190429688 C106.881591796875 124.61219787597656 106.62123107910156 126.14807891845703 106.34552001953125 127.66703033447266 C107.9416275024414 127.8616943359375 109.54219055175781 128.0195770263672 111.14460754394531 128.13880920410156 C112.74702453613281 128.25804138183594 114.3512954711914 128.33863830566406 115.95482635498047 128.37872314453125 C117.558349609375 128.41880798339844 119.1611328125 128.4183807373047 120.76057434082031 128.37557983398438 C122.3600082397461 128.33277893066406 123.95610046386719 128.24758911132812 125.54624938964844 128.1181640625 C127.13639831542969 127.98873901367188 128.72059631347656 127.81507873535156 130.2962646484375 127.59530639648438 C131.87191772460938 127.37554168701172 133.43902587890625 127.10966491699219 134.9949951171875 126.79580688476562 C134.53004455566406 125.44474029541016 134.1176300048828 124.0757064819336 133.7589569091797 122.69369506835938 C133.40028381347656 121.31169128417969 133.0953369140625 119.91670989990234 132.84536743164062 118.5137710571289 C132.5953826904297 117.11082458496094 132.4003448486328 115.69992065429688 132.261474609375 114.28604125976562 C132.1226043701172 112.87216186523438 132.03988647460938 111.45530700683594 132.01454162597656 110.04049682617188 C132.47096252441406 111.43011474609375 132.9422149658203 112.81485748291016 133.42758178710938 114.19485473632812 C133.91294860839844 115.57484436035156 134.41241455078125 116.95008850097656 134.9252471923828 118.3207015991211 C135.43809509277344 119.69131469726562 135.96432495117188 121.05731201171875 136.50320434570312 122.4188003540039 C137.04208374023438 123.7802963256836 137.59361267089844 125.13729095458984 138.15707397460938 126.48991394042969 C138.7205352783203 127.84253692626953 139.29592895507812 129.19078063964844 139.8825225830078 130.5347900390625 C140.4691162109375 131.8787841796875 141.06690979003906 133.21853637695312 141.6751708984375 134.55416870117188 C142.283447265625 135.88980102539062 142.90219116210938 137.2213134765625 143.5306854248047 138.548828125 C144.1591796875 139.8763427734375 144.79742431640625 141.19985961914062 145.4447021484375 142.51951599121094 C146.67135620117188 141.88638305664062 147.878662109375 141.21560668945312 149.0643768310547 140.5085906982422 C150.25009155273438 139.80157470703125 151.41421508789062 139.0583038330078 152.55455017089844 138.28016662597656 C152.87771606445312 138.05960083007812 152.8973846435547 137.82244873046875 153.0196533203125 137.4329071044922 C152.25489807128906 135.94456481933594 151.52481079101562 134.47381591796875 150.8260040283203 133.01309204101562 C150.12718200683594 131.5523681640625 149.4596405029297 130.1016845703125 148.8199462890625 128.6534423828125 C148.1802520751953 127.20521545410156 147.5684356689453 125.75944519042969 146.98106384277344 124.30857849121094 C146.39370727539062 122.85771179199219 145.83079528808594 121.40174102783203 145.2889404296875 119.93310546875 C144.74710083007812 118.46446990966797 144.22630310058594 116.98316955566406 143.72315979003906 115.48163604736328 C143.22003173828125 113.9801025390625 142.7345428466797 112.45834350585938 142.2633056640625 110.90878295898438 C141.7920684814453 109.35922241210938 141.3350830078125 107.78187561035156 140.88893127441406 106.16915893554688 C140.63128662109375 105.23773193359375 140.3804168701172 104.0746078491211 140.11166381835938 102.84204864501953 C139.84292602539062 101.6094970703125 139.5563201904297 100.30751037597656 139.22723388671875 99.09837341308594 C138.8981475830078 97.88922882080078 138.52658081054688 96.77293395996094 138.087890625 95.9117431640625 C137.50143432617188 94.76112365722656 136.74481201171875 93.70420837402344 135.8601531982422 92.73987579345703 C134.97549438476562 91.77555084228516 133.96279907226562 90.90380859375 132.8642578125 90.12356567382812 C131.76571655273438 89.34331512451172 130.581298828125 88.65455627441406 129.3531951904297 88.0561752319336 C128.1250762939453 87.45779418945312 126.853271484375 86.94979858398438 125.57992553710938 86.53108978271484 C124.98948669433594 87.29295349121094 124.08447265625 87.76725769042969 123.14506530761719 87.98231506347656 C122.20564270019531 88.19734191894531 121.2269058227539 88.17214965820312 120.267822265625 88.07937622070312 C119.12196350097656 87.96817016601562 117.96504974365234 87.75006103515625 116.88746643066406 87.36837005615234 C115.80989074707031 86.98667907714844 114.8116455078125 86.44139862060547 113.98312377929688 85.67585754394531 C113.16597747802734 85.75050354003906 112.34683227539062 85.80518341064453 111.50286865234375 85.82698822021484 C110.6589126586914 85.84880065917969 109.79014587402344 85.83773803710938 108.87377166748047 85.78089904785156 C107.76319885253906 84.69771575927734 106.72513580322266 83.5563735961914 105.75090789794922 82.36577606201172 C104.77667999267578 81.17517852783203 103.86627960205078 79.9353256225586 103.01102447509766 78.65512084960938 C102.15576934814453 77.37490844726562 101.35566711425781 76.0543441772461 100.60202026367188 74.70231628417969 C99.84838104248047 73.35028839111328 99.14120483398438 71.96680450439453 98.47180938720703 70.56076049804688 C97.80241394042969 69.15471649169922 97.17080688476562 67.72611999511719 96.56829833984375 66.28385925292969 C95.96578979492188 64.84159851074219 95.39237976074219 63.38567352294922 94.83939361572266 61.924991607666016 C94.2863998413086 60.46430969238281 93.75382995605469 58.998863220214844 93.23298645019531 57.537559509277344 C92.8787841796875 56.543766021728516 92.52674102783203 55.543060302734375 92.23682403564453 54.498348236083984 C91.94690704345703 53.453636169433594 91.7191162109375 52.36492156982422 91.61343383789062 51.195106506347656 C90.34254455566406 51.49063491821289 89.0715103149414 51.786006927490234 87.75116729736328 52.019935607910156 C86.43081665039062 52.253868103027344 85.06117248535156 52.42635726928711 83.59305572509766 52.47611999511719"></path>
<path fill="#395471" fill-opacity="1.0"  filling="0" d="M112.13685607910156 85.80426025390625 C112.75985717773438 85.776611328125 113.3718032836914 85.73175048828125 113.98312377929688 85.67585754394531 C114.8116455078125 86.44139862060547 115.80989074707031 86.98667907714844 116.88746643066406 87.36837005615234 C117.96504974365234 87.75006103515625 119.12196350097656 87.96817016601562 120.267822265625 88.07937622070312 C121.2269058227539 88.17214965820312 122.20565032958984 88.19734191894531 123.14506530761719 87.98231506347656 C124.08447265625 87.76725769042969 124.98948669433594 87.29295349121094 125.57992553710938 86.53108978271484 C126.14210510253906 86.71603393554688 126.70365905761719 86.91816711425781 127.26154327392578 87.13751220703125 C126.78661346435547 87.74576568603516 126.13288879394531 88.18014526367188 125.47669982910156 88.50577545166016 C124.35142517089844 89.0645751953125 123.12953186035156 89.42399597167969 121.8823013305664 89.57553100585938 C120.63507080078125 89.72705841064453 119.36250305175781 89.67068481445312 118.13584899902344 89.39789581298828 C116.97863006591797 89.14046478271484 115.86595153808594 88.69102478027344 114.84903717041016 88.08146667480469 C113.8321304321289 87.4719009399414 112.9109878540039 86.70220947265625 112.13684844970703 85.80426788330078"></path>
<path fill="#395471" fill-opacity="1.0"  filling="0" d="M107.75863647460938 97.3138198852539 C107.78751373291016 96.0180435180664 108.12051391601562 94.72964477539062 108.72264099121094 93.58132934570312 C108.64091491699219 94.78311157226562 108.34477996826172 95.97073364257812 107.75863647460938 97.3138198852539"></path>
<path fill="#395471" fill-opacity="1.0"  filling="0" d="M131.91253662109375 109.65403747558594 C132.21974182128906 108.82982635498047 132.4498291015625 107.97703552246094 132.60028076171875 107.11042785644531 C132.750732421875 106.24382019042969 132.82154846191406 105.3633804321289 132.8101806640625 104.48387145996094 C132.79421997070312 103.25906372070312 132.62156677246094 102.04853820800781 132.37112426757812 100.84915161132812 C132.1206817626953 99.64976501464844 131.7924346923828 98.46151733398438 131.46527099609375 97.28125762939453 C131.85325622558594 98.26890563964844 132.21728515625 99.27145385742188 132.51234436035156 100.29081726074219 C132.8074188232422 101.31018829345703 133.03350830078125 102.34637451171875 133.14564514160156 103.40129852294922 C133.25778198242188 104.45652770996094 133.24948120117188 105.53556823730469 133.0631561279297 106.5928726196289 C132.8768310546875 107.65017700195312 132.5124969482422 108.68575286865234 131.91253662109375 109.65404510498047"></path></svg>