<svg xmlns="http://www.w3.org/2000/svg" viewBox="0 0 512 512" height="512px" width="512px"><path fill="#bc0a1b" fill-opacity="1.0"  filling="0" d="M 282.4 228.7 L 289.1 230.2 L 286.8 240.5 L 280.1 239 L 282.4 228.7 Z"></path>
<path fill="#bc0a1b" fill-opacity="1.0"  filling="0" d="M 233.2 239 L 226.5 240.6 L 224.2 230.3 L 230.8 228.7 L 233.2 239 Z"></path>
<path fill="#bc0a1b" fill-opacity="1.0"  filling="0" d="M 219.3 256.7 C 219.3 256.7 208.1 249.6 194.8 251 L 189.8 254.2 L 189.3 258.6 C 189.3 258.6 192.6 267.1 205.7 271.3 C 218.7 275.6 219.3 256.7 219.3 256.7 Z"></path>
<path fill="#bc0a1b" fill-opacity="1.0"  filling="0" d="M 194.8 251 C 194.8 251 192.7 240.9 183.4 238.3 C 174.2 235.7 174.9 242.1 174.9 242.1 C 174.9 242.1 176.5 257.2 189.3 258.6 C 202 260.1 194.8 251 194.8 251 Z"></path>
<path fill="#bc0a1b" fill-opacity="1.0"  filling="0" d="M 294.7 256.7 C 294.7 256.7 306 249.6 319.2 251 L 324.3 254.2 L 324.8 258.6 C 324.8 258.6 321.5 267.1 308.4 271.3 C 295.3 275.6 294.7 256.7 294.7 256.7 Z"></path>
<path fill="#bc0a1b" fill-opacity="1.0"  filling="0" d="M 319.2 251 C 319.2 251 321.4 240.9 330.6 238.3 C 339.9 235.7 339.2 242.1 339.2 242.1 C 339.2 242.1 337.6 257.2 324.8 258.6 C 312 260.1 319.2 251 319.2 251 Z"></path>
<path fill="#bc0a1b" fill-opacity="1.0"  filling="0" d="M 349.2 309.8 C 347.8 309.8 346.6 308.9 346.3 307.5 C 344 296.8 336.7 290.2 324.6 287.7 C 315.1 285.8 306.3 287.2 306.2 287.2 C 304.5 287.4 303 286.3 302.8 284.7 C 302.5 283.1 303.6 281.6 305.2 281.3 C 305.6 281.2 315.2 279.7 325.8 281.9 C 340.3 284.8 349.4 293.3 352.1 306.2 C 352.4 307.8 351.4 309.4 349.8 309.8 C 349.6 309.8 349.4 309.8 349.2 309.8 Z"></path>
<path fill="#bc0a1b" fill-opacity="1.0"  filling="0" d="M 338.2 321.4 C 336.8 321.4 335.6 320.4 335.3 319 C 333.1 308.5 325.8 301.8 313.8 299.3 C 304.3 297.3 295.3 298.7 295.2 298.7 C 293.6 299 292.1 297.9 291.8 296.3 C 291.5 294.7 292.6 293.1 294.3 292.9 C 294.7 292.8 304.3 291.3 314.8 293.4 C 329.3 296.4 338.4 304.8 341.1 317.8 C 341.5 319.4 340.4 321 338.8 321.3 C 338.6 321.4 338.4 321.4 338.2 321.4 Z"></path>
<path fill="#bc0a1b" fill-opacity="1.0"  filling="0" d="M 328 333.6 C 326.7 333.6 325.4 332.6 325.1 331.2 C 322.9 320.6 315.6 314 303.6 311.5 C 294.1 309.5 285.1 310.9 285 310.9 C 283.4 311.2 281.9 310.1 281.6 308.5 C 281.4 306.8 282.5 305.3 284.1 305 C 284.5 305 294.1 303.5 304.6 305.6 C 319.1 308.6 328.2 317 330.9 330 C 331.3 331.6 330.3 333.2 328.6 333.5 C 328.4 333.6 328.2 333.6 328 333.6 Z"></path>
<path fill="#bc0a1b" fill-opacity="1.0"  filling="0" d="M 165.5 309.8 C 165.3 309.8 165.1 309.8 164.9 309.8 C 163.2 309.4 162.2 307.8 162.6 306.2 C 165.3 293.3 174.4 284.8 188.9 281.9 C 199.4 279.7 209 281.2 209.4 281.3 C 211 281.6 212.1 283.1 211.9 284.7 C 211.6 286.3 210.1 287.4 208.5 287.2 C 208.3 287.1 199.4 285.8 189.9 287.7 C 177.9 290.2 170.6 296.9 168.4 307.5 C 168.1 308.9 166.8 309.8 165.5 309.8 Z"></path>
<path fill="#bc0a1b" fill-opacity="1.0"  filling="0" d="M 176.4 321.4 C 176.2 321.4 176 321.4 175.8 321.3 C 174.2 321 173.2 319.4 173.5 317.8 C 176.3 304.8 185.4 296.4 199.8 293.4 C 210.4 291.3 220 292.8 220.4 292.9 C 222 293.1 223.1 294.7 222.8 296.3 C 222.6 297.9 221.1 299 219.4 298.7 C 219.3 298.7 210.3 297.3 200.9 299.3 C 188.8 301.8 181.6 308.5 179.3 319 C 179.1 320.4 177.8 321.4 176.4 321.4 Z"></path>
<path fill="#bc0a1b" fill-opacity="1.0"  filling="0" d="M 186.6 333.6 C 186.4 333.6 186.2 333.6 186 333.5 C 184.4 333.2 183.4 331.6 183.7 330 C 186.4 317 195.5 308.6 210 305.6 C 220.5 303.5 230.2 305 230.6 305 C 232.2 305.3 233.3 306.8 233 308.5 C 232.8 310.1 231.2 311.2 229.6 310.9 C 229.5 310.9 220.5 309.5 211.1 311.5 C 199 314 191.8 320.6 189.5 331.2 C 189.2 332.6 188 333.6 186.6 333.6 Z"></path>
<path fill="#e53f3f" fill-opacity="1.0"  filling="0" d="M 321 288.3 C 321 327.1 193.6 327.1 193.6 288.3 C 193.6 256.7 222.1 231.1 257.3 231.1 C 292.5 231.1 321 256.7 321 288.3 Z"></path>
<path fill="#e53f3f" fill-opacity="1.0"  filling="0" d="M 392 209.5 C 392 233 373.6 252.2 351 252.2 C 328.3 252.2 309.9 233 309.9 209.5 C 309.9 186.8 326.9 168.2 348.4 166.8 C 348.4 167.4 348.4 168 348.2 168.6 C 347.4 171.6 343.9 172.1 343.7 174.6 C 343.5 177.6 348.2 178.8 347.9 181.7 C 347.7 184.7 342.6 184.9 342 188.2 C 341.4 191.6 346.4 193.3 346 197 C 345.5 200.4 340.8 200.8 340.5 204.1 C 340.3 207 344 210.7 348.2 210.8 C 351 210.9 354.4 209.6 355.3 207.1 C 356.5 203.9 353.1 201.4 354.4 198.9 C 355.8 196.4 360.2 197.6 361.2 195.3 C 362.3 192.8 358 190 359.1 187.3 C 360.1 185 363.9 185.7 365.4 183.2 C 367 180.8 363 177.7 364.4 175.4 C 365.1 174.2 366.1 174.7 367.1 173.6 C 367.8 172.7 368 171.7 367.9 170.6 C 382.1 177.3 392 192.2 392 209.5 Z"></path>
<path fill="#e53f3f" fill-opacity="1.0"  filling="0" d="M 122.1 209.5 C 122.1 233 140.4 252.2 163.1 252.2 C 185.7 252.2 204.1 233 204.1 209.5 C 204.1 186.8 187.1 168.2 165.6 166.8 C 165.6 167.4 165.6 168 165.8 168.6 C 166.7 171.6 170.1 172.1 170.3 174.6 C 170.6 177.6 165.9 178.8 166.1 181.7 C 166.3 184.7 171.4 184.9 172 188.2 C 172.6 191.6 167.6 193.3 168.1 197 C 168.5 200.4 173.3 200.8 173.5 204.1 C 173.7 207 170 210.7 165.8 210.8 C 163 210.9 159.7 209.6 158.7 207.1 C 157.5 203.9 161 201.4 159.6 198.9 C 158.2 196.4 153.9 197.6 152.8 195.3 C 151.7 192.8 156 190 154.9 187.3 C 154 185 150.2 185.7 148.6 183.2 C 147.1 180.8 151.1 177.7 149.7 175.4 C 149 174.2 147.9 174.7 146.9 173.6 C 146.2 172.7 146 171.7 146.1 170.6 C 131.9 177.3 122.1 192.2 122.1 209.5 Z"></path>
<path fill="#bc0a1b" fill-opacity="1.0"  filling="0" d="M 299.9 218.3 C 299.9 218.7 299.9 219.2 299.8 219.7 C 299.5 223.2 298 226.5 295.4 229.1 C 292.5 231.9 288.7 233.5 284.6 233.5 L 284.6 233.5 C 279.7 233.5 275.4 231.2 272.6 227.6 C 270.8 225.4 269.7 222.7 269.4 219.7 L 269.4 219.7 C 269.4 219.2 269.4 218.8 269.4 218.3 C 269.4 214.2 270.9 210.4 273.8 207.5 C 276.7 204.6 280.5 203 284.6 203 C 288.1 203 291.3 204.2 293.9 206.2 C 297.5 208.9 299.9 213.3 299.9 218.3 Z"></path>
<path fill="#e53f3f" fill-opacity="1.0"  filling="0" d="M 299.9 216 C 299.9 216.5 299.9 217 299.8 217.4 C 299.5 221 298 224.2 295.4 226.8 C 292.5 229.7 288.7 231.3 284.6 231.3 L 284.6 231.3 C 279.7 231.3 275.4 228.9 272.6 225.4 C 270.8 223.1 269.7 220.4 269.4 217.4 L 269.4 217.4 C 269.4 217 269.4 216.5 269.4 216 C 269.4 211.9 270.9 208.1 273.8 205.2 C 276.7 202.3 280.5 200.7 284.6 200.7 C 288.1 200.7 291.3 201.9 293.9 203.9 C 297.5 206.7 299.9 211.1 299.9 216 Z"></path>
<path fill="#fcf3d9" fill-opacity="1.0"  filling="0" d="M 291 204.4 C 297.5 207.9 299.8 216 296.3 222.4 C 292.8 228.9 284.7 231.2 278.3 227.7 C 271.8 224.2 269.5 216.1 273 209.6 C 276.5 203.2 284.6 200.8 291 204.4 Z"></path>
<path fill="#000000" fill-opacity="1.0"  filling="0" d="M 292.3 213.7 C 293.6 217.9 291.2 222.4 287 223.6 C 282.7 224.9 278.3 222.5 277 218.3 C 275.7 214.1 278.1 209.6 282.4 208.4 C 286.6 207.1 291 209.5 292.3 213.7 Z"></path>
<path fill="#fafafa" fill-opacity="1.0"  filling="0" d="M 289.8 211.7 C 289.8 213.3 288.5 214.6 286.9 214.6 C 285.4 214.6 284.1 213.3 284.1 211.8 C 284.1 210.2 285.4 208.9 286.9 208.9 C 288.5 208.9 289.8 210.2 289.8 211.7 Z"></path>
<path fill="#bc0a1b" fill-opacity="1.0"  filling="0" d="M 213.4 218.3 C 213.4 218.7 213.4 219.2 213.5 219.7 C 213.8 223.2 215.3 226.5 217.9 229.1 C 220.7 231.9 224.6 233.5 228.6 233.5 L 228.7 233.5 C 233.6 233.5 237.9 231.2 240.7 227.6 C 242.5 225.4 243.6 222.7 243.9 219.7 L 243.9 219.7 C 243.9 219.2 243.9 218.8 243.9 218.3 C 243.9 214.2 242.3 210.4 239.5 207.5 C 236.6 204.6 232.8 203 228.7 203 C 225.2 203 222 204.2 219.4 206.2 C 215.8 208.9 213.4 213.3 213.4 218.3 Z"></path>
<path fill="#e53f3f" fill-opacity="1.0"  filling="0" d="M 213.4 216 C 213.4 216.5 213.4 217 213.5 217.4 C 213.8 221 215.3 224.2 217.9 226.8 C 220.7 229.7 224.6 231.3 228.6 231.3 L 228.7 231.3 C 233.6 231.3 237.9 228.9 240.7 225.4 C 242.5 223.1 243.6 220.4 243.9 217.4 L 243.9 217.4 C 243.9 217 243.9 216.5 243.9 216 C 243.9 211.9 242.3 208.1 239.5 205.2 C 236.6 202.3 232.8 200.7 228.7 200.7 C 225.2 200.7 222 201.9 219.4 203.9 C 215.8 206.7 213.4 211.1 213.4 216 Z"></path>
<path fill="#fcf3d9" fill-opacity="1.0"  filling="0" d="M 238.1 206.6 C 243.3 211.8 243.3 220.2 238.1 225.4 C 232.9 230.6 224.4 230.6 219.2 225.4 C 214.1 220.2 214.1 211.8 219.2 206.6 C 224.4 201.4 232.9 201.4 238.1 206.6 Z"></path>
<path fill="#000000" fill-opacity="1.0"  filling="0" d="M 234.3 210.4 C 237.4 213.5 237.4 218.5 234.3 221.6 C 231.2 224.8 226.1 224.8 223 221.6 C 219.9 218.5 219.9 213.5 223 210.4 C 226.1 207.2 231.2 207.2 234.3 210.4 Z"></path>
<path fill="#fafafa" fill-opacity="1.0"  filling="0" d="M 223.5 211.7 C 223.5 213.3 224.8 214.6 226.3 214.6 C 227.9 214.6 229.2 213.3 229.2 211.8 C 229.2 210.2 227.9 208.9 226.4 208.9 C 224.8 208.9 223.5 210.2 223.5 211.7 Z"></path>
<path fill="#720c0c" fill-opacity="1.0"  filling="0" d="M 265.1 241.6 C 265.1 240.7 263.5 240.2 262.6 241 C 261.2 242.3 259.2 243.1 257.1 243.1 C 254.9 243.1 252.9 242.3 251.5 241 C 250.7 240.2 249 240.7 249 241.6 C 249 241.6 249 241.6 249 241.6 C 249 245.8 252.6 249.2 257.1 249.2 C 261.5 249.2 265.1 245.8 265.1 241.6 C 265.1 241.6 265.1 241.6 265.1 241.6 Z"></path></svg>