<svg xmlns="http://www.w3.org/2000/svg" viewBox="0.0 0.0 256.0 256.0" height="256.0px" width="256.0px"><path fill="#bc0a1b" fill-opacity="1.0"  filling="0" d="M141.1999969482422 114.3499984741211 L144.5500030517578 115.0999984741211 L143.97500610351562 117.67500305175781 L143.39999389648438 120.25 L140.0500030517578 119.5 L140.625 116.92500305175781 L141.1999969482422 114.3499984741211"></path>
<path fill="#bc0a1b" fill-opacity="1.0"  filling="0" d="M116.5999984741211 119.5 L113.25 120.30000305175781 L112.67500305175781 117.72500610351562 L112.0999984741211 115.1500015258789 L115.4000015258789 114.3499984741211 L116.0 116.92500305175781 L116.5999984741211 119.5"></path>
<path fill="#bc0a1b" fill-opacity="1.0"  filling="0" d="M109.6500015258789 128.35000610351562 C109.6500015258789 128.35000610351562 109.02777862548828 127.95555877685547 107.95185089111328 127.45555877685547 C106.87593078613281 126.95555877685547 105.34629821777344 126.35000610351562 103.53148651123047 125.92778015136719 C101.71666717529297 125.50555419921875 99.61666870117188 125.26666259765625 97.4000015258789 125.5 L94.9000015258789 127.0999984741211 L94.6500015258789 129.3000030517578 C94.6500015258789 129.3000030517578 94.83333587646484 129.77223205566406 95.32037353515625 130.47962951660156 C95.80741119384766 131.18704223632812 96.59815216064453 132.12962341308594 97.8129653930664 133.07037353515625 C99.02777862548828 134.0111083984375 100.66667175292969 134.9499969482422 102.8499984741211 135.64999389648438 C105.01666259765625 136.36666870117188 106.49444580078125 135.79444885253906 107.5018539428711 134.7129669189453 C108.50926208496094 133.63148498535156 109.04629516601562 132.04074096679688 109.33148193359375 130.72036743164062 C109.61666870117188 129.40000915527344 109.6500015258789 128.35000610351562 109.6500015258789 128.35000610351562"></path>
<path fill="#bc0a1b" fill-opacity="1.0"  filling="0" d="M97.4000015258789 125.5 C97.4000015258789 125.5 97.13749694824219 124.23750305175781 96.29374694824219 122.8125 C95.44999694824219 121.38749694824219 94.02499389648438 119.80000305175781 91.69999694824219 119.1500015258789 C89.39999389648438 118.5 88.33749389648438 118.9749984741211 87.8499984741211 119.61250305175781 C87.36249542236328 120.25 87.44999694824219 121.05000305175781 87.44999694824219 121.05000305175781 C87.44999694824219 121.05000305175781 87.53888702392578 121.8888931274414 87.89443969726562 123.03334045410156 C88.25 124.17778015136719 88.87222290039062 125.6277847290039 89.93888854980469 126.85000610351562 C91.00555419921875 128.07223510742188 92.51666259765625 129.06668090820312 94.6500015258789 129.3000030517578 C97.82499694824219 129.6750030517578 98.51249694824219 128.72500610351562 98.40625 127.6812515258789 C98.30000305175781 126.63749694824219 97.4000015258789 125.5 97.4000015258789 125.5"></path>
<path fill="#bc0a1b" fill-opacity="1.0"  filling="0" d="M147.35000610351562 128.35000610351562 C147.35000610351562 128.35000610351562 147.977783203125 127.95555877685547 149.05926513671875 127.45555877685547 C150.1407470703125 126.95555877685547 151.67593383789062 126.35000610351562 153.49073791503906 125.92778015136719 C155.30555725097656 125.50555419921875 157.39999389648438 125.26666259765625 159.60000610351562 125.5 L162.14999389648438 127.0999984741211 L162.39999389648438 129.3000030517578 C162.39999389648438 129.3000030517578 162.21665954589844 129.77223205566406 161.72962951660156 130.47962951660156 C161.24258422851562 131.18704223632812 160.45184326171875 132.12962341308594 159.23703002929688 133.07037353515625 C158.022216796875 134.0111083984375 156.38333129882812 134.9499969482422 154.1999969482422 135.64999389648438 C152.01666259765625 136.36666870117188 150.52777099609375 135.79444885253906 149.51295471191406 134.7129669189453 C148.49813842773438 133.63148498535156 147.95741271972656 132.04074096679688 147.67037963867188 130.72036743164062 C147.38333129882812 129.40000915527344 147.35000610351562 128.35000610351562 147.35000610351562 128.35000610351562"></path>
<path fill="#bc0a1b" fill-opacity="1.0"  filling="0" d="M159.60000610351562 125.5 C159.60000610351562 125.5 159.875 124.23750305175781 160.72500610351562 122.8125 C161.5749969482422 121.38749694824219 163.0 119.80000305175781 165.3000030517578 119.1500015258789 C167.625 118.5 168.6999969482422 118.9749984741211 169.19375610351562 119.61250305175781 C169.6875 120.25 169.60000610351562 121.05000305175781 169.60000610351562 121.05000305175781 C169.60000610351562 121.05000305175781 169.51112365722656 121.8888931274414 169.1555633544922 123.03334045410156 C168.8000030517578 124.17778015136719 168.1777801513672 125.6277847290039 167.11111450195312 126.85000610351562 C166.04444885253906 128.07223510742188 164.5333251953125 129.06668090820312 162.39999389648438 129.3000030517578 C159.1999969482422 129.6750030517578 158.5 128.72500610351562 158.60000610351562 127.6812515258789 C158.70001220703125 126.63749694824219 159.60000610351562 125.5 159.60000610351562 125.5"></path>
<path fill="#bc0a1b" fill-opacity="1.0"  filling="0" d="M174.60000610351562 154.89999389648438 C173.89999389648438 154.89999389648438 173.3000030517578 154.4499969482422 173.14999389648438 153.75 C172.86248779296875 152.41250610351562 172.4187469482422 151.203125 171.8203125 150.1218719482422 C171.2218780517578 149.04061889648438 170.46875 148.08749389648438 169.5625 147.2624969482422 C168.65625 146.4375 167.59689331054688 145.74063110351562 166.38595581054688 145.171875 C165.17501831054688 144.60313415527344 163.8125 144.16250610351562 162.3000030517578 143.85000610351562 C159.9250030517578 143.375 157.6374969482422 143.3125 155.9375 143.36874389648438 C154.2375030517578 143.4250030517578 153.125 143.60000610351562 153.10000610351562 143.60000610351562 C152.25 143.6999969482422 151.5 143.14999389648438 151.39999389648438 142.35000610351562 C151.25 141.5500030517578 151.8000030517578 140.8000030517578 152.60000610351562 140.64999389648438 C152.6666717529297 140.63333129882812 153.24444580078125 140.5388946533203 154.18148803710938 140.46112060546875 C155.1185302734375 140.38333129882812 156.41482543945312 140.32223510742188 157.91851806640625 140.37222290039062 C159.42222595214844 140.42222595214844 161.13333129882812 140.58334350585938 162.89999389648438 140.9499969482422 C164.71249389648438 141.3125 166.3562469482422 141.84999084472656 167.82342529296875 142.55311584472656 C169.29061889648438 143.25624084472656 170.58123779296875 144.12498474121094 171.6875 145.14999389648438 C172.7937469482422 146.17498779296875 173.7156219482422 147.3562469482422 174.4453125 148.6843719482422 C175.1750030517578 150.0124969482422 175.71249389648438 151.4875030517578 176.0500030517578 153.10000610351562 C176.1999969482422 153.89999389648438 175.6999969482422 154.6999969482422 174.89999389648438 154.89999389648438 C174.8000030517578 154.89999389648438 174.6999969482422 154.89999389648438 174.60000610351562 154.89999389648438"></path>
<path fill="#bc0a1b" fill-opacity="1.0"  filling="0" d="M169.10000610351562 160.6999969482422 C168.39999389648438 160.6999969482422 167.8000030517578 160.1999969482422 167.64999389648438 159.5 C167.375 158.1875 166.9406280517578 156.99374389648438 166.34999084472656 155.921875 C165.75936889648438 154.85000610351562 165.0124969482422 153.89999389648438 164.1125030517578 153.0749969482422 C163.21249389648438 152.25 162.1593780517578 151.5500030517578 160.9562530517578 150.97811889648438 C159.75311279296875 150.40625 158.39999389648438 149.96249389648438 156.89999389648438 149.64999389648438 C154.52499389648438 149.14999389648438 152.21249389648438 149.0749969482422 150.48748779296875 149.125 C148.7624969482422 149.1750030517578 147.625 149.35000610351562 147.60000610351562 149.35000610351562 C146.8000030517578 149.5 146.0500030517578 148.9499969482422 145.89999389648438 148.14999389648438 C145.75 147.35000610351562 146.3000030517578 146.5500030517578 147.14999389648438 146.4499969482422 C147.21665954589844 146.43333435058594 147.79444885253906 146.33888244628906 148.72962951660156 146.25924682617188 C149.66482543945312 146.17962646484375 150.95741271972656 146.11480712890625 152.45370483398438 146.15740966796875 C153.9499969482422 146.1999969482422 155.64999389648438 146.35000610351562 157.39999389648438 146.6999969482422 C159.21249389648438 147.0749969482422 160.8562469482422 147.61874389648438 162.32342529296875 148.3249969482422 C163.79061889648438 149.03125 165.08123779296875 149.89999389648438 166.1875 150.92498779296875 C167.2937469482422 151.94998168945312 168.2156219482422 153.13124084472656 168.9453125 154.46249389648438 C169.6750030517578 155.7937469482422 170.21249389648438 157.27499389648438 170.5500030517578 158.89999389648438 C170.75 159.6999969482422 170.1999969482422 160.5 169.39999389648438 160.64999389648438 C169.3000030517578 160.6999969482422 169.1999969482422 160.6999969482422 169.10000610351562 160.6999969482422"></path>
<path fill="#bc0a1b" fill-opacity="1.0"  filling="0" d="M164.0 166.8000030517578 C163.35000610351562 166.8000030517578 162.6999969482422 166.3000030517578 162.5500030517578 165.60000610351562 C162.27499389648438 164.27500915527344 161.8406219482422 163.07501220703125 161.25 162.0007781982422 C160.6593780517578 160.9265594482422 159.91249084472656 159.97811889648438 159.0124969482422 159.15625 C158.11248779296875 158.33438110351562 157.0593719482422 157.63906860351562 155.8562469482422 157.0710906982422 C154.6531219482422 156.5031280517578 153.3000030517578 156.0625 151.8000030517578 155.75 C149.4250030517578 155.25 147.1125030517578 155.1750030517578 145.3874969482422 155.22500610351562 C143.66250610351562 155.27499389648438 142.52499389648438 155.4499969482422 142.5 155.4499969482422 C141.6999969482422 155.60000610351562 140.9499969482422 155.0500030517578 140.8000030517578 154.25 C140.6999969482422 153.39999389648438 141.25 152.64999389648438 142.0500030517578 152.5 C142.11666870117188 152.5 142.69444274902344 152.4166717529297 143.629638671875 152.34445190429688 C144.5648193359375 152.272216796875 145.85740661621094 152.21112060546875 147.35369873046875 152.25555419921875 C148.85000610351562 152.3000030517578 150.5500030517578 152.45001220703125 152.3000030517578 152.8000030517578 C154.1125030517578 153.1750030517578 155.75625610351562 153.71875 157.2234344482422 154.4250030517578 C158.6906280517578 155.13125610351562 159.9812469482422 156.0 161.08749389648438 157.02499389648438 C162.19375610351562 158.04998779296875 163.11563110351562 159.2312469482422 163.84530639648438 160.5625 C164.5749969482422 161.8937530517578 165.11248779296875 163.375 165.4499969482422 165.0 C165.64999389648438 165.8000030517578 165.14999389648438 166.60000610351562 164.3000030517578 166.75 C164.1999969482422 166.8000030517578 164.10000610351562 166.8000030517578 164.0 166.8000030517578"></path>
<path fill="#bc0a1b" fill-opacity="1.0"  filling="0" d="M82.75 154.89999389648438 C82.6500015258789 154.89999389648438 82.55000305175781 154.89999389648438 82.44999694824219 154.89999389648438 C81.5999984741211 154.6999969482422 81.0999984741211 153.89999389648438 81.30000305175781 153.10000610351562 C81.63750457763672 151.4875030517578 82.17500305175781 150.0124969482422 82.9046859741211 148.6843719482422 C83.6343765258789 147.3562469482422 84.5562515258789 146.1750030517578 85.6624984741211 145.14999389648438 C86.76875305175781 144.125 88.05937194824219 143.25624084472656 89.52655792236328 142.55311584472656 C90.99374389648438 141.84999084472656 92.63749694824219 141.3125 94.44999694824219 140.9499969482422 C96.19999694824219 140.5833282470703 97.89999389648438 140.42222595214844 99.39629364013672 140.37222290039062 C100.89259338378906 140.32223510742188 102.1851806640625 140.38333129882812 103.12036895751953 140.46112060546875 C104.05555725097656 140.5388946533203 104.63333129882812 140.63333129882812 104.69999694824219 140.64999389648438 C105.5 140.8000030517578 106.05000305175781 141.5500030517578 105.94999694824219 142.35000610351562 C105.80000305175781 143.14999389648438 105.05000305175781 143.6999969482422 104.25 143.60000610351562 C104.19999694824219 143.57501220703125 103.0625 143.39999389648438 101.34375 143.35000610351562 C99.625 143.3000030517578 97.32499694824219 143.375 94.94999694824219 143.85000610351562 C93.44999694824219 144.16250610351562 92.09687042236328 144.60626220703125 90.89374542236328 145.1789093017578 C89.69062042236328 145.75157165527344 88.63749694824219 146.453125 87.73750305175781 147.28125 C86.8375015258789 148.109375 86.09062194824219 149.06405639648438 85.5 150.14295959472656 C84.90937805175781 151.22186279296875 84.4749984741211 152.42498779296875 84.19999694824219 153.75 C84.05000305175781 154.4499969482422 83.4000015258789 154.89999389648438 82.75 154.89999389648438"></path>
<path fill="#bc0a1b" fill-opacity="1.0"  filling="0" d="M88.19999694824219 160.6999969482422 C88.0999984741211 160.6999969482422 88.0 160.6999969482422 87.9000015258789 160.64999389648438 C87.0999984741211 160.5 86.5999984741211 159.6999969482422 86.75 158.89999389648438 C87.0999984741211 157.27499389648438 87.6468734741211 155.7937469482422 88.3828125 154.46249389648438 C89.1187515258789 153.13124084472656 90.04374694824219 151.9499969482422 91.1500015258789 150.9250030517578 C92.2562484741211 149.89999389648438 93.54374694824219 149.03125 95.00468444824219 148.3249969482422 C96.46562194824219 147.61874389648438 98.10000610351562 147.0749969482422 99.9000015258789 146.6999969482422 C101.66666412353516 146.34999084472656 103.37777709960938 146.1999969482422 104.88147735595703 146.15740966796875 C106.38517761230469 146.11480712890625 107.68148040771484 146.17962646484375 108.61851501464844 146.25924682617188 C109.55555725097656 146.33888244628906 110.13333129882812 146.43331909179688 110.19999694824219 146.4499969482422 C111.0 146.5500030517578 111.55000305175781 147.35000610351562 111.4000015258789 148.14999389648438 C111.30000305175781 148.9499969482422 110.55000305175781 149.5 109.69999694824219 149.35000610351562 C109.67500305175781 149.35000610351562 108.5374984741211 149.1750030517578 106.8187484741211 149.125 C105.0999984741211 149.0749969482422 102.80000305175781 149.14999389648438 100.44999694824219 149.64999389648438 C98.9375 149.96249389648438 97.578125 150.40625 96.37187194824219 150.97811889648438 C95.1656265258789 151.54998779296875 94.11250305175781 152.25 93.2125015258789 153.0749969482422 C92.3125 153.89999389648438 91.56562805175781 154.84999084472656 90.97187805175781 155.921875 C90.37812805175781 156.99374389648438 89.9375 158.1875 89.6500015258789 159.5 C89.55000305175781 160.1999969482422 88.9000015258789 160.6999969482422 88.19999694824219 160.6999969482422"></path>
<path fill="#bc0a1b" fill-opacity="1.0"  filling="0" d="M93.30000305175781 166.8000030517578 C93.19999694824219 166.8000030517578 93.0999984741211 166.8000030517578 93.0 166.75 C92.19999694824219 166.60000610351562 91.69999694824219 165.8000030517578 91.8499984741211 165.0 C92.1875 163.375 92.7249984741211 161.8937530517578 93.4546890258789 160.5625 C94.18437194824219 159.2312469482422 95.10624694824219 158.0500030517578 96.2125015258789 157.02500915527344 C97.3187484741211 156.0 98.609375 155.13125610351562 100.0765609741211 154.4250030517578 C101.54374694824219 153.71875 103.1875 153.1750030517578 105.0 152.8000030517578 C106.75 152.4499969482422 108.45555877685547 152.3000030517578 109.95925903320312 152.25555419921875 C111.46296691894531 152.21112060546875 112.76481628417969 152.272216796875 113.70740509033203 152.34445190429688 C114.6500015258789 152.4166717529297 115.23333740234375 152.5 115.30000305175781 152.5 C116.0999984741211 152.64999389648438 116.6500015258789 153.39999389648438 116.5 154.25 C116.4000015258789 155.0500030517578 115.5999984741211 155.60000610351562 114.80000305175781 155.4499969482422 C114.7750015258789 155.4499969482422 113.63749694824219 155.27499389648438 111.91874694824219 155.22500610351562 C110.19999694824219 155.1750030517578 107.9000015258789 155.25 105.55000305175781 155.75 C104.03750610351562 156.0625 102.6781234741211 156.5031280517578 101.47187805175781 157.0710906982422 C100.265625 157.63905334472656 99.2125015258789 158.33436584472656 98.3125 159.15625 C97.41250610351562 159.97811889648438 96.6656265258789 160.9265594482422 96.0718765258789 162.0007781982422 C95.4781265258789 163.0749969482422 95.03750610351562 164.27499389648438 94.75 165.60000610351562 C94.5999984741211 166.3000030517578 94.0 166.8000030517578 93.30000305175781 166.8000030517578"></path>
<path fill="#e53f3f" fill-opacity="1.0"  filling="0" d="M160.5 144.14999389648438 C160.5 145.36248779296875 160.2511749267578 146.49920654296875 159.7846221923828 147.56015014648438 C159.3180694580078 148.62109375 158.6337890625 149.6062469482422 157.7628936767578 150.515625 C156.89199829101562 151.4250030517578 155.83447265625 152.2585906982422 154.62144470214844 153.0164031982422 C153.4084014892578 153.7742156982422 152.03985595703125 154.4562530517578 150.54689025878906 155.0625 C149.05392456054688 155.6687469482422 147.43653869628906 156.19921875 145.72584533691406 156.65391540527344 C144.01515197753906 157.1085968017578 142.21115112304688 157.4875030517578 140.34494018554688 157.79063415527344 C138.47872924804688 158.09376525878906 136.55030822753906 158.32110595703125 134.59078979492188 158.47267150878906 C132.6312713623047 158.62423706054688 130.64064025878906 158.70001220703125 128.65000915527344 158.70001220703125 C126.65938568115234 158.70001220703125 124.66875457763672 158.62423706054688 122.70923614501953 158.47267150878906 C120.74971008300781 158.32110595703125 118.82129669189453 158.09376525878906 116.95508575439453 157.79063415527344 C115.08887481689453 157.4875030517578 113.28486633300781 157.1085968017578 111.57417297363281 156.65391540527344 C109.86347961425781 156.19923400878906 108.24609375 155.66876220703125 106.75312805175781 155.0625 C105.26016235351562 154.4562530517578 103.8916015625 153.7742156982422 102.6785659790039 153.0164031982422 C101.46553039550781 152.2585906982422 100.40800476074219 151.4250030517578 99.537109375 150.515625 C98.66621398925781 149.6062469482422 97.98193359375 148.62109375 97.515380859375 147.56015014648438 C97.048828125 146.49920654296875 96.80000305175781 145.36248779296875 96.80000305175781 144.14999389648438 C96.80000305175781 142.5699920654297 96.9425048828125 141.01998901367188 97.21660614013672 139.50979614257812 C97.49070739746094 137.99960327148438 97.89640808105469 136.52920532226562 98.42280578613281 135.1083984375 C98.94920349121094 133.68759155273438 99.59630584716797 132.31640625 100.35320281982422 131.0045928955078 C101.11009979248047 129.6927947998047 101.976806640625 128.44039916992188 102.9424057006836 127.25719451904297 C103.90800476074219 126.0739974975586 104.97250366210938 124.95999908447266 106.125 123.92499542236328 C107.27750396728516 122.88999938964844 108.51800537109375 121.93399810791016 109.83560180664062 121.06680297851562 C111.1531982421875 120.19960021972656 112.54790496826172 119.42120361328125 114.00880432128906 118.74140167236328 C115.4697036743164 118.06159973144531 116.9968032836914 117.48040008544922 118.5792007446289 117.00760650634766 C120.1615982055664 116.53480529785156 121.79930114746094 116.17040252685547 123.48139953613281 115.92420196533203 C125.16349792480469 115.6780014038086 126.88999938964844 115.55000305175781 128.64999389648438 115.55000305175781 C130.4099884033203 115.55000305175781 132.13648986816406 115.6780014038086 133.81858825683594 115.92420196533203 C135.5006866455078 116.17040252685547 137.13839721679688 116.53480529785156 138.72079467773438 117.00760650634766 C140.30319213867188 117.48040771484375 141.83029174804688 118.06160736083984 143.29119873046875 118.74140930175781 C144.75210571289062 119.42121124267578 146.1468048095703 120.1996078491211 147.4644012451172 121.06681060791016 C148.78199768066406 121.93401336669922 150.0225067138672 122.8900146484375 151.1750030517578 123.92501068115234 C152.32749938964844 124.96000671386719 153.39199829101562 126.07401275634766 154.35760498046875 127.25720977783203 C155.32321166992188 128.44041442871094 156.18991088867188 129.69281005859375 156.94680786132812 131.00460815429688 C157.70370483398438 132.31640625 158.35079956054688 133.68760681152344 158.877197265625 135.1083984375 C159.40359497070312 136.52920532226562 159.80929565429688 137.99960327148438 160.08340454101562 139.50979614257812 C160.3574981689453 141.02000427246094 160.5 142.57000732421875 160.5 144.14999389648438"></path>
<path fill="#e53f3f" fill-opacity="1.0"  filling="0" d="M196.0 104.75 C196.0 106.42857360839844 195.81224060058594 108.06326293945312 195.45742797851562 109.63236236572266 C195.1026153564453 111.20146179199219 194.58074951171875 112.7049560546875 193.91253662109375 114.12113952636719 C193.2443084716797 115.53732299804688 192.4297332763672 116.86618041992188 191.489501953125 118.08600616455078 C190.5492706298828 119.30583190917969 189.48338317871094 120.41661834716797 188.31253051757812 121.39665222167969 C187.14169311523438 122.37667846679688 185.8658905029297 123.2259521484375 184.50582885742188 123.92274475097656 C183.14576721191406 124.61953735351562 181.70144653320312 125.16384887695312 180.19357299804688 125.53396606445312 C178.68569946289062 125.90408325195312 177.11428833007812 126.0999984741211 175.5 126.0999984741211 C173.87857055664062 126.0999984741211 172.301025390625 125.90408325195312 170.78790283203125 125.53396606445312 C169.2747802734375 125.16384887695312 167.8260955810547 124.61953735351562 166.46238708496094 123.92273712158203 C165.0986785888672 123.22594451904297 163.81996154785156 122.37667083740234 162.64678955078125 121.39664459228516 C161.47361755371094 120.41661834716797 160.40597534179688 119.30583190917969 159.4644317626953 118.08600616455078 C158.52288818359375 116.86618041992188 157.7074432373047 115.53731536865234 157.03863525390625 114.12113189697266 C156.3698272705078 112.7049560546875 155.84767150878906 111.20145416259766 155.49270629882812 109.63235473632812 C155.13775634765625 108.06326293945312 154.9499969482422 106.42857360839844 154.9499969482422 104.75 C154.9499969482422 103.12857055664062 155.1234588623047 101.54898071289062 155.45217895507812 100.03031921386719 C155.78089904785156 98.51165771484375 156.26486206054688 97.0539321899414 156.88584899902344 95.67623901367188 C157.5068359375 94.29853820800781 158.26486206054688 93.00086975097656 159.1416778564453 91.80233001708984 C160.01849365234375 90.60379028320312 161.01412963867188 89.5043716430664 162.11033630371094 88.52317810058594 C163.20654296875 87.54198455810547 164.40335083007812 86.67900848388672 165.6824951171875 85.95335388183594 C166.96165466308594 85.22769927978516 168.32318115234375 84.63935852050781 169.7488250732422 84.20743560791016 C171.1744842529297 83.7755126953125 172.66427612304688 83.5 174.1999969482422 83.4000015258789 C174.1999969482422 83.69999694824219 174.1999969482422 84.0 174.10000610351562 84.30000305175781 C173.6999969482422 85.80000305175781 171.9499969482422 86.05000305175781 171.85000610351562 87.30000305175781 C171.75 88.80000305175781 174.10000610351562 89.4000015258789 173.9499969482422 90.8499984741211 C173.85000610351562 92.3499984741211 171.3000030517578 92.44999694824219 171.0 94.0999984741211 C170.85000610351562 94.94999694824219 171.39999389648438 95.5875015258789 171.96249389648438 96.2437515258789 C172.52499389648438 96.9000015258789 173.10000610351562 97.57499694824219 173.0 98.5 C172.75 100.19999694824219 170.39999389648438 100.4000015258789 170.25 102.05000305175781 C170.1999969482422 102.7750015258789 170.6374969482422 103.5999984741211 171.35000610351562 104.25 C172.0625 104.9000015258789 173.0500030517578 105.375 174.10000610351562 105.4000015258789 C175.5 105.44999694824219 177.1999969482422 104.80000305175781 177.64999389648438 103.55000305175781 C178.25 101.94999694824219 176.5500030517578 100.69999694824219 177.1999969482422 99.44999694824219 C177.89999389648438 98.19999694824219 180.10000610351562 98.80000305175781 180.60000610351562 97.6500015258789 C181.14999389648438 96.4000015258789 179.0 95.0 179.5500030517578 93.6500015258789 C180.0500030517578 92.5 181.9499969482422 92.8499984741211 182.6999969482422 91.5999984741211 C183.5 90.4000015258789 181.5 88.8499984741211 182.1999969482422 87.69999694824219 C182.5500030517578 87.0999984741211 183.0500030517578 87.3499984741211 183.5500030517578 86.80000305175781 C183.89999389648438 86.3499984741211 184.0 85.8499984741211 183.9499969482422 85.30000305175781 C185.3699951171875 85.97000122070312 186.70399475097656 86.80400085449219 187.92959594726562 87.77880096435547 C189.1551971435547 88.75360107421875 190.27239990234375 89.86920166015625 191.25880432128906 91.10240173339844 C192.24520874023438 92.33560180664062 193.10079956054688 93.6864013671875 193.80320739746094 95.13159942626953 C194.505615234375 96.57679748535156 195.0548095703125 98.11640167236328 195.42840576171875 99.72720336914062 C195.802001953125 101.33799743652344 196.0 103.02000427246094 196.0 104.75"></path>
<path fill="#e53f3f" fill-opacity="1.0"  filling="0" d="M61.05000305175781 104.75 C61.05000305175781 106.42857360839844 61.23673629760742 108.06326293945312 61.589942932128906 109.63236236572266 C61.94314956665039 111.20146179199219 62.46282958984375 112.7049560546875 63.128719329833984 114.12113952636719 C63.79460906982422 115.53732299804688 64.60670471191406 116.86618041992188 65.54475402832031 118.08600616455078 C66.48280334472656 119.30583190917969 67.54679870605469 120.41661834716797 68.71647644042969 121.39665222167969 C69.88615417480469 122.37667846679688 71.16151428222656 123.2259521484375 72.52230072021484 123.92274475097656 C73.88308715820312 124.61953735351562 75.32929992675781 125.16384887695312 76.8406753540039 125.53396606445312 C78.35204315185547 125.90408325195312 79.92857360839844 126.0999984741211 81.55000305175781 126.0999984741211 C83.16429138183594 126.0999984741211 84.7357177734375 125.90408325195312 86.24359130859375 125.53396606445312 C87.75146484375 125.16384887695312 89.1957778930664 124.61953735351562 90.55583190917969 123.92273712158203 C91.9158935546875 123.22594451904297 93.19169616699219 122.37667083740234 94.36254119873047 121.39664459228516 C95.53338623046875 120.41661834716797 96.59927368164062 119.30583190917969 97.53950500488281 118.08600616455078 C98.479736328125 116.86618041992188 99.29431915283203 115.53731536865234 99.96253967285156 114.12113189697266 C100.6307601928711 112.7049560546875 101.15262603759766 111.20145416259766 101.50743865966797 109.63235473632812 C101.86224365234375 108.06326293945312 102.05000305175781 106.42857360839844 102.05000305175781 104.75 C102.05000305175781 103.12857055664062 101.87653350830078 101.54898071289062 101.54781341552734 100.03031921386719 C101.21910095214844 98.51165771484375 100.7351303100586 97.0539321899414 100.11414337158203 95.67623901367188 C99.49314880371094 94.29853820800781 98.73513793945312 93.00086975097656 97.85831451416016 91.80233001708984 C96.98149108886719 90.60379028320312 95.9858627319336 89.5043716430664 94.88965606689453 88.52317810058594 C93.79344177246094 87.54198455810547 92.59664916992188 86.67900848388672 91.31749725341797 85.95335388183594 C90.03834533691406 85.22769927978516 88.67682647705078 84.63935852050781 87.25117492675781 84.20743560791016 C85.82551574707031 83.7755126953125 84.33572387695312 83.5 82.80000305175781 83.4000015258789 C82.80000305175781 83.69999694824219 82.80000305175781 84.0 82.9000015258789 84.30000305175781 C83.3499984741211 85.80000305175781 85.05000305175781 86.05000305175781 85.1500015258789 87.30000305175781 C85.30000305175781 88.80000305175781 82.94999694824219 89.4000015258789 83.05000305175781 90.8499984741211 C83.1500015258789 92.3499984741211 85.69999694824219 92.44999694824219 86.0 94.0999984741211 C86.30000305175781 95.80000305175781 83.80000305175781 96.6500015258789 84.05000305175781 98.5 C84.25 100.19999694824219 86.6500015258789 100.4000015258789 86.75 102.05000305175781 C86.80000305175781 102.7750015258789 86.36250305175781 103.5999984741211 85.6500015258789 104.25 C84.9375 104.9000015258789 83.94999694824219 105.375 82.9000015258789 105.4000015258789 C81.5 105.44999694824219 79.8499984741211 104.80000305175781 79.3499984741211 103.55000305175781 C78.75 101.94999694824219 80.5 100.69999694824219 79.80000305175781 99.44999694824219 C79.0999984741211 98.19999694824219 76.94999694824219 98.80000305175781 76.4000015258789 97.6500015258789 C75.8499984741211 96.4000015258789 78.0 95.0 77.44999694824219 93.6500015258789 C77.0 92.5 75.0999984741211 92.8499984741211 74.30000305175781 91.5999984741211 C73.55000305175781 90.4000015258789 75.55000305175781 88.8499984741211 74.8499984741211 87.69999694824219 C74.5 87.0999984741211 73.94999694824219 87.3499984741211 73.44999694824219 86.80000305175781 C73.0999984741211 86.3499984741211 73.0 85.8499984741211 73.05000305175781 85.30000305175781 C71.6300048828125 85.97000122070312 70.29800415039062 86.80400085449219 69.07559967041016 87.77880096435547 C67.85319519042969 88.75360107421875 66.74040222167969 89.86920166015625 65.75879669189453 91.10240173339844 C64.7771987915039 92.33560180664062 63.92679977416992 93.6864013671875 63.22919845581055 95.13159942626953 C62.53160095214844 96.57679748535156 61.98680114746094 98.11640167236328 61.61640167236328 99.72720336914062 C61.246002197265625 101.33799743652344 61.05000305175781 103.02000427246094 61.05000305175781 104.75"></path>
<path fill="#bc0a1b" fill-opacity="1.0"  filling="0" d="M149.9499969482422 109.1500015258789 C149.9499969482422 109.3499984741211 149.9499969482422 109.5999984741211 149.89999389648438 109.8499984741211 C149.8249969482422 110.7249984741211 149.60000610351562 111.57499694824219 149.2312469482422 112.3687515258789 C148.8625030517578 113.1624984741211 148.35000610351562 113.9000015258789 147.6999969482422 114.55000305175781 C146.97500610351562 115.25 146.1374969482422 115.80000305175781 145.22500610351562 116.17500305175781 C144.3125 116.55000305175781 143.32501220703125 116.75 142.3000030517578 116.75 C141.07501220703125 116.75 139.9250030517578 116.4625015258789 138.90625 115.94999694824219 C137.8874969482422 115.4375 137.0 114.69999694824219 136.3000030517578 113.80000305175781 C135.39999389648438 112.69999694824219 134.85000610351562 111.3499984741211 134.6999969482422 109.8499984741211 C134.6999969482422 109.5999984741211 134.6999969482422 109.4000015258789 134.6999969482422 109.1500015258789 C134.6999969482422 108.125 134.8874969482422 107.13749694824219 135.25624084472656 106.2249984741211 C135.625 105.3125 136.17498779296875 104.4749984741211 136.89999389648438 103.75 C137.625 103.0250015258789 138.46249389648438 102.4625015258789 139.375 102.08125305175781 C140.28750610351562 101.69999694824219 141.27499389648438 101.5 142.3000030517578 101.5 C143.1750030517578 101.5 144.0124969482422 101.6500015258789 144.7937469482422 101.92500305175781 C145.5749969482422 102.19999694824219 146.29998779296875 102.5999984741211 146.9499969482422 103.0999984741211 C147.85000610351562 103.77499389648438 148.60000610351562 104.6624984741211 149.125 105.6937484741211 C149.64999389648438 106.7249984741211 149.9499969482422 107.9000015258789 149.9499969482422 109.1500015258789"></path>
<path fill="#e53f3f" fill-opacity="1.0"  filling="0" d="M149.9499969482422 108.0 C149.9499969482422 108.25 149.9499969482422 108.5 149.89999389648438 108.69999694824219 C149.8249969482422 109.5999984741211 149.60000610351562 110.44999694824219 149.2312469482422 111.23750305175781 C148.8625030517578 112.0250015258789 148.35000610351562 112.75 147.6999969482422 113.4000015258789 C146.97500610351562 114.125 146.1374969482422 114.6875 145.22500610351562 115.0687484741211 C144.3125 115.44999694824219 143.32501220703125 115.6500015258789 142.3000030517578 115.6500015258789 C141.07501220703125 115.6500015258789 139.9250030517578 115.3499984741211 138.90625 114.83125305175781 C137.8874969482422 114.3125 137.0 113.57499694824219 136.3000030517578 112.69999694824219 C135.39999389648438 111.55000305175781 134.85000610351562 110.19999694824219 134.6999969482422 108.69999694824219 C134.6999969482422 108.5 134.6999969482422 108.25 134.6999969482422 108.0 C134.6999969482422 106.9749984741211 134.8874969482422 105.98750305175781 135.25624084472656 105.07499694824219 C135.625 104.1624984741211 136.17498779296875 103.32499694824219 136.89999389648438 102.5999984741211 C137.625 101.875 138.46249389648438 101.3125 139.375 100.9312515258789 C140.28750610351562 100.55000305175781 141.27499389648438 100.3499984741211 142.3000030517578 100.3499984741211 C143.1750030517578 100.3499984741211 144.0124969482422 100.5 144.7937469482422 100.77499389648438 C145.5749969482422 101.04999542236328 146.29998779296875 101.44999694824219 146.9499969482422 101.94999694824219 C147.85000610351562 102.64999389648438 148.60000610351562 103.55000305175781 149.125 104.58125305175781 C149.64999389648438 105.61250305175781 149.9499969482422 106.7750015258789 149.9499969482422 108.0"></path>
<path fill="#fcf3d9" fill-opacity="1.0"  filling="0" d="M145.5 102.19999694824219 C146.5833282470703 102.78333282470703 147.43333435058594 103.62222290039062 148.02037048339844 104.5999984741211 C148.60740661621094 105.57777404785156 148.93148803710938 106.69444274902344 148.9629669189453 107.83333587646484 C148.99444580078125 108.97222137451172 148.73333740234375 110.13333129882812 148.14999389648438 111.19999694824219 C147.56666564941406 112.28333282470703 146.72776794433594 113.13333129882812 145.75 113.72036743164062 C144.772216796875 114.30740356445312 143.6555633544922 114.63147735595703 142.51666259765625 114.66295623779297 C141.37777709960938 114.69444274902344 140.2166748046875 114.43333435058594 139.14999389648438 113.8499984741211 C138.06666564941406 113.26666259765625 137.21665954589844 112.42778015136719 136.62962341308594 111.44815063476562 C136.04258728027344 110.46852111816406 135.718505859375 109.34815216064453 135.68702697753906 108.20185089111328 C135.65554809570312 107.05555725097656 135.91665649414062 105.88333129882812 136.5 104.80000305175781 C137.0833282470703 103.73333740234375 137.92222595214844 102.8888931274414 138.89999389648438 102.30370330810547 C139.87777709960938 101.71852111816406 140.99444580078125 101.39259338378906 142.13333129882812 101.36296081542969 C143.272216796875 101.33332824707031 144.43333435058594 101.5999984741211 145.5 102.19999694824219"></path>
<path fill="#000000" fill-opacity="1.0"  filling="0" d="M146.14999389648438 106.8499984741211 C146.47500610351562 107.89999389648438 146.33749389648438 108.98749542236328 145.8562469482422 109.88749694824219 C145.375 110.7874984741211 144.5500030517578 111.5 143.5 111.80000305175781 C142.4250030517578 112.125 141.33749389648438 111.98750305175781 140.4375 111.5062484741211 C139.53750610351562 111.0250015258789 138.8249969482422 110.19999694824219 138.5 109.1500015258789 C138.1750030517578 108.10000610351562 138.3125 107.01250457763672 138.8000030517578 106.11250305175781 C139.28750610351562 105.2125015258789 140.125 104.5 141.1999969482422 104.19999694824219 C142.25 103.875 143.3249969482422 104.01249694824219 144.21875 104.4937515258789 C145.1125030517578 104.9749984741211 145.8249969482422 105.80000305175781 146.14999389648438 106.8499984741211"></path>
<path fill="#fafafa" fill-opacity="1.0"  filling="0" d="M144.89999389648438 105.8499984741211 C144.89999389648438 106.6500015258789 144.25 107.30000305175781 143.4499969482422 107.30000305175781 C142.6999969482422 107.30000305175781 142.0500030517578 106.6500015258789 142.0500030517578 105.9000015258789 C142.0500030517578 105.0999984741211 142.6999969482422 104.44999694824219 143.4499969482422 104.44999694824219 C144.25 104.44999694824219 144.89999389648438 105.0999984741211 144.89999389648438 105.8499984741211"></path>
<path fill="#bc0a1b" fill-opacity="1.0"  filling="0" d="M106.69999694824219 109.1500015258789 C106.69999694824219 109.3499984741211 106.69999694824219 109.5999984741211 106.75 109.8499984741211 C106.82499694824219 110.7249984741211 107.05000305175781 111.57499694824219 107.41874694824219 112.3687515258789 C107.7874984741211 113.1624984741211 108.30000305175781 113.9000015258789 108.94999694824219 114.55000305175781 C109.64999389648438 115.25 110.48750305175781 115.80000305175781 111.4000015258789 116.17500305175781 C112.3125 116.55000305175781 113.30000305175781 116.75 114.30000305175781 116.75 C115.55000305175781 116.75 116.7125015258789 116.4625015258789 117.73750305175781 115.94999694824219 C118.76249694824219 115.4375 119.64999389648438 114.69999694824219 120.3499984741211 113.80000305175781 C121.25 112.69999694824219 121.80000305175781 111.3499984741211 121.94999694824219 109.8499984741211 C121.94999694824219 109.5999984741211 121.94999694824219 109.4000015258789 121.94999694824219 109.1500015258789 C121.94999694824219 108.125 121.75 107.13749694824219 121.375 106.2249984741211 C121.0 105.3125 120.44999694824219 104.4749984741211 119.75 103.75 C119.0250015258789 103.0250015258789 118.1875 102.4625015258789 117.2750015258789 102.08125305175781 C116.36250305175781 101.69999694824219 115.375 101.5 114.3499984741211 101.5 C113.4749984741211 101.5 112.63749694824219 101.6500015258789 111.85624694824219 101.92500305175781 C111.07499694824219 102.19999694824219 110.3499984741211 102.5999984741211 109.69999694824219 103.0999984741211 C108.80000305175781 103.77499389648438 108.05000305175781 104.6624984741211 107.5250015258789 105.6937484741211 C107.0 106.7249984741211 106.69999694824219 107.9000015258789 106.69999694824219 109.1500015258789"></path>
<path fill="#e53f3f" fill-opacity="1.0"  filling="0" d="M106.69999694824219 108.0 C106.69999694824219 108.25 106.69999694824219 108.5 106.75 108.69999694824219 C106.82499694824219 109.5999984741211 107.05000305175781 110.44999694824219 107.41874694824219 111.23750305175781 C107.7874984741211 112.0250015258789 108.30000305175781 112.75 108.94999694824219 113.4000015258789 C109.64999389648438 114.125 110.48750305175781 114.6875 111.4000015258789 115.0687484741211 C112.3125 115.44999694824219 113.30000305175781 115.6500015258789 114.30000305175781 115.6500015258789 C115.55000305175781 115.6500015258789 116.7125015258789 115.3499984741211 117.73750305175781 114.83125305175781 C118.76249694824219 114.3125 119.64999389648438 113.57499694824219 120.3499984741211 112.69999694824219 C121.25 111.55000305175781 121.80000305175781 110.19999694824219 121.94999694824219 108.69999694824219 C121.94999694824219 108.5 121.94999694824219 108.25 121.94999694824219 108.0 C121.94999694824219 106.9749984741211 121.75 105.98750305175781 121.375 105.07499694824219 C121.0 104.1624984741211 120.44999694824219 103.32499694824219 119.75 102.5999984741211 C119.0250015258789 101.875 118.1875 101.3125 117.2750015258789 100.9312515258789 C116.36250305175781 100.55000305175781 115.375 100.3499984741211 114.3499984741211 100.3499984741211 C113.4749984741211 100.3499984741211 112.63749694824219 100.5 111.85624694824219 100.77499389648438 C111.07499694824219 101.04999542236328 110.3499984741211 101.44999694824219 109.69999694824219 101.94999694824219 C108.80000305175781 102.64999389648438 108.05000305175781 103.55000305175781 107.5250015258789 104.58125305175781 C107.0 105.61250305175781 106.69999694824219 106.7750015258789 106.69999694824219 108.0"></path>
<path fill="#fcf3d9" fill-opacity="1.0"  filling="0" d="M119.05000305175781 103.30000305175781 C119.91667175292969 104.16667175292969 120.49444580078125 105.21111297607422 120.78333282470703 106.3148193359375 C121.07221984863281 107.41851806640625 121.07221984863281 108.58148193359375 120.78333282470703 109.68518829345703 C120.49444580078125 110.78888702392578 119.91667175292969 111.83332824707031 119.05000305175781 112.69999694824219 C118.18333435058594 113.56666564941406 117.13333129882812 114.14444732666016 116.02222442626953 114.43333435058594 C114.9111099243164 114.72222900390625 113.73888397216797 114.72222900390625 112.62777709960938 114.43333435058594 C111.51666259765625 114.14444732666016 110.46665954589844 113.56666564941406 109.5999984741211 112.69999694824219 C108.75 111.83332824707031 108.18333435058594 110.78888702392578 107.9000015258789 109.6851806640625 C107.61666870117188 108.58148193359375 107.61666870117188 107.41851806640625 107.9000015258789 106.31481170654297 C108.18333435058594 105.21111297607422 108.75 104.16667175292969 109.5999984741211 103.30000305175781 C110.46666717529297 102.43333435058594 111.51666259765625 101.85555267333984 112.62777709960938 101.56666564941406 C113.7388916015625 101.27777099609375 114.9111099243164 101.27777099609375 116.02222442626953 101.56666564941406 C117.13333129882812 101.85555267333984 118.18333435058594 102.43333435058594 119.05000305175781 103.30000305175781"></path>
<path fill="#000000" fill-opacity="1.0"  filling="0" d="M117.1500015258789 105.19999694824219 C117.92500305175781 105.9749984741211 118.3125 106.98750305175781 118.3125 108.0 C118.3125 109.01249694824219 117.92500305175781 110.0250015258789 117.1500015258789 110.80000305175781 C116.375 111.60000610351562 115.3499984741211 112.0 114.32499694824219 112.0 C113.30000305175781 112.0 112.2750015258789 111.60000610351562 111.5 110.80000305175781 C110.7249984741211 110.0250015258789 110.33749389648438 109.01249694824219 110.33749389648438 108.0 C110.33749389648438 106.98750305175781 110.7249984741211 105.9749984741211 111.5 105.19999694824219 C112.2750015258789 104.39999389648438 113.30000305175781 104.0 114.32499694824219 104.0 C115.3499984741211 104.0 116.375 104.39999389648438 117.1500015258789 105.19999694824219"></path>
<path fill="#fafafa" fill-opacity="1.0"  filling="0" d="M111.75 105.8499984741211 C111.75 106.6500015258789 112.4000015258789 107.30000305175781 113.1500015258789 107.30000305175781 C113.94999694824219 107.30000305175781 114.5999984741211 106.6500015258789 114.5999984741211 105.9000015258789 C114.5999984741211 105.0999984741211 113.94999694824219 104.44999694824219 113.19999694824219 104.44999694824219 C112.4000015258789 104.44999694824219 111.75 105.0999984741211 111.75 105.8499984741211"></path>
<path fill="#720c0c" fill-opacity="1.0"  filling="0" d="M132.5500030517578 120.80000305175781 C132.5500030517578 120.3499984741211 131.75 120.0999984741211 131.3000030517578 120.5 C130.60000610351562 121.1500015258789 129.60000610351562 121.55000305175781 128.5500030517578 121.55000305175781 C127.44999694824219 121.55000305175781 126.44999694824219 121.1500015258789 125.75 120.5 C125.3499984741211 120.0999984741211 124.5 120.3499984741211 124.5 120.80000305175781 C124.5 121.85000610351562 124.94999694824219 122.80000305175781 125.6812515258789 123.48750305175781 C126.41250610351562 124.17500305175781 127.42500305175781 124.5999984741211 128.5500030517578 124.5999984741211 C129.64999389648438 124.5999984741211 130.64999389648438 124.17500305175781 131.375 123.48750305175781 C132.10000610351562 122.80000305175781 132.5500030517578 121.85000610351562 132.5500030517578 120.80000305175781"></path></svg>