<svg xmlns="http://www.w3.org/2000/svg" viewBox="0.0 0.0 512.0 512.0" height="512.0px" width="512.0px">  <path fill="#FFB680" filling="0" d="m431.08429,187.90295c-1.55026,-4.82135 -7.39844,-12.51269 -19.50153,-11.38632c-8.31149,0.77368 -13.19824,7.74545 -14.97601,13.642c-1.16907,3.87976 -1.14914,8.23749 -3.72623,12.99338c-0.23608,0.43799 -0.66275,0.91586 -1.15768,1.39944c-0.75095,-1.11783 -6.52515,-8.70395 -13.04178,-10.99945c0.00571,-0.01706 0.01422,-0.02844 0.02277,-0.04547c0,0 -9.4635,-4.84698 -20.61939,-4.07614c-8.18918,0.56607 -15.42257,1.76358 -34.0935,-1.84601c-13.21527,-2.55435 -35.5499,-2.3865 -37.72873,-2.51169c-4.61655,-0.27023 -14.97315,0.82773 -21.74295,1.67542c-7.07413,0.88461 -16.96997,4.84979 -9.58576,10.16028c7.38419,5.30777 17.51322,-1.38233 21.6832,-1.78055c7.06558,-0.6742 17.71521,1.97684 38.89493,4.61654c4.43167,0.55179 16.27594,4.75025 27.73337,7.24762c-4.59098,3.74897 -10.86011,7.08838 -14.88501,8.11234c-1.51612,0.38403 -3.52427,0.23325 -5.75147,-0.017c1.40799,8.43091 4.26953,23.9303 8.28589,37.77136c4.56247,-2.79046 12.9678,-5.26788 18.15036,-5.39306c4.16998,-0.09961 8.14371,0.27588 12.17709,0.62292c0.10526,0.00849 0.48072,-0.03985 1.03253,-0.13086c-8.53616,7.32154 -16.69689,18.8956 -19.60107,20.36341c-14.03732,7.1025 -21.02312,22.60474 -30.2903,24.18051c-3.36212,0.57172 -6.49119,0.76838 -12.75184,2.12525c-0.90738,0.19629 -6.08918,3.17418 -3.62024,9.16753c2.46902,5.99036 16.89586,-2.1241 18.9239,-2.60195c2.02814,-0.47787 23.83305,-12.49948 39.63112,-24.17309c7.02292,-5.18829 29.78418,-24.53049 37.17404,-33.30557c1.7095,-2.02811 2.61121,-5.61213 3.07199,-9.42371l0,0c1.51895,-4.22968 2.52017,-11.19003 2.43769,-14.13403c1.22882,-1.88871 3.73761,-4.73316 5.12286,-5.02899c2.50308,-0.53473 4.04193,0.75946 5.74863,2.63964c1.41079,1.55591 2.69082,0.63153 3.95944,-0.11944c0.7623,-0.45221 1.51892,-0.83911 2.30115,-0.58878c1.35681,0.43518 1.06384,-0.64572 1.19754,-1.40799c0.46081,-0.2446 1.4421,0.16782 1.85739,-0.03698c1.01834,-0.49784 0.30435,-1.49054 0.74243,-1.81473c1.10364,-0.81067 4.12442,1.33969 4.68194,0.00564c0.9614,-2.30688 0.32425,-8.64142 1.74646,-9.56866c2.87293,-1.87448 4.33497,-3.80307 5.48414,-6.6987c0.12799,-0.32144 0.23608,-0.62006 0.3413,-0.91589c0.90171,-2.52305 1.79203,-5.23383 0.67133,-8.71824z" id="svg_1"/>
  <path fill="#FFB680" filling="0" d="m253.76163,242.62714c0,0 -24.68979,13.38604 -28.80002,12.30517c-16.03983,-4.21545 -57.89014,0.94715 -57.89014,0.94715c0,0 -0.4096,3.59826 0,10.21725c11.07627,2.26413 48.82486,7.74826 57.85031,7.57761c9.02542,-0.17066 40.70398,-10.88855 40.70398,-10.88855l-11.86413,-20.15863z" id="svg_2"/>
  <path fill="#FFB680" filling="0" d="m271.69583,270.87537c0,0 -22.35452,12.66916 -33.23453,11.84149c-10.77758,-0.81928 -61.0816,-3.74332 -61.0816,-3.74332l-1.28284,11.84714c0,0 50.86719,9.19604 63.5961,11.18146c6.08429,0.94717 42.46469,-8.41098 42.46469,-8.41098l-10.46182,-22.71579z" id="svg_3"/>
  <path fill="#FC2E3D" filling="0" d="m176.0997,255.20526c0,0 -8.4053,-7.81644 -14.87363,-6.53931c-2.66516,0.52625 -7.85913,4.75019 -16.30999,9.48621c-11.88691,6.66458 -29.92646,8.86041 -35.23413,10.5159c-9.02546,2.81604 -15.53919,5.99896 -19.35932,8.57602c-2.00812,1.35391 -10.95105,7.7312 -3.71765,14.50098c2.10199,1.96554 3.73474,1.12362 6.76971,4.15286c1.27723,1.27438 0.01423,6.36026 2.57142,8.09244c8.04412,5.44714 16.19909,-0.40107 16.19909,-0.40107c0,0 22.86652,-16.49493 32.07117,-21.18823c9.77631,-4.9834 28.04333,-15.34289 28.04333,-15.34289c0,0 -6.10986,-8.90601 3.84,-11.85291z" id="svg_4"/>
  <path fill="#FFA750" filling="0" d="m96.70837,280.15399c-3.53558,2.1817 -7.38415,5.4101 -5.74292,8.92304c1.47351,3.15442 4.82142,1.53875 6.25788,4.82129c0.96136,2.19873 -0.92169,5.43573 1.74359,7.07696c2.66809,1.64124 7.64868,-0.3186 12.41034,-3.38495c6.05292,-3.89685 23.22204,-15.71261 27.59112,-18.05359c5.66895,-3.03784 9.1363,-6.33743 7.58893,-8.66137c-1.97687,-2.96955 -8.20624,-1.12928 -13.74432,0.66278c-5.53815,1.78912 -29.13001,4.30935 -36.10462,8.61584z" id="svg_5"/>
  <path fill="#FC2E3D" filling="0" d="m181.54968,279.32056c0,0 -10.22857,-5.20533 -16.09674,-2.19873c-2.41772,1.23727 -6.25207,6.72705 -13.07306,13.60492c-9.5971,9.67681 -26.33673,16.7452 -30.98449,19.79449c-7.90473,5.18829 -13.29212,10.04092 -16.25605,13.56799c-1.55871,1.85462 -8.40246,10.4448 0.41248,14.96466c2.56,1.31409 3.90253,0.05402 7.65155,2.13334c1.5758,0.87319 1.76074,6.1127 4.69623,7.07418c9.23303,3.02643 15.46521,-4.8385 15.46521,-4.8385c0,0 17.45062,-22.14679 25.01117,-29.18963c8.0299,-7.4809 22.74701,-22.46262 22.74701,-22.46262c0,0 -8.32853,-6.88071 0.42669,-12.4501z" id="svg_6"/>
  <path fill="#FFA750" filling="0" d="m112.07703,325.13605c-2.79901,3.06909 -5.61213,7.2334 -3.06922,10.16031c2.28412,2.62829 5.05744,0.15359 7.34149,2.91552c1.53034,1.85172 0.6059,5.48124 3.62098,6.32602c3.01513,0.84482 7.26757,-2.40631 11.00232,-6.66736c4.74737,-5.41012 18.00823,-21.48968 21.56658,-24.94293c4.61652,-4.47998 7.04285,-8.60443 4.91803,-10.41632c-2.71643,-2.3125 -8.20056,1.17188 -13.03326,4.41458c-4.83551,3.24271 -26.82593,12.14859 -32.34692,18.21018z" id="svg_7"/>
  <path fill="#7E3422" filling="0" d="m431.29474,194.02417c0,0 -2.63394,-3.94809 -10.18024,-3.6864c-4.82705,0.16781 -6.91485,2.89282 -11.92679,1.09796c-4.31787,-1.54736 -5.48123,1.48199 -5.48123,1.48199l-9.28143,6.5593c0,0 -2.45191,-6.88077 4.33209,-17.48202c6.52802,-10.20017 9.85886,-12.54114 9.85886,-12.54114c0,0 8.98843,1.28 19.04922,9.60568c5.66327,4.68765 7.79379,9.10788 7.79379,9.10788c0,0 -2.79608,2.50601 -4.16427,5.85675z" id="svg_8"/>
  <path fill="#FFB680" filling="0" d="m409.84479,192.37158c0,0 2.18167,-3.33655 -1.17191,-5.12857c-3.35074,-1.79483 -6.79251,2.31824 -5.24798,7.27609c1.54736,4.95215 6.41989,-2.14752 6.41989,-2.14752z" id="svg_9"/>
  <path fill="#999999" filling="0" d="m450.24445,203.83749c0,0 -20.00214,19.237 -28.59806,15.1666c-1.26574,-0.59732 -2.15326,-1.17761 -2.77905,-1.664c0.17639,-0.64285 0.10245,-1.34537 -0.32138,-1.91718l-0.82773,-1.11786c-0.73105,-0.987 -2.13904,-1.19464 -3.12604,-0.46365l-0.52908,0.39255c-0.98703,0.73105 -1.19467,2.13904 -0.46362,3.12604l0.82773,1.11785c0.61154,0.82496 1.68103,1.06669 2.59414,0.71112c0.89026,0.81354 2.11908,1.80625 3.44461,2.47754c10.39078,5.24802 32.13651,-15.47094 32.13651,-15.47094l-2.35803,-2.35807z" id="svg_10"/>
  <path fill="#13B6D1" filling="0" d="m417.34842,203.73792c0,-1.74366 2.35809,-4.30927 3.0777,-4.71888c0.71679,-0.4096 2.87286,0.51194 4.51416,1.43647c1.13492,0.63714 2.742,1.90005 3.63522,2.62539c0.4238,-0.90735 0.67123,-1.49902 0.67123,-1.49902c0,0 -3.99923,-4.8725 -9.02258,-4.6507c-0.82486,0.03696 -2.75342,2.08496 -3.66931,3.64945c-1.16623,1.98828 -2.38367,3.38495 -0.76801,5.07736c0.63715,0.6684 6.26346,5.58072 7.5008,6.14966c0.43237,-0.48352 0.8562,-1.0297 1.26861,-1.61002c-2.03659,-1.51602 -7.20782,-5.46701 -7.20782,-6.45971z" id="svg_11"/>
  <path fill="#41D6E5" filling="0" d="m424.94028,200.45551c-1.6413,-0.92164 -3.7945,-1.84607 -4.51416,-1.43647c-0.7168,0.40961 -3.0777,2.97522 -3.0777,4.71888c0,0.9927 5.17123,4.94369 7.20782,6.46261c1.71238,-2.39505 3.19999,-5.36459 4.01926,-7.11963c-0.89603,-0.72534 -2.50314,-1.98825 -3.63522,-2.62539z" id="svg_12"/>
  <path fill="#13B6D1" filling="0" d="m415.91199,203.02118c0,0 -5.85388,-6.72147 -8.55039,-9.40942c-2.06509,-2.05939 -10.1177,-9.0539 -10.1177,-9.0539l1.33404,-2.25564c0,0 8.49353,7.64877 10.41068,9.14773c2.67947,2.09638 10.82309,6.58206 10.82309,6.58206l-0.98984,1.24582l-5.76856,-2.61688l3.88553,4.61655l-1.02685,1.74368z" id="svg_13"/>
  <path fill="#FC2E3D" filling="0" d="m312.31451,214.66348c-35.83151,5.4386 -59.38919,28.41318 -59.38919,28.41318c0,0 6.18384,9.3013 11.84995,19.99643c1.45636,-0.03415 36.74737,-15.50226 36.74737,-15.50226c0,0 -19.36499,16.59451 -29.82681,23.30737c1.26007,7.31315 4.30933,12.89673 10.46182,22.71573c15.74121,-6.61041 37.16553,-28.44445 46.33887,-38.84942c0.55466,-0.63138 2.96674,-2.14179 3.98221,-2.76471c-5.11713,-14.23935 -6.78397,-28.29941 -8.19196,-36.73041c-3.2171,-0.36404 -8.57602,-1.10364 -11.97226,-0.58591z" id="svg_14"/>
  <path fill="#ED8A40" filling="0" d="m358.13562,207.9335c0,0 -1.79483,5.19678 -1.79483,9.70523c0,3.02082 2.10205,7.21353 2.10205,7.21353c0,0 -5.25369,-4.31503 -4.77014,-8.45938c0.61441,-5.27362 4.46292,-8.45938 4.46292,-8.45938z" id="svg_15"/>
  <path fill="#ED8A40" filling="0" d="m360.60461,235.12079c0,0 1.23163,5.46979 5.23093,6.58197c3.9993,1.11218 8.76093,1.57294 8.76093,1.57294c0,0 -9.37815,3.5357 -12.76307,-1.07807c-3.38205,-4.61358 -1.22879,-7.07684 -1.22879,-7.07684z" id="svg_16"/>
  <path fill="#ED8A40" filling="0" d="m332.47873,237.6864c-1.26007,0.25879 -1.19748,1.89728 0.09674,1.66681c1.86026,-0.3327 1.52179,-2.00244 -0.09674,-1.66681z" id="svg_17"/></svg>