<svg xmlns="http://www.w3.org/2000/svg" viewBox="0.0 0.0 256.0 256.0" height="256.0px" width="256.0px"><path fill="#FFB680" fill-opacity="1.0"  filling="0" d="M215.54214477539062 93.95147705078125 C215.2837677001953 93.14791870117188 214.78662109375 92.1849136352539 214.0144500732422 91.2789077758789 C213.24227905273438 90.3729019165039 212.1951141357422 89.52388763427734 210.83668518066406 88.94831085205078 C209.47824096679688 88.37273406982422 207.80856323242188 88.07058715820312 205.7913818359375 88.25831604003906 C204.4061279296875 88.38726043701172 203.21115112304688 88.86054992675781 202.20057678222656 89.5434799194336 C201.19000244140625 90.22640991210938 200.36386108398438 91.1189956665039 199.71627807617188 92.08653259277344 C199.06869506835938 93.05406188964844 198.59967041015625 94.0965576171875 198.30337524414062 95.07931518554688 C198.0111083984375 96.04925537109375 197.86746215820312 97.07894134521484 197.6358184814453 98.16338348388672 C197.4041748046875 99.24783325195312 197.08453369140625 100.38703155517578 196.4402618408203 101.57600402832031 C196.3222198486328 101.79499816894531 196.10888671875 102.033935546875 195.86141967773438 102.27572631835938 C195.67367553710938 101.99626922607422 194.8580322265625 100.90827941894531 193.68203735351562 99.74667358398438 C192.50604248046875 98.5850830078125 190.96969604492188 97.3498764038086 189.3405303955078 96.7760009765625 C189.34432983398438 96.76842498779297 188.82110595703125 96.49409484863281 187.9152069091797 96.14596557617188 C187.00930786132812 95.79783630371094 185.720703125 95.37590789794922 184.1937713623047 95.07312774658203 C182.6668243408203 94.77034759521484 180.9015350341797 94.58671569824219 179.04222106933594 94.71519470214844 C178.01856994628906 94.78594970703125 177.02479553222656 94.8764419555664 175.9640655517578 94.94418334960938 C174.90333557128906 95.01191711425781 173.775634765625 95.05689239501953 172.4841766357422 95.03662872314453 C171.19271850585938 95.016357421875 169.7374725341797 94.93084716796875 168.02162170410156 94.73760986328125 C166.3057861328125 94.54436492919922 164.329345703125 94.24339294433594 161.99546813964844 93.79219055175781 C160.34356689453125 93.472900390625 158.40667724609375 93.2386703491211 156.41351318359375 93.06595611572266 C154.4203643798828 92.89324188232422 152.37094116210938 92.78204345703125 150.49395751953125 92.70880126953125 C148.61697387695312 92.63555908203125 146.91244506835938 92.60026550292969 145.6090545654297 92.57937622070312 C144.30567932128906 92.55848693847656 143.40345764160156 92.55199432373047 143.131103515625 92.53634643554688 C142.36167907714844 92.4913101196289 141.2733612060547 92.52227783203125 140.03887939453125 92.59928894042969 C138.80438232421875 92.67630004882812 137.42373657226562 92.79934692382812 136.06961059570312 92.93846893310547 C134.7154998779297 93.07759094238281 133.387939453125 93.23277282714844 132.25962829589844 93.37405395507812 C130.4910888671875 93.59520721435547 128.36984252929688 94.20143127441406 127.15225219726562 95.08427429199219 C125.93464660644531 95.96711730957031 125.62069702148438 97.12657165527344 127.46675109863281 98.45419311523438 C128.69744873046875 99.33882141113281 130.0806427001953 99.55690002441406 131.45513916015625 99.44713592529297 C132.8296356201172 99.33736419677734 134.1954345703125 98.89974975585938 135.39137268066406 98.47297668457031 C136.58729553222656 98.04621124267578 137.61334228515625 97.63029479980469 138.308349609375 97.56391906738281 C139.19154357910156 97.47964477539062 140.18675231933594 97.49928283691406 141.34820556640625 97.59677124023438 C142.50967407226562 97.69425964355469 143.83740234375 97.86959075927734 145.38568115234375 98.0967025756836 C146.93394470214844 98.32381439208984 148.70274353027344 98.60270690917969 150.746337890625 98.90731048583984 C152.78994750976562 99.2119140625 155.10833740234375 99.54222869873047 157.7558135986328 99.8721923828125 C158.4944305419922 99.96415710449219 159.6448516845703 100.25871276855469 161.06265258789062 100.65682983398438 C162.48045349121094 101.05494689941406 164.16563415527344 101.55662536621094 165.9737548828125 102.06283569335938 C167.7818603515625 102.56903839111328 169.71292114257812 103.07977294921875 171.62249755859375 103.49600219726562 C170.47476196289062 104.43324279785156 169.11724853515625 105.31929016113281 167.79510498046875 106.03502655029297 C166.4729766845703 106.75076293945312 165.18621826171875 107.29618072509766 164.17999267578125 107.55216979980469 C163.42193603515625 107.74418640136719 162.41786193847656 107.66879272460938 161.30426025390625 107.54367065429688 C161.48025512695312 108.5975341796875 161.70167541503906 109.87228393554688 161.9661865234375 111.29975128173828 C162.23069763183594 112.72721862792969 162.53829956054688 114.3073959350586 162.88665771484375 115.97210693359375 C163.23501586914062 117.6368179321289 163.62413024902344 119.38606262207031 164.05166625976562 121.15166473388672 C164.4792022705078 122.91726684570312 164.94515991210938 124.69921875 165.44720458984375 126.42935180664062 C166.58782958984375 125.73173522949219 168.20880126953125 125.07324981689453 169.8685302734375 124.58134460449219 C171.52825927734375 124.08943939208984 173.22674560546875 123.76411437988281 174.5223846435547 123.73281860351562 C175.56488037109375 123.70791625976562 176.5828399658203 123.74240112304688 177.59226989746094 123.80480194091797 C178.60169982910156 123.86720275878906 179.6025848388672 123.95751953125 180.61093139648438 124.04428100585938 C180.66355895996094 124.04852294921875 180.85128784179688 124.02435302734375 181.127197265625 123.97885131835938 C179.70449829101562 125.19910430908203 178.30267333984375 126.6556167602539 177.0120849609375 128.0824737548828 C175.72149658203125 129.50933837890625 174.5421600341797 130.90652465820312 173.564453125 132.0081787109375 C172.58676147460938 133.10983276367188 171.81069946289062 133.91592407226562 171.32666015625 134.16055297851562 C169.57199096679688 135.04837036132812 168.03768920898438 136.19866943359375 166.6508331298828 137.43704223632812 C165.26397705078125 138.6754150390625 164.02455139160156 140.00186157226562 162.85968017578125 141.241943359375 C161.69479370117188 142.48202514648438 160.60446166992188 143.63577270507812 159.51573181152344 144.52871704101562 C158.427001953125 145.42166137695312 157.33990478515625 146.0538330078125 156.18150329589844 146.2508087158203 C155.34097290039062 146.39373779296875 154.52957153320312 146.48977661132812 153.53701782226562 146.63490295410156 C152.54446411132812 146.780029296875 151.37075805664062 146.97421264648438 149.8055877685547 147.3134307861328 C149.5787353515625 147.3625030517578 148.81759643554688 147.75927734375 148.26747131347656 148.51837158203125 C147.71734619140625 149.2774658203125 147.37823486328125 150.39886474609375 147.99546813964844 151.89720153808594 C148.40696716308594 152.89559936523438 149.48280334472656 153.11038208007812 150.7718963623047 152.94419860839844 C152.06100463867188 152.77801513671875 153.56338500976562 152.2308349609375 154.82798767089844 151.70529174804688 C156.09259033203125 151.1797637939453 157.11941528320312 150.67587280273438 157.45741271972656 150.59622192382812 C157.6602325439453 150.54843139648438 158.25857543945312 150.269775390625 159.14932250976562 149.80780029296875 C160.04006958007812 149.3458251953125 161.2232208251953 148.7005615234375 162.59564208984375 147.91954040527344 C163.9680633544922 147.13851928710938 165.5297393798828 146.22177124023438 167.17755126953125 145.21682739257812 C168.82537841796875 144.21189880371094 170.559326171875 143.11878967285156 172.27627563476562 141.98507690429688 C173.99322509765625 140.8513641357422 175.69317626953125 139.67703247070312 177.27297973632812 138.50967407226562 C177.9752655029297 137.9908447265625 178.99232482910156 137.18893432617188 180.19972229003906 136.2028350830078 C181.4071044921875 135.21673583984375 182.80482482910156 134.04644775390625 184.26841735839844 132.79083251953125 C185.73202514648438 131.5352325439453 187.26150512695312 130.19430541992188 188.73245239257812 128.86697387695312 C190.20339965820312 127.53962707519531 191.61578369140625 126.22586059570312 192.84518432617188 125.02455139160156 C194.0745849609375 123.8232421875 195.12100219726562 122.73439025878906 195.86000061035156 121.85688781738281 C196.28738403320312 121.34986114501953 196.61376953125 120.64834594726562 196.8621368408203 119.83535766601562 C197.11048889160156 119.02237701416016 197.28079223632812 118.09793090820312 197.39599609375 117.14503479003906 C197.77572631835938 116.08761596679688 198.09075927734375 114.68885803222656 198.30569458007812 113.3704605102539 C198.52061462402344 112.05206298828125 198.63546752929688 110.81401824951172 198.61483764648438 110.07801818847656 C199.229248046875 109.1336669921875 200.483642578125 107.71144104003906 201.17626953125 107.56352233886719 C202.4278106689453 107.29615783691406 203.19723510742188 107.94325256347656 204.0505828857422 108.88333892822266 C204.7559814453125 109.66129302978516 205.39599609375 109.19910430908203 206.03030395507812 108.82361602783203 C206.4114532470703 108.5975112915039 206.78976440429688 108.40406036376953 207.18087768554688 108.52922821044922 C207.85928344726562 108.74681854248047 207.71279907226562 108.20636749267578 207.77964782714844 107.82523345947266 C208.0100555419922 107.70293426513672 208.50070190429688 107.90914154052734 208.70834350585938 107.8067398071289 C209.21751403808594 107.55782318115234 208.8605194091797 107.06147003173828 209.07955932617188 106.89937591552734 C209.63137817382812 106.4940414428711 211.1417694091797 107.56922149658203 211.4205322265625 106.9021987915039 C211.90122985839844 105.7487564086914 211.58265686035156 102.58148956298828 212.29376220703125 102.11786651611328 C213.730224609375 101.18062591552734 214.46124267578125 100.2163314819336 215.03582763671875 98.76851654052734 C215.09982299804688 98.60779571533203 215.15386962890625 98.45848846435547 215.20648193359375 98.3105697631836 C215.65733337402344 97.04904174804688 216.1024932861328 95.69365692138672 215.54214477539062 93.95144653320312"></path>
<path fill="#FFB680" fill-opacity="1.0"  filling="0" d="M126.88081359863281 121.31356811523438 C126.88081359863281 121.31356811523438 126.10926055908203 121.73188018798828 124.91981506347656 122.35090637207031 C123.7303695678711 122.96993255615234 122.12303161621094 123.7896728515625 120.45147705078125 124.592529296875 C118.77992248535156 125.39537811279297 117.04414367675781 126.18133544921875 115.59780883789062 126.7328109741211 C114.15147399902344 127.28428649902344 112.99458312988281 127.60126495361328 112.48080444335938 127.46615600585938 C111.14414978027344 127.1148681640625 109.44902038574219 126.89382934570312 107.55203247070312 126.7693862915039 C105.65504455566406 126.64494323730469 103.55619812011719 126.6170883178711 101.41212463378906 126.65216827392578 C99.2680435180664 126.68724822998047 97.0787353515625 126.7852554321289 95.00080871582031 126.91254425048828 C92.92288208007812 127.03983306884766 90.95634460449219 127.1963882446289 89.2578125 127.34856414794922 C87.55928039550781 127.50074005126953 86.12876892089844 127.64852905273438 85.12287902832031 127.7582778930664 C84.11698913574219 127.86802673339844 83.53573608398438 127.93972778320312 83.53573608398438 127.93972778320312 C83.53573608398438 127.93972778320312 83.48453521728516 128.38951110839844 83.45893859863281 129.2529754638672 C83.43333435058594 130.116455078125 83.43333435058594 131.39361572265625 83.53573608398438 133.04835510253906 C84.45875549316406 133.23703002929688 85.75222778320312 133.47042846679688 87.28791809082031 133.72801208496094 C88.8236083984375 133.985595703125 90.60151672363281 134.26734924316406 92.49341583251953 134.552734375 C94.38531494140625 134.838134765625 96.39119720458984 135.1271514892578 98.38284301757812 135.39927673339844 C100.3744888305664 135.67140197753906 102.35189056396484 135.92660522460938 104.18682098388672 136.1443634033203 C106.02174377441406 136.36212158203125 107.71420288085938 136.5424346923828 109.1359634399414 136.6647491455078 C110.5577163696289 136.7870635986328 111.70877075195312 136.85137939453125 112.46089172363281 136.837158203125 C113.36343383789062 136.82009887695312 114.71903991699219 136.5920867919922 116.31037902832031 136.23818969726562 C117.90171813964844 135.88429260253906 119.72879791259766 135.40451049804688 121.57427978515625 134.8839111328125 C123.41976928710938 134.36331176757812 125.28366088867188 133.8018798828125 126.94863891601562 133.28469848632812 C128.61361694335938 132.76751708984375 130.07968139648438 132.2945556640625 131.12948608398438 131.95089721679688 C132.17930603027344 131.60723876953125 132.81288146972656 131.39288330078125 132.81288146972656 131.39288330078125 L130.8355255126953 128.03311157226562 L128.85816955566406 124.67334747314453 L126.88081359863281 121.31356811523438"></path>
<path fill="#FFB680" fill-opacity="1.0"  filling="0" d="M135.84791564941406 135.43768310546875 C135.84791564941406 135.43768310546875 135.1493377685547 135.83358764648438 134.01646423339844 136.42098999023438 C132.8835906982422 137.00839233398438 131.31643676757812 137.7872772216797 129.57928466796875 138.55323791503906 C127.84212493896484 139.31919860839844 125.93496704101562 140.07223510742188 124.12210083007812 140.60789489746094 C122.30923461914062 141.14356994628906 120.59065246582031 141.46188354492188 119.23065185546875 141.35842895507812 C118.46082305908203 141.29991149902344 117.28766632080078 141.21990966796875 115.84212493896484 141.12576293945312 C114.3965835571289 141.0316162109375 112.67865753173828 140.92333984375 110.81929779052734 140.8082275390625 C108.9599380493164 140.693115234375 106.95914459228516 140.57119750976562 104.94786834716797 140.44979858398438 C102.93658447265625 140.32838439941406 100.91482543945312 140.20748901367188 99.01351928710938 140.09445190429688 C97.11221313476562 139.9813995361328 95.33137512207031 139.87619018554688 93.80194091796875 139.78616333007812 C92.27250671386719 139.69613647460938 90.9944839477539 139.6212921142578 90.09881591796875 139.56893920898438 C89.20315551757812 139.5166015625 88.68984985351562 139.4867706298828 88.68984985351562 139.4867706298828 L88.369140625 142.44854736328125 L88.04843139648438 145.41033935546875 C88.04843139648438 145.41033935546875 88.5674819946289 145.50418090820312 89.47584533691406 145.66793823242188 C90.38420867919922 145.83169555664062 91.68187713623047 146.06536865234375 93.23910522460938 146.34506225585938 C94.79633331298828 146.62474060058594 96.61312866210938 146.95042419433594 98.55973052978516 147.29820251464844 C100.50634002685547 147.64598083496094 102.582763671875 148.01583862304688 104.65925598144531 148.38388061523438 C106.73574829101562 148.7519073486328 108.81231689453125 149.1181182861328 110.75920867919922 149.4585723876953 C112.70610046386719 149.79904174804688 114.5233154296875 150.11375427246094 116.08110809326172 150.37879943847656 C117.63890075683594 150.64385986328125 118.93727111816406 150.8592529296875 119.84648132324219 151.00106811523438 C120.45491027832031 151.0957794189453 121.66925811767578 150.98439025878906 123.22283172607422 150.7455596923828 C124.77639770507812 150.5067138671875 126.66918182373047 150.1404266357422 128.6344757080078 149.72532653808594 C130.5997772216797 149.3102264404297 132.6375732421875 148.84634399414062 134.48118591308594 148.4123077392578 C136.32479858398438 147.978271484375 137.9741973876953 147.5740966796875 139.16270446777344 147.27841186523438 C140.35122680664062 146.9827423095703 141.07882690429688 146.7955780029297 141.07882690429688 146.7955780029297 L139.33518981933594 143.00961303710938 L137.591552734375 139.22366333007812 L135.84791564941406 135.43768310546875"></path>
<path fill="#FC2E3D" fill-opacity="1.0"  filling="0" d="M88.04985046386719 127.60263061523438 C88.04985046386719 127.60263061523438 86.99919128417969 126.62557983398438 85.54425048828125 125.72834014892578 C84.08932495117188 124.83110809326172 82.23011779785156 124.0136947631836 80.613037109375 124.33297729492188 C79.94674682617188 124.46453857421875 78.96435546875 125.05831146240234 77.620361328125 125.91519165039062 C76.27635955810547 126.77207946777344 74.57075500488281 127.89207458496094 72.45803833007812 129.07608032226562 C70.97217559814453 129.90914916992188 69.29403686523438 130.60256958007812 67.57117462158203 131.18704223632812 C65.84830474853516 131.77151489257812 64.08070373535156 132.2470245361328 62.415897369384766 132.64425659179688 C60.751094818115234 133.04150390625 59.18909454345703 133.3604736328125 57.87742614746094 133.6318817138672 C56.56576156616211 133.9032745361328 55.504432678222656 134.12710571289062 54.840972900390625 134.3340301513672 C53.33673095703125 134.80337524414062 51.97203063964844 135.2930908203125 50.75023651123047 135.78518676757812 C49.5284423828125 136.27728271484375 48.449554443359375 136.771728515625 47.516944885253906 137.25054931640625 C46.58433532714844 137.72935485839844 45.798004150390625 138.19253540039062 45.16131591796875 138.62203979492188 C44.65928649902344 138.96051025390625 43.2904052734375 139.92691040039062 42.49911880493164 141.2318115234375 C41.70783233642578 142.5366973876953 41.494140625 144.18008422851562 43.302490234375 145.87252807617188 C44.353485107421875 146.8553009033203 45.16986083984375 146.43434143066406 46.687339782714844 147.94895935058594 C47.325958251953125 148.58615112304688 46.6944580078125 151.12908935546875 47.973052978515625 151.99517822265625 C49.98408126831055 153.35696411132812 52.00896453857422 153.30682373046875 53.53109359741211 152.916259765625 C55.05322265625 152.52566528320312 56.072593688964844 151.79464721679688 56.072593688964844 151.79464721679688 C56.072593688964844 151.79464721679688 56.78717041015625 151.2791748046875 57.93095016479492 150.4693145751953 C59.074729919433594 149.65945434570312 60.647708892822266 148.55517578125 62.3645133972168 147.37757873535156 C64.08131408691406 146.19998168945312 65.94194030761719 144.9490509033203 67.6610107421875 143.84585571289062 C69.38008117675781 142.74266052246094 70.95759582519531 141.78720092773438 72.1081771850586 141.20053100585938 C73.33021545410156 140.57760620117188 74.81758880615234 139.78668212890625 76.36125183105469 138.95068359375 C77.90491485595703 138.11468505859375 79.50486755371094 137.23361206054688 80.95206451416016 136.430419921875 C82.39926147460938 135.62722778320312 83.69371032714844 134.90188598632812 84.62635803222656 134.37734985351562 C85.55899810791016 133.85281372070312 86.12984466552734 133.52908325195312 86.12984466552734 133.52908325195312 C86.12984466552734 133.52908325195312 85.3661117553711 132.41583251953125 85.2242431640625 131.118408203125 C85.08238220214844 129.8209686279297 85.5623779296875 128.33935546875 88.04984283447266 127.60263061523438"></path>
<path fill="#FFA750" fill-opacity="1.0"  filling="0" d="M48.35418701171875 140.07699584960938 C47.47029113769531 140.62242126464844 46.547271728515625 141.29867553710938 45.94780349731445 142.0581512451172 C45.34833526611328 142.81761169433594 45.072418212890625 143.6602783203125 45.48272705078125 144.53851318359375 C46.219482421875 146.11572265625 47.8934326171875 145.30789184570312 48.611663818359375 146.94915771484375 C49.09234619140625 148.04852294921875 48.15081787109375 149.66702270507812 49.48345947265625 150.48764038085938 C50.150482177734375 150.89794921875 51.1065673828125 150.85812377929688 52.19350051879883 150.52407836914062 C53.280433654785156 150.19003295898438 54.49821472167969 149.56175231933594 55.688629150390625 148.795166015625 C56.44524383544922 148.3080596923828 57.54924011230469 147.573486328125 58.81377410888672 146.7273406982422 C60.078304290771484 145.88119506835938 61.50337219238281 144.9234619140625 62.902130126953125 143.99005126953125 C64.30088806152344 143.056640625 65.67333984375 142.14752197265625 66.83262634277344 141.39862060546875 C67.9919204711914 140.6497039794922 68.93805694580078 140.06100463867188 69.48419189453125 139.76837158203125 C70.90142822265625 139.0089111328125 72.04346466064453 138.21673583984375 72.73448181152344 137.46917724609375 C73.42550659179688 136.72161865234375 73.66549682617188 136.0186767578125 73.27865600585938 135.43768310546875 C72.78443908691406 134.69529724121094 71.75865936279297 134.55413818359375 70.51029968261719 134.7105712890625 C69.26194763183594 134.8670196533203 67.791015625 135.32106018066406 66.406494140625 135.76907348632812 C65.71422576904297 135.99270629882812 64.45777893066406 136.23919677734375 62.90802001953125 136.51678466796875 C61.35826110839844 136.7943572998047 59.51519012451172 137.10302734375 57.64967727661133 137.45103454589844 C55.78416442871094 137.79904174804688 53.896202087402344 138.18637084960938 52.25666427612305 138.62127685546875 C50.61712646484375 139.0561981201172 49.22601318359375 139.5386962890625 48.35418701171875 140.07699584960938"></path>
<path fill="#FC2E3D" fill-opacity="1.0"  filling="0" d="M90.77484130859375 139.6602783203125 C90.77484130859375 139.6602783203125 89.49626922607422 139.00961303710938 87.85093688964844 138.54685974121094 C86.20560455322266 138.0841064453125 84.19351196289062 137.80926513671875 82.72647094726562 138.5609130859375 C82.12203979492188 138.8702392578125 81.34053039550781 139.71112060546875 80.2838134765625 140.90452575683594 C79.22710418701172 142.0979461669922 77.89518737792969 143.64390563964844 76.18994140625 145.36337280273438 C74.99030303955078 146.57296752929688 73.56745910644531 147.70106506347656 72.07168579101562 148.7366180419922 C70.5759048461914 149.7721710205078 69.00719451904297 150.71519470214844 67.51581573486328 151.55465698242188 C66.0244369506836 152.3941192626953 64.61038970947266 153.13003540039062 63.4239501953125 153.75137329101562 C62.23750305175781 154.37271118164062 61.278663635253906 154.87945556640625 60.69769287109375 155.2606201171875 C59.3802375793457 156.12533569335938 58.20263671875 156.97140502929688 57.16314697265625 157.78048706054688 C56.1236572265625 158.58956909179688 55.22228240966797 159.3616943359375 54.45728302001953 160.0784912109375 C53.692283630371094 160.7952880859375 53.06365966796875 161.45677185058594 52.569671630859375 162.04461669921875 C52.17999267578125 162.50827026367188 51.12968444824219 163.81387329101562 50.72772979736328 165.28604125976562 C50.325775146484375 166.7582244873047 50.572174072265625 168.39697265625 52.775909423828125 169.52694702148438 C54.055908203125 170.18399047851562 54.7271728515625 169.553955078125 56.6016845703125 170.59361267089844 C57.38958740234375 171.03021240234375 57.4820556640625 173.64996337890625 58.949798583984375 174.13070678710938 C61.258056640625 174.88731384277344 63.19120788574219 174.28250122070312 64.54729461669922 173.48854064941406 C65.90338134765625 172.694580078125 66.68240356445312 171.71145629882812 66.68240356445312 171.71145629882812 C66.68240356445312 171.71145629882812 67.22773742675781 171.0193634033203 68.10479736328125 169.92620849609375 C68.98186492919922 168.8330535888672 70.19065856933594 167.33883666992188 71.51759338378906 165.7345733642578 C72.84452819824219 164.13031005859375 74.28958892822266 162.416015625 75.63919067382812 160.88267517089844 C76.98878479003906 159.34934997558594 78.242919921875 157.9969940185547 79.18798828125 157.11663818359375 C80.19172668457031 156.1815185546875 81.4044418334961 155.0120086669922 82.65890502929688 153.78375244140625 C83.91337585449219 152.55548095703125 85.2095947265625 151.26844787597656 86.3803482055664 150.0983123779297 C87.55110168457031 148.9281768798828 88.59638977050781 147.87493896484375 89.34898376464844 147.11422729492188 C90.1015853881836 146.353515625 90.56149291992188 145.8853302001953 90.56149291992188 145.8853302001953 C90.56149291992188 145.8853302001953 89.52042388916016 145.02523803710938 89.02655792236328 143.8170623779297 C88.53269958496094 142.60888671875 88.58602905273438 141.05262756347656 90.77484130859375 139.6602783203125"></path>
<path fill="#FFA750" fill-opacity="1.0"  filling="0" d="M56.03851318359375 162.56802368164062 C55.33876037597656 163.33529663085938 54.637245178222656 164.23947143554688 54.26959991455078 165.134765625 C53.901954650878906 166.03004455566406 53.86817932128906 166.91644287109375 54.50390625 167.64817810058594 C55.645965576171875 168.9623260498047 57.032623291015625 167.7249755859375 58.174652099609375 169.10594177246094 C58.9398193359375 170.03179931640625 58.47760009765625 171.8465576171875 59.985137939453125 172.26895141601562 C60.738922119140625 172.48016357421875 61.647369384765625 172.1793670654297 62.600791931152344 171.55946350097656 C63.55421447753906 170.93955993652344 64.5526123046875 170.0005340576172 65.48629760742188 168.93527221679688 C66.07971954345703 168.25900268554688 66.9391860961914 167.24932861328125 67.9223861694336 166.0882110595703 C68.90558624267578 164.92710876464844 70.01252746582031 163.6145782470703 71.10088348388672 162.33262634277344 C72.18923950195312 161.05067443847656 73.25901794433594 159.79930114746094 74.16790771484375 158.760498046875 C75.07679748535156 157.72169494628906 75.82479095458984 156.8954620361328 76.26958465576172 156.46380615234375 C77.42371368408203 155.34381103515625 78.30406951904297 154.26824951171875 78.76309204101562 153.35946655273438 C79.22211456298828 152.45065307617188 79.25980377197266 151.7086181640625 78.72859954833984 151.25564575195312 C78.04949188232422 150.67752075195312 77.02442169189453 150.82400512695312 75.86708068847656 151.31768798828125 C74.70974731445312 151.81137084960938 73.4201431274414 152.65225219726562 72.21196746826172 153.4629364013672 C71.60752868652344 153.86827087402344 70.46699523925781 154.45059204101562 69.05307006835938 155.14340209960938 C67.6391372680664 155.8362274169922 65.9518051147461 156.63955688476562 64.25376892089844 157.4869384765625 C62.55572509765625 158.33432006835938 60.84696960449219 159.22573852539062 59.39019775390625 160.09474182128906 C57.93342590332031 160.9637451171875 56.72863006591797 161.81033325195312 56.03850555419922 162.56802368164062"></path>
<path fill="#7E3422" fill-opacity="1.0"  filling="0" d="M215.64736938476562 97.0120849609375 C215.64736938476562 97.0120849609375 215.31813049316406 96.51856994628906 214.51724243164062 96.04141998291016 C213.7163543701172 95.56426239013672 212.44381713867188 95.10346221923828 210.5572509765625 95.16888427734375 C209.35049438476562 95.2108383178711 208.4861297607422 95.57244110107422 207.61021423339844 95.8113784790039 C206.73431396484375 96.05030822753906 205.84683227539062 96.16658020019531 204.59385681152344 95.71786499023438 C202.43492126464844 94.94418334960938 201.85324096679688 96.4588623046875 201.85324096679688 96.4588623046875 L199.5328826904297 98.09868621826172 L197.2125244140625 99.73851013183594 C197.2125244140625 99.73851013183594 196.90603637695312 98.87841796875 197.02354431152344 97.35574340820312 C197.14105224609375 95.83306884765625 197.6825714111328 93.64781188964844 199.37857055664062 90.99749755859375 C201.0105743408203 88.44745635986328 202.24293518066406 86.87981414794922 203.06729125976562 85.9496841430664 C203.8916473388672 85.01954650878906 204.30799865722656 84.7269287109375 204.30799865722656 84.7269287109375 C204.30799865722656 84.7269287109375 204.80735778808594 84.79804229736328 205.6594696044922 85.04703521728516 C206.5115966796875 85.29602813720703 207.71649169921875 85.722900390625 209.12753295898438 86.43443298339844 C210.53858947753906 87.14596557617188 212.15582275390625 88.14215087890625 213.83261108398438 89.52976989746094 C215.24842834472656 90.7016830444336 216.22265625 91.84016418457031 216.84292602539062 92.68567657470703 C217.46319580078125 93.53118133544922 217.72950744628906 94.08370971679688 217.72950744628906 94.08370971679688 C217.72950744628906 94.08370971679688 216.3314666748047 95.33671569824219 215.64736938476562 97.0120849609375"></path>
<path fill="#FFB680" fill-opacity="1.0"  filling="0" d="M204.92239379882812 96.185791015625 C204.92239379882812 96.185791015625 206.0132293701172 94.51751708984375 204.33644104003906 93.62150573730469 C203.49874877929688 93.17279815673828 202.64968872070312 93.46257781982422 202.10658264160156 94.17440032958984 C201.5634765625 94.88622283935547 201.32632446289062 96.02008819580078 201.7124481201172 97.25955200195312 C202.4861297607422 99.73562622070312 204.92239379882812 96.185791015625 204.92239379882812 96.185791015625"></path>
<path fill="#999999" fill-opacity="1.0"  filling="0" d="M225.12222290039062 101.91874694824219 C225.12222290039062 101.91874694824219 224.49716186523438 102.51990509033203 223.49240112304688 103.38983917236328 C222.48764038085938 104.25977325439453 221.1031951904297 105.39848327636719 219.58444213867188 106.47359466552734 C218.06568908691406 107.5487060546875 216.41262817382812 108.56021881103516 214.87062072753906 109.17575073242188 C213.32861328125 109.79129028320312 211.89767456054688 110.01084899902344 210.8231964111328 109.50204467773438 C210.19032287597656 109.20338439941406 209.74656677246094 108.91323852539062 209.4336700439453 108.6700439453125 C209.52186584472656 108.34861755371094 209.48489379882812 107.99736022949219 209.27297973632812 107.71145629882812 L208.85911560058594 107.15252685546875 C208.49359130859375 106.65902709960938 207.7895965576172 106.55520629882812 207.2960968017578 106.92070007324219 L207.03155517578125 107.11697387695312 C206.5380401611328 107.48249816894531 206.43421936035156 108.18649291992188 206.79974365234375 108.67999267578125 L207.21360778808594 109.2389144897461 C207.51937866210938 109.65139770507812 208.0541229248047 109.77226257324219 208.51068115234375 109.59447479248047 C208.955810546875 110.0012435913086 209.57022094726562 110.49759674072266 210.2329864501953 110.83324432373047 C211.53182983398438 111.48924255371094 213.18551635742188 111.33377838134766 214.93545532226562 110.73158264160156 C216.68539428710938 110.12937927246094 218.5315704345703 109.0804443359375 220.2153778076172 107.94951629638672 C221.89920043945312 106.8185806274414 223.42066955566406 105.60564422607422 224.52117919921875 104.67544555664062 C225.62168884277344 103.74524688720703 226.30123901367188 103.0977783203125 226.30123901367188 103.0977783203125 L225.12222290039062 101.91874694824219"></path>
<path fill="#13B6D1" fill-opacity="1.0"  filling="0" d="M208.67420959472656 101.86895751953125 C208.67420959472656 100.99713134765625 209.85325622558594 99.71432495117188 210.2130584716797 99.50951385498047 C210.5714569091797 99.3047103881836 211.6494903564453 99.76548767089844 212.4701385498047 100.22775268554688 C213.03759765625 100.54632568359375 213.8411407470703 101.17778015136719 214.28775024414062 101.54045104980469 C214.49964904785156 101.08677673339844 214.6233673095703 100.79093933105469 214.6233673095703 100.79093933105469 C214.6233673095703 100.79093933105469 214.1234588623047 100.18187713623047 213.30960083007812 99.58667755126953 C212.4957275390625 98.9914779663086 211.367919921875 98.41014099121094 210.11207580566406 98.46559143066406 C209.69964599609375 98.48406982421875 208.73536682128906 99.50807189941406 208.2774200439453 100.29031372070312 C207.69430541992188 101.28445434570312 207.08558654785156 101.9827880859375 207.89341735839844 102.82899475097656 C208.2119903564453 103.16319274902344 211.025146484375 105.61935424804688 211.64381408691406 105.90382385253906 C211.86000061035156 105.66206359863281 212.07191467285156 105.38897705078125 212.2781219482422 105.09881591796875 C211.25982666015625 104.34080505371094 208.67420959472656 102.36531066894531 208.67420959472656 101.86895751953125"></path>
<path fill="#41D6E5" fill-opacity="1.0"  filling="0" d="M212.4701385498047 100.22775268554688 C211.6494903564453 99.76692962646484 210.57289123535156 99.30471801757812 210.2130584716797 99.509521484375 C209.8546600341797 99.71432495117188 208.67420959472656 100.99713134765625 208.67420959472656 101.86896514892578 C208.67420959472656 102.36531829833984 211.25982666015625 104.34081268310547 212.2781219482422 105.10027313232422 C213.13430786132812 103.90274810791016 213.87811279296875 102.41797637939453 214.28775024414062 101.54045867919922 C213.83973693847656 101.17778778076172 213.0361785888672 100.54633331298828 212.4701385498047 100.2277603149414"></path>
<path fill="#13B6D1" fill-opacity="1.0"  filling="0" d="M207.95599365234375 101.51058959960938 C207.95599365234375 101.51058959960938 207.22425842285156 100.67041015625 206.32398986816406 99.66222381591797 C205.42372131347656 98.65404510498047 204.35491943359375 97.47786712646484 203.68080139160156 96.80587768554688 C203.16452026367188 96.29103088378906 201.89981079101562 95.15929412841797 200.76417541503906 94.15626525878906 C199.62852478027344 93.15324401855469 198.6219482421875 92.2789306640625 198.6219482421875 92.2789306640625 L199.28897094726562 91.15110778808594 C199.28897094726562 91.15110778808594 200.3506622314453 92.10720825195312 201.5321807861328 93.156982421875 C202.71368408203125 94.20677185058594 204.0150146484375 95.35023498535156 204.4943084716797 95.7249755859375 C205.1641845703125 96.24906921386719 206.51705932617188 97.07182312011719 207.70248413085938 97.76356506347656 C208.88790893554688 98.45529174804688 209.90585327148438 99.01600646972656 209.90585327148438 99.01600646972656 L209.4109344482422 99.638916015625 L206.5266571044922 98.33047485351562 L208.46942138671875 100.63874816894531 L207.95599365234375 101.51058959960938"></path>
<path fill="#FC2E3D" fill-opacity="1.0"  filling="0" d="M156.15725708007812 107.33174133300781 C153.59786987304688 107.72021484375 151.16371154785156 108.2876205444336 148.8712615966797 108.97491455078125 C146.57879638671875 109.6622085571289 144.42803955078125 110.46939086914062 142.43540954589844 111.33740234375 C140.44277954101562 112.20541381835938 138.60829162597656 113.13426208496094 136.94839477539062 114.06488037109375 C135.2884979248047 114.9955062866211 133.80319213867188 115.92790985107422 132.50892639160156 116.80303192138672 C131.21466064453125 117.67816162109375 130.11141967773438 118.49601745605469 129.21568298339844 119.19754028320312 C128.3199462890625 119.89906311035156 127.63168334960938 120.48426818847656 127.16736602783203 120.89408111572266 C126.70304870605469 121.30389404296875 126.46266174316406 121.538330078125 126.46266174316406 121.538330078125 C126.46266174316406 121.538330078125 126.80620574951172 122.05506896972656 127.36920166015625 122.9421157836914 C127.93218994140625 123.82916259765625 128.71463012695312 125.08650207519531 129.59239196777344 126.56771850585938 C130.4701690673828 128.04893493652344 131.4432830810547 129.7540283203125 132.38763427734375 131.5365447998047 C132.56967163085938 131.5322723388672 133.80905151367188 131.0457000732422 135.5657196044922 130.31822204589844 C137.3223876953125 129.59075927734375 139.59634399414062 128.6223907470703 141.84754943847656 127.65457153320312 C144.0987548828125 126.68675231933594 146.3271942138672 125.7194595336914 147.99282836914062 124.99412536621094 C149.65847778320312 124.26879119873047 150.76132202148438 123.78541564941406 150.76132202148438 123.78541564941406 C150.76132202148438 123.78541564941406 150.15615844726562 124.30399322509766 149.1667022705078 125.13430786132812 C148.17723083496094 125.9646224975586 146.80345153808594 127.1066665649414 145.26622009277344 128.35360717773438 C143.72897338867188 129.6005401611328 142.02825927734375 130.95236206054688 140.3849334716797 132.2022247314453 C138.74160766601562 133.45208740234375 137.1556396484375 134.60000610351562 135.84791564941406 135.43910217285156 C136.05792236328125 136.657958984375 136.36734008789062 137.78073120117188 136.80047607421875 138.91787719726562 C137.23362731933594 140.05502319335938 137.79051208496094 141.20654296875 138.49545288085938 142.48291015625 C139.20040893554688 143.75927734375 140.05340576171875 145.16046142578125 141.07882690429688 146.79696655273438 C142.2032012939453 146.32479858398438 143.38555908203125 145.69728088378906 144.5997772216797 144.95327758789062 C145.81399536132812 144.2092742919922 147.06004333496094 143.34877014160156 148.3118133544922 142.41062927246094 C149.56358337402344 141.4724884033203 150.821044921875 140.45672607421875 152.05807495117188 139.40216064453125 C153.29510498046875 138.34759521484375 154.51170349121094 137.25425720214844 155.6817169189453 136.16098022460938 C156.8517303466797 135.0677032470703 157.97515869140625 133.9744873046875 159.02586364746094 132.92018127441406 C160.07656860351562 131.8658905029297 161.05455017089844 130.85052490234375 161.9336700439453 129.9129180908203 C162.81277465820312 128.97531127929688 163.593017578125 128.115478515625 164.24826049804688 127.37225341796875 C164.5255889892578 127.05656433105469 165.73162841796875 126.30136108398438 166.23936462402344 125.98989868164062 C165.5997314453125 124.20997619628906 165.06790161132812 122.43566131591797 164.6189727783203 120.70952606201172 C164.1700439453125 118.98339080810547 163.8040008544922 117.30543518066406 163.49591064453125 115.71823120117188 C163.18783569335938 114.13102722167969 162.9376983642578 112.63458251953125 162.7205810546875 111.27146911621094 C162.50347900390625 109.90835571289062 162.31939697265625 108.67857360839844 162.1433868408203 107.62469482421875 C161.339111328125 107.53368377685547 160.26710510253906 107.3957290649414 159.1839141845703 107.31288146972656 C158.1007080078125 107.23004150390625 157.00631713867188 107.20230865478516 156.15725708007812 107.33174133300781"></path>
<path fill="#ED8A40" fill-opacity="1.0"  filling="0" d="M179.06781005859375 103.96675109863281 C179.06781005859375 103.96675109863281 178.17039489746094 106.56513977050781 178.17039489746094 108.81936645507812 C178.17039489746094 110.32977294921875 179.22142028808594 112.42613220214844 179.22142028808594 112.42613220214844 C179.22142028808594 112.42613220214844 178.56471252441406 111.88674926757812 177.93821716308594 111.08834838867188 C177.31173706054688 110.28994750976562 176.7154541015625 109.23252868652344 176.8363494873047 108.19644165039062 C177.1435546875 105.55963134765625 179.06781005859375 103.96675109863281 179.06781005859375 103.96675109863281"></path>
<path fill="#ED8A40" fill-opacity="1.0"  filling="0" d="M180.30230712890625 117.56039428710938 C180.30230712890625 117.56039428710938 180.91812133789062 120.2952880859375 182.9177703857422 120.85137939453125 C184.91741943359375 121.407470703125 187.29823303222656 121.63784790039062 187.29823303222656 121.63784790039062 C187.29823303222656 121.63784790039062 186.12596130371094 122.0798110961914 184.7421417236328 122.23341369628906 C183.35830688476562 122.38701629638672 181.762939453125 122.25225830078125 180.9167022705078 121.09881591796875 C179.22567749023438 118.79202270507812 180.30230712890625 117.56039428710938 180.30230712890625 117.56039428710938"></path>
<path fill="#ED8A40" fill-opacity="1.0"  filling="0" d="M166.23936462402344 118.84320068359375 C165.6093292236328 118.97259521484375 165.640625 119.79183959960938 166.28773498535156 119.67660522460938 C167.21786499023438 119.51025390625 167.0486297607422 118.67538452148438 166.23936462402344 118.84320068359375"></path></svg>