<svg xmlns="http://www.w3.org/2000/svg" viewBox="0.0 0.0 512.0 512.0" height="512.0px" width="512.0px"><path fill="#edb47b" fill-opacity="1.0"  filling="0" d="M261.8399658203125 255.90399169921875 C239.31201171875 273.9520263671875 207.1839599609375 268.7039794921875 191.31201171875 242.592041015625 C183.760009765625 230.176025390625 181.199951171875 215.583984375 182.864013671875 201.50396728515625 C186.9599609375 201.63201904296875 191.0560302734375 201.760009765625 195.02398681640625 202.0159912109375 C193.48797607421875 213.02398681640625 195.407958984375 224.6719970703125 201.2960205078125 234.4000244140625 C213.3280029296875 254.367919921875 237.39202880859375 258.84796142578125 254.927978515625 244.6400146484375 C257.7440185546875 242.33599853515625 261.45599365234375 243.10400390625 263.3759765625 246.176025390625 C265.2960205078125 249.3759765625 264.5279541015625 253.72796630859375 261.8399658203125 255.90399169921875 Z"></path>
<path fill="#ffffff" fill-opacity="1.0"  filling="0" d="M189.135986328125 198.68795776367188 C189.0079345703125 199.83999633789062 189.7760009765625 200.86398315429688 191.0560302734375 200.99200439453125 L198.9920654296875 201.88796997070312 C200.14398193359375 202.0159912109375 201.16796875 201.1199951171875 201.2960205078125 199.96795654296875 L201.2960205078125 199.96795654296875 C201.4239501953125 198.81600952148438 200.5279541015625 197.79202270507812 199.3759765625 197.66400146484375 L191.44000244140625 196.7679443359375 C190.2879638671875 196.6400146484375 189.26397705078125 197.5360107421875 189.135986328125 198.68795776367188 L189.135986328125 198.68795776367188 Z"></path>
<path fill="#ffffff" fill-opacity="1.0"  filling="0" d="M199.2479248046875 195.23202514648438 L198.9920654296875 198.55999755859375 C200.4000244140625 198.30398559570312 201.4239501953125 198.30398559570312 201.2960205078125 199.96795654296875 C200.656005859375 205.21600341796875 197.7120361328125 210.08001708984375 192.84796142578125 210.97601318359375 C192.592041015625 211.10397338867188 192.2080078125 211.10397338867188 191.9520263671875 211.10397338867188 C190.6719970703125 211.48797607421875 189.26397705078125 211.74395751953125 187.72796630859375 211.48797607421875 C182.73602294921875 210.97601318359375 179.02398681640625 206.75201416015625 179.02398681640625 201.88796997070312 C179.02398681640625 201.760009765625 179.02398681640625 201.50396728515625 179.02398681640625 201.37600708007812 L179.02398681640625 200.86398315429688 C179.15203857421875 200.86398315429688 179.15203857421875 200.86398315429688 179.15203857421875 200.86398315429688 L179.407958984375 198.0479736328125 C179.407958984375 198.0479736328125 179.407958984375 198.0479736328125 179.407958984375 198.0479736328125 L179.91998291015625 193.1839599609375 C180.0479736328125 191.7760009765625 181.3280029296875 190.8800048828125 182.60797119140625 191.00796508789062 C183.887939453125 191.13601684570312 184.9119873046875 192.2879638671875 184.783935546875 193.56796264648438 C184.783935546875 193.56796264648438 184.783935546875 193.56796264648438 184.783935546875 193.56796264648438 C184.9119873046875 192.2879638671875 186.1920166015625 191.39202880859375 187.4720458984375 191.51998901367188 C188.75201416015625 191.64794921875 189.64794921875 192.79998779296875 189.64794921875 193.9520263671875 C189.64794921875 193.9520263671875 189.64794921875 193.9520263671875 189.64794921875 193.9520263671875 L189.64794921875 194.20794677734375 C189.64794921875 194.20794677734375 189.64794921875 194.20794677734375 189.64794921875 194.20794677734375 C189.7760009765625 192.927978515625 190.927978515625 191.90399169921875 192.33599853515625 192.03204345703125 C193.615966796875 192.15997314453125 194.6400146484375 193.44000244140625 194.51202392578125 194.72000122070312 C194.6400146484375 193.44000244140625 195.7919921875 192.416015625 197.199951171875 192.54397583007812 C198.47998046875 192.79998779296875 199.3759765625 193.9520263671875 199.2479248046875 195.23202514648438 Z"></path>
<path fill="#edb47b" fill-opacity="1.0"  filling="0" d="M258.38397216796875 344.864013671875 C243.91998291015625 347.93603515625 228.9439697265625 358.9439697265625 220.4959716796875 374.0479736328125 C214.73602294921875 384.2879638671875 215.887939453125 400.5439453125 216.783935546875 408.9920654296875 C211.91998291015625 408.9920654296875 209.3599853515625 408.60797119140625 204.4959716796875 408.09600830078125 C202.9599609375 395.16796875 202.1920166015625 377.63201904296875 211.7919921875 363.03997802734375 C221.90399169921875 347.67999267578125 235.4720458984375 336.1600341796875 250.5760498046875 332.3199462890625 C250.5760498046875 332.3199462890625 260.176025390625 329.63201904296875 262.09600830078125 336.2879638671875 C264.0159912109375 343.3280029296875 258.38397216796875 344.864013671875 258.38397216796875 344.864013671875 Z"></path>
<path fill="#1d2612" fill-opacity="1.0"  filling="0" d="M262.09600830078125 336.2879638671875 C260.176025390625 329.63201904296875 250.5760498046875 332.3199462890625 250.5760498046875 332.3199462890625 C245.199951171875 333.5999755859375 240.0799560546875 336.031982421875 235.21600341796875 339.10400390625 C238.1600341796875 342.8160400390625 240.719970703125 346.9119873046875 243.02398681640625 351.0079345703125 C247.887939453125 348.06396484375 253.135986328125 345.887939453125 258.38397216796875 344.864013671875 C258.38397216796875 344.864013671875 264.0159912109375 343.3280029296875 262.09600830078125 336.2879638671875 Z"></path>
<path fill="#122947" fill-opacity="1.0"  filling="0" d="M186.5760498046875 414.367919921875 C186.5760498046875 418.97601318359375 190.1600341796875 422.68798828125 194.7679443359375 422.68798828125 L212.4320068359375 423.199951171875 C216.9119873046875 423.199951171875 220.62396240234375 419.4879150390625 220.62396240234375 414.8800048828125 L220.62396240234375 414.8800048828125 C220.75201416015625 410.4000244140625 217.03997802734375 406.68798828125 212.4320068359375 406.68798828125 L194.89599609375 406.176025390625 C190.2879638671875 406.176025390625 186.5760498046875 409.887939453125 186.5760498046875 414.367919921875 L186.5760498046875 414.367919921875 Z"></path>
<path fill="#4887da" fill-opacity="1.0"  filling="0" d="M252.239990234375 328.9920654296875 C252.239990234375 340.1279296875 259.02398681640625 349.21600341796875 267.21600341796875 349.21600341796875 L286.6719970703125 349.21600341796875 C294.9920654296875 349.21600341796875 301.64794921875 340.1279296875 301.64794921875 328.9920654296875 L310.2239990234375 247.7120361328125 C310.2239990234375 236.5760498046875 301.135986328125 231.199951171875 290.0 231.199951171875 L263.887939453125 231.199951171875 C252.75201416015625 231.199951171875 243.6639404296875 240.1600341796875 243.6639404296875 251.2960205078125 L252.239990234375 328.9920654296875 Z"></path>
<path fill="#384a23" fill-opacity="1.0"  filling="0" d="M251.08795166015625 318.62396240234375 L252.239990234375 328.9920654296875 C252.239990234375 340.1279296875 259.02398681640625 349.21600341796875 267.21600341796875 349.21600341796875 L286.6719970703125 349.21600341796875 C294.9920654296875 349.21600341796875 301.64794921875 340.1279296875 301.64794921875 328.9920654296875 L302.79998779296875 318.62396240234375 L251.08795166015625 318.62396240234375 Z"></path>
<path fill="#edb47b" fill-opacity="1.0"  filling="0" d="M268.239990234375 233.1199951171875 C268.239990234375 237.9840087890625 272.20794677734375 241.823974609375 276.9439697265625 241.823974609375 L276.9439697265625 241.823974609375 C281.8079833984375 241.823974609375 285.64794921875 237.9840087890625 285.64794921875 233.1199951171875 L285.64794921875 208.03204345703125 C285.64794921875 203.16796875 281.8079833984375 199.32794189453125 276.9439697265625 199.32794189453125 L276.9439697265625 199.32794189453125 C272.20794677734375 199.32794189453125 268.239990234375 203.16796875 268.239990234375 208.03204345703125 L268.239990234375 233.1199951171875 Z"></path>
<path fill="#ffc489" fill-opacity="1.0"  filling="0" d="M220.62396240234375 189.21600341796875 C220.62396240234375 209.9520263671875 237.52001953125 226.719970703125 258.1279296875 226.719970703125 L258.1279296875 226.719970703125 C278.864013671875 226.719970703125 295.63201904296875 209.9520263671875 295.63201904296875 189.21600341796875 L295.63201904296875 160.54397583007812 C295.63201904296875 139.8079833984375 278.864013671875 123.03997802734375 258.1279296875 123.03997802734375 L258.1279296875 123.03997802734375 C237.52001953125 123.03997802734375 220.62396240234375 139.8079833984375 220.62396240234375 160.54397583007812 L220.62396240234375 189.21600341796875 Z"></path>
<path fill="#523416" fill-opacity="1.0"  filling="0" d="M260.303955078125 174.11203002929688 C260.303955078125 176.15997314453125 261.96795654296875 177.823974609375 264.0159912109375 177.823974609375 L264.0159912109375 177.823974609375 C266.1920166015625 177.823974609375 267.85601806640625 176.15997314453125 267.85601806640625 174.11203002929688 L267.85601806640625 169.24798583984375 C267.85601806640625 167.20001220703125 266.1920166015625 165.5360107421875 264.0159912109375 165.5360107421875 L264.0159912109375 165.5360107421875 C261.96795654296875 165.5360107421875 260.303955078125 167.20001220703125 260.303955078125 169.24798583984375 L260.303955078125 174.11203002929688 Z"></path>
<path fill="#523416" fill-opacity="1.0"  filling="0" d="M227.7919921875 174.11203002929688 C227.7919921875 176.15997314453125 229.45599365234375 177.823974609375 231.50396728515625 177.823974609375 L231.50396728515625 177.823974609375 C233.552001953125 177.823974609375 235.343994140625 176.15997314453125 235.343994140625 174.11203002929688 L235.343994140625 169.24798583984375 C235.343994140625 167.20001220703125 233.552001953125 165.5360107421875 231.50396728515625 165.5360107421875 L231.50396728515625 165.5360107421875 C229.45599365234375 165.5360107421875 227.7919921875 167.20001220703125 227.7919921875 169.24798583984375 L227.7919921875 174.11203002929688 Z"></path>
<path fill="#ed997b" fill-opacity="1.0"  filling="0" d="M241.2320556640625 192.67202758789062 C241.2320556640625 194.72000122070312 242.89599609375 196.38397216796875 244.9439697265625 196.38397216796875 L244.9439697265625 196.38397216796875 C246.9920654296875 196.38397216796875 248.656005859375 194.72000122070312 248.656005859375 192.67202758789062 L248.656005859375 187.2960205078125 C248.656005859375 185.24798583984375 246.9920654296875 183.583984375 244.9439697265625 183.583984375 L244.9439697265625 183.583984375 C242.89599609375 183.583984375 241.2320556640625 185.24798583984375 241.2320556640625 187.2960205078125 L241.2320556640625 192.67202758789062 Z"></path>
<path fill="#523416" fill-opacity="1.0"  filling="0" d="M254.031982421875 216.09600830078125 C255.9520263671875 216.35205078125 255.9520263671875 216.35205078125 257.7440185546875 215.7120361328125 C262.60797119140625 214.176025390625 262.60797119140625 214.176025390625 263.3759765625 208.927978515625 C263.3759765625 208.2879638671875 263.3759765625 208.2879638671875 264.0159912109375 208.416015625 C264.656005859375 208.416015625 264.656005859375 208.416015625 264.656005859375 209.0560302734375 C263.760009765625 215.072021484375 263.760009765625 215.072021484375 258.1279296875 216.9920654296875 C255.9520263671875 217.63201904296875 255.9520263671875 217.63201904296875 253.7760009765625 217.3759765625 C253.135986328125 217.2479248046875 253.135986328125 217.2479248046875 253.26397705078125 216.60797119140625 C253.39202880859375 215.96795654296875 253.39202880859375 215.96795654296875 254.031982421875 216.09600830078125 Z"></path>
<path fill="#523416" fill-opacity="1.0"  filling="0" d="M285.64794921875 177.69601440429688 C285.64794921875 179.23202514648438 286.927978515625 180.38397216796875 288.4639892578125 180.38397216796875 L288.4639892578125 180.38397216796875 C290.0 180.38397216796875 291.1519775390625 179.23202514648438 291.1519775390625 177.69601440429688 L291.1519775390625 153.37600708007812 C291.1519775390625 151.83999633789062 290.0 150.68795776367188 288.4639892578125 150.68795776367188 L288.4639892578125 150.68795776367188 C286.927978515625 150.68795776367188 285.64794921875 151.83999633789062 285.64794921875 153.37600708007812 L285.64794921875 177.69601440429688 Z"></path>
<path fill="#523416" fill-opacity="1.0"  filling="0" d="M299.72796630859375 176.79998779296875 C299.72796630859375 176.79998779296875 288.97601318359375 177.9520263671875 288.20794677734375 166.176025390625 C287.44000244140625 154.39999389648438 265.16796875 141.21600341796875 242.7679443359375 150.68795776367188 C220.239990234375 160.15997314453125 205.0079345703125 149.407958984375 207.5679931640625 128.416015625 C207.5679931640625 128.416015625 212.8160400390625 135.45599365234375 223.5679931640625 127.7760009765625 C231.63201904296875 121.88796997070312 254.927978515625 106.78399658203125 279.50396728515625 120.47998046875 C303.823974609375 133.91998291015625 303.9520263671875 154.5279541015625 299.72796630859375 176.79998779296875 Z"></path>
<path fill="#ffc489" fill-opacity="1.0"  filling="0" d="M291.1519775390625 181.02398681640625 C291.1519775390625 184.47998046875 294.09600830078125 187.2960205078125 297.552001953125 187.2960205078125 L297.552001953125 187.2960205078125 C301.0079345703125 187.2960205078125 303.823974609375 184.47998046875 303.823974609375 181.02398681640625 L303.823974609375 172.44796752929688 C303.823974609375 168.99200439453125 301.0079345703125 166.176025390625 297.552001953125 166.176025390625 L297.552001953125 166.176025390625 C293.96795654296875 166.176025390625 291.1519775390625 168.99200439453125 291.1519775390625 172.44796752929688 L291.1519775390625 181.02398681640625 Z"></path>
<path fill="#87370f" fill-opacity="1.0"  filling="0" d="M204.6240234375 219.552001953125 C204.6240234375 223.52001953125 201.4239501953125 226.719970703125 197.3280029296875 226.719970703125 L182.864013671875 226.719970703125 C178.89599609375 226.719970703125 175.696044921875 223.52001953125 175.696044921875 219.552001953125 L175.696044921875 219.552001953125 C175.696044921875 215.4560546875 178.89599609375 212.2559814453125 182.864013671875 212.2559814453125 L197.3280029296875 212.2559814453125 C201.4239501953125 212.2559814453125 204.6240234375 215.4560546875 204.6240234375 219.552001953125 L204.6240234375 219.552001953125 Z"></path>
<path fill="#b04813" fill-opacity="1.0"  filling="0" d="M210.51202392578125 198.0479736328125 C210.51202392578125 209.9520263671875 200.9119873046875 219.552001953125 189.135986328125 219.552001953125 L189.135986328125 219.552001953125 C177.2320556640625 219.552001953125 167.63201904296875 209.9520263671875 167.63201904296875 198.0479736328125 L167.63201904296875 183.96795654296875 C167.63201904296875 172.06396484375 177.2320556640625 162.4639892578125 189.135986328125 162.4639892578125 L189.135986328125 162.4639892578125 C200.9119873046875 162.4639892578125 210.51202392578125 172.06396484375 210.51202392578125 183.96795654296875 L210.51202392578125 198.0479736328125 Z"></path>
<path fill="#ffc489" fill-opacity="1.0"  filling="0" d="M305.87200927734375 247.199951171875 C290.38397216796875 271.52001953125 258.2559814453125 277.02398681640625 234.83203125 257.44000244140625 C223.696044921875 248.2239990234375 216.5279541015625 235.16796875 213.583984375 221.343994140625 C217.4239501953125 220.06396484375 221.39202880859375 218.9119873046875 225.2320556640625 217.887939453125 C227.280029296875 228.7679443359375 232.9119873046875 239.135986328125 241.615966796875 246.55999755859375 C259.5360107421875 261.407958984375 283.72796630859375 257.9520263671875 295.760009765625 238.75201416015625 C297.552001953125 235.67999267578125 301.39202880859375 235.16796875 304.20794677734375 237.4720458984375 C307.02398681640625 239.7760009765625 307.7919921875 244.1279296875 305.87200927734375 247.199951171875 Z"></path>
<path fill="#b04813" fill-opacity="1.0"  filling="0" d="M235.4720458984375 223.39202880859375 C236.62396240234375 227.2320556640625 234.32000732421875 231.3280029296875 230.47998046875 232.35205078125 L216.5279541015625 236.32000732421875 C212.68798828125 237.343994140625 208.719970703125 235.16796875 207.5679931640625 231.3280029296875 L207.5679931640625 231.3280029296875 C206.5439453125 227.48797607421875 208.719970703125 223.39202880859375 212.55999755859375 222.367919921875 L226.51202392578125 218.4000244140625 C230.35205078125 217.2479248046875 234.447998046875 219.552001953125 235.4720458984375 223.39202880859375 L235.4720458984375 223.39202880859375 Z"></path>
<path fill="#c25620" fill-opacity="1.0"  filling="0" d="M239.31201171875 195.23202514648438 C240.4639892578125 199.32794189453125 238.031982421875 203.67999267578125 233.93603515625 204.83203125 L233.2960205078125 204.95999145507812 C229.199951171875 206.11203002929688 224.97601318359375 203.67999267578125 223.823974609375 199.583984375 L223.823974609375 199.583984375 C222.5439453125 195.48797607421875 224.97601318359375 191.13601684570312 229.072021484375 189.98397827148438 L229.7120361328125 189.85601806640625 C233.8079833984375 188.7039794921875 238.1600341796875 191.00796508789062 239.31201171875 195.23202514648438 L239.31201171875 195.23202514648438 Z"></path>
<path fill="#de5b1b" fill-opacity="1.0"  filling="0" d="M235.343994140625 201.24798583984375 C238.5439453125 212.51202392578125 231.887939453125 224.416015625 220.4959716796875 227.615966796875 L220.4959716796875 227.615966796875 C209.10400390625 230.8160400390625 197.3280029296875 224.2879638671875 194.1279296875 212.89599609375 L190.2879638671875 199.20001220703125 C186.9599609375 187.8079833984375 193.615966796875 176.03204345703125 205.0079345703125 172.83203125 L205.0079345703125 172.83203125 C216.4000244140625 169.50396728515625 228.176025390625 176.15997314453125 231.50396728515625 187.55203247070312 L235.343994140625 201.24798583984375 Z"></path>
<path fill="#ffc489" fill-opacity="1.0"  filling="0" d="M298.5760498046875 334.75201416015625 C297.16796875 349.343994140625 303.0560302734375 367.0079345703125 314.83203125 379.67999267578125 C322.7679443359375 388.2559814453125 338.6400146484375 392.09600830078125 346.9599609375 393.887939453125 C345.4239501953125 398.4959716796875 344.27203369140625 400.79998779296875 342.35205078125 405.280029296875 C329.552001953125 402.719970703125 312.656005859375 398.239990234375 301.64794921875 384.6719970703125 C290.1279296875 370.33599853515625 283.343994140625 353.823974609375 284.239990234375 338.33599853515625 C284.239990234375 338.33599853515625 284.62396240234375 328.2239990234375 291.5360107421875 328.60797119140625 C298.9599609375 328.864013671875 298.5760498046875 334.75201416015625 298.5760498046875 334.75201416015625 Z"></path>
<path fill="#536e34" fill-opacity="1.0"  filling="0" d="M300.62396240234375 354.33599853515625 C298.7039794921875 347.67999267578125 297.93603515625 340.89599609375 298.5760498046875 334.75201416015625 C298.5760498046875 334.75201416015625 298.9599609375 328.864013671875 291.5360107421875 328.47998046875 C284.62396240234375 328.2239990234375 284.239990234375 338.33599853515625 284.239990234375 338.33599853515625 C283.72796630859375 346.5279541015625 285.39202880859375 354.84796142578125 288.84796142578125 363.16796875 C292.55999755859375 360.09600830078125 296.5279541015625 357.1519775390625 300.62396240234375 354.33599853515625 Z"></path>
<path fill="#122947" fill-opacity="1.0"  filling="0" d="M342.864013671875 424.35205078125 C347.21600341796875 425.760009765625 351.823974609375 423.3280029296875 353.2320556640625 418.97601318359375 L359.1199951171875 402.33599853515625 C360.5279541015625 398.112060546875 358.09600830078125 393.3759765625 353.7440185546875 391.96795654296875 L353.7440185546875 391.96795654296875 C349.39202880859375 390.55999755859375 344.783935546875 392.9920654296875 343.3759765625 397.21600341796875 L337.615966796875 413.85601806640625 C336.20794677734375 418.20794677734375 338.51202392578125 422.9439697265625 342.864013671875 424.35205078125 L342.864013671875 424.35205078125 Z"></path></svg>