<svg xmlns="http://www.w3.org/2000/svg" viewBox="0.0 0.0 256.0 256.0" height="256.0px" width="256.0px"><path fill="#edb47b" fill-opacity="1.0"  filling="0" d="M130.91998291015625 127.95199584960938 C129.66842651367188 128.9546661376953 128.3576202392578 129.81353759765625 127.00527954101562 130.53025817871094 C125.65293884277344 131.2469940185547 124.25907897949219 131.82159423828125 122.84142303466797 132.25572204589844 C121.42376708984375 132.68984985351562 119.98231506347656 132.9835205078125 118.5348129272461 133.1383819580078 C117.0873031616211 133.29324340820312 115.63374328613281 133.30931091308594 114.19185638427734 133.18824768066406 C112.74996948242188 133.0671844482422 111.31975555419922 132.80899047851562 109.91895294189453 132.4153289794922 C108.51815032958984 132.02166748046875 107.14675903320312 131.49253845214844 105.82251739501953 130.8296356201172 C104.4982681274414 130.16671752929688 103.2211685180664 129.37001037597656 102.00894165039062 128.44117736816406 C100.79672241210938 127.51234436035156 99.64936828613281 126.45137786865234 98.58464050292969 125.25996398925781 C97.51990509033203 124.06855010986328 96.53778076171875 122.74667358398438 95.656005859375 121.2960205078125 C94.90080261230469 120.0544204711914 94.24544525146484 118.76929473876953 93.68685150146484 117.45140838623047 C93.12825775146484 116.13351440429688 92.66642761230469 114.7828598022461 92.29830169677734 113.41018676757812 C91.93016815185547 112.03751373291016 91.6557388305664 110.642822265625 91.471923828125 109.23686218261719 C91.28811645507812 107.83090209960938 91.19493103027344 106.41368865966797 91.18930053710938 104.99595642089844 C91.18367004394531 103.5782241821289 91.26559448242188 102.15998840332031 91.4320068359375 100.75198364257812 C92.45599365234375 100.78399658203125 93.47999572753906 100.81600189208984 94.49600219726562 100.85600280761719 C95.51200103759766 100.89600372314453 96.52000427246094 100.94400024414062 97.51199340820312 101.00799560546875 C97.31999206542969 102.38399505615234 97.23599243164062 103.77999877929688 97.26399230957031 105.17599487304688 C97.2919921875 106.5719985961914 97.43199157714844 107.9679946899414 97.68798828125 109.34400177001953 C97.94398498535156 110.72000122070312 98.31599426269531 112.07600402832031 98.80799102783203 113.39200592041016 C99.29999542236328 114.7080078125 99.91200256347656 115.9840087890625 100.64801025390625 117.20001220703125 C101.50743865966797 118.62628936767578 102.48963928222656 119.89453125 103.56756591796875 121.00006103515625 C104.64549255371094 122.10559844970703 105.81912994384766 123.04842376708984 107.06143951416016 123.82389068603516 C108.30374908447266 124.59934997558594 109.6147232055664 125.20744323730469 110.9673080444336 125.64350128173828 C112.31989288330078 126.07955932617188 113.71408081054688 126.34358215332031 115.1228256225586 126.430908203125 C116.53157043457031 126.51823425292969 117.95487213134766 126.42886352539062 119.36566925048828 126.15812683105469 C120.7764663696289 125.88739013671875 122.17475891113281 125.43528747558594 123.53350067138672 124.79714965820312 C124.89224243164062 124.15901947021484 126.21142578125 123.3348617553711 127.4639892578125 122.32000732421875 C128.87200927734375 121.16799926757812 130.72799682617188 121.552001953125 131.68798828125 123.0880126953125 C132.16799926757812 123.88800048828125 132.31199645996094 124.83199310302734 132.16799926757812 125.71199035644531 C132.02398681640625 126.59198760986328 131.59197998046875 127.40798950195312 130.91998291015625 127.95199584960938"></path>
<path fill="#ffffff" fill-opacity="1.0"  filling="0" d="M94.5679931640625 99.34397888183594 C94.50396728515625 99.91999816894531 94.88800048828125 100.43199157714844 95.52801513671875 100.49600219726562 L99.49603271484375 100.94398498535156 C100.07199096679688 101.00799560546875 100.583984375 100.55999755859375 100.64801025390625 99.98397827148438 C100.71197509765625 99.40800476074219 100.26397705078125 98.89601135253906 99.68798828125 98.83200073242188 L95.72000122070312 98.38397216796875 C95.14398193359375 98.32000732421875 94.63198852539062 98.76800537109375 94.5679931640625 99.34397888183594"></path>
<path fill="#ffffff" fill-opacity="1.0"  filling="0" d="M99.62396240234375 97.61601257324219 L99.49603271484375 99.27999877929688 C100.20001220703125 99.15199279785156 100.71197509765625 99.15199279785156 100.64801025390625 99.98397827148438 C100.48800659179688 101.29598999023438 100.04000854492188 102.55999755859375 99.3280029296875 103.552001953125 C98.61600494384766 104.54400634765625 97.63999938964844 105.26400756835938 96.42398071289062 105.48800659179688 C96.2960205078125 105.55198669433594 96.10400390625 105.55198669433594 95.97601318359375 105.55198669433594 C95.33599853515625 105.74398803710938 94.63198852539062 105.87197875976562 93.86398315429688 105.74398803710938 C92.61599731445312 105.61599731445312 91.52799987792969 105.02400207519531 90.75199890136719 104.16000366210938 C89.97599792480469 103.29600524902344 89.51199340820312 102.15999603271484 89.51199340820312 100.94398498535156 C89.51199340820312 100.8800048828125 89.51199340820312 100.75198364257812 89.51199340820312 100.68800354003906 L89.51199340820312 100.43199157714844 L89.7039794921875 99.02398681640625 L89.95999145507812 96.59197998046875 C90.02398681640625 95.88800048828125 90.66400146484375 95.44000244140625 91.30398559570312 95.50398254394531 C91.9439697265625 95.56800842285156 92.45599365234375 96.14398193359375 92.3919677734375 96.78398132324219 C92.45599365234375 96.14398193359375 93.09600830078125 95.69601440429688 93.73602294921875 95.75999450683594 C94.37600708007812 95.823974609375 94.823974609375 96.39999389648438 94.823974609375 96.97601318359375 L94.823974609375 97.10397338867188 C94.88800048828125 96.4639892578125 95.4639892578125 95.95199584960938 96.16799926757812 96.01602172851562 C96.8079833984375 96.07998657226562 97.32000732421875 96.72000122070312 97.25601196289062 97.36000061035156 C97.32000732421875 96.72000122070312 97.89599609375 96.2080078125 98.5999755859375 96.27198791503906 C99.239990234375 96.39999389648438 99.68798828125 96.97601318359375 99.62396240234375 97.61601257324219"></path>
<path fill="#edb47b" fill-opacity="1.0"  filling="0" d="M129.19198608398438 172.4320068359375 C127.74559020996094 172.7392120361328 126.28894805908203 173.2051239013672 124.85022735595703 173.8144073486328 C123.41150665283203 174.42369079589844 121.99070739746094 175.17633056640625 120.6159896850586 176.0569610595703 C119.24127197265625 176.93760681152344 117.91262817382812 177.9462432861328 116.6582260131836 179.06752014160156 C115.40382385253906 180.1887969970703 114.22366333007812 181.42271423339844 113.14590454101562 182.75390625 C112.06814575195312 184.08511352539062 111.09278869628906 185.51358032226562 110.24798583984375 187.02398681640625 C109.52799224853516 188.30398559570312 109.02399444580078 189.77198791503906 108.67999267578125 191.31997680664062 C108.33599090576172 192.86798095703125 108.15199279785156 194.49598693847656 108.07199096679688 196.0959930419922 C107.99198913574219 197.69598388671875 108.01597595214844 199.2679901123047 108.08797454833984 200.70399475097656 C108.15997314453125 202.1400146484375 108.27996826171875 203.4400177001953 108.3919677734375 204.49603271484375 C107.17597961425781 204.49603271484375 106.24798583984375 204.44802856445312 105.31999206542969 204.36801147460938 C104.3919906616211 204.28799438476562 103.4639892578125 204.17599487304688 102.24798583984375 204.04800415039062 C102.0943832397461 202.7552032470703 101.95614624023438 201.3702392578125 101.87166595458984 199.92332458496094 C101.78718566894531 198.47640991210938 101.7564697265625 196.96754455566406 101.81790924072266 195.42694091796875 C101.87934875488281 193.88633728027344 102.03295135498047 192.31398010253906 102.3171157836914 190.74009704589844 C102.60127258300781 189.16619873046875 103.01599884033203 187.59078979492188 103.59967803955078 186.04403686523438 C104.18336486816406 184.49728393554688 104.93600463867188 182.97918701171875 105.89599609375 181.51998901367188 C106.73866271972656 180.239990234375 107.62933349609375 179.01332092285156 108.56355285644531 177.848876953125 C109.4977798461914 176.68443298339844 110.47555541992188 175.58221435546875 111.49244689941406 174.5511016845703 C112.50933837890625 173.51998901367188 113.56533813476562 172.55999755859375 114.65601348876953 171.67999267578125 C115.7466812133789 170.79998779296875 116.87201690673828 170.0 118.02757263183594 169.28887939453125 C119.1831283569336 168.5777587890625 120.36891174316406 167.95553588867188 121.5804672241211 167.43109130859375 C122.79202270507812 166.90664672851562 124.02935791015625 166.47998046875 125.28802490234375 166.15997314453125 C125.28802490234375 166.15997314453125 126.48802185058594 165.823974609375 127.80801391601562 165.90399169921875 C129.12802124023438 165.98399353027344 130.56800842285156 166.47999572753906 131.04800415039062 168.14398193359375 C131.5279998779297 169.90399169921875 131.06399536132812 170.9759979248047 130.47999572753906 171.60800170898438 C129.89599609375 172.24000549316406 129.19198608398438 172.4320068359375 129.19198608398438 172.4320068359375"></path>
<path fill="#1d2612" fill-opacity="1.0"  filling="0" d="M131.04800415039062 168.14398193359375 C130.56800842285156 166.47999572753906 129.12802124023438 165.98399353027344 127.80801391601562 165.90399169921875 C126.48802185058594 165.823974609375 125.28802490234375 166.15997314453125 125.28802490234375 166.15997314453125 C123.94400024414062 166.47998046875 122.63198852539062 166.94398498535156 121.35198974609375 167.51998901367188 C120.07198333740234 168.0959930419922 118.82398986816406 168.78399658203125 117.60800170898438 169.552001953125 C118.34400939941406 170.48001098632812 119.0320053100586 171.4560089111328 119.68000030517578 172.45599365234375 C120.32799530029297 173.45599365234375 120.93598937988281 174.47998046875 121.51199340820312 175.50396728515625 C122.72798156738281 174.76797485351562 123.99198150634766 174.1279754638672 125.27998352050781 173.60797119140625 C126.56798553466797 173.08798217773438 127.87998962402344 172.68798828125 129.19198608398438 172.4320068359375 C129.19198608398438 172.4320068359375 129.89599609375 172.24000549316406 130.47999572753906 171.60800170898438 C131.06399536132812 170.9759979248047 131.5279998779297 169.90399169921875 131.04800415039062 168.14398193359375"></path>
<path fill="#122947" fill-opacity="1.0"  filling="0" d="M93.28802490234375 207.1839599609375 C93.28802490234375 208.3359832763672 93.73602294921875 209.37599182128906 94.47201538085938 210.12799072265625 C95.2080078125 210.8800048828125 96.23199462890625 211.343994140625 97.38397216796875 211.343994140625 L101.79998779296875 211.47198486328125 L106.21600341796875 211.5999755859375 C107.33599853515625 211.5999755859375 108.35999298095703 211.13597106933594 109.10398864746094 210.38397216796875 C109.84798431396484 209.63197326660156 110.31198120117188 208.59197998046875 110.31198120117188 207.44000244140625 C110.343994140625 206.32000732421875 109.89599609375 205.29600524902344 109.15199279785156 204.552001953125 C108.40799713134766 203.80799865722656 107.36799621582031 203.343994140625 106.21600341796875 203.343994140625 L101.83200073242188 203.21600341796875 L97.447998046875 203.0880126953125 C96.29598999023438 203.0880126953125 95.25599670410156 203.552001953125 94.5040054321289 204.29598999023438 C93.75201416015625 205.03997802734375 93.28802490234375 206.06396484375 93.28802490234375 207.1839599609375"></path>
<path fill="#4887da" fill-opacity="1.0"  filling="0" d="M126.1199951171875 164.49603271484375 C126.1199951171875 166.3520050048828 126.49688720703125 168.09422302246094 127.15110778808594 169.59228515625 C127.80532836914062 171.09036254882812 128.73687744140625 172.3442840576172 129.84622192382812 173.22369384765625 C130.95555114746094 174.1031036376953 132.24267578125 174.60800170898438 133.60800170898438 174.60800170898438 L138.4720001220703 174.60800170898438 L143.33599853515625 174.60800170898438 C144.72267150878906 174.60800170898438 146.01690673828125 174.1031036376953 147.12623596191406 173.22369384765625 C148.23556518554688 172.3442840576172 149.16000366210938 171.09036254882812 149.80709838867188 169.59228515625 C150.45420837402344 168.09422302246094 150.823974609375 166.35202026367188 150.823974609375 164.49603271484375 L151.3004150390625 159.98048400878906 L151.77687072753906 155.4649200439453 L152.25332641601562 150.94937133789062 L152.72976684570312 146.43380737304688 L153.20620727539062 141.91824340820312 L153.6826629638672 137.40269470214844 L154.1591033935547 132.8871307373047 L154.63555908203125 128.37158203125 L155.11199951171875 123.85601806640625 C155.11199951171875 122.0000228881836 154.60711669921875 120.46401977539062 153.7277069091797 119.24089813232422 C152.84829711914062 118.01777648925781 151.5943603515625 117.10755157470703 150.09629821777344 116.50309753417969 C148.5982208251953 115.89865112304688 146.85598754882812 115.5999755859375 145.0 115.5999755859375 L140.6479949951172 115.5999755859375 L136.29598999023438 115.5999755859375 L131.9439697265625 115.5999755859375 C130.55197143554688 115.5999755859375 129.22398376464844 115.87997436523438 128.01498413085938 116.38697814941406 C126.80598449707031 116.89398193359375 125.71598815917969 117.62799072265625 124.79998779296875 118.53599548339844 C123.88398742675781 119.44400024414062 123.14198303222656 120.5260009765625 122.62897491455078 121.72900390625 C122.11597442626953 122.9320068359375 121.83197021484375 124.25601196289062 121.83197021484375 125.64801025390625 L122.36797332763672 130.50401306152344 L122.90397644042969 135.36001586914062 L123.43997955322266 140.2160186767578 L123.97598266601562 145.072021484375 L124.5119857788086 149.9280242919922 L125.04798889160156 154.78402709960938 L125.58399200439453 159.6400146484375 L126.1199951171875 164.49603271484375"></path>
<path fill="#384a23" fill-opacity="1.0"  filling="0" d="M125.54397583007812 159.31198120117188 L125.83198547363281 161.9040069580078 L126.1199951171875 164.49603271484375 C126.1199951171875 166.3520050048828 126.49688720703125 168.09422302246094 127.15110778808594 169.59228515625 C127.80532836914062 171.09036254882812 128.73687744140625 172.3442840576172 129.84622192382812 173.22369384765625 C130.95555114746094 174.1031036376953 132.24267578125 174.60800170898438 133.60800170898438 174.60800170898438 L138.4720001220703 174.60800170898438 L143.33599853515625 174.60800170898438 C144.72267150878906 174.60800170898438 146.01690673828125 174.1031036376953 147.12623596191406 173.22369384765625 C148.23556518554688 172.3442840576172 149.16000366210938 171.09036254882812 149.80709838867188 169.59228515625 C150.45420837402344 168.09422302246094 150.823974609375 166.35202026367188 150.823974609375 164.49603271484375 L151.1119842529297 161.9040069580078 L151.39999389648438 159.31198120117188 L147.0906524658203 159.31198120117188 L142.7813262939453 159.31198120117188 L138.47198486328125 159.31198120117188 L134.16265869140625 159.31198120117188 L129.8533172607422 159.31198120117188 L125.54397583007812 159.31198120117188"></path>
<path fill="#edb47b" fill-opacity="1.0"  filling="0" d="M134.1199951171875 116.55999755859375 C134.1199951171875 117.7760009765625 134.61599731445312 118.86399841308594 135.40798950195312 119.64799499511719 C136.19998168945312 120.43199157714844 137.28797912597656 120.9119873046875 138.47198486328125 120.9119873046875 C139.68798828125 120.9119873046875 140.77598571777344 120.43199157714844 141.5599822998047 119.64799499511719 C142.34397888183594 118.86399841308594 142.823974609375 117.7760009765625 142.823974609375 116.55999755859375 L142.823974609375 112.37867736816406 L142.823974609375 108.19734954833984 L142.823974609375 104.01602172851562 C142.823974609375 102.80000305175781 142.34397888183594 101.71199035644531 141.5599822998047 100.927978515625 C140.77598571777344 100.14397430419922 139.68798828125 99.66397094726562 138.47198486328125 99.66397094726562 C137.28797912597656 99.66397094726562 136.19998168945312 100.14397430419922 135.40798950195312 100.927978515625 C134.61599731445312 101.71199035644531 134.1199951171875 102.80000305175781 134.1199951171875 104.01602172851562 L134.1199951171875 108.19734954833984 L134.1199951171875 112.37867736816406 L134.1199951171875 116.55999755859375"></path>
<path fill="#ffc489" fill-opacity="1.0"  filling="0" d="M110.31198120117188 94.60800170898438 C110.31198120117188 96.33600616455078 110.54664611816406 98.00889587402344 110.98546600341797 99.59703826904297 C111.42427825927734 101.18518829345703 112.06724548339844 102.68859100341797 112.88383483886719 104.07762908935547 C113.70043182373047 105.46666717529297 114.6906509399414 106.7413330078125 115.82398986816406 107.87199401855469 C116.95732116699219 109.0026626586914 118.2337646484375 109.98932647705078 119.622802734375 110.80236053466797 C121.0118408203125 111.61540222167969 122.51346588134766 112.25480651855469 124.09716796875 112.69094848632812 C125.68086242675781 113.1270980834961 127.34663391113281 113.3599853515625 129.06396484375 113.3599853515625 C130.79197692871094 113.3599853515625 132.46487426757812 113.1270980834961 134.0530242919922 112.69094848632812 C135.64117431640625 112.25479888916016 137.14459228515625 111.61539459228516 138.53363037109375 110.80236053466797 C139.92266845703125 109.98932647705078 141.1973419189453 109.0026626586914 142.3280029296875 107.87199401855469 C143.4586639404297 106.7413330078125 144.44534301757812 105.46666717529297 145.2583770751953 104.07762908935547 C146.0714111328125 102.6885986328125 146.7108154296875 101.18518829345703 147.14697265625 99.59703826904297 C147.58311462402344 98.00889587402344 147.81600952148438 96.33599853515625 147.81600952148438 94.60800170898438 L147.81600952148438 89.82933044433594 L147.81600952148438 85.0506591796875 L147.81600952148438 80.27198791503906 C147.81600952148438 78.54399108886719 147.58311462402344 76.87110137939453 147.14697265625 75.28295135498047 C146.71083068847656 73.6948013305664 146.0714111328125 72.19139862060547 145.2583770751953 70.80236053466797 C144.44534301757812 69.41332244873047 143.4586639404297 68.13865661621094 142.3280029296875 67.00798797607422 C141.19732666015625 65.8773193359375 139.92266845703125 64.89065551757812 138.5336151123047 64.07762145996094 C137.1445770263672 63.264583587646484 135.64117431640625 62.62517547607422 134.05300903320312 62.18902587890625 C132.46485900878906 61.75287628173828 130.79196166992188 61.519989013671875 129.06396484375 61.519989013671875 C127.34664154052734 61.519989013671875 125.68087005615234 61.75287628173828 124.09716796875 62.18902587890625 C122.51346588134766 62.62517547607422 121.0118408203125 63.26457977294922 119.622802734375 64.07762145996094 C118.2337646484375 64.89065551757812 116.95732116699219 65.8773193359375 115.82398986816406 67.00798797607422 C114.69065856933594 68.13865661621094 113.70043182373047 69.41332244873047 112.88384246826172 70.80235290527344 C112.06724548339844 72.19139099121094 111.42427825927734 73.6948013305664 110.98546600341797 75.28295135498047 C110.54664611816406 76.87109375 110.31198120117188 78.54399108886719 110.31198120117188 80.27198791503906 L110.31198120117188 85.0506591796875 L110.31198120117188 89.82933044433594 L110.31198120117188 94.60800170898438"></path>
<path fill="#523416" fill-opacity="1.0"  filling="0" d="M130.1519775390625 87.05601501464844 C130.1519775390625 88.07998657226562 130.98397827148438 88.9119873046875 132.00799560546875 88.9119873046875 C133.09600830078125 88.9119873046875 133.92800903320312 88.07998657226562 133.92800903320312 87.05601501464844 L133.92800903320312 84.62399291992188 C133.92800903320312 83.60000610351562 133.09600830078125 82.76800537109375 132.00799560546875 82.76800537109375 C130.98397827148438 82.76800537109375 130.1519775390625 83.60000610351562 130.1519775390625 84.62399291992188 L130.1519775390625 87.05601501464844"></path>
<path fill="#523416" fill-opacity="1.0"  filling="0" d="M113.89599609375 87.05601501464844 C113.89599609375 88.07998657226562 114.72799682617188 88.9119873046875 115.75198364257812 88.9119873046875 C116.7760009765625 88.9119873046875 117.6719970703125 88.07998657226562 117.6719970703125 87.05601501464844 L117.6719970703125 84.62399291992188 C117.6719970703125 83.60000610351562 116.7760009765625 82.76800537109375 115.75198364257812 82.76800537109375 C114.72799682617188 82.76800537109375 113.89599609375 83.60000610351562 113.89599609375 84.62399291992188 L113.89599609375 87.05601501464844"></path>
<path fill="#ed997b" fill-opacity="1.0"  filling="0" d="M120.61602783203125 96.33601379394531 C120.61602783203125 97.36000061035156 121.447998046875 98.19198608398438 122.47198486328125 98.19198608398438 C123.49603271484375 98.19198608398438 124.3280029296875 97.36000061035156 124.3280029296875 96.33601379394531 L124.3280029296875 93.64801025390625 C124.3280029296875 92.62399291992188 123.49603271484375 91.7919921875 122.47198486328125 91.7919921875 C121.447998046875 91.7919921875 120.61602783203125 92.62399291992188 120.61602783203125 93.64801025390625 L120.61602783203125 96.33601379394531"></path>
<path fill="#523416" fill-opacity="1.0"  filling="0" d="M127.0159912109375 108.04800415039062 C127.97601318359375 108.176025390625 127.97601318359375 108.176025390625 128.87200927734375 107.85601806640625 C131.30398559570312 107.0880126953125 131.30398559570312 107.0880126953125 131.68798828125 104.4639892578125 C131.68798828125 104.14398193359375 131.68798828125 104.14398193359375 132.00799560546875 104.2080078125 C132.3280029296875 104.2080078125 132.3280029296875 104.2080078125 132.3280029296875 104.52801513671875 C132.10400390625 106.03201293945312 131.99200439453125 106.78401184082031 131.58399963378906 107.28001403808594 C131.17599487304688 107.77601623535156 130.47198486328125 108.01602172851562 129.06396484375 108.49603271484375 C127.97601318359375 108.81600952148438 127.97601318359375 108.81600952148438 126.88800048828125 108.68798828125 C126.5679931640625 108.62396240234375 126.5679931640625 108.62396240234375 126.63198852539062 108.30398559570312 C126.69601440429688 107.98397827148438 126.69601440429688 107.98397827148438 127.0159912109375 108.04800415039062"></path>
<path fill="#523416" fill-opacity="1.0"  filling="0" d="M142.823974609375 88.84800720214844 C142.823974609375 89.61601257324219 143.4639892578125 90.19198608398438 144.23199462890625 90.19198608398438 C145.0 90.19198608398438 145.57598876953125 89.61601257324219 145.57598876953125 88.84800720214844 L145.57598876953125 84.794677734375 L145.57598876953125 80.74134063720703 L145.57598876953125 76.68800354003906 C145.57598876953125 75.91999816894531 145.0 75.34397888183594 144.23199462890625 75.34397888183594 C143.4639892578125 75.34397888183594 142.823974609375 75.91999816894531 142.823974609375 76.68800354003906 L142.823974609375 80.74134063720703 L142.823974609375 84.794677734375 L142.823974609375 88.84800720214844"></path>
<path fill="#523416" fill-opacity="1.0"  filling="0" d="M149.86398315429688 88.39999389648438 C149.86398315429688 88.39999389648438 148.51998901367188 88.54399871826172 147.12799072265625 87.9520034790039 C145.73599243164062 87.3600082397461 144.29598999023438 86.03201293945312 144.10397338867188 83.0880126953125 C144.03997802734375 82.10667419433594 143.67730712890625 81.10578918457031 143.06546020507812 80.14104461669922 C142.45361328125 79.17630004882812 141.5925750732422 78.2477035522461 140.53184509277344 77.41096496582031 C139.47109985351562 76.57421875 138.21066284179688 75.82933044433594 136.79998779296875 75.23199462890625 C135.3893280029297 74.63465881347656 133.82843017578125 74.18488311767578 132.16680908203125 73.93836212158203 C130.5051727294922 73.69184875488281 128.7427978515625 73.6485824584961 126.92916870117188 73.86428833007812 C125.11553192138672 74.07998657226562 123.25064086914062 74.55464935302734 121.38397216796875 75.34397888183594 C119.50664520263672 76.13331604003906 117.73064422607422 76.64176177978516 116.08027648925781 76.89242553710938 C114.4299087524414 77.1430892944336 112.90516662597656 77.13597869873047 111.53034973144531 76.89420318603516 C110.15553283691406 76.65242767333984 108.93064880371094 76.17597961425781 107.8799819946289 75.48798370361328 C106.82931518554688 74.79998779296875 105.95287322998047 73.90042877197266 105.27494812011719 72.81243133544922 C104.5970230102539 71.72443389892578 104.11761474609375 70.44799041748047 103.86102294921875 69.00621795654297 C103.60443115234375 67.56444549560547 103.57066345214844 65.95733642578125 103.78399658203125 64.2080078125 C103.78399658203125 64.2080078125 104.44000244140625 65.08800506591797 105.76800537109375 65.48800659179688 C107.09600830078125 65.88800048828125 109.09600830078125 65.80799865722656 111.78399658203125 63.88800048828125 C112.45600128173828 63.39733123779297 113.33955383300781 62.778663635253906 114.40237426757812 62.1199951171875 C115.4651870727539 61.461326599121094 116.70726013183594 60.76266098022461 118.09629821777344 60.11199188232422 C119.48533630371094 59.461326599121094 121.02133178710938 58.85865783691406 122.6719970703125 58.391990661621094 C124.32266235351562 57.925323486328125 126.08799743652344 57.59465789794922 127.93569946289062 57.48799133300781 C129.7834014892578 57.381324768066406 131.71347045898438 57.4986572265625 133.69361877441406 57.9279899597168 C135.67376708984375 58.357322692871094 137.7039794921875 59.098655700683594 139.75198364257812 60.239990234375 C141.48912048339844 61.199989318847656 142.9794158935547 62.233131408691406 144.25177001953125 63.33139419555664 C145.5241241455078 64.42965698242188 146.5785369873047 65.5930404663086 147.44393920898438 66.81351470947266 C148.30934143066406 68.03398895263672 148.9857177734375 69.31156921386719 149.50201416015625 70.63821411132812 C150.018310546875 71.96485900878906 150.37451171875 73.34058380126953 150.5995330810547 74.7573471069336 C150.82455444335938 76.17411804199219 150.9184112548828 77.6319351196289 150.91001892089844 79.1227798461914 C150.901611328125 80.61363220214844 150.7909698486328 82.13749694824219 150.60699462890625 83.6863784790039 C150.42300415039062 85.2352523803711 150.16571044921875 86.80912780761719 149.86398315429688 88.39999389648438"></path>
<path fill="#ffc489" fill-opacity="1.0"  filling="0" d="M145.57598876953125 90.51199340820312 C145.57598876953125 92.239990234375 147.04800415039062 93.64801025390625 148.7760009765625 93.64801025390625 C150.50396728515625 93.64801025390625 151.9119873046875 92.239990234375 151.9119873046875 90.51199340820312 L151.9119873046875 86.22398376464844 C151.9119873046875 84.49600219726562 150.50396728515625 83.0880126953125 148.7760009765625 83.0880126953125 C146.98397827148438 83.0880126953125 145.57598876953125 84.49600219726562 145.57598876953125 86.22398376464844 L145.57598876953125 90.51199340820312"></path>
<path fill="#87370f" fill-opacity="1.0"  filling="0" d="M102.31201171875 109.7760009765625 C102.31201171875 110.76800537109375 101.91200256347656 111.66400146484375 101.25599670410156 112.31199645996094 C100.59999084472656 112.95999145507812 99.68798828125 113.3599853515625 98.66400146484375 113.3599853515625 L95.04800415039062 113.3599853515625 L91.4320068359375 113.3599853515625 C90.44000244140625 113.3599853515625 89.54400634765625 112.95999145507812 88.89601135253906 112.31199645996094 C88.24801635742188 111.66400146484375 87.8480224609375 110.76800537109375 87.8480224609375 109.7760009765625 C87.8480224609375 108.75201416015625 88.24801635742188 107.84001159667969 88.89601135253906 107.18400573730469 C89.54400634765625 106.52799987792969 90.44000244140625 106.12799072265625 91.4320068359375 106.12799072265625 L95.04800415039062 106.12799072265625 L98.66400146484375 106.12799072265625 C99.68798828125 106.12799072265625 100.59999084472656 106.52799987792969 101.25599670410156 107.18400573730469 C101.91200256347656 107.84001159667969 102.31201171875 108.75201416015625 102.31201171875 109.7760009765625"></path>
<path fill="#b04813" fill-opacity="1.0"  filling="0" d="M105.25601196289062 99.02398681640625 C105.25601196289062 100.51199340820312 104.95600891113281 101.92799377441406 104.41400909423828 103.21499633789062 C103.87200927734375 104.50199890136719 103.08800506591797 105.66000366210938 102.12000274658203 106.63200378417969 C101.1520004272461 107.60400390625 100.0 108.38999938964844 98.72200012207031 108.93299865722656 C97.4439926147461 109.47599792480469 96.03999328613281 109.7760009765625 94.5679931640625 109.7760009765625 C93.08000183105469 109.7760009765625 91.66400909423828 109.47599792480469 90.37701416015625 108.93299865722656 C89.09001922607422 108.38999938964844 87.93201446533203 107.60400390625 86.96001434326172 106.63200378417969 C85.9880142211914 105.66000366210938 85.20201110839844 104.50199890136719 84.65901184082031 103.21499633789062 C84.11601257324219 101.92799377441406 83.81600952148438 100.51199340820312 83.81600952148438 99.02398681640625 L83.81600952148438 95.50398254394531 L83.81600952148438 91.98397827148438 C83.81600952148438 90.49597930908203 84.11601257324219 89.0799789428711 84.65901184082031 87.79298400878906 C85.20201110839844 86.50598907470703 85.9880142211914 85.34799194335938 86.96001434326172 84.37599182128906 C87.93201446533203 83.40399169921875 89.09001159667969 82.61799621582031 90.37701416015625 82.07499694824219 C91.66400909423828 81.53199768066406 93.08000183105469 81.23199462890625 94.5679931640625 81.23199462890625 C96.03999328613281 81.23199462890625 97.4439926147461 81.53199768066406 98.72200012207031 82.07498931884766 C100.0 82.61798858642578 101.1520004272461 83.40398406982422 102.12000274658203 84.37598419189453 C103.08800506591797 85.34798431396484 103.87200927734375 86.5059814453125 104.41400909423828 87.79298400878906 C104.95600891113281 89.0799789428711 105.25601196289062 90.49597930908203 105.25601196289062 91.98397827148438 L105.25601196289062 95.50398254394531 L105.25601196289062 99.02398681640625"></path>
<path fill="#ffc489" fill-opacity="1.0"  filling="0" d="M152.93600463867188 123.5999755859375 C152.0755615234375 124.95108795166016 151.11239624023438 126.1860580444336 150.06390380859375 127.30057525634766 C149.01541137695312 128.4150848388672 147.88157653808594 129.40916442871094 146.67979431152344 130.27847290039062 C145.47801208496094 131.1477813720703 144.20828247070312 131.89234924316406 142.8879852294922 132.5078582763672 C141.56768798828125 133.1233673095703 140.1968231201172 133.6098175048828 138.79278564453125 133.96292114257812 C137.38873291015625 134.31602478027344 135.95150756835938 134.5357666015625 134.4984588623047 134.6178436279297 C133.04542541503906 134.69992065429688 131.5765838623047 134.64434814453125 130.1093292236328 134.4468231201172 C128.64207458496094 134.24929809570312 127.1763916015625 133.90980529785156 125.72968292236328 133.42405700683594 C124.28296661376953 132.93829345703125 122.85521697998047 132.30628967285156 121.46380615234375 131.52371215820312 C120.07240295410156 130.74114990234375 118.71734619140625 129.80801391601562 117.416015625 128.72000122070312 C116.30241394042969 127.79840087890625 115.26817321777344 126.80000305175781 114.31431579589844 125.7370834350586 C113.36045837402344 124.6741714477539 112.48698425292969 123.54674530029297 111.69491577148438 122.36709594726562 C110.90284729003906 121.18744659423828 110.19219207763672 119.95557403564453 109.56396484375 118.68376159667969 C108.93573760986328 117.41195678710938 108.38994598388672 116.10021209716797 107.92760467529297 114.76081848144531 C107.46527099609375 113.42143249511719 107.08639526367188 112.05439758300781 106.7919921875 110.6719970703125 C107.75198364257812 110.35198974609375 108.72798919677734 110.04798889160156 109.70399475097656 109.7599868774414 C110.68000793457031 109.47198486328125 111.65602111816406 109.19998168945312 112.61602783203125 108.9439697265625 C112.87202453613281 110.30397033691406 113.24002075195312 111.6479721069336 113.71601867675781 112.95697784423828 C114.1920166015625 114.26597595214844 114.77600860595703 115.53997802734375 115.46400451660156 116.7599868774414 C116.1520004272461 117.97998809814453 116.94400024414062 119.14598846435547 117.83599090576172 120.2389907836914 C118.72798919677734 121.33199310302734 119.71998596191406 122.35199737548828 120.8079833984375 123.27999877929688 C122.0879898071289 124.34056854248047 123.43199157714844 125.21436309814453 124.81311798095703 125.90511322021484 C126.19425201416016 126.59586334228516 127.61251068115234 127.10357666015625 129.04104614257812 127.43196868896484 C130.46957397460938 127.76036834716797 131.90835571289062 127.90945434570312 133.33053588867188 127.8829574584961 C134.75271606445312 127.85646057128906 136.15829467773438 127.65438842773438 137.5203857421875 127.28047180175781 C138.8824920654297 126.90654754638672 140.20111083984375 126.36077880859375 141.44940185546875 125.64688873291016 C142.69769287109375 124.93299865722656 143.87562561035156 124.05099487304688 144.9563446044922 123.00460052490234 C146.0370635986328 121.95821380615234 147.02056884765625 120.7474365234375 147.8800048828125 119.37600708007812 C148.7760009765625 117.83999633789062 150.69601440429688 117.583984375 152.10397338867188 118.73602294921875 C152.8079833984375 119.31201171875 153.2559814453125 120.14399719238281 153.40798950195312 121.02398681640625 C153.55999755859375 121.90397644042969 153.41600036621094 122.83197021484375 152.93600463867188 123.5999755859375"></path>
<path fill="#b04813" fill-opacity="1.0"  filling="0" d="M117.73602294921875 111.69601440429688 C118.02400207519531 112.65602111816406 117.87999725341797 113.64801788330078 117.42399597167969 114.46401977539062 C116.9679946899414 115.28001403808594 116.19999694824219 115.92001342773438 115.239990234375 116.176025390625 L111.75198364257812 117.16801452636719 L108.26397705078125 118.16000366210938 C107.30398559570312 118.41600036621094 106.32798767089844 118.2719955444336 105.51998901367188 117.82398986816406 C104.71199035644531 117.37599182128906 104.07199096679688 116.62399291992188 103.78399658203125 115.66400146484375 C103.52798461914062 114.70399475097656 103.67198181152344 113.71199798583984 104.11997985839844 112.89599609375 C104.56798553466797 112.07999420166016 105.31999206542969 111.43998718261719 106.27999877929688 111.1839599609375 L109.76800537109375 110.19198608398438 L113.25601196289062 109.20001220703125 C114.21601867675781 108.9119873046875 115.20801544189453 109.05598449707031 116.02401733398438 109.51199340820312 C116.84001159667969 109.9679946899414 117.48001098632812 110.73600769042969 117.73602294921875 111.69601440429688"></path>
<path fill="#c25620" fill-opacity="1.0"  filling="0" d="M119.656005859375 97.61601257324219 C119.94400024414062 98.6399917602539 119.78399658203125 99.69598388671875 119.2959976196289 100.5679931640625 C118.80799865722656 101.43999481201172 117.99200439453125 102.12800598144531 116.968017578125 102.416015625 L116.64801025390625 102.47999572753906 C115.62399291992188 102.76800537109375 114.58399200439453 102.60800170898438 113.72799682617188 102.12000274658203 C112.87199401855469 101.63200378417969 112.19999694824219 100.81599426269531 111.9119873046875 99.7919921875 C111.59197998046875 98.76799011230469 111.7359848022461 97.71199035644531 112.21598815917969 96.83999633789062 C112.69599914550781 95.96800231933594 113.51200866699219 95.27999877929688 114.5360107421875 94.99198913574219 L114.85601806640625 94.92800903320312 C115.8800048828125 94.63999938964844 116.93600463867188 94.78399658203125 117.8080062866211 95.26399230957031 C118.68000793457031 95.74398803710938 119.36801147460938 96.55999755859375 119.656005859375 97.61601257324219"></path>
<path fill="#de5b1b" fill-opacity="1.0"  filling="0" d="M117.6719970703125 100.62399291992188 C118.07199096679688 102.03199768066406 118.16398620605469 103.45999908447266 117.98798370361328 104.83500671386719 C117.81198120117188 106.21000671386719 117.36798095703125 107.5320053100586 116.69597625732422 108.7280044555664 C116.02397155761719 109.92400360107422 115.12397766113281 110.99400329589844 114.03598022460938 111.86499786376953 C112.94798278808594 112.73599243164062 111.67198181152344 113.40798950195312 110.24798583984375 113.8079833984375 C108.82398986816406 114.20799255371094 107.38799285888672 114.30400085449219 106.00999450683594 114.13400268554688 C104.63199615478516 113.96400451660156 103.31199645996094 113.52799987792969 102.1199951171875 112.86399841308594 C100.92799377441406 112.19999694824219 99.8639907836914 111.30799865722656 98.99798583984375 110.22599792480469 C98.1319808959961 109.14399719238281 97.46397399902344 107.87199401855469 97.06396484375 106.447998046875 L96.10397338867188 103.02400207519531 L95.14398193359375 99.60000610351562 C94.72798156738281 98.1760025024414 94.62397766113281 96.74000549316406 94.79098510742188 95.36199951171875 C94.9579849243164 93.98400115966797 95.39598083496094 92.66400146484375 96.06398010253906 91.47200775146484 C96.73197937011719 90.28001403808594 97.62997436523438 89.21601104736328 98.71697998046875 88.35001373291016 C99.80397033691406 87.48401641845703 101.07997131347656 86.8160171508789 102.50396728515625 86.416015625 C103.927978515625 86.00000762939453 105.36398315429688 85.89600372314453 106.74299621582031 86.06299591064453 C108.12200164794922 86.22999572753906 109.44400787353516 86.6679916381836 110.64000701904297 87.33599090576172 C111.83600616455078 88.00399780273438 112.906005859375 88.90199279785156 113.78099822998047 89.98899841308594 C114.65599822998047 91.07600402832031 115.33599090576172 92.35200500488281 115.75198364257812 93.77601623535156 L116.71199035644531 97.20000457763672 L117.6719970703125 100.62399291992188"></path>
<path fill="#ffc489" fill-opacity="1.0"  filling="0" d="M149.28802490234375 167.37600708007812 C149.147216796875 168.835205078125 149.15232849121094 170.3558349609375 149.2977294921875 171.90567016601562 C149.44313049316406 173.4554901123047 149.7288360595703 175.0345001220703 150.14918518066406 176.6104278564453 C150.5695343017578 178.1863555908203 151.12454223632812 179.75921630859375 151.80857849121094 181.2967529296875 C152.49261474609375 182.83428955078125 153.3056640625 184.3365020751953 154.2421112060547 185.7711181640625 C155.17855834960938 187.20574951171875 156.2384033203125 188.57278442382812 157.416015625 189.83999633789062 C158.4080047607422 190.9119873046875 159.6479949951172 191.83599853515625 161.01499938964844 192.63299560546875 C162.38198852539062 193.42999267578125 163.87599182128906 194.09999084472656 165.37599182128906 194.6639862060547 C166.87599182128906 195.22799682617188 168.38198852539062 195.6859893798828 169.7729949951172 196.05899047851562 C171.1639862060547 196.43197631835938 172.4399871826172 196.719970703125 173.47998046875 196.9439697265625 C173.09597778320312 198.09597778320312 172.75997924804688 198.95999145507812 172.39999389648438 199.8159942626953 C172.04000854492188 200.6719970703125 171.65602111816406 201.52000427246094 171.176025390625 202.6400146484375 C169.89602661132812 202.38400268554688 168.5341033935547 202.089599609375 167.13018798828125 201.72813415527344 C165.72628784179688 201.3666534423828 164.2803955078125 200.9381103515625 162.83245849609375 200.413818359375 C161.384521484375 199.8895263671875 159.9345245361328 199.26950073242188 158.52243041992188 198.52505493164062 C157.11033630371094 197.78060913085938 155.7361297607422 196.9117431640625 154.4397430419922 195.88980102539062 C153.14334106445312 194.8678436279297 151.92477416992188 193.69281005859375 150.823974609375 192.33599853515625 C149.8639678955078 191.14132690429688 148.96975708007812 189.91644287109375 148.1481170654297 188.66873168945312 C147.3264923095703 187.42103576660156 146.57745361328125 186.1505126953125 145.90782165527344 184.86459350585938 C145.23818969726562 183.57867431640625 144.64797973632812 182.27732849121094 144.14398193359375 180.96800231933594 C143.63998413085938 179.65866088867188 143.2222137451172 178.34132385253906 142.89747619628906 177.02340698242188 C142.57272338867188 175.70547485351562 142.34103393554688 174.386962890625 142.20916748046875 173.07525634765625 C142.07733154296875 171.7635498046875 142.04531860351562 170.4586639404297 142.1199951171875 169.16799926757812 C142.1199951171875 169.16799926757812 142.16799926757812 167.90399169921875 142.6479949951172 166.66400146484375 C143.12799072265625 165.4239959716797 144.0399932861328 164.20799255371094 145.76800537109375 164.30398559570312 C147.62399291992188 164.3679962158203 148.50399780273438 165.13600158691406 148.92001342773438 165.88800048828125 C149.3360137939453 166.6400146484375 149.28802490234375 167.37600708007812 149.28802490234375 167.37600708007812"></path>
<path fill="#536e34" fill-opacity="1.0"  filling="0" d="M150.31198120117188 177.16799926757812 C149.8319854736328 175.50399780273438 149.49600219726562 173.82400512695312 149.32000732421875 172.17599487304688 C149.14401245117188 170.5279998779297 149.12802124023438 168.91200256347656 149.28802490234375 167.37600708007812 C149.28802490234375 167.37600708007812 149.3360137939453 166.6400146484375 148.92001342773438 165.8800048828125 C148.50399780273438 165.1199951171875 147.62399291992188 164.33599853515625 145.76800537109375 164.239990234375 C144.0399932861328 164.17599487304688 143.12799072265625 165.40798950195312 142.6479949951172 166.656005859375 C142.16799926757812 167.90399169921875 142.1199951171875 169.16799926757812 142.1199951171875 169.16799926757812 C142.03465270996094 170.5333251953125 142.07022094726562 171.90576171875 142.21954345703125 173.28294372558594 C142.36888122558594 174.66012573242188 142.63198852539062 176.04205322265625 143.00177001953125 177.4263458251953 C143.37155151367188 178.81065368652344 143.84799194335938 180.19732666015625 144.42398071289062 181.583984375 C145.35198974609375 180.8159942626953 146.31198120117188 180.06399536132812 147.29598999023438 179.3280029296875 C148.2799835205078 178.5919952392578 149.28797912597656 177.8719940185547 150.31198120117188 177.16799926757812"></path>
<path fill="#122947" fill-opacity="1.0"  filling="0" d="M171.4320068359375 212.176025390625 C172.52000427246094 212.52801513671875 173.63999938964844 212.40000915527344 174.5760040283203 211.91200256347656 C175.51199340820312 211.42401123046875 176.26400756835938 210.5760040283203 176.61602783203125 209.48800659179688 L178.0880126953125 205.3280029296875 L179.55999755859375 201.16799926757812 C179.9119873046875 200.1120147705078 179.78399658203125 198.99200439453125 179.29598999023438 198.04800415039062 C178.80799865722656 197.10400390625 177.9600067138672 196.3359832763672 176.87200927734375 195.98397827148438 C175.7840118408203 195.63198852539062 174.66400146484375 195.760009765625 173.72799682617188 196.24000549316406 C172.7919921875 196.7200164794922 172.03997802734375 197.55201721191406 171.68798828125 198.60800170898438 L170.24798583984375 202.76800537109375 L168.8079833984375 206.92800903320312 C168.4559783935547 208.0159912109375 168.5679931640625 209.1519775390625 169.0399932861328 210.10398864746094 C169.51199340820312 211.05599975585938 170.34400939941406 211.82400512695312 171.4320068359375 212.176025390625"></path></svg>