<svg xmlns="http://www.w3.org/2000/svg" viewBox="0.0 0.0 256.0 256.0" height="256.0px" width="256.0px"><path fill="#54322E" fill-opacity="1.0"  filling="0" d="M26.751861572265625 122.34620666503906 C26.68548583984375 122.43330383300781 26.619171142578125 122.51901245117188 26.55279541015625 122.60470581054688 C26.483673095703125 122.69456481933594 26.42144775390625 122.75260925292969 26.328826904296875 122.81758117675781 C26.19061279296875 122.91575622558594 26.17401123046875 123.11619567871094 26.31640625 123.218505859375 C26.451904296875 123.316650390625 26.656494140625 123.24891662597656 26.69378662109375 123.08026123046875 C26.718658447265625 122.97105407714844 26.746337890625 122.88673400878906 26.801605224609375 122.78857421875 C26.855560302734375 122.69317626953125 26.91082763671875 122.59919738769531 26.964752197265625 122.50379943847656 C27.03802490234375 122.37799072265625 26.84722900390625 122.22315979003906 26.751861572265625 122.34620666503906"></path>
<path fill="#4B1A25" fill-opacity="1.0"  filling="0" d="M234.46990966796875 126.33720397949219 C234.44004821777344 126.32628631591797 234.1669464111328 126.22576904296875 233.68751525878906 126.08314514160156 C233.2080841064453 125.94052124023438 232.52232360839844 125.75579833984375 231.66717529296875 125.57644653320312 C230.81201171875 125.39710235595703 229.78746032714844 125.22312927246094 228.6304168701172 125.10203552246094 C227.47337341308594 124.9809341430664 226.18385314941406 124.91270446777344 224.7987823486328 124.94482421875 C223.41371154785156 124.97694396972656 221.93307495117188 125.10942077636719 220.393798828125 125.38973236083984 C218.8545379638672 125.6700439453125 217.2566375732422 126.09820556640625 215.63702392578125 126.72168731689453 C214.0174102783203 127.34516906738281 212.37608337402344 128.1639862060547 210.74996948242188 129.22560119628906 C209.1238555908203 130.2872314453125 207.51295471191406 131.59165954589844 205.9541778564453 133.1864013671875 C204.39540100097656 134.78114318847656 202.88876342773438 136.6661834716797 201.47117614746094 138.88902282714844 C200.0535888671875 141.11184692382812 198.72506713867188 143.6724853515625 197.5225067138672 146.61837768554688 C195.84071350097656 146.06126403808594 194.15896606445312 145.65538024902344 192.4972381591797 145.40298461914062 C190.83551025390625 145.1505889892578 189.19383239746094 145.0516815185547 187.5922088623047 145.10853576660156 C185.99057006835938 145.16539001464844 184.42898559570312 145.37802124023438 182.92747497558594 145.74867248535156 C181.4259490966797 146.11932373046875 179.98448181152344 146.6480255126953 178.6230926513672 147.3370361328125 C177.26168823242188 148.0260467529297 175.98036193847656 148.87535095214844 174.7991180419922 149.8872528076172 C173.6178741455078 150.89913940429688 172.53671264648438 152.07362365722656 171.5756378173828 153.4129638671875 C170.61456298828125 154.75230407714844 169.77359008789062 156.25650024414062 169.0727081298828 157.9278106689453 C168.055419921875 157.19114685058594 166.9331512451172 156.49781799316406 165.73326110839844 155.87991333007812 C164.53338623046875 155.2620086669922 163.25588989257812 154.71954345703125 161.9281463623047 154.2845916748047 C160.60040283203125 153.8496551513672 159.22242736816406 153.52223205566406 157.82156372070312 153.33445739746094 C156.4207000732422 153.14666748046875 154.9969482421875 153.0985107421875 153.5776824951172 153.22207641601562 C152.15841674804688 153.34564208984375 150.74365234375 153.6409454345703 149.3607177734375 154.1400604248047 C147.97779846191406 154.63919067382812 146.62672424316406 155.34213256835938 145.33485412597656 156.281005859375 C144.04299926757812 157.21987915039062 142.8103485107422 158.39468383789062 141.66429138183594 159.83749389648438 C140.51821899414062 161.2803192138672 139.458740234375 162.9911651611328 138.51319885253906 165.0021209716797 C137.56765747070312 167.01309204101562 136.73605346679688 169.32415771484375 136.0457763671875 171.96746826171875 C135.35549926757812 169.32415771484375 134.52391052246094 167.01307678222656 133.578369140625 165.0021209716797 C132.63282775878906 162.99114990234375 131.57334899902344 161.2803192138672 130.4272918701172 159.83749389648438 C129.28121948242188 158.39466857910156 128.048583984375 157.21987915039062 126.75672149658203 156.281005859375 C125.46485900878906 155.34213256835938 124.11378479003906 154.63919067382812 122.73085021972656 154.1400604248047 C121.3479232788086 153.6409454345703 119.93314361572266 153.34564208984375 118.51388549804688 153.22207641601562 C117.09461975097656 153.0985107421875 115.6708755493164 153.14666748046875 114.27001190185547 153.33444213867188 C112.86914825439453 153.52223205566406 111.49115753173828 153.84963989257812 110.16342163085938 154.28457641601562 C108.83567810058594 154.71951293945312 107.55818939208984 155.26199340820312 106.35830688476562 155.87989807128906 C105.1584243774414 156.497802734375 104.03614807128906 157.19113159179688 103.01885986328125 157.9278106689453 C102.31798553466797 156.25648498535156 101.47700500488281 154.75228881835938 100.51593780517578 153.41294860839844 C99.55487060546875 152.0736083984375 98.47370910644531 150.8991241455078 97.29246520996094 149.88723754882812 C96.11122131347656 148.87533569335938 94.82990264892578 148.02603149414062 93.468505859375 147.33702087402344 C92.10711669921875 146.64801025390625 90.6656494140625 146.11932373046875 89.16412353515625 145.74867248535156 C87.66260528564453 145.37802124023438 86.10102081298828 145.16539001464844 84.4993896484375 145.10853576660156 C82.89775848388672 145.0516815185547 81.2560806274414 145.1505889892578 79.5943603515625 145.40298461914062 C77.9326400756836 145.65538024902344 76.25088500976562 146.061279296875 74.569091796875 146.61837768554688 C73.36653900146484 143.6724853515625 72.03800964355469 141.1118621826172 70.62042999267578 138.8890380859375 C69.20284271240234 136.6662139892578 67.69620513916016 134.78115844726562 66.1374282836914 133.18641662597656 C64.57865142822266 131.5916748046875 62.96774673461914 130.2872314453125 61.34163284301758 129.22561645507812 C59.71551513671875 128.1639862060547 58.074188232421875 127.34517669677734 56.45457458496094 126.72169494628906 C54.8349609375 126.09821319580078 53.237056732177734 125.67005157470703 51.69778823852539 125.38973999023438 C50.15851974487305 125.10942077636719 48.67788314819336 124.9769515991211 47.292808532714844 124.94482421875 C45.90773010253906 124.91270446777344 44.61820983886719 124.98094177246094 43.4611701965332 125.10203552246094 C42.30413055419922 125.22313690185547 41.279571533203125 125.39710235595703 40.42441177368164 125.57645416259766 C39.569252014160156 125.75579833984375 38.88349914550781 125.9405288696289 38.40406799316406 126.08314514160156 C37.92463684082031 126.22576904296875 37.65153503417969 126.32627868652344 37.621673583984375 126.33720397949219 C37.63503646850586 126.30540466308594 37.71951675415039 126.10709381103516 37.88279342651367 125.76513671875 C38.04606628417969 125.42317962646484 38.28813552856445 124.93759155273438 38.61667251586914 124.33125305175781 C38.94520950317383 123.72490692138672 39.3602180480957 122.99781799316406 39.8693733215332 122.1728515625 C40.3785285949707 121.34789276123047 40.98183059692383 120.42505645751953 41.686954498291016 119.42724609375 C42.39208221435547 118.42943572998047 43.199031829833984 117.35664367675781 44.115482330322266 116.23175048828125 C45.03193283081055 115.10685729980469 46.057884216308594 113.92987060546875 47.201011657714844 112.72367095947266 C48.344139099121094 111.51747131347656 49.60444641113281 110.28205108642578 50.98960876464844 109.04031372070312 C52.3747673034668 107.79856872558594 53.88478469848633 106.55049896240234 55.52732849121094 105.31898498535156 C57.16987609863281 104.08747100830078 58.944950103759766 102.87251281738281 60.86023712158203 101.6969985961914 C62.7755241394043 100.521484375 64.83101654052734 99.38540649414062 67.03439331054688 98.31166076660156 C69.2377700805664 97.2379150390625 71.58903503417969 96.22648620605469 74.09585571289062 95.30027770996094 C76.6026840209961 94.37406921386719 79.26507568359375 93.53307342529297 82.0906982421875 92.8001708984375 C83.29703521728516 94.50039672851562 84.52660369873047 96.14549255371094 85.77127075195312 97.73455047607422 C87.01594543457031 99.3236083984375 88.27571105957031 100.85662078857422 89.54244232177734 102.3326644897461 C90.80917358398438 103.80870819091797 92.08287048339844 105.22779083251953 93.35538482666016 106.5889892578125 C94.62789916992188 107.95018768310547 95.89923858642578 109.25349426269531 97.1612548828125 110.49800109863281 C98.42327117919922 111.74250793457031 99.67597961425781 112.92820739746094 100.91122436523438 114.05418395996094 C102.14647674560547 115.18016052246094 103.36426544189453 116.24640655517578 104.55646514892578 117.25200653076172 C105.74866485595703 118.25760650634766 106.91526794433594 119.20256805419922 108.04814147949219 120.0859603881836 C109.18101501464844 120.96935272216797 110.28015899658203 121.79117584228516 111.33743286132812 122.5505142211914 C112.39470672607422 123.30985260009766 113.41010284423828 124.00670623779297 114.37549591064453 124.64015197753906 C115.34088897705078 125.27359771728516 116.25627136230469 125.84363555908203 117.1135025024414 126.34934997558594 C117.97074127197266 126.85506439208984 118.76982116699219 127.29644775390625 119.50262451171875 127.67259216308594 C120.26451873779297 126.05972290039062 120.85940551757812 124.29149627685547 121.3194351196289 122.44520568847656 C121.77947235107422 120.59891510009766 122.10466003417969 118.67456817626953 122.3271713256836 116.74946594238281 C122.5496826171875 114.8243637084961 122.66952514648438 112.89850616455078 122.71885681152344 111.04920196533203 C122.7681884765625 109.19989776611328 122.74700927734375 107.4271469116211 122.6875 105.80825805664062 C122.62798309326172 104.18936157226562 122.53013610839844 102.72432708740234 122.4261245727539 101.4904556274414 C122.32211303710938 100.25657653808594 122.21192932128906 99.25386810302734 122.12774658203125 98.55963134765625 C122.04357147216797 97.86538696289062 121.98539733886719 97.4796142578125 121.98539733886719 97.4796142578125 L124.05623626708984 100.9895248413086 L126.1270751953125 104.49943542480469 L128.19790649414062 108.00933837890625 L132.1221923828125 108.00933837890625 L136.04647827148438 108.00933837890625 L139.97076416015625 108.00933837890625 L143.89505004882812 108.00933837890625 L145.9658966064453 104.49943542480469 L148.0367431640625 100.9895248413086 L150.10757446289062 97.4796142578125 C150.10757446289062 97.4796142578125 150.0275115966797 97.91960144042969 149.9187469482422 98.7051773071289 C149.80999755859375 99.49076080322266 149.67254638671875 100.62193298339844 149.5577850341797 102.00430297851562 C149.44302368164062 103.38667297363281 149.35093688964844 105.02024841308594 149.33290100097656 106.81063079833984 C149.3148651123047 108.60101318359375 149.3708953857422 110.5481948852539 149.55233764648438 112.55780029296875 C149.73379516601562 114.56739807128906 150.04067993164062 116.63941192626953 150.52435302734375 118.679443359375 C151.00802612304688 120.71947479248047 151.66851806640625 122.72752380371094 152.55715942382812 124.60920715332031 C153.36351013183594 124.1954574584961 154.25035095214844 123.7333755493164 155.206787109375 123.21806335449219 C156.16322326660156 122.7027587890625 157.18923950195312 122.13422393798828 158.2739715576172 121.50756072998047 C159.35870361328125 120.88090515136719 160.5021209716797 120.19612121582031 161.693359375 119.44831085205078 C162.8845977783203 118.70050811767578 164.1236572265625 117.88967895507812 165.39962768554688 117.01092529296875 C166.67559814453125 116.1321792602539 167.98849487304688 115.18550872802734 169.32742309570312 114.16602325439453 C170.66635131835938 113.14653778076172 172.0312957763672 112.05423736572266 173.41139221191406 110.88421630859375 C174.79148864746094 109.71419525146484 176.1867218017578 108.46646118164062 177.58619689941406 107.13611602783203 C178.98568725585938 105.8057632446289 180.38941955566406 104.3927993774414 181.78651428222656 102.89232635498047 C183.18359375 101.39185333251953 184.5740509033203 99.80387115478516 185.9469757080078 98.12347412109375 C187.31988525390625 96.44308471679688 188.67527770996094 94.67028045654297 190.0022430419922 92.8001708984375 C192.80299377441406 93.11270904541016 195.44493103027344 93.60379791259766 197.93515014648438 94.24169158935547 C200.4253692626953 94.87958526611328 202.76388549804688 95.66429901123047 204.95774841308594 96.56407165527344 C207.15162658691406 97.4638442993164 209.20086669921875 98.47869110107422 211.11256408691406 99.57686614990234 C213.02426147460938 100.67504119873047 214.79840087890625 101.85653686523438 216.4420928955078 103.08963012695312 C218.08578491210938 104.32271575927734 219.5989990234375 105.60739135742188 220.98886108398438 106.91191101074219 C222.3787078857422 108.2164306640625 223.6451873779297 109.54080200195312 224.7953643798828 110.853271484375 C225.945556640625 112.1657485961914 226.9794464111328 113.46632385253906 227.90414428710938 114.72327423095703 C228.82884216308594 115.98021697998047 229.64431762695312 117.19352722167969 230.35769653320312 118.33145904541016 C231.07106018066406 119.46939086914062 231.68231201171875 120.53195190429688 232.1985321044922 121.48738861083984 C232.71475219726562 122.44283294677734 233.13592529296875 123.29115295410156 233.46917724609375 124.00061798095703 C233.8024139404297 124.7100830078125 234.04769897460938 125.28070068359375 234.21212768554688 125.68070983886719 C234.37655639648438 126.08071899414062 234.46011352539062 126.31013488769531 234.46990966796875 126.33720397949219"></path>
<path fill="#44151F" fill-opacity="1.0"  filling="0" d="M136.0457763671875 171.96884155273438 C135.35549926757812 169.32554626464844 134.52391052246094 167.0144500732422 133.578369140625 165.0034942626953 C132.63282775878906 162.99253845214844 131.57334899902344 161.2816925048828 130.4272918701172 159.8388671875 C129.28121948242188 158.39605712890625 128.048583984375 157.22125244140625 126.75672149658203 156.28237915039062 C125.46485900878906 155.343505859375 124.11378479003906 154.64056396484375 122.73085021972656 154.1414337158203 C121.3479232788086 153.64231872558594 119.93314361572266 153.34701538085938 118.51388549804688 153.22344970703125 C117.09461975097656 153.09988403320312 115.6708755493164 153.14804077148438 114.27001190185547 153.3358154296875 C112.86914825439453 153.5236053466797 111.49115753173828 153.85101318359375 110.16342163085938 154.28594970703125 C108.83567810058594 154.72088623046875 107.55818939208984 155.26336669921875 106.35830688476562 155.88128662109375 C105.1584243774414 156.4991912841797 104.03614807128906 157.19253540039062 103.01885986328125 157.92919921875 C102.31798553466797 156.25787353515625 101.47700500488281 154.75367736816406 100.51593780517578 153.41433715820312 C99.55487060546875 152.0749969482422 98.47370910644531 150.9005126953125 97.29246520996094 149.8886260986328 C96.11122131347656 148.87672424316406 94.82990264892578 148.02740478515625 93.468505859375 147.33840942382812 C92.10711669921875 146.64939880371094 90.6656494140625 146.12071228027344 89.16412353515625 145.7500457763672 C87.66260528564453 145.37939453125 86.10102081298828 145.16677856445312 84.4993896484375 145.10992431640625 C82.89775848388672 145.05307006835938 81.2560806274414 145.1519775390625 79.5943603515625 145.4043731689453 C77.9326400756836 145.65676879882812 76.25088500976562 146.06265258789062 74.569091796875 146.61976623535156 C73.36653900146484 143.67373657226562 72.03800964355469 141.1129913330078 70.62042999267578 138.89004516601562 C69.20284271240234 136.66709899902344 67.69620513916016 134.78196716308594 66.1374282836914 133.1871337890625 C64.57865142822266 131.59230041503906 62.96774673461914 130.28778076171875 61.34163284301758 129.22608947753906 C59.71551513671875 128.16439819335938 58.074188232421875 127.34552764892578 56.45457458496094 126.72199249267578 C54.8349609375 126.09845733642578 53.237056732177734 125.67025756835938 51.69778823852539 125.38990783691406 C50.15851974487305 125.10955810546875 48.67788314819336 124.97705841064453 47.292808532714844 124.94491577148438 C45.90773010253906 124.91277313232422 44.61820983886719 124.98098754882812 43.4611701965332 125.1020736694336 C42.30413055419922 125.22315979003906 41.279571533203125 125.39712524414062 40.42441177368164 125.57646179199219 C39.569252014160156 125.75580596923828 38.88349914550781 125.9405288696289 38.40406799316406 126.0831527709961 C37.92463684082031 126.22576904296875 37.65153503417969 126.32627868652344 37.621673583984375 126.33720397949219 C37.64654541015625 126.30400085449219 37.812408447265625 126.08973693847656 38.116546630859375 125.72343444824219 C38.38674545288086 125.39668273925781 38.76528549194336 124.94901275634766 39.248085021972656 124.40194702148438 C39.73088073730469 123.85487365722656 40.317935943603516 123.20840454101562 41.005165100097656 122.48405456542969 C41.6923942565918 121.75970458984375 42.479793548583984 120.95747375488281 43.363285064697266 120.09888458251953 C44.24677658081055 119.24029541015625 45.226356506347656 118.32534790039062 46.29793930053711 117.37555694580078 C47.36952590942383 116.42576599121094 48.53311538696289 115.4411392211914 49.784629821777344 114.44319915771484 C51.0361442565918 113.44525146484375 52.375579833984375 112.43399047851562 53.798851013183594 111.43092346191406 C55.22212219238281 110.4278564453125 56.72923278808594 109.43299102783203 58.31610107421875 108.46784973144531 C59.9029655456543 107.5027084350586 61.569583892822266 106.5672836303711 63.31187438964844 105.68310546875 C65.05416870117188 104.7989273071289 66.87213134765625 103.96598815917969 68.76168060302734 103.205810546875 C70.65122985839844 102.44563293457031 72.61236572265625 101.75821685791016 74.64100646972656 101.16508483886719 C76.66964721679688 100.57196044921875 78.76579284667969 100.07310485839844 80.92535400390625 99.6900634765625 C82.02332305908203 101.00023651123047 83.1129379272461 102.29124450683594 84.20027923583984 103.56159973144531 C85.2876205444336 104.83195495605469 86.3726806640625 106.08165740966797 87.46156311035156 107.3092041015625 C88.5504379272461 108.53675842285156 89.64312744140625 109.74215698242188 90.74571990966797 110.92390441894531 C91.84830474853516 112.10565948486328 92.9607925415039 113.26376342773438 94.08926391601562 114.396728515625 C95.21773529052734 115.52969360351562 96.36219024658203 116.63751220703125 97.52871704101562 117.71869659423828 C98.69524383544922 118.79988098144531 99.88383483886719 119.85442352294922 101.1005859375 120.88082885742188 C102.31733703613281 121.90724182128906 103.56224060058594 122.905517578125 104.84138488769531 123.87416076660156 C106.12052917480469 124.84280395507812 107.43391418457031 125.78182220458984 108.78762817382812 126.68971252441406 C110.01954650878906 127.5159912109375 111.22051239013672 128.38327026367188 112.38800048828125 129.2899169921875 C113.55548858642578 130.19656372070312 114.68948364257812 131.14259338378906 115.78746795654297 132.12637329101562 C116.88544464111328 133.1101531982422 117.9474105834961 134.13169860839844 118.97081756591797 135.18939208984375 C119.99422454833984 136.24708557128906 120.97908020019531 137.34091186523438 121.92284393310547 138.46926879882812 C122.86660766601562 139.59762573242188 123.76927947998047 140.76051330566406 124.62833404541016 141.95631408691406 C125.48738098144531 143.15211486816406 126.30281066894531 144.38082885742188 127.07207489013672 145.64083862304688 C127.84133911132812 146.90084838867188 128.564453125 148.19215393066406 129.23886108398438 149.5131378173828 C129.83163452148438 150.67352294921875 130.41102600097656 151.88450622558594 130.9683837890625 153.1561279296875 C131.52574157714844 154.42774963378906 132.06106567382812 155.760009765625 132.5657196044922 157.16293334960938 C133.07037353515625 158.5658721923828 133.54434204101562 160.03948974609375 133.97900390625 161.5938262939453 C134.4136505126953 163.14816284179688 134.80897521972656 164.78321838378906 135.15631103515625 166.50904846191406 C135.503662109375 168.23486328125 135.80303955078125 170.05145263671875 136.0457763671875 171.96884155273438"></path>
<path fill="#44151F" fill-opacity="1.0"  filling="0" d="M136.0457763671875 171.96884155273438 C136.73605346679688 169.32554626464844 137.56764221191406 167.0144500732422 138.51318359375 165.0034942626953 C139.45872497558594 162.99253845214844 140.51820373535156 161.2816925048828 141.66427612304688 159.8388671875 C142.8103485107422 158.39605712890625 144.04298400878906 157.22125244140625 145.33485412597656 156.28237915039062 C146.626708984375 155.343505859375 147.977783203125 154.64056396484375 149.3607177734375 154.1414337158203 C150.74363708496094 153.64231872558594 152.15841674804688 153.34701538085938 153.5776824951172 153.22344970703125 C154.9969482421875 153.09988403320312 156.42068481445312 153.14804077148438 157.82154846191406 153.3358154296875 C159.222412109375 153.5236053466797 160.60040283203125 153.85101318359375 161.9281463623047 154.28594970703125 C163.25588989257812 154.72088623046875 164.5333709716797 155.26336669921875 165.73326110839844 155.88128662109375 C166.93313598632812 156.4991912841797 168.055419921875 157.19253540039062 169.0727081298828 157.92919921875 C169.77359008789062 156.25787353515625 170.61456298828125 154.75367736816406 171.5756378173828 153.41433715820312 C172.53671264648438 152.0749969482422 173.6178741455078 150.9005126953125 174.7991180419922 149.8886260986328 C175.98036193847656 148.87672424316406 177.26168823242188 148.02740478515625 178.62307739257812 147.33840942382812 C179.98446655273438 146.64939880371094 181.42593383789062 146.12071228027344 182.92745971679688 145.7500457763672 C184.42898559570312 145.37939453125 185.99057006835938 145.16677856445312 187.5922088623047 145.10992431640625 C189.19384765625 145.05307006835938 190.8355255126953 145.1519775390625 192.4972381591797 145.4043731689453 C194.15896606445312 145.65676879882812 195.84072875976562 146.06265258789062 197.5225067138672 146.61976623535156 C198.7250518798828 143.67373657226562 200.0535888671875 141.1129913330078 201.47116088867188 138.89004516601562 C202.8887481689453 136.66709899902344 204.3953857421875 134.78196716308594 205.95416259765625 133.1871337890625 C207.512939453125 131.59230041503906 209.12384033203125 130.28778076171875 210.7499542236328 129.22608947753906 C212.37606811523438 128.16439819335938 214.01739501953125 127.34552764892578 215.63702392578125 126.72199249267578 C217.2566375732422 126.09845733642578 218.8545379638672 125.67025756835938 220.39381408691406 125.38990783691406 C221.93309020996094 125.10955810546875 223.41371154785156 124.97705841064453 224.79879760742188 124.94491577148438 C226.18386840820312 124.91277313232422 227.473388671875 124.98098754882812 228.63043212890625 125.1020736694336 C229.7874755859375 125.22315979003906 230.81204223632812 125.39712524414062 231.6671905517578 125.57646179199219 C232.5223388671875 125.75580596923828 233.20809936523438 125.9405288696289 233.68753051757812 126.0831527709961 C234.16696166992188 126.22576904296875 234.4400634765625 126.32627868652344 234.46990966796875 126.33720397949219 C234.4450225830078 126.30400085449219 234.27914428710938 126.08973693847656 233.9750213623047 125.72343444824219 C233.70481872558594 125.39668273925781 233.3262939453125 124.94901275634766 232.84349060058594 124.40194702148438 C232.36070251464844 123.85487365722656 231.77365112304688 123.20840454101562 231.08642578125 122.48405456542969 C230.39920043945312 121.75970458984375 229.61180114746094 120.95747375488281 228.72830200195312 120.09888458251953 C227.84481811523438 119.24029541015625 226.865234375 118.32534790039062 225.79364013671875 117.37555694580078 C224.72206115722656 116.42576599121094 223.55845642089844 115.4411392211914 222.30694580078125 114.44319915771484 C221.05543518066406 113.44525146484375 219.71600341796875 112.43399047851562 218.292724609375 111.43092346191406 C216.86944580078125 110.4278564453125 215.36233520507812 109.43299102783203 213.7754669189453 108.46784973144531 C212.1885986328125 107.5027084350586 210.52198791503906 106.5672836303711 208.77969360351562 105.68310546875 C207.0373992919922 104.7989273071289 205.2194366455078 103.96598815917969 203.3298797607422 103.205810546875 C201.44033813476562 102.44563293457031 199.4792022705078 101.75821685791016 197.4505615234375 101.16508483886719 C195.42193603515625 100.57196044921875 193.3258056640625 100.07310485839844 191.16624450683594 99.6900634765625 C190.06826782226562 101.00023651123047 188.97865295410156 102.29124450683594 187.8913116455078 103.56159973144531 C186.80397033691406 104.83195495605469 185.71890258789062 106.08165740966797 184.63003540039062 107.3092041015625 C183.54115295410156 108.53675842285156 182.44847106933594 109.74215698242188 181.34588623046875 110.92390441894531 C180.24330139160156 112.10565948486328 179.1308135986328 113.26376342773438 178.00234985351562 114.396728515625 C176.87387084960938 115.52969360351562 175.72943115234375 116.63751220703125 174.56289672851562 117.71869659423828 C173.39637756347656 118.79988098144531 172.20777893066406 119.85442352294922 170.99102783203125 120.88082885742188 C169.77427673339844 121.90724182128906 168.5293731689453 122.905517578125 167.25021362304688 123.87416076660156 C165.9710693359375 124.84280395507812 164.65768432617188 125.78182220458984 163.303955078125 126.68971252441406 C162.07203674316406 127.5159912109375 160.87107849121094 128.38327026367188 159.70358276367188 129.2899169921875 C158.53610229492188 130.19656372070312 157.402099609375 131.14259338378906 156.3041229248047 132.12637329101562 C155.20614624023438 133.1101531982422 154.14418029785156 134.13169860839844 153.1207733154297 135.18939208984375 C152.0973663330078 136.24708557128906 151.11251831054688 137.34091186523438 150.1687469482422 138.46926879882812 C149.22499084472656 139.59762573242188 148.3223114013672 140.76051330566406 147.4632568359375 141.95631408691406 C146.60421752929688 143.15211486816406 145.78878784179688 144.38082885742188 145.01951599121094 145.64083862304688 C144.250244140625 146.90084838867188 143.52713012695312 148.19215393066406 142.85272216796875 149.5131378173828 C142.25994873046875 150.67352294921875 141.68055725097656 151.88450622558594 141.12319946289062 153.1561279296875 C140.5658416748047 154.42774963378906 140.030517578125 155.760009765625 139.52586364746094 157.16293334960938 C139.02120971679688 158.5658721923828 138.5472412109375 160.03948974609375 138.11257934570312 161.5938262939453 C137.6779327392578 163.14816284179688 137.28260803222656 164.78321838378906 136.9352569580078 166.50904846191406 C136.58792114257812 168.23486328125 136.28854370117188 170.05145263671875 136.0457763671875 171.96884155273438"></path>
<path fill="#FFC906" fill-opacity="1.0"  filling="0" d="M135.27442932128906 121.949462890625 C133.7264862060547 122.36418151855469 132.24082946777344 122.70278930664062 130.91070556640625 122.82022857666016 C129.58058166503906 122.93766784667969 128.40597534179688 122.83394622802734 127.4801025390625 122.364013671875 C126.55424499511719 121.89408111572266 125.87712097167969 121.05794525146484 125.54197692871094 119.71055603027344 C125.20683288574219 118.36316680908203 125.21365356445312 116.50453186035156 125.65567016601562 113.98959350585938 C125.65567016601562 113.98959350585938 126.80169677734375 115.37062072753906 129.0909423828125 117.35713195800781 C128.69833374023438 118.83212280273438 128.08592224121094 121.31768798828125 128.3693389892578 121.45870971679688 C128.6181640625 121.58311462402344 129.47523498535156 119.69338989257812 130.1028594970703 118.20869445800781 C130.79959106445312 118.781005859375 131.57925415039062 119.388916015625 132.4413604736328 120.01738739013672 C133.303466796875 120.64585876464844 134.24798583984375 121.2948989868164 135.27442932128906 121.949462890625"></path>
<path fill="#FFC906" fill-opacity="1.0"  filling="0" d="M137.18626403808594 121.949462890625 C138.7342071533203 122.36418151855469 140.21986389160156 122.70278930664062 141.54998779296875 122.82022857666016 C142.88011169433594 122.93766784667969 144.0547332763672 122.83394622802734 144.9805908203125 122.364013671875 C145.90646362304688 121.89408111572266 146.5835723876953 121.05794525146484 146.91873168945312 119.71055603027344 C147.25387573242188 118.36316680908203 147.24703979492188 116.50453186035156 146.80502319335938 113.98959350585938 C146.80502319335938 113.98959350585938 145.6590118408203 115.37062072753906 143.36973571777344 117.35713195800781 C143.7623291015625 118.83212280273438 144.374755859375 121.31768798828125 144.0913543701172 121.45870971679688 C143.84254455566406 121.58311462402344 142.98545837402344 119.69338989257812 142.3578338623047 118.20869445800781 C141.66041564941406 118.781005859375 140.8807373046875 119.388916015625 140.01881408691406 120.01738739013672 C139.15689086914062 120.64585876464844 138.21270751953125 121.2948989868164 137.18626403808594 121.949462890625"></path></svg>