<svg xmlns="http://www.w3.org/2000/svg" viewBox="0.0 0.0 512.0 512.0" height="512.0px" width="512.0px"><path fill="#FF8757" fill-opacity="1.0"  filling="0" d="M403.5746765136719 407.8375549316406 L396.7091369628906 410.8362731933594 L395.16015625 410.16766357421875 L341.958740234375 385.77783203125 L343.5867919921875 379.14520263671875 L348.5679626464844 371.7002258300781 L351.23236083984375 367.7208557128906 L357.663330078125 372.0902404785156 L400.08673095703125 400.84942626953125 L401.82513427734375 402.0306396484375 L403.5746765136719 407.8375549316406 Z"></path>
<path fill="#3D2015" fill-opacity="1.0"  filling="0" d="M412.750244140625 406.4134216308594 C412.58306884765625 407.271484375 408.99371337890625 414.91815185546875 405.53924560546875 422.0956726074219 C404.8260498046875 422.0845947265625 404.11285400390625 422.07342529296875 403.3885803222656 422.0511474609375 C400.40093994140625 421.9842529296875 397.3587951660156 421.90625 394.3711853027344 422.006591796875 C394.5606689453125 419.47589111328125 394.8949890136719 413.79156494140625 395.16241455078125 410.169921875 L395.16241455078125 410.1253356933594 C395.20697021484375 409.6015930175781 397.4914245605469 407.5166320800781 398.1500244140625 405.8785400390625 C398.2725524902344 405.5776672363281 399.944091796875 401.14141845703125 399.99981689453125 400.82940673828125 C399.99981689453125 400.82940673828125 400.03326416015625 400.82940673828125 400.0889587402344 400.8516845703125 C400.791015625 401.09686279296875 405.4501037597656 402.72381591796875 407.2441711425781 403.2821044921875 C408.157958984375 403.5606689453125 409.9866027832031 404.2850036621094 411.29046630859375 405.0205078125 C411.3795471191406 405.0650634765625 411.45758056640625 405.109619140625 411.53558349609375 405.1542053222656 C412.2933349609375 405.611083984375 412.8282775878906 406.0679931640625 412.750244140625 406.4134216308594 Z"></path>
<path fill="#FF8757" fill-opacity="1.0"  filling="0" d="M199.48983764648438 405.2199401855469 C199.48983764648438 405.2199401855469 199.48983764648438 405.2199401855469 199.47869873046875 405.2310791015625 L196.31280517578125 410.3805236816406 L189.51416015625 407.2257995605469 L189.0126953125 405.69915771484375 L173.72039794921875 358.55194091796875 L179.048095703125 353.3356628417969 L192.67999267578125 351.49700927734375 L192.86944580078125 353.0236511230469 L193.90582275390625 361.1595458984375 L199.48983764648438 405.2199401855469 Z"></path>
<path fill="#3D2015" fill-opacity="1.0"  filling="0" d="M201.52130126953125 417.3719482421875 C201.5101318359375 418.2634582519531 201.37640380859375 418.954345703125 201.0421142578125 419.0657958984375 C199.47091674804688 419.6007080078125 170.41302490234375 421.7524719238281 169.44354248046875 421.57305908203125 C168.7080078125 421.4393310546875 168.51861572265625 420.94903564453125 168.3514404296875 420.2024230957031 C168.32916259765625 420.1021728515625 168.306884765625 420.0018310546875 168.28460693359375 419.9015197753906 C168.0283203125 418.66461181640625 168.1954345703125 417.2828369140625 168.69696044921875 416.5908203125 C169.03125 416.11163330078125 169.61065673828125 415.7550354003906 170.06756591796875 415.4207458496094 C172.28515625 413.804931640625 174.82696533203125 412.533447265625 177.34539794921875 411.4413757324219 C178.6046142578125 410.8953552246094 185.1146240234375 407.5845947265625 189.014892578125 405.70135498046875 C189.48291015625 405.4784851074219 192.43707275390625 406.41455078125 194.1866455078125 406.1582336425781 C194.4986572265625 406.1136474609375 199.18002319335938 405.3336181640625 199.48092651367188 405.23333740234375 C199.49203491210938 405.22216796875 199.49203491210938 405.22216796875 199.49203491210938 405.22216796875 C199.49203491210938 405.22216796875 200.53955078125 410.75048828125 200.98529052734375 412.722900390625 C201.22039794921875 413.7157897949219 201.53240966796875 415.8564453125 201.52130126953125 417.3719482421875 Z"></path>
<path fill="#3D2015" fill-opacity="1.0"  filling="0" d="M251.331787109375 216.562255859375 C250.44027709960938 212.38674926757812 249.96221923828125 208.2614288330078 249.898681640625 203.99789428710938 C249.8017578125 197.5391082763672 249.68472290039062 190.07518005371094 245.84579467773438 184.50340270996094 C243.31619262695312 180.83160400390625 238.84988403320312 179.1990966796875 234.5740966796875 178.69094848632812 C232.68975830078125 178.46697998046875 227.7186279296875 177.94097900390625 225.95126342773438 179.89109802246094 C222.828857421875 179.49661254882812 219.03558349609375 181.52474975585938 216.8358154296875 183.2107696533203 C212.46090698242188 186.56385803222656 210.83505249023438 190.9789276123047 210.0037841796875 196.32334899902344 C208.81582641601562 203.96446228027344 210.87628173828125 211.5900115966797 209.92129516601562 219.2110595703125 C209.76971435546875 220.4201202392578 209.57473754882812 225.2474822998047 210.68576049804688 225.277587890625 C211.8580322265625 225.3098907470703 216.78570556640625 225.07701110839844 217.70947265625 224.9009246826172 C217.9412841796875 224.8563690185547 218.16973876953125 224.5699462890625 218.14520263671875 224.32925415039062 C218.034912109375 223.24612426757812 218.1663818359375 222.18414306640625 218.36697387695312 221.12548828125 C218.37030029296875 221.19125366210938 218.37591552734375 221.25811767578125 218.37811279296875 221.32272338867188 C218.426025390625 222.4950408935547 218.18087768554688 224.79954528808594 219.559326171875 225.2285614013672 C220.2335205078125 225.4380645751953 221.0146484375 225.18954467773438 221.69662475585938 225.13607788085938 C222.94024658203125 225.0402069091797 224.19058227539062 225.05807495117188 225.435302734375 224.97671508789062 C226.11172485351562 224.93214416503906 226.78704833984375 224.8753204345703 227.461181640625 224.79954528808594 C228.02618408203125 224.73602294921875 228.81622314453125 224.45742797851562 229.37008666992188 224.53097534179688 C233.01626586914062 225.0201873779297 237.29425048828125 223.73419189453125 240.863525390625 223.29071044921875 C242.78353881835938 223.05221557617188 244.59326171875 222.52401733398438 246.46649169921875 222.05712890625 C247.57192993164062 221.78074645996094 248.72866821289062 221.74957275390625 249.79171752929688 221.30491638183594 C249.94329833984375 221.2413787841797 250.09036254882812 221.17120361328125 250.23858642578125 221.1009979248047 C250.69430541992188 220.88369750976562 251.12893676757812 220.7131805419922 251.40640258789062 220.26524353027344 C252.1920166015625 218.99710083007812 251.62594604492188 217.93959045410156 251.331787109375 216.562255859375 Z"></path>
<path fill="#FF8757" fill-opacity="1.0"  filling="0" d="M239.56756591796875 206.8517608642578 L247.51394653320312 229.52549743652344 L232.95159912109375 235.31121826171875 L223.86294555664062 212.8302764892578 L239.56756591796875 206.8517608642578 Z"></path>
<path fill="#FF8757" fill-opacity="1.0"  filling="0" d="M241.52432250976562 211.23898315429688 C240.65512084960938 213.14451599121094 236.93206787109375 217.2241668701172 231.42608642578125 219.6656951904297 C227.78103637695312 221.28150939941406 224.59396362304688 223.43333435058594 221.6175537109375 220.3677520751953 C217.4932861328125 216.12094116210938 215.36489868164062 210.41432189941406 214.48458862304688 204.66319274902344 C214.28399658203125 203.35935974121094 214.06112670898438 201.98873901367188 213.8828125 200.5946807861328 C213.87164306640625 200.5389404296875 213.87164306640625 200.4832305908203 213.86053466796875 200.42752075195312 C213.79367065429688 199.79234313964844 213.726806640625 199.15716552734375 213.67108154296875 198.52195739746094 L213.67108154296875 198.48854064941406 C213.58193969726562 197.09559631347656 213.57080078125 195.71267700195312 213.726806640625 194.38661193847656 C213.98309326171875 192.26820373535156 214.09454345703125 189.71636962890625 215.65460205078125 187.7439422607422 C216.84701538085938 186.21728515625 220.69259643554688 184.95697021484375 222.30844116210938 183.8983154296875 C224.63742065429688 182.349365234375 226.87838745117188 181.69187927246094 229.68655395507812 182.0707550048828 C233.38729858398438 182.57223510742188 236.90866088867188 184.35520935058594 239.41708374023438 187.1310577392578 C242.18182373046875 190.20777893066406 243.46331787109375 195.00064086914062 243.9981689453125 199.06802368164062 C244.455078125 202.38877868652344 242.13723754882812 209.88949584960938 241.52432250976562 211.23898315429688 Z"></path>
<path fill="#3D2015" fill-opacity="1.0"  filling="0" d="M217.91897583007812 203.18443298339844 C217.92568969726562 203.05625915527344 217.92013549804688 202.93482971191406 217.9078369140625 202.83004760742188 C217.82095336914062 202.1257781982422 216.86373901367188 201.6399383544922 216.50711059570312 202.451171875 C216.38449096679688 202.72975158691406 216.40127563476562 203.04847717285156 216.44247436523438 203.3504638671875 C216.49822998046875 203.7627716064453 216.69100952148438 204.25753784179688 217.10549926757812 204.28988647460938 C217.68499755859375 204.33444213867188 217.89337158203125 203.70706176757812 217.91897583007812 203.18443298339844 Z"></path>
<path fill="#3D2015" fill-opacity="1.0"  filling="0" d="M229.44696044921875 201.34019470214844 C229.45364379882812 201.21200561523438 229.4481201171875 201.090576171875 229.43582153320312 200.9857940673828 C229.34890747070312 200.2815399169922 228.3917236328125 199.79566955566406 228.03399658203125 200.60691833496094 C227.911376953125 200.885498046875 227.9281005859375 201.2042236328125 227.96826171875 201.50621032714844 C228.02395629882812 201.91851806640625 228.21673583984375 202.41439819335938 228.63125610351562 202.4456329345703 C229.21298217773438 202.49017333984375 229.42135620117188 201.86167907714844 229.44696044921875 201.34019470214844 Z"></path>
<path fill="#EB6631" fill-opacity="1.0"  filling="0" d="M227.93927001953125 221.79747009277344 C227.7197265625 221.79747009277344 227.5113525390625 221.6659698486328 227.42327880859375 221.45091247558594 C227.30740356445312 221.16561889648438 227.44451904296875 220.84136962890625 227.72976684570312 220.72434997558594 C227.77322387695312 220.70651245117188 232.089111328125 218.94581604003906 233.87762451171875 217.76686096191406 C235.6639404296875 216.58897399902344 238.54678344726562 213.707275390625 238.57574462890625 213.67941284179688 C238.79306030273438 213.4609832763672 239.14739990234375 213.46209716796875 239.36358642578125 213.6782989501953 C239.58203125 213.89559936523438 239.58203125 214.2488250732422 239.36471557617188 214.4661407470703 C239.24325561523438 214.58761596679688 236.37155151367188 217.4581756591797 234.49166870117188 218.6973419189453 C232.61175537109375 219.93649291992188 228.33151245117188 221.6837921142578 228.14987182617188 221.75733947753906 C228.08078002929688 221.7852020263672 228.00946044921875 221.79747009277344 227.93927001953125 221.79747009277344 Z"></path>
<path fill="#EB6631" fill-opacity="1.0"  filling="0" d="M222.32852172851562 210.33856201171875 C222.23931884765625 210.33856201171875 222.14794921875 210.31741333007812 222.06439208984375 210.27169799804688 C219.90475463867188 209.10499572753906 219.7320556640625 208.71832275390625 219.66741943359375 208.5734405517578 C219.59274291992188 208.404052734375 219.43563842773438 208.05189514160156 220.38839721679688 203.3727264404297 C220.44967651367188 203.07073974609375 220.74609375 202.87908935546875 221.04476928710938 202.9381561279297 C221.34674072265625 202.9994354248047 221.5406494140625 203.2936248779297 221.4793701171875 203.59449768066406 C221.10269165039062 205.44656372070312 220.73272705078125 207.5504608154297 220.71490478515625 208.12322998046875 C220.98681640625 208.3628387451172 221.85824584960938 208.89324951171875 222.59371948242188 209.29107666015625 C222.864501953125 209.43707275390625 222.96475219726562 209.77581787109375 222.81881713867188 210.04660034179688 C222.718505859375 210.2316131591797 222.52685546875 210.33856201171875 222.32852172851562 210.33856201171875 Z"></path>
<path fill="#3D2015" fill-opacity="1.0"  filling="0" d="M232.13034057617188 196.1740264892578 C231.07504272460938 195.69374084472656 229.8648681640625 195.4909210205078 228.71038818359375 195.4898223876953 C227.8935546875 195.48870849609375 226.45269775390625 195.68707275390625 225.72613525390625 196.12835693359375 C225.225830078125 196.4325408935547 224.783447265625 197.516845703125 225.91226196289062 197.6505584716797 C226.7056884765625 197.744140625 227.40658569335938 197.5101318359375 228.175537109375 197.3831024169922 C229.42694091796875 197.17694091796875 231.5965576171875 197.2593994140625 232.04898071289062 197.26722717285156 C232.61508178710938 197.27725219726562 232.66409301757812 196.41697692871094 232.13034057617188 196.1740264892578 Z"></path>
<path fill="#3D2015" fill-opacity="1.0"  filling="0" d="M217.43759155273438 199.37890625 C216.72442626953125 199.78005981445312 215.95553588867188 199.83580017089844 215.164306640625 200.0141143798828 C214.77432250976562 200.10324096679688 214.31741333007812 200.24810791015625 213.86053466796875 200.42640686035156 C213.79367065429688 199.7912139892578 213.726806640625 199.15603637695312 213.67108154296875 198.5208740234375 C213.74911499023438 198.47628784179688 213.82711791992188 198.44285583496094 213.90512084960938 198.40943908691406 C214.68511962890625 198.0862579345703 216.14495849609375 197.70738220214844 217.01522827148438 197.84109497070312 C217.61590576171875 197.94139099121094 218.47390747070312 198.79945373535156 217.43759155273438 199.37890625 Z"></path>
<path fill="#EB6631" fill-opacity="1.0"  filling="0" d="M222.78424072265625 213.41641235351562 C221.73004150390625 213.41641235351562 220.96340942382812 213.23255920410156 220.909912109375 213.2191925048828 C220.61126708984375 213.1456298828125 220.42962646484375 212.84364318847656 220.503173828125 212.54498291015625 C220.57675170898438 212.24635314941406 220.87872314453125 212.06471252441406 221.17733764648438 212.13714599609375 C221.19635009765625 212.1416015625 223.1163330078125 212.5962371826172 224.92489624023438 211.9666290283203 C225.901123046875 211.62562561035156 226.5618896484375 211.2133331298828 226.8873291015625 210.73863220214844 L227.05331420898438 210.49681091308594 L227.40771484375 210.4254913330078 C227.71527099609375 210.4254913330078 227.96487426757812 210.6750946044922 227.96487426757812 210.98265075683594 C227.96487426757812 211.13755798339844 227.9013671875 211.27798461914062 227.798828125 211.37939453125 C227.58935546875 211.68138122558594 227.03665161132812 212.41015625 225.29266357421875 213.01856994628906 C224.41119384765625 213.3250274658203 223.52642822265625 213.41641235351562 222.78424072265625 213.41641235351562 Z"></path>
<path fill="#3D2015" fill-opacity="1.0"  filling="0" d="M250.510498046875 219.7415008544922 C249.21224975585938 219.70693969726562 247.89508056640625 220.3131561279297 246.676025390625 220.7466278076172 C246.63027954101562 220.4112091064453 246.38851928710938 220.1237030029297 246.03189086914062 220.069091796875 C246.1422119140625 219.57989501953125 246.11325073242188 219.09852600097656 245.8145751953125 218.70291137695312 C245.56277465820312 218.36972045898438 245.14822387695312 218.35968017578125 244.89749145507812 218.70291137695312 C244.83285522460938 218.7909698486328 244.79833984375 218.89012145996094 244.75039672851562 218.98370361328125 C244.74929809570312 218.89012145996094 244.7559814453125 218.7909698486328 244.74484252929688 218.7051239013672 C244.69357299804688 218.2995147705078 244.42947387695312 218.06773376464844 244.13528442382812 217.9986114501953 C244.07843017578125 217.16285705566406 243.98263549804688 216.32933044433594 243.82882690429688 215.4969024658203 C243.79428100585938 215.3074951171875 243.70736694335938 215.18267822265625 243.60150146484375 215.09017944335938 C243.52682495117188 214.5697479248047 243.41314697265625 214.05715942382812 243.23712158203125 213.5568084716797 C243.13681030273438 213.2726593017578 242.90057373046875 213.1199951171875 242.65206909179688 213.08322143554688 C244.81280517578125 208.2179718017578 246.37063598632812 202.37539672851562 246.27035522460938 197.0900421142578 C246.1689453125 191.76898193359375 242.80691528320312 186.156005859375 238.39523315429688 183.33670043945312 C235.90576171875 181.74539184570312 233.2926025390625 180.26332092285156 230.25491333007812 180.08946228027344 C227.72976684570312 179.944580078125 224.73104858398438 180.98316955566406 222.4510498046875 181.9660186767578 C218.65335083007812 183.60301208496094 215.3348388671875 186.4134063720703 213.97085571289062 190.22116088867188 C213.87164306640625 190.43287658691406 213.7969970703125 190.6512908935547 213.762451171875 190.88197326660156 C213.56857299804688 191.54946899414062 213.42813110351562 192.2425994873047 213.36016845703125 192.9669189453125 C213.30667114257812 193.53302001953125 213.458251953125 194.7632598876953 213.726806640625 194.385498046875 C215.23452758789062 192.26043701171875 217.05426025390625 188.85609436035156 218.90969848632812 187.0185089111328 C220.0362548828125 188.93743896484375 222.75747680664062 190.369384765625 224.4134521484375 191.26417541503906 C225.85986328125 192.0453643798828 227.40106201171875 192.62705993652344 228.9844970703125 193.0660858154297 C230.61483764648438 193.51852416992188 231.60211181640625 193.7759246826172 232.66079711914062 195.1354522705078 C233.7940673828125 196.58969116210938 234.74349975585938 198.01828002929688 235.34524536132812 199.78118896484375 C236.14089965820312 202.11354064941406 235.59152221679688 203.33485412597656 235.87344360351562 205.6103973388672 C236.17318725585938 208.0363311767578 237.609619140625 209.1963653564453 238.61474609375 211.3114013671875 C240.38546752929688 215.03892517089844 238.47991943359375 218.50010681152344 238.58465576171875 222.2097930908203 C238.6058349609375 222.9720001220703 239.1685791015625 223.43333435058594 239.8873291015625 223.51246643066406 C241.633544921875 223.70523071289062 249.15097045898438 221.52444458007812 249.15097045898438 221.52444458007812 C249.15097045898438 221.52444458007812 250.830322265625 219.7504119873047 250.510498046875 219.7415008544922 Z"></path>
<path fill="#FF8757" fill-opacity="1.0"  filling="0" d="M275.6302490234375 301.73223876953125 C275.6302490234375 301.73223876953125 256.3474426269531 317.124755859375 255.81259155273438 317.124755859375 C255.27767944335938 317.124755859375 233.78851318359375 309.2496643066406 231.9498291015625 307.5112609863281 C230.83544921875 306.4637756347656 227.2349853515625 292.7148742675781 223.14419555664062 281.15679931640625 C223.14419555664062 281.14569091796875 223.13302612304688 281.12335205078125 223.12191772460938 281.1011047363281 C223.12191772460938 281.1011047363281 223.12191772460938 281.1011047363281 223.12191772460938 281.0899353027344 C220.44635009765625 273.5435485839844 218.00595092773438 266.3548583984375 216.91384887695312 262.92156982421875 C216.14495849609375 260.5145263671875 215.476318359375 257.41552734375 214.90802001953125 254.14935302734375 C214.26168823242188 250.41517639160156 213.74911499023438 246.48150634765625 213.39248657226562 243.1373291015625 C212.94674682617188 238.83482360839844 212.74618530273438 235.52406311035156 212.85763549804688 234.91114807128906 C212.94674682617188 234.38742065429688 213.62652587890625 233.69651794433594 214.729736328125 232.9833526611328 C215.9332275390625 232.20327758789062 217.65045166015625 231.37867736816406 219.66741943359375 230.67662048339844 L219.66741943359375 230.66546630859375 C219.9906005859375 230.55406188964844 220.32485961914062 230.44261169433594 220.67034912109375 230.34234619140625 C221.75128173828125 229.99688720703125 222.90017700195312 229.6959991455078 224.092529296875 229.4619903564453 C230.12225341796875 228.2584686279297 231.24777221679688 225.30430603027344 231.24777221679688 225.30430603027344 C231.24777221679688 225.30430603027344 240.1536865234375 225.83921813964844 241.50204467773438 225.30430603027344 C242.2041015625 225.03688049316406 247.94412231445312 226.42982482910156 253.43899536132812 228.04676818847656 C254.72048950195312 228.42564392089844 255.979736328125 228.81564331054688 257.16204833984375 229.19454956054688 C257.16204833984375 229.19454956054688 257.1731872558594 229.19454956054688 257.19549560546875 229.20567321777344 C257.7526550292969 229.3951416015625 258.2875061035156 229.57342529296875 258.8001708984375 229.75173950195312 C261.5091247558594 230.67662048339844 263.526123046875 231.5235595703125 263.8492431640625 232.00271606445312 C264.4510192871094 232.91648864746094 264.4176025390625 243.248779296875 264.4621887207031 253.2578887939453 C264.47332763671875 255.16342163085938 264.4844665527344 257.070068359375 264.5067443847656 258.886474609375 L264.5067443847656 258.9644775390625 C264.5736083984375 264.37017822265625 264.70733642578125 269.0516357421875 265.0527648925781 271.21343994140625 C265.1864929199219 272.06036376953125 266.77667236328125 279.8518981933594 267.15557861328125 281.1668395996094 C269.70855712890625 290.2298583984375 275.6302490234375 301.73223876953125 275.6302490234375 301.73223876953125 Z"></path>
<path fill="#FF8757" fill-opacity="1.0"  filling="0" d="M221.2386474609375 237.71043395996094 C221.2386474609375 237.71043395996094 221.10494995117188 238.30104064941406 220.87091064453125 239.27052307128906 C219.90142822265625 243.37245178222656 217.34848022460938 254.15048217773438 217.170166015625 254.15048217773438 L175.28387451171875 254.15048217773438 C175.28387451171875 254.15048217773438 175.205810546875 242.72610473632812 175.339599609375 241.4669189453125 C175.45098876953125 240.49742126464844 202.81396484375 234.30052185058594 214.9637451171875 231.59153747558594 C217.05874633789062 231.12347412109375 218.69793701171875 230.76687622070312 219.66741943359375 230.55516052246094 C220.313720703125 230.4102783203125 220.67034912109375 230.33230590820312 220.67034912109375 230.33230590820312 L220.67034912109375 230.3434295654297 L221.2386474609375 237.71043395996094 Z"></path>
<path fill="#FF8757" fill-opacity="1.0"  filling="0" d="M165.208984375 206.49295043945312 C165.208984375 206.49295043945312 165.15325927734375 236.5214080810547 165.5655517578125 241.64186096191406 C165.82745361328125 244.89353942871094 166.7333984375 248.45835876464844 169.14154052734375 250.8074188232422 C171.41705322265625 253.02833557128906 173.732666015625 254.06021118164062 174.92169189453125 254.12818908691406 C176.1107177734375 254.19615173339844 180.93359375 254.60403442382812 181.26129150390625 251.14283752441406 C181.43402099609375 249.3186492919922 181.16204833984375 247.47996520996094 180.69964599609375 245.71815490722656 C180.34857177734375 244.38095092773438 179.76019287109375 243.1941680908203 179.49945068359375 241.84243774414062 C178.5098876953125 236.69192504882812 173.5343017578125 206.53195190429688 173.5343017578125 206.53195190429688 L165.208984375 206.49295043945312 Z"></path>
<path fill="#FF8757" fill-opacity="1.0"  filling="0" d="M303.1168518066406 253.25900268554688 L261.2416687011719 253.25900268554688 C261.10797119140625 253.25900268554688 259.8376159667969 248.05384826660156 258.7444152832031 243.50616455078125 C257.89752197265625 239.97256469726562 257.16204833984375 236.81893920898438 257.16204833984375 236.81893920898438 L257.16204833984375 229.19454956054688 C257.16204833984375 229.19454956054688 257.1731872558594 229.19454956054688 257.19549560546875 229.20567321777344 C257.3292236328125 229.2279815673828 257.89752197265625 229.3616943359375 258.811279296875 229.56227111816406 C267.0040283203125 231.3898162841797 302.9273986816406 239.47108459472656 303.0611267089844 240.5742950439453 C303.1948547363281 241.8346405029297 303.1168518066406 253.25900268554688 303.1168518066406 253.25900268554688 Z"></path>
<path fill="#FF8757" fill-opacity="1.0"  filling="0" d="M304.8697204589844 205.63711547851562 C304.8697204589844 205.63711547851562 299.8941345214844 235.79708862304688 298.9045715332031 240.9476318359375 C298.6449279785156 242.29933166503906 298.0566101074219 243.4872283935547 297.7044372558594 244.82447814941406 C297.2408752441406 246.5862579345703 296.9700927734375 248.4249267578125 297.142822265625 250.24913024902344 C297.4704284667969 253.70919799804688 302.2933654785156 253.30242919921875 303.4823303222656 253.23448181152344 C304.67138671875 253.16539001464844 306.98590087890625 252.1334991455078 309.26251220703125 249.9136962890625 C311.67059326171875 247.56463623046875 312.57659912109375 243.99981689453125 312.83843994140625 240.74815368652344 C313.25189208984375 235.627685546875 313.1950378417969 205.5992431640625 313.1950378417969 205.5992431640625 L304.8697204589844 205.63711547851562 Z"></path>
<path fill="#3D2015" fill-opacity="1.0"  filling="0" d="M265.6712341308594 274.36260986328125 C265.6712341308594 274.36260986328125 257.47296142578125 277.8360595703125 242.76016235351562 279.507568359375 C228.2479248046875 281.15679931640625 223.2879638671875 281.16796875 223.15423583984375 281.16796875 C223.15423583984375 281.16796875 223.15423583984375 281.16796875 223.14306640625 281.15679931640625 C223.14306640625 281.14569091796875 223.1319580078125 281.12335205078125 223.12078857421875 281.1011047363281 C223.12078857421875 281.1011047363281 223.12078857421875 281.1011047363281 223.12078857421875 281.0899353027344 C222.49679565429688 279.8976135253906 214.69406127929688 264.7613525390625 213.34567260742188 256.3791809082031 C213.2342529296875 255.6771240234375 213.1451416015625 254.93052673339844 213.08938598632812 254.15048217773438 C212.84420776367188 250.82861328125 213.04483032226562 246.85035705566406 213.39028930664062 243.13844299316406 C213.7802734375 238.98077392578125 214.35977172851562 235.15744018554688 214.72747802734375 232.98446655273438 C214.82778930664062 232.38270568847656 214.90579223632812 231.91465759277344 214.96151733398438 231.59153747558594 C217.05648803710938 231.12347412109375 218.6956787109375 230.76687622070312 219.6651611328125 230.55516052246094 C219.6651611328125 230.5997314453125 219.654052734375 230.62200927734375 219.6651611328125 230.66659545898438 L219.6651611328125 230.67774963378906 C219.63174438476562 232.3046875 219.7320556640625 235.7825927734375 220.86868286132812 239.27163696289062 C222.4510498046875 244.1090087890625 226.01809692382812 248.9910125732422 233.99908447265625 249.0467529296875 C249.8819580078125 249.13589477539062 253.43789672851562 228.0478515625 253.43789672851562 228.0478515625 C254.71939086914062 228.42674255371094 255.97857666015625 228.8167724609375 257.16094970703125 229.1956329345703 C257.16094970703125 229.1956329345703 257.1720886230469 229.1956329345703 257.1943664550781 229.206787109375 C257.32806396484375 229.22906494140625 257.89642333984375 229.36282348632812 258.8102111816406 229.56338500976562 C258.8102111816406 229.56338500976562 258.8102111816406 229.6302490234375 258.79901123046875 229.75282287597656 C258.7767333984375 230.92291259765625 258.6095886230469 237.34266662597656 258.7433166503906 243.5072784423828 C258.8436279296875 248.6121368408203 259.166748046875 253.53868103027344 259.91339111328125 255.17677307128906 C261.674072265625 258.97784423828125 264.5056457519531 258.888671875 264.5056457519531 258.888671875 L264.5056457519531 258.9666748046875 L265.6712341308594 274.36260986328125 Z"></path>
<path fill="#633C35" fill-opacity="1.0"  filling="0" d="M232.9638671875 306.14617919921875 C232.9638671875 306.14617919921875 178.56231689453125 305.0619201660156 173.6346435546875 306.9195556640625 C168.705810546875 308.77716064453125 163.72802734375 311.04486083984375 165.36724853515625 323.81201171875 C167.02984619140625 336.7574768066406 173.71929931640625 358.5508728027344 173.71929931640625 358.5508728027344 C173.71929931640625 358.5508728027344 196.13894653320312 357.482177734375 196.94015502929688 355.76385498046875 C197.74142456054688 354.0455322265625 195.6865234375 339.74505615234375 195.6865234375 339.74505615234375 C195.6865234375 339.74505615234375 244.90191650390625 345.8717346191406 257.16204833984375 341.2282409667969 C269.4221496582031 336.5836181640625 267.71942138671875 304.62841796875 265.83392333984375 304.81005859375 C246.0029296875 306.7222900390625 232.9638671875 306.14617919921875 232.9638671875 306.14617919921875 Z"></path>
<path fill="#633C35" fill-opacity="1.0"  filling="0" d="M246.8709716796875 306.06817626953125 C246.8709716796875 306.06817626953125 254.90548706054688 305.23687744140625 261.0433654785156 303.1931457519531 C267.1811828613281 301.1494140625 273.3480224609375 296.7911682128906 273.3480224609375 296.7911682128906 C273.3480224609375 296.7911682128906 286.5007629394531 303.7503356933594 290.5870666503906 311.5530090332031 C294.67449951171875 319.3546142578125 295.97607421875 322.5828857421875 297.0904235839844 323.8833312988281 C298.2048034667969 325.18377685546875 334.3755187988281 354.47900390625 337.53363037109375 356.7088317871094 C340.6917419433594 358.9375305175781 354.1597900390625 362.9324951171875 354.7169494628906 364.97509765625 C355.274169921875 367.0188293457031 343.498779296875 386.43084716796875 343.498779296875 386.43084716796875 C343.498779296875 386.43084716796875 324.55145263671875 376.38494873046875 305.1449890136719 368.9544677734375 C285.7373962402344 361.5239562988281 250.81353759765625 338.67413330078125 250.81353759765625 338.67413330078125 L246.0040283203125 321.58331298828125 L246.8709716796875 306.06817626953125 Z"></path>
<path fill="#E9DDCF" fill-opacity="1.0"  filling="0" d="M201.52130126953125 417.3719482421875 C201.5101318359375 418.2634582519531 201.37640380859375 418.954345703125 201.0421142578125 419.0657958984375 C199.47091674804688 419.6007080078125 170.41302490234375 421.7524719238281 169.44354248046875 421.57305908203125 C168.7080078125 421.4393310546875 168.51861572265625 420.94903564453125 168.3514404296875 420.2024230957031 L201.52130126953125 417.3719482421875 Z"></path>
<path fill="#3D2015" fill-opacity="1.0"  filling="0" d="M405.53924560546875 422.0968322753906 C405.53924560546875 422.0968322753906 402.228515625 430.82440185546875 400.4344177246094 431.6044921875 C398.6291809082031 432.3733825683594 390.0686950683594 431.7828063964844 389.42236328125 431.50421142578125 C389.021240234375 431.32586669921875 388.9320373535156 430.4901123046875 388.9320373535156 429.7212219238281 C388.9320373535156 429.2532043457031 388.954345703125 428.818603515625 388.954345703125 428.5400085449219 C388.954345703125 427.79339599609375 394.3711853027344 422.0088195800781 394.3711853027344 422.0088195800781 C394.3711853027344 422.0088195800781 397.41448974609375 417.3942565917969 397.7265625 417.1156921386719 C397.9493713378906 416.92620849609375 401.67242431640625 419.4335021972656 403.901123046875 420.9613342285156 C404.8595275878906 421.61767578125 405.53924560546875 422.0968322753906 405.53924560546875 422.0968322753906 Z"></path>
<path fill="#E9DDCF" fill-opacity="1.0"  filling="0" d="M412.750244140625 406.4134216308594 C412.58306884765625 407.271484375 408.99371337890625 414.91815185546875 405.53924560546875 422.0956726074219 C405.53924560546875 422.0956726074219 402.228515625 430.8233337402344 400.4344177246094 431.6033935546875 C398.6291809082031 432.3722839355469 390.0686950683594 431.7816467285156 389.42236328125 431.5030822753906 C389.021240234375 431.3247985839844 388.9320373535156 430.4890441894531 388.9320373535156 429.7201232910156 C391.76361083984375 429.7869873046875 398.941162109375 429.8872375488281 399.6432189941406 429.37469482421875 C399.944091796875 429.1406555175781 401.4930725097656 426.03045654296875 403.3885803222656 422.0522766113281 C403.5556640625 421.6956787109375 403.7340087890625 421.3390808105469 403.901123046875 420.9601745605469 C406.7650451660156 414.9415283203125 410.17608642578125 407.48431396484375 411.29046630859375 405.0216064453125 C411.3795471191406 405.066162109375 411.45758056640625 405.1107482910156 411.53558349609375 405.15533447265625 C412.2933349609375 405.611083984375 412.8282775878906 406.0679931640625 412.750244140625 406.4134216308594 Z"></path>
<path fill="#98251E" fill-opacity="1.0"  filling="0" d="M179.01361083984375 198.26901245117188 C179.01361083984375 200.5467529296875 179.80255126953125 202.39321899414062 182.566162109375 202.39321899414062 C185.32977294921875 202.39321899414062 186.25799560546875 200.5467529296875 186.25799560546875 198.26901245117188 C186.25799560546875 195.99127197265625 185.60833740234375 194.14480590820312 182.566162109375 194.14480590820312 C179.52392578125 194.14480590820312 179.01361083984375 195.99127197265625 179.01361083984375 198.26901245117188 Z"></path>
<path fill="#98251E" fill-opacity="1.0"  filling="0" d="M175.635986328125 199.86032104492188 L181.19659423828125 199.86032104492188 L181.19659423828125 196.67770385742188 L175.635986328125 196.67770385742188 C174.75677490234375 196.67770385742188 174.044677734375 197.38978576660156 174.044677734375 198.26901245117188 L174.044677734375 198.2701416015625 C174.044677734375 199.1482391357422 174.75677490234375 199.86032104492188 175.635986328125 199.86032104492188 Z"></path>
<path fill="#FF8757" fill-opacity="1.0"  filling="0" d="M172.666259765625 207.31422424316406 C172.666259765625 207.31422424316406 175.22369384765625 205.51901245117188 176.792724609375 204.22299194335938 C178.3616943359375 202.9259033203125 179.17852783203125 199.86143493652344 179.17852783203125 199.86143493652344 L177.3153076171875 199.86143493652344 C177.3153076171875 199.86143493652344 177.56829833984375 195.64137268066406 176.17535400390625 194.19717407226562 C174.78240966796875 192.75294494628906 170.32830810546875 193.78932189941406 167.71630859375 195.04296875 C165.7427978515625 195.9901580810547 165.208984375 206.49295043945312 165.208984375 206.49295043945312 C165.208984375 206.49295043945312 169.197265625 210.41323852539062 169.4056396484375 210.41323852539062 C169.6129150390625 210.41323852539062 172.666259765625 207.31422424316406 172.666259765625 207.31422424316406 Z"></path>
<path fill="#98251E" fill-opacity="1.0"  filling="0" d="M166.672119140625 198.26901245117188 C166.672119140625 200.5467529296875 165.88311767578125 202.39321899414062 163.11956787109375 202.39321899414062 C160.35595703125 202.39321899414062 159.427734375 200.5467529296875 159.427734375 198.26901245117188 C159.427734375 195.99127197265625 160.077392578125 194.14480590820312 163.11956787109375 194.14480590820312 C166.16064453125 194.14480590820312 166.672119140625 195.99127197265625 166.672119140625 198.26901245117188 Z"></path>
<path fill="#98251E" fill-opacity="1.0"  filling="0" d="M167.99261474609375 199.86032104492188 L162.43206787109375 199.86032104492188 L162.43206787109375 196.67770385742188 L167.99261474609375 196.67770385742188 C168.87188720703125 196.67770385742188 169.583984375 197.38978576660156 169.583984375 198.26901245117188 L169.583984375 198.2701416015625 C169.583984375 199.1482391357422 168.87188720703125 199.86032104492188 167.99261474609375 199.86032104492188 Z"></path>
<path fill="#98251E" fill-opacity="1.0"  filling="0" d="M299.39599609375 197.42434692382812 C299.39599609375 199.70208740234375 298.6070251464844 201.54855346679688 295.8434753417969 201.54855346679688 C293.0798645019531 201.54855346679688 292.151611328125 199.70208740234375 292.151611328125 197.42434692382812 C292.151611328125 195.14659118652344 292.8013000488281 193.30014038085938 295.8434753417969 193.30014038085938 C298.8856506347656 193.30014038085938 299.39599609375 195.14659118652344 299.39599609375 197.42434692382812 Z"></path>
<path fill="#98251E" fill-opacity="1.0"  filling="0" d="M302.77362060546875 199.01565551757812 L297.2129821777344 199.01565551757812 L297.2129821777344 195.83303833007812 L302.77362060546875 195.83303833007812 C303.65283203125 195.83303833007812 304.3648986816406 196.5451202392578 304.3648986816406 197.42434692382812 L304.3648986816406 197.4254608154297 C304.3648986816406 198.30357360839844 303.65283203125 199.01565551757812 302.77362060546875 199.01565551757812 Z"></path>
<path fill="#FF8757" fill-opacity="1.0"  filling="0" d="M305.74334716796875 206.4684295654297 C305.74334716796875 206.4684295654297 303.1859436035156 204.67320251464844 301.6169128417969 203.37722778320312 C300.04791259765625 202.0801239013672 299.2310791015625 199.01565551757812 299.2310791015625 199.01565551757812 L301.0942687988281 199.01565551757812 C301.0942687988281 199.01565551757812 300.8413391113281 194.7955780029297 302.2342834472656 193.3513946533203 C303.6272277832031 191.90719604492188 308.0801696777344 192.94354248046875 310.6933288574219 194.19717407226562 C312.6668395996094 195.14437866210938 313.2006530761719 205.64825439453125 313.2006530761719 205.64825439453125 C313.2006530761719 205.64825439453125 309.2123718261719 209.56857299804688 309.0050964355469 209.56857299804688 C308.79669189453125 209.56857299804688 305.74334716796875 206.4684295654297 305.74334716796875 206.4684295654297 Z"></path>
<path fill="#98251E" fill-opacity="1.0"  filling="0" d="M311.7375183105469 197.42434692382812 C311.7375183105469 199.70208740234375 312.5264587402344 201.54855346679688 315.2900390625 201.54855346679688 C318.05364990234375 201.54855346679688 318.9819030761719 199.70208740234375 318.9819030761719 197.42434692382812 C318.9819030761719 195.14659118652344 318.33221435546875 193.30014038085938 315.2900390625 193.30014038085938 C312.2489929199219 193.30014038085938 311.7375183105469 195.14659118652344 311.7375183105469 197.42434692382812 Z"></path>
<path fill="#98251E" fill-opacity="1.0"  filling="0" d="M310.4169616699219 199.01565551757812 L315.97760009765625 199.01565551757812 L315.97760009765625 195.83303833007812 L310.4169616699219 195.83303833007812 C309.5377502441406 195.83303833007812 308.82568359375 196.5451202392578 308.82568359375 197.42434692382812 L308.82568359375 197.4254608154297 C308.82568359375 198.30357360839844 309.5377502441406 199.01565551757812 310.4169616699219 199.01565551757812 Z"></path>
<path fill="#633C35" fill-opacity="1.0"  filling="0" d="M226.82492065429688 306.75347900390625 L229.64981079101562 301.4369201660156 C229.64981079101562 301.4369201660156 238.42535400390625 305.580078125 246.0029296875 306.0971374511719 C253.58050537109375 306.61419677734375 271.13494873046875 304.09466552734375 271.13494873046875 304.09466552734375 C271.13494873046875 304.09466552734375 243.82769775390625 314.415771484375 243.40869140625 314.415771484375 C242.99081420898438 314.415771484375 226.82492065429688 306.75347900390625 226.82492065429688 306.75347900390625 Z"></path></svg>