<svg xmlns="http://www.w3.org/2000/svg" viewBox="0.0 0.0 256.0 256.0" height="256.0px" width="256.0px"><path fill="#FF8757" fill-opacity="1.0"  filling="0" d="M201.78733825683594 203.9187774658203 L198.3545684814453 205.4181365966797 L197.580078125 205.08383178710938 L193.14662170410156 203.05133056640625 L188.71319580078125 201.0188751220703 L184.27972412109375 198.9863739013672 L179.84628295898438 196.9539031982422 L175.41281127929688 194.92138671875 L170.9793701171875 192.888916015625 L171.79339599609375 189.57260131835938 L174.2839813232422 185.85011291503906 L175.61618041992188 183.8604278564453 L178.8316650390625 186.0451202392578 L182.366943359375 188.44171142578125 L185.90223693847656 190.83831787109375 L189.43751525878906 193.23492431640625 L192.97280883789062 195.63153076171875 L196.50808715820312 198.02810668945312 L200.04336547851562 200.42471313476562 L200.91256713867188 201.01531982421875 L201.78733825683594 203.9187774658203"></path>
<path fill="#3D2015" fill-opacity="1.0"  filling="0" d="M206.3751220703125 203.2067108154297 C206.3333282470703 203.42123413085938 205.86376953125 204.48431396484375 205.18873596191406 205.9423828125 C204.5137176513672 207.4004364013672 203.63323974609375 209.25344848632812 202.76962280273438 211.04783630371094 C202.41302490234375 211.04229736328125 202.05642700195312 211.03671264648438 201.6942901611328 211.02557373046875 C200.20046997070312 210.99212646484375 198.6793975830078 210.953125 197.1855926513672 211.0032958984375 C197.23297119140625 210.37062072753906 197.29843139648438 209.34375 197.36878967285156 208.24868774414062 C197.4391326904297 207.15362548828125 197.51434326171875 205.99037170410156 197.58120727539062 205.0849609375 C197.60348510742188 204.80079650878906 198.74571228027344 203.75831604003906 199.07501220703125 202.93927001953125 C199.1362762451172 202.78883361816406 199.9720458984375 200.57070922851562 199.99990844726562 200.41470336914062 C200.3955078125 200.54843139648438 202.7250518798828 201.36190795898438 203.62208557128906 201.64105224609375 C204.0789794921875 201.78033447265625 204.99330139160156 202.1425018310547 205.64523315429688 202.51025390625 C205.6897735595703 202.53253173828125 205.72879028320312 202.5548095703125 205.76779174804688 202.5771026611328 C206.14666748046875 202.8055419921875 206.4141387939453 203.03399658203125 206.3751220703125 203.2067108154297"></path>
<path fill="#FF8757" fill-opacity="1.0"  filling="0" d="M99.74491882324219 202.60997009277344 C99.74491882324219 202.60997009277344 99.74491882324219 202.60997009277344 99.73934936523438 202.61553955078125 L98.15640258789062 205.1902618408203 L94.757080078125 203.61289978027344 L94.50634765625 202.84957885742188 L92.97711944580078 198.13485717773438 L91.44789123535156 193.42013549804688 L89.91866302490234 188.70541381835938 L88.3894271850586 183.99069213867188 L86.86019897460938 179.27597045898438 L89.5240478515625 176.66783142089844 L92.93202209472656 176.20816040039062 L96.33999633789062 175.74850463867188 L96.43472290039062 176.51182556152344 L96.95291137695312 180.57977294921875 L97.51131439208984 184.98580932617188 L98.06971740722656 189.39186096191406 L98.62812042236328 193.7978973388672 L99.1865234375 198.2039337158203 L99.74491882324219 202.60997009277344"></path>
<path fill="#3D2015" fill-opacity="1.0"  filling="0" d="M100.76065063476562 208.68597412109375 C100.75506591796875 209.13172912597656 100.68820190429688 209.4771728515625 100.52105712890625 209.53289794921875 C100.32466125488281 209.59976196289062 99.26930236816406 209.71714782714844 97.7891616821289 209.85423278808594 C96.30902099609375 209.99130249023438 94.40410614013672 210.14805603027344 92.50859069824219 210.2936553955078 C90.61307525634766 210.43923950195312 88.72695922851562 210.57366943359375 87.28443145751953 210.66610717773438 C85.84190368652344 210.75852966308594 84.84295654296875 210.8089599609375 84.72177124023438 210.78652954101562 C84.35400390625 210.71966552734375 84.25930786132812 210.47451782226562 84.17572021484375 210.10121154785156 C84.16458129882812 210.05108642578125 84.1534423828125 210.00091552734375 84.14230346679688 209.9507598876953 C84.01416015625 209.33230590820312 84.09771728515625 208.64141845703125 84.34848022460938 208.29541015625 C84.515625 208.05581665039062 84.80532836914062 207.8775177001953 85.03378295898438 207.7103729248047 C86.142578125 206.9024658203125 87.41348266601562 206.2667236328125 88.67269897460938 205.72068786621094 C88.98750305175781 205.5841827392578 89.95865631103516 205.10208129882812 91.09487915039062 204.53640747070312 C92.23109436035156 203.97073364257812 93.53237915039062 203.3214874267578 94.5074462890625 202.85067749023438 C94.741455078125 202.73924255371094 96.21853637695312 203.207275390625 97.09332275390625 203.07911682128906 C97.24932861328125 203.05682373046875 99.59001159667969 202.66680908203125 99.74046325683594 202.61666870117188 C99.74601745605469 202.611083984375 100.269775390625 205.375244140625 100.49264526367188 206.3614501953125 C100.61019897460938 206.85789489746094 100.76620483398438 207.92822265625 100.76065063476562 208.68597412109375"></path>
<path fill="#3D2015" fill-opacity="1.0"  filling="0" d="M125.6658935546875 108.2811279296875 C125.4430160522461 107.23725128173828 125.27182006835938 106.19964599609375 125.15237426757812 105.15653991699219 C125.03292846679688 104.11343383789062 124.96522521972656 103.06483459472656 124.9493408203125 101.99894714355469 C124.93318939208984 100.9224853515625 124.9159164428711 99.79017639160156 124.82897186279297 98.65568542480469 C124.74203491210938 97.52119445800781 124.5854263305664 96.38450622558594 124.29059600830078 95.2992935180664 C123.99576568603516 94.21408081054688 123.56271362304688 93.18032836914062 122.92289733886719 92.25170135498047 C122.29049682617188 91.33375549316406 121.41600799560547 90.67071533203125 120.43238067626953 90.20540618896484 C119.44876098632812 89.74009704589844 118.35599517822266 89.4725112915039 117.28704833984375 89.34547424316406 C116.34487915039062 89.23348999023438 113.85931396484375 88.97048950195312 112.97563171386719 89.94554901123047 C111.4144287109375 89.74830627441406 109.51779174804688 90.76237487792969 108.41790771484375 91.60538482666016 C107.32418060302734 92.44365692138672 106.57408142089844 93.4146728515625 106.04547119140625 94.5101547241211 C105.516845703125 95.60563659667969 105.20970916748047 96.82556915283203 105.00189208984375 98.16167449951172 C104.80390167236328 99.43519592285156 104.786376953125 100.70784759521484 104.83332061767578 101.97984313964844 C104.88026428222656 103.25183868408203 104.9916763305664 104.5231704711914 105.05156707763672 105.79405212402344 C105.1114501953125 107.06492614746094 105.11981201171875 108.33535766601562 104.96064758300781 109.60552978515625 C104.88485717773438 110.2100601196289 104.78736877441406 112.62374114990234 105.34288024902344 112.6387939453125 C105.92901611328125 112.65494537353516 108.39285278320312 112.53850555419922 108.854736328125 112.4504623413086 C108.97064208984375 112.42818450927734 109.08486938476562 112.28497314453125 109.07260131835938 112.16462707519531 C109.0174560546875 111.62306213378906 109.08319091796875 111.09207153320312 109.18348693847656 110.562744140625 C109.2130126953125 111.24752044677734 109.09043884277344 112.39977264404297 109.7796630859375 112.6142807006836 C110.11676025390625 112.71903228759766 110.50732421875 112.59477233886719 110.84831237792969 112.56803894042969 C111.47012329101562 112.52010345458984 112.09529113769531 112.52903747558594 112.7176513671875 112.48835754394531 C113.05586242675781 112.46607208251953 113.39352416992188 112.43766021728516 113.7305908203125 112.39977264404297 C114.01309204101562 112.36801147460938 114.40811157226562 112.22871398925781 114.68504333496094 112.26548767089844 C115.59658813476562 112.38778686523438 116.58711242675781 112.28819274902344 117.57282257080078 112.13030242919922 C118.55853271484375 111.972412109375 119.53944396972656 111.7562255859375 120.4317626953125 111.64535522460938 C121.39176940917969 111.52610778808594 122.296630859375 111.26200866699219 123.23324584960938 111.028564453125 C123.78596496582031 110.89037322998047 124.36433410644531 110.87478637695312 124.89585876464844 110.65245819091797 C124.97164916992188 110.62068939208984 125.04518127441406 110.58560180664062 125.11929321289062 110.55049896240234 C125.34715270996094 110.44184875488281 125.56446838378906 110.3565902709961 125.70320129394531 110.13262176513672 C126.09600830078125 109.49855041503906 125.81297302246094 108.96979522705078 125.6658935546875 108.2811279296875"></path>
<path fill="#FF8757" fill-opacity="1.0"  filling="0" d="M119.78378295898438 103.4258804321289 L121.10818481445312 107.20484161376953 L122.43258666992188 110.98379516601562 L123.75697326660156 114.76274871826172 L120.11638641357422 116.20918273925781 L116.47579956054688 117.65560913085938 L114.96102905273438 113.90878295898438 L113.44625854492188 110.1619644165039 L111.93147277832031 106.4151382446289 L115.85762786865234 104.9205093383789 L119.78378295898438 103.4258804321289"></path>
<path fill="#FF8757" fill-opacity="1.0"  filling="0" d="M120.76216125488281 105.61949157714844 C120.54486083984375 106.09587097167969 119.9708251953125 106.84402465820312 119.10699462890625 107.62567138671875 C118.2431640625 108.40731811523438 117.08953857421875 109.22246551513672 115.71304321289062 109.83284759521484 C114.8017807006836 110.23680114746094 113.94776916503906 110.70775604248047 113.13554382324219 110.88612365722656 C112.32331848144531 111.06449127197266 111.5528793334961 110.95027160644531 110.80877685546875 110.18387603759766 C109.7777099609375 109.12217712402344 108.99612426757812 107.87799072265625 108.41729736328125 106.539794921875 C107.83845520019531 105.20159912109375 107.46237182617188 103.76937866210938 107.24229431152344 102.33159637451172 C107.14199829101562 101.67967987060547 107.03056335449219 100.99436950683594 106.94140625 100.2973403930664 C106.89683532714844 99.89617156982422 106.8634033203125 99.57858276367188 106.83554077148438 99.26097869873047 C106.79096984863281 98.54779815673828 106.785400390625 97.85633850097656 106.8634033203125 97.19330596923828 C106.99154663085938 96.13410186767578 107.04727172851562 94.85818481445312 107.82730102539062 93.8719711303711 C108.42350769042969 93.108642578125 110.34629821777344 92.47848510742188 111.15422058105469 91.94915771484375 C112.31871032714844 91.1746826171875 113.43919372558594 90.84593963623047 114.84327697753906 91.0353775024414 C115.76846313476562 91.16075134277344 116.67122650146484 91.44630432128906 117.49946594238281 91.87400817871094 C118.32771301269531 92.30171203613281 119.08143615722656 92.87156677246094 119.70854187011719 93.5655288696289 C120.39972686767578 94.33470916748047 120.90550231933594 95.31840515136719 121.27191925048828 96.36402130126953 C121.6383285522461 97.40963745117188 121.86537170410156 98.51716613769531 121.99908447265625 99.53401184082031 C122.11331176757812 100.36419677734375 121.88069152832031 101.71688842773438 121.58121490478516 102.94636535644531 C121.28173828125 104.17584228515625 120.91539001464844 105.28211975097656 120.76216125488281 105.61949157714844"></path>
<path fill="#3D2015" fill-opacity="1.0"  filling="0" d="M108.95948791503906 101.59221649169922 C108.96284484863281 101.52812957763672 108.96006774902344 101.46741485595703 108.95391845703125 101.41502380371094 C108.91047668457031 101.0628890991211 108.43186950683594 100.8199691772461 108.25355529785156 101.2255859375 C108.19224548339844 101.36487579345703 108.20063781738281 101.52423858642578 108.22123718261719 101.67523193359375 C108.24911499023438 101.88138580322266 108.34550476074219 102.12876892089844 108.55274963378906 102.14494323730469 C108.84249877929688 102.16722106933594 108.94668579101562 101.85353088378906 108.95948791503906 101.59221649169922"></path>
<path fill="#3D2015" fill-opacity="1.0"  filling="0" d="M114.72348022460938 100.67009735107422 C114.72682189941406 100.60600280761719 114.72406005859375 100.5452880859375 114.71791076660156 100.4928970336914 C114.67445373535156 100.1407699584961 114.19586181640625 99.89783477783203 114.01699829101562 100.30345916748047 C113.9556884765625 100.4427490234375 113.96405029296875 100.60211181640625 113.984130859375 100.75310516357422 C114.01197814941406 100.95925903320312 114.10836791992188 101.20719909667969 114.31562805175781 101.22281646728516 C114.60649108886719 101.24508666992188 114.71067810058594 100.93083953857422 114.72348022460938 100.67009735107422"></path>
<path fill="#EB6631" fill-opacity="1.0"  filling="0" d="M113.96963500976562 110.89873504638672 C113.85986328125 110.89873504638672 113.75567626953125 110.8329849243164 113.71163940429688 110.72545623779297 C113.65370178222656 110.58280944824219 113.72225952148438 110.42068481445312 113.86488342285156 110.36217498779297 C113.88661193847656 110.35325622558594 116.0445556640625 109.47290802001953 116.93881225585938 108.88343048095703 C117.83197021484375 108.29448699951172 119.27339172363281 106.8536376953125 119.28787231445312 106.83970642089844 C119.39653015136719 106.7304916381836 119.57369995117188 106.73104858398438 119.68179321289062 106.83914947509766 C119.791015625 106.94779968261719 119.791015625 107.1244125366211 119.68235778808594 107.23307037353516 C119.62162780761719 107.29380798339844 118.18577575683594 108.72908782958984 117.24583435058594 109.34867095947266 C116.30587768554688 109.96824645996094 114.16575622558594 110.8418960571289 114.07493591308594 110.87866973876953 C114.04039001464844 110.8926010131836 114.00473022460938 110.89873504638672 113.96963500976562 110.89873504638672"></path>
<path fill="#EB6631" fill-opacity="1.0"  filling="0" d="M111.16426086425781 105.16928100585938 C111.11965942382812 105.16928100585938 111.073974609375 105.15870666503906 111.03219604492188 105.13584899902344 C109.95237731933594 104.55249786376953 109.86602783203125 104.35916137695312 109.83370971679688 104.2867202758789 C109.79637145996094 104.2020263671875 109.71781921386719 104.02594757080078 110.19419860839844 101.68636322021484 C110.22483825683594 101.53536987304688 110.373046875 101.43954467773438 110.52238464355469 101.46907806396484 C110.67337036132812 101.49971771240234 110.77032470703125 101.64681243896484 110.73968505859375 101.79724884033203 C110.55134582519531 102.72328186035156 110.36636352539062 103.77523040771484 110.35745239257812 104.06161499023438 C110.493408203125 104.1814193725586 110.92912292480469 104.44662475585938 111.29685974121094 104.64553833007812 C111.4322509765625 104.71853637695312 111.48237609863281 104.88790893554688 111.40940856933594 105.02330017089844 C111.3592529296875 105.11580657958984 111.263427734375 105.16928100585938 111.16426086425781 105.16928100585938"></path>
<path fill="#3D2015" fill-opacity="1.0"  filling="0" d="M116.06517028808594 98.0870132446289 C115.53752136230469 97.84687042236328 114.93243408203125 97.7454605102539 114.35519409179688 97.74491119384766 C113.94677734375 97.74435424804688 113.22634887695312 97.84353637695312 112.86306762695312 98.06417846679688 C112.6129150390625 98.21627044677734 112.3917236328125 98.7584228515625 112.95613098144531 98.82527923583984 C113.35284423828125 98.8720703125 113.70329284667969 98.75506591796875 114.0877685546875 98.6915512084961 C114.71347045898438 98.58847045898438 115.79827880859375 98.62969970703125 116.02449035644531 98.63361358642578 C116.30754089355469 98.63862609863281 116.33204650878906 98.20848846435547 116.06517028808594 98.0870132446289"></path>
<path fill="#3D2015" fill-opacity="1.0"  filling="0" d="M108.71879577636719 99.689453125 C108.36221313476562 99.89002990722656 107.97776794433594 99.91790008544922 107.5821533203125 100.0070571899414 C107.38716125488281 100.05162048339844 107.15870666503906 100.12405395507812 106.93026733398438 100.21320343017578 C106.89683532714844 99.8956069946289 106.8634033203125 99.57801818847656 106.83554077148438 99.26043701171875 C106.87455749511719 99.23814392089844 106.91355895996094 99.22142791748047 106.95256042480469 99.20471954345703 C107.34255981445312 99.04312896728516 108.07247924804688 98.85369110107422 108.50761413574219 98.92054748535156 C108.80795288085938 98.97069549560547 109.23695373535156 99.39972686767578 108.71879577636719 99.689453125"></path>
<path fill="#EB6631" fill-opacity="1.0"  filling="0" d="M111.39212036132812 106.70820617675781 C110.86502075195312 106.70820617675781 110.48170471191406 106.61627960205078 110.4549560546875 106.6095962524414 C110.30563354492188 106.57281494140625 110.21481323242188 106.42182159423828 110.2515869140625 106.27249145507812 C110.28837585449219 106.12317657470703 110.43936157226562 106.03235626220703 110.58866882324219 106.06857299804688 C110.59817504882812 106.07080078125 111.55816650390625 106.2981185913086 112.46244812011719 105.98331451416016 C112.9505615234375 105.81281280517578 113.28094482421875 105.6066665649414 113.44366455078125 105.36931610107422 L113.52665710449219 105.24840545654297 L113.703857421875 105.2127456665039 C113.85763549804688 105.2127456665039 113.98243713378906 105.3375473022461 113.98243713378906 105.49132537841797 C113.98243713378906 105.56877899169922 113.95068359375 105.63899230957031 113.8994140625 105.689697265625 C113.794677734375 105.84069061279297 113.51832580566406 106.205078125 112.64633178710938 106.50928497314453 C112.20559692382812 106.66251373291016 111.76321411132812 106.70820617675781 111.39212036132812 106.70820617675781"></path>
<path fill="#3D2015" fill-opacity="1.0"  filling="0" d="M125.2552490234375 109.8707504272461 C124.60612487792969 109.85346984863281 123.94754028320312 110.15657806396484 123.3380126953125 110.3733139038086 C123.31513977050781 110.20560455322266 123.19425964355469 110.06185150146484 123.01594543457031 110.0345458984375 C123.07110595703125 109.78994750976562 123.05662536621094 109.54926300048828 122.90728759765625 109.35145568847656 C122.78138732910156 109.18486022949219 122.57411193847656 109.17984008789062 122.44874572753906 109.35145568847656 C122.41642761230469 109.3954849243164 122.399169921875 109.44506072998047 122.37519836425781 109.49185180664062 C122.37464904785156 109.44506072998047 122.37799072265625 109.3954849243164 122.37242126464844 109.3525619506836 C122.34678649902344 109.1497573852539 122.21473693847656 109.03386688232422 122.06764221191406 108.99930572509766 C122.03921508789062 108.58142852783203 121.99131774902344 108.16466522216797 121.91441345214844 107.74845123291016 C121.89714050292969 107.65374755859375 121.85368347167969 107.59133911132812 121.80075073242188 107.54508972167969 C121.76341247558594 107.28487396240234 121.70657348632812 107.02857971191406 121.61856079101562 106.77840423583984 C121.56840515136719 106.6363296508789 121.45028686523438 106.55999755859375 121.32603454589844 106.54161071777344 C121.86621856689453 105.32530212402344 122.33103942871094 103.98681640625 122.65454864501953 102.62208557128906 C122.97805786132812 101.25735473632812 123.16024780273438 99.86636352539062 123.13517761230469 98.5450210571289 C123.10982513427734 97.21475219726562 122.67689514160156 95.8479995727539 121.97457122802734 94.63760375976562 C121.27224731445312 93.42721557617188 120.300537109375 92.37317657470703 119.19761657714844 91.66835021972656 C117.952880859375 90.87269592285156 116.64630126953125 90.13166046142578 115.12745666503906 90.04473114013672 C113.86488342285156 89.9722900390625 112.36552429199219 90.49158477783203 111.22552490234375 90.9830093383789 C110.2761001586914 91.39225769042969 109.3865737915039 91.94818115234375 108.64915466308594 92.63977813720703 C107.91173553466797 93.33137512207031 107.32642364501953 94.15864562988281 106.98542785644531 95.11058044433594 C106.93582153320312 95.21643829345703 106.89849853515625 95.32564544677734 106.8812255859375 95.44098663330078 C106.78428649902344 95.77473449707031 106.71406555175781 96.12129974365234 106.68008422851562 96.48345947265625 C106.65333557128906 96.76651000976562 106.7291259765625 97.38162994384766 106.8634033203125 97.1927490234375 C107.61726379394531 96.13021850585938 108.52713012695312 94.42804718017578 109.45484924316406 93.5092544555664 C110.01812744140625 94.46871948242188 111.37873840332031 95.1846923828125 112.20672607421875 95.63208770751953 C112.929931640625 96.0226821899414 113.70053100585938 96.31352996826172 114.49224853515625 96.53304290771484 C115.30741882324219 96.75926208496094 115.80105590820312 96.8879623413086 116.33039855957031 97.5677261352539 C116.89703369140625 98.29484558105469 117.37174987792969 99.00914001464844 117.67262268066406 99.89059448242188 C118.07044982910156 101.05677032470703 117.79576110839844 101.66742706298828 117.93672180175781 102.8051986694336 C118.08659362792969 104.0181655883789 118.8048095703125 104.59818267822266 119.307373046875 105.65570068359375 C119.75005340576172 106.58758544921875 119.73320007324219 107.48616790771484 119.61222076416016 108.3836441040039 C119.49124145507812 109.28111267089844 119.26614379882812 110.17747497558594 119.29232788085938 111.10489654541016 C119.30291748046875 111.48600006103516 119.58428955078125 111.71666717529297 119.94366455078125 111.75623321533203 C120.8167724609375 111.85261535644531 124.57548522949219 110.76222229003906 124.57548522949219 110.76222229003906 C124.57548522949219 110.76222229003906 125.4151611328125 109.87520599365234 125.2552490234375 109.8707504272461"></path>
<path fill="#FF8757" fill-opacity="1.0"  filling="0" d="M137.81512451171875 150.86611938476562 C137.81512451171875 150.86611938476562 136.7438507080078 151.72125244140625 135.30560302734375 152.8614501953125 C133.86734008789062 154.0016326904297 132.0620880126953 155.42686462402344 130.5941162109375 156.56704711914062 C129.12612915039062 157.70724487304688 127.99543762207031 158.5623779296875 127.90629577636719 158.5623779296875 C127.81714630126953 158.5623779296875 126.5638656616211 158.1248779296875 124.89840698242188 157.50933837890625 C123.23294067382812 156.893798828125 121.15528869628906 156.10025024414062 119.41739654541016 155.3881378173828 C117.67950439453125 154.676025390625 116.28135681152344 154.0453643798828 115.97491455078125 153.75563049316406 C115.7891845703125 153.5810546875 115.46533966064453 152.70083618164062 115.04033660888672 151.39076232910156 C114.6153335571289 150.0806884765625 114.08917236328125 148.3407745361328 113.49880981445312 146.44679260253906 C112.90845489501953 144.55279541015625 112.25389099121094 142.50474548339844 111.57209777832031 140.57839965820312 C110.89763641357422 138.67507934570312 110.25535583496094 136.82484436035156 109.71343231201172 135.23585510253906 C109.1715087890625 133.6468505859375 108.72994995117188 132.31910705566406 108.45692443847656 131.46078491210938 C108.07247924804688 130.25726318359375 107.7381591796875 128.707763671875 107.45401000976562 127.07467651367188 C107.29242706298828 126.14112854003906 107.14756774902344 125.18264770507812 107.02080535888672 124.24854278564453 C106.89405059814453 123.31443786621094 106.785400390625 122.40470886230469 106.69624328613281 121.56866455078125 C106.47337341308594 119.41741180419922 106.37309265136719 117.76203155517578 106.42881774902344 117.45557403564453 C106.47337341308594 117.19371032714844 106.81326293945312 116.84825897216797 107.3648681640625 116.4916763305664 C107.96661376953125 116.10163879394531 108.82522583007812 115.68933868408203 109.83370971679688 115.33831024169922 C109.99530029296875 115.27703094482422 110.16242980957031 115.22130584716797 110.33517456054688 115.17117309570312 C110.87564086914062 114.99844360351562 111.45008850097656 114.8479995727539 112.0462646484375 114.73099517822266 C115.06112670898438 114.12923431396484 115.62388610839844 112.65215301513672 115.62388610839844 112.65215301513672 C115.62388610839844 112.65215301513672 116.73712158203125 112.7190170288086 117.93463897705078 112.75244903564453 C119.13214874267578 112.78588104248047 120.41393280029297 112.78588104248047 120.75102233886719 112.65215301513672 C120.9265365600586 112.58529663085938 121.73179626464844 112.72598266601562 122.83660888671875 112.98445129394531 C123.94142150878906 113.24291229248047 125.34577941894531 113.61914825439453 126.71949768066406 114.02338409423828 C127.36024475097656 114.21282196044922 127.9898681640625 114.40782165527344 128.58102416992188 114.59727478027344 C128.87632751464844 114.69757080078125 129.1437530517578 114.78671264648438 129.40008544921875 114.87586975097656 C130.7545623779297 115.33831024169922 131.7630615234375 115.76177978515625 131.92462158203125 116.00135803222656 C132.02491760253906 116.15365600585938 132.0899200439453 116.8292007446289 132.1328582763672 117.84759521484375 C132.17578125 118.8659896850586 132.19662475585938 120.22723388671875 132.20858764648438 121.75092315673828 C132.22056579589844 123.27462005615234 132.22366333007812 124.96075439453125 132.23109436035156 126.62894439697266 C132.23666381835938 127.58171081542969 132.2422332763672 128.5350341796875 132.2533721923828 129.4432373046875 C132.27008056640625 130.8141632080078 132.295166015625 132.08480834960938 132.337646484375 133.1478271484375 C132.380126953125 134.2108612060547 132.44003295898438 135.06626892089844 132.52638244628906 135.60671997070312 C132.559814453125 135.81845092773438 132.77529907226562 136.89825439453125 133.00611877441406 138.00732421875 C133.23692321777344 139.1163787841797 133.48306274414062 140.2546844482422 133.57778930664062 140.5834197998047 C134.00328063964844 142.0939178466797 134.61593627929688 143.7399444580078 135.24368286132812 145.2633056640625 C135.87142944335938 146.7866668701172 136.51429748535156 148.1873779296875 137.00021362304688 149.2072296142578 C137.48614501953125 150.2270965576172 137.81512451171875 150.86611938476562 137.81512451171875 150.86611938476562"></path>
<path fill="#FF8757" fill-opacity="1.0"  filling="0" d="M110.61932373046875 118.85521697998047 C110.61932373046875 118.85521697998047 110.55247497558594 119.15052032470703 110.43545532226562 119.63526153564453 C110.19308471679688 120.6607437133789 109.75277709960938 122.52073669433594 109.36192321777344 124.12435913085938 C108.9710693359375 125.72798919677734 108.6296615600586 127.07524108886719 108.5850830078125 127.07524108886719 L104.39645385742188 127.07524108886719 L100.20782470703125 127.07524108886719 L96.01919555664062 127.07524108886719 L91.83056640625 127.07524108886719 L87.64193725585938 127.07524108886719 C87.64193725585938 127.07524108886719 87.6321792602539 125.6471939086914 87.63078308105469 124.14044952392578 C87.62938690185547 122.63369750976562 87.6363525390625 121.04825592041016 87.6697998046875 120.73345947265625 C87.68093872070312 120.63651275634766 88.23710632324219 120.43501281738281 89.16844940185547 120.16382598876953 C90.09979248046875 119.89263916015625 91.40631103515625 119.55177307128906 92.91814422607422 119.17607116699219 C94.42996978759766 118.80037689208984 96.1471176147461 118.38985443115234 97.89971160888672 117.9793701171875 C99.65231323242188 117.56887817382812 101.44036102294922 117.15843200683594 103.09400939941406 116.78288269042969 C104.74765014648438 116.4073257446289 106.26689147949219 116.06666564941406 107.48187255859375 115.79576873779297 C108.52937316894531 115.56173706054688 109.34896850585938 115.38343811035156 109.83370971679688 115.27758026123047 C110.1568603515625 115.20513916015625 110.33517456054688 115.16615295410156 110.33517456054688 115.16615295410156 L110.61932373046875 118.85521697998047"></path>
<path fill="#FF8757" fill-opacity="1.0"  filling="0" d="M82.6044921875 103.24647521972656 C82.6044921875 103.24647521972656 82.60275268554688 104.18486785888672 82.60336303710938 105.63245391845703 C82.60397338867188 107.08003997802734 82.60692596435547 109.03682708740234 82.6163330078125 111.07361602783203 C82.625732421875 113.11041259765625 82.64157104492188 115.22721099853516 82.66795349121094 116.99482727050781 C82.69432830810547 118.76244354248047 82.73123931884766 120.18087768554688 82.78277587890625 120.82093048095703 C82.84825134277344 121.63385009765625 82.99423217773438 122.48591613769531 83.27435302734375 123.28156280517578 C83.55447387695312 124.07720947265625 83.96873474121094 124.81644439697266 84.57077026367188 125.4037094116211 C85.70852661132812 126.51416778564453 86.8663330078125 127.03010559082031 87.46084594726562 127.06409454345703 C88.05535888671875 127.09807586669922 90.466796875 127.30201721191406 90.63064575195312 125.57141876220703 C90.71701049804688 124.6593246459961 90.58102416992188 123.73998260498047 90.34982299804688 122.85907745361328 C90.17428588867188 122.19047546386719 89.88009643554688 121.59708404541016 89.74972534179688 120.92121887207031 C89.62602996826172 120.27740478515625 89.37776947021484 118.85204315185547 89.07495880126953 117.0761489868164 C88.77214813232422 115.30025482177734 88.414794921875 113.173828125 88.07289123535156 111.12787628173828 C87.73099517822266 109.08192443847656 87.40455627441406 107.11644744873047 87.1635971069336 105.66246032714844 C86.92263793945312 104.2084732055664 86.76715087890625 103.26597595214844 86.76715087890625 103.26597595214844 L82.6044921875 103.24647521972656"></path>
<path fill="#FF8757" fill-opacity="1.0"  filling="0" d="M151.5584259033203 126.62950134277344 L147.37091064453125 126.62950134277344 L143.1833953857422 126.62950897216797 L138.99588012695312 126.62950897216797 L134.808349609375 126.62950134277344 L130.62083435058594 126.62950134277344 C130.58740234375 126.62950134277344 130.41189575195312 125.9788589477539 130.17642211914062 125.04398345947266 C129.94094848632812 124.1091079711914 129.6455078125 122.88999938964844 129.37220764160156 121.75308227539062 C128.94876098632812 119.98628234863281 128.58102416992188 118.40946960449219 128.58102416992188 118.40946960449219 L128.58102416992188 114.59727478027344 C128.66461181640625 114.6139907836914 128.94876098632812 114.68084716796875 129.4056396484375 114.78113555908203 C130.22491455078125 114.9638900756836 131.5988006591797 115.27172088623047 133.27322387695312 115.65169525146484 C134.94764709472656 116.03166961669922 136.92259216308594 116.48379516601562 138.94400024414062 116.95513916015625 C140.96539306640625 117.42648315429688 143.0332489013672 117.91704559326172 144.89346313476562 118.3739013671875 C146.75369262695312 118.83076477050781 148.40628051757812 119.25391387939453 149.59715270996094 119.5904312133789 C150.78802490234375 119.92694091796875 151.51718139648438 120.17682647705078 151.5305633544922 120.28714752197266 C151.56399536132812 120.60223388671875 151.57095336914062 122.18782043457031 151.56956481933594 123.69464111328125 C151.56817626953125 125.20145416259766 151.5584259033203 126.62950134277344 151.5584259033203 126.62950134277344"></path>
<path fill="#FF8757" fill-opacity="1.0"  filling="0" d="M152.4348602294922 102.81855773925781 C152.4348602294922 102.81855773925781 152.2793731689453 103.76105499267578 152.0384063720703 105.21504211425781 C151.7974395751953 106.66902923583984 151.47100830078125 108.63450622558594 151.1291046142578 110.68045806884766 C150.78720092773438 112.72640991210938 150.4298553466797 114.85284423828125 150.12704467773438 116.62873840332031 C149.82423400878906 118.40463256835938 149.57598876953125 119.83000183105469 149.45228576660156 120.47381591796875 C149.3224639892578 121.14966583251953 149.02830505371094 121.74361419677734 148.8522186279297 122.41223907470703 C148.6204376220703 123.29312896728516 148.48504638671875 124.21246337890625 148.5714111328125 125.12456512451172 C148.73521423339844 126.85459899902344 151.1466827392578 126.65121459960938 151.7411651611328 126.61724090576172 C152.335693359375 126.58269500732422 153.49295043945312 126.0667495727539 154.63125610351562 124.95684814453125 C155.2332763671875 124.36958312988281 155.6475372314453 123.6303482055664 155.9276580810547 122.83470153808594 C156.20777893066406 122.03905487060547 156.353759765625 121.18699645996094 156.41921997070312 120.37407684326172 C156.4709014892578 119.73401641845703 156.5078887939453 118.31558227539062 156.53428649902344 116.54796600341797 C156.56069946289062 114.78034973144531 156.57652282714844 112.6635513305664 156.5858917236328 110.62676239013672 C156.5952606201172 108.5899658203125 156.59817504882812 106.63318634033203 156.59872436523438 105.18560028076172 C156.59930419921875 103.73800659179688 156.59751892089844 102.79962158203125 156.59751892089844 102.79962158203125 L152.4348602294922 102.81855773925781"></path>
<path fill="#3D2015" fill-opacity="1.0"  filling="0" d="M132.8356170654297 137.18130493164062 C132.8356170654297 137.18130493164062 132.38015747070312 137.374267578125 131.5004119873047 137.6625213623047 C130.62066650390625 137.95077514648438 129.316650390625 138.33428955078125 127.61954498291016 138.71539306640625 C125.92242431640625 139.09649658203125 123.83221435546875 139.47518920898438 121.38008117675781 139.7537841796875 C117.75202178955078 140.1660919189453 115.3179931640625 140.37364196777344 113.78263092041016 140.47811889648438 C112.24726104736328 140.58258056640625 111.61054992675781 140.583984375 111.57711791992188 140.583984375 C111.46754455566406 140.37225341796875 110.96101379394531 139.39019775390625 110.30936431884766 138.01966857910156 C109.65771484375 136.64913940429688 108.86094665527344 134.89013671875 108.17090606689453 133.12449645996094 C107.48087310791016 131.35887145996094 106.89756774902344 129.58660888671875 106.67283630371094 128.18959045410156 C106.61712646484375 127.83856201171875 106.57257080078125 127.46526336669922 106.54469299316406 127.07524108886719 C106.4833984375 126.2447738647461 106.47782897949219 125.33226013183594 106.50917053222656 124.3953628540039 C106.54051971435547 123.4584732055664 106.60877990722656 122.49720001220703 106.69514465332031 121.56922149658203 C106.79264068603516 120.52980041503906 106.91382598876953 119.53218078613281 107.03361511230469 118.65859985351562 C107.15341186523438 117.78501892089844 107.27181243896484 117.03547668457031 107.36373901367188 116.49223327636719 C107.41389465332031 116.19135284423828 107.45289611816406 115.95732879638672 107.48075866699219 115.79576873779297 C108.52824401855469 115.56173706054688 109.34783935546875 115.38343811035156 109.83258056640625 115.27758026123047 C109.81587219238281 116.15234375 109.86602783203125 117.89129638671875 110.43434143066406 119.63581848144531 C110.8299331665039 120.84516143798828 111.4736099243164 122.0600814819336 112.51719665527344 122.97615051269531 C113.560791015625 123.89222717285156 115.0042953491211 124.50944519042969 116.99954223632812 124.52337646484375 C118.98490142822266 124.53451538085938 120.58504486083984 123.88387298583984 121.86849212646484 122.90164184570312 C123.15193939208984 121.9194107055664 124.11869812011719 120.60558319091797 124.83728790283203 119.29036712646484 C125.55587768554688 117.97515106201172 126.02629089355469 116.65853881835938 126.31705474853516 115.67073059082031 C126.60782623291016 114.68292999267578 126.71894836425781 114.02392578125 126.71894836425781 114.02392578125 C127.35969543457031 114.21337127685547 127.98928833007812 114.40838623046875 128.58047485351562 114.59781646728516 C128.66403198242188 114.61453247070312 128.94821166992188 114.68141174316406 129.4051055908203 114.78169250488281 C129.396728515625 115.12157440185547 129.3716583251953 116.09398651123047 129.35702514648438 117.36671447753906 C129.3424072265625 118.63944244384766 129.33822631835938 120.21248626708984 129.3716583251953 121.7536392211914 C129.396728515625 123.02985382080078 129.4496612548828 124.28378295898438 129.54298400878906 125.32102966308594 C129.63632202148438 126.35828399658203 129.77003479003906 127.17886352539062 129.95669555664062 127.58838653564453 C130.8370361328125 129.48892211914062 132.25282287597656 129.4443359375 132.25282287597656 129.4443359375 L132.54421997070312 133.3128204345703 L132.8356170654297 137.18130493164062"></path>
<path fill="#633C35" fill-opacity="1.0"  filling="0" d="M116.48193359375 153.07308959960938 C116.48193359375 153.07308959960938 115.72635650634766 153.0580291748047 114.45565795898438 153.0372314453125 C113.18495178222656 153.0164337158203 111.39912414550781 152.98989868164062 109.33863067626953 152.96693420410156 C107.27812957763672 152.9439697265625 104.94296264648438 152.9246063232422 102.57357025146484 152.91812133789062 C100.20417785644531 152.91165161132812 97.80056762695312 152.91807556152344 95.60318756103516 152.94671630859375 C93.40580749511719 152.97535705566406 91.41465759277344 153.02621459960938 89.87020111083984 153.10862731933594 C88.32573699951172 153.19102478027344 87.22796630859375 153.30496215820312 86.81732177734375 153.45977783203125 C85.995849609375 153.76937866210938 85.17166137695312 154.1017608642578 84.46819305419922 154.64376831054688 C83.76472473144531 155.18577575683594 83.18197631835938 155.93740844726562 82.8434066772461 157.0854949951172 C82.50482940673828 158.23358154296875 82.41041564941406 159.77813720703125 82.68362426757812 161.906005859375 C82.89144897460938 163.52418518066406 83.25636291503906 165.4188690185547 83.68682861328125 167.3506622314453 C84.11730194091797 169.28245544433594 84.61332702636719 171.25135803222656 85.0833740234375 173.0179901123047 C85.55342102050781 174.7846221923828 85.99748992919922 176.34898376464844 86.32405090332031 177.4716796875 C86.65060424804688 178.59439086914062 86.85964965820312 179.2754364013672 86.85964965820312 179.2754364013672 C86.85964965820312 179.2754364013672 88.10518646240234 179.216064453125 89.7807388305664 179.10508728027344 C91.45629119873047 178.99411010742188 93.56185913085938 178.83151245117188 95.28192138671875 178.62506103515625 C97.00198364257812 178.41860961914062 98.3365478515625 178.16830444335938 98.47007751464844 177.88192749023438 C98.67039489746094 177.4523468017578 98.51368713378906 175.4499969482422 98.3069076538086 173.55503845214844 C98.10012817382812 171.66009521484375 97.84326171875 169.87252807617188 97.84326171875 169.87252807617188 C97.84326171875 169.87252807617188 98.345458984375 169.93504333496094 99.2242431640625 170.0354461669922 C100.10302734375 170.13584899902344 101.35839080810547 170.27413940429688 102.86473083496094 170.42568969726562 C104.3710708618164 170.57723999023438 106.12837982177734 170.74203491210938 108.01104736328125 170.8954620361328 C109.89371490478516 171.04888916015625 111.90174102783203 171.19093322753906 113.90951538085938 171.29696655273438 C115.91728973388672 171.40301513671875 117.9248046875 171.47303771972656 119.80645751953125 171.48243713378906 C121.6881103515625 171.49183654785156 123.44388580322266 171.4405975341797 124.94818878173828 171.3040771484375 C126.45248413085938 171.16757202148438 127.70530700683594 170.94580078125 128.58102416992188 170.61412048339844 C130.11354064941406 170.03353881835938 131.209716796875 168.59950256347656 131.97720336914062 166.77645874023438 C132.74468994140625 164.95339965820312 133.18350219726562 162.74131774902344 133.4012908935547 160.60464477539062 C133.61907958984375 158.46798706054688 133.6158447265625 156.40672302246094 133.49923706054688 154.88531494140625 C133.38262939453125 153.3638916015625 133.15264892578125 152.38232421875 132.91696166992188 152.405029296875 C130.43807983398438 152.64405822753906 128.1714630126953 152.80532836914062 126.16588592529297 152.91278076171875 C124.16031646728516 153.02023315429688 122.4157943725586 153.0738525390625 120.98113250732422 153.0976104736328 C119.54647827148438 153.12136840820312 118.42167663574219 153.115234375 117.6555404663086 153.10316467285156 C116.889404296875 153.09109497070312 116.48193359375 153.07308959960938 116.48193359375 153.07308959960938"></path>
<path fill="#633C35" fill-opacity="1.0"  filling="0" d="M123.43548583984375 153.03408813476562 C123.43548583984375 153.03408813476562 124.43980407714844 152.93017578125 125.82772827148438 152.6985321044922 C127.21566772460938 152.46688842773438 128.98721313476562 152.10751342773438 130.5216827392578 151.59657287597656 C132.05613708496094 151.08563232421875 133.59422302246094 150.285400390625 134.74868774414062 149.61288452148438 C135.9031524658203 148.94036865234375 136.67401123046875 148.3955841064453 136.67401123046875 148.3955841064453 C136.67401123046875 148.3955841064453 137.40472412109375 148.78221130371094 138.4546661376953 149.44219970703125 C139.50460815429688 150.1021728515625 140.87380981445312 151.03553771972656 142.15077209472656 152.12899780273438 C143.427734375 153.22247314453125 144.61248779296875 154.47605895996094 145.2935333251953 155.77650451660156 C146.31539916992188 157.72689819335938 146.989013671875 159.1056365966797 147.47682189941406 160.0780487060547 C147.96463012695312 161.0504608154297 148.26663208007812 161.61654663085938 148.5452117919922 161.94166564941406 C148.63807678222656 162.05003356933594 149.21783447265625 162.54722595214844 150.12692260742188 163.30577087402344 C151.0360107421875 164.06431579589844 152.2744140625 165.084228515625 153.68458557128906 166.23805236816406 C155.09475708007812 167.39187622070312 156.6766815185547 168.67959594726562 158.27281188964844 169.97378540039062 C159.8689422607422 171.26795959472656 161.479248046875 172.568603515625 162.94619750976562 173.74822998046875 C164.41314697265625 174.92787170410156 165.73670959472656 175.98651123046875 166.75933837890625 176.79669189453125 C167.78195190429688 177.60687255859375 168.50363159179688 178.16860961914062 168.76681518554688 178.3544158935547 C169.55633544921875 178.91159057617188 171.63461303710938 179.68954467773438 173.55032348632812 180.45587158203125 C175.46603393554688 181.22219848632812 177.21917724609375 181.97689819335938 177.3584747314453 182.487548828125 C177.4513397216797 182.8281707763672 176.85906982421875 184.13369750976562 176.02809143066406 185.72300720214844 C175.19711303710938 187.31231689453125 174.12744140625 189.1854248046875 173.26551818847656 190.6612091064453 C172.40357971191406 192.13697814941406 171.7493896484375 193.21542358398438 171.7493896484375 193.21542358398438 C171.7493896484375 193.21542358398438 171.3704376220703 193.01451110839844 170.68650817871094 192.66331481933594 C170.0025634765625 192.31211853027344 169.0136260986328 191.81065368652344 167.7936553955078 191.20956420898438 C166.5736846923828 190.6084747314453 165.12266540527344 189.9077606201172 163.51455688476562 189.15806579589844 C161.90646362304688 188.40835571289062 160.14126586914062 187.60968017578125 158.29293823242188 186.81265258789062 C156.44461059570312 186.01564025878906 154.51315307617188 185.22027587890625 152.57249450683594 184.47723388671875 C151.1862335205078 183.9464874267578 149.6416473388672 183.25839233398438 148.01226806640625 182.46875 C146.38287353515625 181.67910766601562 144.66868591308594 180.78790283203125 142.9432373046875 179.85093688964844 C141.2177734375 178.91397094726562 139.4810333251953 177.93124389648438 137.80654907226562 176.95852661132812 C136.13206481933594 175.98580932617188 134.51983642578125 175.02310180664062 133.04339599609375 174.126220703125 C131.56695556640625 173.2293243408203 130.22628784179688 172.39822387695312 129.09494018554688 171.688720703125 C127.96358489990234 170.97921752929688 127.04154205322266 170.39129638671875 126.40233612060547 169.98077392578125 C125.76313781738281 169.57022094726562 125.40676879882812 169.33706665039062 125.40676879882812 169.33706665039062 L124.20439147949219 165.06436157226562 L123.00201416015625 160.79165649414062 L123.21875 156.91287231445312 L123.43548583984375 153.03408813476562"></path>
<path fill="#E9DDCF" fill-opacity="1.0"  filling="0" d="M100.76065063476562 208.68597412109375 C100.75506591796875 209.13172912597656 100.68820190429688 209.4771728515625 100.52105712890625 209.53289794921875 C100.32466125488281 209.59976196289062 99.26930236816406 209.71714782714844 97.7891616821289 209.85423278808594 C96.30902099609375 209.99130249023438 94.40410614013672 210.14805603027344 92.50859069824219 210.2936553955078 C90.61307525634766 210.43923950195312 88.72695922851562 210.57366943359375 87.28443145751953 210.66610717773438 C85.84190368652344 210.75852966308594 84.84295654296875 210.8089599609375 84.72177124023438 210.78652954101562 C84.35400390625 210.71966552734375 84.25930786132812 210.47451782226562 84.17572021484375 210.10121154785156 L88.32195281982422 209.74740600585938 L92.46818542480469 209.39358520507812 L96.61441802978516 209.03977966308594 L100.76065063476562 208.68597412109375"></path>
<path fill="#3D2015" fill-opacity="1.0"  filling="0" d="M202.76962280273438 211.0484161376953 C202.76962280273438 211.0484161376953 202.35577392578125 212.1393585205078 201.82980346679688 213.27906799316406 C201.3038330078125 214.41876220703125 200.66574096679688 215.6072235107422 200.2172088623047 215.80224609375 C199.76589965820312 215.99447631835938 198.47018432617188 216.01675415039062 197.2469024658203 215.97357177734375 C196.02362060546875 215.93040466308594 194.87277221679688 215.82174682617188 194.711181640625 215.75210571289062 C194.5106201171875 215.66293334960938 194.4660186767578 215.24505615234375 194.4660186767578 214.86061096191406 C194.4660186767578 214.62660217285156 194.4771728515625 214.4093017578125 194.4771728515625 214.27000427246094 C194.4771728515625 213.89669799804688 197.1855926513672 211.00440979003906 197.1855926513672 211.00440979003906 C197.1855926513672 211.00440979003906 198.70724487304688 208.69712829589844 198.86328125 208.55784606933594 C198.9746856689453 208.46310424804688 200.83621215820312 209.7167510986328 201.9505615234375 210.4806671142578 C202.4297637939453 210.808837890625 202.76962280273438 211.0484161376953 202.76962280273438 211.0484161376953"></path>
<path fill="#E9DDCF" fill-opacity="1.0"  filling="0" d="M206.3751220703125 203.2067108154297 C206.3333282470703 203.42123413085938 205.86376953125 204.48431396484375 205.18873596191406 205.9423828125 C204.5137176513672 207.4004364013672 203.63323974609375 209.25344848632812 202.76962280273438 211.04783630371094 C202.76962280273438 211.04783630371094 202.35577392578125 212.1387939453125 201.82980346679688 213.27850341796875 C201.3038330078125 214.418212890625 200.66574096679688 215.606689453125 200.2172088623047 215.80169677734375 C199.76589965820312 215.99392700195312 198.47018432617188 216.01620483398438 197.2469024658203 215.9730224609375 C196.02362060546875 215.92984008789062 194.87277221679688 215.82118225097656 194.711181640625 215.7515411376953 C194.5106201171875 215.6623992919922 194.4660186767578 215.24452209472656 194.4660186767578 214.8600616455078 C195.17391967773438 214.87677001953125 196.425048828125 214.89767456054688 197.5430908203125 214.88233947753906 C198.66114807128906 214.8670196533203 199.64608764648438 214.81549072265625 199.8216094970703 214.68734741210938 C199.9720458984375 214.57032775878906 200.7465362548828 213.01522827148438 201.6942901611328 211.02613830566406 C201.77783203125 210.84783935546875 201.86700439453125 210.66954040527344 201.9505615234375 210.48008728027344 C202.66653442382812 208.97543334960938 203.45091247558594 207.2909393310547 204.1259307861328 205.82870483398438 C204.80096435546875 204.36647033691406 205.36663818359375 203.12648010253906 205.64523315429688 202.51080322265625 C205.6897735595703 202.5330810546875 205.72879028320312 202.5553741455078 205.76779174804688 202.57766723632812 C206.14666748046875 202.8055419921875 206.4141387939453 203.03399658203125 206.3751220703125 203.2067108154297"></path>
<path fill="#98251E" fill-opacity="1.0"  filling="0" d="M89.50680541992188 99.13450622558594 C89.50680541992188 100.27337646484375 89.90127563476562 101.19660949707031 91.2830810546875 101.19660949707031 C92.66488647460938 101.19660949707031 93.12899780273438 100.27337646484375 93.12899780273438 99.13450622558594 C93.12899780273438 97.99563598632812 92.80416870117188 97.07240295410156 91.2830810546875 97.07240295410156 C89.761962890625 97.07240295410156 89.50680541992188 97.99563598632812 89.50680541992188 99.13450622558594"></path>
<path fill="#98251E" fill-opacity="1.0"  filling="0" d="M87.8179931640625 99.93016052246094 L90.59829711914062 99.93016052246094 L90.59829711914062 98.33885192871094 L87.8179931640625 98.33885192871094 C87.37838745117188 98.33885192871094 87.0223388671875 98.69489288330078 87.0223388671875 99.13450622558594 C87.0223388671875 99.5741195678711 87.37838745117188 99.93016052246094 87.8179931640625 99.93016052246094"></path>
<path fill="#FF8757" fill-opacity="1.0"  filling="0" d="M86.3331298828125 103.65711212158203 C86.3331298828125 103.65711212158203 87.61184692382812 102.75950622558594 88.3963623046875 102.11149597167969 C89.18084716796875 101.46295166015625 89.58926391601562 99.93071746826172 89.58926391601562 99.93071746826172 L88.65765380859375 99.93071746826172 C88.65765380859375 99.93071746826172 88.78414916992188 97.82068634033203 88.08767700195312 97.09858703613281 C87.39120483398438 96.37647247314453 85.16415405273438 96.89466094970703 83.858154296875 97.521484375 C83.36477661132812 97.75828552246094 83.05136108398438 99.18952941894531 82.86128997802734 100.56157684326172 C82.67121887207031 101.93362426757812 82.6044921875 103.24647521972656 82.6044921875 103.24647521972656 C82.6044921875 103.24647521972656 84.5986328125 105.20661926269531 84.70281982421875 105.20661926269531 C84.80645751953125 105.20661926269531 86.3331298828125 103.65711212158203 86.3331298828125 103.65711212158203"></path>
<path fill="#98251E" fill-opacity="1.0"  filling="0" d="M83.3360595703125 99.13450622558594 C83.3360595703125 100.27337646484375 82.94155883789062 101.19660949707031 81.55978393554688 101.19660949707031 C80.177978515625 101.19660949707031 79.7138671875 100.27337646484375 79.7138671875 99.13450622558594 C79.7138671875 97.99563598632812 80.0386962890625 97.07240295410156 81.55978393554688 97.07240295410156 C83.080322265625 97.07240295410156 83.3360595703125 97.99563598632812 83.3360595703125 99.13450622558594"></path>
<path fill="#98251E" fill-opacity="1.0"  filling="0" d="M83.99630737304688 99.93016052246094 L81.21603393554688 99.93016052246094 L81.21603393554688 98.33885192871094 L83.99630737304688 98.33885192871094 C84.43594360351562 98.33885192871094 84.7919921875 98.69489288330078 84.7919921875 99.13450622558594 C84.7919921875 99.5741195678711 84.43594360351562 99.93016052246094 83.99630737304688 99.93016052246094"></path>
<path fill="#98251E" fill-opacity="1.0"  filling="0" d="M149.697998046875 98.71217346191406 C149.697998046875 99.85104370117188 149.3035125732422 100.77427673339844 147.92173767089844 100.77427673339844 C146.53993225097656 100.77427673339844 146.0758056640625 99.85104370117188 146.0758056640625 98.71217346191406 C146.0758056640625 97.57329559326172 146.40065002441406 96.65007019042969 147.92173767089844 96.65007019042969 C149.4428253173828 96.65007019042969 149.697998046875 97.57329559326172 149.697998046875 98.71217346191406"></path>
<path fill="#98251E" fill-opacity="1.0"  filling="0" d="M151.38681030273438 99.50782775878906 L148.6064910888672 99.50782775878906 L148.6064910888672 97.91651916503906 L151.38681030273438 97.91651916503906 C151.826416015625 97.91651916503906 152.1824493408203 98.2725601196289 152.1824493408203 98.71217346191406 C152.1824493408203 99.15178680419922 151.826416015625 99.50782775878906 151.38681030273438 99.50782775878906"></path>
<path fill="#FF8757" fill-opacity="1.0"  filling="0" d="M152.87167358398438 103.23421478271484 C152.87167358398438 103.23421478271484 151.5929718017578 102.33660125732422 150.80845642089844 101.68861389160156 C150.02395629882812 101.0400619506836 149.61553955078125 99.50782775878906 149.61553955078125 99.50782775878906 L150.54713439941406 99.50782775878906 C150.54713439941406 99.50782775878906 150.42066955566406 97.39778900146484 151.1171417236328 96.67569732666016 C151.81361389160156 95.95359802246094 154.0400848388672 96.47177124023438 155.34666442871094 97.09858703613281 C155.8400421142578 97.33538818359375 156.15345764160156 98.76676940917969 156.34353637695312 100.13896179199219 C156.53359985351562 101.51113891601562 156.60032653808594 102.82412719726562 156.60032653808594 102.82412719726562 C156.60032653808594 102.82412719726562 154.60618591308594 104.78428649902344 154.50254821777344 104.78428649902344 C154.39834594726562 104.78428649902344 152.87167358398438 103.23421478271484 152.87167358398438 103.23421478271484"></path>
<path fill="#98251E" fill-opacity="1.0"  filling="0" d="M155.86875915527344 98.71217346191406 C155.86875915527344 99.85104370117188 156.2632293701172 100.77427673339844 157.64501953125 100.77427673339844 C159.02682495117188 100.77427673339844 159.49095153808594 99.85104370117188 159.49095153808594 98.71217346191406 C159.49095153808594 97.57329559326172 159.16610717773438 96.65007019042969 157.64501953125 96.65007019042969 C156.12449645996094 96.65007019042969 155.86875915527344 97.57329559326172 155.86875915527344 98.71217346191406"></path>
<path fill="#98251E" fill-opacity="1.0"  filling="0" d="M155.20848083496094 99.50782775878906 L157.98880004882812 99.50782775878906 L157.98880004882812 97.91651916503906 L155.20848083496094 97.91651916503906 C154.7688751220703 97.91651916503906 154.412841796875 98.2725601196289 154.412841796875 98.71217346191406 C154.412841796875 99.15178680419922 154.7688751220703 99.50782775878906 155.20848083496094 99.50782775878906"></path>
<path fill="#633C35" fill-opacity="1.0"  filling="0" d="M113.41246032714844 153.37673950195312 L114.82490539550781 150.7184600830078 C114.82490539550781 150.7184600830078 115.92184448242188 151.23635864257812 117.49238586425781 151.78656005859375 C119.06292724609375 152.33677673339844 121.10707092285156 152.9193115234375 123.00146484375 153.04856872558594 C124.26439666748047 153.13475036621094 126.08159637451172 153.05221557617188 127.94322204589844 152.9038848876953 C129.8048553466797 152.75555419921875 131.71092224121094 152.54141235351562 133.15158081054688 152.36436462402344 C134.59222412109375 152.1873016357422 135.56747436523438 152.04733276367188 135.56747436523438 152.04733276367188 C135.56747436523438 152.04733276367188 134.05039978027344 152.6207275390625 132.01988220214844 153.38525390625 C129.98936462402344 154.1497802734375 127.44539642333984 155.10543823242188 125.3916015625 155.86996459960938 C123.33780670166016 156.63449096679688 121.77418518066406 157.2078857421875 121.704345703125 157.2078857421875 C121.5998764038086 157.2078857421875 119.52690124511719 156.25009155273438 117.48004913330078 155.2923126220703 C115.43319702148438 154.33453369140625 113.41246032714844 153.37673950195312 113.41246032714844 153.37673950195312"></path></svg>