<svg xmlns="http://www.w3.org/2000/svg" viewBox="0.0 0.0 256.0 256.0" height="256.0px" width="256.0px"><path fill="#FFCC85" fill-opacity="1.0"  filling="0" d="M121.52020263671875 180.54611206054688 C122.11894226074219 180.58204650878906 123.49351501464844 181.58383178710938 124.73361206054688 182.81300354003906 C125.97370147705078 184.0421905517578 127.07931518554688 185.498779296875 127.14013671875 186.4443359375 C127.1865234375 187.16380310058594 126.5841064453125 188.1870880126953 125.74083709716797 189.27365112304688 C124.89756774902344 190.36021423339844 123.8134536743164 191.51007080078125 122.89645385742188 192.48265075683594 C122.31954956054688 193.09397888183594 121.80897521972656 193.63589477539062 121.46612548828125 194.0475311279297 C121.10777282714844 194.4776153564453 120.29756927490234 195.43104553222656 119.22149658203125 196.58746337890625 C118.14542388916016 197.74388122558594 116.80348205566406 199.10328674316406 115.38164520263672 200.3452911376953 C113.95980834960938 201.58731079101562 112.45808410644531 202.7119140625 111.06243896484375 203.39877319335938 C109.66680145263672 204.08563232421875 108.37724304199219 204.33474731445312 107.3797607421875 203.82571411132812 C105.38481903076172 202.80764770507812 104.99913024902344 201.40237426757812 105.2548828125 200.050537109375 C105.5106201171875 198.69869995117188 106.40779876708984 197.40032958984375 106.97857666015625 196.5960693359375 C107.35909271240234 196.05990600585938 108.07418060302734 195.11830139160156 108.91502380371094 193.91259765625 C109.75586700439453 192.70689392089844 110.72245788574219 191.23709106445312 111.60596466064453 189.64453125 C112.48947143554688 188.05197143554688 113.28990173339844 186.33663940429688 113.79841613769531 184.63986206054688 L113.84632873535156 184.4801025390625 C114.33887481689453 182.83494567871094 114.67515563964844 181.7119598388672 115.13147735595703 180.9916534423828 C115.58779907226562 180.2713623046875 116.16415405273438 179.9537353515625 117.1368408203125 179.9193115234375 C118.10952758789062 179.8848876953125 119.47854614257812 180.13363647460938 121.52020263671875 180.54611206054688"></path>
<path fill="#FFCC85" fill-opacity="1.0"  filling="0" d="M151.11090087890625 153.3748779296875 C151.24948120117188 152.784423828125 152.48321533203125 151.5863494873047 153.92044067382812 150.56121826171875 C155.35768127441406 149.53610229492188 156.99842834472656 148.68392944335938 157.9510498046875 148.78530883789062 C158.90367126464844 148.88668823242188 160.18760681152344 150.1949005126953 161.41702270507812 151.6931915283203 C162.64642333984375 153.1914825439453 163.82131958007812 154.87985229492188 164.55584716796875 155.74154663085938 C164.92311096191406 156.1722412109375 165.6603546142578 157.061279296875 166.5172576904297 158.20924377441406 C167.37416076660156 159.35720825195312 168.3507080078125 160.7641143798828 169.1965789794922 162.23052978515625 C170.04244995117188 163.69696044921875 170.75765991210938 165.222900390625 171.0918426513672 166.60894775390625 C171.42604064941406 167.9949951171875 171.3792266845703 169.24114990234375 170.70108032226562 170.14801025390625 C169.34478759765625 171.96170043945312 168.05946350097656 172.2870330810547 166.937255859375 171.98228454589844 C165.8150634765625 171.67755126953125 164.85598754882812 170.74273681640625 164.15219116210938 170.03616333007812 C163.6829833984375 169.56512451171875 162.91845703125 168.75555419921875 161.92945861816406 167.79689025878906 C160.94046020507812 166.83822631835938 159.72695922851562 165.73045349121094 158.35983276367188 164.6630401611328 C156.99270629882812 163.59561157226562 155.47195434570312 162.56854248046875 153.86837768554688 161.77127075195312 L153.71722412109375 161.69630432128906 C152.16217041015625 160.9233856201172 151.10061645507812 160.395751953125 150.4608917236328 159.81756591796875 C149.8211669921875 159.2393798828125 149.603271484375 158.61061096191406 149.73548889160156 157.6354522705078 C149.8677215576172 156.6602783203125 150.35009765625 155.33871459960938 151.11090087890625 153.3748779296875"></path>
<path fill="#FBC9BE" fill-opacity="1.0"  filling="0" d="M114.69174194335938 90.10088348388672 C114.07102966308594 89.5221176147461 113.22980499267578 88.7755355834961 112.23286437988281 87.90272521972656 C111.23592376708984 87.02991485595703 110.08325958251953 86.03086853027344 108.83966064453125 84.94718933105469 C107.5960693359375 83.86351013183594 106.26154327392578 82.69518280029297 104.90087127685547 81.48381042480469 C103.54019927978516 80.2724380493164 102.15338897705078 79.01801300048828 100.80521392822266 77.76212310791016 C99.45704650878906 76.50623321533203 98.14752197265625 75.24888610839844 96.9414291381836 74.03166961669922 C95.73533630371094 72.814453125 94.63267517089844 71.63735961914062 93.69823455810547 70.54197692871094 C92.7637939453125 69.44660186767578 91.99757385253906 68.43293762207031 91.46437072753906 67.54258728027344 C90.7178726196289 66.29608917236328 90.00735473632812 64.76424407958984 89.34330749511719 63.07967758178711 C88.67926025390625 61.395111083984375 88.06169128417969 59.557823181152344 87.50109100341797 57.70044708251953 C86.94048309326172 55.84307098388672 86.43685150146484 53.96561050415039 86.00067138671875 52.200687408447266 C85.56449890136719 50.435768127441406 85.19578552246094 48.78339385986328 84.905029296875 47.376190185546875 C84.61426544189453 45.96898651123047 84.40145874023438 44.80696105957031 84.277099609375 44.022735595703125 C84.05796813964844 42.63972091674805 84.30823516845703 41.233428955078125 84.81885528564453 40.2810173034668 C85.3294677734375 39.32860565185547 86.10043334960938 38.830081939697266 86.92268371582031 39.262596130371094 C87.74493408203125 39.69511413574219 88.61848449707031 41.05867004394531 89.33425903320312 43.83042907714844 C89.58094787597656 44.785823822021484 89.93948364257812 45.88886642456055 90.39037322998047 47.12663269042969 C90.84125518798828 48.36439895629883 91.38447570800781 49.73689270019531 92.00052642822266 51.2311897277832 C92.6165771484375 52.725486755371094 93.30545043945312 54.34158706665039 94.0476303100586 56.06657409667969 C94.78981018066406 57.79155731201172 95.58529663085938 59.625423431396484 96.41458129882812 61.55525207519531 C96.53080749511719 61.825897216796875 96.97193145751953 62.21726989746094 97.6762466430664 62.72364044189453 C98.38056182861328 63.230010986328125 99.34806823730469 63.85137939453125 100.51705169677734 64.58201599121094 C101.68603515625 65.31265258789062 103.05651092529297 66.15254974365234 104.56675720214844 67.09598541259766 C106.0770034790039 68.03942108154297 107.7270278930664 69.08639526367188 109.45511627197266 70.23117065429688 C111.18321228027344 71.37594604492188 112.98936462402344 72.61852264404297 114.8118896484375 73.95317840576172 C116.63441467285156 75.28782653808594 118.47329711914062 76.71455383300781 120.26683044433594 78.22761535644531 C121.57626342773438 79.33184814453125 122.18528747558594 80.90824127197266 122.28658294677734 82.5811538696289 C122.38787078857422 84.25406646728516 121.9814224243164 86.02350616455078 121.25992584228516 87.51380920410156 C120.5384292602539 89.00411224365234 119.50187683105469 90.21528625488281 118.34295654296875 90.77168273925781 C117.18402862548828 91.32807922363281 115.9027328491211 91.22969055175781 114.69174194335938 90.10088348388672"></path>
<path fill="#FBC9BE" fill-opacity="1.0"  filling="0" d="M140.8375244140625 99.95832061767578 C139.31289672851562 100.60359191894531 138.07550048828125 100.25680541992188 137.1775360107422 99.33686065673828 C136.27957153320312 98.41690826416016 135.72105407714844 96.9238052368164 135.55416870117188 95.27644348144531 C135.38729858398438 93.62908172607422 135.612060546875 91.82746887207031 136.28065490722656 90.29051208496094 C136.9492645263672 88.75354766845703 138.0617218017578 87.48124694824219 139.67022705078125 86.89249420166016 C141.87376403808594 86.08599090576172 144.0830078125 85.36917877197266 146.24046325683594 84.72859191894531 C148.3979034423828 84.0880126953125 150.50355529785156 83.52366638183594 152.49990844726562 83.0221176147461 C154.4962615966797 82.52056121826172 156.38331604003906 82.08179473876953 158.1035919189453 81.69236755371094 C159.8238525390625 81.30294036865234 161.37733459472656 80.96285247802734 162.70651245117188 80.65866088867188 C164.0356903076172 80.35446166992188 165.1405792236328 80.0861587524414 165.96368408203125 79.84029388427734 C166.78680419921875 79.59443664550781 167.328125 79.37101745605469 167.5301513671875 79.15658569335938 C168.68276977539062 77.93356323242188 169.90672302246094 76.66578674316406 171.14366149902344 75.39302825927734 C172.380615234375 74.12026977539062 173.6305389404297 72.84253692626953 174.83509826660156 71.59960174560547 C176.03965759277344 70.35665893554688 177.1988525390625 69.14851379394531 178.25430297851562 68.01493835449219 C179.30975341796875 66.88136291503906 180.26148986816406 65.82234954833984 181.05113220214844 64.87767791748047 C181.8407745361328 63.93301010131836 182.46832275390625 63.102684020996094 182.87542724609375 62.42646789550781 C183.33438110351562 61.66400146484375 185.24607849121094 61.0428466796875 186.55130004882812 61.21357727050781 C187.85650634765625 61.38430404663086 188.55523681640625 62.34691619873047 186.5882568359375 64.75198364257812 C186.08578491210938 65.36650085449219 185.44874572753906 66.32408142089844 184.70591735839844 67.49951934814453 C183.9630889892578 68.67495727539062 183.11447143554688 70.06824493408203 182.18885803222656 71.55419158935547 C181.26324462890625 73.0401382446289 180.26063537597656 74.61874389648438 179.20980834960938 76.16481018066406 C178.1589813232422 77.71086883544922 177.0599365234375 79.2243881225586 175.94146728515625 80.58016204833984 C174.822998046875 81.9359359741211 173.68511962890625 83.13397216796875 172.55657958984375 84.04905700683594 C171.8512420654297 84.62091064453125 170.912109375 85.26219940185547 169.7979736328125 85.95115661621094 C168.68382263183594 86.6401138305664 167.39466857910156 87.3767318725586 165.98928833007812 88.13924407958984 C164.5839080810547 88.9017562866211 163.06228637695312 89.6901626586914 161.4832305908203 90.4826889038086 C159.9041748046875 91.27521514892578 158.26768493652344 92.07186889648438 156.63253784179688 92.85086822509766 C154.9973907470703 93.62986755371094 153.36358642578125 94.39122772216797 151.78990173339844 95.1131591796875 C150.2162322998047 95.83509063720703 148.7026824951172 96.51759338378906 147.30804443359375 97.138916015625 C145.91342163085938 97.7602310180664 144.6376953125 98.32035827636719 143.53968811035156 98.79751586914062 C142.44166564941406 99.27467346191406 141.5213623046875 99.66886901855469 140.8375244140625 99.95832061767578"></path>
<path fill="#FB9300" fill-opacity="1.0"  filling="0" d="M149.86245727539062 153.9505615234375 C150.00100708007812 153.36012268066406 151.23472595214844 152.16204833984375 152.67196655273438 151.1369171142578 C154.10919189453125 150.11178588867188 155.7499542236328 149.25961303710938 156.70257568359375 149.36099243164062 C157.65521240234375 149.46237182617188 158.93914794921875 150.770751953125 160.16856384277344 152.2691192626953 C161.39797973632812 153.76748657226562 162.57286071777344 155.4558563232422 163.307373046875 156.3172607421875 C163.6746368408203 156.74795532226562 164.41188049316406 157.63697814941406 165.26878356933594 158.7849578857422 C166.1256866455078 159.93292236328125 167.10223388671875 161.33984375 167.94810485839844 162.80628967285156 C168.79397583007812 164.27273559570312 169.50918579101562 165.79873657226562 169.8433837890625 167.18487548828125 C170.17758178710938 168.57101440429688 170.13076782226562 169.81729125976562 169.45263671875 170.7242889404297 C168.29263305664062 172.27536010742188 167.1231231689453 172.37811279296875 166.05438232421875 171.8770751953125 C164.98562622070312 171.3760223388672 164.0176544189453 170.27117919921875 163.26071166992188 169.4070281982422 C163.0045166015625 169.11395263671875 162.77224731445312 168.84915161132812 162.5682373046875 168.64456176757812 C162.0990447998047 168.17352294921875 161.3718719482422 167.58261108398438 160.43263244628906 166.9154815673828 C159.493408203125 166.24835205078125 158.34210205078125 165.50502014160156 157.02467346191406 164.72914123535156 C155.70724487304688 163.95326232910156 154.22366333007812 163.1448516845703 152.619873046875 162.34756469726562 L152.4705810546875 162.2732391357422 C150.9149169921875 161.50010681152344 149.85296630859375 160.972412109375 149.2129669189453 160.3941650390625 C148.57296752929688 159.81591796875 148.35491943359375 159.1871337890625 148.48707580566406 158.21185302734375 C148.61924743652344 157.236572265625 149.10162353515625 155.914794921875 149.86245727539062 153.9505615234375"></path>
<path fill="#FBC9BE" fill-opacity="1.0"  filling="0" d="M150.17825317382812 153.90695190429688 C151.02777099609375 152.9177703857422 152.26217651367188 153.29322814941406 153.49609375 154.323486328125 C154.73001098632812 155.35374450683594 155.96347045898438 157.03878784179688 156.81106567382812 158.6687774658203 C157.65866088867188 160.2987518310547 158.12042236328125 161.8736572265625 157.81097412109375 162.68365478515625 C157.08905029296875 164.57354736328125 156.190185546875 164.07342529296875 155.20037841796875 163.52352905273438 C154.5208740234375 163.1456756591797 153.79833984375 162.74447631835938 153.0616455078125 163.07870483398438 L150.0709686279297 164.64276123046875 L147.08029174804688 166.2068328857422 L144.089599609375 167.77088928222656 L142.53790283203125 164.28231811523438 L140.9862060546875 160.7937469482422 C141.99813842773438 160.04991149902344 143.05430603027344 159.38916015625 144.1136016845703 158.72129821777344 C145.1728973388672 158.0534210205078 146.23532104492188 157.37841796875 147.25979614257812 156.60609436035156 C148.28427124023438 155.83377075195312 149.27078247070312 154.96412658691406 150.17825317382812 153.90695190429688"></path>
<path fill="#FB9300" fill-opacity="1.0"  filling="0" d="M120.70426940917969 179.26446533203125 C121.30300903320312 179.30072021484375 122.67758178710938 180.302490234375 123.91767883300781 181.53160095214844 C125.15777587890625 182.7606964111328 126.26339721679688 184.21713256835938 126.32421875 185.16268920898438 C126.37060546875 185.8821563720703 125.7681884765625 186.9054412841797 124.92491912841797 187.99200439453125 C124.08164978027344 189.07858276367188 122.9975357055664 190.22842407226562 122.08052062988281 191.20101928710938 C121.50363159179688 191.81234741210938 120.99307250976562 192.35426330566406 120.65020751953125 192.76589965820312 C120.29186248779297 193.19598388671875 119.48165893554688 194.1494598388672 118.40558624267578 195.30592346191406 C117.32951354980469 196.46238708496094 115.98756408691406 197.82183837890625 114.56572723388672 199.0638885498047 C113.14389038085938 200.30593872070312 111.64215850830078 201.43057250976562 110.24652099609375 202.11740112304688 C108.85087585449219 202.80422973632812 107.56132507324219 203.05325317382812 106.5638427734375 202.5440673828125 C104.85275268554688 201.67100524902344 104.75737762451172 200.29153442382812 105.29659271240234 198.87371826171875 C105.83580780029297 197.4559326171875 107.00961303710938 195.9998016357422 107.83688354492188 194.97344970703125 C108.11215209960938 194.63246154785156 108.34870910644531 194.33937072753906 108.5108642578125 194.11021423339844 C108.89139556884766 193.5740509033203 109.34558868408203 192.76625061035156 109.83854675292969 191.73895263671875 C110.33150482177734 190.71163940429688 110.86323547363281 189.46484375 111.39885711669922 188.05068969726562 C111.93447875976562 186.6365203857422 112.47398376464844 185.05499267578125 112.98249816894531 183.35821533203125 L113.03042602539062 183.19723510742188 C113.5231704711914 181.55227661132812 113.8595199584961 180.42950439453125 114.31584167480469 179.70938110351562 C114.77215576171875 178.9892578125 115.34844207763672 178.6717987060547 116.32106018066406 178.63748168945312 C117.29367065429688 178.60316467285156 118.66262817382812 178.85198974609375 120.70426940917969 179.26446533203125"></path>
<path fill="#FBC9BE" fill-opacity="1.0"  filling="0" d="M120.80012512207031 179.56552124023438 C121.90665435791016 180.22764587402344 121.74752807617188 181.4935760498047 120.95008087158203 182.86880493164062 C120.15263366699219 184.24404907226562 118.71687316894531 185.72857666015625 117.2701416015625 186.82786560058594 C115.82341766357422 187.92715454101562 114.36572265625 188.6412353515625 113.5244140625 188.4755401611328 C111.5614013671875 188.08908081054688 111.8980712890625 187.128173828125 112.2679443359375 186.072021484375 C112.52229309082031 185.34579467773438 112.79263305664062 184.57411193847656 112.34353637695312 183.91238403320312 L110.31806945800781 181.25921630859375 L108.29259490966797 178.6060333251953 L106.26712036132812 175.95285034179688 L109.40731048583984 173.85589599609375 L112.54750061035156 171.7589569091797 C113.44207000732422 172.62074279785156 114.26304626464844 173.53955078125 115.09148406982422 174.460205078125 C115.919921875 175.38087463378906 116.75582885742188 176.30340576171875 117.68024444580078 177.17266845703125 C118.60466766357422 178.04193115234375 119.61761474609375 178.85794067382812 120.80012512207031 179.56552124023438"></path>
<path fill="#059DBF" fill-opacity="1.0"  filling="0" d="M153.96173095703125 164.88075256347656 C153.34083557128906 165.4628448486328 152.5089874267578 166.22142028808594 151.51519775390625 167.08262634277344 C150.52139282226562 167.94383239746094 149.3656463623047 168.90768432617188 148.09693908691406 169.9003448486328 C146.82823181152344 170.89300537109375 145.44656372070312 171.91445922851562 144.0009307861328 172.89089965820312 C142.5552978515625 173.86734008789062 141.04571533203125 174.7987518310547 139.5211639404297 175.61129760742188 C137.99661254882812 176.42385864257812 136.4571075439453 177.1175537109375 134.95164489746094 177.61856079101562 C133.4461669921875 178.11956787109375 131.97474670410156 178.42788696289062 130.5863494873047 178.4696807861328 C129.19796752929688 178.51148986816406 127.8926010131836 178.28677368164062 126.71926879882812 177.72169494628906 C125.94062042236328 177.34671020507812 125.30927276611328 176.6287384033203 124.79973602294922 175.64666748046875 C124.29020690917969 174.6645965576172 123.9024887084961 173.41842651367188 123.61109924316406 171.987060546875 C123.31971740722656 170.55569458007812 123.1246566772461 168.93911743164062 123.00044250488281 167.2162322998047 C122.87622833251953 165.4933624267578 122.82286071777344 163.66416931152344 122.81485748291016 161.8075714111328 C122.80684661865234 159.95095825195312 122.84419250488281 158.06695556640625 122.90141296386719 156.23440551757812 C122.95863342285156 154.40187072753906 123.03572845458984 152.62081909179688 123.10720825195312 150.97012329101562 C123.22576904296875 148.22743225097656 123.32882690429688 145.84463500976562 123.2993392944336 144.183837890625 C123.26985168457031 142.52304077148438 123.1078109741211 141.584228515625 122.6961669921875 141.7295379638672 C122.23438262939453 141.89259338378906 121.44969177246094 142.4351348876953 120.4509506225586 143.23556518554688 C119.45220947265625 144.03599548339844 118.23942565917969 145.0943145751953 116.92143249511719 146.2889404296875 C115.60344696044922 147.4835662841797 114.18025207519531 148.8144989013672 112.7607192993164 150.16014099121094 C111.3411865234375 151.5057830810547 109.92529296875 152.86614990234375 108.62191772460938 154.11962890625 C107.31852722167969 155.3731231689453 106.12765502929688 156.51974487304688 105.15812683105469 157.43789672851562 C106.08627319335938 158.0491180419922 107.12127685546875 158.93875122070312 108.20865631103516 160.01651000976562 C109.29603576660156 161.09426879882812 110.43578338623047 162.36013793945312 111.57341766357422 163.72384643554688 C112.7110595703125 165.08755493164062 113.84658813476562 166.54910278320312 114.92552185058594 168.01817321777344 C116.00446319580078 169.4872589111328 117.02680969238281 170.96388244628906 117.93807983398438 172.35777282714844 C118.84934997558594 173.75164794921875 119.64954376220703 175.0627899169922 120.2841796875 176.20089721679688 C120.91881561279297 177.3389892578125 121.38789367675781 178.30404663085938 121.63693237304688 179.00579833984375 C120.64099884033203 179.95648193359375 119.37710571289062 180.86776733398438 117.99198150634766 181.68019104003906 C116.60684967041016 182.49261474609375 115.10047912597656 183.20614624023438 113.61956787109375 183.7613525390625 C112.13865661621094 184.3165283203125 110.68321228027344 184.71337890625 109.39993286132812 184.89236450195312 C108.70381164550781 183.67001342773438 107.8827133178711 182.41510009765625 106.9784927368164 181.14027404785156 C106.07426452636719 179.86544799804688 105.0869140625 178.57070922851562 104.05829620361328 177.26870727539062 C103.02967834472656 175.96670532226562 101.95978546142578 174.65744018554688 100.8904800415039 173.35357666015625 C99.82117462158203 172.04969787597656 98.75245666503906 170.751220703125 97.72618103027344 169.47076416015625 C96.69990539550781 168.1903076171875 95.716064453125 166.9279022216797 94.8165283203125 165.69618225097656 C93.9169921875 164.46446228027344 93.10174560546875 163.263427734375 92.41265869140625 162.10574340820312 C91.72357177734375 160.94805908203125 91.16062927246094 159.83370971679688 90.76570129394531 158.7753448486328 C90.37077331542969 157.71697998046875 90.14385986328125 156.714599609375 90.12680053710938 155.78086853027344 C90.11322021484375 155.03387451171875 90.3117904663086 154.1017608642578 90.68510437011719 153.0239715576172 C91.05841827392578 151.94618225097656 91.6064682006836 150.7227325439453 92.29185485839844 149.39308166503906 C92.97724914550781 148.0634307861328 93.79997253417969 146.62759399414062 94.72264099121094 145.12503051757812 C95.64530181884766 143.62246704101562 96.66790008544922 142.05319213867188 97.7530288696289 140.45664978027344 C98.8381576538086 138.86012268066406 99.9858169555664 137.23634338378906 101.15859985351562 135.62478637695312 C102.33138275146484 134.0132293701172 103.52928924560547 132.4138946533203 104.71492004394531 130.8662567138672 C105.90055084228516 129.31861877441406 107.07390594482422 127.82267761230469 108.19757843017578 126.41790771484375 C109.32125091552734 125.01313781738281 110.3952407836914 123.69953155517578 111.38214111328125 122.51656341552734 C112.36904907226562 121.33360290527344 113.26885986328125 120.2812728881836 114.044189453125 119.39906311035156 C114.81951141357422 118.516845703125 115.47035217285156 117.80474853515625 115.95928955078125 117.30223083496094 C116.52969360351562 116.59603881835938 117.66571044921875 116.15226745605469 119.14653778076172 115.9061508178711 C120.62735748291016 115.6600341796875 122.4529800415039 115.61157989501953 124.40259552001953 115.69600677490234 C126.35220336914062 115.78043365478516 128.42579650878906 115.99774932861328 130.40257263183594 116.2831802368164 C132.37933349609375 116.56861877441406 134.25927734375 116.92217254638672 135.82156372070312 117.27908325195312 C137.3838653564453 117.635986328125 138.62850952148438 117.99624633789062 139.334716796875 118.29509735107422 C140.17808532714844 119.97029113769531 140.86558532714844 121.63034057617188 141.4152374267578 123.2750244140625 C141.9648895263672 124.91970825195312 142.37669372558594 126.54903411865234 142.66864013671875 128.16278076171875 C142.96060180664062 129.7765350341797 143.13270568847656 131.3747100830078 143.20297241210938 132.95709228515625 C143.2732391357422 134.5394744873047 143.24166870117188 136.1060791015625 143.1262664794922 137.6566619873047 C143.0108642578125 139.20724487304688 142.81163024902344 140.74183654785156 142.5465850830078 142.2602081298828 C142.28152465820312 143.778564453125 141.95065307617188 145.2807159423828 141.5719451904297 146.7664337158203 C141.19325256347656 148.2521514892578 140.76673889160156 149.721435546875 140.3104248046875 151.17408752441406 C139.85409545898438 152.62672424316406 139.3679656982422 154.06271362304688 138.87002563476562 155.4818572998047 C138.37210083007812 156.90098571777344 137.86236572265625 158.30325317382812 137.35882568359375 159.68846130371094 C137.045166015625 160.55169677734375 136.73382568359375 161.4081573486328 136.42922973632812 162.25787353515625 C136.12464904785156 163.1075897216797 135.8268280029297 163.95053100585938 135.54022216796875 164.78672790527344 C136.0773468017578 163.8416290283203 136.9879608154297 162.7722625732422 138.07931518554688 161.68711853027344 C139.17066955566406 160.60195922851562 140.44277954101562 159.5010223388672 141.7029266357422 158.4927520751953 C142.9630584716797 157.48448181152344 144.21121215820312 156.5688934326172 145.25465393066406 155.8544464111328 C146.298095703125 155.13999938964844 147.1368408203125 154.626708984375 147.578125 154.42303466796875 C148.43849182128906 154.6493377685547 149.37423706054688 155.3585662841797 150.25961303710938 156.37966918945312 C151.14498901367188 157.40078735351562 151.98001098632812 158.73377990722656 152.63893127441406 160.2076416015625 C153.2978515625 161.68148803710938 153.78070068359375 163.29620361328125 153.96173095703125 164.88075256347656"></path>
<path fill="#3554A6" fill-opacity="1.0"  filling="0" d="M104.86749267578125 122.68006134033203 C105.35118103027344 122.14814758300781 105.90763854980469 120.96776580810547 106.47866821289062 119.47047424316406 C107.04969787597656 117.97318267822266 107.63529205322266 116.15897369384766 108.17727661132812 114.3593978881836 C108.71925354003906 112.559814453125 109.21760559082031 110.77487182617188 109.61415100097656 109.33610534667969 C110.01068878173828 107.89733123779297 110.30541229248047 106.80474090576172 110.44012451171875 106.3898696899414 C110.5748291015625 105.97499084472656 110.739990234375 104.76808166503906 110.89778900146484 103.18004608154297 C111.05558013916016 101.5920181274414 111.20601654052734 99.62286376953125 111.31126403808594 97.68350982666016 C111.41651916503906 95.74415588378906 111.47659301757812 93.83460998535156 111.45366668701172 92.36576843261719 C111.43074798583984 90.89692687988281 111.32483673095703 89.86880493164062 111.09811401367188 89.69232177734375 C110.79583740234375 89.4570083618164 109.7667236328125 88.65350341796875 108.45829772949219 87.57967376708984 C107.1498794555664 86.5058364868164 105.5621566772461 85.16166687011719 104.14266204833984 83.84500885009766 C102.72317504882812 82.52835083007812 101.47190856933594 81.23920440673828 100.83642578125 80.27542114257812 C101.35314178466797 79.00196838378906 101.95976257324219 77.5824966430664 102.67507934570312 76.17881774902344 C103.39039611816406 74.77513885498047 104.21442413330078 73.38725280761719 105.16594696044922 72.17697143554688 C106.11746978759766 70.9666976928711 107.19650268554688 69.93402862548828 108.42182922363281 69.24078369140625 C110.12064361572266 70.22732543945312 111.77259063720703 71.12989807128906 113.38790130615234 71.95661163330078 C115.00321197509766 72.7833251953125 116.58187866210938 73.53417205810547 118.13414764404297 74.21727752685547 C119.68640899658203 74.90037536621094 121.21226501464844 75.5157241821289 122.72193908691406 76.0714340209961 C124.23161315917969 76.62714385986328 125.72510528564453 77.12320709228516 127.21263885498047 77.56774139404297 C128.70018005371094 78.01227569580078 130.1817626953125 78.4052734375 131.66763305664062 78.75485229492188 C133.15350341796875 79.10443115234375 134.64364624023438 79.41058349609375 136.14828491210938 79.68142700195312 C137.65292358398438 79.9522705078125 139.17208862304688 80.18779754638672 140.71597290039062 80.3961181640625 C142.25985717773438 80.60444641113281 143.82847595214844 80.78556823730469 145.4320526123047 80.94759368896484 C147.03562927246094 81.109619140625 148.67416381835938 81.25254821777344 150.35791015625 81.3844985961914 C152.04164123535156 81.51644897460938 153.77056884765625 81.63741302490234 155.55490112304688 81.75550079345703 C156.5504150390625 82.66911315917969 157.3548583984375 83.94331359863281 157.95278930664062 85.36666870117188 C158.5507049560547 86.79002380371094 158.94210815429688 88.362548828125 159.11151123046875 89.87281799316406 C159.2809295654297 91.3830795288086 159.22836303710938 92.83108520507812 158.9383544921875 94.00540924072266 C158.06817626953125 94.62738800048828 156.48460388183594 95.22274017333984 154.69522094726562 95.75157928466797 C152.9058380126953 96.2804183959961 150.91064453125 96.74274444580078 149.2172393798828 97.09866333007812 C147.52383422851562 97.45458221435547 146.13223266601562 97.70409393310547 145.54998779296875 97.80731201171875 C144.96774291992188 97.91053009033203 144.4488525390625 99.0234146118164 144.03237915039062 100.60826873779297 C143.61590576171875 102.19313049316406 143.30186462402344 104.24995422363281 143.1293182373047 106.2410659790039 C142.95675659179688 108.232177734375 142.92568969726562 110.15757751464844 143.0751953125 111.47956085205078 C143.18731689453125 112.4710464477539 143.3262176513672 113.82464599609375 143.4900360107422 115.36433410644531 C143.6538543701172 116.90402221679688 143.84259033203125 118.62979125976562 144.0543975830078 120.3656234741211 C144.26620483398438 122.10145568847656 144.5010986328125 123.84735107421875 144.75723266601562 125.42727661132812 C145.0133514404297 127.0072021484375 145.29071044921875 128.42117309570312 145.58746337890625 129.49313354492188 C145.0181884765625 129.7338409423828 144.24200439453125 130.02833557128906 143.2930908203125 130.34042358398438 C142.34417724609375 130.6525115966797 141.22256469726562 130.98220825195312 139.96241760253906 131.29330444335938 C138.7022705078125 131.60440063476562 137.30361938476562 131.8968963623047 135.80062866210938 132.13462829589844 C134.2976531982422 132.37234497070312 132.6903533935547 132.55528259277344 131.01292419433594 132.64724731445312 C129.33551025390625 132.7392120361328 127.58796691894531 132.74020385742188 125.80451202392578 132.61402893066406 C124.02104949951172 132.48785400390625 122.20166778564453 132.23452758789062 120.38056182861328 131.81785583496094 C118.55945587158203 131.4011688232422 116.73663330078125 130.82113647460938 114.94628143310547 130.0415496826172 C113.15592956542969 129.261962890625 111.39805603027344 128.28285217285156 109.70685577392578 127.06800079345703 C108.01566314697266 125.8531494140625 106.39114379882812 124.40257263183594 104.86749267578125 122.68006134033203"></path>
<path fill="#FBC9BE" fill-opacity="1.0"  filling="0" d="M127.11553955078125 67.72014617919922 L132.08050537109375 68.26358032226562 L137.04547119140625 68.80702209472656 L136.54617309570312 73.26961517333984 L136.04685974121094 77.73220825195312 L135.54754638671875 82.19479370117188 C135.39805603027344 83.53111267089844 134.5559844970703 85.03571319580078 133.45864868164062 86.4455337524414 C132.36131286621094 87.85535430908203 131.00869750976562 89.17039489746094 129.83810424804688 90.12760925292969 C128.66751098632812 91.08482360839844 127.67894744873047 91.6842041015625 127.3096923828125 91.6626968383789 C126.94330596923828 91.64139556884766 126.60430145263672 90.71952819824219 126.32474517822266 89.41383361816406 C126.04519653320312 88.10813903808594 125.82510375976562 86.41863250732422 125.6965560913086 84.862060546875 C125.56800079345703 83.30548858642578 125.53099060058594 81.88185119628906 125.61761474609375 81.10791778564453 L126.11692810058594 76.64532470703125 L126.61624145507812 72.1827392578125 L127.11553955078125 67.72014617919922"></path>
<path fill="#E6B3A8" fill-opacity="1.0"  filling="0" d="M136.13308715820312 76.96256256103516 C135.95550537109375 78.5544662475586 135.77734375 80.14575958251953 135.59918212890625 81.73707580566406 C134.1752166748047 82.14954376220703 132.8474884033203 82.33706665039062 131.63653564453125 82.2584457397461 C130.42556762695312 82.17982482910156 129.3313751220703 81.83505249023438 128.3744354248047 81.18292999267578 C127.41748809814453 80.53079986572266 126.59780883789062 79.5713119506836 125.93589782714844 78.26325225830078 L126.20318603515625 75.87568664550781 C127.79109191894531 76.20869445800781 129.4796142578125 76.31391143798828 131.16812133789062 76.41912841796875 C132.8566436767578 76.52434539794922 134.545166015625 76.62956237792969 136.13308715820312 76.96256256103516"></path>
<path fill="#01304E" fill-opacity="1.0"  filling="0" d="M130.331298828125 51.404754638671875 C131.82859802246094 51.81742858886719 133.1597900390625 52.46364212036133 134.23985290527344 53.24859619140625 C135.3199005126953 54.033546447753906 136.1488037109375 54.95724105834961 136.6414794921875 55.92487716674805 C137.1341552734375 56.892513275146484 137.29061889648438 57.904090881347656 137.02581787109375 58.86480712890625 C136.76101684570312 59.8253173828125 136.1083221435547 60.61372756958008 135.1894073486328 61.19219207763672 C134.27049255371094 61.770660400390625 133.08535766601562 62.139183044433594 131.75567626953125 62.25992202758789 C130.42599487304688 62.38066101074219 128.9517822265625 62.25361633300781 127.45468139648438 61.84095001220703 C125.9573974609375 61.42807388305664 124.62620544433594 60.7817268371582 123.54615783691406 59.9967041015625 C122.46611785888672 59.21168518066406 121.63722229003906 58.287986755371094 121.14454650878906 57.3204231262207 C120.65186309814453 56.35285568237305 120.49539184570312 55.34141540527344 120.76019287109375 54.38090515136719 C121.0250015258789 53.42039108276367 121.67770385742188 52.63197708129883 122.59661865234375 52.05351257324219 C123.51553344726562 51.47504425048828 124.70065307617188 51.10652160644531 126.03032684326172 50.985782623291016 C127.36000061035156 50.86504364013672 128.83421325683594 50.992088317871094 130.331298828125 51.404754638671875"></path>
<path fill="#FBC9BE" fill-opacity="1.0"  filling="0" d="M134.0772705078125 51.68983459472656 C135.63121032714844 51.81566619873047 136.9669952392578 52.20684051513672 138.09780883789062 52.81429672241211 C139.22860717773438 53.4217529296875 140.15444946289062 54.245487213134766 140.8884735107422 55.236427307128906 C141.6225128173828 56.22737121582031 142.1647491455078 57.38552474975586 142.5283660888672 58.66181945800781 C142.89198303222656 59.93811798095703 143.07699584960938 61.33255386352539 143.0965576171875 62.79606628417969 C143.1161346435547 64.25957489013672 142.97027587890625 65.79216003417969 142.67214965820312 67.3447494506836 C142.3104248046875 69.22956848144531 141.6997833251953 70.94685363769531 140.9033203125 72.44984436035156 C140.10684204101562 73.95282745361328 139.12454223632812 75.24151611328125 138.0194549560547 76.26913452148438 C136.9143829345703 77.29676055908203 135.68653869628906 78.06332397460938 134.39901733398438 78.52205657958984 C133.11148071289062 78.98079681396484 131.76425170898438 79.13170623779297 130.42041015625 78.92803192138672 C129.02162170410156 78.716064453125 127.73439025878906 78.03196716308594 126.6124496459961 76.99451446533203 C125.49050903320312 75.95706176757812 124.53385925292969 74.56626892089844 123.79625701904297 72.94091033935547 C123.05865478515625 71.3155517578125 122.54010009765625 69.45562744140625 122.29434204101562 67.47991943359375 C122.06626892089844 65.64679718017578 122.00605773925781 63.88334655761719 122.1346206665039 62.241416931152344 C122.26318359375 60.5994873046875 122.58051300048828 59.07908630371094 123.10753631591797 57.7320556640625 C123.63456726074219 56.38502502441406 124.37128448486328 55.211368560791016 125.33861541748047 54.262935638427734 C126.30594635009766 53.31450271606445 127.50389099121094 52.59129333496094 128.95335388183594 52.14516067504883 C130.40283203125 51.69902801513672 132.10382080078125 51.52996826171875 134.0772705078125 51.68983459472656"></path>
<path fill="#C99387" fill-opacity="1.0"  filling="0" d="M137.24819946289062 69.71080017089844 C136.61398315429688 71.48580169677734 135.61862182617188 72.73399353027344 134.47279357910156 73.49825286865234 C133.32696533203125 74.26251220703125 132.03065490722656 74.54283142089844 130.7945556640625 74.38208770751953 C129.5584716796875 74.22134399414062 128.38258361816406 73.61953735351562 127.47758483886719 72.61954498291016 C126.57258605957031 71.61955261230469 125.93848419189453 70.22137451171875 125.78594970703125 68.4678726196289 C126.88204193115234 68.25201416015625 128.1331024169922 68.16258239746094 129.4433135986328 68.1911392211914 C130.7535400390625 68.21969604492188 132.1229248046875 68.36624145507812 133.45567321777344 68.62232971191406 C134.78842163085938 68.87842559814453 136.08453369140625 69.24406433105469 137.24819946289062 69.71080017089844"></path>
<path fill="#FFFFFF" fill-opacity="1.0"  filling="0" d="M135.6827392578125 69.58792877197266 C134.40447998046875 69.81524658203125 132.77584838867188 69.78959655761719 131.21742248535156 69.60035705566406 C129.65899658203125 69.41112518310547 128.17076110839844 69.05830383300781 127.17327880859375 68.63130187988281 C128.56643676757812 68.50105285644531 130.0555877685547 68.51625061035156 131.51556396484375 68.67599487304688 C132.97552490234375 68.83573913574219 134.40631103515625 69.14002990722656 135.6827392578125 69.58792877197266"></path>
<path fill="#2B363D" fill-opacity="1.0"  filling="0" d="M137.75021362304688 63.668792724609375 C137.28692626953125 63.157615661621094 137.28692626953125 63.157615661621094 136.259033203125 63.08818054199219 C135.29013061523438 63.02366638183594 135.29013061523438 63.02366638183594 134.6112060546875 63.35729217529297 C134.346435546875 63.48693084716797 134.346435546875 63.48693084716797 134.2161865234375 63.222740173339844 C134.08651733398438 62.95793151855469 134.08651733398438 62.95793151855469 134.3507080078125 62.827674865722656 C135.17218017578125 62.42463684082031 135.17218017578125 62.42463684082031 136.29833984375 62.50019836425781 C137.56402587890625 62.584991455078125 137.56402587890625 62.584991455078125 138.1876220703125 63.27311706542969 C138.28656005859375 63.382476806640625 138.28656005859375 63.382476806640625 138.28103637695312 63.48631286621094 C138.276123046875 63.59075927734375 138.276123046875 63.59075927734375 138.166748046875 63.68968200683594 C137.94863891601562 63.88751983642578 137.94863891601562 63.88751983642578 137.75021362304688 63.668792724609375"></path>
<path fill="#DEA699" fill-opacity="1.0"  filling="0" d="M131.75241088867188 66.7444839477539 C130.19061279296875 66.38014221191406 129.7086181640625 65.67710876464844 129.83041381835938 64.91824340820312 C129.95220947265625 64.15938568115234 130.67782592773438 63.34469223022461 131.53125 62.75701904296875 C131.50112915039062 62.80986785888672 131.47164916992188 62.862083435058594 131.442138671875 62.91368865966797 C130.50579833984375 64.56089782714844 129.79620361328125 65.80935668945312 131.75241088867188 66.7444839477539"></path>
<path fill="#01304E" fill-opacity="1.0"  filling="0" d="M129.27392578125 59.39134216308594 C128.529296875 59.01902770996094 125.87322998046875 59.03251647949219 125.24655151367188 59.61866760253906 C124.78633117675781 60.04875183105469 124.64810180664062 59.34217834472656 125.107666015625 58.9127197265625 C126.03668212890625 58.04396057128906 128.59991455078125 57.980682373046875 129.7027587890625 58.53117370605469 C130.26864624023438 58.81318664550781 129.83978271484375 59.67333984375 129.27392578125 59.39134216308594"></path>
<path fill="#01304E" fill-opacity="1.0"  filling="0" d="M134.5712890625 59.056488037109375 C135.7969970703125 58.768341064453125 138.13726806640625 59.36369323730469 139.00909423828125 60.283447265625 C139.44287109375 60.739952087402344 139.1436767578125 61.452659606933594 138.709228515625 60.99554443359375 C138.07089233398438 60.3221435546875 135.6900634765625 59.77903747558594 134.7918701171875 59.99037170410156 C134.17745971679688 60.13599395751953 133.95687866210938 59.20149230957031 134.5712890625 59.056488037109375"></path>
<path fill="#2B363D" fill-opacity="1.0"  filling="0" d="M124.98175048828125 62.12049865722656 C125.71408081054688 61.549720764160156 125.71408081054688 61.549720764160156 126.9754638671875 61.68367004394531 C128.09735107421875 61.80225372314453 128.09735107421875 61.80225372314453 128.83770751953125 62.34107208251953 C128.9569091796875 62.427696228027344 128.9569091796875 62.427696228027344 128.97344970703125 62.530914306640625 C128.98944091796875 62.63352966308594 128.98944091796875 62.63352966308594 128.90283203125 62.752723693847656 C128.72958374023438 62.991119384765625 128.72958374023438 62.991119384765625 128.49118041992188 62.81785583496094 C127.87802124023438 62.372406005859375 127.87802124023438 62.372406005859375 126.91278076171875 62.269805908203125 C125.88858032226562 62.16166687011719 125.88858032226562 62.16166687011719 125.34420776367188 62.585601806640625 C125.22811889648438 62.67652893066406 125.22811889648438 62.67652893066406 125.12429809570312 62.66363525390625 C125.02104187011719 62.650733947753906 125.02104187011719 62.650733947753906 124.93075561523438 62.53461456298828 C124.74887084960938 62.3023681640625 124.74887084960938 62.3023681640625 124.98175048828125 62.12049865722656"></path>
<path fill="#01304E" fill-opacity="1.0"  filling="0" d="M132.07867431640625 44.23777770996094 C133.54669189453125 44.74424743652344 134.8342742919922 45.47333526611328 135.8625030517578 46.32500457763672 C136.89071655273438 47.17667770385742 137.65960693359375 48.15093231201172 138.0902099609375 49.147743225097656 C138.52084350585938 50.14455032348633 138.61318969726562 51.163909912109375 138.28839111328125 52.10578918457031 C137.96337890625 53.047664642333984 137.26214599609375 53.793270111083984 136.30850219726562 54.31252670288086 C135.3548583984375 54.831787109375 134.14881896972656 55.12469482421875 132.81419372558594 55.161170959472656 C131.47955322265625 55.19764709472656 130.01632690429688 54.977691650390625 128.54833984375 54.471221923828125 C127.08013153076172 53.964752197265625 125.79241180419922 53.23573303222656 124.76410675048828 52.38412857055664 C123.73580932617188 51.53252410888672 122.9669189453125 50.5583381652832 122.5363540649414 49.5615348815918 C122.10579681396484 48.564727783203125 122.01356506347656 47.54530334472656 122.33859252929688 46.60322570800781 C122.66360473632812 45.6611442565918 123.36483764648438 44.91546630859375 124.3184814453125 44.39620590209961 C125.27212524414062 43.87694549560547 126.47817993164062 43.584102630615234 127.81281280517578 43.54769515991211 C129.1474609375 43.51128387451172 130.61068725585938 43.73130798339844 132.07867431640625 44.23777770996094"></path>
<path fill="#01304E" fill-opacity="1.0"  filling="0" d="M144.7052001953125 48.192047119140625 C145.74761962890625 49.49826431274414 146.49774169921875 50.90271759033203 146.94146728515625 52.26907730102539 C147.3852081298828 53.63543701171875 147.52256774902344 54.96370315551758 147.3394775390625 56.11754608154297 C147.15640258789062 57.27138900756836 146.65286254882812 58.25080871582031 145.81478881835938 58.91947937011719 C144.97694396972656 59.58815383911133 143.9102783203125 59.861698150634766 142.74461364746094 59.784122467041016 C141.57894897460938 59.70655059814453 140.31427001953125 59.27785873413086 139.0803985595703 58.542057037353516 C137.84652709960938 57.80625534057617 136.64346313476562 56.763343811035156 135.60104370117188 55.45733642578125 C134.55880737304688 54.15132522583008 133.8087615966797 52.746944427490234 133.36502075195312 51.38058853149414 C132.92127990722656 50.01422882080078 132.7838592529297 48.68589782714844 132.9668731689453 47.53199005126953 C133.14990234375 46.37807846069336 133.65335083007812 45.398590087890625 134.49139404296875 44.72991943359375 C135.32943725585938 44.06124496459961 136.396240234375 43.787696838378906 137.56199645996094 43.86526870727539 C138.72775268554688 43.942840576171875 139.992431640625 44.37152862548828 141.22625732421875 45.107330322265625 C142.46005249023438 45.8431282043457 143.66299438476562 46.88603973388672 144.7052001953125 48.192047119140625"></path>
<path fill="#01304E" fill-opacity="1.0"  filling="0" d="M148.97958374023438 62.827674865722656 C148.2730255126953 64.36767578125 147.20858764648438 65.68172454833984 146.0822296142578 66.48059844970703 C144.9558868408203 67.27947235107422 143.76763916015625 67.56317138671875 142.8134765625 67.0424575805664 C142.05084228515625 66.62605285644531 141.74014282226562 65.58805847167969 141.76583862304688 64.29410552978516 C141.79153442382812 63.000152587890625 142.15362548828125 61.450233459472656 142.73658752441406 60.00996398925781 C143.31954956054688 58.56969451904297 144.12335205078125 57.23908233642578 145.03248596191406 56.383731842041016 C145.94161987304688 55.52838134765625 146.9560546875 55.14830017089844 147.96029663085938 55.609100341796875 C148.94825744628906 56.062522888183594 149.55636596679688 57.097171783447266 149.74082946777344 58.40346145629883 C149.92529296875 59.709754943847656 149.68614196777344 61.28768539428711 148.97958374023438 62.827674865722656"></path>
<path fill="#FBC9BE" fill-opacity="1.0"  filling="0" d="M144.45147705078125 64.76795959472656 C145.08428955078125 65.2471923828125 145.038818359375 66.63511657714844 144.3507080078125 67.86698150634766 C143.66256713867188 69.09947967529297 142.5916748046875 69.7095718383789 141.95947265625 69.2303466796875 C141.3272705078125 68.75111389160156 141.3720703125 67.3637924194336 142.06021118164062 66.13130187988281 C142.74835205078125 64.8988265991211 143.8192138671875 64.2887191772461 144.45147705078125 64.76795959472656"></path>
<path fill="#FBC9BE" fill-opacity="1.0"  filling="0" d="M190.84231567382812 56.97920227050781 C191.782958984375 56.2081298828125 192.44775390625 55.38606262207031 192.94235229492188 54.77473449707031 C193.538330078125 54.03684997558594 193.8873291015625 53.60491943359375 194.17605590820312 53.93792724609375 C194.51736450195312 54.331295013427734 194.30654907226562 55.341407775878906 193.73297119140625 56.59249496459961 C193.15939331054688 57.84358596801758 192.2230682373047 59.335655212402344 191.1133575439453 60.69294357299805 C190.00363159179688 62.05023193359375 188.72052001953125 63.27273178100586 187.453369140625 63.98468780517578 C186.18621826171875 64.69664001464844 184.93504333496094 64.89805603027344 183.88919067382812 64.21315002441406 C183.07101440429688 63.677188873291016 182.50201416015625 62.41814422607422 182.1802215576172 60.957603454589844 C181.85842895507812 59.4970588684082 181.78384399414062 57.83501434326172 181.95452880859375 56.49304962158203 C182.12521362304688 55.151084899902344 182.54116821289062 54.12920379638672 183.20040893554688 53.948974609375 C183.72512817382812 53.80583190917969 184.03045654296875 55.21588134765625 184.44644165039062 57.59114074707031 C185.8515625 55.64625549316406 186.71556091308594 53.72226333618164 187.36582946777344 52.281959533691406 C188.01609802246094 50.841651916503906 188.45263671875 49.885032653808594 189.00283813476562 49.87489318847656 C189.3610382080078 49.988563537597656 189.60372924804688 50.73060607910156 189.6043243408203 51.755577087402344 C189.6049346923828 52.78055191040039 189.36346435546875 54.08845520019531 188.75335693359375 55.33384704589844 C189.58834838867188 54.34834289550781 190.20458984375 53.13983154296875 190.719482421875 52.131591796875 C191.4254150390625 50.746734619140625 191.93963623046875 49.73912048339844 192.56204223632812 50.201141357421875 C193.02684020996094 50.54612731933594 192.99151611328125 51.61487579345703 192.64266967773438 52.91026306152344 C192.29385375976562 54.20564651489258 191.6315155029297 55.72766876220703 190.84231567382812 56.97920227050781"></path>
<path fill="#E6B5AA" fill-opacity="1.0"  filling="0" d="M187.86065673828125 62.3023681640625 C187.99612426757812 61.52238845825195 187.5085906982422 60.292667388916016 186.864013671875 59.19058609008789 C186.21942138671875 58.08850860595703 185.41778564453125 57.11406707763672 184.925048828125 56.84465026855469 C185.65464782714844 56.943572998046875 186.614501953125 57.807884216308594 187.27896118164062 58.89752197265625 C187.94345092773438 59.987159729003906 188.3125457763672 61.302127838134766 187.86065673828125 62.3023681640625"></path>
<path fill="#E6B5AA" fill-opacity="1.0"  filling="0" d="M191.73568725585938 59.390106201171875 C191.46534729003906 58.75359344482422 190.4701690673828 57.74828338623047 189.40318298339844 56.88551330566406 C188.33619689941406 56.02273941040039 187.19740295410156 55.30250549316406 186.63983154296875 55.23614501953125 C187.353759765625 55.055824279785156 188.6751708984375 55.63658905029297 189.79437255859375 56.491294860839844 C190.91357421875 57.346004486083984 191.83058166503906 58.47465515136719 191.73568725585938 59.390106201171875"></path>
<path fill="#FBC9BE" fill-opacity="1.0"  filling="0" d="M80.61837768554688 36.704620361328125 C79.82917785644531 35.452781677246094 79.1668472290039 33.93075942993164 78.8180160522461 32.63545227050781 C78.46919250488281 31.34014129638672 78.4338607788086 30.27154541015625 78.89866638183594 29.926559448242188 C79.52104187011719 29.46453857421875 80.03529357910156 30.472152709960938 80.74124145507812 31.85638427734375 C81.256103515625 32.865234375 81.87234497070312 34.07374572753906 82.70733642578125 35.05924987792969 C82.09722900390625 33.814170837402344 81.85577392578125 32.506263732910156 81.85638427734375 31.481212615966797 C81.85699462890625 30.456161499023438 82.09968566894531 29.713966369628906 82.45787048339844 29.600311279296875 C83.00836944580078 29.610748291015625 83.44490051269531 30.567367553710938 84.0950927734375 32.007598876953125 C84.74528503417969 33.44783020019531 85.60913848876953 35.371673583984375 87.01426696777344 37.316558837890625 C87.43020629882812 34.94129943847656 87.73558044433594 33.53123474121094 88.26028442382812 33.67439270019531 C88.9195327758789 33.854618072509766 89.33547973632812 34.876502990722656 89.50616455078125 36.218467712402344 C89.67684936523438 37.56043243408203 89.6022720336914 39.22247314453125 89.28048706054688 40.68301773071289 C88.95869445800781 42.143558502197266 88.38969421386719 43.40260314941406 87.57151794433594 43.938568115234375 C86.52566528320312 44.62346649169922 85.27447509765625 44.42205810546875 84.00732421875 43.71009826660156 C82.74017333984375 42.99814224243164 81.4570541381836 41.775638580322266 80.34733581542969 40.41835403442383 C79.23760986328125 39.061065673828125 78.30128479003906 37.56899642944336 77.72770690917969 36.31790542602539 C77.15413665771484 35.06681442260742 76.94332122802734 34.05670166015625 77.28462219238281 33.663330078125 C77.57342529296875 33.32972717285156 77.92300415039062 33.76226806640625 78.51956176757812 34.50077819824219 C79.01416015625 35.112091064453125 79.67832946777344 35.934173583984375 80.61837768554688 36.704620361328125"></path>
<path fill="#E6B5AA" fill-opacity="1.0"  filling="0" d="M83.60064697265625 42.02777099609375 C83.14845275878906 41.02753448486328 83.5175552368164 39.7124137878418 84.1821060180664 38.62269973754883 C84.8466567993164 37.53298568725586 85.80665588378906 36.668678283691406 86.5362548828125 36.570068359375 C86.04350280761719 36.83948516845703 85.24186706542969 37.81392288208008 84.5972900390625 38.91600036621094 C83.95270538330078 40.0180778503418 83.46517944335938 41.24779510498047 83.60064697265625 42.02777099609375"></path>
<path fill="#E6B5AA" fill-opacity="1.0"  filling="0" d="M79.72502136230469 39.11491394042969 C79.63008880615234 38.19976806640625 80.54723358154297 37.071266174316406 81.66651916503906 36.216556549072266 C82.78580474853516 35.361846923828125 84.10723114013672 34.78092956542969 84.82086181640625 34.96095275878906 C84.26329040527344 35.027305603027344 83.12450408935547 35.747535705566406 82.05752563476562 36.61030578613281 C80.99053955078125 37.473079681396484 79.99536895751953 38.4783935546875 79.72502136230469 39.11491394042969"></path>
<path fill="#4EDCFC" fill-opacity="1.0"  filling="0" d="M154.33038330078125 165.2493896484375 C153.62814331054688 165.90802001953125 152.654296875 166.79336547851562 151.482666015625 167.79669189453125 C151.0437774658203 166.3665771484375 150.3356475830078 164.69622802734375 149.5054473876953 163.05360412597656 C148.67526245117188 161.41099548339844 147.72299194335938 159.79612731933594 146.7958526611328 158.47695922851562 C145.86871337890625 157.15780639648438 144.96670532226562 156.13433837890625 144.23699951171875 155.67457580566406 C145.64462280273438 154.671875 146.80889892578125 153.9394989013672 147.3575439453125 153.68576049804688 C148.21771240234375 153.9120635986328 149.21884155273438 154.74417114257812 150.19151306152344 155.9291229248047 C151.1641845703125 157.11407470703125 152.10836791992188 158.65187072753906 152.8546600341797 160.28956604003906 C153.6009521484375 161.92726135253906 154.14932250976562 163.66485595703125 154.33038330078125 165.2493896484375"></path>
<path fill="#4EDCFC" fill-opacity="1.0"  filling="0" d="M108.894287109375 185.92332458496094 C108.30076599121094 185.16455078125 107.50633239746094 184.1157684326172 106.61117553710938 182.85870361328125 C107.70894622802734 182.62677001953125 109.00885772705078 182.17799377441406 110.36575317382812 181.6031494140625 C111.72264862060547 181.02830505371094 113.13653564453125 180.32737731933594 114.4622573852539 179.59117126464844 C115.78797912597656 178.85496520996094 117.02552795410156 178.08346557617188 118.02976989746094 177.36746215820312 C119.03400421142578 176.65145874023438 119.80492401123047 175.99093627929688 120.19737243652344 175.4766845703125 C121.07046508789062 176.9684600830078 121.6959228515625 178.1929473876953 121.8992919921875 178.76248168945312 C121.67257690429688 179.3899383544922 121.04534149169922 180.1439666748047 120.15729522705078 180.9238739013672 C119.26924133300781 181.7037811279297 118.12036895751953 182.5095672607422 116.8503646850586 183.24053955078125 C115.58036804199219 183.97152709960938 114.1892318725586 184.62771606445312 112.816650390625 185.1083984375 C111.44407653808594 185.58909606933594 110.09005737304688 185.894287109375 108.894287109375 185.92332458496094"></path>
<path fill="#5271C7" fill-opacity="1.0"  filling="0" d="M127.310302734375 91.6626968383789 C128.2120819091797 90.86550903320312 129.15963745117188 90.02536010742188 130.08457946777344 89.11962127685547 C131.009521484375 88.21388244628906 131.91184997558594 87.2425537109375 132.72315979003906 86.18301391601562 C133.53448486328125 85.12348175048828 134.25479125976562 83.97574615478516 134.81570434570312 82.7171859741211 C135.37661743164062 81.45862579345703 135.7781219482422 80.08924102783203 135.95184326171875 78.58641815185547 C137.99964904785156 79.40090942382812 139.45562744140625 80.57906341552734 140.50242614746094 81.8842544555664 C141.54922485351562 83.18944549560547 142.18682861328125 84.6216812133789 142.59786987304688 85.94434356689453 C143.00889587402344 87.26701354980469 143.193359375 88.48011016845703 143.3338623046875 89.34703063964844 C142.1603546142578 88.30316162109375 140.98008728027344 87.30890655517578 139.86517333984375 86.5632553100586 C138.75027465820312 85.8176040649414 137.7007293701172 85.320556640625 136.78866577148438 85.2710952758789 C136.48924255371094 85.95205688476562 135.83047485351562 86.77603912353516 134.9204559326172 87.60975646972656 C134.01043701171875 88.44347381591797 132.8491668701172 89.28692626953125 131.54476928710938 90.00684356689453 C130.24037170410156 90.72676086425781 128.7928466796875 91.32313537597656 127.310302734375 91.6626968383789"></path>
<path fill="#5271C7" fill-opacity="1.0"  filling="0" d="M127.310302734375 91.6626968383789 C126.19843292236328 90.62456512451172 125.24591064453125 89.38197326660156 124.47927856445312 88.10445404052734 C123.712646484375 86.82693481445312 123.13190460205078 85.51448822021484 122.76361083984375 84.33663940429688 C122.39532470703125 83.1587905883789 122.23947143554688 82.11553955078125 122.3226318359375 81.37641906738281 C121.5091552734375 80.96077728271484 120.3519287109375 80.8635482788086 119.0133056640625 80.94863891601562 C117.6746826171875 81.03373718261719 116.15465545654297 81.3011474609375 114.61558532714844 81.61479949951172 C115.1722183227539 80.93568420410156 115.9078598022461 80.0609130859375 116.8835220336914 79.23236083984375 C117.85919189453125 78.40380859375 119.07488250732422 77.62147521972656 120.59162902832031 77.1272201538086 C122.10838317871094 76.63297271728516 123.92619323730469 76.42680358886719 126.1060791015625 76.75059509277344 C125.97736358642578 78.34788513183594 125.89334869384766 79.7929916381836 125.86344909667969 81.13356018066406 C125.83355712890625 82.47413635253906 125.8577880859375 83.71017456054688 125.94557189941406 84.88932037353516 C126.03335571289062 86.06846618652344 126.1846923828125 87.19072723388672 126.40900421142578 88.30374145507812 C126.63331604003906 89.41675567626953 126.93060302734375 90.52052307128906 127.310302734375 91.6626968383789"></path></svg>