<svg xmlns="http://www.w3.org/2000/svg" viewBox="0.0 0.0 512.0 512.0" height="512.0px" width="512.0px"><path fill="#FFCC85" fill-opacity="1.0"  filling="0" d="M243.0404052734375 361.09222412109375 C245.43536376953125 361.2359619140625 254.0369873046875 369.1064453125 254.2802734375 372.888671875 C254.4658203125 375.76654052734375 249.46090698242188 381.074951171875 245.79290771484375 384.9653015136719 C244.63909912109375 386.1879577636719 243.61795043945312 387.27178955078125 242.9322509765625 388.0950622558594 C240.0654296875 391.5357360839844 222.73941040039062 411.7236633300781 214.759521484375 407.65142822265625 C206.77975463867188 403.5791931152344 211.67404174804688 396.4091491699219 213.9571533203125 393.192138671875 C216.240234375 389.9751281738281 224.54574584960938 379.4603271484375 227.59683227539062 369.27972412109375 L227.69265747070312 368.960205078125 C230.64791870117188 359.0892639160156 230.79049682617188 358.6174011230469 243.0404052734375 361.09222412109375 Z"></path>
<path fill="#FFCC85" fill-opacity="1.0"  filling="0" d="M302.2218017578125 306.749755859375 C302.776123046875 304.3879699707031 312.09161376953125 297.16510009765625 315.902099609375 297.57061767578125 C319.71258544921875 297.97613525390625 326.173583984375 308.03631591796875 329.1116943359375 311.48309326171875 C332.0498046875 314.9286193847656 346.82733154296875 333.0411682128906 341.40216064453125 340.2960205078125 C335.97698974609375 347.5508117675781 331.11956787109375 342.89862060546875 328.30438232421875 340.07232666015625 C325.4891357421875 337.2461242675781 317.358154296875 328.32623291015625 307.73675537109375 323.54254150390625 L307.4344482421875 323.3926086425781 C298.1041259765625 318.755126953125 297.65692138671875 318.53271484375 302.2218017578125 306.749755859375 Z"></path>
<path fill="#FBC9BE" fill-opacity="1.0"  filling="0" d="M229.38348388671875 180.20176696777344 C220.6934814453125 172.09909057617188 190.3936767578125 147.5501251220703 182.92874145507812 135.08517456054688 C175.4637451171875 122.62020874023438 169.79779052734375 95.8876953125 168.55419921875 88.04547119140625 C167.23941040039062 79.74737548828125 174.37384033203125 71.03030395507812 178.66851806640625 87.66085815429688 C180.64199829101562 95.30401611328125 186.19491577148438 107.671875 192.82916259765625 123.11050415039062 C194.223876953125 126.35823059082031 219.01123046875 138.29847717285156 240.53366088867188 156.45523071289062 C251.0091552734375 165.2890625 239.0714111328125 189.23223876953125 229.38348388671875 180.20176696777344 Z"></path>
<path fill="#FBC9BE" fill-opacity="1.0"  filling="0" d="M281.675048828125 199.91664123535156 C269.47802734375 205.07884216308594 266.472412109375 178.49497985839844 279.3404541015625 173.7849884033203 C305.782958984375 164.10696411132812 332.63592529296875 160.8862762451172 335.060302734375 158.31317138671875 C346.58642578125 146.08294677734375 361.6798095703125 131.61505126953125 365.7508544921875 124.85293579101562 C367.586669921875 121.80307006835938 381.04443359375 119.88369750976562 373.176513671875 129.50396728515625 C368.15185546875 135.649169921875 356.3984375 158.94723510742188 345.1131591796875 168.09811401367188 C333.82781982421875 177.2477569580078 292.6163330078125 195.28530883789062 281.675048828125 199.91664123535156 Z"></path>
<path fill="#FB9300" fill-opacity="1.0"  filling="0" d="M299.72491455078125 307.901123046875 C300.27911376953125 305.53936767578125 309.59466552734375 298.3164978027344 313.4051513671875 298.72198486328125 C317.2156982421875 299.1275329589844 323.67669677734375 309.18890380859375 326.61474609375 312.634521484375 C329.5528564453125 316.08001708984375 344.33038330078125 334.1925048828125 338.9052734375 341.4485778808594 C334.2652587890625 347.65283203125 329.5491943359375 342.2706604003906 326.52142333984375 338.8140563964844 C326.009033203125 338.2279052734375 325.54449462890625 337.69830322265625 325.136474609375 337.28912353515625 C322.3212890625 334.462890625 314.862548828125 329.4788513183594 305.23974609375 324.69512939453125 L304.941162109375 324.5464782714844 C295.607177734375 319.90771484375 295.159912109375 319.6865234375 299.72491455078125 307.901123046875 Z"></path>
<path fill="#FBC9BE" fill-opacity="1.0"  filling="0" d="M300.35650634765625 307.81390380859375 C305.45361328125 301.8787841796875 317.4786376953125 320.50738525390625 315.6219482421875 325.3673095703125 C314.1781005859375 329.1470947265625 312.38037109375 328.1468505859375 310.4007568359375 327.04705810546875 C309.041748046875 326.2913513183594 307.5966796875 325.48895263671875 306.123291015625 326.15740966796875 L288.17919921875 335.5417785644531 L281.972412109375 321.5874938964844 C288.04400634765625 317.12451171875 294.9117431640625 314.1569519042969 300.35650634765625 307.81390380859375 Z"></path>
<path fill="#FB9300" fill-opacity="1.0"  filling="0" d="M241.40853881835938 358.5289306640625 C243.80349731445312 358.6739196777344 252.4051513671875 366.54315185546875 252.6484375 370.32537841796875 C252.833984375 373.2032470703125 247.8291015625 378.51165771484375 244.16104125976562 382.40203857421875 C243.00726318359375 383.62469482421875 241.98614501953125 384.7085266113281 241.3004150390625 385.53179931640625 C238.43365478515625 388.97247314453125 221.1075439453125 409.16162109375 213.127685546875 405.088134765625 C206.2833251953125 401.59588623046875 212.36468505859375 394.05230712890625 215.67376708984375 389.9468994140625 C216.22430419921875 389.2649230957031 216.69741821289062 388.6787414550781 217.021728515625 388.2204284667969 C219.304931640625 385.00341796875 222.91390991210938 376.89703369140625 225.96499633789062 366.7164306640625 L226.06085205078125 366.39447021484375 C229.017333984375 356.5247497558594 229.15866088867188 356.05413818359375 241.40853881835938 358.5289306640625 Z"></path>
<path fill="#FBC9BE" fill-opacity="1.0"  filling="0" d="M241.60025024414062 359.13104248046875 C248.23944091796875 363.103759765625 232.0966796875 377.9452209472656 227.048828125 376.9510803222656 C223.122802734375 376.17816162109375 223.796142578125 374.25634765625 224.535888671875 372.14404296875 C225.04458618164062 370.69158935546875 225.58526611328125 369.1482238769531 224.68707275390625 367.82476806640625 L212.53424072265625 351.90570068359375 L225.09500122070312 343.5179138183594 C230.46240234375 348.68865966796875 234.50515747070312 354.8855285644531 241.60025024414062 359.13104248046875 Z"></path>
<path fill="#059DBF" fill-opacity="1.0"  filling="0" d="M307.9234619140625 329.7615051269531 C299.23095703125 337.910888671875 269.8651123046875 363.35443115234375 253.43853759765625 355.4433898925781 C244.0947265625 350.94354248046875 245.35665893554688 321.7485046386719 246.21441650390625 301.94024658203125 C246.68865966796875 290.969482421875 247.03890991210938 282.87786865234375 245.392333984375 283.4590759277344 C240.77447509765625 285.0896911621094 220.01150512695312 305.6942138671875 210.31625366210938 314.87579345703125 C221.45404052734375 322.21051025390625 240.285400390625 349.59063720703125 243.27386474609375 358.0115966796875 C237.29824829101562 363.7156677246094 226.49951171875 368.71075439453125 218.79986572265625 369.78472900390625 C207.6619873046875 350.2271423339844 180.5264892578125 326.50146484375 180.25360107421875 311.5617370605469 C179.9820556640625 296.62200927734375 222.13973999023438 244.65480041503906 231.9185791015625 234.60446166992188 C237.62261962890625 227.5425262451172 271.60748291015625 233.60174560546875 278.66943359375 236.59019470214844 C293.85003662109375 266.74371337890625 283.78125 294.44329833984375 274.7176513671875 319.3769226074219 C273.4630126953125 322.829833984375 272.22686767578125 326.22869873046875 271.0804443359375 329.5734558105469 C275.37744140625 322.0126647949219 291.62591552734375 310.4754638671875 295.15625 308.8460693359375 C300.3184814453125 310.2038879394531 306.8372802734375 320.2542724609375 307.9234619140625 329.7615051269531 Z"></path>
<path fill="#3554A6" fill-opacity="1.0"  filling="0" d="M209.7349853515625 245.36012268066406 C213.6044921875 241.1047821044922 219.80255126953125 216.0987091064453 220.8802490234375 212.7797393798828 C221.95791625976562 209.4607391357422 224.010009765625 180.79652404785156 222.19622802734375 179.3846435546875 C220.382568359375 177.97274780273438 205.48577880859375 166.3335418701172 201.6728515625 160.55084228515625 C204.77316284179688 152.91014099121094 209.49166870117188 142.6410369873047 216.84365844726562 138.4815673828125 C250.81991577148438 158.21241760253906 275.4229736328125 161.1492462158203 311.10980224609375 163.51100158691406 C317.0828857421875 168.99267578125 319.61676025390625 180.96487426757812 317.876708984375 188.0108184814453 C312.6556396484375 191.74267578125 294.5933837890625 194.9953155517578 291.0999755859375 195.6146240234375 C287.60650634765625 196.2339324951172 285.25341796875 215.02720642089844 286.150390625 222.95912170410156 C287.04742431640625 230.89102172851562 288.8009033203125 250.4105224609375 291.1749267578125 258.98626708984375 C280.927978515625 263.31903076171875 237.16064453125 276.3652038574219 209.7349853515625 245.36012268066406 Z"></path>
<path fill="#FBC9BE" fill-opacity="1.0"  filling="0" d="M254.2310791015625 135.44029235839844 L274.0909423828125 137.61404418945312 L271.0950927734375 164.38958740234375 C270.1981201171875 172.40750122070312 256.83489990234375 183.4544219970703 254.619384765625 183.3253936767578 C252.42108154296875 183.19760131835938 250.71551513671875 166.85946655273438 251.2352294921875 162.21583557128906 Z"></path>
<path fill="#E6B3A8" fill-opacity="1.0"  filling="0" d="M272.26617431640625 153.9251251220703 C271.9110107421875 157.1089324951172 271.5546875 160.29151916503906 271.1983642578125 163.47415161132812 C262.654541015625 165.94894409179688 255.84326171875 164.37486267089844 251.87179565429688 156.52650451660156 L252.4063720703125 151.75137329101562 C258.75799560546875 153.08340454101562 265.91448974609375 152.59310913085938 272.26617431640625 153.9251251220703 Z"></path>
<path fill="#01304E" fill-opacity="1.0"  filling="0" d="M260.66259765625 102.80950927734375 C269.6463623046875 105.28555297851562 275.6405029296875 111.96530151367188 274.0516357421875 117.7296142578125 C272.46282958984375 123.49267578125 263.89190673828125 126.15791320800781 254.90936279296875 123.68190002441406 C245.9256591796875 121.20465087890625 239.93157958984375 114.52487182617188 241.5203857421875 108.76181030273438 C243.1092529296875 102.99871826171875 251.68008422851562 100.33349609375 260.66259765625 102.80950927734375 Z"></path>
<path fill="#FBC9BE" fill-opacity="1.0"  filling="0" d="M268.154541015625 103.37966918945312 C283.6939697265625 104.63796997070312 288.325439453125 119.16360473632812 285.34429931640625 134.6894989013672 C282.45050048828125 149.76808166503906 271.591552734375 159.48545837402344 260.8408203125 157.85606384277344 C252.4481201171875 156.58425903320312 246.063232421875 146.81407165527344 244.58868408203125 134.9598388671875 C242.3079833984375 116.62860107421875 248.42007446289062 101.781005859375 268.154541015625 103.37966918945312 Z"></path>
<path fill="#C99387" fill-opacity="1.0"  filling="0" d="M274.49639892578125 139.42160034179688 C269.4227294921875 153.62161254882812 252.79217529296875 150.96372985839844 251.5718994140625 136.9357452392578 C258.1484375 135.6405792236328 267.514404296875 136.6211700439453 274.49639892578125 139.42160034179688 Z"></path>
<path fill="#FFFFFF" fill-opacity="1.0"  filling="0" d="M271.365478515625 139.1758575439453 C266.25244140625 140.08514404296875 258.33648681640625 138.9706268310547 254.3465576171875 137.26260375976562 C259.919189453125 136.74159240722656 266.259765625 137.38424682617188 271.365478515625 139.1758575439453 Z"></path>
<path fill="#2B363D" fill-opacity="1.0"  filling="0" d="M275.50042724609375 127.33758544921875 C274.5738525390625 126.31523132324219 274.5738525390625 126.31523132324219 272.51806640625 126.17636108398438 C270.58026123046875 126.04733276367188 270.58026123046875 126.04733276367188 269.222412109375 126.71458435058594 C268.69287109375 126.97386169433594 268.69287109375 126.97386169433594 268.432373046875 126.44548034667969 C268.17303466796875 125.91586303710938 268.17303466796875 125.91586303710938 268.701416015625 125.65534973144531 C270.3443603515625 124.84927368164062 270.3443603515625 124.84927368164062 272.5966796875 125.00039672851562 C275.1280517578125 125.16998291015625 275.1280517578125 125.16998291015625 276.375244140625 126.54623413085938 C276.5731201171875 126.76495361328125 276.5731201171875 126.76495361328125 276.56207275390625 126.97262573242188 C276.55224609375 127.1815185546875 276.55224609375 127.1815185546875 276.33349609375 127.37936401367188 C275.89727783203125 127.77503967285156 275.89727783203125 127.77503967285156 275.50042724609375 127.33758544921875 Z"></path>
<path fill="#DEA699" fill-opacity="1.0"  filling="0" d="M263.50482177734375 133.4889678955078 C257.25762939453125 132.03158569335938 259.6488037109375 127.86473083496094 263.0625 125.5140380859375 C263.00225830078125 125.61973571777344 262.94329833984375 125.72416687011719 262.88427734375 125.82737731933594 C261.0115966796875 129.12179565429688 259.5924072265625 131.61871337890625 263.50482177734375 133.4889678955078 Z"></path>
<path fill="#01304E" fill-opacity="1.0"  filling="0" d="M258.5478515625 118.78268432617188 C257.05859375 118.03805541992188 251.7464599609375 118.06503295898438 250.49310302734375 119.23733520507812 C249.57266235351562 120.09750366210938 249.29620361328125 118.68435668945312 250.21533203125 117.825439453125 C252.0733642578125 116.08792114257812 257.1998291015625 115.96136474609375 259.405517578125 117.06234741210938 C260.53729248046875 117.62637329101562 259.6795654296875 119.3466796875 258.5478515625 118.78268432617188 Z"></path>
<path fill="#01304E" fill-opacity="1.0"  filling="0" d="M269.142578125 118.11297607421875 C271.593994140625 117.53668212890625 276.2745361328125 118.72738647460938 278.0181884765625 120.56689453125 C278.8857421875 121.47990417480469 278.287353515625 122.90531921386719 277.41845703125 121.9910888671875 C276.14178466796875 120.644287109375 271.380126953125 119.55807495117188 269.583740234375 119.98074340820312 C268.35491943359375 120.27198791503906 267.91375732421875 118.40298461914062 269.142578125 118.11297607421875 Z"></path>
<path fill="#2B363D" fill-opacity="1.0"  filling="0" d="M249.9635009765625 124.24099731445312 C251.42816162109375 123.09944152832031 251.42816162109375 123.09944152832031 253.950927734375 123.36734008789062 C256.1947021484375 123.60450744628906 256.1947021484375 123.60450744628906 257.6754150390625 124.68214416503906 C257.913818359375 124.85539245605469 257.913818359375 124.85539245605469 257.9468994140625 125.06182861328125 C257.9788818359375 125.26705932617188 257.9788818359375 125.26705932617188 257.8056640625 125.50544738769531 C257.45916748046875 125.98223876953125 257.45916748046875 125.98223876953125 256.98236083984375 125.63571166992188 C255.75604248046875 124.74481201171875 255.75604248046875 124.74481201171875 253.8255615234375 124.53961181640625 C251.77716064453125 124.32333374023438 251.77716064453125 124.32333374023438 250.68841552734375 125.17120361328125 C250.45623779296875 125.35305786132812 250.45623779296875 125.35305786132812 250.24859619140625 125.3272705078125 C250.04208374023438 125.30146789550781 250.04208374023438 125.30146789550781 249.86151123046875 125.06922912597656 C249.49774169921875 124.604736328125 249.49774169921875 124.604736328125 249.9635009765625 124.24099731445312 Z"></path>
<path fill="#01304E" fill-opacity="1.0"  filling="0" d="M264.1573486328125 88.47555541992188 C272.9654541015625 91.51437377929688 278.525634765625 98.560302734375 276.5767822265625 104.21157836914062 C274.626708984375 109.86282348632812 265.9046630859375 111.98126220703125 257.0966796875 108.94244384765625 C248.28741455078125 105.90362548828125 242.72705078125 98.85891723632812 244.67718505859375 93.20645141601562 C246.62725830078125 87.553955078125 255.349365234375 85.43673706054688 264.1573486328125 88.47555541992188 Z"></path>
<path fill="#01304E" fill-opacity="1.0"  filling="0" d="M289.410400390625 96.38409423828125 C295.6649169921875 104.22140502929688 296.657958984375 113.82693481445312 291.62957763671875 117.83895874023438 C286.6025390625 121.85099792480469 277.4566650390625 118.750732421875 271.20208740234375 110.9146728515625 C264.94866943359375 103.07861328125 263.95458984375 93.47186279296875 268.9827880859375 89.4598388671875 C274.01104736328125 85.44778442382812 283.1571044921875 88.54803466796875 289.410400390625 96.38409423828125 Z"></path>
<path fill="#01304E" fill-opacity="1.0"  filling="0" d="M297.95916748046875 125.65534973144531 C295.1329345703125 131.81533813476562 289.443603515625 136.16775512695312 285.626953125 134.0849151611328 C279.52587890625 130.75364685058594 287.88671875 107.53179931640625 295.92059326171875 111.21820068359375 C299.8724365234375 113.03189086914062 300.785400390625 119.49539184570312 297.95916748046875 125.65534973144531 Z"></path>
<path fill="#FBC9BE" fill-opacity="1.0"  filling="0" d="M288.9029541015625 129.53591918945312 C290.1685791015625 130.494384765625 290.07763671875 133.27023315429688 288.701416015625 135.7339630126953 C287.32513427734375 138.19895935058594 285.183349609375 139.4191436767578 283.9189453125 138.460693359375 C282.654541015625 137.50222778320312 282.744140625 134.7275848388672 284.12042236328125 132.26260375976562 C285.4967041015625 129.7976531982422 287.638427734375 128.5774383544922 288.9029541015625 129.53591918945312 Z"></path>
<path fill="#FBC9BE" fill-opacity="1.0"  filling="0" d="M381.68463134765625 113.95840454101562 C383.56591796875 112.416259765625 384.8955078125 110.77212524414062 385.88470458984375 109.54946899414062 C387.07666015625 108.07369995117188 387.774658203125 107.2098388671875 388.35211181640625 107.8758544921875 C391.08251953125 111.02279663085938 376.14520263671875 133.905517578125 367.77838134765625 128.42630004882812 C362.86932373046875 125.21052551269531 362.4453125 108.97930908203125 366.40081787109375 107.89794921875 C367.45025634765625 107.61166381835938 368.0609130859375 110.4317626953125 368.89288330078125 115.18228149414062 C374.51336669921875 107.40274047851562 375.80487060546875 99.79034423828125 378.00567626953125 99.74978637695312 C379.4384765625 100.2044677734375 379.9471435546875 105.68612670898438 377.5067138671875 110.66769409179688 C379.17669677734375 108.69668579101562 380.4091796875 106.2796630859375 381.43896484375 104.26318359375 C382.850830078125 101.49346923828125 383.8792724609375 99.47824096679688 385.12408447265625 100.40228271484375 C386.9832763671875 101.7822265625 384.8414306640625 108.9522705078125 381.68463134765625 113.95840454101562 Z"></path>
<path fill="#E6B5AA" fill-opacity="1.0"  filling="0" d="M375.7213134765625 124.604736328125 C376.26318359375 121.48481750488281 371.821044921875 114.7669677734375 369.85009765625 113.68930053710938 C372.76849365234375 114.08499145507812 377.52886962890625 120.60377502441406 375.7213134765625 124.604736328125 Z"></path>
<path fill="#E6B5AA" fill-opacity="1.0"  filling="0" d="M383.47137451171875 118.78021240234375 C382.3900146484375 116.23416137695312 375.50994873046875 110.73773193359375 373.2796630859375 110.4722900390625 C376.1353759765625 109.75100708007812 383.8509521484375 115.118408203125 383.47137451171875 118.78021240234375 Z"></path>
<path fill="#FBC9BE" fill-opacity="1.0"  filling="0" d="M161.23675537109375 73.40924072265625 C158.0799560546875 68.40188598632812 155.9381103515625 61.233062744140625 157.79733276367188 59.853118896484375 C159.04208374023438 58.9290771484375 160.07058715820312 60.944305419921875 161.48248291015625 63.7127685546875 C162.51220703125 65.73046875 163.74468994140625 68.14749145507812 165.4146728515625 70.11849975585938 C162.9742431640625 65.13818359375 163.48300170898438 59.655242919921875 164.91574096679688 59.20062255859375 C167.11773681640625 59.24237060546875 168.40802001953125 66.85357666015625 174.02853393554688 74.63311767578125 C174.86041259765625 69.88259887695312 175.47116088867188 67.06246948242188 176.52056884765625 67.34878540039062 C180.47607421875 68.43014526367188 180.05206298828125 84.66134643554688 175.14303588867188 87.87713623046875 C166.77618408203125 93.3563232421875 151.83883666992188 70.4736328125 154.56924438476562 67.32666015625 C155.1468505859375 66.65945434570312 155.84600830078125 67.5245361328125 157.03912353515625 69.00155639648438 C158.0283203125 70.22418212890625 159.35665893554688 71.86834716796875 161.23675537109375 73.40924072265625 Z"></path>
<path fill="#E6B5AA" fill-opacity="1.0"  filling="0" d="M167.2012939453125 84.0555419921875 C165.39251708984375 80.05459594726562 170.15411376953125 73.53457641601562 173.072509765625 73.14013671875 C171.10150146484375 74.21780395507812 166.659423828125 80.93563842773438 167.2012939453125 84.0555419921875 Z"></path>
<path fill="#E6B5AA" fill-opacity="1.0"  filling="0" d="M159.45004272460938 78.22982788085938 C159.0703125 74.56924438476562 166.78720092773438 69.20181274414062 169.6417236328125 69.92190551757812 C167.41143798828125 70.18731689453125 160.53143310546875 75.68374633789062 159.45004272460938 78.22982788085938 Z"></path>
<path fill="#4EDCFC" fill-opacity="1.0"  filling="0" d="M308.6607666015625 330.498779296875 C307.25628662109375 331.8160400390625 305.30859375 333.58673095703125 302.96533203125 335.5933837890625 C300.33203125 327.0126647949219 292.85223388671875 314.1077880859375 288.4739990234375 311.3491516113281 C291.28924560546875 309.34375 293.6177978515625 307.8789978027344 294.715087890625 307.37152099609375 C299.8760986328125 308.7293701171875 307.574462890625 320.9915466308594 308.6607666015625 330.498779296875 Z"></path>
<path fill="#4EDCFC" fill-opacity="1.0"  filling="0" d="M217.78857421875 371.8466491699219 C216.60153198242188 370.3291015625 215.01266479492188 368.2315368652344 213.22235107421875 365.7174072265625 C222.0045166015625 363.8619384765625 237.25515747070312 355.0673828125 240.39474487304688 350.953369140625 C242.14093017578125 353.9369201660156 243.391845703125 356.3858947753906 243.798583984375 357.52496337890625 C241.98483276367188 362.54461669921875 227.354736328125 371.6144104003906 217.78857421875 371.8466491699219 Z"></path>
<path fill="#5271C7" fill-opacity="1.0"  filling="0" d="M254.62060546875 183.3253936767578 C261.8348388671875 176.9479217529297 270.513916015625 169.19541931152344 271.9036865234375 157.17283630371094 C284.19049072265625 162.05979919433594 285.82470703125 173.49253845214844 286.667724609375 178.69406127929688 C281.97369384765625 174.51858520507812 277.2255859375 170.74002075195312 273.57733154296875 170.5421905517578 C271.78082275390625 174.62796020507812 263.515869140625 181.2880401611328 254.62060546875 183.3253936767578 Z"></path>
<path fill="#5271C7" fill-opacity="1.0"  filling="0" d="M254.62060546875 183.3253936767578 C247.94940185546875 177.0966033935547 244.14633178710938 167.18756103515625 244.645263671875 162.75283813476562 C241.391357421875 161.09027099609375 235.387451171875 161.97500610351562 229.23117065429688 163.22959899902344 C232.57098388671875 159.15489196777344 239.1328125 151.55845642089844 252.212158203125 153.50119018554688 C251.18243408203125 166.27947998046875 251.58303833007812 174.18804931640625 254.62060546875 183.3253936767578 Z"></path></svg>